  0
SECTION
  2
BLOCKS
  0
ENDSEC
  0
SECTION
  2
ENTITIES
  0
LINE
  8
0
 10
146.9
 20
9.5
 11
145.9
 21
9.5
  0
LINE
  8
0
 10
145.9
 20
9.5
 11
131.775
 21
9.50154
  0
LINE
  8
0
 10
131.775
 20
9.50154
 11
131.278
 21
9.5388
  0
LINE
  8
0
 10
131.278
 20
9.5388
 11
130.787
 21
9.62535
  0
LINE
  8
0
 10
130.787
 20
9.62535
 11
130.308
 21
9.76036
  0
LINE
  8
0
 10
130.308
 20
9.76036
 11
129.844
 21
9.94246
  0
LINE
  8
0
 10
129.844
 20
9.94246
 11
129.4
 21
10.1699
  0
LINE
  8
0
 10
129.4
 20
10.1699
 11
128.981
 21
10.4403
  0
LINE
  8
0
 10
128.981
 20
10.4403
 11
128.592
 21
10.7511
  0
LINE
  8
0
 10
128.592
 20
10.7511
 11
128.235
 21
11.0991
  0
LINE
  8
0
 10
128.235
 20
11.0991
 11
127.914
 21
11.481
  0
LINE
  8
0
 10
127.914
 20
11.481
 11
127.634
 21
11.8928
  0
LINE
  8
0
 10
127.634
 20
11.8928
 11
127.395
 21
12.3306
  0
LINE
  8
0
 10
127.395
 20
12.3306
 11
127.202
 21
12.7899
  0
LINE
  8
0
 10
127.202
 20
12.7899
 11
127.055
 21
13.2662
  0
LINE
  8
0
 10
127.055
 20
13.2662
 11
126.956
 21
13.7548
  0
LINE
  8
0
 10
126.956
 20
13.7548
 11
126.906
 21
14.2508
  0
LINE
  8
0
 10
126.906
 20
14.2508
 11
126.906
 21
22.7492
  0
LINE
  8
0
 10
126.906
 20
22.7492
 11
126.956
 21
23.2452
  0
LINE
  8
0
 10
126.956
 20
23.2452
 11
127.055
 21
23.7338
  0
LINE
  8
0
 10
127.055
 20
23.7338
 11
127.202
 21
24.2101
  0
LINE
  8
0
 10
127.202
 20
24.2101
 11
127.395
 21
24.6694
  0
LINE
  8
0
 10
127.395
 20
24.6694
 11
127.634
 21
25.1072
  0
LINE
  8
0
 10
127.634
 20
25.1072
 11
127.914
 21
25.519
  0
LINE
  8
0
 10
127.914
 20
25.519
 11
128.235
 21
25.9009
  0
LINE
  8
0
 10
128.235
 20
25.9009
 11
128.592
 21
26.2489
  0
LINE
  8
0
 10
128.592
 20
26.2489
 11
128.981
 21
26.5597
  0
LINE
  8
0
 10
128.981
 20
26.5597
 11
129.4
 21
26.8301
  0
LINE
  8
0
 10
129.4
 20
26.8301
 11
129.844
 21
27.0575
  0
LINE
  8
0
 10
129.844
 20
27.0575
 11
130.308
 21
27.2396
  0
LINE
  8
0
 10
130.308
 20
27.2396
 11
130.787
 21
27.3746
  0
LINE
  8
0
 10
130.787
 20
27.3746
 11
131.278
 21
27.4612
  0
LINE
  8
0
 10
131.278
 20
27.4612
 11
131.775
 21
27.4984
  0
LINE
  8
0
 10
131.775
 20
27.4984
 11
145.9
 21
27.5
  0
LINE
  8
0
 10
145.9
 20
27.5
 11
146.9
 21
27.5
  0
LINE
  8
0
 10
146.9
 20
27.5
 11
146.9
 21
124.3
  0
LINE
  8
0
 10
146.9
 20
124.3
 11
-8
 21
124.3
  0
LINE
  8
0
 10
-8
 20
124.3
 11
-8
 21
-3
  0
LINE
  8
0
 10
-8
 20
-3
 11
146.9
 21
-3
  0
LINE
  8
0
 10
146.9
 20
-3
 11
146.9
 21
9.5
  0
LINE
  8
0
 10
142.544
 20
117.49
 11
142.1
 21
117.664
  0
LINE
  8
0
 10
142.1
 20
117.664
 11
141.727
 21
117.962
  0
LINE
  8
0
 10
141.727
 20
117.962
 11
141.458
 21
118.356
  0
LINE
  8
0
 10
141.458
 20
118.356
 11
141.318
 21
118.812
  0
LINE
  8
0
 10
141.318
 20
118.812
 11
141.318
 21
119.288
  0
LINE
  8
0
 10
141.318
 20
119.288
 11
141.458
 21
119.744
  0
LINE
  8
0
 10
141.458
 20
119.744
 11
141.727
 21
120.138
  0
LINE
  8
0
 10
141.727
 20
120.138
 11
142.1
 21
120.436
  0
LINE
  8
0
 10
142.1
 20
120.436
 11
142.544
 21
120.61
  0
LINE
  8
0
 10
142.544
 20
120.61
 11
143.02
 21
120.646
  0
LINE
  8
0
 10
143.02
 20
120.646
 11
143.485
 21
120.539
  0
LINE
  8
0
 10
143.485
 20
120.539
 11
143.898
 21
120.301
  0
LINE
  8
0
 10
143.898
 20
120.301
 11
144.222
 21
119.951
  0
LINE
  8
0
 10
144.222
 20
119.951
 11
144.429
 21
119.522
  0
LINE
  8
0
 10
144.429
 20
119.522
 11
144.5
 21
119.05
  0
LINE
  8
0
 10
144.5
 20
119.05
 11
144.429
 21
118.578
  0
LINE
  8
0
 10
144.429
 20
118.578
 11
144.222
 21
118.149
  0
LINE
  8
0
 10
144.222
 20
118.149
 11
143.898
 21
117.799
  0
LINE
  8
0
 10
143.898
 20
117.799
 11
143.485
 21
117.561
  0
LINE
  8
0
 10
143.485
 20
117.561
 11
143.02
 21
117.454
  0
LINE
  8
0
 10
143.02
 20
117.454
 11
142.544
 21
117.49
  0
LINE
  8
0
 10
-4.35603
 20
117.49
 11
-4.79999
 21
117.664
  0
LINE
  8
0
 10
-4.79999
 20
117.664
 11
-5.17288
 21
117.962
  0
LINE
  8
0
 10
-5.17288
 20
117.962
 11
-5.44154
 21
118.356
  0
LINE
  8
0
 10
-5.44154
 20
118.356
 11
-5.58212
 21
118.812
  0
LINE
  8
0
 10
-5.58212
 20
118.812
 11
-5.58212
 21
119.288
  0
LINE
  8
0
 10
-5.58212
 20
119.288
 11
-5.44154
 21
119.744
  0
LINE
  8
0
 10
-5.44154
 20
119.744
 11
-5.17288
 21
120.138
  0
LINE
  8
0
 10
-5.17288
 20
120.138
 11
-4.79999
 21
120.436
  0
LINE
  8
0
 10
-4.79999
 20
120.436
 11
-4.35603
 21
120.61
  0
LINE
  8
0
 10
-4.35603
 20
120.61
 11
-3.88043
 21
120.646
  0
LINE
  8
0
 10
-3.88043
 20
120.646
 11
-3.41545
 21
120.539
  0
LINE
  8
0
 10
-3.41545
 20
120.539
 11
-3.00241
 21
120.301
  0
LINE
  8
0
 10
-3.00241
 20
120.301
 11
-2.67801
 21
119.951
  0
LINE
  8
0
 10
-2.67801
 20
119.951
 11
-2.47107
 21
119.522
  0
LINE
  8
0
 10
-2.47107
 20
119.522
 11
-2.39999
 21
119.05
  0
LINE
  8
0
 10
-2.39999
 20
119.05
 11
-2.47107
 21
118.578
  0
LINE
  8
0
 10
-2.47107
 20
118.578
 11
-2.67801
 21
118.149
  0
LINE
  8
0
 10
-2.67801
 20
118.149
 11
-3.00241
 21
117.799
  0
LINE
  8
0
 10
-3.00241
 20
117.799
 11
-3.41545
 21
117.561
  0
LINE
  8
0
 10
-3.41545
 20
117.561
 11
-3.88043
 21
117.454
  0
LINE
  8
0
 10
-3.88043
 20
117.454
 11
-4.35603
 21
117.49
  0
LINE
  8
0
 10
122.578
 20
27.0388
 11
122.087
 21
27.1254
  0
LINE
  8
0
 10
122.087
 20
27.1254
 11
121.608
 21
27.2604
  0
LINE
  8
0
 10
121.608
 20
27.2604
 11
121.144
 21
27.4425
  0
LINE
  8
0
 10
121.144
 20
27.4425
 11
120.7
 21
27.6699
  0
LINE
  8
0
 10
120.7
 20
27.6699
 11
120.281
 21
27.9403
  0
LINE
  8
0
 10
120.281
 20
27.9403
 11
119.892
 21
28.2511
  0
LINE
  8
0
 10
119.892
 20
28.2511
 11
119.535
 21
28.5991
  0
LINE
  8
0
 10
119.535
 20
28.5991
 11
119.214
 21
28.981
  0
LINE
  8
0
 10
119.214
 20
28.981
 11
118.934
 21
29.3928
  0
LINE
  8
0
 10
118.934
 20
29.3928
 11
118.695
 21
29.8306
  0
LINE
  8
0
 10
118.695
 20
29.8306
 11
118.502
 21
30.2899
  0
LINE
  8
0
 10
118.502
 20
30.2899
 11
118.355
 21
30.7662
  0
LINE
  8
0
 10
118.355
 20
30.7662
 11
118.256
 21
31.2548
  0
LINE
  8
0
 10
118.256
 20
31.2548
 11
118.206
 21
31.7508
  0
LINE
  8
0
 10
118.206
 20
31.7508
 11
118.206
 21
63.9492
  0
LINE
  8
0
 10
118.206
 20
63.9492
 11
118.256
 21
64.4452
  0
LINE
  8
0
 10
118.256
 20
64.4452
 11
118.355
 21
64.9338
  0
LINE
  8
0
 10
118.355
 20
64.9338
 11
118.502
 21
65.4101
  0
LINE
  8
0
 10
118.502
 20
65.4101
 11
118.695
 21
65.8694
  0
LINE
  8
0
 10
118.695
 20
65.8694
 11
118.934
 21
66.3072
  0
LINE
  8
0
 10
118.934
 20
66.3072
 11
119.214
 21
66.719
  0
LINE
  8
0
 10
119.214
 20
66.719
 11
119.535
 21
67.1009
  0
LINE
  8
0
 10
119.535
 20
67.1009
 11
119.892
 21
67.4489
  0
LINE
  8
0
 10
119.892
 20
67.4489
 11
120.281
 21
67.7597
  0
LINE
  8
0
 10
120.281
 20
67.7597
 11
120.7
 21
68.0301
  0
LINE
  8
0
 10
120.7
 20
68.0301
 11
121.144
 21
68.2575
  0
LINE
  8
0
 10
121.144
 20
68.2575
 11
121.608
 21
68.4396
  0
LINE
  8
0
 10
121.608
 20
68.4396
 11
122.087
 21
68.5746
  0
LINE
  8
0
 10
122.087
 20
68.5746
 11
122.578
 21
68.6612
  0
LINE
  8
0
 10
122.578
 20
68.6612
 11
123.075
 21
68.6984
  0
LINE
  8
0
 10
123.075
 20
68.6984
 11
123.574
 21
68.686
  0
LINE
  8
0
 10
123.574
 20
68.686
 11
124.068
 21
68.624
  0
LINE
  8
0
 10
124.068
 20
68.624
 11
124.554
 21
68.5131
  0
LINE
  8
0
 10
124.554
 20
68.5131
 11
125.027
 21
68.3544
  0
LINE
  8
0
 10
125.027
 20
68.3544
 11
125.481
 21
68.1494
  0
LINE
  8
0
 10
125.481
 20
68.1494
 11
125.913
 21
67.9001
  0
LINE
  8
0
 10
125.913
 20
67.9001
 11
126.317
 21
67.6091
  0
LINE
  8
0
 10
126.317
 20
67.6091
 11
126.691
 21
67.2793
  0
LINE
  8
0
 10
126.691
 20
67.2793
 11
127.03
 21
66.9139
  0
LINE
  8
0
 10
127.03
 20
66.9139
 11
127.331
 21
66.5166
  0
LINE
  8
0
 10
127.331
 20
66.5166
 11
127.591
 21
66.0913
  0
LINE
  8
0
 10
127.591
 20
66.0913
 11
127.807
 21
65.6422
  0
LINE
  8
0
 10
127.807
 20
65.6422
 11
127.978
 21
65.1738
  0
LINE
  8
0
 10
127.978
 20
65.1738
 11
128.101
 21
64.6907
  0
LINE
  8
0
 10
128.101
 20
64.6907
 11
128.175
 21
64.1978
  0
LINE
  8
0
 10
128.175
 20
64.1978
 11
128.2
 21
63.7
  0
LINE
  8
0
 10
128.2
 20
63.7
 11
128.2
 21
32
  0
LINE
  8
0
 10
128.2
 20
32
 11
128.175
 21
31.5022
  0
LINE
  8
0
 10
128.175
 20
31.5022
 11
128.101
 21
31.0093
  0
LINE
  8
0
 10
128.101
 20
31.0093
 11
127.978
 21
30.5262
  0
LINE
  8
0
 10
127.978
 20
30.5262
 11
127.807
 21
30.0578
  0
LINE
  8
0
 10
127.807
 20
30.0578
 11
127.591
 21
29.6087
  0
LINE
  8
0
 10
127.591
 20
29.6087
 11
127.331
 21
29.1834
  0
LINE
  8
0
 10
127.331
 20
29.1834
 11
127.03
 21
28.7861
  0
LINE
  8
0
 10
127.03
 20
28.7861
 11
126.691
 21
28.4207
  0
LINE
  8
0
 10
126.691
 20
28.4207
 11
126.317
 21
28.0908
  0
LINE
  8
0
 10
126.317
 20
28.0908
 11
125.913
 21
27.7999
  0
LINE
  8
0
 10
125.913
 20
27.7999
 11
125.481
 21
27.5506
  0
LINE
  8
0
 10
125.481
 20
27.5506
 11
125.027
 21
27.3456
  0
LINE
  8
0
 10
125.027
 20
27.3456
 11
124.554
 21
27.1869
  0
LINE
  8
0
 10
124.554
 20
27.1869
 11
124.068
 21
27.076
  0
LINE
  8
0
 10
124.068
 20
27.076
 11
123.574
 21
27.014
  0
LINE
  8
0
 10
123.574
 20
27.014
 11
123.075
 21
27.0015
  0
LINE
  8
0
 10
123.075
 20
27.0015
 11
122.578
 21
27.0388
  0
LINE
  8
0
 10
35.8864
 20
43.5473
 11
35.4053
 21
43.6527
  0
LINE
  8
0
 10
35.4053
 20
43.6527
 11
34.9409
 21
43.8164
  0
LINE
  8
0
 10
34.9409
 20
43.8164
 11
34.5
 21
44.0359
  0
LINE
  8
0
 10
34.5
 20
44.0359
 11
34.0895
 21
44.3079
  0
LINE
  8
0
 10
34.0895
 20
44.3079
 11
33.7155
 21
44.6283
  0
LINE
  8
0
 10
33.7155
 20
44.6283
 11
33.3837
 21
44.9923
  0
LINE
  8
0
 10
33.3837
 20
44.9923
 11
33.0991
 21
45.3943
  0
LINE
  8
0
 10
33.0991
 20
45.3943
 11
32.8661
 21
45.8282
  0
LINE
  8
0
 10
32.8661
 20
45.8282
 11
32.6882
 21
46.2874
  0
LINE
  8
0
 10
32.6882
 20
46.2874
 11
32.5681
 21
46.765
  0
LINE
  8
0
 10
32.5681
 20
46.765
 11
32.5076
 21
47.2538
  0
LINE
  8
0
 10
32.5076
 20
47.2538
 11
32.5076
 21
47.7462
  0
LINE
  8
0
 10
32.5076
 20
47.7462
 11
32.5681
 21
48.235
  0
LINE
  8
0
 10
32.5681
 20
48.235
 11
32.6882
 21
48.7126
  0
LINE
  8
0
 10
32.6882
 20
48.7126
 11
32.8661
 21
49.1718
  0
LINE
  8
0
 10
32.8661
 20
49.1718
 11
33.0991
 21
49.6057
  0
LINE
  8
0
 10
33.0991
 20
49.6057
 11
33.3837
 21
50.0077
  0
LINE
  8
0
 10
33.3837
 20
50.0077
 11
33.7155
 21
50.3716
  0
LINE
  8
0
 10
33.7155
 20
50.3716
 11
34.0895
 21
50.6921
  0
LINE
  8
0
 10
34.0895
 20
50.6921
 11
34.5
 21
50.9641
  0
LINE
  8
0
 10
34.5
 20
50.9641
 11
34.9409
 21
51.1836
  0
LINE
  8
0
 10
34.9409
 20
51.1836
 11
35.4053
 21
51.3473
  0
LINE
  8
0
 10
35.4053
 20
51.3473
 11
35.8864
 21
51.4527
  0
LINE
  8
0
 10
35.8864
 20
51.4527
 11
36.3768
 21
51.4981
  0
LINE
  8
0
 10
36.3768
 20
51.4981
 11
36.8691
 21
51.4829
  0
LINE
  8
0
 10
36.8691
 20
51.4829
 11
37.3557
 21
51.4074
  0
LINE
  8
0
 10
37.3557
 20
51.4074
 11
37.8294
 21
51.2726
  0
LINE
  8
0
 10
37.8294
 20
51.2726
 11
38.2829
 21
51.0806
  0
LINE
  8
0
 10
38.2829
 20
51.0806
 11
38.7095
 21
50.8344
  0
LINE
  8
0
 10
38.7095
 20
50.8344
 11
39.1025
 21
50.5376
  0
LINE
  8
0
 10
39.1025
 20
50.5376
 11
39.456
 21
50.1948
  0
LINE
  8
0
 10
39.456
 20
50.1948
 11
39.7648
 21
49.8111
  0
LINE
  8
0
 10
39.7648
 20
49.8111
 11
40.024
 21
49.3924
  0
LINE
  8
0
 10
40.024
 20
49.3924
 11
40.2299
 21
48.945
  0
LINE
  8
0
 10
40.2299
 20
48.945
 11
40.3792
 21
48.4756
  0
LINE
  8
0
 10
40.3792
 20
48.4756
 11
40.4697
 21
47.9915
  0
LINE
  8
0
 10
40.4697
 20
47.9915
 11
40.5
 21
47.5
  0
LINE
  8
0
 10
40.5
 20
47.5
 11
40.4697
 21
47.0084
  0
LINE
  8
0
 10
40.4697
 20
47.0084
 11
40.3792
 21
46.5243
  0
LINE
  8
0
 10
40.3792
 20
46.5243
 11
40.2299
 21
46.055
  0
LINE
  8
0
 10
40.2299
 20
46.055
 11
40.024
 21
45.6076
  0
LINE
  8
0
 10
40.024
 20
45.6076
 11
39.7648
 21
45.1889
  0
LINE
  8
0
 10
39.7648
 20
45.1889
 11
39.456
 21
44.8052
  0
LINE
  8
0
 10
39.456
 20
44.8052
 11
39.1025
 21
44.4624
  0
LINE
  8
0
 10
39.1025
 20
44.4624
 11
38.7095
 21
44.1656
  0
LINE
  8
0
 10
38.7095
 20
44.1656
 11
38.2829
 21
43.9193
  0
LINE
  8
0
 10
38.2829
 20
43.9193
 11
37.8294
 21
43.7274
  0
LINE
  8
0
 10
37.8294
 20
43.7274
 11
37.3557
 21
43.5926
  0
LINE
  8
0
 10
37.3557
 20
43.5926
 11
36.8691
 21
43.5171
  0
LINE
  8
0
 10
36.8691
 20
43.5171
 11
36.3768
 21
43.5019
  0
LINE
  8
0
 10
36.3768
 20
43.5019
 11
35.8864
 21
43.5473
  0
LINE
  8
0
 10
76.376
 20
7.00102
 11
75.8806
 21
7.0256
  0
LINE
  8
0
 10
75.8806
 20
7.0256
 11
75.388
 21
7.08289
  0
LINE
  8
0
 10
75.388
 20
7.08289
 11
74.9003
 21
7.17259
  0
LINE
  8
0
 10
74.9003
 20
7.17259
 11
74.4195
 21
7.29434
  0
LINE
  8
0
 10
74.4195
 20
7.29434
 11
73.9478
 21
7.4476
  0
LINE
  8
0
 10
73.9478
 20
7.4476
 11
73.4873
 21
7.6317
  0
LINE
  8
0
 10
73.4873
 20
7.6317
 11
73.0399
 21
7.84583
  0
LINE
  8
0
 10
73.0399
 20
7.84583
 11
72.6077
 21
8.08905
  0
LINE
  8
0
 10
72.6077
 20
8.08905
 11
72.1925
 21
8.36031
  0
LINE
  8
0
 10
72.1925
 20
8.36031
 11
71.7962
 21
8.65842
  0
LINE
  8
0
 10
71.7962
 20
8.65842
 11
71.4204
 21
8.98206
  0
LINE
  8
0
 10
71.4204
 20
8.98206
 11
71.0668
 21
9.32985
  0
LINE
  8
0
 10
71.0668
 20
9.32985
 11
70.737
 21
9.70023
  0
LINE
  8
0
 10
70.737
 20
9.70023
 11
70.4324
 21
10.0916
  0
LINE
  8
0
 10
70.4324
 20
10.0916
 11
70.1543
 21
10.5023
  0
LINE
  8
0
 10
70.1543
 20
10.5023
 11
69.9039
 21
10.9304
  0
LINE
  8
0
 10
69.9039
 20
10.9304
 11
69.6824
 21
11.3741
  0
LINE
  8
0
 10
69.6824
 20
11.3741
 11
69.4908
 21
11.8315
  0
LINE
  8
0
 10
69.4908
 20
11.8315
 11
69.3297
 21
12.3006
  0
LINE
  8
0
 10
69.3297
 20
12.3006
 11
69.2
 21
12.7793
  0
LINE
  8
0
 10
69.2
 20
12.7793
 11
69.1023
 21
13.2655
  0
LINE
  8
0
 10
69.1023
 20
13.2655
 11
69.0369
 21
13.7572
  0
LINE
  8
0
 10
69.0369
 20
13.7572
 11
69.0041
 21
14.252
  0
LINE
  8
0
 10
69.0041
 20
14.252
 11
69.0041
 21
14.748
  0
LINE
  8
0
 10
69.0041
 20
14.748
 11
69.0369
 21
15.2428
  0
LINE
  8
0
 10
69.0369
 20
15.2428
 11
69.1023
 21
15.7345
  0
LINE
  8
0
 10
69.1023
 20
15.7345
 11
69.2
 21
16.2207
  0
LINE
  8
0
 10
69.2
 20
16.2207
 11
69.3297
 21
16.6994
  0
LINE
  8
0
 10
69.3297
 20
16.6994
 11
69.4908
 21
17.1684
  0
LINE
  8
0
 10
69.4908
 20
17.1684
 11
69.6824
 21
17.6259
  0
LINE
  8
0
 10
69.6824
 20
17.6259
 11
69.9039
 21
18.0696
  0
LINE
  8
0
 10
69.9039
 20
18.0696
 11
70.1543
 21
18.4977
  0
LINE
  8
0
 10
70.1543
 20
18.4977
 11
70.4324
 21
18.9084
  0
LINE
  8
0
 10
70.4324
 20
18.9084
 11
70.737
 21
19.2998
  0
LINE
  8
0
 10
70.737
 20
19.2998
 11
71.0668
 21
19.6702
  0
LINE
  8
0
 10
71.0668
 20
19.6702
 11
71.4204
 21
20.0179
  0
LINE
  8
0
 10
71.4204
 20
20.0179
 11
71.7962
 21
20.3416
  0
LINE
  8
0
 10
71.7962
 20
20.3416
 11
72.1925
 21
20.6397
  0
LINE
  8
0
 10
72.1925
 20
20.6397
 11
72.6077
 21
20.9109
  0
LINE
  8
0
 10
72.6077
 20
20.9109
 11
73.0399
 21
21.1542
  0
LINE
  8
0
 10
73.0399
 20
21.1542
 11
73.4873
 21
21.3683
  0
LINE
  8
0
 10
73.4873
 20
21.3683
 11
73.9478
 21
21.5524
  0
LINE
  8
0
 10
73.9478
 20
21.5524
 11
74.4195
 21
21.7056
  0
LINE
  8
0
 10
74.4195
 20
21.7056
 11
74.9003
 21
21.8274
  0
LINE
  8
0
 10
74.9003
 20
21.8274
 11
75.388
 21
21.9171
  0
LINE
  8
0
 10
75.388
 20
21.9171
 11
75.8806
 21
21.9744
  0
LINE
  8
0
 10
75.8806
 20
21.9744
 11
76.376
 21
21.999
  0
LINE
  8
0
 10
76.376
 20
21.999
 11
105.876
 21
21.999
  0
LINE
  8
0
 10
105.876
 20
21.999
 11
106.372
 21
21.9908
  0
LINE
  8
0
 10
106.372
 20
21.9908
 11
106.866
 21
21.9498
  0
LINE
  8
0
 10
106.866
 20
21.9498
 11
107.357
 21
21.8763
  0
LINE
  8
0
 10
107.357
 20
21.8763
 11
107.841
 21
21.7705
  0
LINE
  8
0
 10
107.841
 20
21.7705
 11
108.318
 21
21.6329
  0
LINE
  8
0
 10
108.318
 20
21.6329
 11
108.784
 21
21.4641
  0
LINE
  8
0
 10
108.784
 20
21.4641
 11
109.238
 21
21.2649
  0
LINE
  8
0
 10
109.238
 20
21.2649
 11
109.678
 21
21.0361
  0
LINE
  8
0
 10
109.678
 20
21.0361
 11
110.102
 21
20.7787
  0
LINE
  8
0
 10
110.102
 20
20.7787
 11
110.508
 21
20.4939
  0
LINE
  8
0
 10
110.508
 20
20.4939
 11
110.894
 21
20.1829
  0
LINE
  8
0
 10
110.894
 20
20.1829
 11
111.259
 21
19.847
  0
LINE
  8
0
 10
111.259
 20
19.847
 11
111.601
 21
19.4877
  0
LINE
  8
0
 10
111.601
 20
19.4877
 11
111.919
 21
19.1066
  0
LINE
  8
0
 10
111.919
 20
19.1066
 11
112.21
 21
18.7054
  0
LINE
  8
0
 10
112.21
 20
18.7054
 11
112.474
 21
18.2857
  0
LINE
  8
0
 10
112.474
 20
18.2857
 11
112.71
 21
17.8496
  0
LINE
  8
0
 10
112.71
 20
17.8496
 11
112.917
 21
17.3987
  0
LINE
  8
0
 10
112.917
 20
17.3987
 11
113.094
 21
16.9352
  0
LINE
  8
0
 10
113.094
 20
16.9352
 11
113.239
 21
16.4611
  0
LINE
  8
0
 10
113.239
 20
16.4611
 11
113.353
 21
15.9784
  0
LINE
  8
0
 10
113.353
 20
15.9784
 11
113.434
 21
15.4892
  0
LINE
  8
0
 10
113.434
 20
15.4892
 11
113.484
 21
14.9957
  0
LINE
  8
0
 10
113.484
 20
14.9957
 11
113.5
 21
14.5
  0
LINE
  8
0
 10
113.5
 20
14.5
 11
113.484
 21
14.0043
  0
LINE
  8
0
 10
113.484
 20
14.0043
 11
113.434
 21
13.5108
  0
LINE
  8
0
 10
113.434
 20
13.5108
 11
113.353
 21
13.0216
  0
LINE
  8
0
 10
113.353
 20
13.0216
 11
113.239
 21
12.5389
  0
LINE
  8
0
 10
113.239
 20
12.5389
 11
113.094
 21
12.0647
  0
LINE
  8
0
 10
113.094
 20
12.0647
 11
112.917
 21
11.6012
  0
LINE
  8
0
 10
112.917
 20
11.6012
 11
112.71
 21
11.1504
  0
LINE
  8
0
 10
112.71
 20
11.1504
 11
112.474
 21
10.7142
  0
LINE
  8
0
 10
112.474
 20
10.7142
 11
112.21
 21
10.2946
  0
LINE
  8
0
 10
112.21
 20
10.2946
 11
111.919
 21
9.8934
  0
LINE
  8
0
 10
111.919
 20
9.8934
 11
111.601
 21
9.51231
  0
LINE
  8
0
 10
111.601
 20
9.51231
 11
111.259
 21
9.15303
  0
LINE
  8
0
 10
111.259
 20
9.15303
 11
110.894
 21
8.81712
  0
LINE
  8
0
 10
110.894
 20
8.81712
 11
110.508
 21
8.50609
  0
LINE
  8
0
 10
110.508
 20
8.50609
 11
110.102
 21
8.22124
  0
LINE
  8
0
 10
110.102
 20
8.22124
 11
109.678
 21
7.96387
  0
LINE
  8
0
 10
109.678
 20
7.96387
 11
109.238
 21
7.73506
  0
LINE
  8
0
 10
109.238
 20
7.73506
 11
108.784
 21
7.53584
  0
LINE
  8
0
 10
108.784
 20
7.53584
 11
108.318
 21
7.36707
  0
LINE
  8
0
 10
108.318
 20
7.36707
 11
107.841
 21
7.22949
  0
LINE
  8
0
 10
107.841
 20
7.22949
 11
107.357
 21
7.1237
  0
LINE
  8
0
 10
107.357
 20
7.1237
 11
106.866
 21
7.05017
  0
LINE
  8
0
 10
106.866
 20
7.05017
 11
106.372
 21
7.00922
  0
LINE
  8
0
 10
106.372
 20
7.00922
 11
105.876
 21
7.00102
  0
LINE
  8
0
 10
105.876
 20
7.00102
 11
76.376
 21
7.00102
  0
LINE
  8
0
 10
21.0864
 20
14.0473
 11
20.6053
 21
14.1527
  0
LINE
  8
0
 10
20.6053
 20
14.1527
 11
20.1409
 21
14.3164
  0
LINE
  8
0
 10
20.1409
 20
14.3164
 11
19.7
 21
14.5359
  0
LINE
  8
0
 10
19.7
 20
14.5359
 11
19.2895
 21
14.8079
  0
LINE
  8
0
 10
19.2895
 20
14.8079
 11
18.9155
 21
15.1283
  0
LINE
  8
0
 10
18.9155
 20
15.1283
 11
18.5837
 21
15.4923
  0
LINE
  8
0
 10
18.5837
 20
15.4923
 11
18.2991
 21
15.8943
  0
LINE
  8
0
 10
18.2991
 20
15.8943
 11
18.0661
 21
16.3282
  0
LINE
  8
0
 10
18.0661
 20
16.3282
 11
17.8882
 21
16.7874
  0
LINE
  8
0
 10
17.8882
 20
16.7874
 11
17.7681
 21
17.265
  0
LINE
  8
0
 10
17.7681
 20
17.265
 11
17.7076
 21
17.7538
  0
LINE
  8
0
 10
17.7076
 20
17.7538
 11
17.7076
 21
18.2462
  0
LINE
  8
0
 10
17.7076
 20
18.2462
 11
17.7681
 21
18.735
  0
LINE
  8
0
 10
17.7681
 20
18.735
 11
17.8882
 21
19.2126
  0
LINE
  8
0
 10
17.8882
 20
19.2126
 11
18.0661
 21
19.6718
  0
LINE
  8
0
 10
18.0661
 20
19.6718
 11
18.2991
 21
20.1057
  0
LINE
  8
0
 10
18.2991
 20
20.1057
 11
18.5837
 21
20.5077
  0
LINE
  8
0
 10
18.5837
 20
20.5077
 11
18.9155
 21
20.8716
  0
LINE
  8
0
 10
18.9155
 20
20.8716
 11
19.2895
 21
21.1921
  0
LINE
  8
0
 10
19.2895
 20
21.1921
 11
19.7
 21
21.4641
  0
LINE
  8
0
 10
19.7
 20
21.4641
 11
20.1409
 21
21.6836
  0
LINE
  8
0
 10
20.1409
 20
21.6836
 11
20.6053
 21
21.8473
  0
LINE
  8
0
 10
20.6053
 20
21.8473
 11
21.0864
 21
21.9527
  0
LINE
  8
0
 10
21.0864
 20
21.9527
 11
21.5768
 21
21.9981
  0
LINE
  8
0
 10
21.5768
 20
21.9981
 11
22.0691
 21
21.9829
  0
LINE
  8
0
 10
22.0691
 20
21.9829
 11
22.5557
 21
21.9074
  0
LINE
  8
0
 10
22.5557
 20
21.9074
 11
23.0294
 21
21.7726
  0
LINE
  8
0
 10
23.0294
 20
21.7726
 11
23.4829
 21
21.5806
  0
LINE
  8
0
 10
23.4829
 20
21.5806
 11
23.9095
 21
21.3344
  0
LINE
  8
0
 10
23.9095
 20
21.3344
 11
24.3025
 21
21.0376
  0
LINE
  8
0
 10
24.3025
 20
21.0376
 11
24.656
 21
20.6948
  0
LINE
  8
0
 10
24.656
 20
20.6948
 11
24.9648
 21
20.3111
  0
LINE
  8
0
 10
24.9648
 20
20.3111
 11
25.224
 21
19.8924
  0
LINE
  8
0
 10
25.224
 20
19.8924
 11
25.4299
 21
19.445
  0
LINE
  8
0
 10
25.4299
 20
19.445
 11
25.5792
 21
18.9756
  0
LINE
  8
0
 10
25.5792
 20
18.9756
 11
25.6697
 21
18.4915
  0
LINE
  8
0
 10
25.6697
 20
18.4915
 11
25.7
 21
18
  0
LINE
  8
0
 10
25.7
 20
18
 11
25.6697
 21
17.5084
  0
LINE
  8
0
 10
25.6697
 20
17.5084
 11
25.5792
 21
17.0243
  0
LINE
  8
0
 10
25.5792
 20
17.0243
 11
25.4299
 21
16.555
  0
LINE
  8
0
 10
25.4299
 20
16.555
 11
25.224
 21
16.1076
  0
LINE
  8
0
 10
25.224
 20
16.1076
 11
24.9648
 21
15.6889
  0
LINE
  8
0
 10
24.9648
 20
15.6889
 11
24.656
 21
15.3052
  0
LINE
  8
0
 10
24.656
 20
15.3052
 11
24.3025
 21
14.9624
  0
LINE
  8
0
 10
24.3025
 20
14.9624
 11
23.9095
 21
14.6656
  0
LINE
  8
0
 10
23.9095
 20
14.6656
 11
23.4829
 21
14.4193
  0
LINE
  8
0
 10
23.4829
 20
14.4193
 11
23.0294
 21
14.2274
  0
LINE
  8
0
 10
23.0294
 20
14.2274
 11
22.5557
 21
14.0926
  0
LINE
  8
0
 10
22.5557
 20
14.0926
 11
22.0691
 21
14.0171
  0
LINE
  8
0
 10
22.0691
 20
14.0171
 11
21.5768
 21
14.0019
  0
LINE
  8
0
 10
21.5768
 20
14.0019
 11
21.0864
 21
14.0473
  0
LINE
  8
0
 10
-4.35603
 20
-1.30988
 11
-4.79999
 21
-1.13564
  0
LINE
  8
0
 10
-4.79999
 20
-1.13564
 11
-5.17288
 21
-0.838272
  0
LINE
  8
0
 10
-5.17288
 20
-0.838272
 11
-5.44154
 21
-0.444214
  0
LINE
  8
0
 10
-5.44154
 20
-0.444214
 11
-5.58212
 21
0.0115204
  0
LINE
  8
0
 10
-5.58212
 20
0.0115204
 11
-5.58212
 21
0.488464
  0
LINE
  8
0
 10
-5.58212
 20
0.488464
 11
-5.44154
 21
0.944214
  0
LINE
  8
0
 10
-5.44154
 20
0.944214
 11
-5.17288
 21
1.33827
  0
LINE
  8
0
 10
-5.17288
 20
1.33827
 11
-4.79999
 21
1.63564
  0
LINE
  8
0
 10
-4.79999
 20
1.63564
 11
-4.35603
 21
1.80988
  0
LINE
  8
0
 10
-4.35603
 20
1.80988
 11
-3.88043
 21
1.84552
  0
LINE
  8
0
 10
-3.88043
 20
1.84552
 11
-3.41545
 21
1.7394
  0
LINE
  8
0
 10
-3.41545
 20
1.7394
 11
-3.00241
 21
1.50092
  0
LINE
  8
0
 10
-3.00241
 20
1.50092
 11
-2.67801
 21
1.15131
  0
LINE
  8
0
 10
-2.67801
 20
1.15131
 11
-2.47107
 21
0.721603
  0
LINE
  8
0
 10
-2.47107
 20
0.721603
 11
-2.39999
 21
0.25
  0
LINE
  8
0
 10
-2.39999
 20
0.25
 11
-2.47107
 21
-0.221603
  0
LINE
  8
0
 10
-2.47107
 20
-0.221603
 11
-2.67801
 21
-0.651306
  0
LINE
  8
0
 10
-2.67801
 20
-0.651306
 11
-3.00241
 21
-1.00092
  0
LINE
  8
0
 10
-3.00241
 20
-1.00092
 11
-3.41545
 21
-1.2394
  0
LINE
  8
0
 10
-3.41545
 20
-1.2394
 11
-3.88043
 21
-1.34552
  0
LINE
  8
0
 10
-3.88043
 20
-1.34552
 11
-4.35603
 21
-1.30988
  0
LINE
  8
0
 10
142.544
 20
-1.30988
 11
142.1
 21
-1.13564
  0
LINE
  8
0
 10
142.1
 20
-1.13564
 11
141.727
 21
-0.838272
  0
LINE
  8
0
 10
141.727
 20
-0.838272
 11
141.458
 21
-0.444214
  0
LINE
  8
0
 10
141.458
 20
-0.444214
 11
141.318
 21
0.0115204
  0
LINE
  8
0
 10
141.318
 20
0.0115204
 11
141.318
 21
0.488464
  0
LINE
  8
0
 10
141.318
 20
0.488464
 11
141.458
 21
0.944214
  0
LINE
  8
0
 10
141.458
 20
0.944214
 11
141.727
 21
1.33827
  0
LINE
  8
0
 10
141.727
 20
1.33827
 11
142.1
 21
1.63564
  0
LINE
  8
0
 10
142.1
 20
1.63564
 11
142.544
 21
1.80988
  0
LINE
  8
0
 10
142.544
 20
1.80988
 11
143.02
 21
1.84552
  0
LINE
  8
0
 10
143.02
 20
1.84552
 11
143.485
 21
1.7394
  0
LINE
  8
0
 10
143.485
 20
1.7394
 11
143.898
 21
1.50092
  0
LINE
  8
0
 10
143.898
 20
1.50092
 11
144.222
 21
1.15131
  0
LINE
  8
0
 10
144.222
 20
1.15131
 11
144.429
 21
0.721603
  0
LINE
  8
0
 10
144.429
 20
0.721603
 11
144.5
 21
0.25
  0
LINE
  8
0
 10
144.5
 20
0.25
 11
144.429
 21
-0.221603
  0
LINE
  8
0
 10
144.429
 20
-0.221603
 11
144.222
 21
-0.651306
  0
LINE
  8
0
 10
144.222
 20
-0.651306
 11
143.898
 21
-1.00092
  0
LINE
  8
0
 10
143.898
 20
-1.00092
 11
143.485
 21
-1.2394
  0
LINE
  8
0
 10
143.485
 20
-1.2394
 11
143.02
 21
-1.34552
  0
LINE
  8
0
 10
143.02
 20
-1.34552
 11
142.544
 21
-1.30988
  0
ENDSEC
  0
SECTION
  2
OBJECTS
  0
DICTIONARY
  0
ENDSEC
  0
EOF
