%TF.GenerationSoftware,KiCad,Pcbnew,7.0.1*%
%TF.CreationDate,2023-04-21T09:32:05-07:00*%
%TF.ProjectId,xt60_array,78743630-5f61-4727-9261-792e6b696361,rev?*%
%TF.SameCoordinates,Original*%
%TF.FileFunction,Drillmap*%
%TF.FilePolarity,Positive*%
%FSLAX45Y45*%
G04 Gerber Fmt 4.5, Leading zero omitted, Abs format (unit mm)*
G04 Created by KiCad (PCBNEW 7.0.1) date 2023-04-21 09:32:05*
%MOMM*%
%LPD*%
G01*
G04 APERTURE LIST*
%ADD10C,0.100000*%
%ADD11C,0.200000*%
%ADD12C,0.060000*%
%ADD13C,0.150000*%
%ADD14C,0.270000*%
%ADD15C,0.450000*%
G04 APERTURE END LIST*
D10*
X14200000Y-5300000D02*
X19500000Y-5300000D01*
X19500000Y-14000000D01*
X14200000Y-14000000D01*
X14200000Y-5300000D01*
D11*
D12*
X14470000Y-11535000D02*
X14530000Y-11595000D01*
X14530000Y-11535000D02*
X14470000Y-11595000D01*
D11*
X14445000Y-11595000D02*
X14555000Y-11595000D01*
X14555000Y-11595000D02*
G75*
G03*
X14555000Y-11535000I0J30000D01*
G01*
X14555000Y-11535000D02*
X14445000Y-11535000D01*
X14445000Y-11535000D02*
G75*
G03*
X14445000Y-11595000I0J-30000D01*
G01*
D12*
X14470000Y-12885000D02*
X14530000Y-12945000D01*
X14530000Y-12885000D02*
X14470000Y-12945000D01*
D11*
X14445000Y-12945000D02*
X14555000Y-12945000D01*
X14555000Y-12945000D02*
G75*
G03*
X14555000Y-12885000I0J30000D01*
G01*
X14555000Y-12885000D02*
X14445000Y-12885000D01*
X14445000Y-12885000D02*
G75*
G03*
X14445000Y-12945000I0J-30000D01*
G01*
D10*
X15150000Y-7000000D02*
G75*
G03*
X15150000Y-7000000I-50000J0D01*
G01*
X15150000Y-8000000D02*
G75*
G03*
X15150000Y-8000000I-50000J0D01*
G01*
X15150000Y-8900000D02*
G75*
G03*
X15150000Y-8900000I-50000J0D01*
G01*
X15150000Y-9900000D02*
G75*
G03*
X15150000Y-9900000I-50000J0D01*
G01*
X15150000Y-10800000D02*
G75*
G03*
X15150000Y-10800000I-50000J0D01*
G01*
X15250000Y-6100000D02*
G75*
G03*
X15250000Y-6100000I-50000J0D01*
G01*
X15550000Y-12600000D02*
G75*
G03*
X15550000Y-12600000I-50000J0D01*
G01*
X16050000Y-5700000D02*
G75*
G03*
X16050000Y-5700000I-50000J0D01*
G01*
X16950000Y-5700000D02*
G75*
G03*
X16950000Y-5700000I-50000J0D01*
G01*
X17850000Y-5700000D02*
G75*
G03*
X17850000Y-5700000I-50000J0D01*
G01*
X18550000Y-6100000D02*
G75*
G03*
X18550000Y-6100000I-50000J0D01*
G01*
X18950000Y-7400000D02*
G75*
G03*
X18950000Y-7400000I-50000J0D01*
G01*
X18950000Y-8600000D02*
G75*
G03*
X18950000Y-8600000I-50000J0D01*
G01*
X18950000Y-9800000D02*
G75*
G03*
X18950000Y-9800000I-50000J0D01*
G01*
X18950000Y-11000000D02*
G75*
G03*
X18950000Y-11000000I-50000J0D01*
G01*
X18950000Y-12200000D02*
G75*
G03*
X18950000Y-12200000I-50000J0D01*
G01*
D13*
X17500000Y-6725000D02*
X17500000Y-6875000D01*
X17425000Y-6800000D02*
X17575000Y-6800000D01*
X17500000Y-7925000D02*
X17500000Y-8075000D01*
X17425000Y-8000000D02*
X17575000Y-8000000D01*
X17500000Y-9125000D02*
X17500000Y-9275000D01*
X17425000Y-9200000D02*
X17575000Y-9200000D01*
X17500000Y-10325000D02*
X17500000Y-10475000D01*
X17425000Y-10400000D02*
X17575000Y-10400000D01*
X17500000Y-11525000D02*
X17500000Y-11675000D01*
X17425000Y-11600000D02*
X17575000Y-11600000D01*
X17500000Y-12725000D02*
X17500000Y-12875000D01*
X17425000Y-12800000D02*
X17575000Y-12800000D01*
D14*
X15195460Y-11975460D02*
X15195460Y-11784540D01*
X15004540Y-11784540D01*
X15004540Y-11975460D01*
X15195460Y-11975460D01*
X15195460Y-12695460D02*
X15195460Y-12504540D01*
X15004540Y-12504540D01*
X15004540Y-12695460D01*
X15195460Y-12695460D01*
D15*
X18180000Y-7025000D02*
X18405000Y-6800000D01*
X18180000Y-6575000D01*
X17955000Y-6800000D01*
X18180000Y-7025000D01*
X18180000Y-8225000D02*
X18405000Y-8000000D01*
X18180000Y-7775000D01*
X17955000Y-8000000D01*
X18180000Y-8225000D01*
X18180000Y-9425000D02*
X18405000Y-9200000D01*
X18180000Y-8975000D01*
X17955000Y-9200000D01*
X18180000Y-9425000D01*
X18180000Y-10625000D02*
X18405000Y-10400000D01*
X18180000Y-10175000D01*
X17955000Y-10400000D01*
X18180000Y-10625000D01*
X18180000Y-11825000D02*
X18405000Y-11600000D01*
X18180000Y-11375000D01*
X17955000Y-11600000D01*
X18180000Y-11825000D01*
X18180000Y-13025000D02*
X18405000Y-12800000D01*
X18180000Y-12575000D01*
X17955000Y-12800000D01*
X18180000Y-13025000D01*
X18900000Y-7025000D02*
X19125000Y-6800000D01*
X18900000Y-6575000D01*
X18675000Y-6800000D01*
X18900000Y-7025000D01*
X18900000Y-8225000D02*
X19125000Y-8000000D01*
X18900000Y-7775000D01*
X18675000Y-8000000D01*
X18900000Y-8225000D01*
X18900000Y-9425000D02*
X19125000Y-9200000D01*
X18900000Y-8975000D01*
X18675000Y-9200000D01*
X18900000Y-9425000D01*
X18900000Y-10625000D02*
X19125000Y-10400000D01*
X18900000Y-10175000D01*
X18675000Y-10400000D01*
X18900000Y-10625000D01*
X18900000Y-11825000D02*
X19125000Y-11600000D01*
X18900000Y-11375000D01*
X18675000Y-11600000D01*
X18900000Y-11825000D01*
X18900000Y-13025000D02*
X19125000Y-12800000D01*
X18900000Y-12575000D01*
X18675000Y-12800000D01*
X18900000Y-13025000D01*
D11*
X14442619Y-14317524D02*
X14442619Y-14117524D01*
X14442619Y-14117524D02*
X14490238Y-14117524D01*
X14490238Y-14117524D02*
X14518809Y-14127048D01*
X14518809Y-14127048D02*
X14537857Y-14146095D01*
X14537857Y-14146095D02*
X14547381Y-14165143D01*
X14547381Y-14165143D02*
X14556905Y-14203238D01*
X14556905Y-14203238D02*
X14556905Y-14231809D01*
X14556905Y-14231809D02*
X14547381Y-14269905D01*
X14547381Y-14269905D02*
X14537857Y-14288952D01*
X14537857Y-14288952D02*
X14518809Y-14308000D01*
X14518809Y-14308000D02*
X14490238Y-14317524D01*
X14490238Y-14317524D02*
X14442619Y-14317524D01*
X14642619Y-14317524D02*
X14642619Y-14184190D01*
X14642619Y-14222286D02*
X14652143Y-14203238D01*
X14652143Y-14203238D02*
X14661667Y-14193714D01*
X14661667Y-14193714D02*
X14680714Y-14184190D01*
X14680714Y-14184190D02*
X14699762Y-14184190D01*
X14766428Y-14317524D02*
X14766428Y-14184190D01*
X14766428Y-14117524D02*
X14756905Y-14127048D01*
X14756905Y-14127048D02*
X14766428Y-14136571D01*
X14766428Y-14136571D02*
X14775952Y-14127048D01*
X14775952Y-14127048D02*
X14766428Y-14117524D01*
X14766428Y-14117524D02*
X14766428Y-14136571D01*
X14890238Y-14317524D02*
X14871190Y-14308000D01*
X14871190Y-14308000D02*
X14861667Y-14288952D01*
X14861667Y-14288952D02*
X14861667Y-14117524D01*
X14995000Y-14317524D02*
X14975952Y-14308000D01*
X14975952Y-14308000D02*
X14966428Y-14288952D01*
X14966428Y-14288952D02*
X14966428Y-14117524D01*
X15223571Y-14317524D02*
X15223571Y-14117524D01*
X15223571Y-14117524D02*
X15290238Y-14260381D01*
X15290238Y-14260381D02*
X15356905Y-14117524D01*
X15356905Y-14117524D02*
X15356905Y-14317524D01*
X15537857Y-14317524D02*
X15537857Y-14212762D01*
X15537857Y-14212762D02*
X15528333Y-14193714D01*
X15528333Y-14193714D02*
X15509286Y-14184190D01*
X15509286Y-14184190D02*
X15471190Y-14184190D01*
X15471190Y-14184190D02*
X15452143Y-14193714D01*
X15537857Y-14308000D02*
X15518809Y-14317524D01*
X15518809Y-14317524D02*
X15471190Y-14317524D01*
X15471190Y-14317524D02*
X15452143Y-14308000D01*
X15452143Y-14308000D02*
X15442619Y-14288952D01*
X15442619Y-14288952D02*
X15442619Y-14269905D01*
X15442619Y-14269905D02*
X15452143Y-14250857D01*
X15452143Y-14250857D02*
X15471190Y-14241333D01*
X15471190Y-14241333D02*
X15518809Y-14241333D01*
X15518809Y-14241333D02*
X15537857Y-14231809D01*
X15633095Y-14184190D02*
X15633095Y-14384190D01*
X15633095Y-14193714D02*
X15652143Y-14184190D01*
X15652143Y-14184190D02*
X15690238Y-14184190D01*
X15690238Y-14184190D02*
X15709286Y-14193714D01*
X15709286Y-14193714D02*
X15718809Y-14203238D01*
X15718809Y-14203238D02*
X15728333Y-14222286D01*
X15728333Y-14222286D02*
X15728333Y-14279428D01*
X15728333Y-14279428D02*
X15718809Y-14298476D01*
X15718809Y-14298476D02*
X15709286Y-14308000D01*
X15709286Y-14308000D02*
X15690238Y-14317524D01*
X15690238Y-14317524D02*
X15652143Y-14317524D01*
X15652143Y-14317524D02*
X15633095Y-14308000D01*
X15814048Y-14298476D02*
X15823571Y-14308000D01*
X15823571Y-14308000D02*
X15814048Y-14317524D01*
X15814048Y-14317524D02*
X15804524Y-14308000D01*
X15804524Y-14308000D02*
X15814048Y-14298476D01*
X15814048Y-14298476D02*
X15814048Y-14317524D01*
X15814048Y-14193714D02*
X15823571Y-14203238D01*
X15823571Y-14203238D02*
X15814048Y-14212762D01*
X15814048Y-14212762D02*
X15804524Y-14203238D01*
X15804524Y-14203238D02*
X15814048Y-14193714D01*
X15814048Y-14193714D02*
X15814048Y-14212762D01*
D12*
X14135000Y-14615000D02*
X14195000Y-14675000D01*
X14195000Y-14615000D02*
X14135000Y-14675000D01*
D11*
X14480714Y-14537524D02*
X14499762Y-14537524D01*
X14499762Y-14537524D02*
X14518809Y-14547048D01*
X14518809Y-14547048D02*
X14528333Y-14556571D01*
X14528333Y-14556571D02*
X14537857Y-14575619D01*
X14537857Y-14575619D02*
X14547381Y-14613714D01*
X14547381Y-14613714D02*
X14547381Y-14661333D01*
X14547381Y-14661333D02*
X14537857Y-14699428D01*
X14537857Y-14699428D02*
X14528333Y-14718476D01*
X14528333Y-14718476D02*
X14518809Y-14728000D01*
X14518809Y-14728000D02*
X14499762Y-14737524D01*
X14499762Y-14737524D02*
X14480714Y-14737524D01*
X14480714Y-14737524D02*
X14461667Y-14728000D01*
X14461667Y-14728000D02*
X14452143Y-14718476D01*
X14452143Y-14718476D02*
X14442619Y-14699428D01*
X14442619Y-14699428D02*
X14433095Y-14661333D01*
X14433095Y-14661333D02*
X14433095Y-14613714D01*
X14433095Y-14613714D02*
X14442619Y-14575619D01*
X14442619Y-14575619D02*
X14452143Y-14556571D01*
X14452143Y-14556571D02*
X14461667Y-14547048D01*
X14461667Y-14547048D02*
X14480714Y-14537524D01*
X14633095Y-14718476D02*
X14642619Y-14728000D01*
X14642619Y-14728000D02*
X14633095Y-14737524D01*
X14633095Y-14737524D02*
X14623571Y-14728000D01*
X14623571Y-14728000D02*
X14633095Y-14718476D01*
X14633095Y-14718476D02*
X14633095Y-14737524D01*
X14814048Y-14537524D02*
X14775952Y-14537524D01*
X14775952Y-14537524D02*
X14756905Y-14547048D01*
X14756905Y-14547048D02*
X14747381Y-14556571D01*
X14747381Y-14556571D02*
X14728333Y-14585143D01*
X14728333Y-14585143D02*
X14718809Y-14623238D01*
X14718809Y-14623238D02*
X14718809Y-14699428D01*
X14718809Y-14699428D02*
X14728333Y-14718476D01*
X14728333Y-14718476D02*
X14737857Y-14728000D01*
X14737857Y-14728000D02*
X14756905Y-14737524D01*
X14756905Y-14737524D02*
X14795000Y-14737524D01*
X14795000Y-14737524D02*
X14814048Y-14728000D01*
X14814048Y-14728000D02*
X14823571Y-14718476D01*
X14823571Y-14718476D02*
X14833095Y-14699428D01*
X14833095Y-14699428D02*
X14833095Y-14651809D01*
X14833095Y-14651809D02*
X14823571Y-14632762D01*
X14823571Y-14632762D02*
X14814048Y-14623238D01*
X14814048Y-14623238D02*
X14795000Y-14613714D01*
X14795000Y-14613714D02*
X14756905Y-14613714D01*
X14756905Y-14613714D02*
X14737857Y-14623238D01*
X14737857Y-14623238D02*
X14728333Y-14632762D01*
X14728333Y-14632762D02*
X14718809Y-14651809D01*
X14956905Y-14537524D02*
X14975952Y-14537524D01*
X14975952Y-14537524D02*
X14995000Y-14547048D01*
X14995000Y-14547048D02*
X15004524Y-14556571D01*
X15004524Y-14556571D02*
X15014048Y-14575619D01*
X15014048Y-14575619D02*
X15023571Y-14613714D01*
X15023571Y-14613714D02*
X15023571Y-14661333D01*
X15023571Y-14661333D02*
X15014048Y-14699428D01*
X15014048Y-14699428D02*
X15004524Y-14718476D01*
X15004524Y-14718476D02*
X14995000Y-14728000D01*
X14995000Y-14728000D02*
X14975952Y-14737524D01*
X14975952Y-14737524D02*
X14956905Y-14737524D01*
X14956905Y-14737524D02*
X14937857Y-14728000D01*
X14937857Y-14728000D02*
X14928333Y-14718476D01*
X14928333Y-14718476D02*
X14918809Y-14699428D01*
X14918809Y-14699428D02*
X14909286Y-14661333D01*
X14909286Y-14661333D02*
X14909286Y-14613714D01*
X14909286Y-14613714D02*
X14918809Y-14575619D01*
X14918809Y-14575619D02*
X14928333Y-14556571D01*
X14928333Y-14556571D02*
X14937857Y-14547048D01*
X14937857Y-14547048D02*
X14956905Y-14537524D01*
X15147381Y-14537524D02*
X15166429Y-14537524D01*
X15166429Y-14537524D02*
X15185476Y-14547048D01*
X15185476Y-14547048D02*
X15195000Y-14556571D01*
X15195000Y-14556571D02*
X15204524Y-14575619D01*
X15204524Y-14575619D02*
X15214048Y-14613714D01*
X15214048Y-14613714D02*
X15214048Y-14661333D01*
X15214048Y-14661333D02*
X15204524Y-14699428D01*
X15204524Y-14699428D02*
X15195000Y-14718476D01*
X15195000Y-14718476D02*
X15185476Y-14728000D01*
X15185476Y-14728000D02*
X15166429Y-14737524D01*
X15166429Y-14737524D02*
X15147381Y-14737524D01*
X15147381Y-14737524D02*
X15128333Y-14728000D01*
X15128333Y-14728000D02*
X15118809Y-14718476D01*
X15118809Y-14718476D02*
X15109286Y-14699428D01*
X15109286Y-14699428D02*
X15099762Y-14661333D01*
X15099762Y-14661333D02*
X15099762Y-14613714D01*
X15099762Y-14613714D02*
X15109286Y-14575619D01*
X15109286Y-14575619D02*
X15118809Y-14556571D01*
X15118809Y-14556571D02*
X15128333Y-14547048D01*
X15128333Y-14547048D02*
X15147381Y-14537524D01*
X15299762Y-14737524D02*
X15299762Y-14604190D01*
X15299762Y-14623238D02*
X15309286Y-14613714D01*
X15309286Y-14613714D02*
X15328333Y-14604190D01*
X15328333Y-14604190D02*
X15356905Y-14604190D01*
X15356905Y-14604190D02*
X15375952Y-14613714D01*
X15375952Y-14613714D02*
X15385476Y-14632762D01*
X15385476Y-14632762D02*
X15385476Y-14737524D01*
X15385476Y-14632762D02*
X15395000Y-14613714D01*
X15395000Y-14613714D02*
X15414048Y-14604190D01*
X15414048Y-14604190D02*
X15442619Y-14604190D01*
X15442619Y-14604190D02*
X15461667Y-14613714D01*
X15461667Y-14613714D02*
X15471190Y-14632762D01*
X15471190Y-14632762D02*
X15471190Y-14737524D01*
X15566429Y-14737524D02*
X15566429Y-14604190D01*
X15566429Y-14623238D02*
X15575952Y-14613714D01*
X15575952Y-14613714D02*
X15595000Y-14604190D01*
X15595000Y-14604190D02*
X15623571Y-14604190D01*
X15623571Y-14604190D02*
X15642619Y-14613714D01*
X15642619Y-14613714D02*
X15652143Y-14632762D01*
X15652143Y-14632762D02*
X15652143Y-14737524D01*
X15652143Y-14632762D02*
X15661667Y-14613714D01*
X15661667Y-14613714D02*
X15680714Y-14604190D01*
X15680714Y-14604190D02*
X15709286Y-14604190D01*
X15709286Y-14604190D02*
X15728333Y-14613714D01*
X15728333Y-14613714D02*
X15737857Y-14632762D01*
X15737857Y-14632762D02*
X15737857Y-14737524D01*
X16128333Y-14528000D02*
X15956905Y-14785143D01*
X16385476Y-14537524D02*
X16404524Y-14537524D01*
X16404524Y-14537524D02*
X16423572Y-14547048D01*
X16423572Y-14547048D02*
X16433095Y-14556571D01*
X16433095Y-14556571D02*
X16442619Y-14575619D01*
X16442619Y-14575619D02*
X16452143Y-14613714D01*
X16452143Y-14613714D02*
X16452143Y-14661333D01*
X16452143Y-14661333D02*
X16442619Y-14699428D01*
X16442619Y-14699428D02*
X16433095Y-14718476D01*
X16433095Y-14718476D02*
X16423572Y-14728000D01*
X16423572Y-14728000D02*
X16404524Y-14737524D01*
X16404524Y-14737524D02*
X16385476Y-14737524D01*
X16385476Y-14737524D02*
X16366429Y-14728000D01*
X16366429Y-14728000D02*
X16356905Y-14718476D01*
X16356905Y-14718476D02*
X16347381Y-14699428D01*
X16347381Y-14699428D02*
X16337857Y-14661333D01*
X16337857Y-14661333D02*
X16337857Y-14613714D01*
X16337857Y-14613714D02*
X16347381Y-14575619D01*
X16347381Y-14575619D02*
X16356905Y-14556571D01*
X16356905Y-14556571D02*
X16366429Y-14547048D01*
X16366429Y-14547048D02*
X16385476Y-14537524D01*
X16537857Y-14718476D02*
X16547381Y-14728000D01*
X16547381Y-14728000D02*
X16537857Y-14737524D01*
X16537857Y-14737524D02*
X16528333Y-14728000D01*
X16528333Y-14728000D02*
X16537857Y-14718476D01*
X16537857Y-14718476D02*
X16537857Y-14737524D01*
X16671191Y-14537524D02*
X16690238Y-14537524D01*
X16690238Y-14537524D02*
X16709286Y-14547048D01*
X16709286Y-14547048D02*
X16718810Y-14556571D01*
X16718810Y-14556571D02*
X16728333Y-14575619D01*
X16728333Y-14575619D02*
X16737857Y-14613714D01*
X16737857Y-14613714D02*
X16737857Y-14661333D01*
X16737857Y-14661333D02*
X16728333Y-14699428D01*
X16728333Y-14699428D02*
X16718810Y-14718476D01*
X16718810Y-14718476D02*
X16709286Y-14728000D01*
X16709286Y-14728000D02*
X16690238Y-14737524D01*
X16690238Y-14737524D02*
X16671191Y-14737524D01*
X16671191Y-14737524D02*
X16652143Y-14728000D01*
X16652143Y-14728000D02*
X16642619Y-14718476D01*
X16642619Y-14718476D02*
X16633095Y-14699428D01*
X16633095Y-14699428D02*
X16623572Y-14661333D01*
X16623572Y-14661333D02*
X16623572Y-14613714D01*
X16623572Y-14613714D02*
X16633095Y-14575619D01*
X16633095Y-14575619D02*
X16642619Y-14556571D01*
X16642619Y-14556571D02*
X16652143Y-14547048D01*
X16652143Y-14547048D02*
X16671191Y-14537524D01*
X16814048Y-14556571D02*
X16823572Y-14547048D01*
X16823572Y-14547048D02*
X16842619Y-14537524D01*
X16842619Y-14537524D02*
X16890238Y-14537524D01*
X16890238Y-14537524D02*
X16909286Y-14547048D01*
X16909286Y-14547048D02*
X16918810Y-14556571D01*
X16918810Y-14556571D02*
X16928334Y-14575619D01*
X16928334Y-14575619D02*
X16928334Y-14594667D01*
X16928334Y-14594667D02*
X16918810Y-14623238D01*
X16918810Y-14623238D02*
X16804524Y-14737524D01*
X16804524Y-14737524D02*
X16928334Y-14737524D01*
X16995000Y-14537524D02*
X17118810Y-14537524D01*
X17118810Y-14537524D02*
X17052143Y-14613714D01*
X17052143Y-14613714D02*
X17080715Y-14613714D01*
X17080715Y-14613714D02*
X17099762Y-14623238D01*
X17099762Y-14623238D02*
X17109286Y-14632762D01*
X17109286Y-14632762D02*
X17118810Y-14651809D01*
X17118810Y-14651809D02*
X17118810Y-14699428D01*
X17118810Y-14699428D02*
X17109286Y-14718476D01*
X17109286Y-14718476D02*
X17099762Y-14728000D01*
X17099762Y-14728000D02*
X17080715Y-14737524D01*
X17080715Y-14737524D02*
X17023572Y-14737524D01*
X17023572Y-14737524D02*
X17004524Y-14728000D01*
X17004524Y-14728000D02*
X16995000Y-14718476D01*
X17290238Y-14537524D02*
X17252143Y-14537524D01*
X17252143Y-14537524D02*
X17233095Y-14547048D01*
X17233095Y-14547048D02*
X17223572Y-14556571D01*
X17223572Y-14556571D02*
X17204524Y-14585143D01*
X17204524Y-14585143D02*
X17195000Y-14623238D01*
X17195000Y-14623238D02*
X17195000Y-14699428D01*
X17195000Y-14699428D02*
X17204524Y-14718476D01*
X17204524Y-14718476D02*
X17214048Y-14728000D01*
X17214048Y-14728000D02*
X17233095Y-14737524D01*
X17233095Y-14737524D02*
X17271191Y-14737524D01*
X17271191Y-14737524D02*
X17290238Y-14728000D01*
X17290238Y-14728000D02*
X17299762Y-14718476D01*
X17299762Y-14718476D02*
X17309286Y-14699428D01*
X17309286Y-14699428D02*
X17309286Y-14651809D01*
X17309286Y-14651809D02*
X17299762Y-14632762D01*
X17299762Y-14632762D02*
X17290238Y-14623238D01*
X17290238Y-14623238D02*
X17271191Y-14613714D01*
X17271191Y-14613714D02*
X17233095Y-14613714D01*
X17233095Y-14613714D02*
X17214048Y-14623238D01*
X17214048Y-14623238D02*
X17204524Y-14632762D01*
X17204524Y-14632762D02*
X17195000Y-14651809D01*
X17385476Y-14537524D02*
X17385476Y-14575619D01*
X17461667Y-14537524D02*
X17461667Y-14575619D01*
X17756905Y-14813714D02*
X17747381Y-14804190D01*
X17747381Y-14804190D02*
X17728334Y-14775619D01*
X17728334Y-14775619D02*
X17718810Y-14756571D01*
X17718810Y-14756571D02*
X17709286Y-14728000D01*
X17709286Y-14728000D02*
X17699762Y-14680381D01*
X17699762Y-14680381D02*
X17699762Y-14642286D01*
X17699762Y-14642286D02*
X17709286Y-14594667D01*
X17709286Y-14594667D02*
X17718810Y-14566095D01*
X17718810Y-14566095D02*
X17728334Y-14547048D01*
X17728334Y-14547048D02*
X17747381Y-14518476D01*
X17747381Y-14518476D02*
X17756905Y-14508952D01*
X17871191Y-14537524D02*
X17890238Y-14537524D01*
X17890238Y-14537524D02*
X17909286Y-14547048D01*
X17909286Y-14547048D02*
X17918810Y-14556571D01*
X17918810Y-14556571D02*
X17928334Y-14575619D01*
X17928334Y-14575619D02*
X17937857Y-14613714D01*
X17937857Y-14613714D02*
X17937857Y-14661333D01*
X17937857Y-14661333D02*
X17928334Y-14699428D01*
X17928334Y-14699428D02*
X17918810Y-14718476D01*
X17918810Y-14718476D02*
X17909286Y-14728000D01*
X17909286Y-14728000D02*
X17890238Y-14737524D01*
X17890238Y-14737524D02*
X17871191Y-14737524D01*
X17871191Y-14737524D02*
X17852143Y-14728000D01*
X17852143Y-14728000D02*
X17842619Y-14718476D01*
X17842619Y-14718476D02*
X17833096Y-14699428D01*
X17833096Y-14699428D02*
X17823572Y-14661333D01*
X17823572Y-14661333D02*
X17823572Y-14613714D01*
X17823572Y-14613714D02*
X17833096Y-14575619D01*
X17833096Y-14575619D02*
X17842619Y-14556571D01*
X17842619Y-14556571D02*
X17852143Y-14547048D01*
X17852143Y-14547048D02*
X17871191Y-14537524D01*
X18175953Y-14737524D02*
X18175953Y-14537524D01*
X18261667Y-14737524D02*
X18261667Y-14632762D01*
X18261667Y-14632762D02*
X18252143Y-14613714D01*
X18252143Y-14613714D02*
X18233096Y-14604190D01*
X18233096Y-14604190D02*
X18204524Y-14604190D01*
X18204524Y-14604190D02*
X18185477Y-14613714D01*
X18185477Y-14613714D02*
X18175953Y-14623238D01*
X18385477Y-14737524D02*
X18366429Y-14728000D01*
X18366429Y-14728000D02*
X18356905Y-14718476D01*
X18356905Y-14718476D02*
X18347381Y-14699428D01*
X18347381Y-14699428D02*
X18347381Y-14642286D01*
X18347381Y-14642286D02*
X18356905Y-14623238D01*
X18356905Y-14623238D02*
X18366429Y-14613714D01*
X18366429Y-14613714D02*
X18385477Y-14604190D01*
X18385477Y-14604190D02*
X18414048Y-14604190D01*
X18414048Y-14604190D02*
X18433096Y-14613714D01*
X18433096Y-14613714D02*
X18442619Y-14623238D01*
X18442619Y-14623238D02*
X18452143Y-14642286D01*
X18452143Y-14642286D02*
X18452143Y-14699428D01*
X18452143Y-14699428D02*
X18442619Y-14718476D01*
X18442619Y-14718476D02*
X18433096Y-14728000D01*
X18433096Y-14728000D02*
X18414048Y-14737524D01*
X18414048Y-14737524D02*
X18385477Y-14737524D01*
X18566429Y-14737524D02*
X18547381Y-14728000D01*
X18547381Y-14728000D02*
X18537858Y-14708952D01*
X18537858Y-14708952D02*
X18537858Y-14537524D01*
X18718810Y-14728000D02*
X18699762Y-14737524D01*
X18699762Y-14737524D02*
X18661667Y-14737524D01*
X18661667Y-14737524D02*
X18642619Y-14728000D01*
X18642619Y-14728000D02*
X18633096Y-14708952D01*
X18633096Y-14708952D02*
X18633096Y-14632762D01*
X18633096Y-14632762D02*
X18642619Y-14613714D01*
X18642619Y-14613714D02*
X18661667Y-14604190D01*
X18661667Y-14604190D02*
X18699762Y-14604190D01*
X18699762Y-14604190D02*
X18718810Y-14613714D01*
X18718810Y-14613714D02*
X18728334Y-14632762D01*
X18728334Y-14632762D02*
X18728334Y-14651809D01*
X18728334Y-14651809D02*
X18633096Y-14670857D01*
X18804524Y-14728000D02*
X18823572Y-14737524D01*
X18823572Y-14737524D02*
X18861667Y-14737524D01*
X18861667Y-14737524D02*
X18880715Y-14728000D01*
X18880715Y-14728000D02*
X18890239Y-14708952D01*
X18890239Y-14708952D02*
X18890239Y-14699428D01*
X18890239Y-14699428D02*
X18880715Y-14680381D01*
X18880715Y-14680381D02*
X18861667Y-14670857D01*
X18861667Y-14670857D02*
X18833096Y-14670857D01*
X18833096Y-14670857D02*
X18814048Y-14661333D01*
X18814048Y-14661333D02*
X18804524Y-14642286D01*
X18804524Y-14642286D02*
X18804524Y-14632762D01*
X18804524Y-14632762D02*
X18814048Y-14613714D01*
X18814048Y-14613714D02*
X18833096Y-14604190D01*
X18833096Y-14604190D02*
X18861667Y-14604190D01*
X18861667Y-14604190D02*
X18880715Y-14613714D01*
X19128334Y-14661333D02*
X19280715Y-14661333D01*
X19204524Y-14737524D02*
X19204524Y-14585143D01*
X19518810Y-14556571D02*
X19528334Y-14547048D01*
X19528334Y-14547048D02*
X19547381Y-14537524D01*
X19547381Y-14537524D02*
X19595001Y-14537524D01*
X19595001Y-14537524D02*
X19614048Y-14547048D01*
X19614048Y-14547048D02*
X19623572Y-14556571D01*
X19623572Y-14556571D02*
X19633096Y-14575619D01*
X19633096Y-14575619D02*
X19633096Y-14594667D01*
X19633096Y-14594667D02*
X19623572Y-14623238D01*
X19623572Y-14623238D02*
X19509286Y-14737524D01*
X19509286Y-14737524D02*
X19633096Y-14737524D01*
X19861667Y-14728000D02*
X19880715Y-14737524D01*
X19880715Y-14737524D02*
X19918810Y-14737524D01*
X19918810Y-14737524D02*
X19937858Y-14728000D01*
X19937858Y-14728000D02*
X19947382Y-14708952D01*
X19947382Y-14708952D02*
X19947382Y-14699428D01*
X19947382Y-14699428D02*
X19937858Y-14680381D01*
X19937858Y-14680381D02*
X19918810Y-14670857D01*
X19918810Y-14670857D02*
X19890239Y-14670857D01*
X19890239Y-14670857D02*
X19871191Y-14661333D01*
X19871191Y-14661333D02*
X19861667Y-14642286D01*
X19861667Y-14642286D02*
X19861667Y-14632762D01*
X19861667Y-14632762D02*
X19871191Y-14613714D01*
X19871191Y-14613714D02*
X19890239Y-14604190D01*
X19890239Y-14604190D02*
X19918810Y-14604190D01*
X19918810Y-14604190D02*
X19937858Y-14613714D01*
X20061667Y-14737524D02*
X20042620Y-14728000D01*
X20042620Y-14728000D02*
X20033096Y-14708952D01*
X20033096Y-14708952D02*
X20033096Y-14537524D01*
X20166429Y-14737524D02*
X20147382Y-14728000D01*
X20147382Y-14728000D02*
X20137858Y-14718476D01*
X20137858Y-14718476D02*
X20128334Y-14699428D01*
X20128334Y-14699428D02*
X20128334Y-14642286D01*
X20128334Y-14642286D02*
X20137858Y-14623238D01*
X20137858Y-14623238D02*
X20147382Y-14613714D01*
X20147382Y-14613714D02*
X20166429Y-14604190D01*
X20166429Y-14604190D02*
X20195001Y-14604190D01*
X20195001Y-14604190D02*
X20214048Y-14613714D01*
X20214048Y-14613714D02*
X20223572Y-14623238D01*
X20223572Y-14623238D02*
X20233096Y-14642286D01*
X20233096Y-14642286D02*
X20233096Y-14699428D01*
X20233096Y-14699428D02*
X20223572Y-14718476D01*
X20223572Y-14718476D02*
X20214048Y-14728000D01*
X20214048Y-14728000D02*
X20195001Y-14737524D01*
X20195001Y-14737524D02*
X20166429Y-14737524D01*
X20290239Y-14604190D02*
X20366429Y-14604190D01*
X20318810Y-14537524D02*
X20318810Y-14708952D01*
X20318810Y-14708952D02*
X20328334Y-14728000D01*
X20328334Y-14728000D02*
X20347382Y-14737524D01*
X20347382Y-14737524D02*
X20366429Y-14737524D01*
X20423572Y-14728000D02*
X20442620Y-14737524D01*
X20442620Y-14737524D02*
X20480715Y-14737524D01*
X20480715Y-14737524D02*
X20499763Y-14728000D01*
X20499763Y-14728000D02*
X20509286Y-14708952D01*
X20509286Y-14708952D02*
X20509286Y-14699428D01*
X20509286Y-14699428D02*
X20499763Y-14680381D01*
X20499763Y-14680381D02*
X20480715Y-14670857D01*
X20480715Y-14670857D02*
X20452143Y-14670857D01*
X20452143Y-14670857D02*
X20433096Y-14661333D01*
X20433096Y-14661333D02*
X20423572Y-14642286D01*
X20423572Y-14642286D02*
X20423572Y-14632762D01*
X20423572Y-14632762D02*
X20433096Y-14613714D01*
X20433096Y-14613714D02*
X20452143Y-14604190D01*
X20452143Y-14604190D02*
X20480715Y-14604190D01*
X20480715Y-14604190D02*
X20499763Y-14613714D01*
X20575953Y-14813714D02*
X20585477Y-14804190D01*
X20585477Y-14804190D02*
X20604524Y-14775619D01*
X20604524Y-14775619D02*
X20614048Y-14756571D01*
X20614048Y-14756571D02*
X20623572Y-14728000D01*
X20623572Y-14728000D02*
X20633096Y-14680381D01*
X20633096Y-14680381D02*
X20633096Y-14642286D01*
X20633096Y-14642286D02*
X20623572Y-14594667D01*
X20623572Y-14594667D02*
X20614048Y-14566095D01*
X20614048Y-14566095D02*
X20604524Y-14547048D01*
X20604524Y-14547048D02*
X20585477Y-14518476D01*
X20585477Y-14518476D02*
X20575953Y-14508952D01*
D10*
X14195000Y-14909000D02*
G75*
G03*
X14195000Y-14909000I-50000J0D01*
G01*
D11*
X14547381Y-15001524D02*
X14433095Y-15001524D01*
X14490238Y-15001524D02*
X14490238Y-14801524D01*
X14490238Y-14801524D02*
X14471190Y-14830095D01*
X14471190Y-14830095D02*
X14452143Y-14849143D01*
X14452143Y-14849143D02*
X14433095Y-14858667D01*
X14633095Y-14982476D02*
X14642619Y-14992000D01*
X14642619Y-14992000D02*
X14633095Y-15001524D01*
X14633095Y-15001524D02*
X14623571Y-14992000D01*
X14623571Y-14992000D02*
X14633095Y-14982476D01*
X14633095Y-14982476D02*
X14633095Y-15001524D01*
X14766428Y-14801524D02*
X14785476Y-14801524D01*
X14785476Y-14801524D02*
X14804524Y-14811048D01*
X14804524Y-14811048D02*
X14814048Y-14820571D01*
X14814048Y-14820571D02*
X14823571Y-14839619D01*
X14823571Y-14839619D02*
X14833095Y-14877714D01*
X14833095Y-14877714D02*
X14833095Y-14925333D01*
X14833095Y-14925333D02*
X14823571Y-14963428D01*
X14823571Y-14963428D02*
X14814048Y-14982476D01*
X14814048Y-14982476D02*
X14804524Y-14992000D01*
X14804524Y-14992000D02*
X14785476Y-15001524D01*
X14785476Y-15001524D02*
X14766428Y-15001524D01*
X14766428Y-15001524D02*
X14747381Y-14992000D01*
X14747381Y-14992000D02*
X14737857Y-14982476D01*
X14737857Y-14982476D02*
X14728333Y-14963428D01*
X14728333Y-14963428D02*
X14718809Y-14925333D01*
X14718809Y-14925333D02*
X14718809Y-14877714D01*
X14718809Y-14877714D02*
X14728333Y-14839619D01*
X14728333Y-14839619D02*
X14737857Y-14820571D01*
X14737857Y-14820571D02*
X14747381Y-14811048D01*
X14747381Y-14811048D02*
X14766428Y-14801524D01*
X14956905Y-14801524D02*
X14975952Y-14801524D01*
X14975952Y-14801524D02*
X14995000Y-14811048D01*
X14995000Y-14811048D02*
X15004524Y-14820571D01*
X15004524Y-14820571D02*
X15014048Y-14839619D01*
X15014048Y-14839619D02*
X15023571Y-14877714D01*
X15023571Y-14877714D02*
X15023571Y-14925333D01*
X15023571Y-14925333D02*
X15014048Y-14963428D01*
X15014048Y-14963428D02*
X15004524Y-14982476D01*
X15004524Y-14982476D02*
X14995000Y-14992000D01*
X14995000Y-14992000D02*
X14975952Y-15001524D01*
X14975952Y-15001524D02*
X14956905Y-15001524D01*
X14956905Y-15001524D02*
X14937857Y-14992000D01*
X14937857Y-14992000D02*
X14928333Y-14982476D01*
X14928333Y-14982476D02*
X14918809Y-14963428D01*
X14918809Y-14963428D02*
X14909286Y-14925333D01*
X14909286Y-14925333D02*
X14909286Y-14877714D01*
X14909286Y-14877714D02*
X14918809Y-14839619D01*
X14918809Y-14839619D02*
X14928333Y-14820571D01*
X14928333Y-14820571D02*
X14937857Y-14811048D01*
X14937857Y-14811048D02*
X14956905Y-14801524D01*
X15147381Y-14801524D02*
X15166429Y-14801524D01*
X15166429Y-14801524D02*
X15185476Y-14811048D01*
X15185476Y-14811048D02*
X15195000Y-14820571D01*
X15195000Y-14820571D02*
X15204524Y-14839619D01*
X15204524Y-14839619D02*
X15214048Y-14877714D01*
X15214048Y-14877714D02*
X15214048Y-14925333D01*
X15214048Y-14925333D02*
X15204524Y-14963428D01*
X15204524Y-14963428D02*
X15195000Y-14982476D01*
X15195000Y-14982476D02*
X15185476Y-14992000D01*
X15185476Y-14992000D02*
X15166429Y-15001524D01*
X15166429Y-15001524D02*
X15147381Y-15001524D01*
X15147381Y-15001524D02*
X15128333Y-14992000D01*
X15128333Y-14992000D02*
X15118809Y-14982476D01*
X15118809Y-14982476D02*
X15109286Y-14963428D01*
X15109286Y-14963428D02*
X15099762Y-14925333D01*
X15099762Y-14925333D02*
X15099762Y-14877714D01*
X15099762Y-14877714D02*
X15109286Y-14839619D01*
X15109286Y-14839619D02*
X15118809Y-14820571D01*
X15118809Y-14820571D02*
X15128333Y-14811048D01*
X15128333Y-14811048D02*
X15147381Y-14801524D01*
X15299762Y-15001524D02*
X15299762Y-14868190D01*
X15299762Y-14887238D02*
X15309286Y-14877714D01*
X15309286Y-14877714D02*
X15328333Y-14868190D01*
X15328333Y-14868190D02*
X15356905Y-14868190D01*
X15356905Y-14868190D02*
X15375952Y-14877714D01*
X15375952Y-14877714D02*
X15385476Y-14896762D01*
X15385476Y-14896762D02*
X15385476Y-15001524D01*
X15385476Y-14896762D02*
X15395000Y-14877714D01*
X15395000Y-14877714D02*
X15414048Y-14868190D01*
X15414048Y-14868190D02*
X15442619Y-14868190D01*
X15442619Y-14868190D02*
X15461667Y-14877714D01*
X15461667Y-14877714D02*
X15471190Y-14896762D01*
X15471190Y-14896762D02*
X15471190Y-15001524D01*
X15566429Y-15001524D02*
X15566429Y-14868190D01*
X15566429Y-14887238D02*
X15575952Y-14877714D01*
X15575952Y-14877714D02*
X15595000Y-14868190D01*
X15595000Y-14868190D02*
X15623571Y-14868190D01*
X15623571Y-14868190D02*
X15642619Y-14877714D01*
X15642619Y-14877714D02*
X15652143Y-14896762D01*
X15652143Y-14896762D02*
X15652143Y-15001524D01*
X15652143Y-14896762D02*
X15661667Y-14877714D01*
X15661667Y-14877714D02*
X15680714Y-14868190D01*
X15680714Y-14868190D02*
X15709286Y-14868190D01*
X15709286Y-14868190D02*
X15728333Y-14877714D01*
X15728333Y-14877714D02*
X15737857Y-14896762D01*
X15737857Y-14896762D02*
X15737857Y-15001524D01*
X16128333Y-14792000D02*
X15956905Y-15049143D01*
X16385476Y-14801524D02*
X16404524Y-14801524D01*
X16404524Y-14801524D02*
X16423572Y-14811048D01*
X16423572Y-14811048D02*
X16433095Y-14820571D01*
X16433095Y-14820571D02*
X16442619Y-14839619D01*
X16442619Y-14839619D02*
X16452143Y-14877714D01*
X16452143Y-14877714D02*
X16452143Y-14925333D01*
X16452143Y-14925333D02*
X16442619Y-14963428D01*
X16442619Y-14963428D02*
X16433095Y-14982476D01*
X16433095Y-14982476D02*
X16423572Y-14992000D01*
X16423572Y-14992000D02*
X16404524Y-15001524D01*
X16404524Y-15001524D02*
X16385476Y-15001524D01*
X16385476Y-15001524D02*
X16366429Y-14992000D01*
X16366429Y-14992000D02*
X16356905Y-14982476D01*
X16356905Y-14982476D02*
X16347381Y-14963428D01*
X16347381Y-14963428D02*
X16337857Y-14925333D01*
X16337857Y-14925333D02*
X16337857Y-14877714D01*
X16337857Y-14877714D02*
X16347381Y-14839619D01*
X16347381Y-14839619D02*
X16356905Y-14820571D01*
X16356905Y-14820571D02*
X16366429Y-14811048D01*
X16366429Y-14811048D02*
X16385476Y-14801524D01*
X16537857Y-14982476D02*
X16547381Y-14992000D01*
X16547381Y-14992000D02*
X16537857Y-15001524D01*
X16537857Y-15001524D02*
X16528333Y-14992000D01*
X16528333Y-14992000D02*
X16537857Y-14982476D01*
X16537857Y-14982476D02*
X16537857Y-15001524D01*
X16671191Y-14801524D02*
X16690238Y-14801524D01*
X16690238Y-14801524D02*
X16709286Y-14811048D01*
X16709286Y-14811048D02*
X16718810Y-14820571D01*
X16718810Y-14820571D02*
X16728333Y-14839619D01*
X16728333Y-14839619D02*
X16737857Y-14877714D01*
X16737857Y-14877714D02*
X16737857Y-14925333D01*
X16737857Y-14925333D02*
X16728333Y-14963428D01*
X16728333Y-14963428D02*
X16718810Y-14982476D01*
X16718810Y-14982476D02*
X16709286Y-14992000D01*
X16709286Y-14992000D02*
X16690238Y-15001524D01*
X16690238Y-15001524D02*
X16671191Y-15001524D01*
X16671191Y-15001524D02*
X16652143Y-14992000D01*
X16652143Y-14992000D02*
X16642619Y-14982476D01*
X16642619Y-14982476D02*
X16633095Y-14963428D01*
X16633095Y-14963428D02*
X16623572Y-14925333D01*
X16623572Y-14925333D02*
X16623572Y-14877714D01*
X16623572Y-14877714D02*
X16633095Y-14839619D01*
X16633095Y-14839619D02*
X16642619Y-14820571D01*
X16642619Y-14820571D02*
X16652143Y-14811048D01*
X16652143Y-14811048D02*
X16671191Y-14801524D01*
X16804524Y-14801524D02*
X16928334Y-14801524D01*
X16928334Y-14801524D02*
X16861667Y-14877714D01*
X16861667Y-14877714D02*
X16890238Y-14877714D01*
X16890238Y-14877714D02*
X16909286Y-14887238D01*
X16909286Y-14887238D02*
X16918810Y-14896762D01*
X16918810Y-14896762D02*
X16928334Y-14915809D01*
X16928334Y-14915809D02*
X16928334Y-14963428D01*
X16928334Y-14963428D02*
X16918810Y-14982476D01*
X16918810Y-14982476D02*
X16909286Y-14992000D01*
X16909286Y-14992000D02*
X16890238Y-15001524D01*
X16890238Y-15001524D02*
X16833095Y-15001524D01*
X16833095Y-15001524D02*
X16814048Y-14992000D01*
X16814048Y-14992000D02*
X16804524Y-14982476D01*
X17023572Y-15001524D02*
X17061667Y-15001524D01*
X17061667Y-15001524D02*
X17080715Y-14992000D01*
X17080715Y-14992000D02*
X17090238Y-14982476D01*
X17090238Y-14982476D02*
X17109286Y-14953905D01*
X17109286Y-14953905D02*
X17118810Y-14915809D01*
X17118810Y-14915809D02*
X17118810Y-14839619D01*
X17118810Y-14839619D02*
X17109286Y-14820571D01*
X17109286Y-14820571D02*
X17099762Y-14811048D01*
X17099762Y-14811048D02*
X17080715Y-14801524D01*
X17080715Y-14801524D02*
X17042619Y-14801524D01*
X17042619Y-14801524D02*
X17023572Y-14811048D01*
X17023572Y-14811048D02*
X17014048Y-14820571D01*
X17014048Y-14820571D02*
X17004524Y-14839619D01*
X17004524Y-14839619D02*
X17004524Y-14887238D01*
X17004524Y-14887238D02*
X17014048Y-14906286D01*
X17014048Y-14906286D02*
X17023572Y-14915809D01*
X17023572Y-14915809D02*
X17042619Y-14925333D01*
X17042619Y-14925333D02*
X17080715Y-14925333D01*
X17080715Y-14925333D02*
X17099762Y-14915809D01*
X17099762Y-14915809D02*
X17109286Y-14906286D01*
X17109286Y-14906286D02*
X17118810Y-14887238D01*
X17290238Y-14868190D02*
X17290238Y-15001524D01*
X17242619Y-14792000D02*
X17195000Y-14934857D01*
X17195000Y-14934857D02*
X17318810Y-14934857D01*
X17385476Y-14801524D02*
X17385476Y-14839619D01*
X17461667Y-14801524D02*
X17461667Y-14839619D01*
X17756905Y-15077714D02*
X17747381Y-15068190D01*
X17747381Y-15068190D02*
X17728334Y-15039619D01*
X17728334Y-15039619D02*
X17718810Y-15020571D01*
X17718810Y-15020571D02*
X17709286Y-14992000D01*
X17709286Y-14992000D02*
X17699762Y-14944381D01*
X17699762Y-14944381D02*
X17699762Y-14906286D01*
X17699762Y-14906286D02*
X17709286Y-14858667D01*
X17709286Y-14858667D02*
X17718810Y-14830095D01*
X17718810Y-14830095D02*
X17728334Y-14811048D01*
X17728334Y-14811048D02*
X17747381Y-14782476D01*
X17747381Y-14782476D02*
X17756905Y-14772952D01*
X17937857Y-15001524D02*
X17823572Y-15001524D01*
X17880715Y-15001524D02*
X17880715Y-14801524D01*
X17880715Y-14801524D02*
X17861667Y-14830095D01*
X17861667Y-14830095D02*
X17842619Y-14849143D01*
X17842619Y-14849143D02*
X17823572Y-14858667D01*
X18109286Y-14801524D02*
X18071191Y-14801524D01*
X18071191Y-14801524D02*
X18052143Y-14811048D01*
X18052143Y-14811048D02*
X18042619Y-14820571D01*
X18042619Y-14820571D02*
X18023572Y-14849143D01*
X18023572Y-14849143D02*
X18014048Y-14887238D01*
X18014048Y-14887238D02*
X18014048Y-14963428D01*
X18014048Y-14963428D02*
X18023572Y-14982476D01*
X18023572Y-14982476D02*
X18033096Y-14992000D01*
X18033096Y-14992000D02*
X18052143Y-15001524D01*
X18052143Y-15001524D02*
X18090238Y-15001524D01*
X18090238Y-15001524D02*
X18109286Y-14992000D01*
X18109286Y-14992000D02*
X18118810Y-14982476D01*
X18118810Y-14982476D02*
X18128334Y-14963428D01*
X18128334Y-14963428D02*
X18128334Y-14915809D01*
X18128334Y-14915809D02*
X18118810Y-14896762D01*
X18118810Y-14896762D02*
X18109286Y-14887238D01*
X18109286Y-14887238D02*
X18090238Y-14877714D01*
X18090238Y-14877714D02*
X18052143Y-14877714D01*
X18052143Y-14877714D02*
X18033096Y-14887238D01*
X18033096Y-14887238D02*
X18023572Y-14896762D01*
X18023572Y-14896762D02*
X18014048Y-14915809D01*
X18366429Y-15001524D02*
X18366429Y-14801524D01*
X18452143Y-15001524D02*
X18452143Y-14896762D01*
X18452143Y-14896762D02*
X18442619Y-14877714D01*
X18442619Y-14877714D02*
X18423572Y-14868190D01*
X18423572Y-14868190D02*
X18395000Y-14868190D01*
X18395000Y-14868190D02*
X18375953Y-14877714D01*
X18375953Y-14877714D02*
X18366429Y-14887238D01*
X18575953Y-15001524D02*
X18556905Y-14992000D01*
X18556905Y-14992000D02*
X18547381Y-14982476D01*
X18547381Y-14982476D02*
X18537858Y-14963428D01*
X18537858Y-14963428D02*
X18537858Y-14906286D01*
X18537858Y-14906286D02*
X18547381Y-14887238D01*
X18547381Y-14887238D02*
X18556905Y-14877714D01*
X18556905Y-14877714D02*
X18575953Y-14868190D01*
X18575953Y-14868190D02*
X18604524Y-14868190D01*
X18604524Y-14868190D02*
X18623572Y-14877714D01*
X18623572Y-14877714D02*
X18633096Y-14887238D01*
X18633096Y-14887238D02*
X18642619Y-14906286D01*
X18642619Y-14906286D02*
X18642619Y-14963428D01*
X18642619Y-14963428D02*
X18633096Y-14982476D01*
X18633096Y-14982476D02*
X18623572Y-14992000D01*
X18623572Y-14992000D02*
X18604524Y-15001524D01*
X18604524Y-15001524D02*
X18575953Y-15001524D01*
X18756905Y-15001524D02*
X18737858Y-14992000D01*
X18737858Y-14992000D02*
X18728334Y-14972952D01*
X18728334Y-14972952D02*
X18728334Y-14801524D01*
X18909286Y-14992000D02*
X18890239Y-15001524D01*
X18890239Y-15001524D02*
X18852143Y-15001524D01*
X18852143Y-15001524D02*
X18833096Y-14992000D01*
X18833096Y-14992000D02*
X18823572Y-14972952D01*
X18823572Y-14972952D02*
X18823572Y-14896762D01*
X18823572Y-14896762D02*
X18833096Y-14877714D01*
X18833096Y-14877714D02*
X18852143Y-14868190D01*
X18852143Y-14868190D02*
X18890239Y-14868190D01*
X18890239Y-14868190D02*
X18909286Y-14877714D01*
X18909286Y-14877714D02*
X18918810Y-14896762D01*
X18918810Y-14896762D02*
X18918810Y-14915809D01*
X18918810Y-14915809D02*
X18823572Y-14934857D01*
X18995000Y-14992000D02*
X19014048Y-15001524D01*
X19014048Y-15001524D02*
X19052143Y-15001524D01*
X19052143Y-15001524D02*
X19071191Y-14992000D01*
X19071191Y-14992000D02*
X19080715Y-14972952D01*
X19080715Y-14972952D02*
X19080715Y-14963428D01*
X19080715Y-14963428D02*
X19071191Y-14944381D01*
X19071191Y-14944381D02*
X19052143Y-14934857D01*
X19052143Y-14934857D02*
X19023572Y-14934857D01*
X19023572Y-14934857D02*
X19004524Y-14925333D01*
X19004524Y-14925333D02*
X18995000Y-14906286D01*
X18995000Y-14906286D02*
X18995000Y-14896762D01*
X18995000Y-14896762D02*
X19004524Y-14877714D01*
X19004524Y-14877714D02*
X19023572Y-14868190D01*
X19023572Y-14868190D02*
X19052143Y-14868190D01*
X19052143Y-14868190D02*
X19071191Y-14877714D01*
X19147381Y-15077714D02*
X19156905Y-15068190D01*
X19156905Y-15068190D02*
X19175953Y-15039619D01*
X19175953Y-15039619D02*
X19185477Y-15020571D01*
X19185477Y-15020571D02*
X19195000Y-14992000D01*
X19195000Y-14992000D02*
X19204524Y-14944381D01*
X19204524Y-14944381D02*
X19204524Y-14906286D01*
X19204524Y-14906286D02*
X19195000Y-14858667D01*
X19195000Y-14858667D02*
X19185477Y-14830095D01*
X19185477Y-14830095D02*
X19175953Y-14811048D01*
X19175953Y-14811048D02*
X19156905Y-14782476D01*
X19156905Y-14782476D02*
X19147381Y-14772952D01*
D13*
X14120000Y-15098000D02*
X14120000Y-15248000D01*
X14045000Y-15173000D02*
X14195000Y-15173000D01*
D11*
X14547381Y-15265524D02*
X14433095Y-15265524D01*
X14490238Y-15265524D02*
X14490238Y-15065524D01*
X14490238Y-15065524D02*
X14471190Y-15094095D01*
X14471190Y-15094095D02*
X14452143Y-15113143D01*
X14452143Y-15113143D02*
X14433095Y-15122667D01*
X14633095Y-15246476D02*
X14642619Y-15256000D01*
X14642619Y-15256000D02*
X14633095Y-15265524D01*
X14633095Y-15265524D02*
X14623571Y-15256000D01*
X14623571Y-15256000D02*
X14633095Y-15246476D01*
X14633095Y-15246476D02*
X14633095Y-15265524D01*
X14823571Y-15065524D02*
X14728333Y-15065524D01*
X14728333Y-15065524D02*
X14718809Y-15160762D01*
X14718809Y-15160762D02*
X14728333Y-15151238D01*
X14728333Y-15151238D02*
X14747381Y-15141714D01*
X14747381Y-15141714D02*
X14795000Y-15141714D01*
X14795000Y-15141714D02*
X14814048Y-15151238D01*
X14814048Y-15151238D02*
X14823571Y-15160762D01*
X14823571Y-15160762D02*
X14833095Y-15179809D01*
X14833095Y-15179809D02*
X14833095Y-15227428D01*
X14833095Y-15227428D02*
X14823571Y-15246476D01*
X14823571Y-15246476D02*
X14814048Y-15256000D01*
X14814048Y-15256000D02*
X14795000Y-15265524D01*
X14795000Y-15265524D02*
X14747381Y-15265524D01*
X14747381Y-15265524D02*
X14728333Y-15256000D01*
X14728333Y-15256000D02*
X14718809Y-15246476D01*
X14956905Y-15065524D02*
X14975952Y-15065524D01*
X14975952Y-15065524D02*
X14995000Y-15075048D01*
X14995000Y-15075048D02*
X15004524Y-15084571D01*
X15004524Y-15084571D02*
X15014048Y-15103619D01*
X15014048Y-15103619D02*
X15023571Y-15141714D01*
X15023571Y-15141714D02*
X15023571Y-15189333D01*
X15023571Y-15189333D02*
X15014048Y-15227428D01*
X15014048Y-15227428D02*
X15004524Y-15246476D01*
X15004524Y-15246476D02*
X14995000Y-15256000D01*
X14995000Y-15256000D02*
X14975952Y-15265524D01*
X14975952Y-15265524D02*
X14956905Y-15265524D01*
X14956905Y-15265524D02*
X14937857Y-15256000D01*
X14937857Y-15256000D02*
X14928333Y-15246476D01*
X14928333Y-15246476D02*
X14918809Y-15227428D01*
X14918809Y-15227428D02*
X14909286Y-15189333D01*
X14909286Y-15189333D02*
X14909286Y-15141714D01*
X14909286Y-15141714D02*
X14918809Y-15103619D01*
X14918809Y-15103619D02*
X14928333Y-15084571D01*
X14928333Y-15084571D02*
X14937857Y-15075048D01*
X14937857Y-15075048D02*
X14956905Y-15065524D01*
X15147381Y-15065524D02*
X15166429Y-15065524D01*
X15166429Y-15065524D02*
X15185476Y-15075048D01*
X15185476Y-15075048D02*
X15195000Y-15084571D01*
X15195000Y-15084571D02*
X15204524Y-15103619D01*
X15204524Y-15103619D02*
X15214048Y-15141714D01*
X15214048Y-15141714D02*
X15214048Y-15189333D01*
X15214048Y-15189333D02*
X15204524Y-15227428D01*
X15204524Y-15227428D02*
X15195000Y-15246476D01*
X15195000Y-15246476D02*
X15185476Y-15256000D01*
X15185476Y-15256000D02*
X15166429Y-15265524D01*
X15166429Y-15265524D02*
X15147381Y-15265524D01*
X15147381Y-15265524D02*
X15128333Y-15256000D01*
X15128333Y-15256000D02*
X15118809Y-15246476D01*
X15118809Y-15246476D02*
X15109286Y-15227428D01*
X15109286Y-15227428D02*
X15099762Y-15189333D01*
X15099762Y-15189333D02*
X15099762Y-15141714D01*
X15099762Y-15141714D02*
X15109286Y-15103619D01*
X15109286Y-15103619D02*
X15118809Y-15084571D01*
X15118809Y-15084571D02*
X15128333Y-15075048D01*
X15128333Y-15075048D02*
X15147381Y-15065524D01*
X15299762Y-15265524D02*
X15299762Y-15132190D01*
X15299762Y-15151238D02*
X15309286Y-15141714D01*
X15309286Y-15141714D02*
X15328333Y-15132190D01*
X15328333Y-15132190D02*
X15356905Y-15132190D01*
X15356905Y-15132190D02*
X15375952Y-15141714D01*
X15375952Y-15141714D02*
X15385476Y-15160762D01*
X15385476Y-15160762D02*
X15385476Y-15265524D01*
X15385476Y-15160762D02*
X15395000Y-15141714D01*
X15395000Y-15141714D02*
X15414048Y-15132190D01*
X15414048Y-15132190D02*
X15442619Y-15132190D01*
X15442619Y-15132190D02*
X15461667Y-15141714D01*
X15461667Y-15141714D02*
X15471190Y-15160762D01*
X15471190Y-15160762D02*
X15471190Y-15265524D01*
X15566429Y-15265524D02*
X15566429Y-15132190D01*
X15566429Y-15151238D02*
X15575952Y-15141714D01*
X15575952Y-15141714D02*
X15595000Y-15132190D01*
X15595000Y-15132190D02*
X15623571Y-15132190D01*
X15623571Y-15132190D02*
X15642619Y-15141714D01*
X15642619Y-15141714D02*
X15652143Y-15160762D01*
X15652143Y-15160762D02*
X15652143Y-15265524D01*
X15652143Y-15160762D02*
X15661667Y-15141714D01*
X15661667Y-15141714D02*
X15680714Y-15132190D01*
X15680714Y-15132190D02*
X15709286Y-15132190D01*
X15709286Y-15132190D02*
X15728333Y-15141714D01*
X15728333Y-15141714D02*
X15737857Y-15160762D01*
X15737857Y-15160762D02*
X15737857Y-15265524D01*
X16128333Y-15056000D02*
X15956905Y-15313143D01*
X16385476Y-15065524D02*
X16404524Y-15065524D01*
X16404524Y-15065524D02*
X16423572Y-15075048D01*
X16423572Y-15075048D02*
X16433095Y-15084571D01*
X16433095Y-15084571D02*
X16442619Y-15103619D01*
X16442619Y-15103619D02*
X16452143Y-15141714D01*
X16452143Y-15141714D02*
X16452143Y-15189333D01*
X16452143Y-15189333D02*
X16442619Y-15227428D01*
X16442619Y-15227428D02*
X16433095Y-15246476D01*
X16433095Y-15246476D02*
X16423572Y-15256000D01*
X16423572Y-15256000D02*
X16404524Y-15265524D01*
X16404524Y-15265524D02*
X16385476Y-15265524D01*
X16385476Y-15265524D02*
X16366429Y-15256000D01*
X16366429Y-15256000D02*
X16356905Y-15246476D01*
X16356905Y-15246476D02*
X16347381Y-15227428D01*
X16347381Y-15227428D02*
X16337857Y-15189333D01*
X16337857Y-15189333D02*
X16337857Y-15141714D01*
X16337857Y-15141714D02*
X16347381Y-15103619D01*
X16347381Y-15103619D02*
X16356905Y-15084571D01*
X16356905Y-15084571D02*
X16366429Y-15075048D01*
X16366429Y-15075048D02*
X16385476Y-15065524D01*
X16537857Y-15246476D02*
X16547381Y-15256000D01*
X16547381Y-15256000D02*
X16537857Y-15265524D01*
X16537857Y-15265524D02*
X16528333Y-15256000D01*
X16528333Y-15256000D02*
X16537857Y-15246476D01*
X16537857Y-15246476D02*
X16537857Y-15265524D01*
X16671191Y-15065524D02*
X16690238Y-15065524D01*
X16690238Y-15065524D02*
X16709286Y-15075048D01*
X16709286Y-15075048D02*
X16718810Y-15084571D01*
X16718810Y-15084571D02*
X16728333Y-15103619D01*
X16728333Y-15103619D02*
X16737857Y-15141714D01*
X16737857Y-15141714D02*
X16737857Y-15189333D01*
X16737857Y-15189333D02*
X16728333Y-15227428D01*
X16728333Y-15227428D02*
X16718810Y-15246476D01*
X16718810Y-15246476D02*
X16709286Y-15256000D01*
X16709286Y-15256000D02*
X16690238Y-15265524D01*
X16690238Y-15265524D02*
X16671191Y-15265524D01*
X16671191Y-15265524D02*
X16652143Y-15256000D01*
X16652143Y-15256000D02*
X16642619Y-15246476D01*
X16642619Y-15246476D02*
X16633095Y-15227428D01*
X16633095Y-15227428D02*
X16623572Y-15189333D01*
X16623572Y-15189333D02*
X16623572Y-15141714D01*
X16623572Y-15141714D02*
X16633095Y-15103619D01*
X16633095Y-15103619D02*
X16642619Y-15084571D01*
X16642619Y-15084571D02*
X16652143Y-15075048D01*
X16652143Y-15075048D02*
X16671191Y-15065524D01*
X16918810Y-15065524D02*
X16823572Y-15065524D01*
X16823572Y-15065524D02*
X16814048Y-15160762D01*
X16814048Y-15160762D02*
X16823572Y-15151238D01*
X16823572Y-15151238D02*
X16842619Y-15141714D01*
X16842619Y-15141714D02*
X16890238Y-15141714D01*
X16890238Y-15141714D02*
X16909286Y-15151238D01*
X16909286Y-15151238D02*
X16918810Y-15160762D01*
X16918810Y-15160762D02*
X16928334Y-15179809D01*
X16928334Y-15179809D02*
X16928334Y-15227428D01*
X16928334Y-15227428D02*
X16918810Y-15246476D01*
X16918810Y-15246476D02*
X16909286Y-15256000D01*
X16909286Y-15256000D02*
X16890238Y-15265524D01*
X16890238Y-15265524D02*
X16842619Y-15265524D01*
X16842619Y-15265524D02*
X16823572Y-15256000D01*
X16823572Y-15256000D02*
X16814048Y-15246476D01*
X17023572Y-15265524D02*
X17061667Y-15265524D01*
X17061667Y-15265524D02*
X17080715Y-15256000D01*
X17080715Y-15256000D02*
X17090238Y-15246476D01*
X17090238Y-15246476D02*
X17109286Y-15217905D01*
X17109286Y-15217905D02*
X17118810Y-15179809D01*
X17118810Y-15179809D02*
X17118810Y-15103619D01*
X17118810Y-15103619D02*
X17109286Y-15084571D01*
X17109286Y-15084571D02*
X17099762Y-15075048D01*
X17099762Y-15075048D02*
X17080715Y-15065524D01*
X17080715Y-15065524D02*
X17042619Y-15065524D01*
X17042619Y-15065524D02*
X17023572Y-15075048D01*
X17023572Y-15075048D02*
X17014048Y-15084571D01*
X17014048Y-15084571D02*
X17004524Y-15103619D01*
X17004524Y-15103619D02*
X17004524Y-15151238D01*
X17004524Y-15151238D02*
X17014048Y-15170286D01*
X17014048Y-15170286D02*
X17023572Y-15179809D01*
X17023572Y-15179809D02*
X17042619Y-15189333D01*
X17042619Y-15189333D02*
X17080715Y-15189333D01*
X17080715Y-15189333D02*
X17099762Y-15179809D01*
X17099762Y-15179809D02*
X17109286Y-15170286D01*
X17109286Y-15170286D02*
X17118810Y-15151238D01*
X17309286Y-15265524D02*
X17195000Y-15265524D01*
X17252143Y-15265524D02*
X17252143Y-15065524D01*
X17252143Y-15065524D02*
X17233095Y-15094095D01*
X17233095Y-15094095D02*
X17214048Y-15113143D01*
X17214048Y-15113143D02*
X17195000Y-15122667D01*
X17385476Y-15065524D02*
X17385476Y-15103619D01*
X17461667Y-15065524D02*
X17461667Y-15103619D01*
X17756905Y-15341714D02*
X17747381Y-15332190D01*
X17747381Y-15332190D02*
X17728334Y-15303619D01*
X17728334Y-15303619D02*
X17718810Y-15284571D01*
X17718810Y-15284571D02*
X17709286Y-15256000D01*
X17709286Y-15256000D02*
X17699762Y-15208381D01*
X17699762Y-15208381D02*
X17699762Y-15170286D01*
X17699762Y-15170286D02*
X17709286Y-15122667D01*
X17709286Y-15122667D02*
X17718810Y-15094095D01*
X17718810Y-15094095D02*
X17728334Y-15075048D01*
X17728334Y-15075048D02*
X17747381Y-15046476D01*
X17747381Y-15046476D02*
X17756905Y-15036952D01*
X17918810Y-15065524D02*
X17880715Y-15065524D01*
X17880715Y-15065524D02*
X17861667Y-15075048D01*
X17861667Y-15075048D02*
X17852143Y-15084571D01*
X17852143Y-15084571D02*
X17833096Y-15113143D01*
X17833096Y-15113143D02*
X17823572Y-15151238D01*
X17823572Y-15151238D02*
X17823572Y-15227428D01*
X17823572Y-15227428D02*
X17833096Y-15246476D01*
X17833096Y-15246476D02*
X17842619Y-15256000D01*
X17842619Y-15256000D02*
X17861667Y-15265524D01*
X17861667Y-15265524D02*
X17899762Y-15265524D01*
X17899762Y-15265524D02*
X17918810Y-15256000D01*
X17918810Y-15256000D02*
X17928334Y-15246476D01*
X17928334Y-15246476D02*
X17937857Y-15227428D01*
X17937857Y-15227428D02*
X17937857Y-15179809D01*
X17937857Y-15179809D02*
X17928334Y-15160762D01*
X17928334Y-15160762D02*
X17918810Y-15151238D01*
X17918810Y-15151238D02*
X17899762Y-15141714D01*
X17899762Y-15141714D02*
X17861667Y-15141714D01*
X17861667Y-15141714D02*
X17842619Y-15151238D01*
X17842619Y-15151238D02*
X17833096Y-15160762D01*
X17833096Y-15160762D02*
X17823572Y-15179809D01*
X18175953Y-15265524D02*
X18175953Y-15065524D01*
X18261667Y-15265524D02*
X18261667Y-15160762D01*
X18261667Y-15160762D02*
X18252143Y-15141714D01*
X18252143Y-15141714D02*
X18233096Y-15132190D01*
X18233096Y-15132190D02*
X18204524Y-15132190D01*
X18204524Y-15132190D02*
X18185477Y-15141714D01*
X18185477Y-15141714D02*
X18175953Y-15151238D01*
X18385477Y-15265524D02*
X18366429Y-15256000D01*
X18366429Y-15256000D02*
X18356905Y-15246476D01*
X18356905Y-15246476D02*
X18347381Y-15227428D01*
X18347381Y-15227428D02*
X18347381Y-15170286D01*
X18347381Y-15170286D02*
X18356905Y-15151238D01*
X18356905Y-15151238D02*
X18366429Y-15141714D01*
X18366429Y-15141714D02*
X18385477Y-15132190D01*
X18385477Y-15132190D02*
X18414048Y-15132190D01*
X18414048Y-15132190D02*
X18433096Y-15141714D01*
X18433096Y-15141714D02*
X18442619Y-15151238D01*
X18442619Y-15151238D02*
X18452143Y-15170286D01*
X18452143Y-15170286D02*
X18452143Y-15227428D01*
X18452143Y-15227428D02*
X18442619Y-15246476D01*
X18442619Y-15246476D02*
X18433096Y-15256000D01*
X18433096Y-15256000D02*
X18414048Y-15265524D01*
X18414048Y-15265524D02*
X18385477Y-15265524D01*
X18566429Y-15265524D02*
X18547381Y-15256000D01*
X18547381Y-15256000D02*
X18537858Y-15236952D01*
X18537858Y-15236952D02*
X18537858Y-15065524D01*
X18718810Y-15256000D02*
X18699762Y-15265524D01*
X18699762Y-15265524D02*
X18661667Y-15265524D01*
X18661667Y-15265524D02*
X18642619Y-15256000D01*
X18642619Y-15256000D02*
X18633096Y-15236952D01*
X18633096Y-15236952D02*
X18633096Y-15160762D01*
X18633096Y-15160762D02*
X18642619Y-15141714D01*
X18642619Y-15141714D02*
X18661667Y-15132190D01*
X18661667Y-15132190D02*
X18699762Y-15132190D01*
X18699762Y-15132190D02*
X18718810Y-15141714D01*
X18718810Y-15141714D02*
X18728334Y-15160762D01*
X18728334Y-15160762D02*
X18728334Y-15179809D01*
X18728334Y-15179809D02*
X18633096Y-15198857D01*
X18804524Y-15256000D02*
X18823572Y-15265524D01*
X18823572Y-15265524D02*
X18861667Y-15265524D01*
X18861667Y-15265524D02*
X18880715Y-15256000D01*
X18880715Y-15256000D02*
X18890239Y-15236952D01*
X18890239Y-15236952D02*
X18890239Y-15227428D01*
X18890239Y-15227428D02*
X18880715Y-15208381D01*
X18880715Y-15208381D02*
X18861667Y-15198857D01*
X18861667Y-15198857D02*
X18833096Y-15198857D01*
X18833096Y-15198857D02*
X18814048Y-15189333D01*
X18814048Y-15189333D02*
X18804524Y-15170286D01*
X18804524Y-15170286D02*
X18804524Y-15160762D01*
X18804524Y-15160762D02*
X18814048Y-15141714D01*
X18814048Y-15141714D02*
X18833096Y-15132190D01*
X18833096Y-15132190D02*
X18861667Y-15132190D01*
X18861667Y-15132190D02*
X18880715Y-15141714D01*
X18956905Y-15341714D02*
X18966429Y-15332190D01*
X18966429Y-15332190D02*
X18985477Y-15303619D01*
X18985477Y-15303619D02*
X18995000Y-15284571D01*
X18995000Y-15284571D02*
X19004524Y-15256000D01*
X19004524Y-15256000D02*
X19014048Y-15208381D01*
X19014048Y-15208381D02*
X19014048Y-15170286D01*
X19014048Y-15170286D02*
X19004524Y-15122667D01*
X19004524Y-15122667D02*
X18995000Y-15094095D01*
X18995000Y-15094095D02*
X18985477Y-15075048D01*
X18985477Y-15075048D02*
X18966429Y-15046476D01*
X18966429Y-15046476D02*
X18956905Y-15036952D01*
X14165711Y-15513711D02*
X14165711Y-15372289D01*
X14024289Y-15372289D01*
X14024289Y-15513711D01*
X14165711Y-15513711D01*
X14433095Y-15354571D02*
X14442619Y-15345048D01*
X14442619Y-15345048D02*
X14461667Y-15335524D01*
X14461667Y-15335524D02*
X14509286Y-15335524D01*
X14509286Y-15335524D02*
X14528333Y-15345048D01*
X14528333Y-15345048D02*
X14537857Y-15354571D01*
X14537857Y-15354571D02*
X14547381Y-15373619D01*
X14547381Y-15373619D02*
X14547381Y-15392667D01*
X14547381Y-15392667D02*
X14537857Y-15421238D01*
X14537857Y-15421238D02*
X14423571Y-15535524D01*
X14423571Y-15535524D02*
X14547381Y-15535524D01*
X14633095Y-15516476D02*
X14642619Y-15526000D01*
X14642619Y-15526000D02*
X14633095Y-15535524D01*
X14633095Y-15535524D02*
X14623571Y-15526000D01*
X14623571Y-15526000D02*
X14633095Y-15516476D01*
X14633095Y-15516476D02*
X14633095Y-15535524D01*
X14709286Y-15335524D02*
X14842619Y-15335524D01*
X14842619Y-15335524D02*
X14756905Y-15535524D01*
X14956905Y-15335524D02*
X14975952Y-15335524D01*
X14975952Y-15335524D02*
X14995000Y-15345048D01*
X14995000Y-15345048D02*
X15004524Y-15354571D01*
X15004524Y-15354571D02*
X15014048Y-15373619D01*
X15014048Y-15373619D02*
X15023571Y-15411714D01*
X15023571Y-15411714D02*
X15023571Y-15459333D01*
X15023571Y-15459333D02*
X15014048Y-15497428D01*
X15014048Y-15497428D02*
X15004524Y-15516476D01*
X15004524Y-15516476D02*
X14995000Y-15526000D01*
X14995000Y-15526000D02*
X14975952Y-15535524D01*
X14975952Y-15535524D02*
X14956905Y-15535524D01*
X14956905Y-15535524D02*
X14937857Y-15526000D01*
X14937857Y-15526000D02*
X14928333Y-15516476D01*
X14928333Y-15516476D02*
X14918809Y-15497428D01*
X14918809Y-15497428D02*
X14909286Y-15459333D01*
X14909286Y-15459333D02*
X14909286Y-15411714D01*
X14909286Y-15411714D02*
X14918809Y-15373619D01*
X14918809Y-15373619D02*
X14928333Y-15354571D01*
X14928333Y-15354571D02*
X14937857Y-15345048D01*
X14937857Y-15345048D02*
X14956905Y-15335524D01*
X15147381Y-15335524D02*
X15166429Y-15335524D01*
X15166429Y-15335524D02*
X15185476Y-15345048D01*
X15185476Y-15345048D02*
X15195000Y-15354571D01*
X15195000Y-15354571D02*
X15204524Y-15373619D01*
X15204524Y-15373619D02*
X15214048Y-15411714D01*
X15214048Y-15411714D02*
X15214048Y-15459333D01*
X15214048Y-15459333D02*
X15204524Y-15497428D01*
X15204524Y-15497428D02*
X15195000Y-15516476D01*
X15195000Y-15516476D02*
X15185476Y-15526000D01*
X15185476Y-15526000D02*
X15166429Y-15535524D01*
X15166429Y-15535524D02*
X15147381Y-15535524D01*
X15147381Y-15535524D02*
X15128333Y-15526000D01*
X15128333Y-15526000D02*
X15118809Y-15516476D01*
X15118809Y-15516476D02*
X15109286Y-15497428D01*
X15109286Y-15497428D02*
X15099762Y-15459333D01*
X15099762Y-15459333D02*
X15099762Y-15411714D01*
X15099762Y-15411714D02*
X15109286Y-15373619D01*
X15109286Y-15373619D02*
X15118809Y-15354571D01*
X15118809Y-15354571D02*
X15128333Y-15345048D01*
X15128333Y-15345048D02*
X15147381Y-15335524D01*
X15299762Y-15535524D02*
X15299762Y-15402190D01*
X15299762Y-15421238D02*
X15309286Y-15411714D01*
X15309286Y-15411714D02*
X15328333Y-15402190D01*
X15328333Y-15402190D02*
X15356905Y-15402190D01*
X15356905Y-15402190D02*
X15375952Y-15411714D01*
X15375952Y-15411714D02*
X15385476Y-15430762D01*
X15385476Y-15430762D02*
X15385476Y-15535524D01*
X15385476Y-15430762D02*
X15395000Y-15411714D01*
X15395000Y-15411714D02*
X15414048Y-15402190D01*
X15414048Y-15402190D02*
X15442619Y-15402190D01*
X15442619Y-15402190D02*
X15461667Y-15411714D01*
X15461667Y-15411714D02*
X15471190Y-15430762D01*
X15471190Y-15430762D02*
X15471190Y-15535524D01*
X15566429Y-15535524D02*
X15566429Y-15402190D01*
X15566429Y-15421238D02*
X15575952Y-15411714D01*
X15575952Y-15411714D02*
X15595000Y-15402190D01*
X15595000Y-15402190D02*
X15623571Y-15402190D01*
X15623571Y-15402190D02*
X15642619Y-15411714D01*
X15642619Y-15411714D02*
X15652143Y-15430762D01*
X15652143Y-15430762D02*
X15652143Y-15535524D01*
X15652143Y-15430762D02*
X15661667Y-15411714D01*
X15661667Y-15411714D02*
X15680714Y-15402190D01*
X15680714Y-15402190D02*
X15709286Y-15402190D01*
X15709286Y-15402190D02*
X15728333Y-15411714D01*
X15728333Y-15411714D02*
X15737857Y-15430762D01*
X15737857Y-15430762D02*
X15737857Y-15535524D01*
X16128333Y-15326000D02*
X15956905Y-15583143D01*
X16385476Y-15335524D02*
X16404524Y-15335524D01*
X16404524Y-15335524D02*
X16423572Y-15345048D01*
X16423572Y-15345048D02*
X16433095Y-15354571D01*
X16433095Y-15354571D02*
X16442619Y-15373619D01*
X16442619Y-15373619D02*
X16452143Y-15411714D01*
X16452143Y-15411714D02*
X16452143Y-15459333D01*
X16452143Y-15459333D02*
X16442619Y-15497428D01*
X16442619Y-15497428D02*
X16433095Y-15516476D01*
X16433095Y-15516476D02*
X16423572Y-15526000D01*
X16423572Y-15526000D02*
X16404524Y-15535524D01*
X16404524Y-15535524D02*
X16385476Y-15535524D01*
X16385476Y-15535524D02*
X16366429Y-15526000D01*
X16366429Y-15526000D02*
X16356905Y-15516476D01*
X16356905Y-15516476D02*
X16347381Y-15497428D01*
X16347381Y-15497428D02*
X16337857Y-15459333D01*
X16337857Y-15459333D02*
X16337857Y-15411714D01*
X16337857Y-15411714D02*
X16347381Y-15373619D01*
X16347381Y-15373619D02*
X16356905Y-15354571D01*
X16356905Y-15354571D02*
X16366429Y-15345048D01*
X16366429Y-15345048D02*
X16385476Y-15335524D01*
X16537857Y-15516476D02*
X16547381Y-15526000D01*
X16547381Y-15526000D02*
X16537857Y-15535524D01*
X16537857Y-15535524D02*
X16528333Y-15526000D01*
X16528333Y-15526000D02*
X16537857Y-15516476D01*
X16537857Y-15516476D02*
X16537857Y-15535524D01*
X16737857Y-15535524D02*
X16623572Y-15535524D01*
X16680714Y-15535524D02*
X16680714Y-15335524D01*
X16680714Y-15335524D02*
X16661667Y-15364095D01*
X16661667Y-15364095D02*
X16642619Y-15383143D01*
X16642619Y-15383143D02*
X16623572Y-15392667D01*
X16861667Y-15335524D02*
X16880715Y-15335524D01*
X16880715Y-15335524D02*
X16899762Y-15345048D01*
X16899762Y-15345048D02*
X16909286Y-15354571D01*
X16909286Y-15354571D02*
X16918810Y-15373619D01*
X16918810Y-15373619D02*
X16928334Y-15411714D01*
X16928334Y-15411714D02*
X16928334Y-15459333D01*
X16928334Y-15459333D02*
X16918810Y-15497428D01*
X16918810Y-15497428D02*
X16909286Y-15516476D01*
X16909286Y-15516476D02*
X16899762Y-15526000D01*
X16899762Y-15526000D02*
X16880715Y-15535524D01*
X16880715Y-15535524D02*
X16861667Y-15535524D01*
X16861667Y-15535524D02*
X16842619Y-15526000D01*
X16842619Y-15526000D02*
X16833095Y-15516476D01*
X16833095Y-15516476D02*
X16823572Y-15497428D01*
X16823572Y-15497428D02*
X16814048Y-15459333D01*
X16814048Y-15459333D02*
X16814048Y-15411714D01*
X16814048Y-15411714D02*
X16823572Y-15373619D01*
X16823572Y-15373619D02*
X16833095Y-15354571D01*
X16833095Y-15354571D02*
X16842619Y-15345048D01*
X16842619Y-15345048D02*
X16861667Y-15335524D01*
X17099762Y-15335524D02*
X17061667Y-15335524D01*
X17061667Y-15335524D02*
X17042619Y-15345048D01*
X17042619Y-15345048D02*
X17033095Y-15354571D01*
X17033095Y-15354571D02*
X17014048Y-15383143D01*
X17014048Y-15383143D02*
X17004524Y-15421238D01*
X17004524Y-15421238D02*
X17004524Y-15497428D01*
X17004524Y-15497428D02*
X17014048Y-15516476D01*
X17014048Y-15516476D02*
X17023572Y-15526000D01*
X17023572Y-15526000D02*
X17042619Y-15535524D01*
X17042619Y-15535524D02*
X17080715Y-15535524D01*
X17080715Y-15535524D02*
X17099762Y-15526000D01*
X17099762Y-15526000D02*
X17109286Y-15516476D01*
X17109286Y-15516476D02*
X17118810Y-15497428D01*
X17118810Y-15497428D02*
X17118810Y-15449809D01*
X17118810Y-15449809D02*
X17109286Y-15430762D01*
X17109286Y-15430762D02*
X17099762Y-15421238D01*
X17099762Y-15421238D02*
X17080715Y-15411714D01*
X17080715Y-15411714D02*
X17042619Y-15411714D01*
X17042619Y-15411714D02*
X17023572Y-15421238D01*
X17023572Y-15421238D02*
X17014048Y-15430762D01*
X17014048Y-15430762D02*
X17004524Y-15449809D01*
X17185476Y-15335524D02*
X17309286Y-15335524D01*
X17309286Y-15335524D02*
X17242619Y-15411714D01*
X17242619Y-15411714D02*
X17271191Y-15411714D01*
X17271191Y-15411714D02*
X17290238Y-15421238D01*
X17290238Y-15421238D02*
X17299762Y-15430762D01*
X17299762Y-15430762D02*
X17309286Y-15449809D01*
X17309286Y-15449809D02*
X17309286Y-15497428D01*
X17309286Y-15497428D02*
X17299762Y-15516476D01*
X17299762Y-15516476D02*
X17290238Y-15526000D01*
X17290238Y-15526000D02*
X17271191Y-15535524D01*
X17271191Y-15535524D02*
X17214048Y-15535524D01*
X17214048Y-15535524D02*
X17195000Y-15526000D01*
X17195000Y-15526000D02*
X17185476Y-15516476D01*
X17385476Y-15335524D02*
X17385476Y-15373619D01*
X17461667Y-15335524D02*
X17461667Y-15373619D01*
X17756905Y-15611714D02*
X17747381Y-15602190D01*
X17747381Y-15602190D02*
X17728334Y-15573619D01*
X17728334Y-15573619D02*
X17718810Y-15554571D01*
X17718810Y-15554571D02*
X17709286Y-15526000D01*
X17709286Y-15526000D02*
X17699762Y-15478381D01*
X17699762Y-15478381D02*
X17699762Y-15440286D01*
X17699762Y-15440286D02*
X17709286Y-15392667D01*
X17709286Y-15392667D02*
X17718810Y-15364095D01*
X17718810Y-15364095D02*
X17728334Y-15345048D01*
X17728334Y-15345048D02*
X17747381Y-15316476D01*
X17747381Y-15316476D02*
X17756905Y-15306952D01*
X17823572Y-15354571D02*
X17833096Y-15345048D01*
X17833096Y-15345048D02*
X17852143Y-15335524D01*
X17852143Y-15335524D02*
X17899762Y-15335524D01*
X17899762Y-15335524D02*
X17918810Y-15345048D01*
X17918810Y-15345048D02*
X17928334Y-15354571D01*
X17928334Y-15354571D02*
X17937857Y-15373619D01*
X17937857Y-15373619D02*
X17937857Y-15392667D01*
X17937857Y-15392667D02*
X17928334Y-15421238D01*
X17928334Y-15421238D02*
X17814048Y-15535524D01*
X17814048Y-15535524D02*
X17937857Y-15535524D01*
X18175953Y-15535524D02*
X18175953Y-15335524D01*
X18261667Y-15535524D02*
X18261667Y-15430762D01*
X18261667Y-15430762D02*
X18252143Y-15411714D01*
X18252143Y-15411714D02*
X18233096Y-15402190D01*
X18233096Y-15402190D02*
X18204524Y-15402190D01*
X18204524Y-15402190D02*
X18185477Y-15411714D01*
X18185477Y-15411714D02*
X18175953Y-15421238D01*
X18385477Y-15535524D02*
X18366429Y-15526000D01*
X18366429Y-15526000D02*
X18356905Y-15516476D01*
X18356905Y-15516476D02*
X18347381Y-15497428D01*
X18347381Y-15497428D02*
X18347381Y-15440286D01*
X18347381Y-15440286D02*
X18356905Y-15421238D01*
X18356905Y-15421238D02*
X18366429Y-15411714D01*
X18366429Y-15411714D02*
X18385477Y-15402190D01*
X18385477Y-15402190D02*
X18414048Y-15402190D01*
X18414048Y-15402190D02*
X18433096Y-15411714D01*
X18433096Y-15411714D02*
X18442619Y-15421238D01*
X18442619Y-15421238D02*
X18452143Y-15440286D01*
X18452143Y-15440286D02*
X18452143Y-15497428D01*
X18452143Y-15497428D02*
X18442619Y-15516476D01*
X18442619Y-15516476D02*
X18433096Y-15526000D01*
X18433096Y-15526000D02*
X18414048Y-15535524D01*
X18414048Y-15535524D02*
X18385477Y-15535524D01*
X18566429Y-15535524D02*
X18547381Y-15526000D01*
X18547381Y-15526000D02*
X18537858Y-15506952D01*
X18537858Y-15506952D02*
X18537858Y-15335524D01*
X18718810Y-15526000D02*
X18699762Y-15535524D01*
X18699762Y-15535524D02*
X18661667Y-15535524D01*
X18661667Y-15535524D02*
X18642619Y-15526000D01*
X18642619Y-15526000D02*
X18633096Y-15506952D01*
X18633096Y-15506952D02*
X18633096Y-15430762D01*
X18633096Y-15430762D02*
X18642619Y-15411714D01*
X18642619Y-15411714D02*
X18661667Y-15402190D01*
X18661667Y-15402190D02*
X18699762Y-15402190D01*
X18699762Y-15402190D02*
X18718810Y-15411714D01*
X18718810Y-15411714D02*
X18728334Y-15430762D01*
X18728334Y-15430762D02*
X18728334Y-15449809D01*
X18728334Y-15449809D02*
X18633096Y-15468857D01*
X18804524Y-15526000D02*
X18823572Y-15535524D01*
X18823572Y-15535524D02*
X18861667Y-15535524D01*
X18861667Y-15535524D02*
X18880715Y-15526000D01*
X18880715Y-15526000D02*
X18890239Y-15506952D01*
X18890239Y-15506952D02*
X18890239Y-15497428D01*
X18890239Y-15497428D02*
X18880715Y-15478381D01*
X18880715Y-15478381D02*
X18861667Y-15468857D01*
X18861667Y-15468857D02*
X18833096Y-15468857D01*
X18833096Y-15468857D02*
X18814048Y-15459333D01*
X18814048Y-15459333D02*
X18804524Y-15440286D01*
X18804524Y-15440286D02*
X18804524Y-15430762D01*
X18804524Y-15430762D02*
X18814048Y-15411714D01*
X18814048Y-15411714D02*
X18833096Y-15402190D01*
X18833096Y-15402190D02*
X18861667Y-15402190D01*
X18861667Y-15402190D02*
X18880715Y-15411714D01*
X18956905Y-15611714D02*
X18966429Y-15602190D01*
X18966429Y-15602190D02*
X18985477Y-15573619D01*
X18985477Y-15573619D02*
X18995000Y-15554571D01*
X18995000Y-15554571D02*
X19004524Y-15526000D01*
X19004524Y-15526000D02*
X19014048Y-15478381D01*
X19014048Y-15478381D02*
X19014048Y-15440286D01*
X19014048Y-15440286D02*
X19004524Y-15392667D01*
X19004524Y-15392667D02*
X18995000Y-15364095D01*
X18995000Y-15364095D02*
X18985477Y-15345048D01*
X18985477Y-15345048D02*
X18966429Y-15316476D01*
X18966429Y-15316476D02*
X18956905Y-15306952D01*
X14095000Y-15863000D02*
X14195000Y-15763000D01*
X14095000Y-15663000D01*
X13995000Y-15763000D01*
X14095000Y-15863000D01*
X14528333Y-15722190D02*
X14528333Y-15855524D01*
X14480714Y-15646000D02*
X14433095Y-15788857D01*
X14433095Y-15788857D02*
X14556905Y-15788857D01*
X14633095Y-15836476D02*
X14642619Y-15846000D01*
X14642619Y-15846000D02*
X14633095Y-15855524D01*
X14633095Y-15855524D02*
X14623571Y-15846000D01*
X14623571Y-15846000D02*
X14633095Y-15836476D01*
X14633095Y-15836476D02*
X14633095Y-15855524D01*
X14823571Y-15655524D02*
X14728333Y-15655524D01*
X14728333Y-15655524D02*
X14718809Y-15750762D01*
X14718809Y-15750762D02*
X14728333Y-15741238D01*
X14728333Y-15741238D02*
X14747381Y-15731714D01*
X14747381Y-15731714D02*
X14795000Y-15731714D01*
X14795000Y-15731714D02*
X14814048Y-15741238D01*
X14814048Y-15741238D02*
X14823571Y-15750762D01*
X14823571Y-15750762D02*
X14833095Y-15769809D01*
X14833095Y-15769809D02*
X14833095Y-15817428D01*
X14833095Y-15817428D02*
X14823571Y-15836476D01*
X14823571Y-15836476D02*
X14814048Y-15846000D01*
X14814048Y-15846000D02*
X14795000Y-15855524D01*
X14795000Y-15855524D02*
X14747381Y-15855524D01*
X14747381Y-15855524D02*
X14728333Y-15846000D01*
X14728333Y-15846000D02*
X14718809Y-15836476D01*
X14956905Y-15655524D02*
X14975952Y-15655524D01*
X14975952Y-15655524D02*
X14995000Y-15665048D01*
X14995000Y-15665048D02*
X15004524Y-15674571D01*
X15004524Y-15674571D02*
X15014048Y-15693619D01*
X15014048Y-15693619D02*
X15023571Y-15731714D01*
X15023571Y-15731714D02*
X15023571Y-15779333D01*
X15023571Y-15779333D02*
X15014048Y-15817428D01*
X15014048Y-15817428D02*
X15004524Y-15836476D01*
X15004524Y-15836476D02*
X14995000Y-15846000D01*
X14995000Y-15846000D02*
X14975952Y-15855524D01*
X14975952Y-15855524D02*
X14956905Y-15855524D01*
X14956905Y-15855524D02*
X14937857Y-15846000D01*
X14937857Y-15846000D02*
X14928333Y-15836476D01*
X14928333Y-15836476D02*
X14918809Y-15817428D01*
X14918809Y-15817428D02*
X14909286Y-15779333D01*
X14909286Y-15779333D02*
X14909286Y-15731714D01*
X14909286Y-15731714D02*
X14918809Y-15693619D01*
X14918809Y-15693619D02*
X14928333Y-15674571D01*
X14928333Y-15674571D02*
X14937857Y-15665048D01*
X14937857Y-15665048D02*
X14956905Y-15655524D01*
X15147381Y-15655524D02*
X15166429Y-15655524D01*
X15166429Y-15655524D02*
X15185476Y-15665048D01*
X15185476Y-15665048D02*
X15195000Y-15674571D01*
X15195000Y-15674571D02*
X15204524Y-15693619D01*
X15204524Y-15693619D02*
X15214048Y-15731714D01*
X15214048Y-15731714D02*
X15214048Y-15779333D01*
X15214048Y-15779333D02*
X15204524Y-15817428D01*
X15204524Y-15817428D02*
X15195000Y-15836476D01*
X15195000Y-15836476D02*
X15185476Y-15846000D01*
X15185476Y-15846000D02*
X15166429Y-15855524D01*
X15166429Y-15855524D02*
X15147381Y-15855524D01*
X15147381Y-15855524D02*
X15128333Y-15846000D01*
X15128333Y-15846000D02*
X15118809Y-15836476D01*
X15118809Y-15836476D02*
X15109286Y-15817428D01*
X15109286Y-15817428D02*
X15099762Y-15779333D01*
X15099762Y-15779333D02*
X15099762Y-15731714D01*
X15099762Y-15731714D02*
X15109286Y-15693619D01*
X15109286Y-15693619D02*
X15118809Y-15674571D01*
X15118809Y-15674571D02*
X15128333Y-15665048D01*
X15128333Y-15665048D02*
X15147381Y-15655524D01*
X15299762Y-15855524D02*
X15299762Y-15722190D01*
X15299762Y-15741238D02*
X15309286Y-15731714D01*
X15309286Y-15731714D02*
X15328333Y-15722190D01*
X15328333Y-15722190D02*
X15356905Y-15722190D01*
X15356905Y-15722190D02*
X15375952Y-15731714D01*
X15375952Y-15731714D02*
X15385476Y-15750762D01*
X15385476Y-15750762D02*
X15385476Y-15855524D01*
X15385476Y-15750762D02*
X15395000Y-15731714D01*
X15395000Y-15731714D02*
X15414048Y-15722190D01*
X15414048Y-15722190D02*
X15442619Y-15722190D01*
X15442619Y-15722190D02*
X15461667Y-15731714D01*
X15461667Y-15731714D02*
X15471190Y-15750762D01*
X15471190Y-15750762D02*
X15471190Y-15855524D01*
X15566429Y-15855524D02*
X15566429Y-15722190D01*
X15566429Y-15741238D02*
X15575952Y-15731714D01*
X15575952Y-15731714D02*
X15595000Y-15722190D01*
X15595000Y-15722190D02*
X15623571Y-15722190D01*
X15623571Y-15722190D02*
X15642619Y-15731714D01*
X15642619Y-15731714D02*
X15652143Y-15750762D01*
X15652143Y-15750762D02*
X15652143Y-15855524D01*
X15652143Y-15750762D02*
X15661667Y-15731714D01*
X15661667Y-15731714D02*
X15680714Y-15722190D01*
X15680714Y-15722190D02*
X15709286Y-15722190D01*
X15709286Y-15722190D02*
X15728333Y-15731714D01*
X15728333Y-15731714D02*
X15737857Y-15750762D01*
X15737857Y-15750762D02*
X15737857Y-15855524D01*
X16128333Y-15646000D02*
X15956905Y-15903143D01*
X16385476Y-15655524D02*
X16404524Y-15655524D01*
X16404524Y-15655524D02*
X16423572Y-15665048D01*
X16423572Y-15665048D02*
X16433095Y-15674571D01*
X16433095Y-15674571D02*
X16442619Y-15693619D01*
X16442619Y-15693619D02*
X16452143Y-15731714D01*
X16452143Y-15731714D02*
X16452143Y-15779333D01*
X16452143Y-15779333D02*
X16442619Y-15817428D01*
X16442619Y-15817428D02*
X16433095Y-15836476D01*
X16433095Y-15836476D02*
X16423572Y-15846000D01*
X16423572Y-15846000D02*
X16404524Y-15855524D01*
X16404524Y-15855524D02*
X16385476Y-15855524D01*
X16385476Y-15855524D02*
X16366429Y-15846000D01*
X16366429Y-15846000D02*
X16356905Y-15836476D01*
X16356905Y-15836476D02*
X16347381Y-15817428D01*
X16347381Y-15817428D02*
X16337857Y-15779333D01*
X16337857Y-15779333D02*
X16337857Y-15731714D01*
X16337857Y-15731714D02*
X16347381Y-15693619D01*
X16347381Y-15693619D02*
X16356905Y-15674571D01*
X16356905Y-15674571D02*
X16366429Y-15665048D01*
X16366429Y-15665048D02*
X16385476Y-15655524D01*
X16537857Y-15836476D02*
X16547381Y-15846000D01*
X16547381Y-15846000D02*
X16537857Y-15855524D01*
X16537857Y-15855524D02*
X16528333Y-15846000D01*
X16528333Y-15846000D02*
X16537857Y-15836476D01*
X16537857Y-15836476D02*
X16537857Y-15855524D01*
X16737857Y-15855524D02*
X16623572Y-15855524D01*
X16680714Y-15855524D02*
X16680714Y-15655524D01*
X16680714Y-15655524D02*
X16661667Y-15684095D01*
X16661667Y-15684095D02*
X16642619Y-15703143D01*
X16642619Y-15703143D02*
X16623572Y-15712667D01*
X16804524Y-15655524D02*
X16937857Y-15655524D01*
X16937857Y-15655524D02*
X16852143Y-15855524D01*
X16995000Y-15655524D02*
X17128334Y-15655524D01*
X17128334Y-15655524D02*
X17042619Y-15855524D01*
X17195000Y-15674571D02*
X17204524Y-15665048D01*
X17204524Y-15665048D02*
X17223572Y-15655524D01*
X17223572Y-15655524D02*
X17271191Y-15655524D01*
X17271191Y-15655524D02*
X17290238Y-15665048D01*
X17290238Y-15665048D02*
X17299762Y-15674571D01*
X17299762Y-15674571D02*
X17309286Y-15693619D01*
X17309286Y-15693619D02*
X17309286Y-15712667D01*
X17309286Y-15712667D02*
X17299762Y-15741238D01*
X17299762Y-15741238D02*
X17185476Y-15855524D01*
X17185476Y-15855524D02*
X17309286Y-15855524D01*
X17385476Y-15655524D02*
X17385476Y-15693619D01*
X17461667Y-15655524D02*
X17461667Y-15693619D01*
X17756905Y-15931714D02*
X17747381Y-15922190D01*
X17747381Y-15922190D02*
X17728334Y-15893619D01*
X17728334Y-15893619D02*
X17718810Y-15874571D01*
X17718810Y-15874571D02*
X17709286Y-15846000D01*
X17709286Y-15846000D02*
X17699762Y-15798381D01*
X17699762Y-15798381D02*
X17699762Y-15760286D01*
X17699762Y-15760286D02*
X17709286Y-15712667D01*
X17709286Y-15712667D02*
X17718810Y-15684095D01*
X17718810Y-15684095D02*
X17728334Y-15665048D01*
X17728334Y-15665048D02*
X17747381Y-15636476D01*
X17747381Y-15636476D02*
X17756905Y-15626952D01*
X17937857Y-15855524D02*
X17823572Y-15855524D01*
X17880715Y-15855524D02*
X17880715Y-15655524D01*
X17880715Y-15655524D02*
X17861667Y-15684095D01*
X17861667Y-15684095D02*
X17842619Y-15703143D01*
X17842619Y-15703143D02*
X17823572Y-15712667D01*
X18014048Y-15674571D02*
X18023572Y-15665048D01*
X18023572Y-15665048D02*
X18042619Y-15655524D01*
X18042619Y-15655524D02*
X18090238Y-15655524D01*
X18090238Y-15655524D02*
X18109286Y-15665048D01*
X18109286Y-15665048D02*
X18118810Y-15674571D01*
X18118810Y-15674571D02*
X18128334Y-15693619D01*
X18128334Y-15693619D02*
X18128334Y-15712667D01*
X18128334Y-15712667D02*
X18118810Y-15741238D01*
X18118810Y-15741238D02*
X18004524Y-15855524D01*
X18004524Y-15855524D02*
X18128334Y-15855524D01*
X18366429Y-15855524D02*
X18366429Y-15655524D01*
X18452143Y-15855524D02*
X18452143Y-15750762D01*
X18452143Y-15750762D02*
X18442619Y-15731714D01*
X18442619Y-15731714D02*
X18423572Y-15722190D01*
X18423572Y-15722190D02*
X18395000Y-15722190D01*
X18395000Y-15722190D02*
X18375953Y-15731714D01*
X18375953Y-15731714D02*
X18366429Y-15741238D01*
X18575953Y-15855524D02*
X18556905Y-15846000D01*
X18556905Y-15846000D02*
X18547381Y-15836476D01*
X18547381Y-15836476D02*
X18537858Y-15817428D01*
X18537858Y-15817428D02*
X18537858Y-15760286D01*
X18537858Y-15760286D02*
X18547381Y-15741238D01*
X18547381Y-15741238D02*
X18556905Y-15731714D01*
X18556905Y-15731714D02*
X18575953Y-15722190D01*
X18575953Y-15722190D02*
X18604524Y-15722190D01*
X18604524Y-15722190D02*
X18623572Y-15731714D01*
X18623572Y-15731714D02*
X18633096Y-15741238D01*
X18633096Y-15741238D02*
X18642619Y-15760286D01*
X18642619Y-15760286D02*
X18642619Y-15817428D01*
X18642619Y-15817428D02*
X18633096Y-15836476D01*
X18633096Y-15836476D02*
X18623572Y-15846000D01*
X18623572Y-15846000D02*
X18604524Y-15855524D01*
X18604524Y-15855524D02*
X18575953Y-15855524D01*
X18756905Y-15855524D02*
X18737858Y-15846000D01*
X18737858Y-15846000D02*
X18728334Y-15826952D01*
X18728334Y-15826952D02*
X18728334Y-15655524D01*
X18909286Y-15846000D02*
X18890239Y-15855524D01*
X18890239Y-15855524D02*
X18852143Y-15855524D01*
X18852143Y-15855524D02*
X18833096Y-15846000D01*
X18833096Y-15846000D02*
X18823572Y-15826952D01*
X18823572Y-15826952D02*
X18823572Y-15750762D01*
X18823572Y-15750762D02*
X18833096Y-15731714D01*
X18833096Y-15731714D02*
X18852143Y-15722190D01*
X18852143Y-15722190D02*
X18890239Y-15722190D01*
X18890239Y-15722190D02*
X18909286Y-15731714D01*
X18909286Y-15731714D02*
X18918810Y-15750762D01*
X18918810Y-15750762D02*
X18918810Y-15769809D01*
X18918810Y-15769809D02*
X18823572Y-15788857D01*
X18995000Y-15846000D02*
X19014048Y-15855524D01*
X19014048Y-15855524D02*
X19052143Y-15855524D01*
X19052143Y-15855524D02*
X19071191Y-15846000D01*
X19071191Y-15846000D02*
X19080715Y-15826952D01*
X19080715Y-15826952D02*
X19080715Y-15817428D01*
X19080715Y-15817428D02*
X19071191Y-15798381D01*
X19071191Y-15798381D02*
X19052143Y-15788857D01*
X19052143Y-15788857D02*
X19023572Y-15788857D01*
X19023572Y-15788857D02*
X19004524Y-15779333D01*
X19004524Y-15779333D02*
X18995000Y-15760286D01*
X18995000Y-15760286D02*
X18995000Y-15750762D01*
X18995000Y-15750762D02*
X19004524Y-15731714D01*
X19004524Y-15731714D02*
X19023572Y-15722190D01*
X19023572Y-15722190D02*
X19052143Y-15722190D01*
X19052143Y-15722190D02*
X19071191Y-15731714D01*
X19147381Y-15931714D02*
X19156905Y-15922190D01*
X19156905Y-15922190D02*
X19175953Y-15893619D01*
X19175953Y-15893619D02*
X19185477Y-15874571D01*
X19185477Y-15874571D02*
X19195000Y-15846000D01*
X19195000Y-15846000D02*
X19204524Y-15798381D01*
X19204524Y-15798381D02*
X19204524Y-15760286D01*
X19204524Y-15760286D02*
X19195000Y-15712667D01*
X19195000Y-15712667D02*
X19185477Y-15684095D01*
X19185477Y-15684095D02*
X19175953Y-15665048D01*
X19175953Y-15665048D02*
X19156905Y-15636476D01*
X19156905Y-15636476D02*
X19147381Y-15626952D01*
M02*
