%TF.GenerationSoftware,KiCad,Pcbnew,7.0.1*%
%TF.CreationDate,2023-04-21T09:32:05-07:00*%
%TF.ProjectId,xt60_array,78743630-5f61-4727-9261-792e6b696361,rev?*%
%TF.SameCoordinates,Original*%
%TF.FileFunction,Drillmap*%
%TF.FilePolarity,Positive*%
%FSLAX45Y45*%
G04 Gerber Fmt 4.5, Leading zero omitted, Abs format (unit mm)*
G04 Created by KiCad (PCBNEW 7.0.1) date 2023-04-21 09:32:05*
%MOMM*%
%LPD*%
G01*
G04 APERTURE LIST*
%ADD10C,0.100000*%
%ADD11C,0.200000*%
%ADD12C,0.250000*%
G04 APERTURE END LIST*
D10*
X14200000Y-5300000D02*
X19500000Y-5300000D01*
X19500000Y-14000000D01*
X14200000Y-14000000D01*
X14200000Y-5300000D01*
D11*
D12*
X14575000Y-5475000D02*
X14825000Y-5725000D01*
X14825000Y-5475000D02*
X14575000Y-5725000D01*
X14575000Y-13475000D02*
X14825000Y-13725000D01*
X14825000Y-13475000D02*
X14575000Y-13725000D01*
X18975000Y-5475000D02*
X19225000Y-5725000D01*
X19225000Y-5475000D02*
X18975000Y-5725000D01*
X18975000Y-13475000D02*
X19225000Y-13725000D01*
X19225000Y-13475000D02*
X18975000Y-13725000D01*
D11*
X14442619Y-14317524D02*
X14442619Y-14117524D01*
X14442619Y-14117524D02*
X14490238Y-14117524D01*
X14490238Y-14117524D02*
X14518809Y-14127048D01*
X14518809Y-14127048D02*
X14537857Y-14146095D01*
X14537857Y-14146095D02*
X14547381Y-14165143D01*
X14547381Y-14165143D02*
X14556905Y-14203238D01*
X14556905Y-14203238D02*
X14556905Y-14231809D01*
X14556905Y-14231809D02*
X14547381Y-14269905D01*
X14547381Y-14269905D02*
X14537857Y-14288952D01*
X14537857Y-14288952D02*
X14518809Y-14308000D01*
X14518809Y-14308000D02*
X14490238Y-14317524D01*
X14490238Y-14317524D02*
X14442619Y-14317524D01*
X14642619Y-14317524D02*
X14642619Y-14184190D01*
X14642619Y-14222286D02*
X14652143Y-14203238D01*
X14652143Y-14203238D02*
X14661667Y-14193714D01*
X14661667Y-14193714D02*
X14680714Y-14184190D01*
X14680714Y-14184190D02*
X14699762Y-14184190D01*
X14766428Y-14317524D02*
X14766428Y-14184190D01*
X14766428Y-14117524D02*
X14756905Y-14127048D01*
X14756905Y-14127048D02*
X14766428Y-14136571D01*
X14766428Y-14136571D02*
X14775952Y-14127048D01*
X14775952Y-14127048D02*
X14766428Y-14117524D01*
X14766428Y-14117524D02*
X14766428Y-14136571D01*
X14890238Y-14317524D02*
X14871190Y-14308000D01*
X14871190Y-14308000D02*
X14861667Y-14288952D01*
X14861667Y-14288952D02*
X14861667Y-14117524D01*
X14995000Y-14317524D02*
X14975952Y-14308000D01*
X14975952Y-14308000D02*
X14966428Y-14288952D01*
X14966428Y-14288952D02*
X14966428Y-14117524D01*
X15223571Y-14317524D02*
X15223571Y-14117524D01*
X15223571Y-14117524D02*
X15290238Y-14260381D01*
X15290238Y-14260381D02*
X15356905Y-14117524D01*
X15356905Y-14117524D02*
X15356905Y-14317524D01*
X15537857Y-14317524D02*
X15537857Y-14212762D01*
X15537857Y-14212762D02*
X15528333Y-14193714D01*
X15528333Y-14193714D02*
X15509286Y-14184190D01*
X15509286Y-14184190D02*
X15471190Y-14184190D01*
X15471190Y-14184190D02*
X15452143Y-14193714D01*
X15537857Y-14308000D02*
X15518809Y-14317524D01*
X15518809Y-14317524D02*
X15471190Y-14317524D01*
X15471190Y-14317524D02*
X15452143Y-14308000D01*
X15452143Y-14308000D02*
X15442619Y-14288952D01*
X15442619Y-14288952D02*
X15442619Y-14269905D01*
X15442619Y-14269905D02*
X15452143Y-14250857D01*
X15452143Y-14250857D02*
X15471190Y-14241333D01*
X15471190Y-14241333D02*
X15518809Y-14241333D01*
X15518809Y-14241333D02*
X15537857Y-14231809D01*
X15633095Y-14184190D02*
X15633095Y-14384190D01*
X15633095Y-14193714D02*
X15652143Y-14184190D01*
X15652143Y-14184190D02*
X15690238Y-14184190D01*
X15690238Y-14184190D02*
X15709286Y-14193714D01*
X15709286Y-14193714D02*
X15718809Y-14203238D01*
X15718809Y-14203238D02*
X15728333Y-14222286D01*
X15728333Y-14222286D02*
X15728333Y-14279428D01*
X15728333Y-14279428D02*
X15718809Y-14298476D01*
X15718809Y-14298476D02*
X15709286Y-14308000D01*
X15709286Y-14308000D02*
X15690238Y-14317524D01*
X15690238Y-14317524D02*
X15652143Y-14317524D01*
X15652143Y-14317524D02*
X15633095Y-14308000D01*
X15814048Y-14298476D02*
X15823571Y-14308000D01*
X15823571Y-14308000D02*
X15814048Y-14317524D01*
X15814048Y-14317524D02*
X15804524Y-14308000D01*
X15804524Y-14308000D02*
X15814048Y-14298476D01*
X15814048Y-14298476D02*
X15814048Y-14317524D01*
X15814048Y-14193714D02*
X15823571Y-14203238D01*
X15823571Y-14203238D02*
X15814048Y-14212762D01*
X15814048Y-14212762D02*
X15804524Y-14203238D01*
X15804524Y-14203238D02*
X15814048Y-14193714D01*
X15814048Y-14193714D02*
X15814048Y-14212762D01*
X13995000Y-14545000D02*
X14195000Y-14745000D01*
X14195000Y-14545000D02*
X13995000Y-14745000D01*
X14433095Y-14556571D02*
X14442619Y-14547048D01*
X14442619Y-14547048D02*
X14461667Y-14537524D01*
X14461667Y-14537524D02*
X14509286Y-14537524D01*
X14509286Y-14537524D02*
X14528333Y-14547048D01*
X14528333Y-14547048D02*
X14537857Y-14556571D01*
X14537857Y-14556571D02*
X14547381Y-14575619D01*
X14547381Y-14575619D02*
X14547381Y-14594667D01*
X14547381Y-14594667D02*
X14537857Y-14623238D01*
X14537857Y-14623238D02*
X14423571Y-14737524D01*
X14423571Y-14737524D02*
X14547381Y-14737524D01*
X14633095Y-14718476D02*
X14642619Y-14728000D01*
X14642619Y-14728000D02*
X14633095Y-14737524D01*
X14633095Y-14737524D02*
X14623571Y-14728000D01*
X14623571Y-14728000D02*
X14633095Y-14718476D01*
X14633095Y-14718476D02*
X14633095Y-14737524D01*
X14823571Y-14537524D02*
X14728333Y-14537524D01*
X14728333Y-14537524D02*
X14718809Y-14632762D01*
X14718809Y-14632762D02*
X14728333Y-14623238D01*
X14728333Y-14623238D02*
X14747381Y-14613714D01*
X14747381Y-14613714D02*
X14795000Y-14613714D01*
X14795000Y-14613714D02*
X14814048Y-14623238D01*
X14814048Y-14623238D02*
X14823571Y-14632762D01*
X14823571Y-14632762D02*
X14833095Y-14651809D01*
X14833095Y-14651809D02*
X14833095Y-14699428D01*
X14833095Y-14699428D02*
X14823571Y-14718476D01*
X14823571Y-14718476D02*
X14814048Y-14728000D01*
X14814048Y-14728000D02*
X14795000Y-14737524D01*
X14795000Y-14737524D02*
X14747381Y-14737524D01*
X14747381Y-14737524D02*
X14728333Y-14728000D01*
X14728333Y-14728000D02*
X14718809Y-14718476D01*
X14956905Y-14537524D02*
X14975952Y-14537524D01*
X14975952Y-14537524D02*
X14995000Y-14547048D01*
X14995000Y-14547048D02*
X15004524Y-14556571D01*
X15004524Y-14556571D02*
X15014048Y-14575619D01*
X15014048Y-14575619D02*
X15023571Y-14613714D01*
X15023571Y-14613714D02*
X15023571Y-14661333D01*
X15023571Y-14661333D02*
X15014048Y-14699428D01*
X15014048Y-14699428D02*
X15004524Y-14718476D01*
X15004524Y-14718476D02*
X14995000Y-14728000D01*
X14995000Y-14728000D02*
X14975952Y-14737524D01*
X14975952Y-14737524D02*
X14956905Y-14737524D01*
X14956905Y-14737524D02*
X14937857Y-14728000D01*
X14937857Y-14728000D02*
X14928333Y-14718476D01*
X14928333Y-14718476D02*
X14918809Y-14699428D01*
X14918809Y-14699428D02*
X14909286Y-14661333D01*
X14909286Y-14661333D02*
X14909286Y-14613714D01*
X14909286Y-14613714D02*
X14918809Y-14575619D01*
X14918809Y-14575619D02*
X14928333Y-14556571D01*
X14928333Y-14556571D02*
X14937857Y-14547048D01*
X14937857Y-14547048D02*
X14956905Y-14537524D01*
X15147381Y-14537524D02*
X15166429Y-14537524D01*
X15166429Y-14537524D02*
X15185476Y-14547048D01*
X15185476Y-14547048D02*
X15195000Y-14556571D01*
X15195000Y-14556571D02*
X15204524Y-14575619D01*
X15204524Y-14575619D02*
X15214048Y-14613714D01*
X15214048Y-14613714D02*
X15214048Y-14661333D01*
X15214048Y-14661333D02*
X15204524Y-14699428D01*
X15204524Y-14699428D02*
X15195000Y-14718476D01*
X15195000Y-14718476D02*
X15185476Y-14728000D01*
X15185476Y-14728000D02*
X15166429Y-14737524D01*
X15166429Y-14737524D02*
X15147381Y-14737524D01*
X15147381Y-14737524D02*
X15128333Y-14728000D01*
X15128333Y-14728000D02*
X15118809Y-14718476D01*
X15118809Y-14718476D02*
X15109286Y-14699428D01*
X15109286Y-14699428D02*
X15099762Y-14661333D01*
X15099762Y-14661333D02*
X15099762Y-14613714D01*
X15099762Y-14613714D02*
X15109286Y-14575619D01*
X15109286Y-14575619D02*
X15118809Y-14556571D01*
X15118809Y-14556571D02*
X15128333Y-14547048D01*
X15128333Y-14547048D02*
X15147381Y-14537524D01*
X15299762Y-14737524D02*
X15299762Y-14604190D01*
X15299762Y-14623238D02*
X15309286Y-14613714D01*
X15309286Y-14613714D02*
X15328333Y-14604190D01*
X15328333Y-14604190D02*
X15356905Y-14604190D01*
X15356905Y-14604190D02*
X15375952Y-14613714D01*
X15375952Y-14613714D02*
X15385476Y-14632762D01*
X15385476Y-14632762D02*
X15385476Y-14737524D01*
X15385476Y-14632762D02*
X15395000Y-14613714D01*
X15395000Y-14613714D02*
X15414048Y-14604190D01*
X15414048Y-14604190D02*
X15442619Y-14604190D01*
X15442619Y-14604190D02*
X15461667Y-14613714D01*
X15461667Y-14613714D02*
X15471190Y-14632762D01*
X15471190Y-14632762D02*
X15471190Y-14737524D01*
X15566429Y-14737524D02*
X15566429Y-14604190D01*
X15566429Y-14623238D02*
X15575952Y-14613714D01*
X15575952Y-14613714D02*
X15595000Y-14604190D01*
X15595000Y-14604190D02*
X15623571Y-14604190D01*
X15623571Y-14604190D02*
X15642619Y-14613714D01*
X15642619Y-14613714D02*
X15652143Y-14632762D01*
X15652143Y-14632762D02*
X15652143Y-14737524D01*
X15652143Y-14632762D02*
X15661667Y-14613714D01*
X15661667Y-14613714D02*
X15680714Y-14604190D01*
X15680714Y-14604190D02*
X15709286Y-14604190D01*
X15709286Y-14604190D02*
X15728333Y-14613714D01*
X15728333Y-14613714D02*
X15737857Y-14632762D01*
X15737857Y-14632762D02*
X15737857Y-14737524D01*
X16128333Y-14528000D02*
X15956905Y-14785143D01*
X16385476Y-14537524D02*
X16404524Y-14537524D01*
X16404524Y-14537524D02*
X16423572Y-14547048D01*
X16423572Y-14547048D02*
X16433095Y-14556571D01*
X16433095Y-14556571D02*
X16442619Y-14575619D01*
X16442619Y-14575619D02*
X16452143Y-14613714D01*
X16452143Y-14613714D02*
X16452143Y-14661333D01*
X16452143Y-14661333D02*
X16442619Y-14699428D01*
X16442619Y-14699428D02*
X16433095Y-14718476D01*
X16433095Y-14718476D02*
X16423572Y-14728000D01*
X16423572Y-14728000D02*
X16404524Y-14737524D01*
X16404524Y-14737524D02*
X16385476Y-14737524D01*
X16385476Y-14737524D02*
X16366429Y-14728000D01*
X16366429Y-14728000D02*
X16356905Y-14718476D01*
X16356905Y-14718476D02*
X16347381Y-14699428D01*
X16347381Y-14699428D02*
X16337857Y-14661333D01*
X16337857Y-14661333D02*
X16337857Y-14613714D01*
X16337857Y-14613714D02*
X16347381Y-14575619D01*
X16347381Y-14575619D02*
X16356905Y-14556571D01*
X16356905Y-14556571D02*
X16366429Y-14547048D01*
X16366429Y-14547048D02*
X16385476Y-14537524D01*
X16537857Y-14718476D02*
X16547381Y-14728000D01*
X16547381Y-14728000D02*
X16537857Y-14737524D01*
X16537857Y-14737524D02*
X16528333Y-14728000D01*
X16528333Y-14728000D02*
X16537857Y-14718476D01*
X16537857Y-14718476D02*
X16537857Y-14737524D01*
X16671191Y-14537524D02*
X16690238Y-14537524D01*
X16690238Y-14537524D02*
X16709286Y-14547048D01*
X16709286Y-14547048D02*
X16718810Y-14556571D01*
X16718810Y-14556571D02*
X16728333Y-14575619D01*
X16728333Y-14575619D02*
X16737857Y-14613714D01*
X16737857Y-14613714D02*
X16737857Y-14661333D01*
X16737857Y-14661333D02*
X16728333Y-14699428D01*
X16728333Y-14699428D02*
X16718810Y-14718476D01*
X16718810Y-14718476D02*
X16709286Y-14728000D01*
X16709286Y-14728000D02*
X16690238Y-14737524D01*
X16690238Y-14737524D02*
X16671191Y-14737524D01*
X16671191Y-14737524D02*
X16652143Y-14728000D01*
X16652143Y-14728000D02*
X16642619Y-14718476D01*
X16642619Y-14718476D02*
X16633095Y-14699428D01*
X16633095Y-14699428D02*
X16623572Y-14661333D01*
X16623572Y-14661333D02*
X16623572Y-14613714D01*
X16623572Y-14613714D02*
X16633095Y-14575619D01*
X16633095Y-14575619D02*
X16642619Y-14556571D01*
X16642619Y-14556571D02*
X16652143Y-14547048D01*
X16652143Y-14547048D02*
X16671191Y-14537524D01*
X16833095Y-14737524D02*
X16871191Y-14737524D01*
X16871191Y-14737524D02*
X16890238Y-14728000D01*
X16890238Y-14728000D02*
X16899762Y-14718476D01*
X16899762Y-14718476D02*
X16918810Y-14689905D01*
X16918810Y-14689905D02*
X16928334Y-14651809D01*
X16928334Y-14651809D02*
X16928334Y-14575619D01*
X16928334Y-14575619D02*
X16918810Y-14556571D01*
X16918810Y-14556571D02*
X16909286Y-14547048D01*
X16909286Y-14547048D02*
X16890238Y-14537524D01*
X16890238Y-14537524D02*
X16852143Y-14537524D01*
X16852143Y-14537524D02*
X16833095Y-14547048D01*
X16833095Y-14547048D02*
X16823572Y-14556571D01*
X16823572Y-14556571D02*
X16814048Y-14575619D01*
X16814048Y-14575619D02*
X16814048Y-14623238D01*
X16814048Y-14623238D02*
X16823572Y-14642286D01*
X16823572Y-14642286D02*
X16833095Y-14651809D01*
X16833095Y-14651809D02*
X16852143Y-14661333D01*
X16852143Y-14661333D02*
X16890238Y-14661333D01*
X16890238Y-14661333D02*
X16909286Y-14651809D01*
X16909286Y-14651809D02*
X16918810Y-14642286D01*
X16918810Y-14642286D02*
X16928334Y-14623238D01*
X17042619Y-14623238D02*
X17023572Y-14613714D01*
X17023572Y-14613714D02*
X17014048Y-14604190D01*
X17014048Y-14604190D02*
X17004524Y-14585143D01*
X17004524Y-14585143D02*
X17004524Y-14575619D01*
X17004524Y-14575619D02*
X17014048Y-14556571D01*
X17014048Y-14556571D02*
X17023572Y-14547048D01*
X17023572Y-14547048D02*
X17042619Y-14537524D01*
X17042619Y-14537524D02*
X17080715Y-14537524D01*
X17080715Y-14537524D02*
X17099762Y-14547048D01*
X17099762Y-14547048D02*
X17109286Y-14556571D01*
X17109286Y-14556571D02*
X17118810Y-14575619D01*
X17118810Y-14575619D02*
X17118810Y-14585143D01*
X17118810Y-14585143D02*
X17109286Y-14604190D01*
X17109286Y-14604190D02*
X17099762Y-14613714D01*
X17099762Y-14613714D02*
X17080715Y-14623238D01*
X17080715Y-14623238D02*
X17042619Y-14623238D01*
X17042619Y-14623238D02*
X17023572Y-14632762D01*
X17023572Y-14632762D02*
X17014048Y-14642286D01*
X17014048Y-14642286D02*
X17004524Y-14661333D01*
X17004524Y-14661333D02*
X17004524Y-14699428D01*
X17004524Y-14699428D02*
X17014048Y-14718476D01*
X17014048Y-14718476D02*
X17023572Y-14728000D01*
X17023572Y-14728000D02*
X17042619Y-14737524D01*
X17042619Y-14737524D02*
X17080715Y-14737524D01*
X17080715Y-14737524D02*
X17099762Y-14728000D01*
X17099762Y-14728000D02*
X17109286Y-14718476D01*
X17109286Y-14718476D02*
X17118810Y-14699428D01*
X17118810Y-14699428D02*
X17118810Y-14661333D01*
X17118810Y-14661333D02*
X17109286Y-14642286D01*
X17109286Y-14642286D02*
X17099762Y-14632762D01*
X17099762Y-14632762D02*
X17080715Y-14623238D01*
X17290238Y-14604190D02*
X17290238Y-14737524D01*
X17242619Y-14528000D02*
X17195000Y-14670857D01*
X17195000Y-14670857D02*
X17318810Y-14670857D01*
X17385476Y-14537524D02*
X17385476Y-14575619D01*
X17461667Y-14537524D02*
X17461667Y-14575619D01*
X17756905Y-14813714D02*
X17747381Y-14804190D01*
X17747381Y-14804190D02*
X17728334Y-14775619D01*
X17728334Y-14775619D02*
X17718810Y-14756571D01*
X17718810Y-14756571D02*
X17709286Y-14728000D01*
X17709286Y-14728000D02*
X17699762Y-14680381D01*
X17699762Y-14680381D02*
X17699762Y-14642286D01*
X17699762Y-14642286D02*
X17709286Y-14594667D01*
X17709286Y-14594667D02*
X17718810Y-14566095D01*
X17718810Y-14566095D02*
X17728334Y-14547048D01*
X17728334Y-14547048D02*
X17747381Y-14518476D01*
X17747381Y-14518476D02*
X17756905Y-14508952D01*
X17918810Y-14604190D02*
X17918810Y-14737524D01*
X17871191Y-14528000D02*
X17823572Y-14670857D01*
X17823572Y-14670857D02*
X17947381Y-14670857D01*
X18175953Y-14737524D02*
X18175953Y-14537524D01*
X18261667Y-14737524D02*
X18261667Y-14632762D01*
X18261667Y-14632762D02*
X18252143Y-14613714D01*
X18252143Y-14613714D02*
X18233096Y-14604190D01*
X18233096Y-14604190D02*
X18204524Y-14604190D01*
X18204524Y-14604190D02*
X18185477Y-14613714D01*
X18185477Y-14613714D02*
X18175953Y-14623238D01*
X18385477Y-14737524D02*
X18366429Y-14728000D01*
X18366429Y-14728000D02*
X18356905Y-14718476D01*
X18356905Y-14718476D02*
X18347381Y-14699428D01*
X18347381Y-14699428D02*
X18347381Y-14642286D01*
X18347381Y-14642286D02*
X18356905Y-14623238D01*
X18356905Y-14623238D02*
X18366429Y-14613714D01*
X18366429Y-14613714D02*
X18385477Y-14604190D01*
X18385477Y-14604190D02*
X18414048Y-14604190D01*
X18414048Y-14604190D02*
X18433096Y-14613714D01*
X18433096Y-14613714D02*
X18442619Y-14623238D01*
X18442619Y-14623238D02*
X18452143Y-14642286D01*
X18452143Y-14642286D02*
X18452143Y-14699428D01*
X18452143Y-14699428D02*
X18442619Y-14718476D01*
X18442619Y-14718476D02*
X18433096Y-14728000D01*
X18433096Y-14728000D02*
X18414048Y-14737524D01*
X18414048Y-14737524D02*
X18385477Y-14737524D01*
X18566429Y-14737524D02*
X18547381Y-14728000D01*
X18547381Y-14728000D02*
X18537858Y-14708952D01*
X18537858Y-14708952D02*
X18537858Y-14537524D01*
X18718810Y-14728000D02*
X18699762Y-14737524D01*
X18699762Y-14737524D02*
X18661667Y-14737524D01*
X18661667Y-14737524D02*
X18642619Y-14728000D01*
X18642619Y-14728000D02*
X18633096Y-14708952D01*
X18633096Y-14708952D02*
X18633096Y-14632762D01*
X18633096Y-14632762D02*
X18642619Y-14613714D01*
X18642619Y-14613714D02*
X18661667Y-14604190D01*
X18661667Y-14604190D02*
X18699762Y-14604190D01*
X18699762Y-14604190D02*
X18718810Y-14613714D01*
X18718810Y-14613714D02*
X18728334Y-14632762D01*
X18728334Y-14632762D02*
X18728334Y-14651809D01*
X18728334Y-14651809D02*
X18633096Y-14670857D01*
X18804524Y-14728000D02*
X18823572Y-14737524D01*
X18823572Y-14737524D02*
X18861667Y-14737524D01*
X18861667Y-14737524D02*
X18880715Y-14728000D01*
X18880715Y-14728000D02*
X18890239Y-14708952D01*
X18890239Y-14708952D02*
X18890239Y-14699428D01*
X18890239Y-14699428D02*
X18880715Y-14680381D01*
X18880715Y-14680381D02*
X18861667Y-14670857D01*
X18861667Y-14670857D02*
X18833096Y-14670857D01*
X18833096Y-14670857D02*
X18814048Y-14661333D01*
X18814048Y-14661333D02*
X18804524Y-14642286D01*
X18804524Y-14642286D02*
X18804524Y-14632762D01*
X18804524Y-14632762D02*
X18814048Y-14613714D01*
X18814048Y-14613714D02*
X18833096Y-14604190D01*
X18833096Y-14604190D02*
X18861667Y-14604190D01*
X18861667Y-14604190D02*
X18880715Y-14613714D01*
X18956905Y-14813714D02*
X18966429Y-14804190D01*
X18966429Y-14804190D02*
X18985477Y-14775619D01*
X18985477Y-14775619D02*
X18995000Y-14756571D01*
X18995000Y-14756571D02*
X19004524Y-14728000D01*
X19004524Y-14728000D02*
X19014048Y-14680381D01*
X19014048Y-14680381D02*
X19014048Y-14642286D01*
X19014048Y-14642286D02*
X19004524Y-14594667D01*
X19004524Y-14594667D02*
X18995000Y-14566095D01*
X18995000Y-14566095D02*
X18985477Y-14547048D01*
X18985477Y-14547048D02*
X18966429Y-14518476D01*
X18966429Y-14518476D02*
X18956905Y-14508952D01*
X19318810Y-14813714D02*
X19309286Y-14804190D01*
X19309286Y-14804190D02*
X19290239Y-14775619D01*
X19290239Y-14775619D02*
X19280715Y-14756571D01*
X19280715Y-14756571D02*
X19271191Y-14728000D01*
X19271191Y-14728000D02*
X19261667Y-14680381D01*
X19261667Y-14680381D02*
X19261667Y-14642286D01*
X19261667Y-14642286D02*
X19271191Y-14594667D01*
X19271191Y-14594667D02*
X19280715Y-14566095D01*
X19280715Y-14566095D02*
X19290239Y-14547048D01*
X19290239Y-14547048D02*
X19309286Y-14518476D01*
X19309286Y-14518476D02*
X19318810Y-14508952D01*
X19395000Y-14604190D02*
X19395000Y-14737524D01*
X19395000Y-14623238D02*
X19404524Y-14613714D01*
X19404524Y-14613714D02*
X19423572Y-14604190D01*
X19423572Y-14604190D02*
X19452143Y-14604190D01*
X19452143Y-14604190D02*
X19471191Y-14613714D01*
X19471191Y-14613714D02*
X19480715Y-14632762D01*
X19480715Y-14632762D02*
X19480715Y-14737524D01*
X19604524Y-14737524D02*
X19585477Y-14728000D01*
X19585477Y-14728000D02*
X19575953Y-14718476D01*
X19575953Y-14718476D02*
X19566429Y-14699428D01*
X19566429Y-14699428D02*
X19566429Y-14642286D01*
X19566429Y-14642286D02*
X19575953Y-14623238D01*
X19575953Y-14623238D02*
X19585477Y-14613714D01*
X19585477Y-14613714D02*
X19604524Y-14604190D01*
X19604524Y-14604190D02*
X19633096Y-14604190D01*
X19633096Y-14604190D02*
X19652143Y-14613714D01*
X19652143Y-14613714D02*
X19661667Y-14623238D01*
X19661667Y-14623238D02*
X19671191Y-14642286D01*
X19671191Y-14642286D02*
X19671191Y-14699428D01*
X19671191Y-14699428D02*
X19661667Y-14718476D01*
X19661667Y-14718476D02*
X19652143Y-14728000D01*
X19652143Y-14728000D02*
X19633096Y-14737524D01*
X19633096Y-14737524D02*
X19604524Y-14737524D01*
X19728334Y-14604190D02*
X19804524Y-14604190D01*
X19756905Y-14537524D02*
X19756905Y-14708952D01*
X19756905Y-14708952D02*
X19766429Y-14728000D01*
X19766429Y-14728000D02*
X19785477Y-14737524D01*
X19785477Y-14737524D02*
X19804524Y-14737524D01*
X20023572Y-14604190D02*
X20023572Y-14804190D01*
X20023572Y-14613714D02*
X20042620Y-14604190D01*
X20042620Y-14604190D02*
X20080715Y-14604190D01*
X20080715Y-14604190D02*
X20099762Y-14613714D01*
X20099762Y-14613714D02*
X20109286Y-14623238D01*
X20109286Y-14623238D02*
X20118810Y-14642286D01*
X20118810Y-14642286D02*
X20118810Y-14699428D01*
X20118810Y-14699428D02*
X20109286Y-14718476D01*
X20109286Y-14718476D02*
X20099762Y-14728000D01*
X20099762Y-14728000D02*
X20080715Y-14737524D01*
X20080715Y-14737524D02*
X20042620Y-14737524D01*
X20042620Y-14737524D02*
X20023572Y-14728000D01*
X20233096Y-14737524D02*
X20214048Y-14728000D01*
X20214048Y-14728000D02*
X20204524Y-14708952D01*
X20204524Y-14708952D02*
X20204524Y-14537524D01*
X20395001Y-14737524D02*
X20395001Y-14632762D01*
X20395001Y-14632762D02*
X20385477Y-14613714D01*
X20385477Y-14613714D02*
X20366429Y-14604190D01*
X20366429Y-14604190D02*
X20328334Y-14604190D01*
X20328334Y-14604190D02*
X20309286Y-14613714D01*
X20395001Y-14728000D02*
X20375953Y-14737524D01*
X20375953Y-14737524D02*
X20328334Y-14737524D01*
X20328334Y-14737524D02*
X20309286Y-14728000D01*
X20309286Y-14728000D02*
X20299762Y-14708952D01*
X20299762Y-14708952D02*
X20299762Y-14689905D01*
X20299762Y-14689905D02*
X20309286Y-14670857D01*
X20309286Y-14670857D02*
X20328334Y-14661333D01*
X20328334Y-14661333D02*
X20375953Y-14661333D01*
X20375953Y-14661333D02*
X20395001Y-14651809D01*
X20461667Y-14604190D02*
X20537858Y-14604190D01*
X20490239Y-14537524D02*
X20490239Y-14708952D01*
X20490239Y-14708952D02*
X20499762Y-14728000D01*
X20499762Y-14728000D02*
X20518810Y-14737524D01*
X20518810Y-14737524D02*
X20537858Y-14737524D01*
X20680715Y-14728000D02*
X20661667Y-14737524D01*
X20661667Y-14737524D02*
X20623572Y-14737524D01*
X20623572Y-14737524D02*
X20604524Y-14728000D01*
X20604524Y-14728000D02*
X20595001Y-14708952D01*
X20595001Y-14708952D02*
X20595001Y-14632762D01*
X20595001Y-14632762D02*
X20604524Y-14613714D01*
X20604524Y-14613714D02*
X20623572Y-14604190D01*
X20623572Y-14604190D02*
X20661667Y-14604190D01*
X20661667Y-14604190D02*
X20680715Y-14613714D01*
X20680715Y-14613714D02*
X20690239Y-14632762D01*
X20690239Y-14632762D02*
X20690239Y-14651809D01*
X20690239Y-14651809D02*
X20595001Y-14670857D01*
X20861667Y-14737524D02*
X20861667Y-14537524D01*
X20861667Y-14728000D02*
X20842620Y-14737524D01*
X20842620Y-14737524D02*
X20804524Y-14737524D01*
X20804524Y-14737524D02*
X20785477Y-14728000D01*
X20785477Y-14728000D02*
X20775953Y-14718476D01*
X20775953Y-14718476D02*
X20766429Y-14699428D01*
X20766429Y-14699428D02*
X20766429Y-14642286D01*
X20766429Y-14642286D02*
X20775953Y-14623238D01*
X20775953Y-14623238D02*
X20785477Y-14613714D01*
X20785477Y-14613714D02*
X20804524Y-14604190D01*
X20804524Y-14604190D02*
X20842620Y-14604190D01*
X20842620Y-14604190D02*
X20861667Y-14613714D01*
X20937858Y-14813714D02*
X20947382Y-14804190D01*
X20947382Y-14804190D02*
X20966429Y-14775619D01*
X20966429Y-14775619D02*
X20975953Y-14756571D01*
X20975953Y-14756571D02*
X20985477Y-14728000D01*
X20985477Y-14728000D02*
X20995001Y-14680381D01*
X20995001Y-14680381D02*
X20995001Y-14642286D01*
X20995001Y-14642286D02*
X20985477Y-14594667D01*
X20985477Y-14594667D02*
X20975953Y-14566095D01*
X20975953Y-14566095D02*
X20966429Y-14547048D01*
X20966429Y-14547048D02*
X20947382Y-14518476D01*
X20947382Y-14518476D02*
X20937858Y-14508952D01*
M02*
