%TF.GenerationSoftware,KiCad,Pcbnew,7.0.1*%
%TF.CreationDate,2023-04-21T09:20:27-07:00*%
%TF.ProjectId,lipo_drainer_schematic,6c69706f-5f64-4726-9169-6e65725f7363,rev?*%
%TF.SameCoordinates,Original*%
%TF.FileFunction,Drillmap*%
%TF.FilePolarity,Positive*%
%FSLAX45Y45*%
G04 Gerber Fmt 4.5, Leading zero omitted, Abs format (unit mm)*
G04 Created by KiCad (PCBNEW 7.0.1) date 2023-04-21 09:20:27*
%MOMM*%
%LPD*%
G01*
G04 APERTURE LIST*
%ADD10C,0.100000*%
%ADD11C,0.200000*%
%ADD12C,0.150000*%
%ADD13C,0.180000*%
%ADD14C,0.320000*%
G04 APERTURE END LIST*
D10*
X8800000Y-5000000D02*
X21000000Y-5000000D01*
X21000000Y-13800000D01*
X8800000Y-13800000D01*
X8800000Y-5000000D01*
D11*
D12*
X9281000Y-11368500D02*
X9431000Y-11518500D01*
X9431000Y-11368500D02*
X9281000Y-11518500D01*
X9281000Y-11853500D02*
X9431000Y-12003500D01*
X9431000Y-11853500D02*
X9281000Y-12003500D01*
D13*
X9143000Y-11413500D02*
G75*
G03*
X9143000Y-11413500I-90000J0D01*
G01*
X9143000Y-11958500D02*
G75*
G03*
X9143000Y-11958500I-90000J0D01*
G01*
D14*
X9200000Y-5240000D02*
X9200000Y-5560000D01*
X9040000Y-5400000D02*
X9360000Y-5400000D01*
X9200000Y-13240000D02*
X9200000Y-13560000D01*
X9040000Y-13400000D02*
X9360000Y-13400000D01*
X20600000Y-5240000D02*
X20600000Y-5560000D01*
X20440000Y-5400000D02*
X20760000Y-5400000D01*
X20600000Y-13240000D02*
X20600000Y-13560000D01*
X20440000Y-13400000D02*
X20760000Y-13400000D01*
D11*
X9042619Y-14117524D02*
X9042619Y-13917524D01*
X9042619Y-13917524D02*
X9090238Y-13917524D01*
X9090238Y-13917524D02*
X9118810Y-13927048D01*
X9118810Y-13927048D02*
X9137857Y-13946095D01*
X9137857Y-13946095D02*
X9147381Y-13965143D01*
X9147381Y-13965143D02*
X9156905Y-14003238D01*
X9156905Y-14003238D02*
X9156905Y-14031809D01*
X9156905Y-14031809D02*
X9147381Y-14069905D01*
X9147381Y-14069905D02*
X9137857Y-14088952D01*
X9137857Y-14088952D02*
X9118810Y-14108000D01*
X9118810Y-14108000D02*
X9090238Y-14117524D01*
X9090238Y-14117524D02*
X9042619Y-14117524D01*
X9242619Y-14117524D02*
X9242619Y-13984190D01*
X9242619Y-14022286D02*
X9252143Y-14003238D01*
X9252143Y-14003238D02*
X9261667Y-13993714D01*
X9261667Y-13993714D02*
X9280714Y-13984190D01*
X9280714Y-13984190D02*
X9299762Y-13984190D01*
X9366429Y-14117524D02*
X9366429Y-13984190D01*
X9366429Y-13917524D02*
X9356905Y-13927048D01*
X9356905Y-13927048D02*
X9366429Y-13936571D01*
X9366429Y-13936571D02*
X9375952Y-13927048D01*
X9375952Y-13927048D02*
X9366429Y-13917524D01*
X9366429Y-13917524D02*
X9366429Y-13936571D01*
X9490238Y-14117524D02*
X9471190Y-14108000D01*
X9471190Y-14108000D02*
X9461667Y-14088952D01*
X9461667Y-14088952D02*
X9461667Y-13917524D01*
X9595000Y-14117524D02*
X9575952Y-14108000D01*
X9575952Y-14108000D02*
X9566429Y-14088952D01*
X9566429Y-14088952D02*
X9566429Y-13917524D01*
X9823571Y-14117524D02*
X9823571Y-13917524D01*
X9823571Y-13917524D02*
X9890238Y-14060381D01*
X9890238Y-14060381D02*
X9956905Y-13917524D01*
X9956905Y-13917524D02*
X9956905Y-14117524D01*
X10137857Y-14117524D02*
X10137857Y-14012762D01*
X10137857Y-14012762D02*
X10128333Y-13993714D01*
X10128333Y-13993714D02*
X10109286Y-13984190D01*
X10109286Y-13984190D02*
X10071190Y-13984190D01*
X10071190Y-13984190D02*
X10052143Y-13993714D01*
X10137857Y-14108000D02*
X10118810Y-14117524D01*
X10118810Y-14117524D02*
X10071190Y-14117524D01*
X10071190Y-14117524D02*
X10052143Y-14108000D01*
X10052143Y-14108000D02*
X10042619Y-14088952D01*
X10042619Y-14088952D02*
X10042619Y-14069905D01*
X10042619Y-14069905D02*
X10052143Y-14050857D01*
X10052143Y-14050857D02*
X10071190Y-14041333D01*
X10071190Y-14041333D02*
X10118810Y-14041333D01*
X10118810Y-14041333D02*
X10137857Y-14031809D01*
X10233095Y-13984190D02*
X10233095Y-14184190D01*
X10233095Y-13993714D02*
X10252143Y-13984190D01*
X10252143Y-13984190D02*
X10290238Y-13984190D01*
X10290238Y-13984190D02*
X10309286Y-13993714D01*
X10309286Y-13993714D02*
X10318810Y-14003238D01*
X10318810Y-14003238D02*
X10328333Y-14022286D01*
X10328333Y-14022286D02*
X10328333Y-14079428D01*
X10328333Y-14079428D02*
X10318810Y-14098476D01*
X10318810Y-14098476D02*
X10309286Y-14108000D01*
X10309286Y-14108000D02*
X10290238Y-14117524D01*
X10290238Y-14117524D02*
X10252143Y-14117524D01*
X10252143Y-14117524D02*
X10233095Y-14108000D01*
X10414048Y-14098476D02*
X10423571Y-14108000D01*
X10423571Y-14108000D02*
X10414048Y-14117524D01*
X10414048Y-14117524D02*
X10404524Y-14108000D01*
X10404524Y-14108000D02*
X10414048Y-14098476D01*
X10414048Y-14098476D02*
X10414048Y-14117524D01*
X10414048Y-13993714D02*
X10423571Y-14003238D01*
X10423571Y-14003238D02*
X10414048Y-14012762D01*
X10414048Y-14012762D02*
X10404524Y-14003238D01*
X10404524Y-14003238D02*
X10414048Y-13993714D01*
X10414048Y-13993714D02*
X10414048Y-14012762D01*
D12*
X8645000Y-14370000D02*
X8795000Y-14520000D01*
X8795000Y-14370000D02*
X8645000Y-14520000D01*
D11*
X9147381Y-14537524D02*
X9033095Y-14537524D01*
X9090238Y-14537524D02*
X9090238Y-14337524D01*
X9090238Y-14337524D02*
X9071190Y-14366095D01*
X9071190Y-14366095D02*
X9052143Y-14385143D01*
X9052143Y-14385143D02*
X9033095Y-14394667D01*
X9233095Y-14518476D02*
X9242619Y-14528000D01*
X9242619Y-14528000D02*
X9233095Y-14537524D01*
X9233095Y-14537524D02*
X9223571Y-14528000D01*
X9223571Y-14528000D02*
X9233095Y-14518476D01*
X9233095Y-14518476D02*
X9233095Y-14537524D01*
X9423571Y-14337524D02*
X9328333Y-14337524D01*
X9328333Y-14337524D02*
X9318810Y-14432762D01*
X9318810Y-14432762D02*
X9328333Y-14423238D01*
X9328333Y-14423238D02*
X9347381Y-14413714D01*
X9347381Y-14413714D02*
X9395000Y-14413714D01*
X9395000Y-14413714D02*
X9414048Y-14423238D01*
X9414048Y-14423238D02*
X9423571Y-14432762D01*
X9423571Y-14432762D02*
X9433095Y-14451809D01*
X9433095Y-14451809D02*
X9433095Y-14499428D01*
X9433095Y-14499428D02*
X9423571Y-14518476D01*
X9423571Y-14518476D02*
X9414048Y-14528000D01*
X9414048Y-14528000D02*
X9395000Y-14537524D01*
X9395000Y-14537524D02*
X9347381Y-14537524D01*
X9347381Y-14537524D02*
X9328333Y-14528000D01*
X9328333Y-14528000D02*
X9318810Y-14518476D01*
X9556905Y-14337524D02*
X9575952Y-14337524D01*
X9575952Y-14337524D02*
X9595000Y-14347048D01*
X9595000Y-14347048D02*
X9604524Y-14356571D01*
X9604524Y-14356571D02*
X9614048Y-14375619D01*
X9614048Y-14375619D02*
X9623571Y-14413714D01*
X9623571Y-14413714D02*
X9623571Y-14461333D01*
X9623571Y-14461333D02*
X9614048Y-14499428D01*
X9614048Y-14499428D02*
X9604524Y-14518476D01*
X9604524Y-14518476D02*
X9595000Y-14528000D01*
X9595000Y-14528000D02*
X9575952Y-14537524D01*
X9575952Y-14537524D02*
X9556905Y-14537524D01*
X9556905Y-14537524D02*
X9537857Y-14528000D01*
X9537857Y-14528000D02*
X9528333Y-14518476D01*
X9528333Y-14518476D02*
X9518810Y-14499428D01*
X9518810Y-14499428D02*
X9509286Y-14461333D01*
X9509286Y-14461333D02*
X9509286Y-14413714D01*
X9509286Y-14413714D02*
X9518810Y-14375619D01*
X9518810Y-14375619D02*
X9528333Y-14356571D01*
X9528333Y-14356571D02*
X9537857Y-14347048D01*
X9537857Y-14347048D02*
X9556905Y-14337524D01*
X9747381Y-14337524D02*
X9766429Y-14337524D01*
X9766429Y-14337524D02*
X9785476Y-14347048D01*
X9785476Y-14347048D02*
X9795000Y-14356571D01*
X9795000Y-14356571D02*
X9804524Y-14375619D01*
X9804524Y-14375619D02*
X9814048Y-14413714D01*
X9814048Y-14413714D02*
X9814048Y-14461333D01*
X9814048Y-14461333D02*
X9804524Y-14499428D01*
X9804524Y-14499428D02*
X9795000Y-14518476D01*
X9795000Y-14518476D02*
X9785476Y-14528000D01*
X9785476Y-14528000D02*
X9766429Y-14537524D01*
X9766429Y-14537524D02*
X9747381Y-14537524D01*
X9747381Y-14537524D02*
X9728333Y-14528000D01*
X9728333Y-14528000D02*
X9718810Y-14518476D01*
X9718810Y-14518476D02*
X9709286Y-14499428D01*
X9709286Y-14499428D02*
X9699762Y-14461333D01*
X9699762Y-14461333D02*
X9699762Y-14413714D01*
X9699762Y-14413714D02*
X9709286Y-14375619D01*
X9709286Y-14375619D02*
X9718810Y-14356571D01*
X9718810Y-14356571D02*
X9728333Y-14347048D01*
X9728333Y-14347048D02*
X9747381Y-14337524D01*
X9899762Y-14537524D02*
X9899762Y-14404190D01*
X9899762Y-14423238D02*
X9909286Y-14413714D01*
X9909286Y-14413714D02*
X9928333Y-14404190D01*
X9928333Y-14404190D02*
X9956905Y-14404190D01*
X9956905Y-14404190D02*
X9975952Y-14413714D01*
X9975952Y-14413714D02*
X9985476Y-14432762D01*
X9985476Y-14432762D02*
X9985476Y-14537524D01*
X9985476Y-14432762D02*
X9995000Y-14413714D01*
X9995000Y-14413714D02*
X10014048Y-14404190D01*
X10014048Y-14404190D02*
X10042619Y-14404190D01*
X10042619Y-14404190D02*
X10061667Y-14413714D01*
X10061667Y-14413714D02*
X10071191Y-14432762D01*
X10071191Y-14432762D02*
X10071191Y-14537524D01*
X10166429Y-14537524D02*
X10166429Y-14404190D01*
X10166429Y-14423238D02*
X10175952Y-14413714D01*
X10175952Y-14413714D02*
X10195000Y-14404190D01*
X10195000Y-14404190D02*
X10223572Y-14404190D01*
X10223572Y-14404190D02*
X10242619Y-14413714D01*
X10242619Y-14413714D02*
X10252143Y-14432762D01*
X10252143Y-14432762D02*
X10252143Y-14537524D01*
X10252143Y-14432762D02*
X10261667Y-14413714D01*
X10261667Y-14413714D02*
X10280714Y-14404190D01*
X10280714Y-14404190D02*
X10309286Y-14404190D01*
X10309286Y-14404190D02*
X10328333Y-14413714D01*
X10328333Y-14413714D02*
X10337857Y-14432762D01*
X10337857Y-14432762D02*
X10337857Y-14537524D01*
X10728333Y-14328000D02*
X10556905Y-14585143D01*
X10985476Y-14337524D02*
X11004524Y-14337524D01*
X11004524Y-14337524D02*
X11023572Y-14347048D01*
X11023572Y-14347048D02*
X11033095Y-14356571D01*
X11033095Y-14356571D02*
X11042619Y-14375619D01*
X11042619Y-14375619D02*
X11052143Y-14413714D01*
X11052143Y-14413714D02*
X11052143Y-14461333D01*
X11052143Y-14461333D02*
X11042619Y-14499428D01*
X11042619Y-14499428D02*
X11033095Y-14518476D01*
X11033095Y-14518476D02*
X11023572Y-14528000D01*
X11023572Y-14528000D02*
X11004524Y-14537524D01*
X11004524Y-14537524D02*
X10985476Y-14537524D01*
X10985476Y-14537524D02*
X10966429Y-14528000D01*
X10966429Y-14528000D02*
X10956905Y-14518476D01*
X10956905Y-14518476D02*
X10947381Y-14499428D01*
X10947381Y-14499428D02*
X10937857Y-14461333D01*
X10937857Y-14461333D02*
X10937857Y-14413714D01*
X10937857Y-14413714D02*
X10947381Y-14375619D01*
X10947381Y-14375619D02*
X10956905Y-14356571D01*
X10956905Y-14356571D02*
X10966429Y-14347048D01*
X10966429Y-14347048D02*
X10985476Y-14337524D01*
X11137857Y-14518476D02*
X11147381Y-14528000D01*
X11147381Y-14528000D02*
X11137857Y-14537524D01*
X11137857Y-14537524D02*
X11128334Y-14528000D01*
X11128334Y-14528000D02*
X11137857Y-14518476D01*
X11137857Y-14518476D02*
X11137857Y-14537524D01*
X11271191Y-14337524D02*
X11290238Y-14337524D01*
X11290238Y-14337524D02*
X11309286Y-14347048D01*
X11309286Y-14347048D02*
X11318810Y-14356571D01*
X11318810Y-14356571D02*
X11328333Y-14375619D01*
X11328333Y-14375619D02*
X11337857Y-14413714D01*
X11337857Y-14413714D02*
X11337857Y-14461333D01*
X11337857Y-14461333D02*
X11328333Y-14499428D01*
X11328333Y-14499428D02*
X11318810Y-14518476D01*
X11318810Y-14518476D02*
X11309286Y-14528000D01*
X11309286Y-14528000D02*
X11290238Y-14537524D01*
X11290238Y-14537524D02*
X11271191Y-14537524D01*
X11271191Y-14537524D02*
X11252143Y-14528000D01*
X11252143Y-14528000D02*
X11242619Y-14518476D01*
X11242619Y-14518476D02*
X11233095Y-14499428D01*
X11233095Y-14499428D02*
X11223572Y-14461333D01*
X11223572Y-14461333D02*
X11223572Y-14413714D01*
X11223572Y-14413714D02*
X11233095Y-14375619D01*
X11233095Y-14375619D02*
X11242619Y-14356571D01*
X11242619Y-14356571D02*
X11252143Y-14347048D01*
X11252143Y-14347048D02*
X11271191Y-14337524D01*
X11518810Y-14337524D02*
X11423572Y-14337524D01*
X11423572Y-14337524D02*
X11414048Y-14432762D01*
X11414048Y-14432762D02*
X11423572Y-14423238D01*
X11423572Y-14423238D02*
X11442619Y-14413714D01*
X11442619Y-14413714D02*
X11490238Y-14413714D01*
X11490238Y-14413714D02*
X11509286Y-14423238D01*
X11509286Y-14423238D02*
X11518810Y-14432762D01*
X11518810Y-14432762D02*
X11528333Y-14451809D01*
X11528333Y-14451809D02*
X11528333Y-14499428D01*
X11528333Y-14499428D02*
X11518810Y-14518476D01*
X11518810Y-14518476D02*
X11509286Y-14528000D01*
X11509286Y-14528000D02*
X11490238Y-14537524D01*
X11490238Y-14537524D02*
X11442619Y-14537524D01*
X11442619Y-14537524D02*
X11423572Y-14528000D01*
X11423572Y-14528000D02*
X11414048Y-14518476D01*
X11623572Y-14537524D02*
X11661667Y-14537524D01*
X11661667Y-14537524D02*
X11680714Y-14528000D01*
X11680714Y-14528000D02*
X11690238Y-14518476D01*
X11690238Y-14518476D02*
X11709286Y-14489905D01*
X11709286Y-14489905D02*
X11718810Y-14451809D01*
X11718810Y-14451809D02*
X11718810Y-14375619D01*
X11718810Y-14375619D02*
X11709286Y-14356571D01*
X11709286Y-14356571D02*
X11699762Y-14347048D01*
X11699762Y-14347048D02*
X11680714Y-14337524D01*
X11680714Y-14337524D02*
X11642619Y-14337524D01*
X11642619Y-14337524D02*
X11623572Y-14347048D01*
X11623572Y-14347048D02*
X11614048Y-14356571D01*
X11614048Y-14356571D02*
X11604524Y-14375619D01*
X11604524Y-14375619D02*
X11604524Y-14423238D01*
X11604524Y-14423238D02*
X11614048Y-14442286D01*
X11614048Y-14442286D02*
X11623572Y-14451809D01*
X11623572Y-14451809D02*
X11642619Y-14461333D01*
X11642619Y-14461333D02*
X11680714Y-14461333D01*
X11680714Y-14461333D02*
X11699762Y-14451809D01*
X11699762Y-14451809D02*
X11709286Y-14442286D01*
X11709286Y-14442286D02*
X11718810Y-14423238D01*
X11909286Y-14537524D02*
X11795000Y-14537524D01*
X11852143Y-14537524D02*
X11852143Y-14337524D01*
X11852143Y-14337524D02*
X11833095Y-14366095D01*
X11833095Y-14366095D02*
X11814048Y-14385143D01*
X11814048Y-14385143D02*
X11795000Y-14394667D01*
X11985476Y-14337524D02*
X11985476Y-14375619D01*
X12061667Y-14337524D02*
X12061667Y-14375619D01*
X12356905Y-14613714D02*
X12347381Y-14604190D01*
X12347381Y-14604190D02*
X12328334Y-14575619D01*
X12328334Y-14575619D02*
X12318810Y-14556571D01*
X12318810Y-14556571D02*
X12309286Y-14528000D01*
X12309286Y-14528000D02*
X12299762Y-14480381D01*
X12299762Y-14480381D02*
X12299762Y-14442286D01*
X12299762Y-14442286D02*
X12309286Y-14394667D01*
X12309286Y-14394667D02*
X12318810Y-14366095D01*
X12318810Y-14366095D02*
X12328334Y-14347048D01*
X12328334Y-14347048D02*
X12347381Y-14318476D01*
X12347381Y-14318476D02*
X12356905Y-14308952D01*
X12423572Y-14356571D02*
X12433095Y-14347048D01*
X12433095Y-14347048D02*
X12452143Y-14337524D01*
X12452143Y-14337524D02*
X12499762Y-14337524D01*
X12499762Y-14337524D02*
X12518810Y-14347048D01*
X12518810Y-14347048D02*
X12528334Y-14356571D01*
X12528334Y-14356571D02*
X12537857Y-14375619D01*
X12537857Y-14375619D02*
X12537857Y-14394667D01*
X12537857Y-14394667D02*
X12528334Y-14423238D01*
X12528334Y-14423238D02*
X12414048Y-14537524D01*
X12414048Y-14537524D02*
X12537857Y-14537524D01*
X12775953Y-14537524D02*
X12775953Y-14337524D01*
X12861667Y-14537524D02*
X12861667Y-14432762D01*
X12861667Y-14432762D02*
X12852143Y-14413714D01*
X12852143Y-14413714D02*
X12833096Y-14404190D01*
X12833096Y-14404190D02*
X12804524Y-14404190D01*
X12804524Y-14404190D02*
X12785476Y-14413714D01*
X12785476Y-14413714D02*
X12775953Y-14423238D01*
X12985476Y-14537524D02*
X12966429Y-14528000D01*
X12966429Y-14528000D02*
X12956905Y-14518476D01*
X12956905Y-14518476D02*
X12947381Y-14499428D01*
X12947381Y-14499428D02*
X12947381Y-14442286D01*
X12947381Y-14442286D02*
X12956905Y-14423238D01*
X12956905Y-14423238D02*
X12966429Y-14413714D01*
X12966429Y-14413714D02*
X12985476Y-14404190D01*
X12985476Y-14404190D02*
X13014048Y-14404190D01*
X13014048Y-14404190D02*
X13033096Y-14413714D01*
X13033096Y-14413714D02*
X13042619Y-14423238D01*
X13042619Y-14423238D02*
X13052143Y-14442286D01*
X13052143Y-14442286D02*
X13052143Y-14499428D01*
X13052143Y-14499428D02*
X13042619Y-14518476D01*
X13042619Y-14518476D02*
X13033096Y-14528000D01*
X13033096Y-14528000D02*
X13014048Y-14537524D01*
X13014048Y-14537524D02*
X12985476Y-14537524D01*
X13166429Y-14537524D02*
X13147381Y-14528000D01*
X13147381Y-14528000D02*
X13137857Y-14508952D01*
X13137857Y-14508952D02*
X13137857Y-14337524D01*
X13318810Y-14528000D02*
X13299762Y-14537524D01*
X13299762Y-14537524D02*
X13261667Y-14537524D01*
X13261667Y-14537524D02*
X13242619Y-14528000D01*
X13242619Y-14528000D02*
X13233096Y-14508952D01*
X13233096Y-14508952D02*
X13233096Y-14432762D01*
X13233096Y-14432762D02*
X13242619Y-14413714D01*
X13242619Y-14413714D02*
X13261667Y-14404190D01*
X13261667Y-14404190D02*
X13299762Y-14404190D01*
X13299762Y-14404190D02*
X13318810Y-14413714D01*
X13318810Y-14413714D02*
X13328334Y-14432762D01*
X13328334Y-14432762D02*
X13328334Y-14451809D01*
X13328334Y-14451809D02*
X13233096Y-14470857D01*
X13404524Y-14528000D02*
X13423572Y-14537524D01*
X13423572Y-14537524D02*
X13461667Y-14537524D01*
X13461667Y-14537524D02*
X13480715Y-14528000D01*
X13480715Y-14528000D02*
X13490238Y-14508952D01*
X13490238Y-14508952D02*
X13490238Y-14499428D01*
X13490238Y-14499428D02*
X13480715Y-14480381D01*
X13480715Y-14480381D02*
X13461667Y-14470857D01*
X13461667Y-14470857D02*
X13433096Y-14470857D01*
X13433096Y-14470857D02*
X13414048Y-14461333D01*
X13414048Y-14461333D02*
X13404524Y-14442286D01*
X13404524Y-14442286D02*
X13404524Y-14432762D01*
X13404524Y-14432762D02*
X13414048Y-14413714D01*
X13414048Y-14413714D02*
X13433096Y-14404190D01*
X13433096Y-14404190D02*
X13461667Y-14404190D01*
X13461667Y-14404190D02*
X13480715Y-14413714D01*
X13556905Y-14613714D02*
X13566429Y-14604190D01*
X13566429Y-14604190D02*
X13585477Y-14575619D01*
X13585477Y-14575619D02*
X13595000Y-14556571D01*
X13595000Y-14556571D02*
X13604524Y-14528000D01*
X13604524Y-14528000D02*
X13614048Y-14480381D01*
X13614048Y-14480381D02*
X13614048Y-14442286D01*
X13614048Y-14442286D02*
X13604524Y-14394667D01*
X13604524Y-14394667D02*
X13595000Y-14366095D01*
X13595000Y-14366095D02*
X13585477Y-14347048D01*
X13585477Y-14347048D02*
X13566429Y-14318476D01*
X13566429Y-14318476D02*
X13556905Y-14308952D01*
X13918810Y-14613714D02*
X13909286Y-14604190D01*
X13909286Y-14604190D02*
X13890238Y-14575619D01*
X13890238Y-14575619D02*
X13880715Y-14556571D01*
X13880715Y-14556571D02*
X13871191Y-14528000D01*
X13871191Y-14528000D02*
X13861667Y-14480381D01*
X13861667Y-14480381D02*
X13861667Y-14442286D01*
X13861667Y-14442286D02*
X13871191Y-14394667D01*
X13871191Y-14394667D02*
X13880715Y-14366095D01*
X13880715Y-14366095D02*
X13890238Y-14347048D01*
X13890238Y-14347048D02*
X13909286Y-14318476D01*
X13909286Y-14318476D02*
X13918810Y-14308952D01*
X13995000Y-14404190D02*
X13995000Y-14537524D01*
X13995000Y-14423238D02*
X14004524Y-14413714D01*
X14004524Y-14413714D02*
X14023572Y-14404190D01*
X14023572Y-14404190D02*
X14052143Y-14404190D01*
X14052143Y-14404190D02*
X14071191Y-14413714D01*
X14071191Y-14413714D02*
X14080715Y-14432762D01*
X14080715Y-14432762D02*
X14080715Y-14537524D01*
X14204524Y-14537524D02*
X14185477Y-14528000D01*
X14185477Y-14528000D02*
X14175953Y-14518476D01*
X14175953Y-14518476D02*
X14166429Y-14499428D01*
X14166429Y-14499428D02*
X14166429Y-14442286D01*
X14166429Y-14442286D02*
X14175953Y-14423238D01*
X14175953Y-14423238D02*
X14185477Y-14413714D01*
X14185477Y-14413714D02*
X14204524Y-14404190D01*
X14204524Y-14404190D02*
X14233096Y-14404190D01*
X14233096Y-14404190D02*
X14252143Y-14413714D01*
X14252143Y-14413714D02*
X14261667Y-14423238D01*
X14261667Y-14423238D02*
X14271191Y-14442286D01*
X14271191Y-14442286D02*
X14271191Y-14499428D01*
X14271191Y-14499428D02*
X14261667Y-14518476D01*
X14261667Y-14518476D02*
X14252143Y-14528000D01*
X14252143Y-14528000D02*
X14233096Y-14537524D01*
X14233096Y-14537524D02*
X14204524Y-14537524D01*
X14328334Y-14404190D02*
X14404524Y-14404190D01*
X14356905Y-14337524D02*
X14356905Y-14508952D01*
X14356905Y-14508952D02*
X14366429Y-14528000D01*
X14366429Y-14528000D02*
X14385477Y-14537524D01*
X14385477Y-14537524D02*
X14404524Y-14537524D01*
X14623572Y-14404190D02*
X14623572Y-14604190D01*
X14623572Y-14413714D02*
X14642619Y-14404190D01*
X14642619Y-14404190D02*
X14680715Y-14404190D01*
X14680715Y-14404190D02*
X14699762Y-14413714D01*
X14699762Y-14413714D02*
X14709286Y-14423238D01*
X14709286Y-14423238D02*
X14718810Y-14442286D01*
X14718810Y-14442286D02*
X14718810Y-14499428D01*
X14718810Y-14499428D02*
X14709286Y-14518476D01*
X14709286Y-14518476D02*
X14699762Y-14528000D01*
X14699762Y-14528000D02*
X14680715Y-14537524D01*
X14680715Y-14537524D02*
X14642619Y-14537524D01*
X14642619Y-14537524D02*
X14623572Y-14528000D01*
X14833096Y-14537524D02*
X14814048Y-14528000D01*
X14814048Y-14528000D02*
X14804524Y-14508952D01*
X14804524Y-14508952D02*
X14804524Y-14337524D01*
X14995000Y-14537524D02*
X14995000Y-14432762D01*
X14995000Y-14432762D02*
X14985477Y-14413714D01*
X14985477Y-14413714D02*
X14966429Y-14404190D01*
X14966429Y-14404190D02*
X14928334Y-14404190D01*
X14928334Y-14404190D02*
X14909286Y-14413714D01*
X14995000Y-14528000D02*
X14975953Y-14537524D01*
X14975953Y-14537524D02*
X14928334Y-14537524D01*
X14928334Y-14537524D02*
X14909286Y-14528000D01*
X14909286Y-14528000D02*
X14899762Y-14508952D01*
X14899762Y-14508952D02*
X14899762Y-14489905D01*
X14899762Y-14489905D02*
X14909286Y-14470857D01*
X14909286Y-14470857D02*
X14928334Y-14461333D01*
X14928334Y-14461333D02*
X14975953Y-14461333D01*
X14975953Y-14461333D02*
X14995000Y-14451809D01*
X15061667Y-14404190D02*
X15137858Y-14404190D01*
X15090239Y-14337524D02*
X15090239Y-14508952D01*
X15090239Y-14508952D02*
X15099762Y-14528000D01*
X15099762Y-14528000D02*
X15118810Y-14537524D01*
X15118810Y-14537524D02*
X15137858Y-14537524D01*
X15280715Y-14528000D02*
X15261667Y-14537524D01*
X15261667Y-14537524D02*
X15223572Y-14537524D01*
X15223572Y-14537524D02*
X15204524Y-14528000D01*
X15204524Y-14528000D02*
X15195000Y-14508952D01*
X15195000Y-14508952D02*
X15195000Y-14432762D01*
X15195000Y-14432762D02*
X15204524Y-14413714D01*
X15204524Y-14413714D02*
X15223572Y-14404190D01*
X15223572Y-14404190D02*
X15261667Y-14404190D01*
X15261667Y-14404190D02*
X15280715Y-14413714D01*
X15280715Y-14413714D02*
X15290239Y-14432762D01*
X15290239Y-14432762D02*
X15290239Y-14451809D01*
X15290239Y-14451809D02*
X15195000Y-14470857D01*
X15461667Y-14537524D02*
X15461667Y-14337524D01*
X15461667Y-14528000D02*
X15442620Y-14537524D01*
X15442620Y-14537524D02*
X15404524Y-14537524D01*
X15404524Y-14537524D02*
X15385477Y-14528000D01*
X15385477Y-14528000D02*
X15375953Y-14518476D01*
X15375953Y-14518476D02*
X15366429Y-14499428D01*
X15366429Y-14499428D02*
X15366429Y-14442286D01*
X15366429Y-14442286D02*
X15375953Y-14423238D01*
X15375953Y-14423238D02*
X15385477Y-14413714D01*
X15385477Y-14413714D02*
X15404524Y-14404190D01*
X15404524Y-14404190D02*
X15442620Y-14404190D01*
X15442620Y-14404190D02*
X15461667Y-14413714D01*
X15537858Y-14613714D02*
X15547381Y-14604190D01*
X15547381Y-14604190D02*
X15566429Y-14575619D01*
X15566429Y-14575619D02*
X15575953Y-14556571D01*
X15575953Y-14556571D02*
X15585477Y-14528000D01*
X15585477Y-14528000D02*
X15595000Y-14480381D01*
X15595000Y-14480381D02*
X15595000Y-14442286D01*
X15595000Y-14442286D02*
X15585477Y-14394667D01*
X15585477Y-14394667D02*
X15575953Y-14366095D01*
X15575953Y-14366095D02*
X15566429Y-14347048D01*
X15566429Y-14347048D02*
X15547381Y-14318476D01*
X15547381Y-14318476D02*
X15537858Y-14308952D01*
D13*
X8795000Y-14715000D02*
G75*
G03*
X8795000Y-14715000I-90000J0D01*
G01*
D11*
X9147381Y-14807524D02*
X9033095Y-14807524D01*
X9090238Y-14807524D02*
X9090238Y-14607524D01*
X9090238Y-14607524D02*
X9071190Y-14636095D01*
X9071190Y-14636095D02*
X9052143Y-14655143D01*
X9052143Y-14655143D02*
X9033095Y-14664667D01*
X9233095Y-14788476D02*
X9242619Y-14798000D01*
X9242619Y-14798000D02*
X9233095Y-14807524D01*
X9233095Y-14807524D02*
X9223571Y-14798000D01*
X9223571Y-14798000D02*
X9233095Y-14788476D01*
X9233095Y-14788476D02*
X9233095Y-14807524D01*
X9356905Y-14693238D02*
X9337857Y-14683714D01*
X9337857Y-14683714D02*
X9328333Y-14674190D01*
X9328333Y-14674190D02*
X9318810Y-14655143D01*
X9318810Y-14655143D02*
X9318810Y-14645619D01*
X9318810Y-14645619D02*
X9328333Y-14626571D01*
X9328333Y-14626571D02*
X9337857Y-14617048D01*
X9337857Y-14617048D02*
X9356905Y-14607524D01*
X9356905Y-14607524D02*
X9395000Y-14607524D01*
X9395000Y-14607524D02*
X9414048Y-14617048D01*
X9414048Y-14617048D02*
X9423571Y-14626571D01*
X9423571Y-14626571D02*
X9433095Y-14645619D01*
X9433095Y-14645619D02*
X9433095Y-14655143D01*
X9433095Y-14655143D02*
X9423571Y-14674190D01*
X9423571Y-14674190D02*
X9414048Y-14683714D01*
X9414048Y-14683714D02*
X9395000Y-14693238D01*
X9395000Y-14693238D02*
X9356905Y-14693238D01*
X9356905Y-14693238D02*
X9337857Y-14702762D01*
X9337857Y-14702762D02*
X9328333Y-14712286D01*
X9328333Y-14712286D02*
X9318810Y-14731333D01*
X9318810Y-14731333D02*
X9318810Y-14769428D01*
X9318810Y-14769428D02*
X9328333Y-14788476D01*
X9328333Y-14788476D02*
X9337857Y-14798000D01*
X9337857Y-14798000D02*
X9356905Y-14807524D01*
X9356905Y-14807524D02*
X9395000Y-14807524D01*
X9395000Y-14807524D02*
X9414048Y-14798000D01*
X9414048Y-14798000D02*
X9423571Y-14788476D01*
X9423571Y-14788476D02*
X9433095Y-14769428D01*
X9433095Y-14769428D02*
X9433095Y-14731333D01*
X9433095Y-14731333D02*
X9423571Y-14712286D01*
X9423571Y-14712286D02*
X9414048Y-14702762D01*
X9414048Y-14702762D02*
X9395000Y-14693238D01*
X9556905Y-14607524D02*
X9575952Y-14607524D01*
X9575952Y-14607524D02*
X9595000Y-14617048D01*
X9595000Y-14617048D02*
X9604524Y-14626571D01*
X9604524Y-14626571D02*
X9614048Y-14645619D01*
X9614048Y-14645619D02*
X9623571Y-14683714D01*
X9623571Y-14683714D02*
X9623571Y-14731333D01*
X9623571Y-14731333D02*
X9614048Y-14769428D01*
X9614048Y-14769428D02*
X9604524Y-14788476D01*
X9604524Y-14788476D02*
X9595000Y-14798000D01*
X9595000Y-14798000D02*
X9575952Y-14807524D01*
X9575952Y-14807524D02*
X9556905Y-14807524D01*
X9556905Y-14807524D02*
X9537857Y-14798000D01*
X9537857Y-14798000D02*
X9528333Y-14788476D01*
X9528333Y-14788476D02*
X9518810Y-14769428D01*
X9518810Y-14769428D02*
X9509286Y-14731333D01*
X9509286Y-14731333D02*
X9509286Y-14683714D01*
X9509286Y-14683714D02*
X9518810Y-14645619D01*
X9518810Y-14645619D02*
X9528333Y-14626571D01*
X9528333Y-14626571D02*
X9537857Y-14617048D01*
X9537857Y-14617048D02*
X9556905Y-14607524D01*
X9747381Y-14607524D02*
X9766429Y-14607524D01*
X9766429Y-14607524D02*
X9785476Y-14617048D01*
X9785476Y-14617048D02*
X9795000Y-14626571D01*
X9795000Y-14626571D02*
X9804524Y-14645619D01*
X9804524Y-14645619D02*
X9814048Y-14683714D01*
X9814048Y-14683714D02*
X9814048Y-14731333D01*
X9814048Y-14731333D02*
X9804524Y-14769428D01*
X9804524Y-14769428D02*
X9795000Y-14788476D01*
X9795000Y-14788476D02*
X9785476Y-14798000D01*
X9785476Y-14798000D02*
X9766429Y-14807524D01*
X9766429Y-14807524D02*
X9747381Y-14807524D01*
X9747381Y-14807524D02*
X9728333Y-14798000D01*
X9728333Y-14798000D02*
X9718810Y-14788476D01*
X9718810Y-14788476D02*
X9709286Y-14769428D01*
X9709286Y-14769428D02*
X9699762Y-14731333D01*
X9699762Y-14731333D02*
X9699762Y-14683714D01*
X9699762Y-14683714D02*
X9709286Y-14645619D01*
X9709286Y-14645619D02*
X9718810Y-14626571D01*
X9718810Y-14626571D02*
X9728333Y-14617048D01*
X9728333Y-14617048D02*
X9747381Y-14607524D01*
X9899762Y-14807524D02*
X9899762Y-14674190D01*
X9899762Y-14693238D02*
X9909286Y-14683714D01*
X9909286Y-14683714D02*
X9928333Y-14674190D01*
X9928333Y-14674190D02*
X9956905Y-14674190D01*
X9956905Y-14674190D02*
X9975952Y-14683714D01*
X9975952Y-14683714D02*
X9985476Y-14702762D01*
X9985476Y-14702762D02*
X9985476Y-14807524D01*
X9985476Y-14702762D02*
X9995000Y-14683714D01*
X9995000Y-14683714D02*
X10014048Y-14674190D01*
X10014048Y-14674190D02*
X10042619Y-14674190D01*
X10042619Y-14674190D02*
X10061667Y-14683714D01*
X10061667Y-14683714D02*
X10071191Y-14702762D01*
X10071191Y-14702762D02*
X10071191Y-14807524D01*
X10166429Y-14807524D02*
X10166429Y-14674190D01*
X10166429Y-14693238D02*
X10175952Y-14683714D01*
X10175952Y-14683714D02*
X10195000Y-14674190D01*
X10195000Y-14674190D02*
X10223572Y-14674190D01*
X10223572Y-14674190D02*
X10242619Y-14683714D01*
X10242619Y-14683714D02*
X10252143Y-14702762D01*
X10252143Y-14702762D02*
X10252143Y-14807524D01*
X10252143Y-14702762D02*
X10261667Y-14683714D01*
X10261667Y-14683714D02*
X10280714Y-14674190D01*
X10280714Y-14674190D02*
X10309286Y-14674190D01*
X10309286Y-14674190D02*
X10328333Y-14683714D01*
X10328333Y-14683714D02*
X10337857Y-14702762D01*
X10337857Y-14702762D02*
X10337857Y-14807524D01*
X10728333Y-14598000D02*
X10556905Y-14855143D01*
X10985476Y-14607524D02*
X11004524Y-14607524D01*
X11004524Y-14607524D02*
X11023572Y-14617048D01*
X11023572Y-14617048D02*
X11033095Y-14626571D01*
X11033095Y-14626571D02*
X11042619Y-14645619D01*
X11042619Y-14645619D02*
X11052143Y-14683714D01*
X11052143Y-14683714D02*
X11052143Y-14731333D01*
X11052143Y-14731333D02*
X11042619Y-14769428D01*
X11042619Y-14769428D02*
X11033095Y-14788476D01*
X11033095Y-14788476D02*
X11023572Y-14798000D01*
X11023572Y-14798000D02*
X11004524Y-14807524D01*
X11004524Y-14807524D02*
X10985476Y-14807524D01*
X10985476Y-14807524D02*
X10966429Y-14798000D01*
X10966429Y-14798000D02*
X10956905Y-14788476D01*
X10956905Y-14788476D02*
X10947381Y-14769428D01*
X10947381Y-14769428D02*
X10937857Y-14731333D01*
X10937857Y-14731333D02*
X10937857Y-14683714D01*
X10937857Y-14683714D02*
X10947381Y-14645619D01*
X10947381Y-14645619D02*
X10956905Y-14626571D01*
X10956905Y-14626571D02*
X10966429Y-14617048D01*
X10966429Y-14617048D02*
X10985476Y-14607524D01*
X11137857Y-14788476D02*
X11147381Y-14798000D01*
X11147381Y-14798000D02*
X11137857Y-14807524D01*
X11137857Y-14807524D02*
X11128334Y-14798000D01*
X11128334Y-14798000D02*
X11137857Y-14788476D01*
X11137857Y-14788476D02*
X11137857Y-14807524D01*
X11271191Y-14607524D02*
X11290238Y-14607524D01*
X11290238Y-14607524D02*
X11309286Y-14617048D01*
X11309286Y-14617048D02*
X11318810Y-14626571D01*
X11318810Y-14626571D02*
X11328333Y-14645619D01*
X11328333Y-14645619D02*
X11337857Y-14683714D01*
X11337857Y-14683714D02*
X11337857Y-14731333D01*
X11337857Y-14731333D02*
X11328333Y-14769428D01*
X11328333Y-14769428D02*
X11318810Y-14788476D01*
X11318810Y-14788476D02*
X11309286Y-14798000D01*
X11309286Y-14798000D02*
X11290238Y-14807524D01*
X11290238Y-14807524D02*
X11271191Y-14807524D01*
X11271191Y-14807524D02*
X11252143Y-14798000D01*
X11252143Y-14798000D02*
X11242619Y-14788476D01*
X11242619Y-14788476D02*
X11233095Y-14769428D01*
X11233095Y-14769428D02*
X11223572Y-14731333D01*
X11223572Y-14731333D02*
X11223572Y-14683714D01*
X11223572Y-14683714D02*
X11233095Y-14645619D01*
X11233095Y-14645619D02*
X11242619Y-14626571D01*
X11242619Y-14626571D02*
X11252143Y-14617048D01*
X11252143Y-14617048D02*
X11271191Y-14607524D01*
X11404524Y-14607524D02*
X11537857Y-14607524D01*
X11537857Y-14607524D02*
X11452143Y-14807524D01*
X11652143Y-14607524D02*
X11671191Y-14607524D01*
X11671191Y-14607524D02*
X11690238Y-14617048D01*
X11690238Y-14617048D02*
X11699762Y-14626571D01*
X11699762Y-14626571D02*
X11709286Y-14645619D01*
X11709286Y-14645619D02*
X11718810Y-14683714D01*
X11718810Y-14683714D02*
X11718810Y-14731333D01*
X11718810Y-14731333D02*
X11709286Y-14769428D01*
X11709286Y-14769428D02*
X11699762Y-14788476D01*
X11699762Y-14788476D02*
X11690238Y-14798000D01*
X11690238Y-14798000D02*
X11671191Y-14807524D01*
X11671191Y-14807524D02*
X11652143Y-14807524D01*
X11652143Y-14807524D02*
X11633095Y-14798000D01*
X11633095Y-14798000D02*
X11623572Y-14788476D01*
X11623572Y-14788476D02*
X11614048Y-14769428D01*
X11614048Y-14769428D02*
X11604524Y-14731333D01*
X11604524Y-14731333D02*
X11604524Y-14683714D01*
X11604524Y-14683714D02*
X11614048Y-14645619D01*
X11614048Y-14645619D02*
X11623572Y-14626571D01*
X11623572Y-14626571D02*
X11633095Y-14617048D01*
X11633095Y-14617048D02*
X11652143Y-14607524D01*
X11814048Y-14807524D02*
X11852143Y-14807524D01*
X11852143Y-14807524D02*
X11871191Y-14798000D01*
X11871191Y-14798000D02*
X11880714Y-14788476D01*
X11880714Y-14788476D02*
X11899762Y-14759905D01*
X11899762Y-14759905D02*
X11909286Y-14721809D01*
X11909286Y-14721809D02*
X11909286Y-14645619D01*
X11909286Y-14645619D02*
X11899762Y-14626571D01*
X11899762Y-14626571D02*
X11890238Y-14617048D01*
X11890238Y-14617048D02*
X11871191Y-14607524D01*
X11871191Y-14607524D02*
X11833095Y-14607524D01*
X11833095Y-14607524D02*
X11814048Y-14617048D01*
X11814048Y-14617048D02*
X11804524Y-14626571D01*
X11804524Y-14626571D02*
X11795000Y-14645619D01*
X11795000Y-14645619D02*
X11795000Y-14693238D01*
X11795000Y-14693238D02*
X11804524Y-14712286D01*
X11804524Y-14712286D02*
X11814048Y-14721809D01*
X11814048Y-14721809D02*
X11833095Y-14731333D01*
X11833095Y-14731333D02*
X11871191Y-14731333D01*
X11871191Y-14731333D02*
X11890238Y-14721809D01*
X11890238Y-14721809D02*
X11899762Y-14712286D01*
X11899762Y-14712286D02*
X11909286Y-14693238D01*
X11985476Y-14607524D02*
X11985476Y-14645619D01*
X12061667Y-14607524D02*
X12061667Y-14645619D01*
X12356905Y-14883714D02*
X12347381Y-14874190D01*
X12347381Y-14874190D02*
X12328334Y-14845619D01*
X12328334Y-14845619D02*
X12318810Y-14826571D01*
X12318810Y-14826571D02*
X12309286Y-14798000D01*
X12309286Y-14798000D02*
X12299762Y-14750381D01*
X12299762Y-14750381D02*
X12299762Y-14712286D01*
X12299762Y-14712286D02*
X12309286Y-14664667D01*
X12309286Y-14664667D02*
X12318810Y-14636095D01*
X12318810Y-14636095D02*
X12328334Y-14617048D01*
X12328334Y-14617048D02*
X12347381Y-14588476D01*
X12347381Y-14588476D02*
X12356905Y-14578952D01*
X12423572Y-14626571D02*
X12433095Y-14617048D01*
X12433095Y-14617048D02*
X12452143Y-14607524D01*
X12452143Y-14607524D02*
X12499762Y-14607524D01*
X12499762Y-14607524D02*
X12518810Y-14617048D01*
X12518810Y-14617048D02*
X12528334Y-14626571D01*
X12528334Y-14626571D02*
X12537857Y-14645619D01*
X12537857Y-14645619D02*
X12537857Y-14664667D01*
X12537857Y-14664667D02*
X12528334Y-14693238D01*
X12528334Y-14693238D02*
X12414048Y-14807524D01*
X12414048Y-14807524D02*
X12537857Y-14807524D01*
X12775953Y-14807524D02*
X12775953Y-14607524D01*
X12861667Y-14807524D02*
X12861667Y-14702762D01*
X12861667Y-14702762D02*
X12852143Y-14683714D01*
X12852143Y-14683714D02*
X12833096Y-14674190D01*
X12833096Y-14674190D02*
X12804524Y-14674190D01*
X12804524Y-14674190D02*
X12785476Y-14683714D01*
X12785476Y-14683714D02*
X12775953Y-14693238D01*
X12985476Y-14807524D02*
X12966429Y-14798000D01*
X12966429Y-14798000D02*
X12956905Y-14788476D01*
X12956905Y-14788476D02*
X12947381Y-14769428D01*
X12947381Y-14769428D02*
X12947381Y-14712286D01*
X12947381Y-14712286D02*
X12956905Y-14693238D01*
X12956905Y-14693238D02*
X12966429Y-14683714D01*
X12966429Y-14683714D02*
X12985476Y-14674190D01*
X12985476Y-14674190D02*
X13014048Y-14674190D01*
X13014048Y-14674190D02*
X13033096Y-14683714D01*
X13033096Y-14683714D02*
X13042619Y-14693238D01*
X13042619Y-14693238D02*
X13052143Y-14712286D01*
X13052143Y-14712286D02*
X13052143Y-14769428D01*
X13052143Y-14769428D02*
X13042619Y-14788476D01*
X13042619Y-14788476D02*
X13033096Y-14798000D01*
X13033096Y-14798000D02*
X13014048Y-14807524D01*
X13014048Y-14807524D02*
X12985476Y-14807524D01*
X13166429Y-14807524D02*
X13147381Y-14798000D01*
X13147381Y-14798000D02*
X13137857Y-14778952D01*
X13137857Y-14778952D02*
X13137857Y-14607524D01*
X13318810Y-14798000D02*
X13299762Y-14807524D01*
X13299762Y-14807524D02*
X13261667Y-14807524D01*
X13261667Y-14807524D02*
X13242619Y-14798000D01*
X13242619Y-14798000D02*
X13233096Y-14778952D01*
X13233096Y-14778952D02*
X13233096Y-14702762D01*
X13233096Y-14702762D02*
X13242619Y-14683714D01*
X13242619Y-14683714D02*
X13261667Y-14674190D01*
X13261667Y-14674190D02*
X13299762Y-14674190D01*
X13299762Y-14674190D02*
X13318810Y-14683714D01*
X13318810Y-14683714D02*
X13328334Y-14702762D01*
X13328334Y-14702762D02*
X13328334Y-14721809D01*
X13328334Y-14721809D02*
X13233096Y-14740857D01*
X13404524Y-14798000D02*
X13423572Y-14807524D01*
X13423572Y-14807524D02*
X13461667Y-14807524D01*
X13461667Y-14807524D02*
X13480715Y-14798000D01*
X13480715Y-14798000D02*
X13490238Y-14778952D01*
X13490238Y-14778952D02*
X13490238Y-14769428D01*
X13490238Y-14769428D02*
X13480715Y-14750381D01*
X13480715Y-14750381D02*
X13461667Y-14740857D01*
X13461667Y-14740857D02*
X13433096Y-14740857D01*
X13433096Y-14740857D02*
X13414048Y-14731333D01*
X13414048Y-14731333D02*
X13404524Y-14712286D01*
X13404524Y-14712286D02*
X13404524Y-14702762D01*
X13404524Y-14702762D02*
X13414048Y-14683714D01*
X13414048Y-14683714D02*
X13433096Y-14674190D01*
X13433096Y-14674190D02*
X13461667Y-14674190D01*
X13461667Y-14674190D02*
X13480715Y-14683714D01*
X13556905Y-14883714D02*
X13566429Y-14874190D01*
X13566429Y-14874190D02*
X13585477Y-14845619D01*
X13585477Y-14845619D02*
X13595000Y-14826571D01*
X13595000Y-14826571D02*
X13604524Y-14798000D01*
X13604524Y-14798000D02*
X13614048Y-14750381D01*
X13614048Y-14750381D02*
X13614048Y-14712286D01*
X13614048Y-14712286D02*
X13604524Y-14664667D01*
X13604524Y-14664667D02*
X13595000Y-14636095D01*
X13595000Y-14636095D02*
X13585477Y-14617048D01*
X13585477Y-14617048D02*
X13566429Y-14588476D01*
X13566429Y-14588476D02*
X13556905Y-14578952D01*
X13918810Y-14883714D02*
X13909286Y-14874190D01*
X13909286Y-14874190D02*
X13890238Y-14845619D01*
X13890238Y-14845619D02*
X13880715Y-14826571D01*
X13880715Y-14826571D02*
X13871191Y-14798000D01*
X13871191Y-14798000D02*
X13861667Y-14750381D01*
X13861667Y-14750381D02*
X13861667Y-14712286D01*
X13861667Y-14712286D02*
X13871191Y-14664667D01*
X13871191Y-14664667D02*
X13880715Y-14636095D01*
X13880715Y-14636095D02*
X13890238Y-14617048D01*
X13890238Y-14617048D02*
X13909286Y-14588476D01*
X13909286Y-14588476D02*
X13918810Y-14578952D01*
X13995000Y-14674190D02*
X13995000Y-14807524D01*
X13995000Y-14693238D02*
X14004524Y-14683714D01*
X14004524Y-14683714D02*
X14023572Y-14674190D01*
X14023572Y-14674190D02*
X14052143Y-14674190D01*
X14052143Y-14674190D02*
X14071191Y-14683714D01*
X14071191Y-14683714D02*
X14080715Y-14702762D01*
X14080715Y-14702762D02*
X14080715Y-14807524D01*
X14204524Y-14807524D02*
X14185477Y-14798000D01*
X14185477Y-14798000D02*
X14175953Y-14788476D01*
X14175953Y-14788476D02*
X14166429Y-14769428D01*
X14166429Y-14769428D02*
X14166429Y-14712286D01*
X14166429Y-14712286D02*
X14175953Y-14693238D01*
X14175953Y-14693238D02*
X14185477Y-14683714D01*
X14185477Y-14683714D02*
X14204524Y-14674190D01*
X14204524Y-14674190D02*
X14233096Y-14674190D01*
X14233096Y-14674190D02*
X14252143Y-14683714D01*
X14252143Y-14683714D02*
X14261667Y-14693238D01*
X14261667Y-14693238D02*
X14271191Y-14712286D01*
X14271191Y-14712286D02*
X14271191Y-14769428D01*
X14271191Y-14769428D02*
X14261667Y-14788476D01*
X14261667Y-14788476D02*
X14252143Y-14798000D01*
X14252143Y-14798000D02*
X14233096Y-14807524D01*
X14233096Y-14807524D02*
X14204524Y-14807524D01*
X14328334Y-14674190D02*
X14404524Y-14674190D01*
X14356905Y-14607524D02*
X14356905Y-14778952D01*
X14356905Y-14778952D02*
X14366429Y-14798000D01*
X14366429Y-14798000D02*
X14385477Y-14807524D01*
X14385477Y-14807524D02*
X14404524Y-14807524D01*
X14623572Y-14674190D02*
X14623572Y-14874190D01*
X14623572Y-14683714D02*
X14642619Y-14674190D01*
X14642619Y-14674190D02*
X14680715Y-14674190D01*
X14680715Y-14674190D02*
X14699762Y-14683714D01*
X14699762Y-14683714D02*
X14709286Y-14693238D01*
X14709286Y-14693238D02*
X14718810Y-14712286D01*
X14718810Y-14712286D02*
X14718810Y-14769428D01*
X14718810Y-14769428D02*
X14709286Y-14788476D01*
X14709286Y-14788476D02*
X14699762Y-14798000D01*
X14699762Y-14798000D02*
X14680715Y-14807524D01*
X14680715Y-14807524D02*
X14642619Y-14807524D01*
X14642619Y-14807524D02*
X14623572Y-14798000D01*
X14833096Y-14807524D02*
X14814048Y-14798000D01*
X14814048Y-14798000D02*
X14804524Y-14778952D01*
X14804524Y-14778952D02*
X14804524Y-14607524D01*
X14995000Y-14807524D02*
X14995000Y-14702762D01*
X14995000Y-14702762D02*
X14985477Y-14683714D01*
X14985477Y-14683714D02*
X14966429Y-14674190D01*
X14966429Y-14674190D02*
X14928334Y-14674190D01*
X14928334Y-14674190D02*
X14909286Y-14683714D01*
X14995000Y-14798000D02*
X14975953Y-14807524D01*
X14975953Y-14807524D02*
X14928334Y-14807524D01*
X14928334Y-14807524D02*
X14909286Y-14798000D01*
X14909286Y-14798000D02*
X14899762Y-14778952D01*
X14899762Y-14778952D02*
X14899762Y-14759905D01*
X14899762Y-14759905D02*
X14909286Y-14740857D01*
X14909286Y-14740857D02*
X14928334Y-14731333D01*
X14928334Y-14731333D02*
X14975953Y-14731333D01*
X14975953Y-14731333D02*
X14995000Y-14721809D01*
X15061667Y-14674190D02*
X15137858Y-14674190D01*
X15090239Y-14607524D02*
X15090239Y-14778952D01*
X15090239Y-14778952D02*
X15099762Y-14798000D01*
X15099762Y-14798000D02*
X15118810Y-14807524D01*
X15118810Y-14807524D02*
X15137858Y-14807524D01*
X15280715Y-14798000D02*
X15261667Y-14807524D01*
X15261667Y-14807524D02*
X15223572Y-14807524D01*
X15223572Y-14807524D02*
X15204524Y-14798000D01*
X15204524Y-14798000D02*
X15195000Y-14778952D01*
X15195000Y-14778952D02*
X15195000Y-14702762D01*
X15195000Y-14702762D02*
X15204524Y-14683714D01*
X15204524Y-14683714D02*
X15223572Y-14674190D01*
X15223572Y-14674190D02*
X15261667Y-14674190D01*
X15261667Y-14674190D02*
X15280715Y-14683714D01*
X15280715Y-14683714D02*
X15290239Y-14702762D01*
X15290239Y-14702762D02*
X15290239Y-14721809D01*
X15290239Y-14721809D02*
X15195000Y-14740857D01*
X15461667Y-14807524D02*
X15461667Y-14607524D01*
X15461667Y-14798000D02*
X15442620Y-14807524D01*
X15442620Y-14807524D02*
X15404524Y-14807524D01*
X15404524Y-14807524D02*
X15385477Y-14798000D01*
X15385477Y-14798000D02*
X15375953Y-14788476D01*
X15375953Y-14788476D02*
X15366429Y-14769428D01*
X15366429Y-14769428D02*
X15366429Y-14712286D01*
X15366429Y-14712286D02*
X15375953Y-14693238D01*
X15375953Y-14693238D02*
X15385477Y-14683714D01*
X15385477Y-14683714D02*
X15404524Y-14674190D01*
X15404524Y-14674190D02*
X15442620Y-14674190D01*
X15442620Y-14674190D02*
X15461667Y-14683714D01*
X15537858Y-14883714D02*
X15547381Y-14874190D01*
X15547381Y-14874190D02*
X15566429Y-14845619D01*
X15566429Y-14845619D02*
X15575953Y-14826571D01*
X15575953Y-14826571D02*
X15585477Y-14798000D01*
X15585477Y-14798000D02*
X15595000Y-14750381D01*
X15595000Y-14750381D02*
X15595000Y-14712286D01*
X15595000Y-14712286D02*
X15585477Y-14664667D01*
X15585477Y-14664667D02*
X15575953Y-14636095D01*
X15575953Y-14636095D02*
X15566429Y-14617048D01*
X15566429Y-14617048D02*
X15547381Y-14588476D01*
X15547381Y-14588476D02*
X15537858Y-14578952D01*
X8695000Y-14915000D02*
X8695000Y-15115000D01*
X8595000Y-15015000D02*
X8795000Y-15015000D01*
X9023571Y-14907524D02*
X9147381Y-14907524D01*
X9147381Y-14907524D02*
X9080714Y-14983714D01*
X9080714Y-14983714D02*
X9109286Y-14983714D01*
X9109286Y-14983714D02*
X9128333Y-14993238D01*
X9128333Y-14993238D02*
X9137857Y-15002762D01*
X9137857Y-15002762D02*
X9147381Y-15021809D01*
X9147381Y-15021809D02*
X9147381Y-15069428D01*
X9147381Y-15069428D02*
X9137857Y-15088476D01*
X9137857Y-15088476D02*
X9128333Y-15098000D01*
X9128333Y-15098000D02*
X9109286Y-15107524D01*
X9109286Y-15107524D02*
X9052143Y-15107524D01*
X9052143Y-15107524D02*
X9033095Y-15098000D01*
X9033095Y-15098000D02*
X9023571Y-15088476D01*
X9233095Y-15088476D02*
X9242619Y-15098000D01*
X9242619Y-15098000D02*
X9233095Y-15107524D01*
X9233095Y-15107524D02*
X9223571Y-15098000D01*
X9223571Y-15098000D02*
X9233095Y-15088476D01*
X9233095Y-15088476D02*
X9233095Y-15107524D01*
X9318810Y-14926571D02*
X9328333Y-14917048D01*
X9328333Y-14917048D02*
X9347381Y-14907524D01*
X9347381Y-14907524D02*
X9395000Y-14907524D01*
X9395000Y-14907524D02*
X9414048Y-14917048D01*
X9414048Y-14917048D02*
X9423571Y-14926571D01*
X9423571Y-14926571D02*
X9433095Y-14945619D01*
X9433095Y-14945619D02*
X9433095Y-14964667D01*
X9433095Y-14964667D02*
X9423571Y-14993238D01*
X9423571Y-14993238D02*
X9309286Y-15107524D01*
X9309286Y-15107524D02*
X9433095Y-15107524D01*
X9556905Y-14907524D02*
X9575952Y-14907524D01*
X9575952Y-14907524D02*
X9595000Y-14917048D01*
X9595000Y-14917048D02*
X9604524Y-14926571D01*
X9604524Y-14926571D02*
X9614048Y-14945619D01*
X9614048Y-14945619D02*
X9623571Y-14983714D01*
X9623571Y-14983714D02*
X9623571Y-15031333D01*
X9623571Y-15031333D02*
X9614048Y-15069428D01*
X9614048Y-15069428D02*
X9604524Y-15088476D01*
X9604524Y-15088476D02*
X9595000Y-15098000D01*
X9595000Y-15098000D02*
X9575952Y-15107524D01*
X9575952Y-15107524D02*
X9556905Y-15107524D01*
X9556905Y-15107524D02*
X9537857Y-15098000D01*
X9537857Y-15098000D02*
X9528333Y-15088476D01*
X9528333Y-15088476D02*
X9518810Y-15069428D01*
X9518810Y-15069428D02*
X9509286Y-15031333D01*
X9509286Y-15031333D02*
X9509286Y-14983714D01*
X9509286Y-14983714D02*
X9518810Y-14945619D01*
X9518810Y-14945619D02*
X9528333Y-14926571D01*
X9528333Y-14926571D02*
X9537857Y-14917048D01*
X9537857Y-14917048D02*
X9556905Y-14907524D01*
X9747381Y-14907524D02*
X9766429Y-14907524D01*
X9766429Y-14907524D02*
X9785476Y-14917048D01*
X9785476Y-14917048D02*
X9795000Y-14926571D01*
X9795000Y-14926571D02*
X9804524Y-14945619D01*
X9804524Y-14945619D02*
X9814048Y-14983714D01*
X9814048Y-14983714D02*
X9814048Y-15031333D01*
X9814048Y-15031333D02*
X9804524Y-15069428D01*
X9804524Y-15069428D02*
X9795000Y-15088476D01*
X9795000Y-15088476D02*
X9785476Y-15098000D01*
X9785476Y-15098000D02*
X9766429Y-15107524D01*
X9766429Y-15107524D02*
X9747381Y-15107524D01*
X9747381Y-15107524D02*
X9728333Y-15098000D01*
X9728333Y-15098000D02*
X9718810Y-15088476D01*
X9718810Y-15088476D02*
X9709286Y-15069428D01*
X9709286Y-15069428D02*
X9699762Y-15031333D01*
X9699762Y-15031333D02*
X9699762Y-14983714D01*
X9699762Y-14983714D02*
X9709286Y-14945619D01*
X9709286Y-14945619D02*
X9718810Y-14926571D01*
X9718810Y-14926571D02*
X9728333Y-14917048D01*
X9728333Y-14917048D02*
X9747381Y-14907524D01*
X9899762Y-15107524D02*
X9899762Y-14974190D01*
X9899762Y-14993238D02*
X9909286Y-14983714D01*
X9909286Y-14983714D02*
X9928333Y-14974190D01*
X9928333Y-14974190D02*
X9956905Y-14974190D01*
X9956905Y-14974190D02*
X9975952Y-14983714D01*
X9975952Y-14983714D02*
X9985476Y-15002762D01*
X9985476Y-15002762D02*
X9985476Y-15107524D01*
X9985476Y-15002762D02*
X9995000Y-14983714D01*
X9995000Y-14983714D02*
X10014048Y-14974190D01*
X10014048Y-14974190D02*
X10042619Y-14974190D01*
X10042619Y-14974190D02*
X10061667Y-14983714D01*
X10061667Y-14983714D02*
X10071191Y-15002762D01*
X10071191Y-15002762D02*
X10071191Y-15107524D01*
X10166429Y-15107524D02*
X10166429Y-14974190D01*
X10166429Y-14993238D02*
X10175952Y-14983714D01*
X10175952Y-14983714D02*
X10195000Y-14974190D01*
X10195000Y-14974190D02*
X10223572Y-14974190D01*
X10223572Y-14974190D02*
X10242619Y-14983714D01*
X10242619Y-14983714D02*
X10252143Y-15002762D01*
X10252143Y-15002762D02*
X10252143Y-15107524D01*
X10252143Y-15002762D02*
X10261667Y-14983714D01*
X10261667Y-14983714D02*
X10280714Y-14974190D01*
X10280714Y-14974190D02*
X10309286Y-14974190D01*
X10309286Y-14974190D02*
X10328333Y-14983714D01*
X10328333Y-14983714D02*
X10337857Y-15002762D01*
X10337857Y-15002762D02*
X10337857Y-15107524D01*
X10728333Y-14898000D02*
X10556905Y-15155143D01*
X10985476Y-14907524D02*
X11004524Y-14907524D01*
X11004524Y-14907524D02*
X11023572Y-14917048D01*
X11023572Y-14917048D02*
X11033095Y-14926571D01*
X11033095Y-14926571D02*
X11042619Y-14945619D01*
X11042619Y-14945619D02*
X11052143Y-14983714D01*
X11052143Y-14983714D02*
X11052143Y-15031333D01*
X11052143Y-15031333D02*
X11042619Y-15069428D01*
X11042619Y-15069428D02*
X11033095Y-15088476D01*
X11033095Y-15088476D02*
X11023572Y-15098000D01*
X11023572Y-15098000D02*
X11004524Y-15107524D01*
X11004524Y-15107524D02*
X10985476Y-15107524D01*
X10985476Y-15107524D02*
X10966429Y-15098000D01*
X10966429Y-15098000D02*
X10956905Y-15088476D01*
X10956905Y-15088476D02*
X10947381Y-15069428D01*
X10947381Y-15069428D02*
X10937857Y-15031333D01*
X10937857Y-15031333D02*
X10937857Y-14983714D01*
X10937857Y-14983714D02*
X10947381Y-14945619D01*
X10947381Y-14945619D02*
X10956905Y-14926571D01*
X10956905Y-14926571D02*
X10966429Y-14917048D01*
X10966429Y-14917048D02*
X10985476Y-14907524D01*
X11137857Y-15088476D02*
X11147381Y-15098000D01*
X11147381Y-15098000D02*
X11137857Y-15107524D01*
X11137857Y-15107524D02*
X11128334Y-15098000D01*
X11128334Y-15098000D02*
X11137857Y-15088476D01*
X11137857Y-15088476D02*
X11137857Y-15107524D01*
X11337857Y-15107524D02*
X11223572Y-15107524D01*
X11280714Y-15107524D02*
X11280714Y-14907524D01*
X11280714Y-14907524D02*
X11261667Y-14936095D01*
X11261667Y-14936095D02*
X11242619Y-14955143D01*
X11242619Y-14955143D02*
X11223572Y-14964667D01*
X11414048Y-14926571D02*
X11423572Y-14917048D01*
X11423572Y-14917048D02*
X11442619Y-14907524D01*
X11442619Y-14907524D02*
X11490238Y-14907524D01*
X11490238Y-14907524D02*
X11509286Y-14917048D01*
X11509286Y-14917048D02*
X11518810Y-14926571D01*
X11518810Y-14926571D02*
X11528333Y-14945619D01*
X11528333Y-14945619D02*
X11528333Y-14964667D01*
X11528333Y-14964667D02*
X11518810Y-14993238D01*
X11518810Y-14993238D02*
X11404524Y-15107524D01*
X11404524Y-15107524D02*
X11528333Y-15107524D01*
X11699762Y-14907524D02*
X11661667Y-14907524D01*
X11661667Y-14907524D02*
X11642619Y-14917048D01*
X11642619Y-14917048D02*
X11633095Y-14926571D01*
X11633095Y-14926571D02*
X11614048Y-14955143D01*
X11614048Y-14955143D02*
X11604524Y-14993238D01*
X11604524Y-14993238D02*
X11604524Y-15069428D01*
X11604524Y-15069428D02*
X11614048Y-15088476D01*
X11614048Y-15088476D02*
X11623572Y-15098000D01*
X11623572Y-15098000D02*
X11642619Y-15107524D01*
X11642619Y-15107524D02*
X11680714Y-15107524D01*
X11680714Y-15107524D02*
X11699762Y-15098000D01*
X11699762Y-15098000D02*
X11709286Y-15088476D01*
X11709286Y-15088476D02*
X11718810Y-15069428D01*
X11718810Y-15069428D02*
X11718810Y-15021809D01*
X11718810Y-15021809D02*
X11709286Y-15002762D01*
X11709286Y-15002762D02*
X11699762Y-14993238D01*
X11699762Y-14993238D02*
X11680714Y-14983714D01*
X11680714Y-14983714D02*
X11642619Y-14983714D01*
X11642619Y-14983714D02*
X11623572Y-14993238D01*
X11623572Y-14993238D02*
X11614048Y-15002762D01*
X11614048Y-15002762D02*
X11604524Y-15021809D01*
X11842619Y-14907524D02*
X11861667Y-14907524D01*
X11861667Y-14907524D02*
X11880714Y-14917048D01*
X11880714Y-14917048D02*
X11890238Y-14926571D01*
X11890238Y-14926571D02*
X11899762Y-14945619D01*
X11899762Y-14945619D02*
X11909286Y-14983714D01*
X11909286Y-14983714D02*
X11909286Y-15031333D01*
X11909286Y-15031333D02*
X11899762Y-15069428D01*
X11899762Y-15069428D02*
X11890238Y-15088476D01*
X11890238Y-15088476D02*
X11880714Y-15098000D01*
X11880714Y-15098000D02*
X11861667Y-15107524D01*
X11861667Y-15107524D02*
X11842619Y-15107524D01*
X11842619Y-15107524D02*
X11823572Y-15098000D01*
X11823572Y-15098000D02*
X11814048Y-15088476D01*
X11814048Y-15088476D02*
X11804524Y-15069428D01*
X11804524Y-15069428D02*
X11795000Y-15031333D01*
X11795000Y-15031333D02*
X11795000Y-14983714D01*
X11795000Y-14983714D02*
X11804524Y-14945619D01*
X11804524Y-14945619D02*
X11814048Y-14926571D01*
X11814048Y-14926571D02*
X11823572Y-14917048D01*
X11823572Y-14917048D02*
X11842619Y-14907524D01*
X11985476Y-14907524D02*
X11985476Y-14945619D01*
X12061667Y-14907524D02*
X12061667Y-14945619D01*
X12356905Y-15183714D02*
X12347381Y-15174190D01*
X12347381Y-15174190D02*
X12328334Y-15145619D01*
X12328334Y-15145619D02*
X12318810Y-15126571D01*
X12318810Y-15126571D02*
X12309286Y-15098000D01*
X12309286Y-15098000D02*
X12299762Y-15050381D01*
X12299762Y-15050381D02*
X12299762Y-15012286D01*
X12299762Y-15012286D02*
X12309286Y-14964667D01*
X12309286Y-14964667D02*
X12318810Y-14936095D01*
X12318810Y-14936095D02*
X12328334Y-14917048D01*
X12328334Y-14917048D02*
X12347381Y-14888476D01*
X12347381Y-14888476D02*
X12356905Y-14878952D01*
X12518810Y-14974190D02*
X12518810Y-15107524D01*
X12471191Y-14898000D02*
X12423572Y-15040857D01*
X12423572Y-15040857D02*
X12547381Y-15040857D01*
X12775953Y-15107524D02*
X12775953Y-14907524D01*
X12861667Y-15107524D02*
X12861667Y-15002762D01*
X12861667Y-15002762D02*
X12852143Y-14983714D01*
X12852143Y-14983714D02*
X12833096Y-14974190D01*
X12833096Y-14974190D02*
X12804524Y-14974190D01*
X12804524Y-14974190D02*
X12785476Y-14983714D01*
X12785476Y-14983714D02*
X12775953Y-14993238D01*
X12985476Y-15107524D02*
X12966429Y-15098000D01*
X12966429Y-15098000D02*
X12956905Y-15088476D01*
X12956905Y-15088476D02*
X12947381Y-15069428D01*
X12947381Y-15069428D02*
X12947381Y-15012286D01*
X12947381Y-15012286D02*
X12956905Y-14993238D01*
X12956905Y-14993238D02*
X12966429Y-14983714D01*
X12966429Y-14983714D02*
X12985476Y-14974190D01*
X12985476Y-14974190D02*
X13014048Y-14974190D01*
X13014048Y-14974190D02*
X13033096Y-14983714D01*
X13033096Y-14983714D02*
X13042619Y-14993238D01*
X13042619Y-14993238D02*
X13052143Y-15012286D01*
X13052143Y-15012286D02*
X13052143Y-15069428D01*
X13052143Y-15069428D02*
X13042619Y-15088476D01*
X13042619Y-15088476D02*
X13033096Y-15098000D01*
X13033096Y-15098000D02*
X13014048Y-15107524D01*
X13014048Y-15107524D02*
X12985476Y-15107524D01*
X13166429Y-15107524D02*
X13147381Y-15098000D01*
X13147381Y-15098000D02*
X13137857Y-15078952D01*
X13137857Y-15078952D02*
X13137857Y-14907524D01*
X13318810Y-15098000D02*
X13299762Y-15107524D01*
X13299762Y-15107524D02*
X13261667Y-15107524D01*
X13261667Y-15107524D02*
X13242619Y-15098000D01*
X13242619Y-15098000D02*
X13233096Y-15078952D01*
X13233096Y-15078952D02*
X13233096Y-15002762D01*
X13233096Y-15002762D02*
X13242619Y-14983714D01*
X13242619Y-14983714D02*
X13261667Y-14974190D01*
X13261667Y-14974190D02*
X13299762Y-14974190D01*
X13299762Y-14974190D02*
X13318810Y-14983714D01*
X13318810Y-14983714D02*
X13328334Y-15002762D01*
X13328334Y-15002762D02*
X13328334Y-15021809D01*
X13328334Y-15021809D02*
X13233096Y-15040857D01*
X13404524Y-15098000D02*
X13423572Y-15107524D01*
X13423572Y-15107524D02*
X13461667Y-15107524D01*
X13461667Y-15107524D02*
X13480715Y-15098000D01*
X13480715Y-15098000D02*
X13490238Y-15078952D01*
X13490238Y-15078952D02*
X13490238Y-15069428D01*
X13490238Y-15069428D02*
X13480715Y-15050381D01*
X13480715Y-15050381D02*
X13461667Y-15040857D01*
X13461667Y-15040857D02*
X13433096Y-15040857D01*
X13433096Y-15040857D02*
X13414048Y-15031333D01*
X13414048Y-15031333D02*
X13404524Y-15012286D01*
X13404524Y-15012286D02*
X13404524Y-15002762D01*
X13404524Y-15002762D02*
X13414048Y-14983714D01*
X13414048Y-14983714D02*
X13433096Y-14974190D01*
X13433096Y-14974190D02*
X13461667Y-14974190D01*
X13461667Y-14974190D02*
X13480715Y-14983714D01*
X13556905Y-15183714D02*
X13566429Y-15174190D01*
X13566429Y-15174190D02*
X13585477Y-15145619D01*
X13585477Y-15145619D02*
X13595000Y-15126571D01*
X13595000Y-15126571D02*
X13604524Y-15098000D01*
X13604524Y-15098000D02*
X13614048Y-15050381D01*
X13614048Y-15050381D02*
X13614048Y-15012286D01*
X13614048Y-15012286D02*
X13604524Y-14964667D01*
X13604524Y-14964667D02*
X13595000Y-14936095D01*
X13595000Y-14936095D02*
X13585477Y-14917048D01*
X13585477Y-14917048D02*
X13566429Y-14888476D01*
X13566429Y-14888476D02*
X13556905Y-14878952D01*
X13918810Y-15183714D02*
X13909286Y-15174190D01*
X13909286Y-15174190D02*
X13890238Y-15145619D01*
X13890238Y-15145619D02*
X13880715Y-15126571D01*
X13880715Y-15126571D02*
X13871191Y-15098000D01*
X13871191Y-15098000D02*
X13861667Y-15050381D01*
X13861667Y-15050381D02*
X13861667Y-15012286D01*
X13861667Y-15012286D02*
X13871191Y-14964667D01*
X13871191Y-14964667D02*
X13880715Y-14936095D01*
X13880715Y-14936095D02*
X13890238Y-14917048D01*
X13890238Y-14917048D02*
X13909286Y-14888476D01*
X13909286Y-14888476D02*
X13918810Y-14878952D01*
X13995000Y-14974190D02*
X13995000Y-15107524D01*
X13995000Y-14993238D02*
X14004524Y-14983714D01*
X14004524Y-14983714D02*
X14023572Y-14974190D01*
X14023572Y-14974190D02*
X14052143Y-14974190D01*
X14052143Y-14974190D02*
X14071191Y-14983714D01*
X14071191Y-14983714D02*
X14080715Y-15002762D01*
X14080715Y-15002762D02*
X14080715Y-15107524D01*
X14204524Y-15107524D02*
X14185477Y-15098000D01*
X14185477Y-15098000D02*
X14175953Y-15088476D01*
X14175953Y-15088476D02*
X14166429Y-15069428D01*
X14166429Y-15069428D02*
X14166429Y-15012286D01*
X14166429Y-15012286D02*
X14175953Y-14993238D01*
X14175953Y-14993238D02*
X14185477Y-14983714D01*
X14185477Y-14983714D02*
X14204524Y-14974190D01*
X14204524Y-14974190D02*
X14233096Y-14974190D01*
X14233096Y-14974190D02*
X14252143Y-14983714D01*
X14252143Y-14983714D02*
X14261667Y-14993238D01*
X14261667Y-14993238D02*
X14271191Y-15012286D01*
X14271191Y-15012286D02*
X14271191Y-15069428D01*
X14271191Y-15069428D02*
X14261667Y-15088476D01*
X14261667Y-15088476D02*
X14252143Y-15098000D01*
X14252143Y-15098000D02*
X14233096Y-15107524D01*
X14233096Y-15107524D02*
X14204524Y-15107524D01*
X14328334Y-14974190D02*
X14404524Y-14974190D01*
X14356905Y-14907524D02*
X14356905Y-15078952D01*
X14356905Y-15078952D02*
X14366429Y-15098000D01*
X14366429Y-15098000D02*
X14385477Y-15107524D01*
X14385477Y-15107524D02*
X14404524Y-15107524D01*
X14623572Y-14974190D02*
X14623572Y-15174190D01*
X14623572Y-14983714D02*
X14642619Y-14974190D01*
X14642619Y-14974190D02*
X14680715Y-14974190D01*
X14680715Y-14974190D02*
X14699762Y-14983714D01*
X14699762Y-14983714D02*
X14709286Y-14993238D01*
X14709286Y-14993238D02*
X14718810Y-15012286D01*
X14718810Y-15012286D02*
X14718810Y-15069428D01*
X14718810Y-15069428D02*
X14709286Y-15088476D01*
X14709286Y-15088476D02*
X14699762Y-15098000D01*
X14699762Y-15098000D02*
X14680715Y-15107524D01*
X14680715Y-15107524D02*
X14642619Y-15107524D01*
X14642619Y-15107524D02*
X14623572Y-15098000D01*
X14833096Y-15107524D02*
X14814048Y-15098000D01*
X14814048Y-15098000D02*
X14804524Y-15078952D01*
X14804524Y-15078952D02*
X14804524Y-14907524D01*
X14995000Y-15107524D02*
X14995000Y-15002762D01*
X14995000Y-15002762D02*
X14985477Y-14983714D01*
X14985477Y-14983714D02*
X14966429Y-14974190D01*
X14966429Y-14974190D02*
X14928334Y-14974190D01*
X14928334Y-14974190D02*
X14909286Y-14983714D01*
X14995000Y-15098000D02*
X14975953Y-15107524D01*
X14975953Y-15107524D02*
X14928334Y-15107524D01*
X14928334Y-15107524D02*
X14909286Y-15098000D01*
X14909286Y-15098000D02*
X14899762Y-15078952D01*
X14899762Y-15078952D02*
X14899762Y-15059905D01*
X14899762Y-15059905D02*
X14909286Y-15040857D01*
X14909286Y-15040857D02*
X14928334Y-15031333D01*
X14928334Y-15031333D02*
X14975953Y-15031333D01*
X14975953Y-15031333D02*
X14995000Y-15021809D01*
X15061667Y-14974190D02*
X15137858Y-14974190D01*
X15090239Y-14907524D02*
X15090239Y-15078952D01*
X15090239Y-15078952D02*
X15099762Y-15098000D01*
X15099762Y-15098000D02*
X15118810Y-15107524D01*
X15118810Y-15107524D02*
X15137858Y-15107524D01*
X15280715Y-15098000D02*
X15261667Y-15107524D01*
X15261667Y-15107524D02*
X15223572Y-15107524D01*
X15223572Y-15107524D02*
X15204524Y-15098000D01*
X15204524Y-15098000D02*
X15195000Y-15078952D01*
X15195000Y-15078952D02*
X15195000Y-15002762D01*
X15195000Y-15002762D02*
X15204524Y-14983714D01*
X15204524Y-14983714D02*
X15223572Y-14974190D01*
X15223572Y-14974190D02*
X15261667Y-14974190D01*
X15261667Y-14974190D02*
X15280715Y-14983714D01*
X15280715Y-14983714D02*
X15290239Y-15002762D01*
X15290239Y-15002762D02*
X15290239Y-15021809D01*
X15290239Y-15021809D02*
X15195000Y-15040857D01*
X15461667Y-15107524D02*
X15461667Y-14907524D01*
X15461667Y-15098000D02*
X15442620Y-15107524D01*
X15442620Y-15107524D02*
X15404524Y-15107524D01*
X15404524Y-15107524D02*
X15385477Y-15098000D01*
X15385477Y-15098000D02*
X15375953Y-15088476D01*
X15375953Y-15088476D02*
X15366429Y-15069428D01*
X15366429Y-15069428D02*
X15366429Y-15012286D01*
X15366429Y-15012286D02*
X15375953Y-14993238D01*
X15375953Y-14993238D02*
X15385477Y-14983714D01*
X15385477Y-14983714D02*
X15404524Y-14974190D01*
X15404524Y-14974190D02*
X15442620Y-14974190D01*
X15442620Y-14974190D02*
X15461667Y-14983714D01*
X15537858Y-15183714D02*
X15547381Y-15174190D01*
X15547381Y-15174190D02*
X15566429Y-15145619D01*
X15566429Y-15145619D02*
X15575953Y-15126571D01*
X15575953Y-15126571D02*
X15585477Y-15098000D01*
X15585477Y-15098000D02*
X15595000Y-15050381D01*
X15595000Y-15050381D02*
X15595000Y-15012286D01*
X15595000Y-15012286D02*
X15585477Y-14964667D01*
X15585477Y-14964667D02*
X15575953Y-14936095D01*
X15575953Y-14936095D02*
X15566429Y-14917048D01*
X15566429Y-14917048D02*
X15547381Y-14888476D01*
X15547381Y-14888476D02*
X15537858Y-14878952D01*
M02*
