%TF.GenerationSoftware,KiCad,Pcbnew,7.0.1*%
%TF.CreationDate,2023-04-21T09:18:26-07:00*%
%TF.ProjectId,lipo_drainer_schematic,6c69706f-5f64-4726-9169-6e65725f7363,rev?*%
%TF.SameCoordinates,Original*%
%TF.FileFunction,Soldermask,Top*%
%TF.FilePolarity,Negative*%
%FSLAX46Y46*%
G04 Gerber Fmt 4.6, Leading zero omitted, Abs format (unit mm)*
G04 Created by KiCad (PCBNEW 7.0.1) date 2023-04-21 09:18:26*
%MOMM*%
%LPD*%
G01*
G04 APERTURE LIST*
G04 Aperture macros list*
%AMRoundRect*
0 Rectangle with rounded corners*
0 $1 Rounding radius*
0 $2 $3 $4 $5 $6 $7 $8 $9 X,Y pos of 4 corners*
0 Add a 4 corners polygon primitive as box body*
4,1,4,$2,$3,$4,$5,$6,$7,$8,$9,$2,$3,0*
0 Add four circle primitives for the rounded corners*
1,1,$1+$1,$2,$3*
1,1,$1+$1,$4,$5*
1,1,$1+$1,$6,$7*
1,1,$1+$1,$8,$9*
0 Add four rect primitives between the rounded corners*
20,1,$1+$1,$2,$3,$4,$5,0*
20,1,$1+$1,$4,$5,$6,$7,0*
20,1,$1+$1,$6,$7,$8,$9,0*
20,1,$1+$1,$8,$9,$2,$3,0*%
G04 Aperture macros list end*
%ADD10R,1.700000X1.700000*%
%ADD11O,1.700000X1.700000*%
%ADD12R,3.200000X3.200000*%
%ADD13O,3.200000X3.200000*%
%ADD14C,3.200000*%
%ADD15R,1.905000X2.000000*%
%ADD16O,1.905000X2.000000*%
%ADD17RoundRect,0.250000X0.412500X0.650000X-0.412500X0.650000X-0.412500X-0.650000X0.412500X-0.650000X0*%
%ADD18RoundRect,0.250000X-0.450000X0.350000X-0.450000X-0.350000X0.450000X-0.350000X0.450000X0.350000X0*%
%ADD19RoundRect,0.150000X-0.150000X0.512500X-0.150000X-0.512500X0.150000X-0.512500X0.150000X0.512500X0*%
%ADD20RoundRect,0.150000X0.587500X0.150000X-0.587500X0.150000X-0.587500X-0.150000X0.587500X-0.150000X0*%
%ADD21RoundRect,0.500000X-0.500000X-0.500000X0.500000X-0.500000X0.500000X0.500000X-0.500000X0.500000X0*%
%ADD22RoundRect,0.250000X-0.650000X0.412500X-0.650000X-0.412500X0.650000X-0.412500X0.650000X0.412500X0*%
%ADD23R,2.000000X2.000000*%
%ADD24O,2.000000X2.000000*%
%ADD25RoundRect,0.250000X0.450000X-0.350000X0.450000X0.350000X-0.450000X0.350000X-0.450000X-0.350000X0*%
%ADD26RoundRect,0.500000X0.500000X-0.500000X0.500000X0.500000X-0.500000X0.500000X-0.500000X-0.500000X0*%
%ADD27RoundRect,0.250000X0.350000X0.450000X-0.350000X0.450000X-0.350000X-0.450000X0.350000X-0.450000X0*%
%ADD28RoundRect,0.250000X-0.412500X-0.650000X0.412500X-0.650000X0.412500X0.650000X-0.412500X0.650000X0*%
%ADD29RoundRect,0.500000X0.500000X0.500000X-0.500000X0.500000X-0.500000X-0.500000X0.500000X-0.500000X0*%
%ADD30RoundRect,0.250000X0.650000X-0.412500X0.650000X0.412500X-0.650000X0.412500X-0.650000X-0.412500X0*%
%ADD31O,1.800000X1.800000*%
%ADD32O,1.500000X1.500000*%
%ADD33R,1.700000X3.500000*%
%ADD34R,3.500000X1.700000*%
%ADD35RoundRect,0.250000X-0.350000X-0.450000X0.350000X-0.450000X0.350000X0.450000X-0.350000X0.450000X0*%
%ADD36RoundRect,0.250000X-0.350000X0.850000X-0.350000X-0.850000X0.350000X-0.850000X0.350000X0.850000X0*%
%ADD37RoundRect,0.249997X-2.650003X2.950003X-2.650003X-2.950003X2.650003X-2.950003X2.650003X2.950003X0*%
%ADD38RoundRect,0.875000X0.875000X-0.875000X0.875000X0.875000X-0.875000X0.875000X-0.875000X-0.875000X0*%
%ADD39C,3.500000*%
%ADD40R,1.050000X1.500000*%
%ADD41O,1.050000X1.500000*%
%ADD42R,2.000000X0.900000*%
%ADD43RoundRect,1.025000X-1.025000X1.025000X-1.025000X-1.025000X1.025000X-1.025000X1.025000X1.025000X0*%
%ADD44C,4.100000*%
%ADD45RoundRect,0.250000X-1.000000X-0.900000X1.000000X-0.900000X1.000000X0.900000X-1.000000X0.900000X0*%
%ADD46RoundRect,0.150000X0.150000X-0.587500X0.150000X0.587500X-0.150000X0.587500X-0.150000X-0.587500X0*%
%ADD47RoundRect,0.150000X-0.587500X-0.150000X0.587500X-0.150000X0.587500X0.150000X-0.587500X0.150000X0*%
G04 APERTURE END LIST*
D10*
%TO.C,J3*%
X135500000Y-100250000D03*
D11*
X138040000Y-100250000D03*
%TD*%
D12*
%TO.C,D3*%
X194000000Y-103620000D03*
D13*
X194000000Y-88380000D03*
%TD*%
D14*
%TO.C,SEHOLE*%
X206000000Y-134000000D03*
%TD*%
D15*
%TO.C,Q7*%
X103250000Y-65750000D03*
D16*
X105790000Y-65750000D03*
X108330000Y-65750000D03*
%TD*%
D17*
%TO.C,C1*%
X93875000Y-89000000D03*
X90750000Y-89000000D03*
%TD*%
D18*
%TO.C,R9*%
X138800000Y-95200000D03*
X138800000Y-97200000D03*
%TD*%
D19*
%TO.C,U3*%
X93875000Y-93225000D03*
X92925000Y-93225000D03*
X91975000Y-93225000D03*
X91975000Y-95500000D03*
X93875000Y-95500000D03*
%TD*%
D20*
%TO.C,Q1*%
X107875000Y-95000000D03*
X107875000Y-93100000D03*
X106000000Y-94050000D03*
%TD*%
D21*
%TO.C,SW1*%
X165500000Y-127750000D03*
X165500000Y-119750000D03*
%TD*%
D22*
%TO.C,C4*%
X131250000Y-83125000D03*
X131250000Y-86250000D03*
%TD*%
D23*
%TO.C,R23*%
X148250000Y-65750000D03*
D24*
X153330000Y-65750000D03*
%TD*%
D25*
%TO.C,R25*%
X135750000Y-85750000D03*
X135750000Y-83750000D03*
%TD*%
D18*
%TO.C,R18*%
X140250000Y-88750000D03*
X140250000Y-90750000D03*
%TD*%
D26*
%TO.C,SW4*%
X120750000Y-89250000D03*
X112750000Y-89250000D03*
%TD*%
D10*
%TO.C,J2*%
X187450000Y-78225000D03*
D11*
X189990000Y-78225000D03*
X192530000Y-78225000D03*
X195070000Y-78225000D03*
%TD*%
D27*
%TO.C,R7*%
X115750000Y-99000000D03*
X113750000Y-99000000D03*
%TD*%
D10*
%TO.C,J5*%
X124500000Y-80540000D03*
D11*
X124500000Y-78000000D03*
%TD*%
D25*
%TO.C,R10*%
X134300000Y-97200000D03*
X134300000Y-95200000D03*
%TD*%
D28*
%TO.C,C2*%
X94750000Y-98500000D03*
X97875000Y-98500000D03*
%TD*%
D29*
%TO.C,SW5*%
X155500000Y-119750000D03*
X155500000Y-127750000D03*
%TD*%
D14*
%TO.C,NWHOLE*%
X92000000Y-54000000D03*
%TD*%
D10*
%TO.C,J8*%
X90460000Y-74250000D03*
D11*
X93000000Y-74250000D03*
X95540000Y-74250000D03*
X98080000Y-74250000D03*
%TD*%
D30*
%TO.C,C3*%
X125300000Y-97825000D03*
X125300000Y-94700000D03*
%TD*%
D14*
%TO.C,NEHOLE*%
X206000000Y-54000000D03*
%TD*%
D20*
%TO.C,Q2*%
X99312500Y-94450000D03*
X99312500Y-92550000D03*
X97437500Y-93500000D03*
%TD*%
D31*
%TO.C,U2*%
X90530000Y-119585000D03*
D32*
X93560000Y-119285000D03*
X93560000Y-114435000D03*
D31*
X90530000Y-114135000D03*
D11*
X90400000Y-125750000D03*
D33*
X90400000Y-126650000D03*
D11*
X92940000Y-125750000D03*
D33*
X92940000Y-126650000D03*
D10*
X95480000Y-125750000D03*
D33*
X95480000Y-126650000D03*
D11*
X98020000Y-125750000D03*
D33*
X98020000Y-126650000D03*
D11*
X100560000Y-125750000D03*
D33*
X100560000Y-126650000D03*
D11*
X103100000Y-125750000D03*
D33*
X103100000Y-126650000D03*
D11*
X105640000Y-125750000D03*
D33*
X105640000Y-126650000D03*
D10*
X108180000Y-125750000D03*
D33*
X108180000Y-126650000D03*
D11*
X110720000Y-125750000D03*
D33*
X110720000Y-126650000D03*
D11*
X113260000Y-125750000D03*
D33*
X113260000Y-126650000D03*
D11*
X115800000Y-125750000D03*
D33*
X115800000Y-126650000D03*
D11*
X118340000Y-125750000D03*
D33*
X118340000Y-126650000D03*
D10*
X120880000Y-125750000D03*
D33*
X120880000Y-126650000D03*
D11*
X123420000Y-125750000D03*
D33*
X123420000Y-126650000D03*
D11*
X125960000Y-125750000D03*
D33*
X125960000Y-126650000D03*
D11*
X128500000Y-125750000D03*
D33*
X128500000Y-126650000D03*
D11*
X131040000Y-125750000D03*
D33*
X131040000Y-126650000D03*
D10*
X133580000Y-125750000D03*
D33*
X133580000Y-126650000D03*
D11*
X136120000Y-125750000D03*
D33*
X136120000Y-126650000D03*
D11*
X138660000Y-125750000D03*
D33*
X138660000Y-126650000D03*
D11*
X138660000Y-107970000D03*
D33*
X138660000Y-107070000D03*
D11*
X136120000Y-107970000D03*
D33*
X136120000Y-107070000D03*
D10*
X133580000Y-107970000D03*
D33*
X133580000Y-107070000D03*
D11*
X131040000Y-107970000D03*
D33*
X131040000Y-107070000D03*
D11*
X128500000Y-107970000D03*
D33*
X128500000Y-107070000D03*
D11*
X125960000Y-107970000D03*
D33*
X125960000Y-107070000D03*
D11*
X123420000Y-107970000D03*
D33*
X123420000Y-107070000D03*
D10*
X120880000Y-107970000D03*
D33*
X120880000Y-107070000D03*
D11*
X118340000Y-107970000D03*
D33*
X118340000Y-107070000D03*
D11*
X115800000Y-107970000D03*
D33*
X115800000Y-107070000D03*
D11*
X113260000Y-107970000D03*
D33*
X113260000Y-107070000D03*
D11*
X110720000Y-107970000D03*
D33*
X110720000Y-107070000D03*
D10*
X108180000Y-107970000D03*
D33*
X108180000Y-107070000D03*
D11*
X105640000Y-107970000D03*
D33*
X105640000Y-107070000D03*
D11*
X103100000Y-107970000D03*
D33*
X103100000Y-107070000D03*
D11*
X100560000Y-107970000D03*
D33*
X100560000Y-107070000D03*
D11*
X98020000Y-107970000D03*
D33*
X98020000Y-107070000D03*
D10*
X95480000Y-107970000D03*
D33*
X95480000Y-107070000D03*
D11*
X92940000Y-107970000D03*
D33*
X92940000Y-107070000D03*
D11*
X90400000Y-107970000D03*
D33*
X90400000Y-107070000D03*
D11*
X138430000Y-119400000D03*
D34*
X139330000Y-119400000D03*
D10*
X138430000Y-116860000D03*
D34*
X139330000Y-116860000D03*
D11*
X138430000Y-114320000D03*
D34*
X139330000Y-114320000D03*
%TD*%
D10*
%TO.C,J4*%
X167880000Y-83250000D03*
D11*
X170420000Y-83250000D03*
X172960000Y-83250000D03*
X175500000Y-83250000D03*
%TD*%
D29*
%TO.C,SW2*%
X175500000Y-119750000D03*
X175500000Y-127750000D03*
%TD*%
D17*
%TO.C,C6*%
X151125000Y-88200000D03*
X148000000Y-88200000D03*
%TD*%
D35*
%TO.C,R8*%
X109500000Y-78250000D03*
X111500000Y-78250000D03*
%TD*%
D23*
%TO.C,R24*%
X178250000Y-65750000D03*
D24*
X183330000Y-65750000D03*
%TD*%
D18*
%TO.C,R16*%
X133250000Y-77750000D03*
X133250000Y-79750000D03*
%TD*%
D35*
%TO.C,R17*%
X127750000Y-80250000D03*
X129750000Y-80250000D03*
%TD*%
D18*
%TO.C,R14*%
X131250000Y-88750000D03*
X131250000Y-90750000D03*
%TD*%
D27*
%TO.C,R21*%
X96625000Y-82250000D03*
X94625000Y-82250000D03*
%TD*%
D36*
%TO.C,U1*%
X151205000Y-91425000D03*
D37*
X148925000Y-97725000D03*
D36*
X146645000Y-91425000D03*
%TD*%
D18*
%TO.C,R2*%
X102875000Y-92500000D03*
X102875000Y-94500000D03*
%TD*%
D25*
%TO.C,R15*%
X126750000Y-90750000D03*
X126750000Y-88750000D03*
%TD*%
D38*
%TO.C,F1*%
X202500000Y-105750000D03*
X202500000Y-98130000D03*
D39*
X202500000Y-79160000D03*
X202500000Y-71540000D03*
%TD*%
D35*
%TO.C,R26*%
X169750000Y-117250000D03*
X171750000Y-117250000D03*
%TD*%
D27*
%TO.C,R1*%
X107875000Y-98000000D03*
X105875000Y-98000000D03*
%TD*%
D40*
%TO.C,J7*%
X94270000Y-66000000D03*
D41*
X93000000Y-66000000D03*
X91730000Y-66000000D03*
%TD*%
D15*
%TO.C,Q11*%
X163250000Y-65750000D03*
D16*
X165790000Y-65750000D03*
X168330000Y-65750000D03*
%TD*%
D25*
%TO.C,R19*%
X135750000Y-90750000D03*
X135750000Y-88750000D03*
%TD*%
D35*
%TO.C,R3*%
X100875000Y-98000000D03*
X102875000Y-98000000D03*
%TD*%
D42*
%TO.C,J1*%
X199000000Y-113400000D03*
X199000000Y-126900000D03*
D43*
X193000000Y-116550000D03*
D44*
X193000000Y-123750000D03*
%TD*%
D45*
%TO.C,D1*%
X147000000Y-81250000D03*
X151300000Y-81250000D03*
%TD*%
D23*
%TO.C,R22*%
X118250000Y-65750000D03*
D24*
X123330000Y-65750000D03*
%TD*%
D46*
%TO.C,U4*%
X117850000Y-99000000D03*
X119750000Y-99000000D03*
X118800000Y-97125000D03*
%TD*%
D47*
%TO.C,Q5*%
X111562500Y-81300000D03*
X111562500Y-83200000D03*
X113437500Y-82250000D03*
%TD*%
D15*
%TO.C,Q8*%
X133250000Y-65750000D03*
D16*
X135790000Y-65750000D03*
X138330000Y-65750000D03*
%TD*%
D46*
%TO.C,Q9*%
X139850000Y-85250000D03*
X141750000Y-85250000D03*
X140800000Y-83375000D03*
%TD*%
D15*
%TO.C,Q10*%
X193250000Y-65750000D03*
D16*
X195790000Y-65750000D03*
X198330000Y-65750000D03*
%TD*%
D29*
%TO.C,SW3*%
X185500000Y-119750000D03*
X185500000Y-127750000D03*
%TD*%
D46*
%TO.C,Q6*%
X125350000Y-85250000D03*
X127250000Y-85250000D03*
X126300000Y-83375000D03*
%TD*%
%TO.C,U5*%
X99225000Y-82250000D03*
X101125000Y-82250000D03*
X100175000Y-80375000D03*
%TD*%
D14*
%TO.C,SWHOLE*%
X92000000Y-134000000D03*
%TD*%
D10*
%TO.C,J6*%
X91650000Y-79500000D03*
D11*
X91650000Y-82040000D03*
%TD*%
D27*
%TO.C,R12*%
X116000000Y-78250000D03*
X114000000Y-78250000D03*
%TD*%
%TO.C,R20*%
X139250000Y-80250000D03*
X137250000Y-80250000D03*
%TD*%
D18*
%TO.C,R11*%
X129800000Y-95200000D03*
X129800000Y-97200000D03*
%TD*%
D35*
%TO.C,R13*%
X116000000Y-82750000D03*
X118000000Y-82750000D03*
%TD*%
D28*
%TO.C,C5*%
X146475000Y-85000000D03*
X149600000Y-85000000D03*
%TD*%
M02*
