%TF.GenerationSoftware,KiCad,Pcbnew,7.0.1*%
%TF.CreationDate,2023-04-21T09:20:27-07:00*%
%TF.ProjectId,lipo_drainer_schematic,6c69706f-5f64-4726-9169-6e65725f7363,rev?*%
%TF.SameCoordinates,Original*%
%TF.FileFunction,Drillmap*%
%TF.FilePolarity,Positive*%
%FSLAX45Y45*%
G04 Gerber Fmt 4.5, Leading zero omitted, Abs format (unit mm)*
G04 Created by KiCad (PCBNEW 7.0.1) date 2023-04-21 09:20:27*
%MOMM*%
%LPD*%
G01*
G04 APERTURE LIST*
%ADD10C,0.100000*%
%ADD11C,0.200000*%
%ADD12C,0.040000*%
%ADD13C,0.060000*%
%ADD14C,0.075000*%
%ADD15C,0.102000*%
%ADD16C,0.110000*%
%ADD17C,0.150000*%
%ADD18C,0.160000*%
%ADD19C,0.254000*%
%ADD20C,0.270000*%
G04 APERTURE END LIST*
D10*
X8800000Y-5000000D02*
X21000000Y-5000000D01*
X21000000Y-13800000D01*
X8800000Y-13800000D01*
X8800000Y-5000000D01*
D11*
D12*
X9105000Y-10305000D02*
X9145000Y-10345000D01*
X9145000Y-10305000D02*
X9105000Y-10345000D01*
X9905000Y-10255000D02*
X9945000Y-10295000D01*
X9945000Y-10255000D02*
X9905000Y-10295000D01*
X9930000Y-10030000D02*
X9970000Y-10070000D01*
X9970000Y-10030000D02*
X9930000Y-10070000D01*
X10055000Y-9605000D02*
X10095000Y-9645000D01*
X10095000Y-9605000D02*
X10055000Y-9645000D01*
X10630000Y-8705000D02*
X10670000Y-8745000D01*
X10670000Y-8705000D02*
X10630000Y-8745000D01*
X10880000Y-9030000D02*
X10920000Y-9070000D01*
X10920000Y-9030000D02*
X10880000Y-9070000D01*
X10955000Y-9805000D02*
X10995000Y-9845000D01*
X10995000Y-9805000D02*
X10955000Y-9845000D01*
X11130000Y-8605000D02*
X11170000Y-8645000D01*
X11170000Y-8605000D02*
X11130000Y-8645000D01*
X11680000Y-10355000D02*
X11720000Y-10395000D01*
X11720000Y-10355000D02*
X11680000Y-10395000D01*
X11955000Y-9540000D02*
X11995000Y-9580000D01*
X11995000Y-9540000D02*
X11955000Y-9580000D01*
X11980000Y-10430000D02*
X12020000Y-10470000D01*
X12020000Y-10430000D02*
X11980000Y-10470000D01*
X12055000Y-9280000D02*
X12095000Y-9320000D01*
X12095000Y-9280000D02*
X12055000Y-9320000D01*
X12380000Y-9180000D02*
X12420000Y-9220000D01*
X12420000Y-9180000D02*
X12380000Y-9220000D01*
X12880000Y-9880000D02*
X12920000Y-9920000D01*
X12920000Y-9880000D02*
X12880000Y-9920000D01*
X12980000Y-7780000D02*
X13020000Y-7820000D01*
X13020000Y-7780000D02*
X12980000Y-7820000D01*
X13305000Y-12380000D02*
X13345000Y-12420000D01*
X13345000Y-12380000D02*
X13305000Y-12420000D01*
X13605000Y-7755000D02*
X13645000Y-7795000D01*
X13645000Y-7755000D02*
X13605000Y-7795000D01*
X13805000Y-7105000D02*
X13845000Y-7145000D01*
X13845000Y-7105000D02*
X13805000Y-7145000D01*
X14280000Y-8100000D02*
X14320000Y-8140000D01*
X14320000Y-8100000D02*
X14280000Y-8140000D01*
X20480000Y-6130000D02*
X20520000Y-6170000D01*
X20520000Y-6130000D02*
X20480000Y-6170000D01*
D13*
X19930000Y-11340000D02*
G75*
G03*
X19930000Y-11340000I-30000J0D01*
G01*
D11*
X19955000Y-11310000D02*
X19845000Y-11310000D01*
X19845000Y-11310000D02*
G75*
G03*
X19845000Y-11370000I0J-30000D01*
G01*
X19845000Y-11370000D02*
X19955000Y-11370000D01*
X19955000Y-11370000D02*
G75*
G03*
X19955000Y-11310000I0J30000D01*
G01*
D13*
X19930000Y-12690000D02*
G75*
G03*
X19930000Y-12690000I-30000J0D01*
G01*
D11*
X19955000Y-12660000D02*
X19845000Y-12660000D01*
X19845000Y-12660000D02*
G75*
G03*
X19845000Y-12720000I0J-30000D01*
G01*
X19845000Y-12720000D02*
X19955000Y-12720000D01*
X19955000Y-12720000D02*
G75*
G03*
X19955000Y-12660000I0J30000D01*
G01*
D14*
X9173000Y-6562500D02*
X9173000Y-6637500D01*
X9135500Y-6600000D02*
X9210500Y-6600000D01*
X9300000Y-6562500D02*
X9300000Y-6637500D01*
X9262500Y-6600000D02*
X9337500Y-6600000D01*
X9427000Y-6562500D02*
X9427000Y-6637500D01*
X9389500Y-6600000D02*
X9464500Y-6600000D01*
D10*
X9135356Y-9910356D02*
X9135356Y-9839644D01*
X9064644Y-9839644D01*
X9064644Y-9910356D01*
X9135356Y-9910356D01*
X9760356Y-8785356D02*
X9760356Y-8714644D01*
X9689644Y-8714644D01*
X9689644Y-8785356D01*
X9760356Y-8785356D01*
X11360356Y-6610356D02*
X11360356Y-6539644D01*
X11289644Y-6539644D01*
X11289644Y-6610356D01*
X11360356Y-6610356D01*
X12485356Y-10160356D02*
X12485356Y-10089644D01*
X12414644Y-10089644D01*
X12414644Y-10160356D01*
X12485356Y-10160356D01*
X12885356Y-6610356D02*
X12885356Y-6539644D01*
X12814644Y-6539644D01*
X12814644Y-6610356D01*
X12885356Y-6610356D01*
X14360356Y-6610356D02*
X14360356Y-6539644D01*
X14289644Y-6539644D01*
X14289644Y-6610356D01*
X14360356Y-6610356D01*
X15860356Y-6610356D02*
X15860356Y-6539644D01*
X15789644Y-6539644D01*
X15789644Y-6610356D01*
X15860356Y-6610356D01*
X17385356Y-6610356D02*
X17385356Y-6539644D01*
X17314644Y-6539644D01*
X17314644Y-6610356D01*
X17385356Y-6610356D01*
X18860356Y-6610356D02*
X18860356Y-6539644D01*
X18789644Y-6539644D01*
X18789644Y-6610356D01*
X18860356Y-6610356D01*
X9046000Y-7475000D02*
X9096000Y-7425000D01*
X9046000Y-7375000D01*
X8996000Y-7425000D01*
X9046000Y-7475000D01*
X9165000Y-8000000D02*
X9215000Y-7950000D01*
X9165000Y-7900000D01*
X9115000Y-7950000D01*
X9165000Y-8000000D01*
X9165000Y-8254000D02*
X9215000Y-8204000D01*
X9165000Y-8154000D01*
X9115000Y-8204000D01*
X9165000Y-8254000D01*
X9300000Y-7475000D02*
X9350000Y-7425000D01*
X9300000Y-7375000D01*
X9250000Y-7425000D01*
X9300000Y-7475000D01*
X9554000Y-7475000D02*
X9604000Y-7425000D01*
X9554000Y-7375000D01*
X9504000Y-7425000D01*
X9554000Y-7475000D01*
X9808000Y-7475000D02*
X9858000Y-7425000D01*
X9808000Y-7375000D01*
X9758000Y-7425000D01*
X9808000Y-7475000D01*
X12450000Y-7850000D02*
X12500000Y-7800000D01*
X12450000Y-7750000D01*
X12400000Y-7800000D01*
X12450000Y-7850000D01*
X12450000Y-8104000D02*
X12500000Y-8054000D01*
X12450000Y-8004000D01*
X12400000Y-8054000D01*
X12450000Y-8104000D01*
X13550000Y-10075000D02*
X13600000Y-10025000D01*
X13550000Y-9975000D01*
X13500000Y-10025000D01*
X13550000Y-10075000D01*
X13804000Y-10075000D02*
X13854000Y-10025000D01*
X13804000Y-9975000D01*
X13754000Y-10025000D01*
X13804000Y-10075000D01*
X16788000Y-8375000D02*
X16838000Y-8325000D01*
X16788000Y-8275000D01*
X16738000Y-8325000D01*
X16788000Y-8375000D01*
X17042000Y-8375000D02*
X17092000Y-8325000D01*
X17042000Y-8275000D01*
X16992000Y-8325000D01*
X17042000Y-8375000D01*
X17296000Y-8375000D02*
X17346000Y-8325000D01*
X17296000Y-8275000D01*
X17246000Y-8325000D01*
X17296000Y-8375000D01*
X17550000Y-8375000D02*
X17600000Y-8325000D01*
X17550000Y-8275000D01*
X17500000Y-8325000D01*
X17550000Y-8375000D01*
X18745000Y-7872500D02*
X18795000Y-7822500D01*
X18745000Y-7772500D01*
X18695000Y-7822500D01*
X18745000Y-7872500D01*
X18999000Y-7872500D02*
X19049000Y-7822500D01*
X18999000Y-7772500D01*
X18949000Y-7822500D01*
X18999000Y-7872500D01*
X19253000Y-7872500D02*
X19303000Y-7822500D01*
X19253000Y-7772500D01*
X19203000Y-7822500D01*
X19253000Y-7872500D01*
X19507000Y-7872500D02*
X19557000Y-7822500D01*
X19507000Y-7772500D01*
X19457000Y-7822500D01*
X19507000Y-7872500D01*
D15*
X8989000Y-10746000D02*
X9091000Y-10848000D01*
X9091000Y-10746000D02*
X8989000Y-10848000D01*
X9091000Y-10797000D02*
G75*
G03*
X9091000Y-10797000I-51000J0D01*
G01*
X8989000Y-12524000D02*
X9091000Y-12626000D01*
X9091000Y-12524000D02*
X8989000Y-12626000D01*
X9091000Y-12575000D02*
G75*
G03*
X9091000Y-12575000I-51000J0D01*
G01*
X9243000Y-10746000D02*
X9345000Y-10848000D01*
X9345000Y-10746000D02*
X9243000Y-10848000D01*
X9345000Y-10797000D02*
G75*
G03*
X9345000Y-10797000I-51000J0D01*
G01*
X9243000Y-12524000D02*
X9345000Y-12626000D01*
X9345000Y-12524000D02*
X9243000Y-12626000D01*
X9345000Y-12575000D02*
G75*
G03*
X9345000Y-12575000I-51000J0D01*
G01*
X9497000Y-10746000D02*
X9599000Y-10848000D01*
X9599000Y-10746000D02*
X9497000Y-10848000D01*
X9599000Y-10797000D02*
G75*
G03*
X9599000Y-10797000I-51000J0D01*
G01*
X9497000Y-12524000D02*
X9599000Y-12626000D01*
X9599000Y-12524000D02*
X9497000Y-12626000D01*
X9599000Y-12575000D02*
G75*
G03*
X9599000Y-12575000I-51000J0D01*
G01*
X9751000Y-10746000D02*
X9853000Y-10848000D01*
X9853000Y-10746000D02*
X9751000Y-10848000D01*
X9853000Y-10797000D02*
G75*
G03*
X9853000Y-10797000I-51000J0D01*
G01*
X9751000Y-12524000D02*
X9853000Y-12626000D01*
X9853000Y-12524000D02*
X9751000Y-12626000D01*
X9853000Y-12575000D02*
G75*
G03*
X9853000Y-12575000I-51000J0D01*
G01*
X10005000Y-10746000D02*
X10107000Y-10848000D01*
X10107000Y-10746000D02*
X10005000Y-10848000D01*
X10107000Y-10797000D02*
G75*
G03*
X10107000Y-10797000I-51000J0D01*
G01*
X10005000Y-12524000D02*
X10107000Y-12626000D01*
X10107000Y-12524000D02*
X10005000Y-12626000D01*
X10107000Y-12575000D02*
G75*
G03*
X10107000Y-12575000I-51000J0D01*
G01*
X10259000Y-10746000D02*
X10361000Y-10848000D01*
X10361000Y-10746000D02*
X10259000Y-10848000D01*
X10361000Y-10797000D02*
G75*
G03*
X10361000Y-10797000I-51000J0D01*
G01*
X10259000Y-12524000D02*
X10361000Y-12626000D01*
X10361000Y-12524000D02*
X10259000Y-12626000D01*
X10361000Y-12575000D02*
G75*
G03*
X10361000Y-12575000I-51000J0D01*
G01*
X10513000Y-10746000D02*
X10615000Y-10848000D01*
X10615000Y-10746000D02*
X10513000Y-10848000D01*
X10615000Y-10797000D02*
G75*
G03*
X10615000Y-10797000I-51000J0D01*
G01*
X10513000Y-12524000D02*
X10615000Y-12626000D01*
X10615000Y-12524000D02*
X10513000Y-12626000D01*
X10615000Y-12575000D02*
G75*
G03*
X10615000Y-12575000I-51000J0D01*
G01*
X10767000Y-10746000D02*
X10869000Y-10848000D01*
X10869000Y-10746000D02*
X10767000Y-10848000D01*
X10869000Y-10797000D02*
G75*
G03*
X10869000Y-10797000I-51000J0D01*
G01*
X10767000Y-12524000D02*
X10869000Y-12626000D01*
X10869000Y-12524000D02*
X10767000Y-12626000D01*
X10869000Y-12575000D02*
G75*
G03*
X10869000Y-12575000I-51000J0D01*
G01*
X11021000Y-10746000D02*
X11123000Y-10848000D01*
X11123000Y-10746000D02*
X11021000Y-10848000D01*
X11123000Y-10797000D02*
G75*
G03*
X11123000Y-10797000I-51000J0D01*
G01*
X11021000Y-12524000D02*
X11123000Y-12626000D01*
X11123000Y-12524000D02*
X11021000Y-12626000D01*
X11123000Y-12575000D02*
G75*
G03*
X11123000Y-12575000I-51000J0D01*
G01*
X11275000Y-10746000D02*
X11377000Y-10848000D01*
X11377000Y-10746000D02*
X11275000Y-10848000D01*
X11377000Y-10797000D02*
G75*
G03*
X11377000Y-10797000I-51000J0D01*
G01*
X11275000Y-12524000D02*
X11377000Y-12626000D01*
X11377000Y-12524000D02*
X11275000Y-12626000D01*
X11377000Y-12575000D02*
G75*
G03*
X11377000Y-12575000I-51000J0D01*
G01*
X11529000Y-10746000D02*
X11631000Y-10848000D01*
X11631000Y-10746000D02*
X11529000Y-10848000D01*
X11631000Y-10797000D02*
G75*
G03*
X11631000Y-10797000I-51000J0D01*
G01*
X11529000Y-12524000D02*
X11631000Y-12626000D01*
X11631000Y-12524000D02*
X11529000Y-12626000D01*
X11631000Y-12575000D02*
G75*
G03*
X11631000Y-12575000I-51000J0D01*
G01*
X11783000Y-10746000D02*
X11885000Y-10848000D01*
X11885000Y-10746000D02*
X11783000Y-10848000D01*
X11885000Y-10797000D02*
G75*
G03*
X11885000Y-10797000I-51000J0D01*
G01*
X11783000Y-12524000D02*
X11885000Y-12626000D01*
X11885000Y-12524000D02*
X11783000Y-12626000D01*
X11885000Y-12575000D02*
G75*
G03*
X11885000Y-12575000I-51000J0D01*
G01*
X12037000Y-10746000D02*
X12139000Y-10848000D01*
X12139000Y-10746000D02*
X12037000Y-10848000D01*
X12139000Y-10797000D02*
G75*
G03*
X12139000Y-10797000I-51000J0D01*
G01*
X12037000Y-12524000D02*
X12139000Y-12626000D01*
X12139000Y-12524000D02*
X12037000Y-12626000D01*
X12139000Y-12575000D02*
G75*
G03*
X12139000Y-12575000I-51000J0D01*
G01*
X12291000Y-10746000D02*
X12393000Y-10848000D01*
X12393000Y-10746000D02*
X12291000Y-10848000D01*
X12393000Y-10797000D02*
G75*
G03*
X12393000Y-10797000I-51000J0D01*
G01*
X12291000Y-12524000D02*
X12393000Y-12626000D01*
X12393000Y-12524000D02*
X12291000Y-12626000D01*
X12393000Y-12575000D02*
G75*
G03*
X12393000Y-12575000I-51000J0D01*
G01*
X12545000Y-10746000D02*
X12647000Y-10848000D01*
X12647000Y-10746000D02*
X12545000Y-10848000D01*
X12647000Y-10797000D02*
G75*
G03*
X12647000Y-10797000I-51000J0D01*
G01*
X12545000Y-12524000D02*
X12647000Y-12626000D01*
X12647000Y-12524000D02*
X12545000Y-12626000D01*
X12647000Y-12575000D02*
G75*
G03*
X12647000Y-12575000I-51000J0D01*
G01*
X12799000Y-10746000D02*
X12901000Y-10848000D01*
X12901000Y-10746000D02*
X12799000Y-10848000D01*
X12901000Y-10797000D02*
G75*
G03*
X12901000Y-10797000I-51000J0D01*
G01*
X12799000Y-12524000D02*
X12901000Y-12626000D01*
X12901000Y-12524000D02*
X12799000Y-12626000D01*
X12901000Y-12575000D02*
G75*
G03*
X12901000Y-12575000I-51000J0D01*
G01*
X13053000Y-10746000D02*
X13155000Y-10848000D01*
X13155000Y-10746000D02*
X13053000Y-10848000D01*
X13155000Y-10797000D02*
G75*
G03*
X13155000Y-10797000I-51000J0D01*
G01*
X13053000Y-12524000D02*
X13155000Y-12626000D01*
X13155000Y-12524000D02*
X13053000Y-12626000D01*
X13155000Y-12575000D02*
G75*
G03*
X13155000Y-12575000I-51000J0D01*
G01*
X13307000Y-10746000D02*
X13409000Y-10848000D01*
X13409000Y-10746000D02*
X13307000Y-10848000D01*
X13409000Y-10797000D02*
G75*
G03*
X13409000Y-10797000I-51000J0D01*
G01*
X13307000Y-12524000D02*
X13409000Y-12626000D01*
X13409000Y-12524000D02*
X13307000Y-12626000D01*
X13409000Y-12575000D02*
G75*
G03*
X13409000Y-12575000I-51000J0D01*
G01*
X13561000Y-10746000D02*
X13663000Y-10848000D01*
X13663000Y-10746000D02*
X13561000Y-10848000D01*
X13663000Y-10797000D02*
G75*
G03*
X13663000Y-10797000I-51000J0D01*
G01*
X13561000Y-12524000D02*
X13663000Y-12626000D01*
X13663000Y-12524000D02*
X13561000Y-12626000D01*
X13663000Y-12575000D02*
G75*
G03*
X13663000Y-12575000I-51000J0D01*
G01*
X13792000Y-11381000D02*
X13894000Y-11483000D01*
X13894000Y-11381000D02*
X13792000Y-11483000D01*
X13894000Y-11432000D02*
G75*
G03*
X13894000Y-11432000I-51000J0D01*
G01*
X13792000Y-11635000D02*
X13894000Y-11737000D01*
X13894000Y-11635000D02*
X13792000Y-11737000D01*
X13894000Y-11686000D02*
G75*
G03*
X13894000Y-11686000I-51000J0D01*
G01*
X13792000Y-11889000D02*
X13894000Y-11991000D01*
X13894000Y-11889000D02*
X13792000Y-11991000D01*
X13894000Y-11940000D02*
G75*
G03*
X13894000Y-11940000I-51000J0D01*
G01*
X13815000Y-10746000D02*
X13917000Y-10848000D01*
X13917000Y-10746000D02*
X13815000Y-10848000D01*
X13917000Y-10797000D02*
G75*
G03*
X13917000Y-10797000I-51000J0D01*
G01*
X13815000Y-12524000D02*
X13917000Y-12626000D01*
X13917000Y-12524000D02*
X13815000Y-12626000D01*
X13917000Y-12575000D02*
G75*
G03*
X13917000Y-12575000I-51000J0D01*
G01*
D16*
X10270000Y-6520000D02*
X10380000Y-6630000D01*
X10380000Y-6520000D02*
X10270000Y-6630000D01*
X10325000Y-6520000D02*
X10325000Y-6630000D01*
X10270000Y-6575000D02*
X10380000Y-6575000D01*
X10524000Y-6520000D02*
X10634000Y-6630000D01*
X10634000Y-6520000D02*
X10524000Y-6630000D01*
X10579000Y-6520000D02*
X10579000Y-6630000D01*
X10524000Y-6575000D02*
X10634000Y-6575000D01*
X10778000Y-6520000D02*
X10888000Y-6630000D01*
X10888000Y-6520000D02*
X10778000Y-6630000D01*
X10833000Y-6520000D02*
X10833000Y-6630000D01*
X10778000Y-6575000D02*
X10888000Y-6575000D01*
X11770000Y-6520000D02*
X11880000Y-6630000D01*
X11880000Y-6520000D02*
X11770000Y-6630000D01*
X11825000Y-6520000D02*
X11825000Y-6630000D01*
X11770000Y-6575000D02*
X11880000Y-6575000D01*
X12278000Y-6520000D02*
X12388000Y-6630000D01*
X12388000Y-6520000D02*
X12278000Y-6630000D01*
X12333000Y-6520000D02*
X12333000Y-6630000D01*
X12278000Y-6575000D02*
X12388000Y-6575000D01*
X13270000Y-6520000D02*
X13380000Y-6630000D01*
X13380000Y-6520000D02*
X13270000Y-6630000D01*
X13325000Y-6520000D02*
X13325000Y-6630000D01*
X13270000Y-6575000D02*
X13380000Y-6575000D01*
X13524000Y-6520000D02*
X13634000Y-6630000D01*
X13634000Y-6520000D02*
X13524000Y-6630000D01*
X13579000Y-6520000D02*
X13579000Y-6630000D01*
X13524000Y-6575000D02*
X13634000Y-6575000D01*
X13778000Y-6520000D02*
X13888000Y-6630000D01*
X13888000Y-6520000D02*
X13778000Y-6630000D01*
X13833000Y-6520000D02*
X13833000Y-6630000D01*
X13778000Y-6575000D02*
X13888000Y-6575000D01*
X14770000Y-6520000D02*
X14880000Y-6630000D01*
X14880000Y-6520000D02*
X14770000Y-6630000D01*
X14825000Y-6520000D02*
X14825000Y-6630000D01*
X14770000Y-6575000D02*
X14880000Y-6575000D01*
X15278000Y-6520000D02*
X15388000Y-6630000D01*
X15388000Y-6520000D02*
X15278000Y-6630000D01*
X15333000Y-6520000D02*
X15333000Y-6630000D01*
X15278000Y-6575000D02*
X15388000Y-6575000D01*
X16270000Y-6520000D02*
X16380000Y-6630000D01*
X16380000Y-6520000D02*
X16270000Y-6630000D01*
X16325000Y-6520000D02*
X16325000Y-6630000D01*
X16270000Y-6575000D02*
X16380000Y-6575000D01*
X16524000Y-6520000D02*
X16634000Y-6630000D01*
X16634000Y-6520000D02*
X16524000Y-6630000D01*
X16579000Y-6520000D02*
X16579000Y-6630000D01*
X16524000Y-6575000D02*
X16634000Y-6575000D01*
X16778000Y-6520000D02*
X16888000Y-6630000D01*
X16888000Y-6520000D02*
X16778000Y-6630000D01*
X16833000Y-6520000D02*
X16833000Y-6630000D01*
X16778000Y-6575000D02*
X16888000Y-6575000D01*
X17770000Y-6520000D02*
X17880000Y-6630000D01*
X17880000Y-6520000D02*
X17770000Y-6630000D01*
X17825000Y-6520000D02*
X17825000Y-6630000D01*
X17770000Y-6575000D02*
X17880000Y-6575000D01*
X18278000Y-6520000D02*
X18388000Y-6630000D01*
X18388000Y-6520000D02*
X18278000Y-6630000D01*
X18333000Y-6520000D02*
X18333000Y-6630000D01*
X18278000Y-6575000D02*
X18388000Y-6575000D01*
X19270000Y-6520000D02*
X19380000Y-6630000D01*
X19380000Y-6520000D02*
X19270000Y-6630000D01*
X19325000Y-6520000D02*
X19325000Y-6630000D01*
X19270000Y-6575000D02*
X19380000Y-6575000D01*
X19524000Y-6520000D02*
X19634000Y-6630000D01*
X19634000Y-6520000D02*
X19524000Y-6630000D01*
X19579000Y-6520000D02*
X19579000Y-6630000D01*
X19524000Y-6575000D02*
X19634000Y-6575000D01*
X19778000Y-6520000D02*
X19888000Y-6630000D01*
X19888000Y-6520000D02*
X19778000Y-6630000D01*
X19833000Y-6520000D02*
X19833000Y-6630000D01*
X19778000Y-6575000D02*
X19888000Y-6575000D01*
D17*
X9975000Y-5375000D02*
X10125000Y-5525000D01*
X10125000Y-5375000D02*
X9975000Y-5525000D01*
X10103034Y-5503034D02*
X10103034Y-5396967D01*
X9996967Y-5396967D01*
X9996967Y-5503034D01*
X10103034Y-5503034D01*
X10781198Y-5198477D02*
X10931198Y-5348477D01*
X10931198Y-5198477D02*
X10781198Y-5348477D01*
X10909232Y-5326511D02*
X10909232Y-5220444D01*
X10803165Y-5220444D01*
X10803165Y-5326511D01*
X10909232Y-5326511D01*
X11781198Y-5198477D02*
X11931198Y-5348477D01*
X11931198Y-5198477D02*
X11781198Y-5348477D01*
X11909231Y-5326511D02*
X11909231Y-5220444D01*
X11803164Y-5220444D01*
X11803164Y-5326511D01*
X11909231Y-5326511D01*
X12725000Y-13125000D02*
X12875000Y-13275000D01*
X12875000Y-13125000D02*
X12725000Y-13275000D01*
X12853033Y-13253033D02*
X12853033Y-13146966D01*
X12746966Y-13146966D01*
X12746966Y-13253033D01*
X12853033Y-13253033D01*
X12781198Y-5198477D02*
X12931198Y-5348477D01*
X12931198Y-5198477D02*
X12781198Y-5348477D01*
X12909231Y-5326511D02*
X12909231Y-5220444D01*
X12803164Y-5220444D01*
X12803164Y-5326511D01*
X12909231Y-5326511D01*
X13781198Y-5198477D02*
X13931198Y-5348477D01*
X13931198Y-5198477D02*
X13781198Y-5348477D01*
X13909231Y-5326511D02*
X13909231Y-5220444D01*
X13803164Y-5220444D01*
X13803164Y-5326511D01*
X13909231Y-5326511D01*
X13850000Y-13350000D02*
X14000000Y-13500000D01*
X14000000Y-13350000D02*
X13850000Y-13500000D01*
X13978033Y-13478033D02*
X13978033Y-13371966D01*
X13871966Y-13371966D01*
X13871966Y-13478033D01*
X13978033Y-13478033D01*
X14245000Y-10485000D02*
X14395000Y-10635000D01*
X14395000Y-10485000D02*
X14245000Y-10635000D01*
X14373033Y-10613034D02*
X14373033Y-10506967D01*
X14266966Y-10506967D01*
X14266966Y-10613034D01*
X14373033Y-10613034D01*
X14685000Y-11625000D02*
X14835000Y-11775000D01*
X14835000Y-11625000D02*
X14685000Y-11775000D01*
X14813033Y-11753033D02*
X14813033Y-11646966D01*
X14706966Y-11646966D01*
X14706966Y-11753033D01*
X14813033Y-11753033D01*
X14781198Y-5198477D02*
X14931198Y-5348477D01*
X14931198Y-5198477D02*
X14781198Y-5348477D01*
X14909231Y-5326511D02*
X14909231Y-5220444D01*
X14803164Y-5220444D01*
X14803164Y-5326511D01*
X14909231Y-5326511D01*
X14885000Y-10645000D02*
X15035000Y-10795000D01*
X15035000Y-10645000D02*
X14885000Y-10795000D01*
X15013033Y-10773034D02*
X15013033Y-10666967D01*
X14906966Y-10666967D01*
X14906966Y-10773034D01*
X15013033Y-10773034D01*
X15250000Y-13450000D02*
X15400000Y-13600000D01*
X15400000Y-13450000D02*
X15250000Y-13600000D01*
X15378033Y-13578033D02*
X15378033Y-13471966D01*
X15271966Y-13471966D01*
X15271966Y-13578033D01*
X15378033Y-13578033D01*
X15781198Y-5198477D02*
X15931198Y-5348477D01*
X15931198Y-5198477D02*
X15781198Y-5348477D01*
X15909231Y-5326511D02*
X15909231Y-5220444D01*
X15803164Y-5220444D01*
X15803164Y-5326511D01*
X15909231Y-5326511D01*
X15805000Y-8825000D02*
X15955000Y-8975000D01*
X15955000Y-8825000D02*
X15805000Y-8975000D01*
X15933033Y-8953034D02*
X15933033Y-8846967D01*
X15826966Y-8846967D01*
X15826966Y-8953034D01*
X15933033Y-8953034D01*
X16105000Y-10205000D02*
X16255000Y-10355000D01*
X16255000Y-10205000D02*
X16105000Y-10355000D01*
X16233033Y-10333034D02*
X16233033Y-10226967D01*
X16126966Y-10226967D01*
X16126966Y-10333034D01*
X16233033Y-10333034D01*
X16781198Y-5198477D02*
X16931198Y-5348477D01*
X16931198Y-5198477D02*
X16781198Y-5348477D01*
X16909232Y-5326511D02*
X16909232Y-5220444D01*
X16803165Y-5220444D01*
X16803165Y-5326511D01*
X16909232Y-5326511D01*
X16885000Y-9465000D02*
X17035000Y-9615000D01*
X17035000Y-9465000D02*
X16885000Y-9615000D01*
X17013034Y-9593034D02*
X17013034Y-9486967D01*
X16906967Y-9486967D01*
X16906967Y-9593034D01*
X17013034Y-9593034D01*
X16950000Y-13450000D02*
X17100000Y-13600000D01*
X17100000Y-13450000D02*
X16950000Y-13600000D01*
X17078034Y-13578033D02*
X17078034Y-13471966D01*
X16971967Y-13471966D01*
X16971967Y-13578033D01*
X17078034Y-13578033D01*
X17781198Y-5198477D02*
X17931198Y-5348477D01*
X17931198Y-5198477D02*
X17781198Y-5348477D01*
X17909232Y-5326511D02*
X17909232Y-5220444D01*
X17803165Y-5220444D01*
X17803165Y-5326511D01*
X17909232Y-5326511D01*
X18125000Y-8545000D02*
X18275000Y-8695000D01*
X18275000Y-8545000D02*
X18125000Y-8695000D01*
X18253034Y-8673034D02*
X18253034Y-8566967D01*
X18146967Y-8566967D01*
X18146967Y-8673034D01*
X18253034Y-8673034D01*
X18345000Y-9745000D02*
X18495000Y-9895000D01*
X18495000Y-9745000D02*
X18345000Y-9895000D01*
X18473034Y-9873034D02*
X18473034Y-9766967D01*
X18366967Y-9766967D01*
X18366967Y-9873034D01*
X18473034Y-9873034D01*
X18485000Y-13465000D02*
X18635000Y-13615000D01*
X18635000Y-13465000D02*
X18485000Y-13615000D01*
X18613034Y-13593033D02*
X18613034Y-13486966D01*
X18506967Y-13486966D01*
X18506967Y-13593033D01*
X18613034Y-13593033D01*
X18605000Y-11025000D02*
X18755000Y-11175000D01*
X18755000Y-11025000D02*
X18605000Y-11175000D01*
X18733034Y-11153034D02*
X18733034Y-11046967D01*
X18626967Y-11046967D01*
X18626967Y-11153034D01*
X18733034Y-11153034D01*
X18781198Y-5198477D02*
X18931198Y-5348477D01*
X18931198Y-5198477D02*
X18781198Y-5348477D01*
X18909232Y-5326511D02*
X18909232Y-5220444D01*
X18803165Y-5220444D01*
X18803165Y-5326511D01*
X18909232Y-5326511D01*
X19825000Y-12165000D02*
X19975000Y-12315000D01*
X19975000Y-12165000D02*
X19825000Y-12315000D01*
X19953034Y-12293033D02*
X19953034Y-12186966D01*
X19846967Y-12186966D01*
X19846967Y-12293033D01*
X19953034Y-12293033D01*
X19925000Y-10165000D02*
X20075000Y-10315000D01*
X20075000Y-10165000D02*
X19925000Y-10315000D01*
X20053034Y-10293034D02*
X20053034Y-10186967D01*
X19946967Y-10186967D01*
X19946967Y-10293034D01*
X20053034Y-10293034D01*
X20145000Y-7465000D02*
X20295000Y-7615000D01*
X20295000Y-7465000D02*
X20145000Y-7615000D01*
X20273034Y-7593033D02*
X20273034Y-7486966D01*
X20166967Y-7486966D01*
X20166967Y-7593033D01*
X20273034Y-7593033D01*
X20205000Y-11765000D02*
X20355000Y-11915000D01*
X20355000Y-11765000D02*
X20205000Y-11915000D01*
X20333034Y-11893033D02*
X20333034Y-11786966D01*
X20226967Y-11786966D01*
X20226967Y-11893033D01*
X20333034Y-11893033D01*
X20345000Y-11185000D02*
X20495000Y-11335000D01*
X20495000Y-11185000D02*
X20345000Y-11335000D01*
X20473034Y-11313033D02*
X20473034Y-11206966D01*
X20366967Y-11206966D01*
X20366967Y-11313033D01*
X20473034Y-11313033D01*
D18*
X19320000Y-8758000D02*
X19480000Y-8918000D01*
X19480000Y-8758000D02*
X19320000Y-8918000D01*
X19400000Y-8918000D02*
X19480000Y-8838000D01*
X19400000Y-8758000D01*
X19320000Y-8838000D01*
X19400000Y-8918000D01*
X19320000Y-10282000D02*
X19480000Y-10442000D01*
X19480000Y-10282000D02*
X19320000Y-10442000D01*
X19400000Y-10442000D02*
X19480000Y-10362000D01*
X19400000Y-10282000D01*
X19320000Y-10362000D01*
X19400000Y-10442000D01*
D19*
X20250000Y-7027000D02*
X20250000Y-7281000D01*
X20123000Y-7154000D02*
X20377000Y-7154000D01*
X20377000Y-7154000D02*
G75*
G03*
X20377000Y-7154000I-127000J0D01*
G01*
X20250000Y-7789000D02*
X20250000Y-8043000D01*
X20123000Y-7916000D02*
X20377000Y-7916000D01*
X20377000Y-7916000D02*
G75*
G03*
X20377000Y-7916000I-127000J0D01*
G01*
X20250000Y-9686000D02*
X20250000Y-9940000D01*
X20123000Y-9813000D02*
X20377000Y-9813000D01*
X20377000Y-9813000D02*
G75*
G03*
X20377000Y-9813000I-127000J0D01*
G01*
X20250000Y-10448000D02*
X20250000Y-10702000D01*
X20123000Y-10575000D02*
X20377000Y-10575000D01*
X20377000Y-10575000D02*
G75*
G03*
X20377000Y-10575000I-127000J0D01*
G01*
D20*
X19395460Y-11750460D02*
X19395460Y-11559540D01*
X19204540Y-11559540D01*
X19204540Y-11750460D01*
X19395460Y-11750460D01*
X19435000Y-11655000D02*
G75*
G03*
X19435000Y-11655000I-135000J0D01*
G01*
X19395460Y-12470460D02*
X19395460Y-12279540D01*
X19204540Y-12279540D01*
X19204540Y-12470460D01*
X19395460Y-12470460D01*
X19435000Y-12375000D02*
G75*
G03*
X19435000Y-12375000I-135000J0D01*
G01*
D11*
X9042619Y-14117524D02*
X9042619Y-13917524D01*
X9042619Y-13917524D02*
X9090238Y-13917524D01*
X9090238Y-13917524D02*
X9118810Y-13927048D01*
X9118810Y-13927048D02*
X9137857Y-13946095D01*
X9137857Y-13946095D02*
X9147381Y-13965143D01*
X9147381Y-13965143D02*
X9156905Y-14003238D01*
X9156905Y-14003238D02*
X9156905Y-14031809D01*
X9156905Y-14031809D02*
X9147381Y-14069905D01*
X9147381Y-14069905D02*
X9137857Y-14088952D01*
X9137857Y-14088952D02*
X9118810Y-14108000D01*
X9118810Y-14108000D02*
X9090238Y-14117524D01*
X9090238Y-14117524D02*
X9042619Y-14117524D01*
X9242619Y-14117524D02*
X9242619Y-13984190D01*
X9242619Y-14022286D02*
X9252143Y-14003238D01*
X9252143Y-14003238D02*
X9261667Y-13993714D01*
X9261667Y-13993714D02*
X9280714Y-13984190D01*
X9280714Y-13984190D02*
X9299762Y-13984190D01*
X9366429Y-14117524D02*
X9366429Y-13984190D01*
X9366429Y-13917524D02*
X9356905Y-13927048D01*
X9356905Y-13927048D02*
X9366429Y-13936571D01*
X9366429Y-13936571D02*
X9375952Y-13927048D01*
X9375952Y-13927048D02*
X9366429Y-13917524D01*
X9366429Y-13917524D02*
X9366429Y-13936571D01*
X9490238Y-14117524D02*
X9471190Y-14108000D01*
X9471190Y-14108000D02*
X9461667Y-14088952D01*
X9461667Y-14088952D02*
X9461667Y-13917524D01*
X9595000Y-14117524D02*
X9575952Y-14108000D01*
X9575952Y-14108000D02*
X9566429Y-14088952D01*
X9566429Y-14088952D02*
X9566429Y-13917524D01*
X9823571Y-14117524D02*
X9823571Y-13917524D01*
X9823571Y-13917524D02*
X9890238Y-14060381D01*
X9890238Y-14060381D02*
X9956905Y-13917524D01*
X9956905Y-13917524D02*
X9956905Y-14117524D01*
X10137857Y-14117524D02*
X10137857Y-14012762D01*
X10137857Y-14012762D02*
X10128333Y-13993714D01*
X10128333Y-13993714D02*
X10109286Y-13984190D01*
X10109286Y-13984190D02*
X10071190Y-13984190D01*
X10071190Y-13984190D02*
X10052143Y-13993714D01*
X10137857Y-14108000D02*
X10118810Y-14117524D01*
X10118810Y-14117524D02*
X10071190Y-14117524D01*
X10071190Y-14117524D02*
X10052143Y-14108000D01*
X10052143Y-14108000D02*
X10042619Y-14088952D01*
X10042619Y-14088952D02*
X10042619Y-14069905D01*
X10042619Y-14069905D02*
X10052143Y-14050857D01*
X10052143Y-14050857D02*
X10071190Y-14041333D01*
X10071190Y-14041333D02*
X10118810Y-14041333D01*
X10118810Y-14041333D02*
X10137857Y-14031809D01*
X10233095Y-13984190D02*
X10233095Y-14184190D01*
X10233095Y-13993714D02*
X10252143Y-13984190D01*
X10252143Y-13984190D02*
X10290238Y-13984190D01*
X10290238Y-13984190D02*
X10309286Y-13993714D01*
X10309286Y-13993714D02*
X10318810Y-14003238D01*
X10318810Y-14003238D02*
X10328333Y-14022286D01*
X10328333Y-14022286D02*
X10328333Y-14079428D01*
X10328333Y-14079428D02*
X10318810Y-14098476D01*
X10318810Y-14098476D02*
X10309286Y-14108000D01*
X10309286Y-14108000D02*
X10290238Y-14117524D01*
X10290238Y-14117524D02*
X10252143Y-14117524D01*
X10252143Y-14117524D02*
X10233095Y-14108000D01*
X10414048Y-14098476D02*
X10423571Y-14108000D01*
X10423571Y-14108000D02*
X10414048Y-14117524D01*
X10414048Y-14117524D02*
X10404524Y-14108000D01*
X10404524Y-14108000D02*
X10414048Y-14098476D01*
X10414048Y-14098476D02*
X10414048Y-14117524D01*
X10414048Y-13993714D02*
X10423571Y-14003238D01*
X10423571Y-14003238D02*
X10414048Y-14012762D01*
X10414048Y-14012762D02*
X10404524Y-14003238D01*
X10404524Y-14003238D02*
X10414048Y-13993714D01*
X10414048Y-13993714D02*
X10414048Y-14012762D01*
D12*
X8755000Y-14425000D02*
X8795000Y-14465000D01*
X8795000Y-14425000D02*
X8755000Y-14465000D01*
D11*
X9080714Y-14337524D02*
X9099762Y-14337524D01*
X9099762Y-14337524D02*
X9118810Y-14347048D01*
X9118810Y-14347048D02*
X9128333Y-14356571D01*
X9128333Y-14356571D02*
X9137857Y-14375619D01*
X9137857Y-14375619D02*
X9147381Y-14413714D01*
X9147381Y-14413714D02*
X9147381Y-14461333D01*
X9147381Y-14461333D02*
X9137857Y-14499428D01*
X9137857Y-14499428D02*
X9128333Y-14518476D01*
X9128333Y-14518476D02*
X9118810Y-14528000D01*
X9118810Y-14528000D02*
X9099762Y-14537524D01*
X9099762Y-14537524D02*
X9080714Y-14537524D01*
X9080714Y-14537524D02*
X9061667Y-14528000D01*
X9061667Y-14528000D02*
X9052143Y-14518476D01*
X9052143Y-14518476D02*
X9042619Y-14499428D01*
X9042619Y-14499428D02*
X9033095Y-14461333D01*
X9033095Y-14461333D02*
X9033095Y-14413714D01*
X9033095Y-14413714D02*
X9042619Y-14375619D01*
X9042619Y-14375619D02*
X9052143Y-14356571D01*
X9052143Y-14356571D02*
X9061667Y-14347048D01*
X9061667Y-14347048D02*
X9080714Y-14337524D01*
X9233095Y-14518476D02*
X9242619Y-14528000D01*
X9242619Y-14528000D02*
X9233095Y-14537524D01*
X9233095Y-14537524D02*
X9223571Y-14528000D01*
X9223571Y-14528000D02*
X9233095Y-14518476D01*
X9233095Y-14518476D02*
X9233095Y-14537524D01*
X9414048Y-14404190D02*
X9414048Y-14537524D01*
X9366429Y-14328000D02*
X9318810Y-14470857D01*
X9318810Y-14470857D02*
X9442619Y-14470857D01*
X9556905Y-14337524D02*
X9575952Y-14337524D01*
X9575952Y-14337524D02*
X9595000Y-14347048D01*
X9595000Y-14347048D02*
X9604524Y-14356571D01*
X9604524Y-14356571D02*
X9614048Y-14375619D01*
X9614048Y-14375619D02*
X9623571Y-14413714D01*
X9623571Y-14413714D02*
X9623571Y-14461333D01*
X9623571Y-14461333D02*
X9614048Y-14499428D01*
X9614048Y-14499428D02*
X9604524Y-14518476D01*
X9604524Y-14518476D02*
X9595000Y-14528000D01*
X9595000Y-14528000D02*
X9575952Y-14537524D01*
X9575952Y-14537524D02*
X9556905Y-14537524D01*
X9556905Y-14537524D02*
X9537857Y-14528000D01*
X9537857Y-14528000D02*
X9528333Y-14518476D01*
X9528333Y-14518476D02*
X9518810Y-14499428D01*
X9518810Y-14499428D02*
X9509286Y-14461333D01*
X9509286Y-14461333D02*
X9509286Y-14413714D01*
X9509286Y-14413714D02*
X9518810Y-14375619D01*
X9518810Y-14375619D02*
X9528333Y-14356571D01*
X9528333Y-14356571D02*
X9537857Y-14347048D01*
X9537857Y-14347048D02*
X9556905Y-14337524D01*
X9747381Y-14337524D02*
X9766429Y-14337524D01*
X9766429Y-14337524D02*
X9785476Y-14347048D01*
X9785476Y-14347048D02*
X9795000Y-14356571D01*
X9795000Y-14356571D02*
X9804524Y-14375619D01*
X9804524Y-14375619D02*
X9814048Y-14413714D01*
X9814048Y-14413714D02*
X9814048Y-14461333D01*
X9814048Y-14461333D02*
X9804524Y-14499428D01*
X9804524Y-14499428D02*
X9795000Y-14518476D01*
X9795000Y-14518476D02*
X9785476Y-14528000D01*
X9785476Y-14528000D02*
X9766429Y-14537524D01*
X9766429Y-14537524D02*
X9747381Y-14537524D01*
X9747381Y-14537524D02*
X9728333Y-14528000D01*
X9728333Y-14528000D02*
X9718810Y-14518476D01*
X9718810Y-14518476D02*
X9709286Y-14499428D01*
X9709286Y-14499428D02*
X9699762Y-14461333D01*
X9699762Y-14461333D02*
X9699762Y-14413714D01*
X9699762Y-14413714D02*
X9709286Y-14375619D01*
X9709286Y-14375619D02*
X9718810Y-14356571D01*
X9718810Y-14356571D02*
X9728333Y-14347048D01*
X9728333Y-14347048D02*
X9747381Y-14337524D01*
X9899762Y-14537524D02*
X9899762Y-14404190D01*
X9899762Y-14423238D02*
X9909286Y-14413714D01*
X9909286Y-14413714D02*
X9928333Y-14404190D01*
X9928333Y-14404190D02*
X9956905Y-14404190D01*
X9956905Y-14404190D02*
X9975952Y-14413714D01*
X9975952Y-14413714D02*
X9985476Y-14432762D01*
X9985476Y-14432762D02*
X9985476Y-14537524D01*
X9985476Y-14432762D02*
X9995000Y-14413714D01*
X9995000Y-14413714D02*
X10014048Y-14404190D01*
X10014048Y-14404190D02*
X10042619Y-14404190D01*
X10042619Y-14404190D02*
X10061667Y-14413714D01*
X10061667Y-14413714D02*
X10071191Y-14432762D01*
X10071191Y-14432762D02*
X10071191Y-14537524D01*
X10166429Y-14537524D02*
X10166429Y-14404190D01*
X10166429Y-14423238D02*
X10175952Y-14413714D01*
X10175952Y-14413714D02*
X10195000Y-14404190D01*
X10195000Y-14404190D02*
X10223572Y-14404190D01*
X10223572Y-14404190D02*
X10242619Y-14413714D01*
X10242619Y-14413714D02*
X10252143Y-14432762D01*
X10252143Y-14432762D02*
X10252143Y-14537524D01*
X10252143Y-14432762D02*
X10261667Y-14413714D01*
X10261667Y-14413714D02*
X10280714Y-14404190D01*
X10280714Y-14404190D02*
X10309286Y-14404190D01*
X10309286Y-14404190D02*
X10328333Y-14413714D01*
X10328333Y-14413714D02*
X10337857Y-14432762D01*
X10337857Y-14432762D02*
X10337857Y-14537524D01*
X10728333Y-14328000D02*
X10556905Y-14585143D01*
X10985476Y-14337524D02*
X11004524Y-14337524D01*
X11004524Y-14337524D02*
X11023572Y-14347048D01*
X11023572Y-14347048D02*
X11033095Y-14356571D01*
X11033095Y-14356571D02*
X11042619Y-14375619D01*
X11042619Y-14375619D02*
X11052143Y-14413714D01*
X11052143Y-14413714D02*
X11052143Y-14461333D01*
X11052143Y-14461333D02*
X11042619Y-14499428D01*
X11042619Y-14499428D02*
X11033095Y-14518476D01*
X11033095Y-14518476D02*
X11023572Y-14528000D01*
X11023572Y-14528000D02*
X11004524Y-14537524D01*
X11004524Y-14537524D02*
X10985476Y-14537524D01*
X10985476Y-14537524D02*
X10966429Y-14528000D01*
X10966429Y-14528000D02*
X10956905Y-14518476D01*
X10956905Y-14518476D02*
X10947381Y-14499428D01*
X10947381Y-14499428D02*
X10937857Y-14461333D01*
X10937857Y-14461333D02*
X10937857Y-14413714D01*
X10937857Y-14413714D02*
X10947381Y-14375619D01*
X10947381Y-14375619D02*
X10956905Y-14356571D01*
X10956905Y-14356571D02*
X10966429Y-14347048D01*
X10966429Y-14347048D02*
X10985476Y-14337524D01*
X11137857Y-14518476D02*
X11147381Y-14528000D01*
X11147381Y-14528000D02*
X11137857Y-14537524D01*
X11137857Y-14537524D02*
X11128334Y-14528000D01*
X11128334Y-14528000D02*
X11137857Y-14518476D01*
X11137857Y-14518476D02*
X11137857Y-14537524D01*
X11271191Y-14337524D02*
X11290238Y-14337524D01*
X11290238Y-14337524D02*
X11309286Y-14347048D01*
X11309286Y-14347048D02*
X11318810Y-14356571D01*
X11318810Y-14356571D02*
X11328333Y-14375619D01*
X11328333Y-14375619D02*
X11337857Y-14413714D01*
X11337857Y-14413714D02*
X11337857Y-14461333D01*
X11337857Y-14461333D02*
X11328333Y-14499428D01*
X11328333Y-14499428D02*
X11318810Y-14518476D01*
X11318810Y-14518476D02*
X11309286Y-14528000D01*
X11309286Y-14528000D02*
X11290238Y-14537524D01*
X11290238Y-14537524D02*
X11271191Y-14537524D01*
X11271191Y-14537524D02*
X11252143Y-14528000D01*
X11252143Y-14528000D02*
X11242619Y-14518476D01*
X11242619Y-14518476D02*
X11233095Y-14499428D01*
X11233095Y-14499428D02*
X11223572Y-14461333D01*
X11223572Y-14461333D02*
X11223572Y-14413714D01*
X11223572Y-14413714D02*
X11233095Y-14375619D01*
X11233095Y-14375619D02*
X11242619Y-14356571D01*
X11242619Y-14356571D02*
X11252143Y-14347048D01*
X11252143Y-14347048D02*
X11271191Y-14337524D01*
X11528333Y-14537524D02*
X11414048Y-14537524D01*
X11471191Y-14537524D02*
X11471191Y-14337524D01*
X11471191Y-14337524D02*
X11452143Y-14366095D01*
X11452143Y-14366095D02*
X11433095Y-14385143D01*
X11433095Y-14385143D02*
X11414048Y-14394667D01*
X11709286Y-14337524D02*
X11614048Y-14337524D01*
X11614048Y-14337524D02*
X11604524Y-14432762D01*
X11604524Y-14432762D02*
X11614048Y-14423238D01*
X11614048Y-14423238D02*
X11633095Y-14413714D01*
X11633095Y-14413714D02*
X11680714Y-14413714D01*
X11680714Y-14413714D02*
X11699762Y-14423238D01*
X11699762Y-14423238D02*
X11709286Y-14432762D01*
X11709286Y-14432762D02*
X11718810Y-14451809D01*
X11718810Y-14451809D02*
X11718810Y-14499428D01*
X11718810Y-14499428D02*
X11709286Y-14518476D01*
X11709286Y-14518476D02*
X11699762Y-14528000D01*
X11699762Y-14528000D02*
X11680714Y-14537524D01*
X11680714Y-14537524D02*
X11633095Y-14537524D01*
X11633095Y-14537524D02*
X11614048Y-14528000D01*
X11614048Y-14528000D02*
X11604524Y-14518476D01*
X11785476Y-14337524D02*
X11918810Y-14337524D01*
X11918810Y-14337524D02*
X11833095Y-14537524D01*
X11985476Y-14337524D02*
X11985476Y-14375619D01*
X12061667Y-14337524D02*
X12061667Y-14375619D01*
X12356905Y-14613714D02*
X12347381Y-14604190D01*
X12347381Y-14604190D02*
X12328334Y-14575619D01*
X12328334Y-14575619D02*
X12318810Y-14556571D01*
X12318810Y-14556571D02*
X12309286Y-14528000D01*
X12309286Y-14528000D02*
X12299762Y-14480381D01*
X12299762Y-14480381D02*
X12299762Y-14442286D01*
X12299762Y-14442286D02*
X12309286Y-14394667D01*
X12309286Y-14394667D02*
X12318810Y-14366095D01*
X12318810Y-14366095D02*
X12328334Y-14347048D01*
X12328334Y-14347048D02*
X12347381Y-14318476D01*
X12347381Y-14318476D02*
X12356905Y-14308952D01*
X12423572Y-14356571D02*
X12433095Y-14347048D01*
X12433095Y-14347048D02*
X12452143Y-14337524D01*
X12452143Y-14337524D02*
X12499762Y-14337524D01*
X12499762Y-14337524D02*
X12518810Y-14347048D01*
X12518810Y-14347048D02*
X12528334Y-14356571D01*
X12528334Y-14356571D02*
X12537857Y-14375619D01*
X12537857Y-14375619D02*
X12537857Y-14394667D01*
X12537857Y-14394667D02*
X12528334Y-14423238D01*
X12528334Y-14423238D02*
X12414048Y-14537524D01*
X12414048Y-14537524D02*
X12537857Y-14537524D01*
X12661667Y-14337524D02*
X12680715Y-14337524D01*
X12680715Y-14337524D02*
X12699762Y-14347048D01*
X12699762Y-14347048D02*
X12709286Y-14356571D01*
X12709286Y-14356571D02*
X12718810Y-14375619D01*
X12718810Y-14375619D02*
X12728334Y-14413714D01*
X12728334Y-14413714D02*
X12728334Y-14461333D01*
X12728334Y-14461333D02*
X12718810Y-14499428D01*
X12718810Y-14499428D02*
X12709286Y-14518476D01*
X12709286Y-14518476D02*
X12699762Y-14528000D01*
X12699762Y-14528000D02*
X12680715Y-14537524D01*
X12680715Y-14537524D02*
X12661667Y-14537524D01*
X12661667Y-14537524D02*
X12642619Y-14528000D01*
X12642619Y-14528000D02*
X12633095Y-14518476D01*
X12633095Y-14518476D02*
X12623572Y-14499428D01*
X12623572Y-14499428D02*
X12614048Y-14461333D01*
X12614048Y-14461333D02*
X12614048Y-14413714D01*
X12614048Y-14413714D02*
X12623572Y-14375619D01*
X12623572Y-14375619D02*
X12633095Y-14356571D01*
X12633095Y-14356571D02*
X12642619Y-14347048D01*
X12642619Y-14347048D02*
X12661667Y-14337524D01*
X12966429Y-14537524D02*
X12966429Y-14337524D01*
X13052143Y-14537524D02*
X13052143Y-14432762D01*
X13052143Y-14432762D02*
X13042619Y-14413714D01*
X13042619Y-14413714D02*
X13023572Y-14404190D01*
X13023572Y-14404190D02*
X12995000Y-14404190D01*
X12995000Y-14404190D02*
X12975953Y-14413714D01*
X12975953Y-14413714D02*
X12966429Y-14423238D01*
X13175953Y-14537524D02*
X13156905Y-14528000D01*
X13156905Y-14528000D02*
X13147381Y-14518476D01*
X13147381Y-14518476D02*
X13137857Y-14499428D01*
X13137857Y-14499428D02*
X13137857Y-14442286D01*
X13137857Y-14442286D02*
X13147381Y-14423238D01*
X13147381Y-14423238D02*
X13156905Y-14413714D01*
X13156905Y-14413714D02*
X13175953Y-14404190D01*
X13175953Y-14404190D02*
X13204524Y-14404190D01*
X13204524Y-14404190D02*
X13223572Y-14413714D01*
X13223572Y-14413714D02*
X13233096Y-14423238D01*
X13233096Y-14423238D02*
X13242619Y-14442286D01*
X13242619Y-14442286D02*
X13242619Y-14499428D01*
X13242619Y-14499428D02*
X13233096Y-14518476D01*
X13233096Y-14518476D02*
X13223572Y-14528000D01*
X13223572Y-14528000D02*
X13204524Y-14537524D01*
X13204524Y-14537524D02*
X13175953Y-14537524D01*
X13356905Y-14537524D02*
X13337857Y-14528000D01*
X13337857Y-14528000D02*
X13328334Y-14508952D01*
X13328334Y-14508952D02*
X13328334Y-14337524D01*
X13509286Y-14528000D02*
X13490238Y-14537524D01*
X13490238Y-14537524D02*
X13452143Y-14537524D01*
X13452143Y-14537524D02*
X13433096Y-14528000D01*
X13433096Y-14528000D02*
X13423572Y-14508952D01*
X13423572Y-14508952D02*
X13423572Y-14432762D01*
X13423572Y-14432762D02*
X13433096Y-14413714D01*
X13433096Y-14413714D02*
X13452143Y-14404190D01*
X13452143Y-14404190D02*
X13490238Y-14404190D01*
X13490238Y-14404190D02*
X13509286Y-14413714D01*
X13509286Y-14413714D02*
X13518810Y-14432762D01*
X13518810Y-14432762D02*
X13518810Y-14451809D01*
X13518810Y-14451809D02*
X13423572Y-14470857D01*
X13595000Y-14528000D02*
X13614048Y-14537524D01*
X13614048Y-14537524D02*
X13652143Y-14537524D01*
X13652143Y-14537524D02*
X13671191Y-14528000D01*
X13671191Y-14528000D02*
X13680715Y-14508952D01*
X13680715Y-14508952D02*
X13680715Y-14499428D01*
X13680715Y-14499428D02*
X13671191Y-14480381D01*
X13671191Y-14480381D02*
X13652143Y-14470857D01*
X13652143Y-14470857D02*
X13623572Y-14470857D01*
X13623572Y-14470857D02*
X13604524Y-14461333D01*
X13604524Y-14461333D02*
X13595000Y-14442286D01*
X13595000Y-14442286D02*
X13595000Y-14432762D01*
X13595000Y-14432762D02*
X13604524Y-14413714D01*
X13604524Y-14413714D02*
X13623572Y-14404190D01*
X13623572Y-14404190D02*
X13652143Y-14404190D01*
X13652143Y-14404190D02*
X13671191Y-14413714D01*
X13747381Y-14613714D02*
X13756905Y-14604190D01*
X13756905Y-14604190D02*
X13775953Y-14575619D01*
X13775953Y-14575619D02*
X13785477Y-14556571D01*
X13785477Y-14556571D02*
X13795000Y-14528000D01*
X13795000Y-14528000D02*
X13804524Y-14480381D01*
X13804524Y-14480381D02*
X13804524Y-14442286D01*
X13804524Y-14442286D02*
X13795000Y-14394667D01*
X13795000Y-14394667D02*
X13785477Y-14366095D01*
X13785477Y-14366095D02*
X13775953Y-14347048D01*
X13775953Y-14347048D02*
X13756905Y-14318476D01*
X13756905Y-14318476D02*
X13747381Y-14308952D01*
D13*
X8795000Y-14709000D02*
G75*
G03*
X8795000Y-14709000I-30000J0D01*
G01*
D11*
X9080714Y-14601524D02*
X9099762Y-14601524D01*
X9099762Y-14601524D02*
X9118810Y-14611048D01*
X9118810Y-14611048D02*
X9128333Y-14620571D01*
X9128333Y-14620571D02*
X9137857Y-14639619D01*
X9137857Y-14639619D02*
X9147381Y-14677714D01*
X9147381Y-14677714D02*
X9147381Y-14725333D01*
X9147381Y-14725333D02*
X9137857Y-14763428D01*
X9137857Y-14763428D02*
X9128333Y-14782476D01*
X9128333Y-14782476D02*
X9118810Y-14792000D01*
X9118810Y-14792000D02*
X9099762Y-14801524D01*
X9099762Y-14801524D02*
X9080714Y-14801524D01*
X9080714Y-14801524D02*
X9061667Y-14792000D01*
X9061667Y-14792000D02*
X9052143Y-14782476D01*
X9052143Y-14782476D02*
X9042619Y-14763428D01*
X9042619Y-14763428D02*
X9033095Y-14725333D01*
X9033095Y-14725333D02*
X9033095Y-14677714D01*
X9033095Y-14677714D02*
X9042619Y-14639619D01*
X9042619Y-14639619D02*
X9052143Y-14620571D01*
X9052143Y-14620571D02*
X9061667Y-14611048D01*
X9061667Y-14611048D02*
X9080714Y-14601524D01*
X9233095Y-14782476D02*
X9242619Y-14792000D01*
X9242619Y-14792000D02*
X9233095Y-14801524D01*
X9233095Y-14801524D02*
X9223571Y-14792000D01*
X9223571Y-14792000D02*
X9233095Y-14782476D01*
X9233095Y-14782476D02*
X9233095Y-14801524D01*
X9414048Y-14601524D02*
X9375952Y-14601524D01*
X9375952Y-14601524D02*
X9356905Y-14611048D01*
X9356905Y-14611048D02*
X9347381Y-14620571D01*
X9347381Y-14620571D02*
X9328333Y-14649143D01*
X9328333Y-14649143D02*
X9318810Y-14687238D01*
X9318810Y-14687238D02*
X9318810Y-14763428D01*
X9318810Y-14763428D02*
X9328333Y-14782476D01*
X9328333Y-14782476D02*
X9337857Y-14792000D01*
X9337857Y-14792000D02*
X9356905Y-14801524D01*
X9356905Y-14801524D02*
X9395000Y-14801524D01*
X9395000Y-14801524D02*
X9414048Y-14792000D01*
X9414048Y-14792000D02*
X9423571Y-14782476D01*
X9423571Y-14782476D02*
X9433095Y-14763428D01*
X9433095Y-14763428D02*
X9433095Y-14715809D01*
X9433095Y-14715809D02*
X9423571Y-14696762D01*
X9423571Y-14696762D02*
X9414048Y-14687238D01*
X9414048Y-14687238D02*
X9395000Y-14677714D01*
X9395000Y-14677714D02*
X9356905Y-14677714D01*
X9356905Y-14677714D02*
X9337857Y-14687238D01*
X9337857Y-14687238D02*
X9328333Y-14696762D01*
X9328333Y-14696762D02*
X9318810Y-14715809D01*
X9556905Y-14601524D02*
X9575952Y-14601524D01*
X9575952Y-14601524D02*
X9595000Y-14611048D01*
X9595000Y-14611048D02*
X9604524Y-14620571D01*
X9604524Y-14620571D02*
X9614048Y-14639619D01*
X9614048Y-14639619D02*
X9623571Y-14677714D01*
X9623571Y-14677714D02*
X9623571Y-14725333D01*
X9623571Y-14725333D02*
X9614048Y-14763428D01*
X9614048Y-14763428D02*
X9604524Y-14782476D01*
X9604524Y-14782476D02*
X9595000Y-14792000D01*
X9595000Y-14792000D02*
X9575952Y-14801524D01*
X9575952Y-14801524D02*
X9556905Y-14801524D01*
X9556905Y-14801524D02*
X9537857Y-14792000D01*
X9537857Y-14792000D02*
X9528333Y-14782476D01*
X9528333Y-14782476D02*
X9518810Y-14763428D01*
X9518810Y-14763428D02*
X9509286Y-14725333D01*
X9509286Y-14725333D02*
X9509286Y-14677714D01*
X9509286Y-14677714D02*
X9518810Y-14639619D01*
X9518810Y-14639619D02*
X9528333Y-14620571D01*
X9528333Y-14620571D02*
X9537857Y-14611048D01*
X9537857Y-14611048D02*
X9556905Y-14601524D01*
X9747381Y-14601524D02*
X9766429Y-14601524D01*
X9766429Y-14601524D02*
X9785476Y-14611048D01*
X9785476Y-14611048D02*
X9795000Y-14620571D01*
X9795000Y-14620571D02*
X9804524Y-14639619D01*
X9804524Y-14639619D02*
X9814048Y-14677714D01*
X9814048Y-14677714D02*
X9814048Y-14725333D01*
X9814048Y-14725333D02*
X9804524Y-14763428D01*
X9804524Y-14763428D02*
X9795000Y-14782476D01*
X9795000Y-14782476D02*
X9785476Y-14792000D01*
X9785476Y-14792000D02*
X9766429Y-14801524D01*
X9766429Y-14801524D02*
X9747381Y-14801524D01*
X9747381Y-14801524D02*
X9728333Y-14792000D01*
X9728333Y-14792000D02*
X9718810Y-14782476D01*
X9718810Y-14782476D02*
X9709286Y-14763428D01*
X9709286Y-14763428D02*
X9699762Y-14725333D01*
X9699762Y-14725333D02*
X9699762Y-14677714D01*
X9699762Y-14677714D02*
X9709286Y-14639619D01*
X9709286Y-14639619D02*
X9718810Y-14620571D01*
X9718810Y-14620571D02*
X9728333Y-14611048D01*
X9728333Y-14611048D02*
X9747381Y-14601524D01*
X9899762Y-14801524D02*
X9899762Y-14668190D01*
X9899762Y-14687238D02*
X9909286Y-14677714D01*
X9909286Y-14677714D02*
X9928333Y-14668190D01*
X9928333Y-14668190D02*
X9956905Y-14668190D01*
X9956905Y-14668190D02*
X9975952Y-14677714D01*
X9975952Y-14677714D02*
X9985476Y-14696762D01*
X9985476Y-14696762D02*
X9985476Y-14801524D01*
X9985476Y-14696762D02*
X9995000Y-14677714D01*
X9995000Y-14677714D02*
X10014048Y-14668190D01*
X10014048Y-14668190D02*
X10042619Y-14668190D01*
X10042619Y-14668190D02*
X10061667Y-14677714D01*
X10061667Y-14677714D02*
X10071191Y-14696762D01*
X10071191Y-14696762D02*
X10071191Y-14801524D01*
X10166429Y-14801524D02*
X10166429Y-14668190D01*
X10166429Y-14687238D02*
X10175952Y-14677714D01*
X10175952Y-14677714D02*
X10195000Y-14668190D01*
X10195000Y-14668190D02*
X10223572Y-14668190D01*
X10223572Y-14668190D02*
X10242619Y-14677714D01*
X10242619Y-14677714D02*
X10252143Y-14696762D01*
X10252143Y-14696762D02*
X10252143Y-14801524D01*
X10252143Y-14696762D02*
X10261667Y-14677714D01*
X10261667Y-14677714D02*
X10280714Y-14668190D01*
X10280714Y-14668190D02*
X10309286Y-14668190D01*
X10309286Y-14668190D02*
X10328333Y-14677714D01*
X10328333Y-14677714D02*
X10337857Y-14696762D01*
X10337857Y-14696762D02*
X10337857Y-14801524D01*
X10728333Y-14592000D02*
X10556905Y-14849143D01*
X10985476Y-14601524D02*
X11004524Y-14601524D01*
X11004524Y-14601524D02*
X11023572Y-14611048D01*
X11023572Y-14611048D02*
X11033095Y-14620571D01*
X11033095Y-14620571D02*
X11042619Y-14639619D01*
X11042619Y-14639619D02*
X11052143Y-14677714D01*
X11052143Y-14677714D02*
X11052143Y-14725333D01*
X11052143Y-14725333D02*
X11042619Y-14763428D01*
X11042619Y-14763428D02*
X11033095Y-14782476D01*
X11033095Y-14782476D02*
X11023572Y-14792000D01*
X11023572Y-14792000D02*
X11004524Y-14801524D01*
X11004524Y-14801524D02*
X10985476Y-14801524D01*
X10985476Y-14801524D02*
X10966429Y-14792000D01*
X10966429Y-14792000D02*
X10956905Y-14782476D01*
X10956905Y-14782476D02*
X10947381Y-14763428D01*
X10947381Y-14763428D02*
X10937857Y-14725333D01*
X10937857Y-14725333D02*
X10937857Y-14677714D01*
X10937857Y-14677714D02*
X10947381Y-14639619D01*
X10947381Y-14639619D02*
X10956905Y-14620571D01*
X10956905Y-14620571D02*
X10966429Y-14611048D01*
X10966429Y-14611048D02*
X10985476Y-14601524D01*
X11137857Y-14782476D02*
X11147381Y-14792000D01*
X11147381Y-14792000D02*
X11137857Y-14801524D01*
X11137857Y-14801524D02*
X11128334Y-14792000D01*
X11128334Y-14792000D02*
X11137857Y-14782476D01*
X11137857Y-14782476D02*
X11137857Y-14801524D01*
X11271191Y-14601524D02*
X11290238Y-14601524D01*
X11290238Y-14601524D02*
X11309286Y-14611048D01*
X11309286Y-14611048D02*
X11318810Y-14620571D01*
X11318810Y-14620571D02*
X11328333Y-14639619D01*
X11328333Y-14639619D02*
X11337857Y-14677714D01*
X11337857Y-14677714D02*
X11337857Y-14725333D01*
X11337857Y-14725333D02*
X11328333Y-14763428D01*
X11328333Y-14763428D02*
X11318810Y-14782476D01*
X11318810Y-14782476D02*
X11309286Y-14792000D01*
X11309286Y-14792000D02*
X11290238Y-14801524D01*
X11290238Y-14801524D02*
X11271191Y-14801524D01*
X11271191Y-14801524D02*
X11252143Y-14792000D01*
X11252143Y-14792000D02*
X11242619Y-14782476D01*
X11242619Y-14782476D02*
X11233095Y-14763428D01*
X11233095Y-14763428D02*
X11223572Y-14725333D01*
X11223572Y-14725333D02*
X11223572Y-14677714D01*
X11223572Y-14677714D02*
X11233095Y-14639619D01*
X11233095Y-14639619D02*
X11242619Y-14620571D01*
X11242619Y-14620571D02*
X11252143Y-14611048D01*
X11252143Y-14611048D02*
X11271191Y-14601524D01*
X11414048Y-14620571D02*
X11423572Y-14611048D01*
X11423572Y-14611048D02*
X11442619Y-14601524D01*
X11442619Y-14601524D02*
X11490238Y-14601524D01*
X11490238Y-14601524D02*
X11509286Y-14611048D01*
X11509286Y-14611048D02*
X11518810Y-14620571D01*
X11518810Y-14620571D02*
X11528333Y-14639619D01*
X11528333Y-14639619D02*
X11528333Y-14658667D01*
X11528333Y-14658667D02*
X11518810Y-14687238D01*
X11518810Y-14687238D02*
X11404524Y-14801524D01*
X11404524Y-14801524D02*
X11528333Y-14801524D01*
X11595000Y-14601524D02*
X11718810Y-14601524D01*
X11718810Y-14601524D02*
X11652143Y-14677714D01*
X11652143Y-14677714D02*
X11680714Y-14677714D01*
X11680714Y-14677714D02*
X11699762Y-14687238D01*
X11699762Y-14687238D02*
X11709286Y-14696762D01*
X11709286Y-14696762D02*
X11718810Y-14715809D01*
X11718810Y-14715809D02*
X11718810Y-14763428D01*
X11718810Y-14763428D02*
X11709286Y-14782476D01*
X11709286Y-14782476D02*
X11699762Y-14792000D01*
X11699762Y-14792000D02*
X11680714Y-14801524D01*
X11680714Y-14801524D02*
X11623572Y-14801524D01*
X11623572Y-14801524D02*
X11604524Y-14792000D01*
X11604524Y-14792000D02*
X11595000Y-14782476D01*
X11890238Y-14601524D02*
X11852143Y-14601524D01*
X11852143Y-14601524D02*
X11833095Y-14611048D01*
X11833095Y-14611048D02*
X11823572Y-14620571D01*
X11823572Y-14620571D02*
X11804524Y-14649143D01*
X11804524Y-14649143D02*
X11795000Y-14687238D01*
X11795000Y-14687238D02*
X11795000Y-14763428D01*
X11795000Y-14763428D02*
X11804524Y-14782476D01*
X11804524Y-14782476D02*
X11814048Y-14792000D01*
X11814048Y-14792000D02*
X11833095Y-14801524D01*
X11833095Y-14801524D02*
X11871191Y-14801524D01*
X11871191Y-14801524D02*
X11890238Y-14792000D01*
X11890238Y-14792000D02*
X11899762Y-14782476D01*
X11899762Y-14782476D02*
X11909286Y-14763428D01*
X11909286Y-14763428D02*
X11909286Y-14715809D01*
X11909286Y-14715809D02*
X11899762Y-14696762D01*
X11899762Y-14696762D02*
X11890238Y-14687238D01*
X11890238Y-14687238D02*
X11871191Y-14677714D01*
X11871191Y-14677714D02*
X11833095Y-14677714D01*
X11833095Y-14677714D02*
X11814048Y-14687238D01*
X11814048Y-14687238D02*
X11804524Y-14696762D01*
X11804524Y-14696762D02*
X11795000Y-14715809D01*
X11985476Y-14601524D02*
X11985476Y-14639619D01*
X12061667Y-14601524D02*
X12061667Y-14639619D01*
X12356905Y-14877714D02*
X12347381Y-14868190D01*
X12347381Y-14868190D02*
X12328334Y-14839619D01*
X12328334Y-14839619D02*
X12318810Y-14820571D01*
X12318810Y-14820571D02*
X12309286Y-14792000D01*
X12309286Y-14792000D02*
X12299762Y-14744381D01*
X12299762Y-14744381D02*
X12299762Y-14706286D01*
X12299762Y-14706286D02*
X12309286Y-14658667D01*
X12309286Y-14658667D02*
X12318810Y-14630095D01*
X12318810Y-14630095D02*
X12328334Y-14611048D01*
X12328334Y-14611048D02*
X12347381Y-14582476D01*
X12347381Y-14582476D02*
X12356905Y-14572952D01*
X12471191Y-14601524D02*
X12490238Y-14601524D01*
X12490238Y-14601524D02*
X12509286Y-14611048D01*
X12509286Y-14611048D02*
X12518810Y-14620571D01*
X12518810Y-14620571D02*
X12528334Y-14639619D01*
X12528334Y-14639619D02*
X12537857Y-14677714D01*
X12537857Y-14677714D02*
X12537857Y-14725333D01*
X12537857Y-14725333D02*
X12528334Y-14763428D01*
X12528334Y-14763428D02*
X12518810Y-14782476D01*
X12518810Y-14782476D02*
X12509286Y-14792000D01*
X12509286Y-14792000D02*
X12490238Y-14801524D01*
X12490238Y-14801524D02*
X12471191Y-14801524D01*
X12471191Y-14801524D02*
X12452143Y-14792000D01*
X12452143Y-14792000D02*
X12442619Y-14782476D01*
X12442619Y-14782476D02*
X12433095Y-14763428D01*
X12433095Y-14763428D02*
X12423572Y-14725333D01*
X12423572Y-14725333D02*
X12423572Y-14677714D01*
X12423572Y-14677714D02*
X12433095Y-14639619D01*
X12433095Y-14639619D02*
X12442619Y-14620571D01*
X12442619Y-14620571D02*
X12452143Y-14611048D01*
X12452143Y-14611048D02*
X12471191Y-14601524D01*
X12775953Y-14801524D02*
X12775953Y-14601524D01*
X12861667Y-14801524D02*
X12861667Y-14696762D01*
X12861667Y-14696762D02*
X12852143Y-14677714D01*
X12852143Y-14677714D02*
X12833096Y-14668190D01*
X12833096Y-14668190D02*
X12804524Y-14668190D01*
X12804524Y-14668190D02*
X12785476Y-14677714D01*
X12785476Y-14677714D02*
X12775953Y-14687238D01*
X12985476Y-14801524D02*
X12966429Y-14792000D01*
X12966429Y-14792000D02*
X12956905Y-14782476D01*
X12956905Y-14782476D02*
X12947381Y-14763428D01*
X12947381Y-14763428D02*
X12947381Y-14706286D01*
X12947381Y-14706286D02*
X12956905Y-14687238D01*
X12956905Y-14687238D02*
X12966429Y-14677714D01*
X12966429Y-14677714D02*
X12985476Y-14668190D01*
X12985476Y-14668190D02*
X13014048Y-14668190D01*
X13014048Y-14668190D02*
X13033096Y-14677714D01*
X13033096Y-14677714D02*
X13042619Y-14687238D01*
X13042619Y-14687238D02*
X13052143Y-14706286D01*
X13052143Y-14706286D02*
X13052143Y-14763428D01*
X13052143Y-14763428D02*
X13042619Y-14782476D01*
X13042619Y-14782476D02*
X13033096Y-14792000D01*
X13033096Y-14792000D02*
X13014048Y-14801524D01*
X13014048Y-14801524D02*
X12985476Y-14801524D01*
X13166429Y-14801524D02*
X13147381Y-14792000D01*
X13147381Y-14792000D02*
X13137857Y-14772952D01*
X13137857Y-14772952D02*
X13137857Y-14601524D01*
X13318810Y-14792000D02*
X13299762Y-14801524D01*
X13299762Y-14801524D02*
X13261667Y-14801524D01*
X13261667Y-14801524D02*
X13242619Y-14792000D01*
X13242619Y-14792000D02*
X13233096Y-14772952D01*
X13233096Y-14772952D02*
X13233096Y-14696762D01*
X13233096Y-14696762D02*
X13242619Y-14677714D01*
X13242619Y-14677714D02*
X13261667Y-14668190D01*
X13261667Y-14668190D02*
X13299762Y-14668190D01*
X13299762Y-14668190D02*
X13318810Y-14677714D01*
X13318810Y-14677714D02*
X13328334Y-14696762D01*
X13328334Y-14696762D02*
X13328334Y-14715809D01*
X13328334Y-14715809D02*
X13233096Y-14734857D01*
X13404524Y-14792000D02*
X13423572Y-14801524D01*
X13423572Y-14801524D02*
X13461667Y-14801524D01*
X13461667Y-14801524D02*
X13480715Y-14792000D01*
X13480715Y-14792000D02*
X13490238Y-14772952D01*
X13490238Y-14772952D02*
X13490238Y-14763428D01*
X13490238Y-14763428D02*
X13480715Y-14744381D01*
X13480715Y-14744381D02*
X13461667Y-14734857D01*
X13461667Y-14734857D02*
X13433096Y-14734857D01*
X13433096Y-14734857D02*
X13414048Y-14725333D01*
X13414048Y-14725333D02*
X13404524Y-14706286D01*
X13404524Y-14706286D02*
X13404524Y-14696762D01*
X13404524Y-14696762D02*
X13414048Y-14677714D01*
X13414048Y-14677714D02*
X13433096Y-14668190D01*
X13433096Y-14668190D02*
X13461667Y-14668190D01*
X13461667Y-14668190D02*
X13480715Y-14677714D01*
X13728334Y-14725333D02*
X13880715Y-14725333D01*
X13804524Y-14801524D02*
X13804524Y-14649143D01*
X14118810Y-14620571D02*
X14128334Y-14611048D01*
X14128334Y-14611048D02*
X14147381Y-14601524D01*
X14147381Y-14601524D02*
X14195000Y-14601524D01*
X14195000Y-14601524D02*
X14214048Y-14611048D01*
X14214048Y-14611048D02*
X14223572Y-14620571D01*
X14223572Y-14620571D02*
X14233096Y-14639619D01*
X14233096Y-14639619D02*
X14233096Y-14658667D01*
X14233096Y-14658667D02*
X14223572Y-14687238D01*
X14223572Y-14687238D02*
X14109286Y-14801524D01*
X14109286Y-14801524D02*
X14233096Y-14801524D01*
X14461667Y-14792000D02*
X14480715Y-14801524D01*
X14480715Y-14801524D02*
X14518810Y-14801524D01*
X14518810Y-14801524D02*
X14537858Y-14792000D01*
X14537858Y-14792000D02*
X14547381Y-14772952D01*
X14547381Y-14772952D02*
X14547381Y-14763428D01*
X14547381Y-14763428D02*
X14537858Y-14744381D01*
X14537858Y-14744381D02*
X14518810Y-14734857D01*
X14518810Y-14734857D02*
X14490239Y-14734857D01*
X14490239Y-14734857D02*
X14471191Y-14725333D01*
X14471191Y-14725333D02*
X14461667Y-14706286D01*
X14461667Y-14706286D02*
X14461667Y-14696762D01*
X14461667Y-14696762D02*
X14471191Y-14677714D01*
X14471191Y-14677714D02*
X14490239Y-14668190D01*
X14490239Y-14668190D02*
X14518810Y-14668190D01*
X14518810Y-14668190D02*
X14537858Y-14677714D01*
X14661667Y-14801524D02*
X14642620Y-14792000D01*
X14642620Y-14792000D02*
X14633096Y-14772952D01*
X14633096Y-14772952D02*
X14633096Y-14601524D01*
X14766429Y-14801524D02*
X14747381Y-14792000D01*
X14747381Y-14792000D02*
X14737858Y-14782476D01*
X14737858Y-14782476D02*
X14728334Y-14763428D01*
X14728334Y-14763428D02*
X14728334Y-14706286D01*
X14728334Y-14706286D02*
X14737858Y-14687238D01*
X14737858Y-14687238D02*
X14747381Y-14677714D01*
X14747381Y-14677714D02*
X14766429Y-14668190D01*
X14766429Y-14668190D02*
X14795001Y-14668190D01*
X14795001Y-14668190D02*
X14814048Y-14677714D01*
X14814048Y-14677714D02*
X14823572Y-14687238D01*
X14823572Y-14687238D02*
X14833096Y-14706286D01*
X14833096Y-14706286D02*
X14833096Y-14763428D01*
X14833096Y-14763428D02*
X14823572Y-14782476D01*
X14823572Y-14782476D02*
X14814048Y-14792000D01*
X14814048Y-14792000D02*
X14795001Y-14801524D01*
X14795001Y-14801524D02*
X14766429Y-14801524D01*
X14890239Y-14668190D02*
X14966429Y-14668190D01*
X14918810Y-14601524D02*
X14918810Y-14772952D01*
X14918810Y-14772952D02*
X14928334Y-14792000D01*
X14928334Y-14792000D02*
X14947381Y-14801524D01*
X14947381Y-14801524D02*
X14966429Y-14801524D01*
X15023572Y-14792000D02*
X15042620Y-14801524D01*
X15042620Y-14801524D02*
X15080715Y-14801524D01*
X15080715Y-14801524D02*
X15099762Y-14792000D01*
X15099762Y-14792000D02*
X15109286Y-14772952D01*
X15109286Y-14772952D02*
X15109286Y-14763428D01*
X15109286Y-14763428D02*
X15099762Y-14744381D01*
X15099762Y-14744381D02*
X15080715Y-14734857D01*
X15080715Y-14734857D02*
X15052143Y-14734857D01*
X15052143Y-14734857D02*
X15033096Y-14725333D01*
X15033096Y-14725333D02*
X15023572Y-14706286D01*
X15023572Y-14706286D02*
X15023572Y-14696762D01*
X15023572Y-14696762D02*
X15033096Y-14677714D01*
X15033096Y-14677714D02*
X15052143Y-14668190D01*
X15052143Y-14668190D02*
X15080715Y-14668190D01*
X15080715Y-14668190D02*
X15099762Y-14677714D01*
X15175953Y-14877714D02*
X15185477Y-14868190D01*
X15185477Y-14868190D02*
X15204524Y-14839619D01*
X15204524Y-14839619D02*
X15214048Y-14820571D01*
X15214048Y-14820571D02*
X15223572Y-14792000D01*
X15223572Y-14792000D02*
X15233096Y-14744381D01*
X15233096Y-14744381D02*
X15233096Y-14706286D01*
X15233096Y-14706286D02*
X15223572Y-14658667D01*
X15223572Y-14658667D02*
X15214048Y-14630095D01*
X15214048Y-14630095D02*
X15204524Y-14611048D01*
X15204524Y-14611048D02*
X15185477Y-14582476D01*
X15185477Y-14582476D02*
X15175953Y-14572952D01*
D14*
X8757500Y-14935500D02*
X8757500Y-15010500D01*
X8720000Y-14973000D02*
X8795000Y-14973000D01*
D11*
X9080714Y-14865524D02*
X9099762Y-14865524D01*
X9099762Y-14865524D02*
X9118810Y-14875048D01*
X9118810Y-14875048D02*
X9128333Y-14884571D01*
X9128333Y-14884571D02*
X9137857Y-14903619D01*
X9137857Y-14903619D02*
X9147381Y-14941714D01*
X9147381Y-14941714D02*
X9147381Y-14989333D01*
X9147381Y-14989333D02*
X9137857Y-15027428D01*
X9137857Y-15027428D02*
X9128333Y-15046476D01*
X9128333Y-15046476D02*
X9118810Y-15056000D01*
X9118810Y-15056000D02*
X9099762Y-15065524D01*
X9099762Y-15065524D02*
X9080714Y-15065524D01*
X9080714Y-15065524D02*
X9061667Y-15056000D01*
X9061667Y-15056000D02*
X9052143Y-15046476D01*
X9052143Y-15046476D02*
X9042619Y-15027428D01*
X9042619Y-15027428D02*
X9033095Y-14989333D01*
X9033095Y-14989333D02*
X9033095Y-14941714D01*
X9033095Y-14941714D02*
X9042619Y-14903619D01*
X9042619Y-14903619D02*
X9052143Y-14884571D01*
X9052143Y-14884571D02*
X9061667Y-14875048D01*
X9061667Y-14875048D02*
X9080714Y-14865524D01*
X9233095Y-15046476D02*
X9242619Y-15056000D01*
X9242619Y-15056000D02*
X9233095Y-15065524D01*
X9233095Y-15065524D02*
X9223571Y-15056000D01*
X9223571Y-15056000D02*
X9233095Y-15046476D01*
X9233095Y-15046476D02*
X9233095Y-15065524D01*
X9309286Y-14865524D02*
X9442619Y-14865524D01*
X9442619Y-14865524D02*
X9356905Y-15065524D01*
X9614048Y-14865524D02*
X9518810Y-14865524D01*
X9518810Y-14865524D02*
X9509286Y-14960762D01*
X9509286Y-14960762D02*
X9518810Y-14951238D01*
X9518810Y-14951238D02*
X9537857Y-14941714D01*
X9537857Y-14941714D02*
X9585476Y-14941714D01*
X9585476Y-14941714D02*
X9604524Y-14951238D01*
X9604524Y-14951238D02*
X9614048Y-14960762D01*
X9614048Y-14960762D02*
X9623571Y-14979809D01*
X9623571Y-14979809D02*
X9623571Y-15027428D01*
X9623571Y-15027428D02*
X9614048Y-15046476D01*
X9614048Y-15046476D02*
X9604524Y-15056000D01*
X9604524Y-15056000D02*
X9585476Y-15065524D01*
X9585476Y-15065524D02*
X9537857Y-15065524D01*
X9537857Y-15065524D02*
X9518810Y-15056000D01*
X9518810Y-15056000D02*
X9509286Y-15046476D01*
X9747381Y-14865524D02*
X9766429Y-14865524D01*
X9766429Y-14865524D02*
X9785476Y-14875048D01*
X9785476Y-14875048D02*
X9795000Y-14884571D01*
X9795000Y-14884571D02*
X9804524Y-14903619D01*
X9804524Y-14903619D02*
X9814048Y-14941714D01*
X9814048Y-14941714D02*
X9814048Y-14989333D01*
X9814048Y-14989333D02*
X9804524Y-15027428D01*
X9804524Y-15027428D02*
X9795000Y-15046476D01*
X9795000Y-15046476D02*
X9785476Y-15056000D01*
X9785476Y-15056000D02*
X9766429Y-15065524D01*
X9766429Y-15065524D02*
X9747381Y-15065524D01*
X9747381Y-15065524D02*
X9728333Y-15056000D01*
X9728333Y-15056000D02*
X9718810Y-15046476D01*
X9718810Y-15046476D02*
X9709286Y-15027428D01*
X9709286Y-15027428D02*
X9699762Y-14989333D01*
X9699762Y-14989333D02*
X9699762Y-14941714D01*
X9699762Y-14941714D02*
X9709286Y-14903619D01*
X9709286Y-14903619D02*
X9718810Y-14884571D01*
X9718810Y-14884571D02*
X9728333Y-14875048D01*
X9728333Y-14875048D02*
X9747381Y-14865524D01*
X9899762Y-15065524D02*
X9899762Y-14932190D01*
X9899762Y-14951238D02*
X9909286Y-14941714D01*
X9909286Y-14941714D02*
X9928333Y-14932190D01*
X9928333Y-14932190D02*
X9956905Y-14932190D01*
X9956905Y-14932190D02*
X9975952Y-14941714D01*
X9975952Y-14941714D02*
X9985476Y-14960762D01*
X9985476Y-14960762D02*
X9985476Y-15065524D01*
X9985476Y-14960762D02*
X9995000Y-14941714D01*
X9995000Y-14941714D02*
X10014048Y-14932190D01*
X10014048Y-14932190D02*
X10042619Y-14932190D01*
X10042619Y-14932190D02*
X10061667Y-14941714D01*
X10061667Y-14941714D02*
X10071191Y-14960762D01*
X10071191Y-14960762D02*
X10071191Y-15065524D01*
X10166429Y-15065524D02*
X10166429Y-14932190D01*
X10166429Y-14951238D02*
X10175952Y-14941714D01*
X10175952Y-14941714D02*
X10195000Y-14932190D01*
X10195000Y-14932190D02*
X10223572Y-14932190D01*
X10223572Y-14932190D02*
X10242619Y-14941714D01*
X10242619Y-14941714D02*
X10252143Y-14960762D01*
X10252143Y-14960762D02*
X10252143Y-15065524D01*
X10252143Y-14960762D02*
X10261667Y-14941714D01*
X10261667Y-14941714D02*
X10280714Y-14932190D01*
X10280714Y-14932190D02*
X10309286Y-14932190D01*
X10309286Y-14932190D02*
X10328333Y-14941714D01*
X10328333Y-14941714D02*
X10337857Y-14960762D01*
X10337857Y-14960762D02*
X10337857Y-15065524D01*
X10728333Y-14856000D02*
X10556905Y-15113143D01*
X10985476Y-14865524D02*
X11004524Y-14865524D01*
X11004524Y-14865524D02*
X11023572Y-14875048D01*
X11023572Y-14875048D02*
X11033095Y-14884571D01*
X11033095Y-14884571D02*
X11042619Y-14903619D01*
X11042619Y-14903619D02*
X11052143Y-14941714D01*
X11052143Y-14941714D02*
X11052143Y-14989333D01*
X11052143Y-14989333D02*
X11042619Y-15027428D01*
X11042619Y-15027428D02*
X11033095Y-15046476D01*
X11033095Y-15046476D02*
X11023572Y-15056000D01*
X11023572Y-15056000D02*
X11004524Y-15065524D01*
X11004524Y-15065524D02*
X10985476Y-15065524D01*
X10985476Y-15065524D02*
X10966429Y-15056000D01*
X10966429Y-15056000D02*
X10956905Y-15046476D01*
X10956905Y-15046476D02*
X10947381Y-15027428D01*
X10947381Y-15027428D02*
X10937857Y-14989333D01*
X10937857Y-14989333D02*
X10937857Y-14941714D01*
X10937857Y-14941714D02*
X10947381Y-14903619D01*
X10947381Y-14903619D02*
X10956905Y-14884571D01*
X10956905Y-14884571D02*
X10966429Y-14875048D01*
X10966429Y-14875048D02*
X10985476Y-14865524D01*
X11137857Y-15046476D02*
X11147381Y-15056000D01*
X11147381Y-15056000D02*
X11137857Y-15065524D01*
X11137857Y-15065524D02*
X11128334Y-15056000D01*
X11128334Y-15056000D02*
X11137857Y-15046476D01*
X11137857Y-15046476D02*
X11137857Y-15065524D01*
X11271191Y-14865524D02*
X11290238Y-14865524D01*
X11290238Y-14865524D02*
X11309286Y-14875048D01*
X11309286Y-14875048D02*
X11318810Y-14884571D01*
X11318810Y-14884571D02*
X11328333Y-14903619D01*
X11328333Y-14903619D02*
X11337857Y-14941714D01*
X11337857Y-14941714D02*
X11337857Y-14989333D01*
X11337857Y-14989333D02*
X11328333Y-15027428D01*
X11328333Y-15027428D02*
X11318810Y-15046476D01*
X11318810Y-15046476D02*
X11309286Y-15056000D01*
X11309286Y-15056000D02*
X11290238Y-15065524D01*
X11290238Y-15065524D02*
X11271191Y-15065524D01*
X11271191Y-15065524D02*
X11252143Y-15056000D01*
X11252143Y-15056000D02*
X11242619Y-15046476D01*
X11242619Y-15046476D02*
X11233095Y-15027428D01*
X11233095Y-15027428D02*
X11223572Y-14989333D01*
X11223572Y-14989333D02*
X11223572Y-14941714D01*
X11223572Y-14941714D02*
X11233095Y-14903619D01*
X11233095Y-14903619D02*
X11242619Y-14884571D01*
X11242619Y-14884571D02*
X11252143Y-14875048D01*
X11252143Y-14875048D02*
X11271191Y-14865524D01*
X11414048Y-14884571D02*
X11423572Y-14875048D01*
X11423572Y-14875048D02*
X11442619Y-14865524D01*
X11442619Y-14865524D02*
X11490238Y-14865524D01*
X11490238Y-14865524D02*
X11509286Y-14875048D01*
X11509286Y-14875048D02*
X11518810Y-14884571D01*
X11518810Y-14884571D02*
X11528333Y-14903619D01*
X11528333Y-14903619D02*
X11528333Y-14922667D01*
X11528333Y-14922667D02*
X11518810Y-14951238D01*
X11518810Y-14951238D02*
X11404524Y-15065524D01*
X11404524Y-15065524D02*
X11528333Y-15065524D01*
X11623572Y-15065524D02*
X11661667Y-15065524D01*
X11661667Y-15065524D02*
X11680714Y-15056000D01*
X11680714Y-15056000D02*
X11690238Y-15046476D01*
X11690238Y-15046476D02*
X11709286Y-15017905D01*
X11709286Y-15017905D02*
X11718810Y-14979809D01*
X11718810Y-14979809D02*
X11718810Y-14903619D01*
X11718810Y-14903619D02*
X11709286Y-14884571D01*
X11709286Y-14884571D02*
X11699762Y-14875048D01*
X11699762Y-14875048D02*
X11680714Y-14865524D01*
X11680714Y-14865524D02*
X11642619Y-14865524D01*
X11642619Y-14865524D02*
X11623572Y-14875048D01*
X11623572Y-14875048D02*
X11614048Y-14884571D01*
X11614048Y-14884571D02*
X11604524Y-14903619D01*
X11604524Y-14903619D02*
X11604524Y-14951238D01*
X11604524Y-14951238D02*
X11614048Y-14970286D01*
X11614048Y-14970286D02*
X11623572Y-14979809D01*
X11623572Y-14979809D02*
X11642619Y-14989333D01*
X11642619Y-14989333D02*
X11680714Y-14989333D01*
X11680714Y-14989333D02*
X11699762Y-14979809D01*
X11699762Y-14979809D02*
X11709286Y-14970286D01*
X11709286Y-14970286D02*
X11718810Y-14951238D01*
X11899762Y-14865524D02*
X11804524Y-14865524D01*
X11804524Y-14865524D02*
X11795000Y-14960762D01*
X11795000Y-14960762D02*
X11804524Y-14951238D01*
X11804524Y-14951238D02*
X11823572Y-14941714D01*
X11823572Y-14941714D02*
X11871191Y-14941714D01*
X11871191Y-14941714D02*
X11890238Y-14951238D01*
X11890238Y-14951238D02*
X11899762Y-14960762D01*
X11899762Y-14960762D02*
X11909286Y-14979809D01*
X11909286Y-14979809D02*
X11909286Y-15027428D01*
X11909286Y-15027428D02*
X11899762Y-15046476D01*
X11899762Y-15046476D02*
X11890238Y-15056000D01*
X11890238Y-15056000D02*
X11871191Y-15065524D01*
X11871191Y-15065524D02*
X11823572Y-15065524D01*
X11823572Y-15065524D02*
X11804524Y-15056000D01*
X11804524Y-15056000D02*
X11795000Y-15046476D01*
X11985476Y-14865524D02*
X11985476Y-14903619D01*
X12061667Y-14865524D02*
X12061667Y-14903619D01*
X12356905Y-15141714D02*
X12347381Y-15132190D01*
X12347381Y-15132190D02*
X12328334Y-15103619D01*
X12328334Y-15103619D02*
X12318810Y-15084571D01*
X12318810Y-15084571D02*
X12309286Y-15056000D01*
X12309286Y-15056000D02*
X12299762Y-15008381D01*
X12299762Y-15008381D02*
X12299762Y-14970286D01*
X12299762Y-14970286D02*
X12309286Y-14922667D01*
X12309286Y-14922667D02*
X12318810Y-14894095D01*
X12318810Y-14894095D02*
X12328334Y-14875048D01*
X12328334Y-14875048D02*
X12347381Y-14846476D01*
X12347381Y-14846476D02*
X12356905Y-14836952D01*
X12414048Y-14865524D02*
X12537857Y-14865524D01*
X12537857Y-14865524D02*
X12471191Y-14941714D01*
X12471191Y-14941714D02*
X12499762Y-14941714D01*
X12499762Y-14941714D02*
X12518810Y-14951238D01*
X12518810Y-14951238D02*
X12528334Y-14960762D01*
X12528334Y-14960762D02*
X12537857Y-14979809D01*
X12537857Y-14979809D02*
X12537857Y-15027428D01*
X12537857Y-15027428D02*
X12528334Y-15046476D01*
X12528334Y-15046476D02*
X12518810Y-15056000D01*
X12518810Y-15056000D02*
X12499762Y-15065524D01*
X12499762Y-15065524D02*
X12442619Y-15065524D01*
X12442619Y-15065524D02*
X12423572Y-15056000D01*
X12423572Y-15056000D02*
X12414048Y-15046476D01*
X12775953Y-15065524D02*
X12775953Y-14865524D01*
X12861667Y-15065524D02*
X12861667Y-14960762D01*
X12861667Y-14960762D02*
X12852143Y-14941714D01*
X12852143Y-14941714D02*
X12833096Y-14932190D01*
X12833096Y-14932190D02*
X12804524Y-14932190D01*
X12804524Y-14932190D02*
X12785476Y-14941714D01*
X12785476Y-14941714D02*
X12775953Y-14951238D01*
X12985476Y-15065524D02*
X12966429Y-15056000D01*
X12966429Y-15056000D02*
X12956905Y-15046476D01*
X12956905Y-15046476D02*
X12947381Y-15027428D01*
X12947381Y-15027428D02*
X12947381Y-14970286D01*
X12947381Y-14970286D02*
X12956905Y-14951238D01*
X12956905Y-14951238D02*
X12966429Y-14941714D01*
X12966429Y-14941714D02*
X12985476Y-14932190D01*
X12985476Y-14932190D02*
X13014048Y-14932190D01*
X13014048Y-14932190D02*
X13033096Y-14941714D01*
X13033096Y-14941714D02*
X13042619Y-14951238D01*
X13042619Y-14951238D02*
X13052143Y-14970286D01*
X13052143Y-14970286D02*
X13052143Y-15027428D01*
X13052143Y-15027428D02*
X13042619Y-15046476D01*
X13042619Y-15046476D02*
X13033096Y-15056000D01*
X13033096Y-15056000D02*
X13014048Y-15065524D01*
X13014048Y-15065524D02*
X12985476Y-15065524D01*
X13166429Y-15065524D02*
X13147381Y-15056000D01*
X13147381Y-15056000D02*
X13137857Y-15036952D01*
X13137857Y-15036952D02*
X13137857Y-14865524D01*
X13318810Y-15056000D02*
X13299762Y-15065524D01*
X13299762Y-15065524D02*
X13261667Y-15065524D01*
X13261667Y-15065524D02*
X13242619Y-15056000D01*
X13242619Y-15056000D02*
X13233096Y-15036952D01*
X13233096Y-15036952D02*
X13233096Y-14960762D01*
X13233096Y-14960762D02*
X13242619Y-14941714D01*
X13242619Y-14941714D02*
X13261667Y-14932190D01*
X13261667Y-14932190D02*
X13299762Y-14932190D01*
X13299762Y-14932190D02*
X13318810Y-14941714D01*
X13318810Y-14941714D02*
X13328334Y-14960762D01*
X13328334Y-14960762D02*
X13328334Y-14979809D01*
X13328334Y-14979809D02*
X13233096Y-14998857D01*
X13404524Y-15056000D02*
X13423572Y-15065524D01*
X13423572Y-15065524D02*
X13461667Y-15065524D01*
X13461667Y-15065524D02*
X13480715Y-15056000D01*
X13480715Y-15056000D02*
X13490238Y-15036952D01*
X13490238Y-15036952D02*
X13490238Y-15027428D01*
X13490238Y-15027428D02*
X13480715Y-15008381D01*
X13480715Y-15008381D02*
X13461667Y-14998857D01*
X13461667Y-14998857D02*
X13433096Y-14998857D01*
X13433096Y-14998857D02*
X13414048Y-14989333D01*
X13414048Y-14989333D02*
X13404524Y-14970286D01*
X13404524Y-14970286D02*
X13404524Y-14960762D01*
X13404524Y-14960762D02*
X13414048Y-14941714D01*
X13414048Y-14941714D02*
X13433096Y-14932190D01*
X13433096Y-14932190D02*
X13461667Y-14932190D01*
X13461667Y-14932190D02*
X13480715Y-14941714D01*
X13556905Y-15141714D02*
X13566429Y-15132190D01*
X13566429Y-15132190D02*
X13585477Y-15103619D01*
X13585477Y-15103619D02*
X13595000Y-15084571D01*
X13595000Y-15084571D02*
X13604524Y-15056000D01*
X13604524Y-15056000D02*
X13614048Y-15008381D01*
X13614048Y-15008381D02*
X13614048Y-14970286D01*
X13614048Y-14970286D02*
X13604524Y-14922667D01*
X13604524Y-14922667D02*
X13595000Y-14894095D01*
X13595000Y-14894095D02*
X13585477Y-14875048D01*
X13585477Y-14875048D02*
X13566429Y-14846476D01*
X13566429Y-14846476D02*
X13556905Y-14836952D01*
D10*
X8780356Y-15272356D02*
X8780356Y-15201644D01*
X8709644Y-15201644D01*
X8709644Y-15272356D01*
X8780356Y-15272356D01*
D11*
X9147381Y-15329524D02*
X9033095Y-15329524D01*
X9090238Y-15329524D02*
X9090238Y-15129524D01*
X9090238Y-15129524D02*
X9071190Y-15158095D01*
X9071190Y-15158095D02*
X9052143Y-15177143D01*
X9052143Y-15177143D02*
X9033095Y-15186667D01*
X9233095Y-15310476D02*
X9242619Y-15320000D01*
X9242619Y-15320000D02*
X9233095Y-15329524D01*
X9233095Y-15329524D02*
X9223571Y-15320000D01*
X9223571Y-15320000D02*
X9233095Y-15310476D01*
X9233095Y-15310476D02*
X9233095Y-15329524D01*
X9366429Y-15129524D02*
X9385476Y-15129524D01*
X9385476Y-15129524D02*
X9404524Y-15139048D01*
X9404524Y-15139048D02*
X9414048Y-15148571D01*
X9414048Y-15148571D02*
X9423571Y-15167619D01*
X9423571Y-15167619D02*
X9433095Y-15205714D01*
X9433095Y-15205714D02*
X9433095Y-15253333D01*
X9433095Y-15253333D02*
X9423571Y-15291428D01*
X9423571Y-15291428D02*
X9414048Y-15310476D01*
X9414048Y-15310476D02*
X9404524Y-15320000D01*
X9404524Y-15320000D02*
X9385476Y-15329524D01*
X9385476Y-15329524D02*
X9366429Y-15329524D01*
X9366429Y-15329524D02*
X9347381Y-15320000D01*
X9347381Y-15320000D02*
X9337857Y-15310476D01*
X9337857Y-15310476D02*
X9328333Y-15291428D01*
X9328333Y-15291428D02*
X9318810Y-15253333D01*
X9318810Y-15253333D02*
X9318810Y-15205714D01*
X9318810Y-15205714D02*
X9328333Y-15167619D01*
X9328333Y-15167619D02*
X9337857Y-15148571D01*
X9337857Y-15148571D02*
X9347381Y-15139048D01*
X9347381Y-15139048D02*
X9366429Y-15129524D01*
X9556905Y-15129524D02*
X9575952Y-15129524D01*
X9575952Y-15129524D02*
X9595000Y-15139048D01*
X9595000Y-15139048D02*
X9604524Y-15148571D01*
X9604524Y-15148571D02*
X9614048Y-15167619D01*
X9614048Y-15167619D02*
X9623571Y-15205714D01*
X9623571Y-15205714D02*
X9623571Y-15253333D01*
X9623571Y-15253333D02*
X9614048Y-15291428D01*
X9614048Y-15291428D02*
X9604524Y-15310476D01*
X9604524Y-15310476D02*
X9595000Y-15320000D01*
X9595000Y-15320000D02*
X9575952Y-15329524D01*
X9575952Y-15329524D02*
X9556905Y-15329524D01*
X9556905Y-15329524D02*
X9537857Y-15320000D01*
X9537857Y-15320000D02*
X9528333Y-15310476D01*
X9528333Y-15310476D02*
X9518810Y-15291428D01*
X9518810Y-15291428D02*
X9509286Y-15253333D01*
X9509286Y-15253333D02*
X9509286Y-15205714D01*
X9509286Y-15205714D02*
X9518810Y-15167619D01*
X9518810Y-15167619D02*
X9528333Y-15148571D01*
X9528333Y-15148571D02*
X9537857Y-15139048D01*
X9537857Y-15139048D02*
X9556905Y-15129524D01*
X9747381Y-15129524D02*
X9766429Y-15129524D01*
X9766429Y-15129524D02*
X9785476Y-15139048D01*
X9785476Y-15139048D02*
X9795000Y-15148571D01*
X9795000Y-15148571D02*
X9804524Y-15167619D01*
X9804524Y-15167619D02*
X9814048Y-15205714D01*
X9814048Y-15205714D02*
X9814048Y-15253333D01*
X9814048Y-15253333D02*
X9804524Y-15291428D01*
X9804524Y-15291428D02*
X9795000Y-15310476D01*
X9795000Y-15310476D02*
X9785476Y-15320000D01*
X9785476Y-15320000D02*
X9766429Y-15329524D01*
X9766429Y-15329524D02*
X9747381Y-15329524D01*
X9747381Y-15329524D02*
X9728333Y-15320000D01*
X9728333Y-15320000D02*
X9718810Y-15310476D01*
X9718810Y-15310476D02*
X9709286Y-15291428D01*
X9709286Y-15291428D02*
X9699762Y-15253333D01*
X9699762Y-15253333D02*
X9699762Y-15205714D01*
X9699762Y-15205714D02*
X9709286Y-15167619D01*
X9709286Y-15167619D02*
X9718810Y-15148571D01*
X9718810Y-15148571D02*
X9728333Y-15139048D01*
X9728333Y-15139048D02*
X9747381Y-15129524D01*
X9899762Y-15329524D02*
X9899762Y-15196190D01*
X9899762Y-15215238D02*
X9909286Y-15205714D01*
X9909286Y-15205714D02*
X9928333Y-15196190D01*
X9928333Y-15196190D02*
X9956905Y-15196190D01*
X9956905Y-15196190D02*
X9975952Y-15205714D01*
X9975952Y-15205714D02*
X9985476Y-15224762D01*
X9985476Y-15224762D02*
X9985476Y-15329524D01*
X9985476Y-15224762D02*
X9995000Y-15205714D01*
X9995000Y-15205714D02*
X10014048Y-15196190D01*
X10014048Y-15196190D02*
X10042619Y-15196190D01*
X10042619Y-15196190D02*
X10061667Y-15205714D01*
X10061667Y-15205714D02*
X10071191Y-15224762D01*
X10071191Y-15224762D02*
X10071191Y-15329524D01*
X10166429Y-15329524D02*
X10166429Y-15196190D01*
X10166429Y-15215238D02*
X10175952Y-15205714D01*
X10175952Y-15205714D02*
X10195000Y-15196190D01*
X10195000Y-15196190D02*
X10223572Y-15196190D01*
X10223572Y-15196190D02*
X10242619Y-15205714D01*
X10242619Y-15205714D02*
X10252143Y-15224762D01*
X10252143Y-15224762D02*
X10252143Y-15329524D01*
X10252143Y-15224762D02*
X10261667Y-15205714D01*
X10261667Y-15205714D02*
X10280714Y-15196190D01*
X10280714Y-15196190D02*
X10309286Y-15196190D01*
X10309286Y-15196190D02*
X10328333Y-15205714D01*
X10328333Y-15205714D02*
X10337857Y-15224762D01*
X10337857Y-15224762D02*
X10337857Y-15329524D01*
X10728333Y-15120000D02*
X10556905Y-15377143D01*
X10985476Y-15129524D02*
X11004524Y-15129524D01*
X11004524Y-15129524D02*
X11023572Y-15139048D01*
X11023572Y-15139048D02*
X11033095Y-15148571D01*
X11033095Y-15148571D02*
X11042619Y-15167619D01*
X11042619Y-15167619D02*
X11052143Y-15205714D01*
X11052143Y-15205714D02*
X11052143Y-15253333D01*
X11052143Y-15253333D02*
X11042619Y-15291428D01*
X11042619Y-15291428D02*
X11033095Y-15310476D01*
X11033095Y-15310476D02*
X11023572Y-15320000D01*
X11023572Y-15320000D02*
X11004524Y-15329524D01*
X11004524Y-15329524D02*
X10985476Y-15329524D01*
X10985476Y-15329524D02*
X10966429Y-15320000D01*
X10966429Y-15320000D02*
X10956905Y-15310476D01*
X10956905Y-15310476D02*
X10947381Y-15291428D01*
X10947381Y-15291428D02*
X10937857Y-15253333D01*
X10937857Y-15253333D02*
X10937857Y-15205714D01*
X10937857Y-15205714D02*
X10947381Y-15167619D01*
X10947381Y-15167619D02*
X10956905Y-15148571D01*
X10956905Y-15148571D02*
X10966429Y-15139048D01*
X10966429Y-15139048D02*
X10985476Y-15129524D01*
X11137857Y-15310476D02*
X11147381Y-15320000D01*
X11147381Y-15320000D02*
X11137857Y-15329524D01*
X11137857Y-15329524D02*
X11128334Y-15320000D01*
X11128334Y-15320000D02*
X11137857Y-15310476D01*
X11137857Y-15310476D02*
X11137857Y-15329524D01*
X11271191Y-15129524D02*
X11290238Y-15129524D01*
X11290238Y-15129524D02*
X11309286Y-15139048D01*
X11309286Y-15139048D02*
X11318810Y-15148571D01*
X11318810Y-15148571D02*
X11328333Y-15167619D01*
X11328333Y-15167619D02*
X11337857Y-15205714D01*
X11337857Y-15205714D02*
X11337857Y-15253333D01*
X11337857Y-15253333D02*
X11328333Y-15291428D01*
X11328333Y-15291428D02*
X11318810Y-15310476D01*
X11318810Y-15310476D02*
X11309286Y-15320000D01*
X11309286Y-15320000D02*
X11290238Y-15329524D01*
X11290238Y-15329524D02*
X11271191Y-15329524D01*
X11271191Y-15329524D02*
X11252143Y-15320000D01*
X11252143Y-15320000D02*
X11242619Y-15310476D01*
X11242619Y-15310476D02*
X11233095Y-15291428D01*
X11233095Y-15291428D02*
X11223572Y-15253333D01*
X11223572Y-15253333D02*
X11223572Y-15205714D01*
X11223572Y-15205714D02*
X11233095Y-15167619D01*
X11233095Y-15167619D02*
X11242619Y-15148571D01*
X11242619Y-15148571D02*
X11252143Y-15139048D01*
X11252143Y-15139048D02*
X11271191Y-15129524D01*
X11404524Y-15129524D02*
X11528333Y-15129524D01*
X11528333Y-15129524D02*
X11461667Y-15205714D01*
X11461667Y-15205714D02*
X11490238Y-15205714D01*
X11490238Y-15205714D02*
X11509286Y-15215238D01*
X11509286Y-15215238D02*
X11518810Y-15224762D01*
X11518810Y-15224762D02*
X11528333Y-15243809D01*
X11528333Y-15243809D02*
X11528333Y-15291428D01*
X11528333Y-15291428D02*
X11518810Y-15310476D01*
X11518810Y-15310476D02*
X11509286Y-15320000D01*
X11509286Y-15320000D02*
X11490238Y-15329524D01*
X11490238Y-15329524D02*
X11433095Y-15329524D01*
X11433095Y-15329524D02*
X11414048Y-15320000D01*
X11414048Y-15320000D02*
X11404524Y-15310476D01*
X11623572Y-15329524D02*
X11661667Y-15329524D01*
X11661667Y-15329524D02*
X11680714Y-15320000D01*
X11680714Y-15320000D02*
X11690238Y-15310476D01*
X11690238Y-15310476D02*
X11709286Y-15281905D01*
X11709286Y-15281905D02*
X11718810Y-15243809D01*
X11718810Y-15243809D02*
X11718810Y-15167619D01*
X11718810Y-15167619D02*
X11709286Y-15148571D01*
X11709286Y-15148571D02*
X11699762Y-15139048D01*
X11699762Y-15139048D02*
X11680714Y-15129524D01*
X11680714Y-15129524D02*
X11642619Y-15129524D01*
X11642619Y-15129524D02*
X11623572Y-15139048D01*
X11623572Y-15139048D02*
X11614048Y-15148571D01*
X11614048Y-15148571D02*
X11604524Y-15167619D01*
X11604524Y-15167619D02*
X11604524Y-15215238D01*
X11604524Y-15215238D02*
X11614048Y-15234286D01*
X11614048Y-15234286D02*
X11623572Y-15243809D01*
X11623572Y-15243809D02*
X11642619Y-15253333D01*
X11642619Y-15253333D02*
X11680714Y-15253333D01*
X11680714Y-15253333D02*
X11699762Y-15243809D01*
X11699762Y-15243809D02*
X11709286Y-15234286D01*
X11709286Y-15234286D02*
X11718810Y-15215238D01*
X11890238Y-15196190D02*
X11890238Y-15329524D01*
X11842619Y-15120000D02*
X11795000Y-15262857D01*
X11795000Y-15262857D02*
X11918810Y-15262857D01*
X11985476Y-15129524D02*
X11985476Y-15167619D01*
X12061667Y-15129524D02*
X12061667Y-15167619D01*
X12356905Y-15405714D02*
X12347381Y-15396190D01*
X12347381Y-15396190D02*
X12328334Y-15367619D01*
X12328334Y-15367619D02*
X12318810Y-15348571D01*
X12318810Y-15348571D02*
X12309286Y-15320000D01*
X12309286Y-15320000D02*
X12299762Y-15272381D01*
X12299762Y-15272381D02*
X12299762Y-15234286D01*
X12299762Y-15234286D02*
X12309286Y-15186667D01*
X12309286Y-15186667D02*
X12318810Y-15158095D01*
X12318810Y-15158095D02*
X12328334Y-15139048D01*
X12328334Y-15139048D02*
X12347381Y-15110476D01*
X12347381Y-15110476D02*
X12356905Y-15100952D01*
X12442619Y-15329524D02*
X12480714Y-15329524D01*
X12480714Y-15329524D02*
X12499762Y-15320000D01*
X12499762Y-15320000D02*
X12509286Y-15310476D01*
X12509286Y-15310476D02*
X12528334Y-15281905D01*
X12528334Y-15281905D02*
X12537857Y-15243809D01*
X12537857Y-15243809D02*
X12537857Y-15167619D01*
X12537857Y-15167619D02*
X12528334Y-15148571D01*
X12528334Y-15148571D02*
X12518810Y-15139048D01*
X12518810Y-15139048D02*
X12499762Y-15129524D01*
X12499762Y-15129524D02*
X12461667Y-15129524D01*
X12461667Y-15129524D02*
X12442619Y-15139048D01*
X12442619Y-15139048D02*
X12433095Y-15148571D01*
X12433095Y-15148571D02*
X12423572Y-15167619D01*
X12423572Y-15167619D02*
X12423572Y-15215238D01*
X12423572Y-15215238D02*
X12433095Y-15234286D01*
X12433095Y-15234286D02*
X12442619Y-15243809D01*
X12442619Y-15243809D02*
X12461667Y-15253333D01*
X12461667Y-15253333D02*
X12499762Y-15253333D01*
X12499762Y-15253333D02*
X12518810Y-15243809D01*
X12518810Y-15243809D02*
X12528334Y-15234286D01*
X12528334Y-15234286D02*
X12537857Y-15215238D01*
X12775953Y-15329524D02*
X12775953Y-15129524D01*
X12861667Y-15329524D02*
X12861667Y-15224762D01*
X12861667Y-15224762D02*
X12852143Y-15205714D01*
X12852143Y-15205714D02*
X12833096Y-15196190D01*
X12833096Y-15196190D02*
X12804524Y-15196190D01*
X12804524Y-15196190D02*
X12785476Y-15205714D01*
X12785476Y-15205714D02*
X12775953Y-15215238D01*
X12985476Y-15329524D02*
X12966429Y-15320000D01*
X12966429Y-15320000D02*
X12956905Y-15310476D01*
X12956905Y-15310476D02*
X12947381Y-15291428D01*
X12947381Y-15291428D02*
X12947381Y-15234286D01*
X12947381Y-15234286D02*
X12956905Y-15215238D01*
X12956905Y-15215238D02*
X12966429Y-15205714D01*
X12966429Y-15205714D02*
X12985476Y-15196190D01*
X12985476Y-15196190D02*
X13014048Y-15196190D01*
X13014048Y-15196190D02*
X13033096Y-15205714D01*
X13033096Y-15205714D02*
X13042619Y-15215238D01*
X13042619Y-15215238D02*
X13052143Y-15234286D01*
X13052143Y-15234286D02*
X13052143Y-15291428D01*
X13052143Y-15291428D02*
X13042619Y-15310476D01*
X13042619Y-15310476D02*
X13033096Y-15320000D01*
X13033096Y-15320000D02*
X13014048Y-15329524D01*
X13014048Y-15329524D02*
X12985476Y-15329524D01*
X13166429Y-15329524D02*
X13147381Y-15320000D01*
X13147381Y-15320000D02*
X13137857Y-15300952D01*
X13137857Y-15300952D02*
X13137857Y-15129524D01*
X13318810Y-15320000D02*
X13299762Y-15329524D01*
X13299762Y-15329524D02*
X13261667Y-15329524D01*
X13261667Y-15329524D02*
X13242619Y-15320000D01*
X13242619Y-15320000D02*
X13233096Y-15300952D01*
X13233096Y-15300952D02*
X13233096Y-15224762D01*
X13233096Y-15224762D02*
X13242619Y-15205714D01*
X13242619Y-15205714D02*
X13261667Y-15196190D01*
X13261667Y-15196190D02*
X13299762Y-15196190D01*
X13299762Y-15196190D02*
X13318810Y-15205714D01*
X13318810Y-15205714D02*
X13328334Y-15224762D01*
X13328334Y-15224762D02*
X13328334Y-15243809D01*
X13328334Y-15243809D02*
X13233096Y-15262857D01*
X13404524Y-15320000D02*
X13423572Y-15329524D01*
X13423572Y-15329524D02*
X13461667Y-15329524D01*
X13461667Y-15329524D02*
X13480715Y-15320000D01*
X13480715Y-15320000D02*
X13490238Y-15300952D01*
X13490238Y-15300952D02*
X13490238Y-15291428D01*
X13490238Y-15291428D02*
X13480715Y-15272381D01*
X13480715Y-15272381D02*
X13461667Y-15262857D01*
X13461667Y-15262857D02*
X13433096Y-15262857D01*
X13433096Y-15262857D02*
X13414048Y-15253333D01*
X13414048Y-15253333D02*
X13404524Y-15234286D01*
X13404524Y-15234286D02*
X13404524Y-15224762D01*
X13404524Y-15224762D02*
X13414048Y-15205714D01*
X13414048Y-15205714D02*
X13433096Y-15196190D01*
X13433096Y-15196190D02*
X13461667Y-15196190D01*
X13461667Y-15196190D02*
X13480715Y-15205714D01*
X13556905Y-15405714D02*
X13566429Y-15396190D01*
X13566429Y-15396190D02*
X13585477Y-15367619D01*
X13585477Y-15367619D02*
X13595000Y-15348571D01*
X13595000Y-15348571D02*
X13604524Y-15320000D01*
X13604524Y-15320000D02*
X13614048Y-15272381D01*
X13614048Y-15272381D02*
X13614048Y-15234286D01*
X13614048Y-15234286D02*
X13604524Y-15186667D01*
X13604524Y-15186667D02*
X13595000Y-15158095D01*
X13595000Y-15158095D02*
X13585477Y-15139048D01*
X13585477Y-15139048D02*
X13566429Y-15110476D01*
X13566429Y-15110476D02*
X13556905Y-15100952D01*
D10*
X8745000Y-15551000D02*
X8795000Y-15501000D01*
X8745000Y-15451000D01*
X8695000Y-15501000D01*
X8745000Y-15551000D01*
D11*
X9147381Y-15593524D02*
X9033095Y-15593524D01*
X9090238Y-15593524D02*
X9090238Y-15393524D01*
X9090238Y-15393524D02*
X9071190Y-15422095D01*
X9071190Y-15422095D02*
X9052143Y-15441143D01*
X9052143Y-15441143D02*
X9033095Y-15450667D01*
X9233095Y-15574476D02*
X9242619Y-15584000D01*
X9242619Y-15584000D02*
X9233095Y-15593524D01*
X9233095Y-15593524D02*
X9223571Y-15584000D01*
X9223571Y-15584000D02*
X9233095Y-15574476D01*
X9233095Y-15574476D02*
X9233095Y-15593524D01*
X9366429Y-15393524D02*
X9385476Y-15393524D01*
X9385476Y-15393524D02*
X9404524Y-15403048D01*
X9404524Y-15403048D02*
X9414048Y-15412571D01*
X9414048Y-15412571D02*
X9423571Y-15431619D01*
X9423571Y-15431619D02*
X9433095Y-15469714D01*
X9433095Y-15469714D02*
X9433095Y-15517333D01*
X9433095Y-15517333D02*
X9423571Y-15555428D01*
X9423571Y-15555428D02*
X9414048Y-15574476D01*
X9414048Y-15574476D02*
X9404524Y-15584000D01*
X9404524Y-15584000D02*
X9385476Y-15593524D01*
X9385476Y-15593524D02*
X9366429Y-15593524D01*
X9366429Y-15593524D02*
X9347381Y-15584000D01*
X9347381Y-15584000D02*
X9337857Y-15574476D01*
X9337857Y-15574476D02*
X9328333Y-15555428D01*
X9328333Y-15555428D02*
X9318810Y-15517333D01*
X9318810Y-15517333D02*
X9318810Y-15469714D01*
X9318810Y-15469714D02*
X9328333Y-15431619D01*
X9328333Y-15431619D02*
X9337857Y-15412571D01*
X9337857Y-15412571D02*
X9347381Y-15403048D01*
X9347381Y-15403048D02*
X9366429Y-15393524D01*
X9556905Y-15393524D02*
X9575952Y-15393524D01*
X9575952Y-15393524D02*
X9595000Y-15403048D01*
X9595000Y-15403048D02*
X9604524Y-15412571D01*
X9604524Y-15412571D02*
X9614048Y-15431619D01*
X9614048Y-15431619D02*
X9623571Y-15469714D01*
X9623571Y-15469714D02*
X9623571Y-15517333D01*
X9623571Y-15517333D02*
X9614048Y-15555428D01*
X9614048Y-15555428D02*
X9604524Y-15574476D01*
X9604524Y-15574476D02*
X9595000Y-15584000D01*
X9595000Y-15584000D02*
X9575952Y-15593524D01*
X9575952Y-15593524D02*
X9556905Y-15593524D01*
X9556905Y-15593524D02*
X9537857Y-15584000D01*
X9537857Y-15584000D02*
X9528333Y-15574476D01*
X9528333Y-15574476D02*
X9518810Y-15555428D01*
X9518810Y-15555428D02*
X9509286Y-15517333D01*
X9509286Y-15517333D02*
X9509286Y-15469714D01*
X9509286Y-15469714D02*
X9518810Y-15431619D01*
X9518810Y-15431619D02*
X9528333Y-15412571D01*
X9528333Y-15412571D02*
X9537857Y-15403048D01*
X9537857Y-15403048D02*
X9556905Y-15393524D01*
X9747381Y-15393524D02*
X9766429Y-15393524D01*
X9766429Y-15393524D02*
X9785476Y-15403048D01*
X9785476Y-15403048D02*
X9795000Y-15412571D01*
X9795000Y-15412571D02*
X9804524Y-15431619D01*
X9804524Y-15431619D02*
X9814048Y-15469714D01*
X9814048Y-15469714D02*
X9814048Y-15517333D01*
X9814048Y-15517333D02*
X9804524Y-15555428D01*
X9804524Y-15555428D02*
X9795000Y-15574476D01*
X9795000Y-15574476D02*
X9785476Y-15584000D01*
X9785476Y-15584000D02*
X9766429Y-15593524D01*
X9766429Y-15593524D02*
X9747381Y-15593524D01*
X9747381Y-15593524D02*
X9728333Y-15584000D01*
X9728333Y-15584000D02*
X9718810Y-15574476D01*
X9718810Y-15574476D02*
X9709286Y-15555428D01*
X9709286Y-15555428D02*
X9699762Y-15517333D01*
X9699762Y-15517333D02*
X9699762Y-15469714D01*
X9699762Y-15469714D02*
X9709286Y-15431619D01*
X9709286Y-15431619D02*
X9718810Y-15412571D01*
X9718810Y-15412571D02*
X9728333Y-15403048D01*
X9728333Y-15403048D02*
X9747381Y-15393524D01*
X9899762Y-15593524D02*
X9899762Y-15460190D01*
X9899762Y-15479238D02*
X9909286Y-15469714D01*
X9909286Y-15469714D02*
X9928333Y-15460190D01*
X9928333Y-15460190D02*
X9956905Y-15460190D01*
X9956905Y-15460190D02*
X9975952Y-15469714D01*
X9975952Y-15469714D02*
X9985476Y-15488762D01*
X9985476Y-15488762D02*
X9985476Y-15593524D01*
X9985476Y-15488762D02*
X9995000Y-15469714D01*
X9995000Y-15469714D02*
X10014048Y-15460190D01*
X10014048Y-15460190D02*
X10042619Y-15460190D01*
X10042619Y-15460190D02*
X10061667Y-15469714D01*
X10061667Y-15469714D02*
X10071191Y-15488762D01*
X10071191Y-15488762D02*
X10071191Y-15593524D01*
X10166429Y-15593524D02*
X10166429Y-15460190D01*
X10166429Y-15479238D02*
X10175952Y-15469714D01*
X10175952Y-15469714D02*
X10195000Y-15460190D01*
X10195000Y-15460190D02*
X10223572Y-15460190D01*
X10223572Y-15460190D02*
X10242619Y-15469714D01*
X10242619Y-15469714D02*
X10252143Y-15488762D01*
X10252143Y-15488762D02*
X10252143Y-15593524D01*
X10252143Y-15488762D02*
X10261667Y-15469714D01*
X10261667Y-15469714D02*
X10280714Y-15460190D01*
X10280714Y-15460190D02*
X10309286Y-15460190D01*
X10309286Y-15460190D02*
X10328333Y-15469714D01*
X10328333Y-15469714D02*
X10337857Y-15488762D01*
X10337857Y-15488762D02*
X10337857Y-15593524D01*
X10728333Y-15384000D02*
X10556905Y-15641143D01*
X10985476Y-15393524D02*
X11004524Y-15393524D01*
X11004524Y-15393524D02*
X11023572Y-15403048D01*
X11023572Y-15403048D02*
X11033095Y-15412571D01*
X11033095Y-15412571D02*
X11042619Y-15431619D01*
X11042619Y-15431619D02*
X11052143Y-15469714D01*
X11052143Y-15469714D02*
X11052143Y-15517333D01*
X11052143Y-15517333D02*
X11042619Y-15555428D01*
X11042619Y-15555428D02*
X11033095Y-15574476D01*
X11033095Y-15574476D02*
X11023572Y-15584000D01*
X11023572Y-15584000D02*
X11004524Y-15593524D01*
X11004524Y-15593524D02*
X10985476Y-15593524D01*
X10985476Y-15593524D02*
X10966429Y-15584000D01*
X10966429Y-15584000D02*
X10956905Y-15574476D01*
X10956905Y-15574476D02*
X10947381Y-15555428D01*
X10947381Y-15555428D02*
X10937857Y-15517333D01*
X10937857Y-15517333D02*
X10937857Y-15469714D01*
X10937857Y-15469714D02*
X10947381Y-15431619D01*
X10947381Y-15431619D02*
X10956905Y-15412571D01*
X10956905Y-15412571D02*
X10966429Y-15403048D01*
X10966429Y-15403048D02*
X10985476Y-15393524D01*
X11137857Y-15574476D02*
X11147381Y-15584000D01*
X11147381Y-15584000D02*
X11137857Y-15593524D01*
X11137857Y-15593524D02*
X11128334Y-15584000D01*
X11128334Y-15584000D02*
X11137857Y-15574476D01*
X11137857Y-15574476D02*
X11137857Y-15593524D01*
X11271191Y-15393524D02*
X11290238Y-15393524D01*
X11290238Y-15393524D02*
X11309286Y-15403048D01*
X11309286Y-15403048D02*
X11318810Y-15412571D01*
X11318810Y-15412571D02*
X11328333Y-15431619D01*
X11328333Y-15431619D02*
X11337857Y-15469714D01*
X11337857Y-15469714D02*
X11337857Y-15517333D01*
X11337857Y-15517333D02*
X11328333Y-15555428D01*
X11328333Y-15555428D02*
X11318810Y-15574476D01*
X11318810Y-15574476D02*
X11309286Y-15584000D01*
X11309286Y-15584000D02*
X11290238Y-15593524D01*
X11290238Y-15593524D02*
X11271191Y-15593524D01*
X11271191Y-15593524D02*
X11252143Y-15584000D01*
X11252143Y-15584000D02*
X11242619Y-15574476D01*
X11242619Y-15574476D02*
X11233095Y-15555428D01*
X11233095Y-15555428D02*
X11223572Y-15517333D01*
X11223572Y-15517333D02*
X11223572Y-15469714D01*
X11223572Y-15469714D02*
X11233095Y-15431619D01*
X11233095Y-15431619D02*
X11242619Y-15412571D01*
X11242619Y-15412571D02*
X11252143Y-15403048D01*
X11252143Y-15403048D02*
X11271191Y-15393524D01*
X11404524Y-15393524D02*
X11528333Y-15393524D01*
X11528333Y-15393524D02*
X11461667Y-15469714D01*
X11461667Y-15469714D02*
X11490238Y-15469714D01*
X11490238Y-15469714D02*
X11509286Y-15479238D01*
X11509286Y-15479238D02*
X11518810Y-15488762D01*
X11518810Y-15488762D02*
X11528333Y-15507809D01*
X11528333Y-15507809D02*
X11528333Y-15555428D01*
X11528333Y-15555428D02*
X11518810Y-15574476D01*
X11518810Y-15574476D02*
X11509286Y-15584000D01*
X11509286Y-15584000D02*
X11490238Y-15593524D01*
X11490238Y-15593524D02*
X11433095Y-15593524D01*
X11433095Y-15593524D02*
X11414048Y-15584000D01*
X11414048Y-15584000D02*
X11404524Y-15574476D01*
X11623572Y-15593524D02*
X11661667Y-15593524D01*
X11661667Y-15593524D02*
X11680714Y-15584000D01*
X11680714Y-15584000D02*
X11690238Y-15574476D01*
X11690238Y-15574476D02*
X11709286Y-15545905D01*
X11709286Y-15545905D02*
X11718810Y-15507809D01*
X11718810Y-15507809D02*
X11718810Y-15431619D01*
X11718810Y-15431619D02*
X11709286Y-15412571D01*
X11709286Y-15412571D02*
X11699762Y-15403048D01*
X11699762Y-15403048D02*
X11680714Y-15393524D01*
X11680714Y-15393524D02*
X11642619Y-15393524D01*
X11642619Y-15393524D02*
X11623572Y-15403048D01*
X11623572Y-15403048D02*
X11614048Y-15412571D01*
X11614048Y-15412571D02*
X11604524Y-15431619D01*
X11604524Y-15431619D02*
X11604524Y-15479238D01*
X11604524Y-15479238D02*
X11614048Y-15498286D01*
X11614048Y-15498286D02*
X11623572Y-15507809D01*
X11623572Y-15507809D02*
X11642619Y-15517333D01*
X11642619Y-15517333D02*
X11680714Y-15517333D01*
X11680714Y-15517333D02*
X11699762Y-15507809D01*
X11699762Y-15507809D02*
X11709286Y-15498286D01*
X11709286Y-15498286D02*
X11718810Y-15479238D01*
X11890238Y-15460190D02*
X11890238Y-15593524D01*
X11842619Y-15384000D02*
X11795000Y-15526857D01*
X11795000Y-15526857D02*
X11918810Y-15526857D01*
X11985476Y-15393524D02*
X11985476Y-15431619D01*
X12061667Y-15393524D02*
X12061667Y-15431619D01*
X12356905Y-15669714D02*
X12347381Y-15660190D01*
X12347381Y-15660190D02*
X12328334Y-15631619D01*
X12328334Y-15631619D02*
X12318810Y-15612571D01*
X12318810Y-15612571D02*
X12309286Y-15584000D01*
X12309286Y-15584000D02*
X12299762Y-15536381D01*
X12299762Y-15536381D02*
X12299762Y-15498286D01*
X12299762Y-15498286D02*
X12309286Y-15450667D01*
X12309286Y-15450667D02*
X12318810Y-15422095D01*
X12318810Y-15422095D02*
X12328334Y-15403048D01*
X12328334Y-15403048D02*
X12347381Y-15374476D01*
X12347381Y-15374476D02*
X12356905Y-15364952D01*
X12537857Y-15593524D02*
X12423572Y-15593524D01*
X12480714Y-15593524D02*
X12480714Y-15393524D01*
X12480714Y-15393524D02*
X12461667Y-15422095D01*
X12461667Y-15422095D02*
X12442619Y-15441143D01*
X12442619Y-15441143D02*
X12423572Y-15450667D01*
X12652143Y-15479238D02*
X12633095Y-15469714D01*
X12633095Y-15469714D02*
X12623572Y-15460190D01*
X12623572Y-15460190D02*
X12614048Y-15441143D01*
X12614048Y-15441143D02*
X12614048Y-15431619D01*
X12614048Y-15431619D02*
X12623572Y-15412571D01*
X12623572Y-15412571D02*
X12633095Y-15403048D01*
X12633095Y-15403048D02*
X12652143Y-15393524D01*
X12652143Y-15393524D02*
X12690238Y-15393524D01*
X12690238Y-15393524D02*
X12709286Y-15403048D01*
X12709286Y-15403048D02*
X12718810Y-15412571D01*
X12718810Y-15412571D02*
X12728334Y-15431619D01*
X12728334Y-15431619D02*
X12728334Y-15441143D01*
X12728334Y-15441143D02*
X12718810Y-15460190D01*
X12718810Y-15460190D02*
X12709286Y-15469714D01*
X12709286Y-15469714D02*
X12690238Y-15479238D01*
X12690238Y-15479238D02*
X12652143Y-15479238D01*
X12652143Y-15479238D02*
X12633095Y-15488762D01*
X12633095Y-15488762D02*
X12623572Y-15498286D01*
X12623572Y-15498286D02*
X12614048Y-15517333D01*
X12614048Y-15517333D02*
X12614048Y-15555428D01*
X12614048Y-15555428D02*
X12623572Y-15574476D01*
X12623572Y-15574476D02*
X12633095Y-15584000D01*
X12633095Y-15584000D02*
X12652143Y-15593524D01*
X12652143Y-15593524D02*
X12690238Y-15593524D01*
X12690238Y-15593524D02*
X12709286Y-15584000D01*
X12709286Y-15584000D02*
X12718810Y-15574476D01*
X12718810Y-15574476D02*
X12728334Y-15555428D01*
X12728334Y-15555428D02*
X12728334Y-15517333D01*
X12728334Y-15517333D02*
X12718810Y-15498286D01*
X12718810Y-15498286D02*
X12709286Y-15488762D01*
X12709286Y-15488762D02*
X12690238Y-15479238D01*
X12966429Y-15593524D02*
X12966429Y-15393524D01*
X13052143Y-15593524D02*
X13052143Y-15488762D01*
X13052143Y-15488762D02*
X13042619Y-15469714D01*
X13042619Y-15469714D02*
X13023572Y-15460190D01*
X13023572Y-15460190D02*
X12995000Y-15460190D01*
X12995000Y-15460190D02*
X12975953Y-15469714D01*
X12975953Y-15469714D02*
X12966429Y-15479238D01*
X13175953Y-15593524D02*
X13156905Y-15584000D01*
X13156905Y-15584000D02*
X13147381Y-15574476D01*
X13147381Y-15574476D02*
X13137857Y-15555428D01*
X13137857Y-15555428D02*
X13137857Y-15498286D01*
X13137857Y-15498286D02*
X13147381Y-15479238D01*
X13147381Y-15479238D02*
X13156905Y-15469714D01*
X13156905Y-15469714D02*
X13175953Y-15460190D01*
X13175953Y-15460190D02*
X13204524Y-15460190D01*
X13204524Y-15460190D02*
X13223572Y-15469714D01*
X13223572Y-15469714D02*
X13233096Y-15479238D01*
X13233096Y-15479238D02*
X13242619Y-15498286D01*
X13242619Y-15498286D02*
X13242619Y-15555428D01*
X13242619Y-15555428D02*
X13233096Y-15574476D01*
X13233096Y-15574476D02*
X13223572Y-15584000D01*
X13223572Y-15584000D02*
X13204524Y-15593524D01*
X13204524Y-15593524D02*
X13175953Y-15593524D01*
X13356905Y-15593524D02*
X13337857Y-15584000D01*
X13337857Y-15584000D02*
X13328334Y-15564952D01*
X13328334Y-15564952D02*
X13328334Y-15393524D01*
X13509286Y-15584000D02*
X13490238Y-15593524D01*
X13490238Y-15593524D02*
X13452143Y-15593524D01*
X13452143Y-15593524D02*
X13433096Y-15584000D01*
X13433096Y-15584000D02*
X13423572Y-15564952D01*
X13423572Y-15564952D02*
X13423572Y-15488762D01*
X13423572Y-15488762D02*
X13433096Y-15469714D01*
X13433096Y-15469714D02*
X13452143Y-15460190D01*
X13452143Y-15460190D02*
X13490238Y-15460190D01*
X13490238Y-15460190D02*
X13509286Y-15469714D01*
X13509286Y-15469714D02*
X13518810Y-15488762D01*
X13518810Y-15488762D02*
X13518810Y-15507809D01*
X13518810Y-15507809D02*
X13423572Y-15526857D01*
X13595000Y-15584000D02*
X13614048Y-15593524D01*
X13614048Y-15593524D02*
X13652143Y-15593524D01*
X13652143Y-15593524D02*
X13671191Y-15584000D01*
X13671191Y-15584000D02*
X13680715Y-15564952D01*
X13680715Y-15564952D02*
X13680715Y-15555428D01*
X13680715Y-15555428D02*
X13671191Y-15536381D01*
X13671191Y-15536381D02*
X13652143Y-15526857D01*
X13652143Y-15526857D02*
X13623572Y-15526857D01*
X13623572Y-15526857D02*
X13604524Y-15517333D01*
X13604524Y-15517333D02*
X13595000Y-15498286D01*
X13595000Y-15498286D02*
X13595000Y-15488762D01*
X13595000Y-15488762D02*
X13604524Y-15469714D01*
X13604524Y-15469714D02*
X13623572Y-15460190D01*
X13623572Y-15460190D02*
X13652143Y-15460190D01*
X13652143Y-15460190D02*
X13671191Y-15469714D01*
X13747381Y-15669714D02*
X13756905Y-15660190D01*
X13756905Y-15660190D02*
X13775953Y-15631619D01*
X13775953Y-15631619D02*
X13785477Y-15612571D01*
X13785477Y-15612571D02*
X13795000Y-15584000D01*
X13795000Y-15584000D02*
X13804524Y-15536381D01*
X13804524Y-15536381D02*
X13804524Y-15498286D01*
X13804524Y-15498286D02*
X13795000Y-15450667D01*
X13795000Y-15450667D02*
X13785477Y-15422095D01*
X13785477Y-15422095D02*
X13775953Y-15403048D01*
X13775953Y-15403048D02*
X13756905Y-15374476D01*
X13756905Y-15374476D02*
X13747381Y-15364952D01*
D15*
X8693000Y-15714000D02*
X8795000Y-15816000D01*
X8795000Y-15714000D02*
X8693000Y-15816000D01*
X8795000Y-15765000D02*
G75*
G03*
X8795000Y-15765000I-51000J0D01*
G01*
D11*
X9147381Y-15857524D02*
X9033095Y-15857524D01*
X9090238Y-15857524D02*
X9090238Y-15657524D01*
X9090238Y-15657524D02*
X9071190Y-15686095D01*
X9071190Y-15686095D02*
X9052143Y-15705143D01*
X9052143Y-15705143D02*
X9033095Y-15714667D01*
X9233095Y-15838476D02*
X9242619Y-15848000D01*
X9242619Y-15848000D02*
X9233095Y-15857524D01*
X9233095Y-15857524D02*
X9223571Y-15848000D01*
X9223571Y-15848000D02*
X9233095Y-15838476D01*
X9233095Y-15838476D02*
X9233095Y-15857524D01*
X9366429Y-15657524D02*
X9385476Y-15657524D01*
X9385476Y-15657524D02*
X9404524Y-15667048D01*
X9404524Y-15667048D02*
X9414048Y-15676571D01*
X9414048Y-15676571D02*
X9423571Y-15695619D01*
X9423571Y-15695619D02*
X9433095Y-15733714D01*
X9433095Y-15733714D02*
X9433095Y-15781333D01*
X9433095Y-15781333D02*
X9423571Y-15819428D01*
X9423571Y-15819428D02*
X9414048Y-15838476D01*
X9414048Y-15838476D02*
X9404524Y-15848000D01*
X9404524Y-15848000D02*
X9385476Y-15857524D01*
X9385476Y-15857524D02*
X9366429Y-15857524D01*
X9366429Y-15857524D02*
X9347381Y-15848000D01*
X9347381Y-15848000D02*
X9337857Y-15838476D01*
X9337857Y-15838476D02*
X9328333Y-15819428D01*
X9328333Y-15819428D02*
X9318810Y-15781333D01*
X9318810Y-15781333D02*
X9318810Y-15733714D01*
X9318810Y-15733714D02*
X9328333Y-15695619D01*
X9328333Y-15695619D02*
X9337857Y-15676571D01*
X9337857Y-15676571D02*
X9347381Y-15667048D01*
X9347381Y-15667048D02*
X9366429Y-15657524D01*
X9509286Y-15676571D02*
X9518810Y-15667048D01*
X9518810Y-15667048D02*
X9537857Y-15657524D01*
X9537857Y-15657524D02*
X9585476Y-15657524D01*
X9585476Y-15657524D02*
X9604524Y-15667048D01*
X9604524Y-15667048D02*
X9614048Y-15676571D01*
X9614048Y-15676571D02*
X9623571Y-15695619D01*
X9623571Y-15695619D02*
X9623571Y-15714667D01*
X9623571Y-15714667D02*
X9614048Y-15743238D01*
X9614048Y-15743238D02*
X9499762Y-15857524D01*
X9499762Y-15857524D02*
X9623571Y-15857524D01*
X9747381Y-15657524D02*
X9766429Y-15657524D01*
X9766429Y-15657524D02*
X9785476Y-15667048D01*
X9785476Y-15667048D02*
X9795000Y-15676571D01*
X9795000Y-15676571D02*
X9804524Y-15695619D01*
X9804524Y-15695619D02*
X9814048Y-15733714D01*
X9814048Y-15733714D02*
X9814048Y-15781333D01*
X9814048Y-15781333D02*
X9804524Y-15819428D01*
X9804524Y-15819428D02*
X9795000Y-15838476D01*
X9795000Y-15838476D02*
X9785476Y-15848000D01*
X9785476Y-15848000D02*
X9766429Y-15857524D01*
X9766429Y-15857524D02*
X9747381Y-15857524D01*
X9747381Y-15857524D02*
X9728333Y-15848000D01*
X9728333Y-15848000D02*
X9718810Y-15838476D01*
X9718810Y-15838476D02*
X9709286Y-15819428D01*
X9709286Y-15819428D02*
X9699762Y-15781333D01*
X9699762Y-15781333D02*
X9699762Y-15733714D01*
X9699762Y-15733714D02*
X9709286Y-15695619D01*
X9709286Y-15695619D02*
X9718810Y-15676571D01*
X9718810Y-15676571D02*
X9728333Y-15667048D01*
X9728333Y-15667048D02*
X9747381Y-15657524D01*
X9899762Y-15857524D02*
X9899762Y-15724190D01*
X9899762Y-15743238D02*
X9909286Y-15733714D01*
X9909286Y-15733714D02*
X9928333Y-15724190D01*
X9928333Y-15724190D02*
X9956905Y-15724190D01*
X9956905Y-15724190D02*
X9975952Y-15733714D01*
X9975952Y-15733714D02*
X9985476Y-15752762D01*
X9985476Y-15752762D02*
X9985476Y-15857524D01*
X9985476Y-15752762D02*
X9995000Y-15733714D01*
X9995000Y-15733714D02*
X10014048Y-15724190D01*
X10014048Y-15724190D02*
X10042619Y-15724190D01*
X10042619Y-15724190D02*
X10061667Y-15733714D01*
X10061667Y-15733714D02*
X10071191Y-15752762D01*
X10071191Y-15752762D02*
X10071191Y-15857524D01*
X10166429Y-15857524D02*
X10166429Y-15724190D01*
X10166429Y-15743238D02*
X10175952Y-15733714D01*
X10175952Y-15733714D02*
X10195000Y-15724190D01*
X10195000Y-15724190D02*
X10223572Y-15724190D01*
X10223572Y-15724190D02*
X10242619Y-15733714D01*
X10242619Y-15733714D02*
X10252143Y-15752762D01*
X10252143Y-15752762D02*
X10252143Y-15857524D01*
X10252143Y-15752762D02*
X10261667Y-15733714D01*
X10261667Y-15733714D02*
X10280714Y-15724190D01*
X10280714Y-15724190D02*
X10309286Y-15724190D01*
X10309286Y-15724190D02*
X10328333Y-15733714D01*
X10328333Y-15733714D02*
X10337857Y-15752762D01*
X10337857Y-15752762D02*
X10337857Y-15857524D01*
X10728333Y-15648000D02*
X10556905Y-15905143D01*
X10985476Y-15657524D02*
X11004524Y-15657524D01*
X11004524Y-15657524D02*
X11023572Y-15667048D01*
X11023572Y-15667048D02*
X11033095Y-15676571D01*
X11033095Y-15676571D02*
X11042619Y-15695619D01*
X11042619Y-15695619D02*
X11052143Y-15733714D01*
X11052143Y-15733714D02*
X11052143Y-15781333D01*
X11052143Y-15781333D02*
X11042619Y-15819428D01*
X11042619Y-15819428D02*
X11033095Y-15838476D01*
X11033095Y-15838476D02*
X11023572Y-15848000D01*
X11023572Y-15848000D02*
X11004524Y-15857524D01*
X11004524Y-15857524D02*
X10985476Y-15857524D01*
X10985476Y-15857524D02*
X10966429Y-15848000D01*
X10966429Y-15848000D02*
X10956905Y-15838476D01*
X10956905Y-15838476D02*
X10947381Y-15819428D01*
X10947381Y-15819428D02*
X10937857Y-15781333D01*
X10937857Y-15781333D02*
X10937857Y-15733714D01*
X10937857Y-15733714D02*
X10947381Y-15695619D01*
X10947381Y-15695619D02*
X10956905Y-15676571D01*
X10956905Y-15676571D02*
X10966429Y-15667048D01*
X10966429Y-15667048D02*
X10985476Y-15657524D01*
X11137857Y-15838476D02*
X11147381Y-15848000D01*
X11147381Y-15848000D02*
X11137857Y-15857524D01*
X11137857Y-15857524D02*
X11128334Y-15848000D01*
X11128334Y-15848000D02*
X11137857Y-15838476D01*
X11137857Y-15838476D02*
X11137857Y-15857524D01*
X11271191Y-15657524D02*
X11290238Y-15657524D01*
X11290238Y-15657524D02*
X11309286Y-15667048D01*
X11309286Y-15667048D02*
X11318810Y-15676571D01*
X11318810Y-15676571D02*
X11328333Y-15695619D01*
X11328333Y-15695619D02*
X11337857Y-15733714D01*
X11337857Y-15733714D02*
X11337857Y-15781333D01*
X11337857Y-15781333D02*
X11328333Y-15819428D01*
X11328333Y-15819428D02*
X11318810Y-15838476D01*
X11318810Y-15838476D02*
X11309286Y-15848000D01*
X11309286Y-15848000D02*
X11290238Y-15857524D01*
X11290238Y-15857524D02*
X11271191Y-15857524D01*
X11271191Y-15857524D02*
X11252143Y-15848000D01*
X11252143Y-15848000D02*
X11242619Y-15838476D01*
X11242619Y-15838476D02*
X11233095Y-15819428D01*
X11233095Y-15819428D02*
X11223572Y-15781333D01*
X11223572Y-15781333D02*
X11223572Y-15733714D01*
X11223572Y-15733714D02*
X11233095Y-15695619D01*
X11233095Y-15695619D02*
X11242619Y-15676571D01*
X11242619Y-15676571D02*
X11252143Y-15667048D01*
X11252143Y-15667048D02*
X11271191Y-15657524D01*
X11509286Y-15724190D02*
X11509286Y-15857524D01*
X11461667Y-15648000D02*
X11414048Y-15790857D01*
X11414048Y-15790857D02*
X11537857Y-15790857D01*
X11652143Y-15657524D02*
X11671191Y-15657524D01*
X11671191Y-15657524D02*
X11690238Y-15667048D01*
X11690238Y-15667048D02*
X11699762Y-15676571D01*
X11699762Y-15676571D02*
X11709286Y-15695619D01*
X11709286Y-15695619D02*
X11718810Y-15733714D01*
X11718810Y-15733714D02*
X11718810Y-15781333D01*
X11718810Y-15781333D02*
X11709286Y-15819428D01*
X11709286Y-15819428D02*
X11699762Y-15838476D01*
X11699762Y-15838476D02*
X11690238Y-15848000D01*
X11690238Y-15848000D02*
X11671191Y-15857524D01*
X11671191Y-15857524D02*
X11652143Y-15857524D01*
X11652143Y-15857524D02*
X11633095Y-15848000D01*
X11633095Y-15848000D02*
X11623572Y-15838476D01*
X11623572Y-15838476D02*
X11614048Y-15819428D01*
X11614048Y-15819428D02*
X11604524Y-15781333D01*
X11604524Y-15781333D02*
X11604524Y-15733714D01*
X11604524Y-15733714D02*
X11614048Y-15695619D01*
X11614048Y-15695619D02*
X11623572Y-15676571D01*
X11623572Y-15676571D02*
X11633095Y-15667048D01*
X11633095Y-15667048D02*
X11652143Y-15657524D01*
X11795000Y-15676571D02*
X11804524Y-15667048D01*
X11804524Y-15667048D02*
X11823572Y-15657524D01*
X11823572Y-15657524D02*
X11871191Y-15657524D01*
X11871191Y-15657524D02*
X11890238Y-15667048D01*
X11890238Y-15667048D02*
X11899762Y-15676571D01*
X11899762Y-15676571D02*
X11909286Y-15695619D01*
X11909286Y-15695619D02*
X11909286Y-15714667D01*
X11909286Y-15714667D02*
X11899762Y-15743238D01*
X11899762Y-15743238D02*
X11785476Y-15857524D01*
X11785476Y-15857524D02*
X11909286Y-15857524D01*
X11985476Y-15657524D02*
X11985476Y-15695619D01*
X12061667Y-15657524D02*
X12061667Y-15695619D01*
X12356905Y-15933714D02*
X12347381Y-15924190D01*
X12347381Y-15924190D02*
X12328334Y-15895619D01*
X12328334Y-15895619D02*
X12318810Y-15876571D01*
X12318810Y-15876571D02*
X12309286Y-15848000D01*
X12309286Y-15848000D02*
X12299762Y-15800381D01*
X12299762Y-15800381D02*
X12299762Y-15762286D01*
X12299762Y-15762286D02*
X12309286Y-15714667D01*
X12309286Y-15714667D02*
X12318810Y-15686095D01*
X12318810Y-15686095D02*
X12328334Y-15667048D01*
X12328334Y-15667048D02*
X12347381Y-15638476D01*
X12347381Y-15638476D02*
X12356905Y-15628952D01*
X12518810Y-15724190D02*
X12518810Y-15857524D01*
X12471191Y-15648000D02*
X12423572Y-15790857D01*
X12423572Y-15790857D02*
X12547381Y-15790857D01*
X12604524Y-15657524D02*
X12728334Y-15657524D01*
X12728334Y-15657524D02*
X12661667Y-15733714D01*
X12661667Y-15733714D02*
X12690238Y-15733714D01*
X12690238Y-15733714D02*
X12709286Y-15743238D01*
X12709286Y-15743238D02*
X12718810Y-15752762D01*
X12718810Y-15752762D02*
X12728334Y-15771809D01*
X12728334Y-15771809D02*
X12728334Y-15819428D01*
X12728334Y-15819428D02*
X12718810Y-15838476D01*
X12718810Y-15838476D02*
X12709286Y-15848000D01*
X12709286Y-15848000D02*
X12690238Y-15857524D01*
X12690238Y-15857524D02*
X12633095Y-15857524D01*
X12633095Y-15857524D02*
X12614048Y-15848000D01*
X12614048Y-15848000D02*
X12604524Y-15838476D01*
X12966429Y-15857524D02*
X12966429Y-15657524D01*
X13052143Y-15857524D02*
X13052143Y-15752762D01*
X13052143Y-15752762D02*
X13042619Y-15733714D01*
X13042619Y-15733714D02*
X13023572Y-15724190D01*
X13023572Y-15724190D02*
X12995000Y-15724190D01*
X12995000Y-15724190D02*
X12975953Y-15733714D01*
X12975953Y-15733714D02*
X12966429Y-15743238D01*
X13175953Y-15857524D02*
X13156905Y-15848000D01*
X13156905Y-15848000D02*
X13147381Y-15838476D01*
X13147381Y-15838476D02*
X13137857Y-15819428D01*
X13137857Y-15819428D02*
X13137857Y-15762286D01*
X13137857Y-15762286D02*
X13147381Y-15743238D01*
X13147381Y-15743238D02*
X13156905Y-15733714D01*
X13156905Y-15733714D02*
X13175953Y-15724190D01*
X13175953Y-15724190D02*
X13204524Y-15724190D01*
X13204524Y-15724190D02*
X13223572Y-15733714D01*
X13223572Y-15733714D02*
X13233096Y-15743238D01*
X13233096Y-15743238D02*
X13242619Y-15762286D01*
X13242619Y-15762286D02*
X13242619Y-15819428D01*
X13242619Y-15819428D02*
X13233096Y-15838476D01*
X13233096Y-15838476D02*
X13223572Y-15848000D01*
X13223572Y-15848000D02*
X13204524Y-15857524D01*
X13204524Y-15857524D02*
X13175953Y-15857524D01*
X13356905Y-15857524D02*
X13337857Y-15848000D01*
X13337857Y-15848000D02*
X13328334Y-15828952D01*
X13328334Y-15828952D02*
X13328334Y-15657524D01*
X13509286Y-15848000D02*
X13490238Y-15857524D01*
X13490238Y-15857524D02*
X13452143Y-15857524D01*
X13452143Y-15857524D02*
X13433096Y-15848000D01*
X13433096Y-15848000D02*
X13423572Y-15828952D01*
X13423572Y-15828952D02*
X13423572Y-15752762D01*
X13423572Y-15752762D02*
X13433096Y-15733714D01*
X13433096Y-15733714D02*
X13452143Y-15724190D01*
X13452143Y-15724190D02*
X13490238Y-15724190D01*
X13490238Y-15724190D02*
X13509286Y-15733714D01*
X13509286Y-15733714D02*
X13518810Y-15752762D01*
X13518810Y-15752762D02*
X13518810Y-15771809D01*
X13518810Y-15771809D02*
X13423572Y-15790857D01*
X13595000Y-15848000D02*
X13614048Y-15857524D01*
X13614048Y-15857524D02*
X13652143Y-15857524D01*
X13652143Y-15857524D02*
X13671191Y-15848000D01*
X13671191Y-15848000D02*
X13680715Y-15828952D01*
X13680715Y-15828952D02*
X13680715Y-15819428D01*
X13680715Y-15819428D02*
X13671191Y-15800381D01*
X13671191Y-15800381D02*
X13652143Y-15790857D01*
X13652143Y-15790857D02*
X13623572Y-15790857D01*
X13623572Y-15790857D02*
X13604524Y-15781333D01*
X13604524Y-15781333D02*
X13595000Y-15762286D01*
X13595000Y-15762286D02*
X13595000Y-15752762D01*
X13595000Y-15752762D02*
X13604524Y-15733714D01*
X13604524Y-15733714D02*
X13623572Y-15724190D01*
X13623572Y-15724190D02*
X13652143Y-15724190D01*
X13652143Y-15724190D02*
X13671191Y-15733714D01*
X13747381Y-15933714D02*
X13756905Y-15924190D01*
X13756905Y-15924190D02*
X13775953Y-15895619D01*
X13775953Y-15895619D02*
X13785477Y-15876571D01*
X13785477Y-15876571D02*
X13795000Y-15848000D01*
X13795000Y-15848000D02*
X13804524Y-15800381D01*
X13804524Y-15800381D02*
X13804524Y-15762286D01*
X13804524Y-15762286D02*
X13795000Y-15714667D01*
X13795000Y-15714667D02*
X13785477Y-15686095D01*
X13785477Y-15686095D02*
X13775953Y-15667048D01*
X13775953Y-15667048D02*
X13756905Y-15638476D01*
X13756905Y-15638476D02*
X13747381Y-15628952D01*
D16*
X8685000Y-15974000D02*
X8795000Y-16084000D01*
X8795000Y-15974000D02*
X8685000Y-16084000D01*
X8740000Y-15974000D02*
X8740000Y-16084000D01*
X8685000Y-16029000D02*
X8795000Y-16029000D01*
D11*
X9147381Y-16121524D02*
X9033095Y-16121524D01*
X9090238Y-16121524D02*
X9090238Y-15921524D01*
X9090238Y-15921524D02*
X9071190Y-15950095D01*
X9071190Y-15950095D02*
X9052143Y-15969143D01*
X9052143Y-15969143D02*
X9033095Y-15978667D01*
X9233095Y-16102476D02*
X9242619Y-16112000D01*
X9242619Y-16112000D02*
X9233095Y-16121524D01*
X9233095Y-16121524D02*
X9223571Y-16112000D01*
X9223571Y-16112000D02*
X9233095Y-16102476D01*
X9233095Y-16102476D02*
X9233095Y-16121524D01*
X9433095Y-16121524D02*
X9318810Y-16121524D01*
X9375952Y-16121524D02*
X9375952Y-15921524D01*
X9375952Y-15921524D02*
X9356905Y-15950095D01*
X9356905Y-15950095D02*
X9337857Y-15969143D01*
X9337857Y-15969143D02*
X9318810Y-15978667D01*
X9556905Y-15921524D02*
X9575952Y-15921524D01*
X9575952Y-15921524D02*
X9595000Y-15931048D01*
X9595000Y-15931048D02*
X9604524Y-15940571D01*
X9604524Y-15940571D02*
X9614048Y-15959619D01*
X9614048Y-15959619D02*
X9623571Y-15997714D01*
X9623571Y-15997714D02*
X9623571Y-16045333D01*
X9623571Y-16045333D02*
X9614048Y-16083428D01*
X9614048Y-16083428D02*
X9604524Y-16102476D01*
X9604524Y-16102476D02*
X9595000Y-16112000D01*
X9595000Y-16112000D02*
X9575952Y-16121524D01*
X9575952Y-16121524D02*
X9556905Y-16121524D01*
X9556905Y-16121524D02*
X9537857Y-16112000D01*
X9537857Y-16112000D02*
X9528333Y-16102476D01*
X9528333Y-16102476D02*
X9518810Y-16083428D01*
X9518810Y-16083428D02*
X9509286Y-16045333D01*
X9509286Y-16045333D02*
X9509286Y-15997714D01*
X9509286Y-15997714D02*
X9518810Y-15959619D01*
X9518810Y-15959619D02*
X9528333Y-15940571D01*
X9528333Y-15940571D02*
X9537857Y-15931048D01*
X9537857Y-15931048D02*
X9556905Y-15921524D01*
X9747381Y-15921524D02*
X9766429Y-15921524D01*
X9766429Y-15921524D02*
X9785476Y-15931048D01*
X9785476Y-15931048D02*
X9795000Y-15940571D01*
X9795000Y-15940571D02*
X9804524Y-15959619D01*
X9804524Y-15959619D02*
X9814048Y-15997714D01*
X9814048Y-15997714D02*
X9814048Y-16045333D01*
X9814048Y-16045333D02*
X9804524Y-16083428D01*
X9804524Y-16083428D02*
X9795000Y-16102476D01*
X9795000Y-16102476D02*
X9785476Y-16112000D01*
X9785476Y-16112000D02*
X9766429Y-16121524D01*
X9766429Y-16121524D02*
X9747381Y-16121524D01*
X9747381Y-16121524D02*
X9728333Y-16112000D01*
X9728333Y-16112000D02*
X9718810Y-16102476D01*
X9718810Y-16102476D02*
X9709286Y-16083428D01*
X9709286Y-16083428D02*
X9699762Y-16045333D01*
X9699762Y-16045333D02*
X9699762Y-15997714D01*
X9699762Y-15997714D02*
X9709286Y-15959619D01*
X9709286Y-15959619D02*
X9718810Y-15940571D01*
X9718810Y-15940571D02*
X9728333Y-15931048D01*
X9728333Y-15931048D02*
X9747381Y-15921524D01*
X9899762Y-16121524D02*
X9899762Y-15988190D01*
X9899762Y-16007238D02*
X9909286Y-15997714D01*
X9909286Y-15997714D02*
X9928333Y-15988190D01*
X9928333Y-15988190D02*
X9956905Y-15988190D01*
X9956905Y-15988190D02*
X9975952Y-15997714D01*
X9975952Y-15997714D02*
X9985476Y-16016762D01*
X9985476Y-16016762D02*
X9985476Y-16121524D01*
X9985476Y-16016762D02*
X9995000Y-15997714D01*
X9995000Y-15997714D02*
X10014048Y-15988190D01*
X10014048Y-15988190D02*
X10042619Y-15988190D01*
X10042619Y-15988190D02*
X10061667Y-15997714D01*
X10061667Y-15997714D02*
X10071191Y-16016762D01*
X10071191Y-16016762D02*
X10071191Y-16121524D01*
X10166429Y-16121524D02*
X10166429Y-15988190D01*
X10166429Y-16007238D02*
X10175952Y-15997714D01*
X10175952Y-15997714D02*
X10195000Y-15988190D01*
X10195000Y-15988190D02*
X10223572Y-15988190D01*
X10223572Y-15988190D02*
X10242619Y-15997714D01*
X10242619Y-15997714D02*
X10252143Y-16016762D01*
X10252143Y-16016762D02*
X10252143Y-16121524D01*
X10252143Y-16016762D02*
X10261667Y-15997714D01*
X10261667Y-15997714D02*
X10280714Y-15988190D01*
X10280714Y-15988190D02*
X10309286Y-15988190D01*
X10309286Y-15988190D02*
X10328333Y-15997714D01*
X10328333Y-15997714D02*
X10337857Y-16016762D01*
X10337857Y-16016762D02*
X10337857Y-16121524D01*
X10728333Y-15912000D02*
X10556905Y-16169143D01*
X10985476Y-15921524D02*
X11004524Y-15921524D01*
X11004524Y-15921524D02*
X11023572Y-15931048D01*
X11023572Y-15931048D02*
X11033095Y-15940571D01*
X11033095Y-15940571D02*
X11042619Y-15959619D01*
X11042619Y-15959619D02*
X11052143Y-15997714D01*
X11052143Y-15997714D02*
X11052143Y-16045333D01*
X11052143Y-16045333D02*
X11042619Y-16083428D01*
X11042619Y-16083428D02*
X11033095Y-16102476D01*
X11033095Y-16102476D02*
X11023572Y-16112000D01*
X11023572Y-16112000D02*
X11004524Y-16121524D01*
X11004524Y-16121524D02*
X10985476Y-16121524D01*
X10985476Y-16121524D02*
X10966429Y-16112000D01*
X10966429Y-16112000D02*
X10956905Y-16102476D01*
X10956905Y-16102476D02*
X10947381Y-16083428D01*
X10947381Y-16083428D02*
X10937857Y-16045333D01*
X10937857Y-16045333D02*
X10937857Y-15997714D01*
X10937857Y-15997714D02*
X10947381Y-15959619D01*
X10947381Y-15959619D02*
X10956905Y-15940571D01*
X10956905Y-15940571D02*
X10966429Y-15931048D01*
X10966429Y-15931048D02*
X10985476Y-15921524D01*
X11137857Y-16102476D02*
X11147381Y-16112000D01*
X11147381Y-16112000D02*
X11137857Y-16121524D01*
X11137857Y-16121524D02*
X11128334Y-16112000D01*
X11128334Y-16112000D02*
X11137857Y-16102476D01*
X11137857Y-16102476D02*
X11137857Y-16121524D01*
X11271191Y-15921524D02*
X11290238Y-15921524D01*
X11290238Y-15921524D02*
X11309286Y-15931048D01*
X11309286Y-15931048D02*
X11318810Y-15940571D01*
X11318810Y-15940571D02*
X11328333Y-15959619D01*
X11328333Y-15959619D02*
X11337857Y-15997714D01*
X11337857Y-15997714D02*
X11337857Y-16045333D01*
X11337857Y-16045333D02*
X11328333Y-16083428D01*
X11328333Y-16083428D02*
X11318810Y-16102476D01*
X11318810Y-16102476D02*
X11309286Y-16112000D01*
X11309286Y-16112000D02*
X11290238Y-16121524D01*
X11290238Y-16121524D02*
X11271191Y-16121524D01*
X11271191Y-16121524D02*
X11252143Y-16112000D01*
X11252143Y-16112000D02*
X11242619Y-16102476D01*
X11242619Y-16102476D02*
X11233095Y-16083428D01*
X11233095Y-16083428D02*
X11223572Y-16045333D01*
X11223572Y-16045333D02*
X11223572Y-15997714D01*
X11223572Y-15997714D02*
X11233095Y-15959619D01*
X11233095Y-15959619D02*
X11242619Y-15940571D01*
X11242619Y-15940571D02*
X11252143Y-15931048D01*
X11252143Y-15931048D02*
X11271191Y-15921524D01*
X11509286Y-15988190D02*
X11509286Y-16121524D01*
X11461667Y-15912000D02*
X11414048Y-16054857D01*
X11414048Y-16054857D02*
X11537857Y-16054857D01*
X11595000Y-15921524D02*
X11718810Y-15921524D01*
X11718810Y-15921524D02*
X11652143Y-15997714D01*
X11652143Y-15997714D02*
X11680714Y-15997714D01*
X11680714Y-15997714D02*
X11699762Y-16007238D01*
X11699762Y-16007238D02*
X11709286Y-16016762D01*
X11709286Y-16016762D02*
X11718810Y-16035809D01*
X11718810Y-16035809D02*
X11718810Y-16083428D01*
X11718810Y-16083428D02*
X11709286Y-16102476D01*
X11709286Y-16102476D02*
X11699762Y-16112000D01*
X11699762Y-16112000D02*
X11680714Y-16121524D01*
X11680714Y-16121524D02*
X11623572Y-16121524D01*
X11623572Y-16121524D02*
X11604524Y-16112000D01*
X11604524Y-16112000D02*
X11595000Y-16102476D01*
X11785476Y-15921524D02*
X11909286Y-15921524D01*
X11909286Y-15921524D02*
X11842619Y-15997714D01*
X11842619Y-15997714D02*
X11871191Y-15997714D01*
X11871191Y-15997714D02*
X11890238Y-16007238D01*
X11890238Y-16007238D02*
X11899762Y-16016762D01*
X11899762Y-16016762D02*
X11909286Y-16035809D01*
X11909286Y-16035809D02*
X11909286Y-16083428D01*
X11909286Y-16083428D02*
X11899762Y-16102476D01*
X11899762Y-16102476D02*
X11890238Y-16112000D01*
X11890238Y-16112000D02*
X11871191Y-16121524D01*
X11871191Y-16121524D02*
X11814048Y-16121524D01*
X11814048Y-16121524D02*
X11795000Y-16112000D01*
X11795000Y-16112000D02*
X11785476Y-16102476D01*
X11985476Y-15921524D02*
X11985476Y-15959619D01*
X12061667Y-15921524D02*
X12061667Y-15959619D01*
X12356905Y-16197714D02*
X12347381Y-16188190D01*
X12347381Y-16188190D02*
X12328334Y-16159619D01*
X12328334Y-16159619D02*
X12318810Y-16140571D01*
X12318810Y-16140571D02*
X12309286Y-16112000D01*
X12309286Y-16112000D02*
X12299762Y-16064381D01*
X12299762Y-16064381D02*
X12299762Y-16026286D01*
X12299762Y-16026286D02*
X12309286Y-15978667D01*
X12309286Y-15978667D02*
X12318810Y-15950095D01*
X12318810Y-15950095D02*
X12328334Y-15931048D01*
X12328334Y-15931048D02*
X12347381Y-15902476D01*
X12347381Y-15902476D02*
X12356905Y-15892952D01*
X12537857Y-16121524D02*
X12423572Y-16121524D01*
X12480714Y-16121524D02*
X12480714Y-15921524D01*
X12480714Y-15921524D02*
X12461667Y-15950095D01*
X12461667Y-15950095D02*
X12442619Y-15969143D01*
X12442619Y-15969143D02*
X12423572Y-15978667D01*
X12652143Y-16007238D02*
X12633095Y-15997714D01*
X12633095Y-15997714D02*
X12623572Y-15988190D01*
X12623572Y-15988190D02*
X12614048Y-15969143D01*
X12614048Y-15969143D02*
X12614048Y-15959619D01*
X12614048Y-15959619D02*
X12623572Y-15940571D01*
X12623572Y-15940571D02*
X12633095Y-15931048D01*
X12633095Y-15931048D02*
X12652143Y-15921524D01*
X12652143Y-15921524D02*
X12690238Y-15921524D01*
X12690238Y-15921524D02*
X12709286Y-15931048D01*
X12709286Y-15931048D02*
X12718810Y-15940571D01*
X12718810Y-15940571D02*
X12728334Y-15959619D01*
X12728334Y-15959619D02*
X12728334Y-15969143D01*
X12728334Y-15969143D02*
X12718810Y-15988190D01*
X12718810Y-15988190D02*
X12709286Y-15997714D01*
X12709286Y-15997714D02*
X12690238Y-16007238D01*
X12690238Y-16007238D02*
X12652143Y-16007238D01*
X12652143Y-16007238D02*
X12633095Y-16016762D01*
X12633095Y-16016762D02*
X12623572Y-16026286D01*
X12623572Y-16026286D02*
X12614048Y-16045333D01*
X12614048Y-16045333D02*
X12614048Y-16083428D01*
X12614048Y-16083428D02*
X12623572Y-16102476D01*
X12623572Y-16102476D02*
X12633095Y-16112000D01*
X12633095Y-16112000D02*
X12652143Y-16121524D01*
X12652143Y-16121524D02*
X12690238Y-16121524D01*
X12690238Y-16121524D02*
X12709286Y-16112000D01*
X12709286Y-16112000D02*
X12718810Y-16102476D01*
X12718810Y-16102476D02*
X12728334Y-16083428D01*
X12728334Y-16083428D02*
X12728334Y-16045333D01*
X12728334Y-16045333D02*
X12718810Y-16026286D01*
X12718810Y-16026286D02*
X12709286Y-16016762D01*
X12709286Y-16016762D02*
X12690238Y-16007238D01*
X12966429Y-16121524D02*
X12966429Y-15921524D01*
X13052143Y-16121524D02*
X13052143Y-16016762D01*
X13052143Y-16016762D02*
X13042619Y-15997714D01*
X13042619Y-15997714D02*
X13023572Y-15988190D01*
X13023572Y-15988190D02*
X12995000Y-15988190D01*
X12995000Y-15988190D02*
X12975953Y-15997714D01*
X12975953Y-15997714D02*
X12966429Y-16007238D01*
X13175953Y-16121524D02*
X13156905Y-16112000D01*
X13156905Y-16112000D02*
X13147381Y-16102476D01*
X13147381Y-16102476D02*
X13137857Y-16083428D01*
X13137857Y-16083428D02*
X13137857Y-16026286D01*
X13137857Y-16026286D02*
X13147381Y-16007238D01*
X13147381Y-16007238D02*
X13156905Y-15997714D01*
X13156905Y-15997714D02*
X13175953Y-15988190D01*
X13175953Y-15988190D02*
X13204524Y-15988190D01*
X13204524Y-15988190D02*
X13223572Y-15997714D01*
X13223572Y-15997714D02*
X13233096Y-16007238D01*
X13233096Y-16007238D02*
X13242619Y-16026286D01*
X13242619Y-16026286D02*
X13242619Y-16083428D01*
X13242619Y-16083428D02*
X13233096Y-16102476D01*
X13233096Y-16102476D02*
X13223572Y-16112000D01*
X13223572Y-16112000D02*
X13204524Y-16121524D01*
X13204524Y-16121524D02*
X13175953Y-16121524D01*
X13356905Y-16121524D02*
X13337857Y-16112000D01*
X13337857Y-16112000D02*
X13328334Y-16092952D01*
X13328334Y-16092952D02*
X13328334Y-15921524D01*
X13509286Y-16112000D02*
X13490238Y-16121524D01*
X13490238Y-16121524D02*
X13452143Y-16121524D01*
X13452143Y-16121524D02*
X13433096Y-16112000D01*
X13433096Y-16112000D02*
X13423572Y-16092952D01*
X13423572Y-16092952D02*
X13423572Y-16016762D01*
X13423572Y-16016762D02*
X13433096Y-15997714D01*
X13433096Y-15997714D02*
X13452143Y-15988190D01*
X13452143Y-15988190D02*
X13490238Y-15988190D01*
X13490238Y-15988190D02*
X13509286Y-15997714D01*
X13509286Y-15997714D02*
X13518810Y-16016762D01*
X13518810Y-16016762D02*
X13518810Y-16035809D01*
X13518810Y-16035809D02*
X13423572Y-16054857D01*
X13595000Y-16112000D02*
X13614048Y-16121524D01*
X13614048Y-16121524D02*
X13652143Y-16121524D01*
X13652143Y-16121524D02*
X13671191Y-16112000D01*
X13671191Y-16112000D02*
X13680715Y-16092952D01*
X13680715Y-16092952D02*
X13680715Y-16083428D01*
X13680715Y-16083428D02*
X13671191Y-16064381D01*
X13671191Y-16064381D02*
X13652143Y-16054857D01*
X13652143Y-16054857D02*
X13623572Y-16054857D01*
X13623572Y-16054857D02*
X13604524Y-16045333D01*
X13604524Y-16045333D02*
X13595000Y-16026286D01*
X13595000Y-16026286D02*
X13595000Y-16016762D01*
X13595000Y-16016762D02*
X13604524Y-15997714D01*
X13604524Y-15997714D02*
X13623572Y-15988190D01*
X13623572Y-15988190D02*
X13652143Y-15988190D01*
X13652143Y-15988190D02*
X13671191Y-15997714D01*
X13747381Y-16197714D02*
X13756905Y-16188190D01*
X13756905Y-16188190D02*
X13775953Y-16159619D01*
X13775953Y-16159619D02*
X13785477Y-16140571D01*
X13785477Y-16140571D02*
X13795000Y-16112000D01*
X13795000Y-16112000D02*
X13804524Y-16064381D01*
X13804524Y-16064381D02*
X13804524Y-16026286D01*
X13804524Y-16026286D02*
X13795000Y-15978667D01*
X13795000Y-15978667D02*
X13785477Y-15950095D01*
X13785477Y-15950095D02*
X13775953Y-15931048D01*
X13775953Y-15931048D02*
X13756905Y-15902476D01*
X13756905Y-15902476D02*
X13747381Y-15892952D01*
D17*
X8645000Y-16218000D02*
X8795000Y-16368000D01*
X8795000Y-16218000D02*
X8645000Y-16368000D01*
X8773034Y-16346033D02*
X8773034Y-16239966D01*
X8666967Y-16239966D01*
X8666967Y-16346033D01*
X8773034Y-16346033D01*
D11*
X9147381Y-16385524D02*
X9033095Y-16385524D01*
X9090238Y-16385524D02*
X9090238Y-16185524D01*
X9090238Y-16185524D02*
X9071190Y-16214095D01*
X9071190Y-16214095D02*
X9052143Y-16233143D01*
X9052143Y-16233143D02*
X9033095Y-16242667D01*
X9233095Y-16366476D02*
X9242619Y-16376000D01*
X9242619Y-16376000D02*
X9233095Y-16385524D01*
X9233095Y-16385524D02*
X9223571Y-16376000D01*
X9223571Y-16376000D02*
X9233095Y-16366476D01*
X9233095Y-16366476D02*
X9233095Y-16385524D01*
X9423571Y-16185524D02*
X9328333Y-16185524D01*
X9328333Y-16185524D02*
X9318810Y-16280762D01*
X9318810Y-16280762D02*
X9328333Y-16271238D01*
X9328333Y-16271238D02*
X9347381Y-16261714D01*
X9347381Y-16261714D02*
X9395000Y-16261714D01*
X9395000Y-16261714D02*
X9414048Y-16271238D01*
X9414048Y-16271238D02*
X9423571Y-16280762D01*
X9423571Y-16280762D02*
X9433095Y-16299809D01*
X9433095Y-16299809D02*
X9433095Y-16347428D01*
X9433095Y-16347428D02*
X9423571Y-16366476D01*
X9423571Y-16366476D02*
X9414048Y-16376000D01*
X9414048Y-16376000D02*
X9395000Y-16385524D01*
X9395000Y-16385524D02*
X9347381Y-16385524D01*
X9347381Y-16385524D02*
X9328333Y-16376000D01*
X9328333Y-16376000D02*
X9318810Y-16366476D01*
X9556905Y-16185524D02*
X9575952Y-16185524D01*
X9575952Y-16185524D02*
X9595000Y-16195048D01*
X9595000Y-16195048D02*
X9604524Y-16204571D01*
X9604524Y-16204571D02*
X9614048Y-16223619D01*
X9614048Y-16223619D02*
X9623571Y-16261714D01*
X9623571Y-16261714D02*
X9623571Y-16309333D01*
X9623571Y-16309333D02*
X9614048Y-16347428D01*
X9614048Y-16347428D02*
X9604524Y-16366476D01*
X9604524Y-16366476D02*
X9595000Y-16376000D01*
X9595000Y-16376000D02*
X9575952Y-16385524D01*
X9575952Y-16385524D02*
X9556905Y-16385524D01*
X9556905Y-16385524D02*
X9537857Y-16376000D01*
X9537857Y-16376000D02*
X9528333Y-16366476D01*
X9528333Y-16366476D02*
X9518810Y-16347428D01*
X9518810Y-16347428D02*
X9509286Y-16309333D01*
X9509286Y-16309333D02*
X9509286Y-16261714D01*
X9509286Y-16261714D02*
X9518810Y-16223619D01*
X9518810Y-16223619D02*
X9528333Y-16204571D01*
X9528333Y-16204571D02*
X9537857Y-16195048D01*
X9537857Y-16195048D02*
X9556905Y-16185524D01*
X9747381Y-16185524D02*
X9766429Y-16185524D01*
X9766429Y-16185524D02*
X9785476Y-16195048D01*
X9785476Y-16195048D02*
X9795000Y-16204571D01*
X9795000Y-16204571D02*
X9804524Y-16223619D01*
X9804524Y-16223619D02*
X9814048Y-16261714D01*
X9814048Y-16261714D02*
X9814048Y-16309333D01*
X9814048Y-16309333D02*
X9804524Y-16347428D01*
X9804524Y-16347428D02*
X9795000Y-16366476D01*
X9795000Y-16366476D02*
X9785476Y-16376000D01*
X9785476Y-16376000D02*
X9766429Y-16385524D01*
X9766429Y-16385524D02*
X9747381Y-16385524D01*
X9747381Y-16385524D02*
X9728333Y-16376000D01*
X9728333Y-16376000D02*
X9718810Y-16366476D01*
X9718810Y-16366476D02*
X9709286Y-16347428D01*
X9709286Y-16347428D02*
X9699762Y-16309333D01*
X9699762Y-16309333D02*
X9699762Y-16261714D01*
X9699762Y-16261714D02*
X9709286Y-16223619D01*
X9709286Y-16223619D02*
X9718810Y-16204571D01*
X9718810Y-16204571D02*
X9728333Y-16195048D01*
X9728333Y-16195048D02*
X9747381Y-16185524D01*
X9899762Y-16385524D02*
X9899762Y-16252190D01*
X9899762Y-16271238D02*
X9909286Y-16261714D01*
X9909286Y-16261714D02*
X9928333Y-16252190D01*
X9928333Y-16252190D02*
X9956905Y-16252190D01*
X9956905Y-16252190D02*
X9975952Y-16261714D01*
X9975952Y-16261714D02*
X9985476Y-16280762D01*
X9985476Y-16280762D02*
X9985476Y-16385524D01*
X9985476Y-16280762D02*
X9995000Y-16261714D01*
X9995000Y-16261714D02*
X10014048Y-16252190D01*
X10014048Y-16252190D02*
X10042619Y-16252190D01*
X10042619Y-16252190D02*
X10061667Y-16261714D01*
X10061667Y-16261714D02*
X10071191Y-16280762D01*
X10071191Y-16280762D02*
X10071191Y-16385524D01*
X10166429Y-16385524D02*
X10166429Y-16252190D01*
X10166429Y-16271238D02*
X10175952Y-16261714D01*
X10175952Y-16261714D02*
X10195000Y-16252190D01*
X10195000Y-16252190D02*
X10223572Y-16252190D01*
X10223572Y-16252190D02*
X10242619Y-16261714D01*
X10242619Y-16261714D02*
X10252143Y-16280762D01*
X10252143Y-16280762D02*
X10252143Y-16385524D01*
X10252143Y-16280762D02*
X10261667Y-16261714D01*
X10261667Y-16261714D02*
X10280714Y-16252190D01*
X10280714Y-16252190D02*
X10309286Y-16252190D01*
X10309286Y-16252190D02*
X10328333Y-16261714D01*
X10328333Y-16261714D02*
X10337857Y-16280762D01*
X10337857Y-16280762D02*
X10337857Y-16385524D01*
X10728333Y-16176000D02*
X10556905Y-16433143D01*
X10985476Y-16185524D02*
X11004524Y-16185524D01*
X11004524Y-16185524D02*
X11023572Y-16195048D01*
X11023572Y-16195048D02*
X11033095Y-16204571D01*
X11033095Y-16204571D02*
X11042619Y-16223619D01*
X11042619Y-16223619D02*
X11052143Y-16261714D01*
X11052143Y-16261714D02*
X11052143Y-16309333D01*
X11052143Y-16309333D02*
X11042619Y-16347428D01*
X11042619Y-16347428D02*
X11033095Y-16366476D01*
X11033095Y-16366476D02*
X11023572Y-16376000D01*
X11023572Y-16376000D02*
X11004524Y-16385524D01*
X11004524Y-16385524D02*
X10985476Y-16385524D01*
X10985476Y-16385524D02*
X10966429Y-16376000D01*
X10966429Y-16376000D02*
X10956905Y-16366476D01*
X10956905Y-16366476D02*
X10947381Y-16347428D01*
X10947381Y-16347428D02*
X10937857Y-16309333D01*
X10937857Y-16309333D02*
X10937857Y-16261714D01*
X10937857Y-16261714D02*
X10947381Y-16223619D01*
X10947381Y-16223619D02*
X10956905Y-16204571D01*
X10956905Y-16204571D02*
X10966429Y-16195048D01*
X10966429Y-16195048D02*
X10985476Y-16185524D01*
X11137857Y-16366476D02*
X11147381Y-16376000D01*
X11147381Y-16376000D02*
X11137857Y-16385524D01*
X11137857Y-16385524D02*
X11128334Y-16376000D01*
X11128334Y-16376000D02*
X11137857Y-16366476D01*
X11137857Y-16366476D02*
X11137857Y-16385524D01*
X11271191Y-16185524D02*
X11290238Y-16185524D01*
X11290238Y-16185524D02*
X11309286Y-16195048D01*
X11309286Y-16195048D02*
X11318810Y-16204571D01*
X11318810Y-16204571D02*
X11328333Y-16223619D01*
X11328333Y-16223619D02*
X11337857Y-16261714D01*
X11337857Y-16261714D02*
X11337857Y-16309333D01*
X11337857Y-16309333D02*
X11328333Y-16347428D01*
X11328333Y-16347428D02*
X11318810Y-16366476D01*
X11318810Y-16366476D02*
X11309286Y-16376000D01*
X11309286Y-16376000D02*
X11290238Y-16385524D01*
X11290238Y-16385524D02*
X11271191Y-16385524D01*
X11271191Y-16385524D02*
X11252143Y-16376000D01*
X11252143Y-16376000D02*
X11242619Y-16366476D01*
X11242619Y-16366476D02*
X11233095Y-16347428D01*
X11233095Y-16347428D02*
X11223572Y-16309333D01*
X11223572Y-16309333D02*
X11223572Y-16261714D01*
X11223572Y-16261714D02*
X11233095Y-16223619D01*
X11233095Y-16223619D02*
X11242619Y-16204571D01*
X11242619Y-16204571D02*
X11252143Y-16195048D01*
X11252143Y-16195048D02*
X11271191Y-16185524D01*
X11518810Y-16185524D02*
X11423572Y-16185524D01*
X11423572Y-16185524D02*
X11414048Y-16280762D01*
X11414048Y-16280762D02*
X11423572Y-16271238D01*
X11423572Y-16271238D02*
X11442619Y-16261714D01*
X11442619Y-16261714D02*
X11490238Y-16261714D01*
X11490238Y-16261714D02*
X11509286Y-16271238D01*
X11509286Y-16271238D02*
X11518810Y-16280762D01*
X11518810Y-16280762D02*
X11528333Y-16299809D01*
X11528333Y-16299809D02*
X11528333Y-16347428D01*
X11528333Y-16347428D02*
X11518810Y-16366476D01*
X11518810Y-16366476D02*
X11509286Y-16376000D01*
X11509286Y-16376000D02*
X11490238Y-16385524D01*
X11490238Y-16385524D02*
X11442619Y-16385524D01*
X11442619Y-16385524D02*
X11423572Y-16376000D01*
X11423572Y-16376000D02*
X11414048Y-16366476D01*
X11623572Y-16385524D02*
X11661667Y-16385524D01*
X11661667Y-16385524D02*
X11680714Y-16376000D01*
X11680714Y-16376000D02*
X11690238Y-16366476D01*
X11690238Y-16366476D02*
X11709286Y-16337905D01*
X11709286Y-16337905D02*
X11718810Y-16299809D01*
X11718810Y-16299809D02*
X11718810Y-16223619D01*
X11718810Y-16223619D02*
X11709286Y-16204571D01*
X11709286Y-16204571D02*
X11699762Y-16195048D01*
X11699762Y-16195048D02*
X11680714Y-16185524D01*
X11680714Y-16185524D02*
X11642619Y-16185524D01*
X11642619Y-16185524D02*
X11623572Y-16195048D01*
X11623572Y-16195048D02*
X11614048Y-16204571D01*
X11614048Y-16204571D02*
X11604524Y-16223619D01*
X11604524Y-16223619D02*
X11604524Y-16271238D01*
X11604524Y-16271238D02*
X11614048Y-16290286D01*
X11614048Y-16290286D02*
X11623572Y-16299809D01*
X11623572Y-16299809D02*
X11642619Y-16309333D01*
X11642619Y-16309333D02*
X11680714Y-16309333D01*
X11680714Y-16309333D02*
X11699762Y-16299809D01*
X11699762Y-16299809D02*
X11709286Y-16290286D01*
X11709286Y-16290286D02*
X11718810Y-16271238D01*
X11909286Y-16385524D02*
X11795000Y-16385524D01*
X11852143Y-16385524D02*
X11852143Y-16185524D01*
X11852143Y-16185524D02*
X11833095Y-16214095D01*
X11833095Y-16214095D02*
X11814048Y-16233143D01*
X11814048Y-16233143D02*
X11795000Y-16242667D01*
X11985476Y-16185524D02*
X11985476Y-16223619D01*
X12061667Y-16185524D02*
X12061667Y-16223619D01*
X12356905Y-16461714D02*
X12347381Y-16452190D01*
X12347381Y-16452190D02*
X12328334Y-16423619D01*
X12328334Y-16423619D02*
X12318810Y-16404571D01*
X12318810Y-16404571D02*
X12309286Y-16376000D01*
X12309286Y-16376000D02*
X12299762Y-16328381D01*
X12299762Y-16328381D02*
X12299762Y-16290286D01*
X12299762Y-16290286D02*
X12309286Y-16242667D01*
X12309286Y-16242667D02*
X12318810Y-16214095D01*
X12318810Y-16214095D02*
X12328334Y-16195048D01*
X12328334Y-16195048D02*
X12347381Y-16166476D01*
X12347381Y-16166476D02*
X12356905Y-16156952D01*
X12423572Y-16204571D02*
X12433095Y-16195048D01*
X12433095Y-16195048D02*
X12452143Y-16185524D01*
X12452143Y-16185524D02*
X12499762Y-16185524D01*
X12499762Y-16185524D02*
X12518810Y-16195048D01*
X12518810Y-16195048D02*
X12528334Y-16204571D01*
X12528334Y-16204571D02*
X12537857Y-16223619D01*
X12537857Y-16223619D02*
X12537857Y-16242667D01*
X12537857Y-16242667D02*
X12528334Y-16271238D01*
X12528334Y-16271238D02*
X12414048Y-16385524D01*
X12414048Y-16385524D02*
X12537857Y-16385524D01*
X12633095Y-16385524D02*
X12671191Y-16385524D01*
X12671191Y-16385524D02*
X12690238Y-16376000D01*
X12690238Y-16376000D02*
X12699762Y-16366476D01*
X12699762Y-16366476D02*
X12718810Y-16337905D01*
X12718810Y-16337905D02*
X12728334Y-16299809D01*
X12728334Y-16299809D02*
X12728334Y-16223619D01*
X12728334Y-16223619D02*
X12718810Y-16204571D01*
X12718810Y-16204571D02*
X12709286Y-16195048D01*
X12709286Y-16195048D02*
X12690238Y-16185524D01*
X12690238Y-16185524D02*
X12652143Y-16185524D01*
X12652143Y-16185524D02*
X12633095Y-16195048D01*
X12633095Y-16195048D02*
X12623572Y-16204571D01*
X12623572Y-16204571D02*
X12614048Y-16223619D01*
X12614048Y-16223619D02*
X12614048Y-16271238D01*
X12614048Y-16271238D02*
X12623572Y-16290286D01*
X12623572Y-16290286D02*
X12633095Y-16299809D01*
X12633095Y-16299809D02*
X12652143Y-16309333D01*
X12652143Y-16309333D02*
X12690238Y-16309333D01*
X12690238Y-16309333D02*
X12709286Y-16299809D01*
X12709286Y-16299809D02*
X12718810Y-16290286D01*
X12718810Y-16290286D02*
X12728334Y-16271238D01*
X12966429Y-16385524D02*
X12966429Y-16185524D01*
X13052143Y-16385524D02*
X13052143Y-16280762D01*
X13052143Y-16280762D02*
X13042619Y-16261714D01*
X13042619Y-16261714D02*
X13023572Y-16252190D01*
X13023572Y-16252190D02*
X12995000Y-16252190D01*
X12995000Y-16252190D02*
X12975953Y-16261714D01*
X12975953Y-16261714D02*
X12966429Y-16271238D01*
X13175953Y-16385524D02*
X13156905Y-16376000D01*
X13156905Y-16376000D02*
X13147381Y-16366476D01*
X13147381Y-16366476D02*
X13137857Y-16347428D01*
X13137857Y-16347428D02*
X13137857Y-16290286D01*
X13137857Y-16290286D02*
X13147381Y-16271238D01*
X13147381Y-16271238D02*
X13156905Y-16261714D01*
X13156905Y-16261714D02*
X13175953Y-16252190D01*
X13175953Y-16252190D02*
X13204524Y-16252190D01*
X13204524Y-16252190D02*
X13223572Y-16261714D01*
X13223572Y-16261714D02*
X13233096Y-16271238D01*
X13233096Y-16271238D02*
X13242619Y-16290286D01*
X13242619Y-16290286D02*
X13242619Y-16347428D01*
X13242619Y-16347428D02*
X13233096Y-16366476D01*
X13233096Y-16366476D02*
X13223572Y-16376000D01*
X13223572Y-16376000D02*
X13204524Y-16385524D01*
X13204524Y-16385524D02*
X13175953Y-16385524D01*
X13356905Y-16385524D02*
X13337857Y-16376000D01*
X13337857Y-16376000D02*
X13328334Y-16356952D01*
X13328334Y-16356952D02*
X13328334Y-16185524D01*
X13509286Y-16376000D02*
X13490238Y-16385524D01*
X13490238Y-16385524D02*
X13452143Y-16385524D01*
X13452143Y-16385524D02*
X13433096Y-16376000D01*
X13433096Y-16376000D02*
X13423572Y-16356952D01*
X13423572Y-16356952D02*
X13423572Y-16280762D01*
X13423572Y-16280762D02*
X13433096Y-16261714D01*
X13433096Y-16261714D02*
X13452143Y-16252190D01*
X13452143Y-16252190D02*
X13490238Y-16252190D01*
X13490238Y-16252190D02*
X13509286Y-16261714D01*
X13509286Y-16261714D02*
X13518810Y-16280762D01*
X13518810Y-16280762D02*
X13518810Y-16299809D01*
X13518810Y-16299809D02*
X13423572Y-16318857D01*
X13595000Y-16376000D02*
X13614048Y-16385524D01*
X13614048Y-16385524D02*
X13652143Y-16385524D01*
X13652143Y-16385524D02*
X13671191Y-16376000D01*
X13671191Y-16376000D02*
X13680715Y-16356952D01*
X13680715Y-16356952D02*
X13680715Y-16347428D01*
X13680715Y-16347428D02*
X13671191Y-16328381D01*
X13671191Y-16328381D02*
X13652143Y-16318857D01*
X13652143Y-16318857D02*
X13623572Y-16318857D01*
X13623572Y-16318857D02*
X13604524Y-16309333D01*
X13604524Y-16309333D02*
X13595000Y-16290286D01*
X13595000Y-16290286D02*
X13595000Y-16280762D01*
X13595000Y-16280762D02*
X13604524Y-16261714D01*
X13604524Y-16261714D02*
X13623572Y-16252190D01*
X13623572Y-16252190D02*
X13652143Y-16252190D01*
X13652143Y-16252190D02*
X13671191Y-16261714D01*
X13747381Y-16461714D02*
X13756905Y-16452190D01*
X13756905Y-16452190D02*
X13775953Y-16423619D01*
X13775953Y-16423619D02*
X13785477Y-16404571D01*
X13785477Y-16404571D02*
X13795000Y-16376000D01*
X13795000Y-16376000D02*
X13804524Y-16328381D01*
X13804524Y-16328381D02*
X13804524Y-16290286D01*
X13804524Y-16290286D02*
X13795000Y-16242667D01*
X13795000Y-16242667D02*
X13785477Y-16214095D01*
X13785477Y-16214095D02*
X13775953Y-16195048D01*
X13775953Y-16195048D02*
X13756905Y-16166476D01*
X13756905Y-16166476D02*
X13747381Y-16156952D01*
D18*
X8635000Y-16483000D02*
X8795000Y-16643000D01*
X8795000Y-16483000D02*
X8635000Y-16643000D01*
X8715000Y-16643000D02*
X8795000Y-16563000D01*
X8715000Y-16483000D01*
X8635000Y-16563000D01*
X8715000Y-16643000D01*
D11*
X9147381Y-16655524D02*
X9033095Y-16655524D01*
X9090238Y-16655524D02*
X9090238Y-16455524D01*
X9090238Y-16455524D02*
X9071190Y-16484095D01*
X9071190Y-16484095D02*
X9052143Y-16503143D01*
X9052143Y-16503143D02*
X9033095Y-16512667D01*
X9233095Y-16636476D02*
X9242619Y-16646000D01*
X9242619Y-16646000D02*
X9233095Y-16655524D01*
X9233095Y-16655524D02*
X9223571Y-16646000D01*
X9223571Y-16646000D02*
X9233095Y-16636476D01*
X9233095Y-16636476D02*
X9233095Y-16655524D01*
X9414048Y-16455524D02*
X9375952Y-16455524D01*
X9375952Y-16455524D02*
X9356905Y-16465048D01*
X9356905Y-16465048D02*
X9347381Y-16474571D01*
X9347381Y-16474571D02*
X9328333Y-16503143D01*
X9328333Y-16503143D02*
X9318810Y-16541238D01*
X9318810Y-16541238D02*
X9318810Y-16617428D01*
X9318810Y-16617428D02*
X9328333Y-16636476D01*
X9328333Y-16636476D02*
X9337857Y-16646000D01*
X9337857Y-16646000D02*
X9356905Y-16655524D01*
X9356905Y-16655524D02*
X9395000Y-16655524D01*
X9395000Y-16655524D02*
X9414048Y-16646000D01*
X9414048Y-16646000D02*
X9423571Y-16636476D01*
X9423571Y-16636476D02*
X9433095Y-16617428D01*
X9433095Y-16617428D02*
X9433095Y-16569809D01*
X9433095Y-16569809D02*
X9423571Y-16550762D01*
X9423571Y-16550762D02*
X9414048Y-16541238D01*
X9414048Y-16541238D02*
X9395000Y-16531714D01*
X9395000Y-16531714D02*
X9356905Y-16531714D01*
X9356905Y-16531714D02*
X9337857Y-16541238D01*
X9337857Y-16541238D02*
X9328333Y-16550762D01*
X9328333Y-16550762D02*
X9318810Y-16569809D01*
X9556905Y-16455524D02*
X9575952Y-16455524D01*
X9575952Y-16455524D02*
X9595000Y-16465048D01*
X9595000Y-16465048D02*
X9604524Y-16474571D01*
X9604524Y-16474571D02*
X9614048Y-16493619D01*
X9614048Y-16493619D02*
X9623571Y-16531714D01*
X9623571Y-16531714D02*
X9623571Y-16579333D01*
X9623571Y-16579333D02*
X9614048Y-16617428D01*
X9614048Y-16617428D02*
X9604524Y-16636476D01*
X9604524Y-16636476D02*
X9595000Y-16646000D01*
X9595000Y-16646000D02*
X9575952Y-16655524D01*
X9575952Y-16655524D02*
X9556905Y-16655524D01*
X9556905Y-16655524D02*
X9537857Y-16646000D01*
X9537857Y-16646000D02*
X9528333Y-16636476D01*
X9528333Y-16636476D02*
X9518810Y-16617428D01*
X9518810Y-16617428D02*
X9509286Y-16579333D01*
X9509286Y-16579333D02*
X9509286Y-16531714D01*
X9509286Y-16531714D02*
X9518810Y-16493619D01*
X9518810Y-16493619D02*
X9528333Y-16474571D01*
X9528333Y-16474571D02*
X9537857Y-16465048D01*
X9537857Y-16465048D02*
X9556905Y-16455524D01*
X9747381Y-16455524D02*
X9766429Y-16455524D01*
X9766429Y-16455524D02*
X9785476Y-16465048D01*
X9785476Y-16465048D02*
X9795000Y-16474571D01*
X9795000Y-16474571D02*
X9804524Y-16493619D01*
X9804524Y-16493619D02*
X9814048Y-16531714D01*
X9814048Y-16531714D02*
X9814048Y-16579333D01*
X9814048Y-16579333D02*
X9804524Y-16617428D01*
X9804524Y-16617428D02*
X9795000Y-16636476D01*
X9795000Y-16636476D02*
X9785476Y-16646000D01*
X9785476Y-16646000D02*
X9766429Y-16655524D01*
X9766429Y-16655524D02*
X9747381Y-16655524D01*
X9747381Y-16655524D02*
X9728333Y-16646000D01*
X9728333Y-16646000D02*
X9718810Y-16636476D01*
X9718810Y-16636476D02*
X9709286Y-16617428D01*
X9709286Y-16617428D02*
X9699762Y-16579333D01*
X9699762Y-16579333D02*
X9699762Y-16531714D01*
X9699762Y-16531714D02*
X9709286Y-16493619D01*
X9709286Y-16493619D02*
X9718810Y-16474571D01*
X9718810Y-16474571D02*
X9728333Y-16465048D01*
X9728333Y-16465048D02*
X9747381Y-16455524D01*
X9899762Y-16655524D02*
X9899762Y-16522190D01*
X9899762Y-16541238D02*
X9909286Y-16531714D01*
X9909286Y-16531714D02*
X9928333Y-16522190D01*
X9928333Y-16522190D02*
X9956905Y-16522190D01*
X9956905Y-16522190D02*
X9975952Y-16531714D01*
X9975952Y-16531714D02*
X9985476Y-16550762D01*
X9985476Y-16550762D02*
X9985476Y-16655524D01*
X9985476Y-16550762D02*
X9995000Y-16531714D01*
X9995000Y-16531714D02*
X10014048Y-16522190D01*
X10014048Y-16522190D02*
X10042619Y-16522190D01*
X10042619Y-16522190D02*
X10061667Y-16531714D01*
X10061667Y-16531714D02*
X10071191Y-16550762D01*
X10071191Y-16550762D02*
X10071191Y-16655524D01*
X10166429Y-16655524D02*
X10166429Y-16522190D01*
X10166429Y-16541238D02*
X10175952Y-16531714D01*
X10175952Y-16531714D02*
X10195000Y-16522190D01*
X10195000Y-16522190D02*
X10223572Y-16522190D01*
X10223572Y-16522190D02*
X10242619Y-16531714D01*
X10242619Y-16531714D02*
X10252143Y-16550762D01*
X10252143Y-16550762D02*
X10252143Y-16655524D01*
X10252143Y-16550762D02*
X10261667Y-16531714D01*
X10261667Y-16531714D02*
X10280714Y-16522190D01*
X10280714Y-16522190D02*
X10309286Y-16522190D01*
X10309286Y-16522190D02*
X10328333Y-16531714D01*
X10328333Y-16531714D02*
X10337857Y-16550762D01*
X10337857Y-16550762D02*
X10337857Y-16655524D01*
X10728333Y-16446000D02*
X10556905Y-16703143D01*
X10985476Y-16455524D02*
X11004524Y-16455524D01*
X11004524Y-16455524D02*
X11023572Y-16465048D01*
X11023572Y-16465048D02*
X11033095Y-16474571D01*
X11033095Y-16474571D02*
X11042619Y-16493619D01*
X11042619Y-16493619D02*
X11052143Y-16531714D01*
X11052143Y-16531714D02*
X11052143Y-16579333D01*
X11052143Y-16579333D02*
X11042619Y-16617428D01*
X11042619Y-16617428D02*
X11033095Y-16636476D01*
X11033095Y-16636476D02*
X11023572Y-16646000D01*
X11023572Y-16646000D02*
X11004524Y-16655524D01*
X11004524Y-16655524D02*
X10985476Y-16655524D01*
X10985476Y-16655524D02*
X10966429Y-16646000D01*
X10966429Y-16646000D02*
X10956905Y-16636476D01*
X10956905Y-16636476D02*
X10947381Y-16617428D01*
X10947381Y-16617428D02*
X10937857Y-16579333D01*
X10937857Y-16579333D02*
X10937857Y-16531714D01*
X10937857Y-16531714D02*
X10947381Y-16493619D01*
X10947381Y-16493619D02*
X10956905Y-16474571D01*
X10956905Y-16474571D02*
X10966429Y-16465048D01*
X10966429Y-16465048D02*
X10985476Y-16455524D01*
X11137857Y-16636476D02*
X11147381Y-16646000D01*
X11147381Y-16646000D02*
X11137857Y-16655524D01*
X11137857Y-16655524D02*
X11128334Y-16646000D01*
X11128334Y-16646000D02*
X11137857Y-16636476D01*
X11137857Y-16636476D02*
X11137857Y-16655524D01*
X11271191Y-16455524D02*
X11290238Y-16455524D01*
X11290238Y-16455524D02*
X11309286Y-16465048D01*
X11309286Y-16465048D02*
X11318810Y-16474571D01*
X11318810Y-16474571D02*
X11328333Y-16493619D01*
X11328333Y-16493619D02*
X11337857Y-16531714D01*
X11337857Y-16531714D02*
X11337857Y-16579333D01*
X11337857Y-16579333D02*
X11328333Y-16617428D01*
X11328333Y-16617428D02*
X11318810Y-16636476D01*
X11318810Y-16636476D02*
X11309286Y-16646000D01*
X11309286Y-16646000D02*
X11290238Y-16655524D01*
X11290238Y-16655524D02*
X11271191Y-16655524D01*
X11271191Y-16655524D02*
X11252143Y-16646000D01*
X11252143Y-16646000D02*
X11242619Y-16636476D01*
X11242619Y-16636476D02*
X11233095Y-16617428D01*
X11233095Y-16617428D02*
X11223572Y-16579333D01*
X11223572Y-16579333D02*
X11223572Y-16531714D01*
X11223572Y-16531714D02*
X11233095Y-16493619D01*
X11233095Y-16493619D02*
X11242619Y-16474571D01*
X11242619Y-16474571D02*
X11252143Y-16465048D01*
X11252143Y-16465048D02*
X11271191Y-16455524D01*
X11509286Y-16455524D02*
X11471191Y-16455524D01*
X11471191Y-16455524D02*
X11452143Y-16465048D01*
X11452143Y-16465048D02*
X11442619Y-16474571D01*
X11442619Y-16474571D02*
X11423572Y-16503143D01*
X11423572Y-16503143D02*
X11414048Y-16541238D01*
X11414048Y-16541238D02*
X11414048Y-16617428D01*
X11414048Y-16617428D02*
X11423572Y-16636476D01*
X11423572Y-16636476D02*
X11433095Y-16646000D01*
X11433095Y-16646000D02*
X11452143Y-16655524D01*
X11452143Y-16655524D02*
X11490238Y-16655524D01*
X11490238Y-16655524D02*
X11509286Y-16646000D01*
X11509286Y-16646000D02*
X11518810Y-16636476D01*
X11518810Y-16636476D02*
X11528333Y-16617428D01*
X11528333Y-16617428D02*
X11528333Y-16569809D01*
X11528333Y-16569809D02*
X11518810Y-16550762D01*
X11518810Y-16550762D02*
X11509286Y-16541238D01*
X11509286Y-16541238D02*
X11490238Y-16531714D01*
X11490238Y-16531714D02*
X11452143Y-16531714D01*
X11452143Y-16531714D02*
X11433095Y-16541238D01*
X11433095Y-16541238D02*
X11423572Y-16550762D01*
X11423572Y-16550762D02*
X11414048Y-16569809D01*
X11595000Y-16455524D02*
X11718810Y-16455524D01*
X11718810Y-16455524D02*
X11652143Y-16531714D01*
X11652143Y-16531714D02*
X11680714Y-16531714D01*
X11680714Y-16531714D02*
X11699762Y-16541238D01*
X11699762Y-16541238D02*
X11709286Y-16550762D01*
X11709286Y-16550762D02*
X11718810Y-16569809D01*
X11718810Y-16569809D02*
X11718810Y-16617428D01*
X11718810Y-16617428D02*
X11709286Y-16636476D01*
X11709286Y-16636476D02*
X11699762Y-16646000D01*
X11699762Y-16646000D02*
X11680714Y-16655524D01*
X11680714Y-16655524D02*
X11623572Y-16655524D01*
X11623572Y-16655524D02*
X11604524Y-16646000D01*
X11604524Y-16646000D02*
X11595000Y-16636476D01*
X11842619Y-16455524D02*
X11861667Y-16455524D01*
X11861667Y-16455524D02*
X11880714Y-16465048D01*
X11880714Y-16465048D02*
X11890238Y-16474571D01*
X11890238Y-16474571D02*
X11899762Y-16493619D01*
X11899762Y-16493619D02*
X11909286Y-16531714D01*
X11909286Y-16531714D02*
X11909286Y-16579333D01*
X11909286Y-16579333D02*
X11899762Y-16617428D01*
X11899762Y-16617428D02*
X11890238Y-16636476D01*
X11890238Y-16636476D02*
X11880714Y-16646000D01*
X11880714Y-16646000D02*
X11861667Y-16655524D01*
X11861667Y-16655524D02*
X11842619Y-16655524D01*
X11842619Y-16655524D02*
X11823572Y-16646000D01*
X11823572Y-16646000D02*
X11814048Y-16636476D01*
X11814048Y-16636476D02*
X11804524Y-16617428D01*
X11804524Y-16617428D02*
X11795000Y-16579333D01*
X11795000Y-16579333D02*
X11795000Y-16531714D01*
X11795000Y-16531714D02*
X11804524Y-16493619D01*
X11804524Y-16493619D02*
X11814048Y-16474571D01*
X11814048Y-16474571D02*
X11823572Y-16465048D01*
X11823572Y-16465048D02*
X11842619Y-16455524D01*
X11985476Y-16455524D02*
X11985476Y-16493619D01*
X12061667Y-16455524D02*
X12061667Y-16493619D01*
X12356905Y-16731714D02*
X12347381Y-16722190D01*
X12347381Y-16722190D02*
X12328334Y-16693619D01*
X12328334Y-16693619D02*
X12318810Y-16674571D01*
X12318810Y-16674571D02*
X12309286Y-16646000D01*
X12309286Y-16646000D02*
X12299762Y-16598381D01*
X12299762Y-16598381D02*
X12299762Y-16560286D01*
X12299762Y-16560286D02*
X12309286Y-16512667D01*
X12309286Y-16512667D02*
X12318810Y-16484095D01*
X12318810Y-16484095D02*
X12328334Y-16465048D01*
X12328334Y-16465048D02*
X12347381Y-16436476D01*
X12347381Y-16436476D02*
X12356905Y-16426952D01*
X12423572Y-16474571D02*
X12433095Y-16465048D01*
X12433095Y-16465048D02*
X12452143Y-16455524D01*
X12452143Y-16455524D02*
X12499762Y-16455524D01*
X12499762Y-16455524D02*
X12518810Y-16465048D01*
X12518810Y-16465048D02*
X12528334Y-16474571D01*
X12528334Y-16474571D02*
X12537857Y-16493619D01*
X12537857Y-16493619D02*
X12537857Y-16512667D01*
X12537857Y-16512667D02*
X12528334Y-16541238D01*
X12528334Y-16541238D02*
X12414048Y-16655524D01*
X12414048Y-16655524D02*
X12537857Y-16655524D01*
X12775953Y-16655524D02*
X12775953Y-16455524D01*
X12861667Y-16655524D02*
X12861667Y-16550762D01*
X12861667Y-16550762D02*
X12852143Y-16531714D01*
X12852143Y-16531714D02*
X12833096Y-16522190D01*
X12833096Y-16522190D02*
X12804524Y-16522190D01*
X12804524Y-16522190D02*
X12785476Y-16531714D01*
X12785476Y-16531714D02*
X12775953Y-16541238D01*
X12985476Y-16655524D02*
X12966429Y-16646000D01*
X12966429Y-16646000D02*
X12956905Y-16636476D01*
X12956905Y-16636476D02*
X12947381Y-16617428D01*
X12947381Y-16617428D02*
X12947381Y-16560286D01*
X12947381Y-16560286D02*
X12956905Y-16541238D01*
X12956905Y-16541238D02*
X12966429Y-16531714D01*
X12966429Y-16531714D02*
X12985476Y-16522190D01*
X12985476Y-16522190D02*
X13014048Y-16522190D01*
X13014048Y-16522190D02*
X13033096Y-16531714D01*
X13033096Y-16531714D02*
X13042619Y-16541238D01*
X13042619Y-16541238D02*
X13052143Y-16560286D01*
X13052143Y-16560286D02*
X13052143Y-16617428D01*
X13052143Y-16617428D02*
X13042619Y-16636476D01*
X13042619Y-16636476D02*
X13033096Y-16646000D01*
X13033096Y-16646000D02*
X13014048Y-16655524D01*
X13014048Y-16655524D02*
X12985476Y-16655524D01*
X13166429Y-16655524D02*
X13147381Y-16646000D01*
X13147381Y-16646000D02*
X13137857Y-16626952D01*
X13137857Y-16626952D02*
X13137857Y-16455524D01*
X13318810Y-16646000D02*
X13299762Y-16655524D01*
X13299762Y-16655524D02*
X13261667Y-16655524D01*
X13261667Y-16655524D02*
X13242619Y-16646000D01*
X13242619Y-16646000D02*
X13233096Y-16626952D01*
X13233096Y-16626952D02*
X13233096Y-16550762D01*
X13233096Y-16550762D02*
X13242619Y-16531714D01*
X13242619Y-16531714D02*
X13261667Y-16522190D01*
X13261667Y-16522190D02*
X13299762Y-16522190D01*
X13299762Y-16522190D02*
X13318810Y-16531714D01*
X13318810Y-16531714D02*
X13328334Y-16550762D01*
X13328334Y-16550762D02*
X13328334Y-16569809D01*
X13328334Y-16569809D02*
X13233096Y-16588857D01*
X13404524Y-16646000D02*
X13423572Y-16655524D01*
X13423572Y-16655524D02*
X13461667Y-16655524D01*
X13461667Y-16655524D02*
X13480715Y-16646000D01*
X13480715Y-16646000D02*
X13490238Y-16626952D01*
X13490238Y-16626952D02*
X13490238Y-16617428D01*
X13490238Y-16617428D02*
X13480715Y-16598381D01*
X13480715Y-16598381D02*
X13461667Y-16588857D01*
X13461667Y-16588857D02*
X13433096Y-16588857D01*
X13433096Y-16588857D02*
X13414048Y-16579333D01*
X13414048Y-16579333D02*
X13404524Y-16560286D01*
X13404524Y-16560286D02*
X13404524Y-16550762D01*
X13404524Y-16550762D02*
X13414048Y-16531714D01*
X13414048Y-16531714D02*
X13433096Y-16522190D01*
X13433096Y-16522190D02*
X13461667Y-16522190D01*
X13461667Y-16522190D02*
X13480715Y-16531714D01*
X13556905Y-16731714D02*
X13566429Y-16722190D01*
X13566429Y-16722190D02*
X13585477Y-16693619D01*
X13585477Y-16693619D02*
X13595000Y-16674571D01*
X13595000Y-16674571D02*
X13604524Y-16646000D01*
X13604524Y-16646000D02*
X13614048Y-16598381D01*
X13614048Y-16598381D02*
X13614048Y-16560286D01*
X13614048Y-16560286D02*
X13604524Y-16512667D01*
X13604524Y-16512667D02*
X13595000Y-16484095D01*
X13595000Y-16484095D02*
X13585477Y-16465048D01*
X13585477Y-16465048D02*
X13566429Y-16436476D01*
X13566429Y-16436476D02*
X13556905Y-16426952D01*
X8695000Y-16743000D02*
X8695000Y-16943000D01*
X8595000Y-16843000D02*
X8795000Y-16843000D01*
X8795000Y-16843000D02*
G75*
G03*
X8795000Y-16843000I-100000J0D01*
G01*
X9033095Y-16754571D02*
X9042619Y-16745048D01*
X9042619Y-16745048D02*
X9061667Y-16735524D01*
X9061667Y-16735524D02*
X9109286Y-16735524D01*
X9109286Y-16735524D02*
X9128333Y-16745048D01*
X9128333Y-16745048D02*
X9137857Y-16754571D01*
X9137857Y-16754571D02*
X9147381Y-16773619D01*
X9147381Y-16773619D02*
X9147381Y-16792667D01*
X9147381Y-16792667D02*
X9137857Y-16821238D01*
X9137857Y-16821238D02*
X9023571Y-16935524D01*
X9023571Y-16935524D02*
X9147381Y-16935524D01*
X9233095Y-16916476D02*
X9242619Y-16926000D01*
X9242619Y-16926000D02*
X9233095Y-16935524D01*
X9233095Y-16935524D02*
X9223571Y-16926000D01*
X9223571Y-16926000D02*
X9233095Y-16916476D01*
X9233095Y-16916476D02*
X9233095Y-16935524D01*
X9423571Y-16735524D02*
X9328333Y-16735524D01*
X9328333Y-16735524D02*
X9318810Y-16830762D01*
X9318810Y-16830762D02*
X9328333Y-16821238D01*
X9328333Y-16821238D02*
X9347381Y-16811714D01*
X9347381Y-16811714D02*
X9395000Y-16811714D01*
X9395000Y-16811714D02*
X9414048Y-16821238D01*
X9414048Y-16821238D02*
X9423571Y-16830762D01*
X9423571Y-16830762D02*
X9433095Y-16849810D01*
X9433095Y-16849810D02*
X9433095Y-16897429D01*
X9433095Y-16897429D02*
X9423571Y-16916476D01*
X9423571Y-16916476D02*
X9414048Y-16926000D01*
X9414048Y-16926000D02*
X9395000Y-16935524D01*
X9395000Y-16935524D02*
X9347381Y-16935524D01*
X9347381Y-16935524D02*
X9328333Y-16926000D01*
X9328333Y-16926000D02*
X9318810Y-16916476D01*
X9604524Y-16802190D02*
X9604524Y-16935524D01*
X9556905Y-16726000D02*
X9509286Y-16868857D01*
X9509286Y-16868857D02*
X9633095Y-16868857D01*
X9747381Y-16735524D02*
X9766429Y-16735524D01*
X9766429Y-16735524D02*
X9785476Y-16745048D01*
X9785476Y-16745048D02*
X9795000Y-16754571D01*
X9795000Y-16754571D02*
X9804524Y-16773619D01*
X9804524Y-16773619D02*
X9814048Y-16811714D01*
X9814048Y-16811714D02*
X9814048Y-16859333D01*
X9814048Y-16859333D02*
X9804524Y-16897429D01*
X9804524Y-16897429D02*
X9795000Y-16916476D01*
X9795000Y-16916476D02*
X9785476Y-16926000D01*
X9785476Y-16926000D02*
X9766429Y-16935524D01*
X9766429Y-16935524D02*
X9747381Y-16935524D01*
X9747381Y-16935524D02*
X9728333Y-16926000D01*
X9728333Y-16926000D02*
X9718810Y-16916476D01*
X9718810Y-16916476D02*
X9709286Y-16897429D01*
X9709286Y-16897429D02*
X9699762Y-16859333D01*
X9699762Y-16859333D02*
X9699762Y-16811714D01*
X9699762Y-16811714D02*
X9709286Y-16773619D01*
X9709286Y-16773619D02*
X9718810Y-16754571D01*
X9718810Y-16754571D02*
X9728333Y-16745048D01*
X9728333Y-16745048D02*
X9747381Y-16735524D01*
X9899762Y-16935524D02*
X9899762Y-16802190D01*
X9899762Y-16821238D02*
X9909286Y-16811714D01*
X9909286Y-16811714D02*
X9928333Y-16802190D01*
X9928333Y-16802190D02*
X9956905Y-16802190D01*
X9956905Y-16802190D02*
X9975952Y-16811714D01*
X9975952Y-16811714D02*
X9985476Y-16830762D01*
X9985476Y-16830762D02*
X9985476Y-16935524D01*
X9985476Y-16830762D02*
X9995000Y-16811714D01*
X9995000Y-16811714D02*
X10014048Y-16802190D01*
X10014048Y-16802190D02*
X10042619Y-16802190D01*
X10042619Y-16802190D02*
X10061667Y-16811714D01*
X10061667Y-16811714D02*
X10071191Y-16830762D01*
X10071191Y-16830762D02*
X10071191Y-16935524D01*
X10166429Y-16935524D02*
X10166429Y-16802190D01*
X10166429Y-16821238D02*
X10175952Y-16811714D01*
X10175952Y-16811714D02*
X10195000Y-16802190D01*
X10195000Y-16802190D02*
X10223572Y-16802190D01*
X10223572Y-16802190D02*
X10242619Y-16811714D01*
X10242619Y-16811714D02*
X10252143Y-16830762D01*
X10252143Y-16830762D02*
X10252143Y-16935524D01*
X10252143Y-16830762D02*
X10261667Y-16811714D01*
X10261667Y-16811714D02*
X10280714Y-16802190D01*
X10280714Y-16802190D02*
X10309286Y-16802190D01*
X10309286Y-16802190D02*
X10328333Y-16811714D01*
X10328333Y-16811714D02*
X10337857Y-16830762D01*
X10337857Y-16830762D02*
X10337857Y-16935524D01*
X10728333Y-16726000D02*
X10556905Y-16983143D01*
X10985476Y-16735524D02*
X11004524Y-16735524D01*
X11004524Y-16735524D02*
X11023572Y-16745048D01*
X11023572Y-16745048D02*
X11033095Y-16754571D01*
X11033095Y-16754571D02*
X11042619Y-16773619D01*
X11042619Y-16773619D02*
X11052143Y-16811714D01*
X11052143Y-16811714D02*
X11052143Y-16859333D01*
X11052143Y-16859333D02*
X11042619Y-16897429D01*
X11042619Y-16897429D02*
X11033095Y-16916476D01*
X11033095Y-16916476D02*
X11023572Y-16926000D01*
X11023572Y-16926000D02*
X11004524Y-16935524D01*
X11004524Y-16935524D02*
X10985476Y-16935524D01*
X10985476Y-16935524D02*
X10966429Y-16926000D01*
X10966429Y-16926000D02*
X10956905Y-16916476D01*
X10956905Y-16916476D02*
X10947381Y-16897429D01*
X10947381Y-16897429D02*
X10937857Y-16859333D01*
X10937857Y-16859333D02*
X10937857Y-16811714D01*
X10937857Y-16811714D02*
X10947381Y-16773619D01*
X10947381Y-16773619D02*
X10956905Y-16754571D01*
X10956905Y-16754571D02*
X10966429Y-16745048D01*
X10966429Y-16745048D02*
X10985476Y-16735524D01*
X11137857Y-16916476D02*
X11147381Y-16926000D01*
X11147381Y-16926000D02*
X11137857Y-16935524D01*
X11137857Y-16935524D02*
X11128334Y-16926000D01*
X11128334Y-16926000D02*
X11137857Y-16916476D01*
X11137857Y-16916476D02*
X11137857Y-16935524D01*
X11337857Y-16935524D02*
X11223572Y-16935524D01*
X11280714Y-16935524D02*
X11280714Y-16735524D01*
X11280714Y-16735524D02*
X11261667Y-16764095D01*
X11261667Y-16764095D02*
X11242619Y-16783143D01*
X11242619Y-16783143D02*
X11223572Y-16792667D01*
X11461667Y-16735524D02*
X11480714Y-16735524D01*
X11480714Y-16735524D02*
X11499762Y-16745048D01*
X11499762Y-16745048D02*
X11509286Y-16754571D01*
X11509286Y-16754571D02*
X11518810Y-16773619D01*
X11518810Y-16773619D02*
X11528333Y-16811714D01*
X11528333Y-16811714D02*
X11528333Y-16859333D01*
X11528333Y-16859333D02*
X11518810Y-16897429D01*
X11518810Y-16897429D02*
X11509286Y-16916476D01*
X11509286Y-16916476D02*
X11499762Y-16926000D01*
X11499762Y-16926000D02*
X11480714Y-16935524D01*
X11480714Y-16935524D02*
X11461667Y-16935524D01*
X11461667Y-16935524D02*
X11442619Y-16926000D01*
X11442619Y-16926000D02*
X11433095Y-16916476D01*
X11433095Y-16916476D02*
X11423572Y-16897429D01*
X11423572Y-16897429D02*
X11414048Y-16859333D01*
X11414048Y-16859333D02*
X11414048Y-16811714D01*
X11414048Y-16811714D02*
X11423572Y-16773619D01*
X11423572Y-16773619D02*
X11433095Y-16754571D01*
X11433095Y-16754571D02*
X11442619Y-16745048D01*
X11442619Y-16745048D02*
X11461667Y-16735524D01*
X11652143Y-16735524D02*
X11671191Y-16735524D01*
X11671191Y-16735524D02*
X11690238Y-16745048D01*
X11690238Y-16745048D02*
X11699762Y-16754571D01*
X11699762Y-16754571D02*
X11709286Y-16773619D01*
X11709286Y-16773619D02*
X11718810Y-16811714D01*
X11718810Y-16811714D02*
X11718810Y-16859333D01*
X11718810Y-16859333D02*
X11709286Y-16897429D01*
X11709286Y-16897429D02*
X11699762Y-16916476D01*
X11699762Y-16916476D02*
X11690238Y-16926000D01*
X11690238Y-16926000D02*
X11671191Y-16935524D01*
X11671191Y-16935524D02*
X11652143Y-16935524D01*
X11652143Y-16935524D02*
X11633095Y-16926000D01*
X11633095Y-16926000D02*
X11623572Y-16916476D01*
X11623572Y-16916476D02*
X11614048Y-16897429D01*
X11614048Y-16897429D02*
X11604524Y-16859333D01*
X11604524Y-16859333D02*
X11604524Y-16811714D01*
X11604524Y-16811714D02*
X11614048Y-16773619D01*
X11614048Y-16773619D02*
X11623572Y-16754571D01*
X11623572Y-16754571D02*
X11633095Y-16745048D01*
X11633095Y-16745048D02*
X11652143Y-16735524D01*
X11842619Y-16735524D02*
X11861667Y-16735524D01*
X11861667Y-16735524D02*
X11880714Y-16745048D01*
X11880714Y-16745048D02*
X11890238Y-16754571D01*
X11890238Y-16754571D02*
X11899762Y-16773619D01*
X11899762Y-16773619D02*
X11909286Y-16811714D01*
X11909286Y-16811714D02*
X11909286Y-16859333D01*
X11909286Y-16859333D02*
X11899762Y-16897429D01*
X11899762Y-16897429D02*
X11890238Y-16916476D01*
X11890238Y-16916476D02*
X11880714Y-16926000D01*
X11880714Y-16926000D02*
X11861667Y-16935524D01*
X11861667Y-16935524D02*
X11842619Y-16935524D01*
X11842619Y-16935524D02*
X11823572Y-16926000D01*
X11823572Y-16926000D02*
X11814048Y-16916476D01*
X11814048Y-16916476D02*
X11804524Y-16897429D01*
X11804524Y-16897429D02*
X11795000Y-16859333D01*
X11795000Y-16859333D02*
X11795000Y-16811714D01*
X11795000Y-16811714D02*
X11804524Y-16773619D01*
X11804524Y-16773619D02*
X11814048Y-16754571D01*
X11814048Y-16754571D02*
X11823572Y-16745048D01*
X11823572Y-16745048D02*
X11842619Y-16735524D01*
X11985476Y-16735524D02*
X11985476Y-16773619D01*
X12061667Y-16735524D02*
X12061667Y-16773619D01*
X12356905Y-17011714D02*
X12347381Y-17002190D01*
X12347381Y-17002190D02*
X12328334Y-16973619D01*
X12328334Y-16973619D02*
X12318810Y-16954571D01*
X12318810Y-16954571D02*
X12309286Y-16926000D01*
X12309286Y-16926000D02*
X12299762Y-16878381D01*
X12299762Y-16878381D02*
X12299762Y-16840286D01*
X12299762Y-16840286D02*
X12309286Y-16792667D01*
X12309286Y-16792667D02*
X12318810Y-16764095D01*
X12318810Y-16764095D02*
X12328334Y-16745048D01*
X12328334Y-16745048D02*
X12347381Y-16716476D01*
X12347381Y-16716476D02*
X12356905Y-16706952D01*
X12518810Y-16802190D02*
X12518810Y-16935524D01*
X12471191Y-16726000D02*
X12423572Y-16868857D01*
X12423572Y-16868857D02*
X12547381Y-16868857D01*
X12775953Y-16935524D02*
X12775953Y-16735524D01*
X12861667Y-16935524D02*
X12861667Y-16830762D01*
X12861667Y-16830762D02*
X12852143Y-16811714D01*
X12852143Y-16811714D02*
X12833096Y-16802190D01*
X12833096Y-16802190D02*
X12804524Y-16802190D01*
X12804524Y-16802190D02*
X12785476Y-16811714D01*
X12785476Y-16811714D02*
X12775953Y-16821238D01*
X12985476Y-16935524D02*
X12966429Y-16926000D01*
X12966429Y-16926000D02*
X12956905Y-16916476D01*
X12956905Y-16916476D02*
X12947381Y-16897429D01*
X12947381Y-16897429D02*
X12947381Y-16840286D01*
X12947381Y-16840286D02*
X12956905Y-16821238D01*
X12956905Y-16821238D02*
X12966429Y-16811714D01*
X12966429Y-16811714D02*
X12985476Y-16802190D01*
X12985476Y-16802190D02*
X13014048Y-16802190D01*
X13014048Y-16802190D02*
X13033096Y-16811714D01*
X13033096Y-16811714D02*
X13042619Y-16821238D01*
X13042619Y-16821238D02*
X13052143Y-16840286D01*
X13052143Y-16840286D02*
X13052143Y-16897429D01*
X13052143Y-16897429D02*
X13042619Y-16916476D01*
X13042619Y-16916476D02*
X13033096Y-16926000D01*
X13033096Y-16926000D02*
X13014048Y-16935524D01*
X13014048Y-16935524D02*
X12985476Y-16935524D01*
X13166429Y-16935524D02*
X13147381Y-16926000D01*
X13147381Y-16926000D02*
X13137857Y-16906952D01*
X13137857Y-16906952D02*
X13137857Y-16735524D01*
X13318810Y-16926000D02*
X13299762Y-16935524D01*
X13299762Y-16935524D02*
X13261667Y-16935524D01*
X13261667Y-16935524D02*
X13242619Y-16926000D01*
X13242619Y-16926000D02*
X13233096Y-16906952D01*
X13233096Y-16906952D02*
X13233096Y-16830762D01*
X13233096Y-16830762D02*
X13242619Y-16811714D01*
X13242619Y-16811714D02*
X13261667Y-16802190D01*
X13261667Y-16802190D02*
X13299762Y-16802190D01*
X13299762Y-16802190D02*
X13318810Y-16811714D01*
X13318810Y-16811714D02*
X13328334Y-16830762D01*
X13328334Y-16830762D02*
X13328334Y-16849810D01*
X13328334Y-16849810D02*
X13233096Y-16868857D01*
X13404524Y-16926000D02*
X13423572Y-16935524D01*
X13423572Y-16935524D02*
X13461667Y-16935524D01*
X13461667Y-16935524D02*
X13480715Y-16926000D01*
X13480715Y-16926000D02*
X13490238Y-16906952D01*
X13490238Y-16906952D02*
X13490238Y-16897429D01*
X13490238Y-16897429D02*
X13480715Y-16878381D01*
X13480715Y-16878381D02*
X13461667Y-16868857D01*
X13461667Y-16868857D02*
X13433096Y-16868857D01*
X13433096Y-16868857D02*
X13414048Y-16859333D01*
X13414048Y-16859333D02*
X13404524Y-16840286D01*
X13404524Y-16840286D02*
X13404524Y-16830762D01*
X13404524Y-16830762D02*
X13414048Y-16811714D01*
X13414048Y-16811714D02*
X13433096Y-16802190D01*
X13433096Y-16802190D02*
X13461667Y-16802190D01*
X13461667Y-16802190D02*
X13480715Y-16811714D01*
X13556905Y-17011714D02*
X13566429Y-17002190D01*
X13566429Y-17002190D02*
X13585477Y-16973619D01*
X13585477Y-16973619D02*
X13595000Y-16954571D01*
X13595000Y-16954571D02*
X13604524Y-16926000D01*
X13604524Y-16926000D02*
X13614048Y-16878381D01*
X13614048Y-16878381D02*
X13614048Y-16840286D01*
X13614048Y-16840286D02*
X13604524Y-16792667D01*
X13604524Y-16792667D02*
X13595000Y-16764095D01*
X13595000Y-16764095D02*
X13585477Y-16745048D01*
X13585477Y-16745048D02*
X13566429Y-16716476D01*
X13566429Y-16716476D02*
X13556905Y-16706952D01*
X8765711Y-17233711D02*
X8765711Y-17092289D01*
X8624289Y-17092289D01*
X8624289Y-17233711D01*
X8765711Y-17233711D01*
X8795000Y-17163000D02*
G75*
G03*
X8795000Y-17163000I-100000J0D01*
G01*
X9033095Y-17074571D02*
X9042619Y-17065048D01*
X9042619Y-17065048D02*
X9061667Y-17055524D01*
X9061667Y-17055524D02*
X9109286Y-17055524D01*
X9109286Y-17055524D02*
X9128333Y-17065048D01*
X9128333Y-17065048D02*
X9137857Y-17074571D01*
X9137857Y-17074571D02*
X9147381Y-17093619D01*
X9147381Y-17093619D02*
X9147381Y-17112667D01*
X9147381Y-17112667D02*
X9137857Y-17141238D01*
X9137857Y-17141238D02*
X9023571Y-17255524D01*
X9023571Y-17255524D02*
X9147381Y-17255524D01*
X9233095Y-17236476D02*
X9242619Y-17246000D01*
X9242619Y-17246000D02*
X9233095Y-17255524D01*
X9233095Y-17255524D02*
X9223571Y-17246000D01*
X9223571Y-17246000D02*
X9233095Y-17236476D01*
X9233095Y-17236476D02*
X9233095Y-17255524D01*
X9309286Y-17055524D02*
X9442619Y-17055524D01*
X9442619Y-17055524D02*
X9356905Y-17255524D01*
X9556905Y-17055524D02*
X9575952Y-17055524D01*
X9575952Y-17055524D02*
X9595000Y-17065048D01*
X9595000Y-17065048D02*
X9604524Y-17074571D01*
X9604524Y-17074571D02*
X9614048Y-17093619D01*
X9614048Y-17093619D02*
X9623571Y-17131714D01*
X9623571Y-17131714D02*
X9623571Y-17179333D01*
X9623571Y-17179333D02*
X9614048Y-17217429D01*
X9614048Y-17217429D02*
X9604524Y-17236476D01*
X9604524Y-17236476D02*
X9595000Y-17246000D01*
X9595000Y-17246000D02*
X9575952Y-17255524D01*
X9575952Y-17255524D02*
X9556905Y-17255524D01*
X9556905Y-17255524D02*
X9537857Y-17246000D01*
X9537857Y-17246000D02*
X9528333Y-17236476D01*
X9528333Y-17236476D02*
X9518810Y-17217429D01*
X9518810Y-17217429D02*
X9509286Y-17179333D01*
X9509286Y-17179333D02*
X9509286Y-17131714D01*
X9509286Y-17131714D02*
X9518810Y-17093619D01*
X9518810Y-17093619D02*
X9528333Y-17074571D01*
X9528333Y-17074571D02*
X9537857Y-17065048D01*
X9537857Y-17065048D02*
X9556905Y-17055524D01*
X9747381Y-17055524D02*
X9766429Y-17055524D01*
X9766429Y-17055524D02*
X9785476Y-17065048D01*
X9785476Y-17065048D02*
X9795000Y-17074571D01*
X9795000Y-17074571D02*
X9804524Y-17093619D01*
X9804524Y-17093619D02*
X9814048Y-17131714D01*
X9814048Y-17131714D02*
X9814048Y-17179333D01*
X9814048Y-17179333D02*
X9804524Y-17217429D01*
X9804524Y-17217429D02*
X9795000Y-17236476D01*
X9795000Y-17236476D02*
X9785476Y-17246000D01*
X9785476Y-17246000D02*
X9766429Y-17255524D01*
X9766429Y-17255524D02*
X9747381Y-17255524D01*
X9747381Y-17255524D02*
X9728333Y-17246000D01*
X9728333Y-17246000D02*
X9718810Y-17236476D01*
X9718810Y-17236476D02*
X9709286Y-17217429D01*
X9709286Y-17217429D02*
X9699762Y-17179333D01*
X9699762Y-17179333D02*
X9699762Y-17131714D01*
X9699762Y-17131714D02*
X9709286Y-17093619D01*
X9709286Y-17093619D02*
X9718810Y-17074571D01*
X9718810Y-17074571D02*
X9728333Y-17065048D01*
X9728333Y-17065048D02*
X9747381Y-17055524D01*
X9899762Y-17255524D02*
X9899762Y-17122190D01*
X9899762Y-17141238D02*
X9909286Y-17131714D01*
X9909286Y-17131714D02*
X9928333Y-17122190D01*
X9928333Y-17122190D02*
X9956905Y-17122190D01*
X9956905Y-17122190D02*
X9975952Y-17131714D01*
X9975952Y-17131714D02*
X9985476Y-17150762D01*
X9985476Y-17150762D02*
X9985476Y-17255524D01*
X9985476Y-17150762D02*
X9995000Y-17131714D01*
X9995000Y-17131714D02*
X10014048Y-17122190D01*
X10014048Y-17122190D02*
X10042619Y-17122190D01*
X10042619Y-17122190D02*
X10061667Y-17131714D01*
X10061667Y-17131714D02*
X10071191Y-17150762D01*
X10071191Y-17150762D02*
X10071191Y-17255524D01*
X10166429Y-17255524D02*
X10166429Y-17122190D01*
X10166429Y-17141238D02*
X10175952Y-17131714D01*
X10175952Y-17131714D02*
X10195000Y-17122190D01*
X10195000Y-17122190D02*
X10223572Y-17122190D01*
X10223572Y-17122190D02*
X10242619Y-17131714D01*
X10242619Y-17131714D02*
X10252143Y-17150762D01*
X10252143Y-17150762D02*
X10252143Y-17255524D01*
X10252143Y-17150762D02*
X10261667Y-17131714D01*
X10261667Y-17131714D02*
X10280714Y-17122190D01*
X10280714Y-17122190D02*
X10309286Y-17122190D01*
X10309286Y-17122190D02*
X10328333Y-17131714D01*
X10328333Y-17131714D02*
X10337857Y-17150762D01*
X10337857Y-17150762D02*
X10337857Y-17255524D01*
X10728333Y-17046000D02*
X10556905Y-17303143D01*
X10985476Y-17055524D02*
X11004524Y-17055524D01*
X11004524Y-17055524D02*
X11023572Y-17065048D01*
X11023572Y-17065048D02*
X11033095Y-17074571D01*
X11033095Y-17074571D02*
X11042619Y-17093619D01*
X11042619Y-17093619D02*
X11052143Y-17131714D01*
X11052143Y-17131714D02*
X11052143Y-17179333D01*
X11052143Y-17179333D02*
X11042619Y-17217429D01*
X11042619Y-17217429D02*
X11033095Y-17236476D01*
X11033095Y-17236476D02*
X11023572Y-17246000D01*
X11023572Y-17246000D02*
X11004524Y-17255524D01*
X11004524Y-17255524D02*
X10985476Y-17255524D01*
X10985476Y-17255524D02*
X10966429Y-17246000D01*
X10966429Y-17246000D02*
X10956905Y-17236476D01*
X10956905Y-17236476D02*
X10947381Y-17217429D01*
X10947381Y-17217429D02*
X10937857Y-17179333D01*
X10937857Y-17179333D02*
X10937857Y-17131714D01*
X10937857Y-17131714D02*
X10947381Y-17093619D01*
X10947381Y-17093619D02*
X10956905Y-17074571D01*
X10956905Y-17074571D02*
X10966429Y-17065048D01*
X10966429Y-17065048D02*
X10985476Y-17055524D01*
X11137857Y-17236476D02*
X11147381Y-17246000D01*
X11147381Y-17246000D02*
X11137857Y-17255524D01*
X11137857Y-17255524D02*
X11128334Y-17246000D01*
X11128334Y-17246000D02*
X11137857Y-17236476D01*
X11137857Y-17236476D02*
X11137857Y-17255524D01*
X11337857Y-17255524D02*
X11223572Y-17255524D01*
X11280714Y-17255524D02*
X11280714Y-17055524D01*
X11280714Y-17055524D02*
X11261667Y-17084095D01*
X11261667Y-17084095D02*
X11242619Y-17103143D01*
X11242619Y-17103143D02*
X11223572Y-17112667D01*
X11461667Y-17055524D02*
X11480714Y-17055524D01*
X11480714Y-17055524D02*
X11499762Y-17065048D01*
X11499762Y-17065048D02*
X11509286Y-17074571D01*
X11509286Y-17074571D02*
X11518810Y-17093619D01*
X11518810Y-17093619D02*
X11528333Y-17131714D01*
X11528333Y-17131714D02*
X11528333Y-17179333D01*
X11528333Y-17179333D02*
X11518810Y-17217429D01*
X11518810Y-17217429D02*
X11509286Y-17236476D01*
X11509286Y-17236476D02*
X11499762Y-17246000D01*
X11499762Y-17246000D02*
X11480714Y-17255524D01*
X11480714Y-17255524D02*
X11461667Y-17255524D01*
X11461667Y-17255524D02*
X11442619Y-17246000D01*
X11442619Y-17246000D02*
X11433095Y-17236476D01*
X11433095Y-17236476D02*
X11423572Y-17217429D01*
X11423572Y-17217429D02*
X11414048Y-17179333D01*
X11414048Y-17179333D02*
X11414048Y-17131714D01*
X11414048Y-17131714D02*
X11423572Y-17093619D01*
X11423572Y-17093619D02*
X11433095Y-17074571D01*
X11433095Y-17074571D02*
X11442619Y-17065048D01*
X11442619Y-17065048D02*
X11461667Y-17055524D01*
X11699762Y-17055524D02*
X11661667Y-17055524D01*
X11661667Y-17055524D02*
X11642619Y-17065048D01*
X11642619Y-17065048D02*
X11633095Y-17074571D01*
X11633095Y-17074571D02*
X11614048Y-17103143D01*
X11614048Y-17103143D02*
X11604524Y-17141238D01*
X11604524Y-17141238D02*
X11604524Y-17217429D01*
X11604524Y-17217429D02*
X11614048Y-17236476D01*
X11614048Y-17236476D02*
X11623572Y-17246000D01*
X11623572Y-17246000D02*
X11642619Y-17255524D01*
X11642619Y-17255524D02*
X11680714Y-17255524D01*
X11680714Y-17255524D02*
X11699762Y-17246000D01*
X11699762Y-17246000D02*
X11709286Y-17236476D01*
X11709286Y-17236476D02*
X11718810Y-17217429D01*
X11718810Y-17217429D02*
X11718810Y-17169810D01*
X11718810Y-17169810D02*
X11709286Y-17150762D01*
X11709286Y-17150762D02*
X11699762Y-17141238D01*
X11699762Y-17141238D02*
X11680714Y-17131714D01*
X11680714Y-17131714D02*
X11642619Y-17131714D01*
X11642619Y-17131714D02*
X11623572Y-17141238D01*
X11623572Y-17141238D02*
X11614048Y-17150762D01*
X11614048Y-17150762D02*
X11604524Y-17169810D01*
X11785476Y-17055524D02*
X11909286Y-17055524D01*
X11909286Y-17055524D02*
X11842619Y-17131714D01*
X11842619Y-17131714D02*
X11871191Y-17131714D01*
X11871191Y-17131714D02*
X11890238Y-17141238D01*
X11890238Y-17141238D02*
X11899762Y-17150762D01*
X11899762Y-17150762D02*
X11909286Y-17169810D01*
X11909286Y-17169810D02*
X11909286Y-17217429D01*
X11909286Y-17217429D02*
X11899762Y-17236476D01*
X11899762Y-17236476D02*
X11890238Y-17246000D01*
X11890238Y-17246000D02*
X11871191Y-17255524D01*
X11871191Y-17255524D02*
X11814048Y-17255524D01*
X11814048Y-17255524D02*
X11795000Y-17246000D01*
X11795000Y-17246000D02*
X11785476Y-17236476D01*
X11985476Y-17055524D02*
X11985476Y-17093619D01*
X12061667Y-17055524D02*
X12061667Y-17093619D01*
X12356905Y-17331714D02*
X12347381Y-17322190D01*
X12347381Y-17322190D02*
X12328334Y-17293619D01*
X12328334Y-17293619D02*
X12318810Y-17274571D01*
X12318810Y-17274571D02*
X12309286Y-17246000D01*
X12309286Y-17246000D02*
X12299762Y-17198381D01*
X12299762Y-17198381D02*
X12299762Y-17160286D01*
X12299762Y-17160286D02*
X12309286Y-17112667D01*
X12309286Y-17112667D02*
X12318810Y-17084095D01*
X12318810Y-17084095D02*
X12328334Y-17065048D01*
X12328334Y-17065048D02*
X12347381Y-17036476D01*
X12347381Y-17036476D02*
X12356905Y-17026952D01*
X12423572Y-17074571D02*
X12433095Y-17065048D01*
X12433095Y-17065048D02*
X12452143Y-17055524D01*
X12452143Y-17055524D02*
X12499762Y-17055524D01*
X12499762Y-17055524D02*
X12518810Y-17065048D01*
X12518810Y-17065048D02*
X12528334Y-17074571D01*
X12528334Y-17074571D02*
X12537857Y-17093619D01*
X12537857Y-17093619D02*
X12537857Y-17112667D01*
X12537857Y-17112667D02*
X12528334Y-17141238D01*
X12528334Y-17141238D02*
X12414048Y-17255524D01*
X12414048Y-17255524D02*
X12537857Y-17255524D01*
X12775953Y-17255524D02*
X12775953Y-17055524D01*
X12861667Y-17255524D02*
X12861667Y-17150762D01*
X12861667Y-17150762D02*
X12852143Y-17131714D01*
X12852143Y-17131714D02*
X12833096Y-17122190D01*
X12833096Y-17122190D02*
X12804524Y-17122190D01*
X12804524Y-17122190D02*
X12785476Y-17131714D01*
X12785476Y-17131714D02*
X12775953Y-17141238D01*
X12985476Y-17255524D02*
X12966429Y-17246000D01*
X12966429Y-17246000D02*
X12956905Y-17236476D01*
X12956905Y-17236476D02*
X12947381Y-17217429D01*
X12947381Y-17217429D02*
X12947381Y-17160286D01*
X12947381Y-17160286D02*
X12956905Y-17141238D01*
X12956905Y-17141238D02*
X12966429Y-17131714D01*
X12966429Y-17131714D02*
X12985476Y-17122190D01*
X12985476Y-17122190D02*
X13014048Y-17122190D01*
X13014048Y-17122190D02*
X13033096Y-17131714D01*
X13033096Y-17131714D02*
X13042619Y-17141238D01*
X13042619Y-17141238D02*
X13052143Y-17160286D01*
X13052143Y-17160286D02*
X13052143Y-17217429D01*
X13052143Y-17217429D02*
X13042619Y-17236476D01*
X13042619Y-17236476D02*
X13033096Y-17246000D01*
X13033096Y-17246000D02*
X13014048Y-17255524D01*
X13014048Y-17255524D02*
X12985476Y-17255524D01*
X13166429Y-17255524D02*
X13147381Y-17246000D01*
X13147381Y-17246000D02*
X13137857Y-17226952D01*
X13137857Y-17226952D02*
X13137857Y-17055524D01*
X13318810Y-17246000D02*
X13299762Y-17255524D01*
X13299762Y-17255524D02*
X13261667Y-17255524D01*
X13261667Y-17255524D02*
X13242619Y-17246000D01*
X13242619Y-17246000D02*
X13233096Y-17226952D01*
X13233096Y-17226952D02*
X13233096Y-17150762D01*
X13233096Y-17150762D02*
X13242619Y-17131714D01*
X13242619Y-17131714D02*
X13261667Y-17122190D01*
X13261667Y-17122190D02*
X13299762Y-17122190D01*
X13299762Y-17122190D02*
X13318810Y-17131714D01*
X13318810Y-17131714D02*
X13328334Y-17150762D01*
X13328334Y-17150762D02*
X13328334Y-17169810D01*
X13328334Y-17169810D02*
X13233096Y-17188857D01*
X13404524Y-17246000D02*
X13423572Y-17255524D01*
X13423572Y-17255524D02*
X13461667Y-17255524D01*
X13461667Y-17255524D02*
X13480715Y-17246000D01*
X13480715Y-17246000D02*
X13490238Y-17226952D01*
X13490238Y-17226952D02*
X13490238Y-17217429D01*
X13490238Y-17217429D02*
X13480715Y-17198381D01*
X13480715Y-17198381D02*
X13461667Y-17188857D01*
X13461667Y-17188857D02*
X13433096Y-17188857D01*
X13433096Y-17188857D02*
X13414048Y-17179333D01*
X13414048Y-17179333D02*
X13404524Y-17160286D01*
X13404524Y-17160286D02*
X13404524Y-17150762D01*
X13404524Y-17150762D02*
X13414048Y-17131714D01*
X13414048Y-17131714D02*
X13433096Y-17122190D01*
X13433096Y-17122190D02*
X13461667Y-17122190D01*
X13461667Y-17122190D02*
X13480715Y-17131714D01*
X13556905Y-17331714D02*
X13566429Y-17322190D01*
X13566429Y-17322190D02*
X13585477Y-17293619D01*
X13585477Y-17293619D02*
X13595000Y-17274571D01*
X13595000Y-17274571D02*
X13604524Y-17246000D01*
X13604524Y-17246000D02*
X13614048Y-17198381D01*
X13614048Y-17198381D02*
X13614048Y-17160286D01*
X13614048Y-17160286D02*
X13604524Y-17112667D01*
X13604524Y-17112667D02*
X13595000Y-17084095D01*
X13595000Y-17084095D02*
X13585477Y-17065048D01*
X13585477Y-17065048D02*
X13566429Y-17036476D01*
X13566429Y-17036476D02*
X13556905Y-17026952D01*
M02*
