%TF.GenerationSoftware,KiCad,Pcbnew,7.0.1*%
%TF.CreationDate,2023-04-21T09:18:26-07:00*%
%TF.ProjectId,lipo_drainer_schematic,6c69706f-5f64-4726-9169-6e65725f7363,rev?*%
%TF.SameCoordinates,Original*%
%TF.FileFunction,Copper,L2,Bot*%
%TF.FilePolarity,Positive*%
%FSLAX46Y46*%
G04 Gerber Fmt 4.6, Leading zero omitted, Abs format (unit mm)*
G04 Created by KiCad (PCBNEW 7.0.1) date 2023-04-21 09:18:26*
%MOMM*%
%LPD*%
G01*
G04 APERTURE LIST*
G04 Aperture macros list*
%AMRoundRect*
0 Rectangle with rounded corners*
0 $1 Rounding radius*
0 $2 $3 $4 $5 $6 $7 $8 $9 X,Y pos of 4 corners*
0 Add a 4 corners polygon primitive as box body*
4,1,4,$2,$3,$4,$5,$6,$7,$8,$9,$2,$3,0*
0 Add four circle primitives for the rounded corners*
1,1,$1+$1,$2,$3*
1,1,$1+$1,$4,$5*
1,1,$1+$1,$6,$7*
1,1,$1+$1,$8,$9*
0 Add four rect primitives between the rounded corners*
20,1,$1+$1,$2,$3,$4,$5,0*
20,1,$1+$1,$4,$5,$6,$7,0*
20,1,$1+$1,$6,$7,$8,$9,0*
20,1,$1+$1,$8,$9,$2,$3,0*%
G04 Aperture macros list end*
%TA.AperFunction,ComponentPad*%
%ADD10R,1.700000X1.700000*%
%TD*%
%TA.AperFunction,ComponentPad*%
%ADD11O,1.700000X1.700000*%
%TD*%
%TA.AperFunction,ComponentPad*%
%ADD12R,3.200000X3.200000*%
%TD*%
%TA.AperFunction,ComponentPad*%
%ADD13O,3.200000X3.200000*%
%TD*%
%TA.AperFunction,ComponentPad*%
%ADD14R,1.905000X2.000000*%
%TD*%
%TA.AperFunction,ComponentPad*%
%ADD15O,1.905000X2.000000*%
%TD*%
%TA.AperFunction,ComponentPad*%
%ADD16R,2.000000X2.000000*%
%TD*%
%TA.AperFunction,ComponentPad*%
%ADD17O,2.000000X2.000000*%
%TD*%
%TA.AperFunction,ComponentPad*%
%ADD18RoundRect,0.875000X0.875000X-0.875000X0.875000X0.875000X-0.875000X0.875000X-0.875000X-0.875000X0*%
%TD*%
%TA.AperFunction,ComponentPad*%
%ADD19C,3.500000*%
%TD*%
%TA.AperFunction,ComponentPad*%
%ADD20R,1.050000X1.500000*%
%TD*%
%TA.AperFunction,ComponentPad*%
%ADD21O,1.050000X1.500000*%
%TD*%
%TA.AperFunction,ComponentPad*%
%ADD22R,2.000000X0.900000*%
%TD*%
%TA.AperFunction,ComponentPad*%
%ADD23RoundRect,1.025000X-1.025000X1.025000X-1.025000X-1.025000X1.025000X-1.025000X1.025000X1.025000X0*%
%TD*%
%TA.AperFunction,ComponentPad*%
%ADD24C,4.100000*%
%TD*%
%TA.AperFunction,ViaPad*%
%ADD25C,0.800000*%
%TD*%
%TA.AperFunction,ViaPad*%
%ADD26C,3.000000*%
%TD*%
%TA.AperFunction,ViaPad*%
%ADD27C,2.000000*%
%TD*%
%TA.AperFunction,Conductor*%
%ADD28C,1.000000*%
%TD*%
%TA.AperFunction,Conductor*%
%ADD29C,0.400000*%
%TD*%
%TA.AperFunction,Conductor*%
%ADD30C,7.000000*%
%TD*%
%TA.AperFunction,Conductor*%
%ADD31C,8.000000*%
%TD*%
G04 APERTURE END LIST*
D10*
%TO.P,J3,1,Pin_1*%
%TO.N,GND*%
X135500000Y-100250000D03*
D11*
%TO.P,J3,2,Pin_2*%
%TO.N,/VHIGH*%
X138040000Y-100250000D03*
%TD*%
D12*
%TO.P,D3,1,K*%
%TO.N,/BAT+*%
X194000000Y-103620000D03*
D13*
%TO.P,D3,2,A*%
%TO.N,GND*%
X194000000Y-88380000D03*
%TD*%
D14*
%TO.P,Q7,1,G*%
%TO.N,/FET-G*%
X103250000Y-65750000D03*
D15*
%TO.P,Q7,2,D*%
%TO.N,/FET-D*%
X105790000Y-65750000D03*
%TO.P,Q7,3,S*%
%TO.N,/FET-S*%
X108330000Y-65750000D03*
%TD*%
D16*
%TO.P,R23,1*%
%TO.N,GND*%
X148250000Y-65750000D03*
D17*
%TO.P,R23,2*%
%TO.N,/FET-D*%
X153330000Y-65750000D03*
%TD*%
D10*
%TO.P,J2,1,Pin_1*%
%TO.N,GND*%
X187450000Y-78225000D03*
D11*
%TO.P,J2,2,Pin_2*%
%TO.N,/FAN+*%
X189990000Y-78225000D03*
%TO.P,J2,3,Pin_3*%
%TO.N,unconnected-(J2-Pin_3-Pad3)*%
X192530000Y-78225000D03*
%TO.P,J2,4,Pin_4*%
%TO.N,/FAN*%
X195070000Y-78225000D03*
%TD*%
D10*
%TO.P,J5,1,Pin_1*%
%TO.N,GND*%
X124500000Y-80540000D03*
D11*
%TO.P,J5,2,Pin_2*%
%TO.N,/FET-G*%
X124500000Y-78000000D03*
%TD*%
D10*
%TO.P,J8,1,Pin_1*%
%TO.N,GND*%
X90460000Y-74250000D03*
D11*
%TO.P,J8,2,Pin_2*%
%TO.N,/FAN+*%
X93000000Y-74250000D03*
%TO.P,J8,3,Pin_3*%
%TO.N,unconnected-(J8-Pin_3-Pad3)*%
X95540000Y-74250000D03*
%TO.P,J8,4,Pin_4*%
%TO.N,/FAN*%
X98080000Y-74250000D03*
%TD*%
%TO.P,U2,1,GPIO0*%
%TO.N,unconnected-(U2-GPIO0-Pad1)*%
X90400000Y-125750000D03*
%TO.P,U2,2,GPIO1*%
%TO.N,unconnected-(U2-GPIO1-Pad2)*%
X92940000Y-125750000D03*
D10*
%TO.P,U2,3,GND*%
%TO.N,GND*%
X95480000Y-125750000D03*
D11*
%TO.P,U2,4,GPIO2*%
%TO.N,unconnected-(U2-GPIO2-Pad4)*%
X98020000Y-125750000D03*
%TO.P,U2,5,GPIO3*%
%TO.N,unconnected-(U2-GPIO3-Pad5)*%
X100560000Y-125750000D03*
%TO.P,U2,6,GPIO4*%
%TO.N,/SDA*%
X103100000Y-125750000D03*
%TO.P,U2,7,GPIO5*%
%TO.N,/SCL*%
X105640000Y-125750000D03*
D10*
%TO.P,U2,8,GND*%
%TO.N,GND*%
X108180000Y-125750000D03*
D11*
%TO.P,U2,9,GPIO6*%
%TO.N,unconnected-(U2-GPIO6-Pad9)*%
X110720000Y-125750000D03*
%TO.P,U2,10,GPIO7*%
%TO.N,/NEXT*%
X113260000Y-125750000D03*
%TO.P,U2,11,GPIO8*%
%TO.N,/OK*%
X115800000Y-125750000D03*
%TO.P,U2,12,GPIO9*%
%TO.N,unconnected-(U2-GPIO9-Pad12)*%
X118340000Y-125750000D03*
D10*
%TO.P,U2,13,GND*%
%TO.N,GND*%
X120880000Y-125750000D03*
D11*
%TO.P,U2,14,GPIO10*%
%TO.N,/FAN*%
X123420000Y-125750000D03*
%TO.P,U2,15,GPIO11*%
%TO.N,unconnected-(U2-GPIO11-Pad15)*%
X125960000Y-125750000D03*
%TO.P,U2,16,GPIO12*%
%TO.N,unconnected-(U2-GPIO12-Pad16)*%
X128500000Y-125750000D03*
%TO.P,U2,17,GPIO13*%
%TO.N,unconnected-(U2-GPIO13-Pad17)*%
X131040000Y-125750000D03*
D10*
%TO.P,U2,18,GND*%
%TO.N,GND*%
X133580000Y-125750000D03*
D11*
%TO.P,U2,19,GPIO14*%
%TO.N,unconnected-(U2-GPIO14-Pad19)*%
X136120000Y-125750000D03*
%TO.P,U2,20,GPIO15*%
%TO.N,unconnected-(U2-GPIO15-Pad20)*%
X138660000Y-125750000D03*
%TO.P,U2,21,GPIO16*%
%TO.N,/FAST*%
X138660000Y-107970000D03*
%TO.P,U2,22,GPIO17*%
%TO.N,/SLOW*%
X136120000Y-107970000D03*
D10*
%TO.P,U2,23,GND*%
%TO.N,GND*%
X133580000Y-107970000D03*
D11*
%TO.P,U2,24,GPIO18*%
%TO.N,unconnected-(U2-GPIO18-Pad24)*%
X131040000Y-107970000D03*
%TO.P,U2,25,GPIO19*%
%TO.N,unconnected-(U2-GPIO19-Pad25)*%
X128500000Y-107970000D03*
%TO.P,U2,26,GPIO20*%
%TO.N,unconnected-(U2-GPIO20-Pad26)*%
X125960000Y-107970000D03*
%TO.P,U2,27,GPIO21*%
%TO.N,/EN*%
X123420000Y-107970000D03*
D10*
%TO.P,U2,28,GND*%
%TO.N,GND*%
X120880000Y-107970000D03*
D11*
%TO.P,U2,29,GPIO22*%
%TO.N,unconnected-(U2-GPIO22-Pad29)*%
X118340000Y-107970000D03*
%TO.P,U2,30,RUN*%
%TO.N,Net-(U2-RUN)*%
X115800000Y-107970000D03*
%TO.P,U2,31,GPIO26_ADC0*%
%TO.N,/VOLT*%
X113260000Y-107970000D03*
%TO.P,U2,32,GPIO27_ADC1*%
%TO.N,/CUR*%
X110720000Y-107970000D03*
D10*
%TO.P,U2,33,AGND*%
%TO.N,GND*%
X108180000Y-107970000D03*
D11*
%TO.P,U2,34,GPIO28_ADC2*%
%TO.N,/TEMP*%
X105640000Y-107970000D03*
%TO.P,U2,35,ADC_VREF*%
%TO.N,/3V*%
X103100000Y-107970000D03*
%TO.P,U2,36,3V3*%
%TO.N,/3V3*%
X100560000Y-107970000D03*
%TO.P,U2,37,3V3_EN*%
%TO.N,unconnected-(U2-3V3_EN-Pad37)*%
X98020000Y-107970000D03*
D10*
%TO.P,U2,38,GND*%
%TO.N,GND*%
X95480000Y-107970000D03*
D11*
%TO.P,U2,39,VSYS*%
%TO.N,/VSYS*%
X92940000Y-107970000D03*
%TO.P,U2,40,VBUS*%
%TO.N,unconnected-(U2-VBUS-Pad40)*%
X90400000Y-107970000D03*
%TO.P,U2,41,SWCLK*%
%TO.N,unconnected-(U2-SWCLK-Pad41)*%
X138430000Y-119400000D03*
D10*
%TO.P,U2,42,GND*%
%TO.N,GND*%
X138430000Y-116860000D03*
D11*
%TO.P,U2,43,SWDIO*%
%TO.N,unconnected-(U2-SWDIO-Pad43)*%
X138430000Y-114320000D03*
%TD*%
D10*
%TO.P,J4,1,Pin_1*%
%TO.N,GND*%
X167880000Y-83250000D03*
D11*
%TO.P,J4,2,Pin_2*%
%TO.N,/3V3*%
X170420000Y-83250000D03*
%TO.P,J4,3,Pin_3*%
%TO.N,/SCL*%
X172960000Y-83250000D03*
%TO.P,J4,4,Pin_4*%
%TO.N,/SDA*%
X175500000Y-83250000D03*
%TD*%
D16*
%TO.P,R24,1*%
%TO.N,GND*%
X178250000Y-65750000D03*
D17*
%TO.P,R24,2*%
%TO.N,/FET-D*%
X183330000Y-65750000D03*
%TD*%
D18*
%TO.P,F1,1*%
%TO.N,/BAT+*%
X202500000Y-105750000D03*
X202500000Y-98130000D03*
D19*
%TO.P,F1,2*%
%TO.N,/FET-S*%
X202500000Y-79160000D03*
X202500000Y-71540000D03*
%TD*%
D20*
%TO.P,J7,1,+V_{S}*%
%TO.N,/3V3*%
X94270000Y-66000000D03*
D21*
%TO.P,J7,2,V_{OUT}*%
%TO.N,/TEMP*%
X93000000Y-66000000D03*
%TO.P,J7,3,GND*%
%TO.N,GND*%
X91730000Y-66000000D03*
%TD*%
D14*
%TO.P,Q11,1,G*%
%TO.N,/FET-G*%
X163250000Y-65750000D03*
D15*
%TO.P,Q11,2,D*%
%TO.N,/FET-D*%
X165790000Y-65750000D03*
%TO.P,Q11,3,S*%
%TO.N,/FET-S*%
X168330000Y-65750000D03*
%TD*%
D22*
%TO.P,J1,*%
%TO.N,*%
X199000000Y-113400000D03*
X199000000Y-126900000D03*
D23*
%TO.P,J1,1,Pin_1*%
%TO.N,GND*%
X193000000Y-116550000D03*
D24*
%TO.P,J1,2,Pin_2*%
%TO.N,/BAT+*%
X193000000Y-123750000D03*
%TD*%
D16*
%TO.P,R22,1*%
%TO.N,GND*%
X118250000Y-65750000D03*
D17*
%TO.P,R22,2*%
%TO.N,/FET-D*%
X123330000Y-65750000D03*
%TD*%
D14*
%TO.P,Q8,1,G*%
%TO.N,/FET-G*%
X133250000Y-65750000D03*
D15*
%TO.P,Q8,2,D*%
%TO.N,/FET-D*%
X135790000Y-65750000D03*
%TO.P,Q8,3,S*%
%TO.N,/FET-S*%
X138330000Y-65750000D03*
%TD*%
D14*
%TO.P,Q10,1,G*%
%TO.N,/FET-G*%
X193250000Y-65750000D03*
D15*
%TO.P,Q10,2,D*%
%TO.N,/FET-D*%
X195790000Y-65750000D03*
%TO.P,Q10,3,S*%
%TO.N,/FET-S*%
X198330000Y-65750000D03*
%TD*%
D10*
%TO.P,J6,1,Pin_1*%
%TO.N,GND*%
X91650000Y-79500000D03*
D11*
%TO.P,J6,2,Pin_2*%
%TO.N,/FET-D*%
X91650000Y-82040000D03*
%TD*%
D25*
%TO.N,/FET-G*%
X130000000Y-78000000D03*
%TO.N,/3V3*%
X119750000Y-95600000D03*
D26*
%TO.N,/BAT+*%
X200000000Y-102400000D03*
X199000000Y-122400000D03*
X204200000Y-112600000D03*
X202800000Y-118400000D03*
D25*
X109000000Y-90500000D03*
X111500000Y-86250000D03*
%TO.N,/ON*%
X91250000Y-103250000D03*
X100750000Y-96250000D03*
%TO.N,/EN*%
X120000000Y-104500000D03*
X109750000Y-98250000D03*
D26*
%TO.N,GND*%
X158800000Y-89000000D03*
X184200000Y-98200000D03*
X108561980Y-52734770D03*
D27*
X128500000Y-65750000D03*
X173500000Y-65750000D03*
D26*
X148561980Y-52734770D03*
D27*
X97250000Y-87500000D03*
D26*
X118561980Y-52734770D03*
D27*
X188250000Y-65750000D03*
X91000000Y-98750000D03*
X158250000Y-65750000D03*
D26*
X100500000Y-54500000D03*
X188561980Y-52734770D03*
D25*
X129000000Y-99000000D03*
D26*
X182000000Y-86200000D03*
X143200000Y-105600000D03*
X168561980Y-52734770D03*
X128561980Y-52734770D03*
X169600000Y-95400000D03*
X186800000Y-111000000D03*
D25*
X124000000Y-92000000D03*
D26*
X161800000Y-102800000D03*
D27*
X143250000Y-65750000D03*
D26*
X170250000Y-135250000D03*
D27*
X113250000Y-65750000D03*
D26*
X153250000Y-135250000D03*
X149600000Y-107200000D03*
X185600000Y-135400000D03*
D25*
X205000000Y-61500000D03*
D26*
X158561980Y-52734770D03*
X147600000Y-117000000D03*
X178561980Y-52734770D03*
X139250000Y-134250000D03*
D27*
X124500000Y-101250000D03*
D26*
X138561980Y-52734770D03*
X128000000Y-132000000D03*
D25*
X99500000Y-100500000D03*
%TO.N,/CUR*%
X106500000Y-87250000D03*
%TO.N,/FET-S*%
X136250000Y-77750000D03*
X138250000Y-71250000D03*
D26*
X202200000Y-75400000D03*
D25*
%TO.N,/FAN+*%
X143000000Y-81200000D03*
%TO.N,Net-(U2-RUN)*%
X117000000Y-103750000D03*
X120750000Y-93000000D03*
%TO.N,/OFF*%
X133250000Y-124000000D03*
X99250000Y-102750000D03*
%TD*%
D28*
%TO.N,/FET-G*%
X191550000Y-67450000D02*
X193250000Y-65750000D01*
X103250000Y-65750000D02*
X104950000Y-67450000D01*
X163250000Y-65750000D02*
X163250000Y-67200000D01*
D29*
X124500000Y-78000000D02*
X124500000Y-67450000D01*
D28*
X124500000Y-67450000D02*
X133000000Y-67450000D01*
X104950000Y-67450000D02*
X124500000Y-67450000D01*
X163250000Y-67200000D02*
X163500000Y-67450000D01*
X133250000Y-67200000D02*
X133000000Y-67450000D01*
X163500000Y-67450000D02*
X191550000Y-67450000D01*
D29*
X124500000Y-78000000D02*
X130000000Y-78000000D01*
D28*
X133250000Y-65750000D02*
X133250000Y-67200000D01*
X133000000Y-67450000D02*
X163500000Y-67450000D01*
D29*
%TO.N,/3V3*%
X105040000Y-75308528D02*
X95731472Y-66000000D01*
X95731472Y-66000000D02*
X94270000Y-66000000D01*
D28*
X170420000Y-84452081D02*
X170420000Y-83250000D01*
D29*
X105040000Y-103490000D02*
X105040000Y-75308528D01*
X100560000Y-107970000D02*
X105040000Y-103490000D01*
D28*
X159272081Y-95600000D02*
X170420000Y-84452081D01*
X119750000Y-95600000D02*
X159272081Y-95600000D01*
D30*
%TO.N,/BAT+*%
X199000000Y-122200000D02*
X202800000Y-118400000D01*
X200000000Y-102400000D02*
X200000000Y-100630000D01*
X194850000Y-122400000D02*
X199000000Y-122400000D01*
X202800000Y-118400000D02*
X204200000Y-117000000D01*
X204200000Y-106600000D02*
X200000000Y-102400000D01*
X204200000Y-112600000D02*
X204200000Y-106600000D01*
X204200000Y-117000000D02*
X204200000Y-112600000D01*
X199000000Y-122400000D02*
X199000000Y-122200000D01*
D29*
X111500000Y-88000000D02*
X111500000Y-86250000D01*
X109000000Y-90500000D02*
X111500000Y-88000000D01*
D30*
X193500000Y-123750000D02*
X194850000Y-122400000D01*
X200000000Y-100630000D02*
X202500000Y-98130000D01*
D29*
%TO.N,/FAN*%
X146295000Y-127000000D02*
X195070000Y-78225000D01*
X112782233Y-124500000D02*
X122170000Y-124500000D01*
X96770000Y-108487767D02*
X112782233Y-124500000D01*
X104440000Y-97091371D02*
X99581371Y-101950000D01*
X122170000Y-124500000D02*
X123420000Y-125750000D01*
X99581371Y-101950000D02*
X98918629Y-101950000D01*
X124670000Y-127000000D02*
X146295000Y-127000000D01*
X98080000Y-74250000D02*
X104440000Y-80610000D01*
X96770000Y-104098629D02*
X96770000Y-108487767D01*
X104440000Y-80610000D02*
X104440000Y-97091371D01*
X123420000Y-125750000D02*
X124670000Y-127000000D01*
X98918629Y-101950000D02*
X96770000Y-104098629D01*
%TO.N,/ON*%
X100750000Y-96250000D02*
X98250000Y-96250000D01*
X98250000Y-96250000D02*
X91250000Y-103250000D01*
%TO.N,/EN*%
X120000000Y-104500000D02*
X119950000Y-104550000D01*
X119950000Y-104550000D02*
X116050000Y-104550000D01*
X116050000Y-104550000D02*
X109750000Y-98250000D01*
D28*
%TO.N,GND*%
X101597500Y-64050000D02*
X101597500Y-67097500D01*
X116550000Y-64050000D02*
X101597500Y-64050000D01*
D29*
X138430000Y-116860000D02*
X133580000Y-112010000D01*
D28*
X115040000Y-80540000D02*
X124500000Y-80540000D01*
X191700000Y-114750000D02*
X193500000Y-116550000D01*
X178250000Y-65750000D02*
X179950000Y-64050000D01*
X176550000Y-64050000D02*
X178250000Y-65750000D01*
X194000000Y-88380000D02*
X191700000Y-90680000D01*
X118250000Y-65750000D02*
X119950000Y-64050000D01*
X119950000Y-64050000D02*
X148250000Y-64050000D01*
X191700000Y-90680000D02*
X191700000Y-114750000D01*
X148250000Y-64050000D02*
X176550000Y-64050000D01*
X101597500Y-67097500D02*
X115040000Y-80540000D01*
X118250000Y-65750000D02*
X116550000Y-64050000D01*
D29*
X133580000Y-112010000D02*
X133580000Y-107970000D01*
D28*
X148250000Y-65750000D02*
X148250000Y-64050000D01*
D29*
X95480000Y-107970000D02*
X95480000Y-125750000D01*
D28*
X179950000Y-64050000D02*
X199300000Y-64050000D01*
D29*
%TO.N,/CUR*%
X110720000Y-107970000D02*
X106500000Y-103750000D01*
X106500000Y-103750000D02*
X106500000Y-87250000D01*
D31*
%TO.N,/FET-S*%
X202500000Y-71540000D02*
X202500000Y-75100000D01*
X202200000Y-75400000D02*
X202200000Y-78860000D01*
D28*
X136250000Y-73250000D02*
X138250000Y-71250000D01*
D31*
X202200000Y-78860000D02*
X202500000Y-79160000D01*
X202500000Y-75100000D02*
X202200000Y-75400000D01*
D28*
X136250000Y-77750000D02*
X136250000Y-73250000D01*
%TO.N,/FAN+*%
X143000000Y-81200000D02*
X142110000Y-82090000D01*
X188217081Y-81200000D02*
X143000000Y-81200000D01*
X114290000Y-82090000D02*
X96150000Y-63950000D01*
X91650000Y-63950000D02*
X90505000Y-65095000D01*
X189990000Y-79427081D02*
X188217081Y-81200000D01*
X90505000Y-70705000D02*
X93000000Y-73200000D01*
X189990000Y-78225000D02*
X189990000Y-79427081D01*
X93000000Y-73200000D02*
X93000000Y-74250000D01*
X142110000Y-82090000D02*
X114290000Y-82090000D01*
X90505000Y-65095000D02*
X90505000Y-70705000D01*
X96150000Y-63950000D02*
X91650000Y-63950000D01*
D29*
%TO.N,Net-(U2-RUN)*%
X117000000Y-96750000D02*
X120750000Y-93000000D01*
X117000000Y-103750000D02*
X117000000Y-96750000D01*
%TO.N,/OFF*%
X99250000Y-102750000D02*
X99270000Y-102770000D01*
X99270000Y-102770000D02*
X99270000Y-108447767D01*
X133250000Y-122750000D02*
X129500000Y-119000000D01*
X99270000Y-108447767D02*
X109822233Y-119000000D01*
X109822233Y-119000000D02*
X129500000Y-119000000D01*
X133250000Y-124000000D02*
X133250000Y-122750000D01*
%TO.N,/TEMP*%
X93345000Y-64850000D02*
X95430000Y-64850000D01*
X95430000Y-64850000D02*
X105640000Y-75060000D01*
X105640000Y-75060000D02*
X105640000Y-107970000D01*
X93000000Y-65195000D02*
X93345000Y-64850000D01*
X93000000Y-66000000D02*
X93000000Y-65195000D01*
%TD*%
%TA.AperFunction,Conductor*%
%TO.N,GND*%
G36*
X106502818Y-75736851D02*
G01*
X106552181Y-75767101D01*
X113572431Y-82787351D01*
X113574624Y-82789600D01*
X113634942Y-82853054D01*
X113683362Y-82886755D01*
X113690871Y-82892416D01*
X113736593Y-82929698D01*
X113763562Y-82943785D01*
X113776982Y-82951916D01*
X113801949Y-82969294D01*
X113801950Y-82969294D01*
X113801951Y-82969295D01*
X113830105Y-82981377D01*
X113856163Y-82992559D01*
X113864663Y-82996595D01*
X113898286Y-83014159D01*
X113916951Y-83023909D01*
X113946196Y-83032277D01*
X113960986Y-83037543D01*
X113968464Y-83040752D01*
X113988942Y-83049540D01*
X114046737Y-83061416D01*
X114055854Y-83063654D01*
X114112582Y-83079887D01*
X114142916Y-83082196D01*
X114158453Y-83084374D01*
X114188259Y-83090500D01*
X114247242Y-83090500D01*
X114256656Y-83090858D01*
X114315476Y-83095337D01*
X114345651Y-83091493D01*
X114361317Y-83090500D01*
X142095721Y-83090500D01*
X142098862Y-83090539D01*
X142186363Y-83092757D01*
X142244432Y-83082348D01*
X142253736Y-83081043D01*
X142312438Y-83075074D01*
X142341467Y-83065965D01*
X142356700Y-83062226D01*
X142386653Y-83056858D01*
X142441426Y-83034978D01*
X142450301Y-83031819D01*
X142467675Y-83026367D01*
X142506588Y-83014159D01*
X142533194Y-82999390D01*
X142547362Y-82992662D01*
X142575617Y-82981377D01*
X142624879Y-82948909D01*
X142632910Y-82944043D01*
X142684502Y-82915409D01*
X142707587Y-82895589D01*
X142720114Y-82886144D01*
X142745519Y-82869402D01*
X142787256Y-82827662D01*
X142794126Y-82821297D01*
X142838895Y-82782866D01*
X142857524Y-82758798D01*
X142867884Y-82747035D01*
X143378101Y-82236819D01*
X143418329Y-82209939D01*
X143465782Y-82200500D01*
X166408260Y-82200500D01*
X166474053Y-82219394D01*
X166519796Y-82270317D01*
X166531550Y-82337752D01*
X166530000Y-82352172D01*
X166530000Y-83000000D01*
X168006000Y-83000000D01*
X168068000Y-83016613D01*
X168113387Y-83062000D01*
X168130000Y-83124000D01*
X168130000Y-84600000D01*
X168557797Y-84600000D01*
X168614092Y-84613515D01*
X168658115Y-84651115D01*
X168680270Y-84704602D01*
X168675728Y-84762318D01*
X168645478Y-84811681D01*
X158893980Y-94563181D01*
X158853752Y-94590061D01*
X158806299Y-94599500D01*
X120440519Y-94599500D01*
X120384224Y-94585985D01*
X120340201Y-94548385D01*
X120318046Y-94494898D01*
X120322588Y-94437182D01*
X120352838Y-94387819D01*
X120578534Y-94162123D01*
X120812975Y-93927681D01*
X120841486Y-93906391D01*
X120874872Y-93894075D01*
X121029803Y-93861144D01*
X121202730Y-93784151D01*
X121355871Y-93672888D01*
X121482533Y-93532216D01*
X121577179Y-93368284D01*
X121635674Y-93188256D01*
X121655460Y-93000000D01*
X121635674Y-92811744D01*
X121577179Y-92631716D01*
X121577179Y-92631715D01*
X121482533Y-92467783D01*
X121355870Y-92327110D01*
X121202730Y-92215848D01*
X121029802Y-92138855D01*
X120844648Y-92099500D01*
X120844646Y-92099500D01*
X120655354Y-92099500D01*
X120655352Y-92099500D01*
X120470197Y-92138855D01*
X120297269Y-92215848D01*
X120144129Y-92327110D01*
X120017466Y-92467783D01*
X119922820Y-92631715D01*
X119864325Y-92811746D01*
X119859134Y-92861129D01*
X119847734Y-92901550D01*
X119823495Y-92935846D01*
X116522290Y-96237051D01*
X116516838Y-96242183D01*
X116471816Y-96282070D01*
X116437649Y-96331568D01*
X116433213Y-96337597D01*
X116396121Y-96384942D01*
X116391961Y-96394186D01*
X116380941Y-96413725D01*
X116375182Y-96422069D01*
X116353853Y-96478305D01*
X116350989Y-96485219D01*
X116326303Y-96540070D01*
X116324475Y-96550047D01*
X116318454Y-96571648D01*
X116314859Y-96581128D01*
X116307609Y-96640827D01*
X116306483Y-96648226D01*
X116295641Y-96707391D01*
X116299274Y-96767434D01*
X116299500Y-96774921D01*
X116299500Y-103134608D01*
X116291264Y-103179045D01*
X116267650Y-103217580D01*
X116267466Y-103217783D01*
X116172820Y-103381715D01*
X116161669Y-103416037D01*
X116127909Y-103468775D01*
X116072685Y-103498293D01*
X116010079Y-103497063D01*
X115956057Y-103465400D01*
X110676503Y-98185846D01*
X110652263Y-98151548D01*
X110640864Y-98111130D01*
X110635674Y-98061744D01*
X110577179Y-97881716D01*
X110577179Y-97881715D01*
X110482533Y-97717783D01*
X110355870Y-97577110D01*
X110202730Y-97465848D01*
X110029802Y-97388855D01*
X109844648Y-97349500D01*
X109844646Y-97349500D01*
X109655354Y-97349500D01*
X109655352Y-97349500D01*
X109470197Y-97388855D01*
X109297269Y-97465848D01*
X109144129Y-97577110D01*
X109017466Y-97717783D01*
X108922820Y-97881715D01*
X108864326Y-98061742D01*
X108844540Y-98249999D01*
X108864326Y-98438257D01*
X108922820Y-98618284D01*
X109017466Y-98782216D01*
X109144129Y-98922889D01*
X109297269Y-99034151D01*
X109470197Y-99111144D01*
X109625126Y-99144075D01*
X109658513Y-99156391D01*
X109687027Y-99177684D01*
X115537058Y-105027715D01*
X115542178Y-105033153D01*
X115582071Y-105078183D01*
X115582072Y-105078184D01*
X115631569Y-105112349D01*
X115637602Y-105116788D01*
X115684943Y-105153877D01*
X115694174Y-105158031D01*
X115713726Y-105169058D01*
X115722070Y-105174818D01*
X115778322Y-105196151D01*
X115785228Y-105199012D01*
X115840068Y-105223694D01*
X115850030Y-105225519D01*
X115871650Y-105231546D01*
X115881125Y-105235139D01*
X115881128Y-105235140D01*
X115940856Y-105242392D01*
X115948201Y-105243509D01*
X116007394Y-105254357D01*
X116067421Y-105250726D01*
X116074909Y-105250500D01*
X119460663Y-105250500D01*
X119498982Y-105256569D01*
X119533550Y-105274183D01*
X119547271Y-105284152D01*
X119720197Y-105361144D01*
X119905352Y-105400500D01*
X119905354Y-105400500D01*
X120094646Y-105400500D01*
X120094648Y-105400500D01*
X120218083Y-105374262D01*
X120279803Y-105361144D01*
X120452730Y-105284151D01*
X120493738Y-105254357D01*
X120605870Y-105172889D01*
X120622990Y-105153876D01*
X120732533Y-105032216D01*
X120827179Y-104868284D01*
X120885674Y-104688256D01*
X120905460Y-104500000D01*
X120885674Y-104311744D01*
X120849732Y-104201127D01*
X120827179Y-104131715D01*
X120732533Y-103967783D01*
X120605870Y-103827110D01*
X120452730Y-103715848D01*
X120279802Y-103638855D01*
X120094648Y-103599500D01*
X120094646Y-103599500D01*
X119905354Y-103599500D01*
X119905352Y-103599500D01*
X119720197Y-103638855D01*
X119547272Y-103715847D01*
X119522876Y-103733572D01*
X119395907Y-103825819D01*
X119361343Y-103843431D01*
X119323025Y-103849500D01*
X118027568Y-103849500D01*
X117969354Y-103834985D01*
X117924767Y-103794840D01*
X117904247Y-103738461D01*
X117903733Y-103733571D01*
X117885674Y-103561744D01*
X117851294Y-103455934D01*
X117827179Y-103381715D01*
X117732533Y-103217783D01*
X117732350Y-103217580D01*
X117708736Y-103179045D01*
X117700500Y-103134608D01*
X117700500Y-100500000D01*
X134150000Y-100500000D01*
X134150000Y-101147824D01*
X134156402Y-101207375D01*
X134206647Y-101342089D01*
X134292811Y-101457188D01*
X134407910Y-101543352D01*
X134542624Y-101593597D01*
X134602176Y-101600000D01*
X135250000Y-101600000D01*
X135750000Y-101600000D01*
X136397824Y-101600000D01*
X136457375Y-101593597D01*
X136592089Y-101543352D01*
X136707188Y-101457188D01*
X136793352Y-101342089D01*
X136842422Y-101210528D01*
X136877401Y-101160149D01*
X136932246Y-101132696D01*
X136993539Y-101134885D01*
X137046285Y-101166181D01*
X137168599Y-101288495D01*
X137362170Y-101424035D01*
X137576337Y-101523903D01*
X137804592Y-101585063D01*
X138040000Y-101605659D01*
X138275408Y-101585063D01*
X138503663Y-101523903D01*
X138717830Y-101424035D01*
X138911401Y-101288495D01*
X139078495Y-101121401D01*
X139214035Y-100927830D01*
X139313903Y-100713663D01*
X139375063Y-100485408D01*
X139395659Y-100250000D01*
X139375063Y-100014592D01*
X139313903Y-99786337D01*
X139214035Y-99572171D01*
X139078495Y-99378599D01*
X138911401Y-99211505D01*
X138717830Y-99075965D01*
X138503663Y-98976097D01*
X138431074Y-98956647D01*
X138275407Y-98914936D01*
X138040000Y-98894340D01*
X137804592Y-98914936D01*
X137576336Y-98976097D01*
X137362170Y-99075965D01*
X137168601Y-99211503D01*
X137046285Y-99333819D01*
X136993539Y-99365114D01*
X136932246Y-99367303D01*
X136877401Y-99339850D01*
X136842422Y-99289471D01*
X136793352Y-99157911D01*
X136707188Y-99042811D01*
X136592089Y-98956647D01*
X136457375Y-98906402D01*
X136397824Y-98900000D01*
X135750000Y-98900000D01*
X135750000Y-101600000D01*
X135250000Y-101600000D01*
X135250000Y-100500000D01*
X134150000Y-100500000D01*
X117700500Y-100500000D01*
X117700500Y-100000000D01*
X134150000Y-100000000D01*
X135250000Y-100000000D01*
X135250000Y-98900000D01*
X134602176Y-98900000D01*
X134542624Y-98906402D01*
X134407910Y-98956647D01*
X134292811Y-99042811D01*
X134206647Y-99157910D01*
X134156402Y-99292624D01*
X134150000Y-99352176D01*
X134150000Y-100000000D01*
X117700500Y-100000000D01*
X117700500Y-97091519D01*
X117709939Y-97044066D01*
X117736819Y-97003838D01*
X117969488Y-96771169D01*
X118679413Y-96061242D01*
X118726243Y-96031846D01*
X118781199Y-96025730D01*
X118833349Y-96044111D01*
X118872324Y-96083334D01*
X118954745Y-96215568D01*
X118954748Y-96215571D01*
X119094941Y-96363053D01*
X119261951Y-96479295D01*
X119448942Y-96559540D01*
X119648259Y-96600500D01*
X159257802Y-96600500D01*
X159260943Y-96600539D01*
X159348444Y-96602757D01*
X159406513Y-96592348D01*
X159415817Y-96591043D01*
X159474519Y-96585074D01*
X159503548Y-96575965D01*
X159518781Y-96572226D01*
X159548734Y-96566858D01*
X159603507Y-96544978D01*
X159612382Y-96541819D01*
X159629756Y-96536367D01*
X159668669Y-96524159D01*
X159695275Y-96509390D01*
X159709443Y-96502662D01*
X159737698Y-96491377D01*
X159786960Y-96458909D01*
X159794991Y-96454043D01*
X159846583Y-96425409D01*
X159869668Y-96405589D01*
X159882195Y-96396144D01*
X159907600Y-96379402D01*
X159949332Y-96337668D01*
X159956204Y-96331300D01*
X160000976Y-96292866D01*
X160019605Y-96268798D01*
X160029964Y-96257036D01*
X171117389Y-85169610D01*
X171119559Y-85167494D01*
X171183053Y-85107140D01*
X171216759Y-85058711D01*
X171222428Y-85051194D01*
X171259698Y-85005488D01*
X171273783Y-84978520D01*
X171281918Y-84965096D01*
X171288373Y-84955821D01*
X171299295Y-84940130D01*
X171322568Y-84885896D01*
X171326588Y-84877431D01*
X171353909Y-84825130D01*
X171362275Y-84795889D01*
X171367539Y-84781100D01*
X171379540Y-84753139D01*
X171391417Y-84695337D01*
X171393652Y-84686229D01*
X171409886Y-84629499D01*
X171412196Y-84599159D01*
X171414376Y-84583621D01*
X171420500Y-84553823D01*
X171420500Y-84494837D01*
X171420858Y-84485422D01*
X171423008Y-84457188D01*
X171425337Y-84426605D01*
X171421494Y-84396429D01*
X171420500Y-84380764D01*
X171420500Y-84210758D01*
X171429939Y-84163305D01*
X171456819Y-84123077D01*
X171456819Y-84123076D01*
X171458495Y-84121401D01*
X171588426Y-83935839D01*
X171632743Y-83896975D01*
X171690000Y-83882964D01*
X171747257Y-83896975D01*
X171791573Y-83935839D01*
X171921505Y-84121401D01*
X172088599Y-84288495D01*
X172282170Y-84424035D01*
X172496337Y-84523903D01*
X172724592Y-84585063D01*
X172960000Y-84605659D01*
X173195408Y-84585063D01*
X173423663Y-84523903D01*
X173637830Y-84424035D01*
X173831401Y-84288495D01*
X173998495Y-84121401D01*
X174128426Y-83935839D01*
X174172743Y-83896975D01*
X174230000Y-83882964D01*
X174287257Y-83896975D01*
X174331573Y-83935839D01*
X174461505Y-84121401D01*
X174628599Y-84288495D01*
X174822170Y-84424035D01*
X175036337Y-84523903D01*
X175264592Y-84585063D01*
X175500000Y-84605659D01*
X175735408Y-84585063D01*
X175963663Y-84523903D01*
X176177830Y-84424035D01*
X176371401Y-84288495D01*
X176538495Y-84121401D01*
X176674035Y-83927830D01*
X176773903Y-83713663D01*
X176835063Y-83485408D01*
X176855659Y-83250000D01*
X176835063Y-83014592D01*
X176773903Y-82786337D01*
X176674035Y-82572171D01*
X176550414Y-82395622D01*
X176528255Y-82332610D01*
X176542001Y-82267243D01*
X176587662Y-82218491D01*
X176651990Y-82200500D01*
X188202802Y-82200500D01*
X188205943Y-82200539D01*
X188293444Y-82202757D01*
X188351513Y-82192348D01*
X188360817Y-82191043D01*
X188419519Y-82185074D01*
X188448548Y-82175965D01*
X188463781Y-82172226D01*
X188493734Y-82166858D01*
X188548507Y-82144978D01*
X188557382Y-82141819D01*
X188574756Y-82136367D01*
X188613669Y-82124159D01*
X188640275Y-82109390D01*
X188654443Y-82102662D01*
X188682698Y-82091377D01*
X188731960Y-82058909D01*
X188739991Y-82054043D01*
X188791583Y-82025409D01*
X188814668Y-82005589D01*
X188827195Y-81996144D01*
X188852600Y-81979402D01*
X188894332Y-81937668D01*
X188901204Y-81931300D01*
X188945976Y-81892866D01*
X188964605Y-81868798D01*
X188974964Y-81857036D01*
X190687390Y-80144609D01*
X190689560Y-80142493D01*
X190753053Y-80082140D01*
X190786759Y-80033711D01*
X190792428Y-80026194D01*
X190829698Y-79980488D01*
X190843783Y-79953520D01*
X190851918Y-79940096D01*
X190858373Y-79930821D01*
X190869295Y-79915130D01*
X190892568Y-79860896D01*
X190896588Y-79852431D01*
X190923909Y-79800130D01*
X190932275Y-79770889D01*
X190937539Y-79756100D01*
X190949540Y-79728139D01*
X190961417Y-79670337D01*
X190963652Y-79661229D01*
X190979886Y-79604499D01*
X190982196Y-79574159D01*
X190984376Y-79558621D01*
X190985006Y-79555558D01*
X190985291Y-79554165D01*
X190990500Y-79528823D01*
X190990500Y-79469837D01*
X190990858Y-79460422D01*
X190993008Y-79432188D01*
X190995337Y-79401605D01*
X190991494Y-79371429D01*
X190990500Y-79355764D01*
X190990500Y-79185758D01*
X190999939Y-79138305D01*
X191026819Y-79098077D01*
X191026818Y-79098077D01*
X191028495Y-79096401D01*
X191158426Y-78910839D01*
X191202743Y-78871975D01*
X191260000Y-78857964D01*
X191317257Y-78871975D01*
X191361573Y-78910839D01*
X191491505Y-79096401D01*
X191658599Y-79263495D01*
X191852170Y-79399035D01*
X192066337Y-79498903D01*
X192294592Y-79560063D01*
X192443196Y-79573064D01*
X192507874Y-79598216D01*
X192548910Y-79654181D01*
X192553449Y-79723430D01*
X192520069Y-79784273D01*
X146041162Y-126263181D01*
X146000934Y-126290061D01*
X145953481Y-126299500D01*
X140072503Y-126299500D01*
X140017659Y-126286712D01*
X139974127Y-126250986D01*
X139950886Y-126199691D01*
X139952728Y-126143407D01*
X139995063Y-125985407D01*
X140015659Y-125750000D01*
X139995063Y-125514592D01*
X139972029Y-125428627D01*
X139933903Y-125286337D01*
X139834035Y-125072171D01*
X139698495Y-124878599D01*
X139531401Y-124711505D01*
X139337830Y-124575965D01*
X139123663Y-124476097D01*
X139051074Y-124456647D01*
X138895407Y-124414936D01*
X138660000Y-124394340D01*
X138424592Y-124414936D01*
X138196336Y-124476097D01*
X137982170Y-124575965D01*
X137788598Y-124711505D01*
X137621505Y-124878598D01*
X137491575Y-125064159D01*
X137447257Y-125103025D01*
X137390000Y-125117036D01*
X137332743Y-125103025D01*
X137288425Y-125064159D01*
X137173830Y-124900500D01*
X137158495Y-124878599D01*
X136991401Y-124711505D01*
X136797830Y-124575965D01*
X136583663Y-124476097D01*
X136511074Y-124456647D01*
X136355407Y-124414936D01*
X136120000Y-124394340D01*
X135884592Y-124414936D01*
X135656336Y-124476097D01*
X135442170Y-124575965D01*
X135248601Y-124711503D01*
X135126285Y-124833819D01*
X135073539Y-124865114D01*
X135012246Y-124867303D01*
X134957401Y-124839850D01*
X134922422Y-124789471D01*
X134873352Y-124657911D01*
X134787188Y-124542811D01*
X134672089Y-124456647D01*
X134537375Y-124406402D01*
X134477824Y-124400000D01*
X134237545Y-124400000D01*
X134181250Y-124386485D01*
X134137227Y-124348885D01*
X134115072Y-124295398D01*
X134119614Y-124237682D01*
X134135674Y-124188256D01*
X134155460Y-124000000D01*
X134135674Y-123811744D01*
X134077179Y-123631716D01*
X134077179Y-123631715D01*
X133982533Y-123467783D01*
X133982350Y-123467580D01*
X133958736Y-123429045D01*
X133950500Y-123384608D01*
X133950500Y-122774921D01*
X133950726Y-122767434D01*
X133950927Y-122764102D01*
X133954358Y-122707394D01*
X133943507Y-122648185D01*
X133942390Y-122640841D01*
X133935140Y-122581128D01*
X133931547Y-122571656D01*
X133925522Y-122550044D01*
X133923695Y-122540069D01*
X133899007Y-122485217D01*
X133896147Y-122478313D01*
X133874818Y-122422070D01*
X133869061Y-122413730D01*
X133858035Y-122394181D01*
X133853877Y-122384941D01*
X133816785Y-122337597D01*
X133812355Y-122331577D01*
X133778183Y-122282071D01*
X133733153Y-122242178D01*
X133727715Y-122237058D01*
X130890657Y-119400000D01*
X137074340Y-119400000D01*
X137094936Y-119635407D01*
X137122238Y-119737298D01*
X137156097Y-119863663D01*
X137255965Y-120077830D01*
X137391505Y-120271401D01*
X137558599Y-120438495D01*
X137752170Y-120574035D01*
X137966337Y-120673903D01*
X138194592Y-120735063D01*
X138430000Y-120755659D01*
X138665408Y-120735063D01*
X138893663Y-120673903D01*
X139107830Y-120574035D01*
X139301401Y-120438495D01*
X139468495Y-120271401D01*
X139604035Y-120077830D01*
X139703903Y-119863663D01*
X139765063Y-119635408D01*
X139785659Y-119400000D01*
X139782824Y-119367602D01*
X139765063Y-119164592D01*
X139761293Y-119150521D01*
X139703903Y-118936337D01*
X139604035Y-118722171D01*
X139468495Y-118528599D01*
X139346181Y-118406285D01*
X139314885Y-118353539D01*
X139312696Y-118292246D01*
X139340149Y-118237401D01*
X139390528Y-118202422D01*
X139522089Y-118153352D01*
X139637188Y-118067188D01*
X139723352Y-117952089D01*
X139773597Y-117817375D01*
X139780000Y-117757824D01*
X139780000Y-117110000D01*
X137080000Y-117110000D01*
X137080000Y-117757824D01*
X137086402Y-117817375D01*
X137136647Y-117952089D01*
X137222811Y-118067188D01*
X137337911Y-118153352D01*
X137469471Y-118202422D01*
X137519850Y-118237401D01*
X137547303Y-118292246D01*
X137545114Y-118353539D01*
X137513819Y-118406285D01*
X137391503Y-118528601D01*
X137255965Y-118722170D01*
X137156097Y-118936336D01*
X137094936Y-119164592D01*
X137074340Y-119400000D01*
X130890657Y-119400000D01*
X130012940Y-118522283D01*
X130007822Y-118516847D01*
X129967929Y-118471817D01*
X129967736Y-118471684D01*
X129918436Y-118437654D01*
X129912405Y-118433216D01*
X129878029Y-118406285D01*
X129865057Y-118396122D01*
X129865055Y-118396121D01*
X129865054Y-118396120D01*
X129855813Y-118391961D01*
X129836273Y-118380941D01*
X129827930Y-118375182D01*
X129827927Y-118375181D01*
X129827926Y-118375180D01*
X129771701Y-118353856D01*
X129764783Y-118350991D01*
X129709929Y-118326303D01*
X129699952Y-118324475D01*
X129678339Y-118318450D01*
X129668873Y-118314860D01*
X129609172Y-118307610D01*
X129601771Y-118306483D01*
X129542607Y-118295641D01*
X129482566Y-118299274D01*
X129475079Y-118299500D01*
X110163752Y-118299500D01*
X110116299Y-118290061D01*
X110076071Y-118263181D01*
X106132889Y-114319999D01*
X137074340Y-114319999D01*
X137094936Y-114555407D01*
X137128792Y-114681759D01*
X137156097Y-114783663D01*
X137255965Y-114997830D01*
X137391505Y-115191401D01*
X137391508Y-115191403D01*
X137391508Y-115191404D01*
X137513818Y-115313714D01*
X137545114Y-115366460D01*
X137547303Y-115427753D01*
X137519850Y-115482597D01*
X137469472Y-115517576D01*
X137337913Y-115566646D01*
X137222811Y-115652811D01*
X137136647Y-115767910D01*
X137086402Y-115902624D01*
X137080000Y-115962176D01*
X137080000Y-116610000D01*
X139780000Y-116610000D01*
X139780000Y-115962176D01*
X139773597Y-115902624D01*
X139723352Y-115767910D01*
X139637188Y-115652811D01*
X139522088Y-115566647D01*
X139390528Y-115517577D01*
X139340149Y-115482597D01*
X139312696Y-115427752D01*
X139314885Y-115366460D01*
X139346178Y-115313717D01*
X139468495Y-115191401D01*
X139604035Y-114997830D01*
X139703903Y-114783663D01*
X139765063Y-114555408D01*
X139785659Y-114320000D01*
X139765063Y-114084592D01*
X139703903Y-113856337D01*
X139604035Y-113642171D01*
X139468495Y-113448599D01*
X139301401Y-113281505D01*
X139107830Y-113145965D01*
X138893663Y-113046097D01*
X138832502Y-113029709D01*
X138665407Y-112984936D01*
X138430000Y-112964340D01*
X138194592Y-112984936D01*
X137966336Y-113046097D01*
X137752170Y-113145965D01*
X137558598Y-113281505D01*
X137391505Y-113448598D01*
X137255965Y-113642170D01*
X137156097Y-113856336D01*
X137094936Y-114084592D01*
X137074340Y-114319999D01*
X106132889Y-114319999D01*
X101171478Y-109358588D01*
X101140898Y-109308194D01*
X101137043Y-109249374D01*
X101160784Y-109195420D01*
X101206752Y-109158526D01*
X101237830Y-109144035D01*
X101431401Y-109008495D01*
X101598495Y-108841401D01*
X101728428Y-108655837D01*
X101772742Y-108616975D01*
X101829999Y-108602964D01*
X101887255Y-108616974D01*
X101931573Y-108655839D01*
X102061505Y-108841401D01*
X102228599Y-109008495D01*
X102422170Y-109144035D01*
X102636337Y-109243903D01*
X102864592Y-109305063D01*
X103100000Y-109325659D01*
X103335408Y-109305063D01*
X103563663Y-109243903D01*
X103777830Y-109144035D01*
X103971401Y-109008495D01*
X104138495Y-108841401D01*
X104268428Y-108655837D01*
X104312742Y-108616975D01*
X104369999Y-108602964D01*
X104427255Y-108616974D01*
X104471573Y-108655839D01*
X104601505Y-108841401D01*
X104768599Y-109008495D01*
X104962170Y-109144035D01*
X105176337Y-109243903D01*
X105404592Y-109305063D01*
X105640000Y-109325659D01*
X105875408Y-109305063D01*
X106103663Y-109243903D01*
X106317830Y-109144035D01*
X106511401Y-109008495D01*
X106633717Y-108886178D01*
X106686460Y-108854885D01*
X106747752Y-108852696D01*
X106802597Y-108880149D01*
X106837577Y-108930528D01*
X106886647Y-109062088D01*
X106972811Y-109177188D01*
X107087910Y-109263352D01*
X107222624Y-109313597D01*
X107282176Y-109320000D01*
X107930000Y-109320000D01*
X107930000Y-107844000D01*
X107946613Y-107782000D01*
X107992000Y-107736613D01*
X108054000Y-107720000D01*
X108306000Y-107720000D01*
X108368000Y-107736613D01*
X108413387Y-107782000D01*
X108430000Y-107844000D01*
X108430000Y-109320000D01*
X109077824Y-109320000D01*
X109137375Y-109313597D01*
X109272089Y-109263352D01*
X109387188Y-109177188D01*
X109473352Y-109062089D01*
X109522422Y-108930528D01*
X109557401Y-108880149D01*
X109612246Y-108852696D01*
X109673539Y-108854885D01*
X109726284Y-108886180D01*
X109848599Y-109008495D01*
X110042170Y-109144035D01*
X110256337Y-109243903D01*
X110484592Y-109305063D01*
X110720000Y-109325659D01*
X110955408Y-109305063D01*
X111183663Y-109243903D01*
X111397830Y-109144035D01*
X111591401Y-109008495D01*
X111758495Y-108841401D01*
X111888428Y-108655837D01*
X111932742Y-108616975D01*
X111989999Y-108602964D01*
X112047255Y-108616974D01*
X112091573Y-108655839D01*
X112221505Y-108841401D01*
X112388599Y-109008495D01*
X112582170Y-109144035D01*
X112796337Y-109243903D01*
X113024592Y-109305063D01*
X113260000Y-109325659D01*
X113495408Y-109305063D01*
X113723663Y-109243903D01*
X113937830Y-109144035D01*
X114131401Y-109008495D01*
X114298495Y-108841401D01*
X114428428Y-108655837D01*
X114472742Y-108616975D01*
X114529999Y-108602964D01*
X114587255Y-108616974D01*
X114631573Y-108655839D01*
X114761505Y-108841401D01*
X114928599Y-109008495D01*
X115122170Y-109144035D01*
X115336337Y-109243903D01*
X115564592Y-109305063D01*
X115800000Y-109325659D01*
X116035408Y-109305063D01*
X116263663Y-109243903D01*
X116477830Y-109144035D01*
X116671401Y-109008495D01*
X116838495Y-108841401D01*
X116968428Y-108655837D01*
X117012742Y-108616975D01*
X117069999Y-108602964D01*
X117127255Y-108616974D01*
X117171573Y-108655839D01*
X117301505Y-108841401D01*
X117468599Y-109008495D01*
X117662170Y-109144035D01*
X117876337Y-109243903D01*
X118104592Y-109305063D01*
X118340000Y-109325659D01*
X118575408Y-109305063D01*
X118803663Y-109243903D01*
X119017830Y-109144035D01*
X119211401Y-109008495D01*
X119333717Y-108886178D01*
X119386460Y-108854885D01*
X119447752Y-108852696D01*
X119502597Y-108880149D01*
X119537577Y-108930528D01*
X119586647Y-109062088D01*
X119672811Y-109177188D01*
X119787910Y-109263352D01*
X119922624Y-109313597D01*
X119982176Y-109320000D01*
X120630000Y-109320000D01*
X121130000Y-109320000D01*
X121777824Y-109320000D01*
X121837375Y-109313597D01*
X121972089Y-109263352D01*
X122087188Y-109177188D01*
X122173352Y-109062089D01*
X122222422Y-108930528D01*
X122257401Y-108880149D01*
X122312246Y-108852696D01*
X122373539Y-108854885D01*
X122426284Y-108886180D01*
X122548599Y-109008495D01*
X122742170Y-109144035D01*
X122956337Y-109243903D01*
X123184592Y-109305063D01*
X123420000Y-109325659D01*
X123655408Y-109305063D01*
X123883663Y-109243903D01*
X124097830Y-109144035D01*
X124291401Y-109008495D01*
X124458495Y-108841401D01*
X124588428Y-108655837D01*
X124632742Y-108616975D01*
X124689999Y-108602964D01*
X124747255Y-108616974D01*
X124791573Y-108655839D01*
X124921505Y-108841401D01*
X125088599Y-109008495D01*
X125282170Y-109144035D01*
X125496337Y-109243903D01*
X125724592Y-109305063D01*
X125960000Y-109325659D01*
X126195408Y-109305063D01*
X126423663Y-109243903D01*
X126637830Y-109144035D01*
X126831401Y-109008495D01*
X126998495Y-108841401D01*
X127128428Y-108655837D01*
X127172742Y-108616975D01*
X127229999Y-108602964D01*
X127287255Y-108616974D01*
X127331573Y-108655839D01*
X127461505Y-108841401D01*
X127628599Y-109008495D01*
X127822170Y-109144035D01*
X128036337Y-109243903D01*
X128264592Y-109305063D01*
X128500000Y-109325659D01*
X128735408Y-109305063D01*
X128963663Y-109243903D01*
X129177830Y-109144035D01*
X129371401Y-109008495D01*
X129538495Y-108841401D01*
X129668428Y-108655837D01*
X129712742Y-108616975D01*
X129769999Y-108602964D01*
X129827255Y-108616974D01*
X129871573Y-108655839D01*
X130001505Y-108841401D01*
X130168599Y-109008495D01*
X130362170Y-109144035D01*
X130576337Y-109243903D01*
X130804592Y-109305063D01*
X131040000Y-109325659D01*
X131275408Y-109305063D01*
X131503663Y-109243903D01*
X131717830Y-109144035D01*
X131911401Y-109008495D01*
X132033717Y-108886178D01*
X132086460Y-108854885D01*
X132147752Y-108852696D01*
X132202597Y-108880149D01*
X132237577Y-108930528D01*
X132286647Y-109062088D01*
X132372811Y-109177188D01*
X132487910Y-109263352D01*
X132622624Y-109313597D01*
X132682176Y-109320000D01*
X133330000Y-109320000D01*
X133830000Y-109320000D01*
X134477824Y-109320000D01*
X134537375Y-109313597D01*
X134672089Y-109263352D01*
X134787188Y-109177188D01*
X134873352Y-109062089D01*
X134922422Y-108930528D01*
X134957401Y-108880149D01*
X135012246Y-108852696D01*
X135073539Y-108854885D01*
X135126285Y-108886180D01*
X135248599Y-109008495D01*
X135442170Y-109144035D01*
X135656337Y-109243903D01*
X135884592Y-109305063D01*
X136120000Y-109325659D01*
X136355408Y-109305063D01*
X136583663Y-109243903D01*
X136797830Y-109144035D01*
X136991401Y-109008495D01*
X137158495Y-108841401D01*
X137288426Y-108655839D01*
X137332743Y-108616975D01*
X137390000Y-108602964D01*
X137447257Y-108616975D01*
X137491573Y-108655839D01*
X137621505Y-108841401D01*
X137788599Y-109008495D01*
X137982170Y-109144035D01*
X138196337Y-109243903D01*
X138424592Y-109305063D01*
X138660000Y-109325659D01*
X138895408Y-109305063D01*
X139123663Y-109243903D01*
X139337830Y-109144035D01*
X139531401Y-109008495D01*
X139698495Y-108841401D01*
X139834035Y-108647830D01*
X139933903Y-108433663D01*
X139995063Y-108205408D01*
X140015659Y-107970000D01*
X139995063Y-107734592D01*
X139933903Y-107506337D01*
X139834035Y-107292171D01*
X139698495Y-107098599D01*
X139531401Y-106931505D01*
X139337830Y-106795965D01*
X139123663Y-106696097D01*
X139051074Y-106676647D01*
X138895407Y-106634936D01*
X138660000Y-106614340D01*
X138424592Y-106634936D01*
X138196336Y-106696097D01*
X137982170Y-106795965D01*
X137788598Y-106931505D01*
X137621505Y-107098598D01*
X137491575Y-107284159D01*
X137447257Y-107323025D01*
X137390000Y-107337036D01*
X137332743Y-107323025D01*
X137288425Y-107284159D01*
X137158494Y-107098598D01*
X136991404Y-106931508D01*
X136991401Y-106931505D01*
X136797830Y-106795965D01*
X136583663Y-106696097D01*
X136511074Y-106676647D01*
X136355407Y-106634936D01*
X136120000Y-106614340D01*
X135884592Y-106634936D01*
X135656336Y-106696097D01*
X135442170Y-106795965D01*
X135248601Y-106931503D01*
X135126285Y-107053819D01*
X135073539Y-107085114D01*
X135012246Y-107087303D01*
X134957401Y-107059850D01*
X134922422Y-107009471D01*
X134873352Y-106877911D01*
X134787188Y-106762811D01*
X134672089Y-106676647D01*
X134537375Y-106626402D01*
X134477824Y-106620000D01*
X133830000Y-106620000D01*
X133830000Y-109320000D01*
X133330000Y-109320000D01*
X133330000Y-106620000D01*
X132682176Y-106620000D01*
X132622624Y-106626402D01*
X132487910Y-106676647D01*
X132372811Y-106762811D01*
X132286646Y-106877913D01*
X132237576Y-107009472D01*
X132202597Y-107059850D01*
X132147753Y-107087303D01*
X132086460Y-107085114D01*
X132033714Y-107053818D01*
X131911404Y-106931508D01*
X131911401Y-106931505D01*
X131717830Y-106795965D01*
X131503663Y-106696097D01*
X131431074Y-106676647D01*
X131275407Y-106634936D01*
X131040000Y-106614340D01*
X130804592Y-106634936D01*
X130576336Y-106696097D01*
X130362170Y-106795965D01*
X130168598Y-106931505D01*
X130001505Y-107098598D01*
X129871575Y-107284159D01*
X129827257Y-107323025D01*
X129770000Y-107337036D01*
X129712743Y-107323025D01*
X129668425Y-107284159D01*
X129538494Y-107098598D01*
X129371404Y-106931508D01*
X129371401Y-106931505D01*
X129177830Y-106795965D01*
X128963663Y-106696097D01*
X128891074Y-106676647D01*
X128735407Y-106634936D01*
X128500000Y-106614340D01*
X128264592Y-106634936D01*
X128036336Y-106696097D01*
X127822170Y-106795965D01*
X127628598Y-106931505D01*
X127461505Y-107098598D01*
X127331575Y-107284159D01*
X127287257Y-107323025D01*
X127230000Y-107337036D01*
X127172743Y-107323025D01*
X127128425Y-107284159D01*
X126998494Y-107098598D01*
X126831404Y-106931508D01*
X126831401Y-106931505D01*
X126637830Y-106795965D01*
X126423663Y-106696097D01*
X126351074Y-106676647D01*
X126195407Y-106634936D01*
X125960000Y-106614340D01*
X125724592Y-106634936D01*
X125496336Y-106696097D01*
X125282170Y-106795965D01*
X125088598Y-106931505D01*
X124921505Y-107098598D01*
X124791575Y-107284159D01*
X124747257Y-107323025D01*
X124690000Y-107337036D01*
X124632743Y-107323025D01*
X124588425Y-107284159D01*
X124458494Y-107098598D01*
X124291404Y-106931508D01*
X124291401Y-106931505D01*
X124097830Y-106795965D01*
X123883663Y-106696097D01*
X123811074Y-106676647D01*
X123655407Y-106634936D01*
X123420000Y-106614340D01*
X123184592Y-106634936D01*
X122956336Y-106696097D01*
X122742170Y-106795965D01*
X122548601Y-106931503D01*
X122426285Y-107053819D01*
X122373539Y-107085114D01*
X122312246Y-107087303D01*
X122257401Y-107059850D01*
X122222422Y-107009471D01*
X122173352Y-106877911D01*
X122087188Y-106762811D01*
X121972089Y-106676647D01*
X121837375Y-106626402D01*
X121777824Y-106620000D01*
X121130000Y-106620000D01*
X121130000Y-109320000D01*
X120630000Y-109320000D01*
X120630000Y-106620000D01*
X119982176Y-106620000D01*
X119922624Y-106626402D01*
X119787910Y-106676647D01*
X119672811Y-106762811D01*
X119586646Y-106877913D01*
X119537576Y-107009472D01*
X119502597Y-107059850D01*
X119447753Y-107087303D01*
X119386460Y-107085114D01*
X119333714Y-107053818D01*
X119211404Y-106931508D01*
X119211401Y-106931505D01*
X119017830Y-106795965D01*
X118803663Y-106696097D01*
X118731074Y-106676647D01*
X118575407Y-106634936D01*
X118340000Y-106614340D01*
X118104592Y-106634936D01*
X117876336Y-106696097D01*
X117662170Y-106795965D01*
X117468598Y-106931505D01*
X117301505Y-107098598D01*
X117171575Y-107284159D01*
X117127257Y-107323025D01*
X117070000Y-107337036D01*
X117012743Y-107323025D01*
X116968425Y-107284159D01*
X116838494Y-107098598D01*
X116671404Y-106931508D01*
X116671401Y-106931505D01*
X116477830Y-106795965D01*
X116263663Y-106696097D01*
X116191074Y-106676647D01*
X116035407Y-106634936D01*
X115800000Y-106614340D01*
X115564592Y-106634936D01*
X115336336Y-106696097D01*
X115122170Y-106795965D01*
X114928598Y-106931505D01*
X114761505Y-107098598D01*
X114631575Y-107284159D01*
X114587257Y-107323025D01*
X114530000Y-107337036D01*
X114472743Y-107323025D01*
X114428425Y-107284159D01*
X114298494Y-107098598D01*
X114131404Y-106931508D01*
X114131401Y-106931505D01*
X113937830Y-106795965D01*
X113723663Y-106696097D01*
X113651074Y-106676647D01*
X113495407Y-106634936D01*
X113260000Y-106614340D01*
X113024592Y-106634936D01*
X112796336Y-106696097D01*
X112582170Y-106795965D01*
X112388598Y-106931505D01*
X112221505Y-107098598D01*
X112091575Y-107284159D01*
X112047257Y-107323025D01*
X111990000Y-107337036D01*
X111932743Y-107323025D01*
X111888425Y-107284159D01*
X111758494Y-107098598D01*
X111591404Y-106931508D01*
X111591401Y-106931505D01*
X111397830Y-106795965D01*
X111183663Y-106696097D01*
X111111074Y-106676647D01*
X110955407Y-106634936D01*
X110720000Y-106614340D01*
X110484590Y-106634936D01*
X110467774Y-106639442D01*
X110403589Y-106639440D01*
X110348004Y-106607347D01*
X107236819Y-103496162D01*
X107209939Y-103455934D01*
X107200500Y-103408481D01*
X107200500Y-90500000D01*
X108094540Y-90500000D01*
X108114326Y-90688257D01*
X108172820Y-90868284D01*
X108267466Y-91032216D01*
X108394129Y-91172889D01*
X108547269Y-91284151D01*
X108720197Y-91361144D01*
X108905352Y-91400500D01*
X108905354Y-91400500D01*
X109094646Y-91400500D01*
X109094648Y-91400500D01*
X109218083Y-91374262D01*
X109279803Y-91361144D01*
X109452730Y-91284151D01*
X109605871Y-91172888D01*
X109732533Y-91032216D01*
X109827179Y-90868284D01*
X109885674Y-90688256D01*
X109890864Y-90638866D01*
X109902263Y-90598450D01*
X109926500Y-90564155D01*
X111977731Y-88512924D01*
X111983150Y-88507823D01*
X112028183Y-88467929D01*
X112062355Y-88418420D01*
X112066775Y-88412413D01*
X112103878Y-88365057D01*
X112108035Y-88355819D01*
X112119060Y-88336270D01*
X112124818Y-88327930D01*
X112146150Y-88271678D01*
X112148999Y-88264800D01*
X112173695Y-88209931D01*
X112175522Y-88199956D01*
X112181549Y-88178339D01*
X112185140Y-88168872D01*
X112192387Y-88109179D01*
X112193514Y-88101777D01*
X112195053Y-88093378D01*
X112204358Y-88042606D01*
X112200726Y-87982566D01*
X112200500Y-87975079D01*
X112200500Y-86865392D01*
X112208736Y-86820955D01*
X112232350Y-86782420D01*
X112232533Y-86782216D01*
X112327179Y-86618284D01*
X112340557Y-86577110D01*
X112385674Y-86438256D01*
X112405460Y-86250000D01*
X112385674Y-86061744D01*
X112327179Y-85881716D01*
X112327179Y-85881715D01*
X112232533Y-85717783D01*
X112105870Y-85577110D01*
X111952730Y-85465848D01*
X111779802Y-85388855D01*
X111594648Y-85349500D01*
X111594646Y-85349500D01*
X111405354Y-85349500D01*
X111405352Y-85349500D01*
X111220197Y-85388855D01*
X111047269Y-85465848D01*
X110894129Y-85577110D01*
X110767466Y-85717783D01*
X110672820Y-85881715D01*
X110614326Y-86061742D01*
X110594540Y-86250000D01*
X110614326Y-86438257D01*
X110672820Y-86618284D01*
X110767466Y-86782216D01*
X110767650Y-86782420D01*
X110791264Y-86820955D01*
X110799500Y-86865392D01*
X110799500Y-87658481D01*
X110790061Y-87705934D01*
X110763181Y-87746162D01*
X108937027Y-89572315D01*
X108908514Y-89593607D01*
X108875127Y-89605924D01*
X108720197Y-89638855D01*
X108547269Y-89715848D01*
X108394129Y-89827110D01*
X108267466Y-89967783D01*
X108172820Y-90131715D01*
X108114326Y-90311742D01*
X108094540Y-90500000D01*
X107200500Y-90500000D01*
X107200500Y-87865392D01*
X107208736Y-87820955D01*
X107232350Y-87782420D01*
X107232533Y-87782216D01*
X107327179Y-87618284D01*
X107352158Y-87541406D01*
X107385674Y-87438256D01*
X107405460Y-87250000D01*
X107385674Y-87061744D01*
X107327179Y-86881716D01*
X107327179Y-86881715D01*
X107232533Y-86717783D01*
X107105870Y-86577110D01*
X106952730Y-86465848D01*
X106779802Y-86388855D01*
X106594648Y-86349500D01*
X106594646Y-86349500D01*
X106464500Y-86349500D01*
X106402500Y-86332887D01*
X106357113Y-86287500D01*
X106340500Y-86225500D01*
X106340500Y-83500000D01*
X166530000Y-83500000D01*
X166530000Y-84147824D01*
X166536402Y-84207375D01*
X166586647Y-84342089D01*
X166672811Y-84457188D01*
X166787910Y-84543352D01*
X166922624Y-84593597D01*
X166982176Y-84600000D01*
X167630000Y-84600000D01*
X167630000Y-83500000D01*
X166530000Y-83500000D01*
X106340500Y-83500000D01*
X106340500Y-75854782D01*
X106354015Y-75798487D01*
X106391615Y-75754464D01*
X106445102Y-75732309D01*
X106502818Y-75736851D01*
G37*
%TD.AperFunction*%
%TA.AperFunction,Conductor*%
G36*
X91912500Y-65766613D02*
G01*
X91957887Y-65812000D01*
X91974500Y-65874000D01*
X91974500Y-66275380D01*
X91979403Y-66325161D01*
X91980000Y-66337315D01*
X91980000Y-67220285D01*
X92124149Y-67176558D01*
X92306016Y-67079348D01*
X92364470Y-67064706D01*
X92422923Y-67079348D01*
X92427504Y-67081797D01*
X92427506Y-67081798D01*
X92605659Y-67177023D01*
X92798967Y-67235662D01*
X93000000Y-67255462D01*
X93201033Y-67235662D01*
X93394341Y-67177023D01*
X93394347Y-67177019D01*
X93395424Y-67176693D01*
X93452894Y-67173227D01*
X93486456Y-67187748D01*
X93502666Y-67193794D01*
X93502669Y-67193796D01*
X93637517Y-67244091D01*
X93697127Y-67250500D01*
X94842872Y-67250499D01*
X94902483Y-67244091D01*
X95037331Y-67193796D01*
X95152546Y-67107546D01*
X95238796Y-66992331D01*
X95289091Y-66857483D01*
X95291402Y-66835983D01*
X95317449Y-66772298D01*
X95373439Y-66732302D01*
X95442130Y-66728313D01*
X95502373Y-66761558D01*
X104303181Y-75562365D01*
X104330061Y-75602593D01*
X104339500Y-75650046D01*
X104339500Y-79219481D01*
X104325985Y-79275776D01*
X104288385Y-79319799D01*
X104234898Y-79341954D01*
X104177182Y-79337412D01*
X104127819Y-79307162D01*
X99442652Y-74621995D01*
X99410558Y-74566407D01*
X99410559Y-74502219D01*
X99415063Y-74485409D01*
X99435659Y-74250000D01*
X99415063Y-74014592D01*
X99397115Y-73947609D01*
X99353903Y-73786337D01*
X99254035Y-73572171D01*
X99118495Y-73378599D01*
X98951401Y-73211505D01*
X98757830Y-73075965D01*
X98543663Y-72976097D01*
X98458534Y-72953287D01*
X98315407Y-72914936D01*
X98080000Y-72894340D01*
X97844592Y-72914936D01*
X97616336Y-72976097D01*
X97402170Y-73075965D01*
X97208598Y-73211505D01*
X97041508Y-73378595D01*
X96911574Y-73564160D01*
X96867255Y-73603026D01*
X96809999Y-73617036D01*
X96752742Y-73603025D01*
X96708426Y-73564161D01*
X96578495Y-73378599D01*
X96411401Y-73211505D01*
X96217830Y-73075965D01*
X96003663Y-72976097D01*
X95918534Y-72953287D01*
X95775407Y-72914936D01*
X95540000Y-72894340D01*
X95304592Y-72914936D01*
X95076336Y-72976097D01*
X94862170Y-73075965D01*
X94668598Y-73211505D01*
X94501508Y-73378595D01*
X94371574Y-73564160D01*
X94327255Y-73603026D01*
X94269999Y-73617036D01*
X94212742Y-73603025D01*
X94168426Y-73564161D01*
X94038495Y-73378599D01*
X94036819Y-73376923D01*
X94009939Y-73336695D01*
X94000500Y-73289242D01*
X94000500Y-73214279D01*
X94000540Y-73211137D01*
X94002757Y-73123638D01*
X93992350Y-73065574D01*
X93991041Y-73056242D01*
X93989675Y-73042811D01*
X93985074Y-72997562D01*
X93975964Y-72968528D01*
X93972227Y-72953305D01*
X93966858Y-72923347D01*
X93944969Y-72868549D01*
X93941816Y-72859689D01*
X93924160Y-72803415D01*
X93924159Y-72803414D01*
X93924159Y-72803412D01*
X93909396Y-72776816D01*
X93902663Y-72762636D01*
X93891379Y-72734385D01*
X93888837Y-72730528D01*
X93858901Y-72685106D01*
X93854040Y-72677082D01*
X93825409Y-72625498D01*
X93825408Y-72625496D01*
X93805593Y-72602415D01*
X93796144Y-72589883D01*
X93779402Y-72564481D01*
X93737699Y-72522779D01*
X93731292Y-72515866D01*
X93692865Y-72471103D01*
X93668802Y-72452477D01*
X93657022Y-72442102D01*
X91541819Y-70326899D01*
X91514939Y-70286671D01*
X91505500Y-70239218D01*
X91505500Y-65874000D01*
X91522113Y-65812000D01*
X91567500Y-65766613D01*
X91629500Y-65750000D01*
X91850500Y-65750000D01*
X91912500Y-65766613D01*
G37*
%TD.AperFunction*%
%TA.AperFunction,Conductor*%
G36*
X209937500Y-50017113D02*
G01*
X209982887Y-50062500D01*
X209999500Y-50124500D01*
X209999500Y-137875500D01*
X209982887Y-137937500D01*
X209937500Y-137982887D01*
X209875500Y-137999500D01*
X88124500Y-137999500D01*
X88062500Y-137982887D01*
X88017113Y-137937500D01*
X88000500Y-137875500D01*
X88000500Y-134067764D01*
X90145787Y-134067764D01*
X90175413Y-134337016D01*
X90243928Y-134599087D01*
X90349871Y-134848392D01*
X90490982Y-135079611D01*
X90580253Y-135186881D01*
X90664255Y-135287820D01*
X90865998Y-135468582D01*
X91091910Y-135618044D01*
X91198211Y-135667876D01*
X91337177Y-135733021D01*
X91596562Y-135811058D01*
X91596569Y-135811060D01*
X91864561Y-135850500D01*
X92067631Y-135850500D01*
X92067634Y-135850500D01*
X92270156Y-135835677D01*
X92270156Y-135835676D01*
X92534553Y-135776780D01*
X92787558Y-135680014D01*
X93023777Y-135547441D01*
X93238177Y-135381888D01*
X93426186Y-135186881D01*
X93583799Y-134966579D01*
X93707656Y-134725675D01*
X93795118Y-134469305D01*
X93844319Y-134202933D01*
X93849259Y-134067764D01*
X204145787Y-134067764D01*
X204175413Y-134337016D01*
X204243928Y-134599087D01*
X204349871Y-134848392D01*
X204490982Y-135079611D01*
X204580253Y-135186881D01*
X204664255Y-135287820D01*
X204865998Y-135468582D01*
X205091910Y-135618044D01*
X205198211Y-135667876D01*
X205337177Y-135733021D01*
X205596562Y-135811058D01*
X205596569Y-135811060D01*
X205864561Y-135850500D01*
X206067631Y-135850500D01*
X206067634Y-135850500D01*
X206270156Y-135835677D01*
X206270156Y-135835676D01*
X206534553Y-135776780D01*
X206787558Y-135680014D01*
X207023777Y-135547441D01*
X207238177Y-135381888D01*
X207426186Y-135186881D01*
X207583799Y-134966579D01*
X207707656Y-134725675D01*
X207795118Y-134469305D01*
X207844319Y-134202933D01*
X207854212Y-133932235D01*
X207824586Y-133662982D01*
X207756072Y-133400912D01*
X207650130Y-133151610D01*
X207509018Y-132920390D01*
X207509017Y-132920388D01*
X207335746Y-132712181D01*
X207230758Y-132618112D01*
X207134002Y-132531418D01*
X206908090Y-132381956D01*
X206908086Y-132381954D01*
X206662822Y-132266978D01*
X206403437Y-132188941D01*
X206403431Y-132188940D01*
X206135439Y-132149500D01*
X205932369Y-132149500D01*
X205932366Y-132149500D01*
X205729843Y-132164322D01*
X205465449Y-132223219D01*
X205212441Y-132319986D01*
X204976223Y-132452559D01*
X204761825Y-132618109D01*
X204573813Y-132813120D01*
X204416201Y-133033420D01*
X204292342Y-133274329D01*
X204204881Y-133530695D01*
X204155680Y-133797066D01*
X204145787Y-134067764D01*
X93849259Y-134067764D01*
X93854212Y-133932235D01*
X93824586Y-133662982D01*
X93756072Y-133400912D01*
X93650130Y-133151610D01*
X93509018Y-132920390D01*
X93509017Y-132920388D01*
X93335746Y-132712181D01*
X93230758Y-132618112D01*
X93134002Y-132531418D01*
X92908090Y-132381956D01*
X92908086Y-132381954D01*
X92662822Y-132266978D01*
X92403437Y-132188941D01*
X92403431Y-132188940D01*
X92135439Y-132149500D01*
X91932369Y-132149500D01*
X91932366Y-132149500D01*
X91729843Y-132164322D01*
X91465449Y-132223219D01*
X91212441Y-132319986D01*
X90976223Y-132452559D01*
X90761825Y-132618109D01*
X90573813Y-132813120D01*
X90416201Y-133033420D01*
X90292342Y-133274329D01*
X90204881Y-133530695D01*
X90155680Y-133797066D01*
X90145787Y-134067764D01*
X88000500Y-134067764D01*
X88000500Y-125749999D01*
X89044340Y-125749999D01*
X89064936Y-125985407D01*
X89095124Y-126098070D01*
X89126097Y-126213663D01*
X89225965Y-126427830D01*
X89361505Y-126621401D01*
X89528599Y-126788495D01*
X89722170Y-126924035D01*
X89936337Y-127023903D01*
X90164592Y-127085063D01*
X90400000Y-127105659D01*
X90635408Y-127085063D01*
X90863663Y-127023903D01*
X91077830Y-126924035D01*
X91271401Y-126788495D01*
X91438495Y-126621401D01*
X91568426Y-126435839D01*
X91612743Y-126396975D01*
X91670000Y-126382964D01*
X91727257Y-126396975D01*
X91771573Y-126435839D01*
X91901505Y-126621401D01*
X92068599Y-126788495D01*
X92262170Y-126924035D01*
X92476337Y-127023903D01*
X92704592Y-127085063D01*
X92940000Y-127105659D01*
X93175408Y-127085063D01*
X93403663Y-127023903D01*
X93617830Y-126924035D01*
X93811401Y-126788495D01*
X93933717Y-126666178D01*
X93986460Y-126634885D01*
X94047752Y-126632696D01*
X94102597Y-126660149D01*
X94137577Y-126710528D01*
X94186647Y-126842088D01*
X94272811Y-126957188D01*
X94387910Y-127043352D01*
X94522624Y-127093597D01*
X94582176Y-127100000D01*
X95230000Y-127100000D01*
X95730000Y-127100000D01*
X96377824Y-127100000D01*
X96437375Y-127093597D01*
X96572089Y-127043352D01*
X96687188Y-126957188D01*
X96773352Y-126842089D01*
X96822422Y-126710528D01*
X96857401Y-126660149D01*
X96912246Y-126632696D01*
X96973539Y-126634885D01*
X97026284Y-126666180D01*
X97148599Y-126788495D01*
X97342170Y-126924035D01*
X97556337Y-127023903D01*
X97784592Y-127085063D01*
X98020000Y-127105659D01*
X98255408Y-127085063D01*
X98483663Y-127023903D01*
X98697830Y-126924035D01*
X98891401Y-126788495D01*
X99058495Y-126621401D01*
X99188426Y-126435839D01*
X99232743Y-126396975D01*
X99290000Y-126382964D01*
X99347257Y-126396975D01*
X99391573Y-126435839D01*
X99521505Y-126621401D01*
X99688599Y-126788495D01*
X99882170Y-126924035D01*
X100096337Y-127023903D01*
X100324592Y-127085063D01*
X100560000Y-127105659D01*
X100795408Y-127085063D01*
X101023663Y-127023903D01*
X101237830Y-126924035D01*
X101431401Y-126788495D01*
X101598495Y-126621401D01*
X101728426Y-126435839D01*
X101772743Y-126396975D01*
X101830000Y-126382964D01*
X101887257Y-126396975D01*
X101931573Y-126435839D01*
X102061505Y-126621401D01*
X102228599Y-126788495D01*
X102422170Y-126924035D01*
X102636337Y-127023903D01*
X102864592Y-127085063D01*
X103100000Y-127105659D01*
X103335408Y-127085063D01*
X103563663Y-127023903D01*
X103777830Y-126924035D01*
X103971401Y-126788495D01*
X104138495Y-126621401D01*
X104268426Y-126435839D01*
X104312743Y-126396975D01*
X104370000Y-126382964D01*
X104427257Y-126396975D01*
X104471573Y-126435839D01*
X104601505Y-126621401D01*
X104768599Y-126788495D01*
X104962170Y-126924035D01*
X105176337Y-127023903D01*
X105404592Y-127085063D01*
X105640000Y-127105659D01*
X105875408Y-127085063D01*
X106103663Y-127023903D01*
X106317830Y-126924035D01*
X106511401Y-126788495D01*
X106633717Y-126666178D01*
X106686460Y-126634885D01*
X106747752Y-126632696D01*
X106802597Y-126660149D01*
X106837577Y-126710528D01*
X106886647Y-126842088D01*
X106972811Y-126957188D01*
X107087910Y-127043352D01*
X107222624Y-127093597D01*
X107282176Y-127100000D01*
X107930000Y-127100000D01*
X107930000Y-124400000D01*
X107282176Y-124400000D01*
X107222624Y-124406402D01*
X107087910Y-124456647D01*
X106972811Y-124542811D01*
X106886646Y-124657913D01*
X106837576Y-124789472D01*
X106802597Y-124839850D01*
X106747753Y-124867303D01*
X106686460Y-124865114D01*
X106633714Y-124833818D01*
X106511404Y-124711508D01*
X106511403Y-124711507D01*
X106511401Y-124711505D01*
X106317830Y-124575965D01*
X106103663Y-124476097D01*
X106031074Y-124456647D01*
X105875407Y-124414936D01*
X105640000Y-124394340D01*
X105404592Y-124414936D01*
X105176336Y-124476097D01*
X104962170Y-124575965D01*
X104768598Y-124711505D01*
X104601505Y-124878598D01*
X104471575Y-125064159D01*
X104427257Y-125103025D01*
X104370000Y-125117036D01*
X104312743Y-125103025D01*
X104268425Y-125064159D01*
X104153830Y-124900500D01*
X104138495Y-124878599D01*
X103971401Y-124711505D01*
X103777830Y-124575965D01*
X103563663Y-124476097D01*
X103491074Y-124456647D01*
X103335407Y-124414936D01*
X103100000Y-124394340D01*
X102864592Y-124414936D01*
X102636336Y-124476097D01*
X102422170Y-124575965D01*
X102228598Y-124711505D01*
X102061505Y-124878598D01*
X101931575Y-125064159D01*
X101887257Y-125103025D01*
X101830000Y-125117036D01*
X101772743Y-125103025D01*
X101728425Y-125064159D01*
X101613830Y-124900500D01*
X101598495Y-124878599D01*
X101431401Y-124711505D01*
X101237830Y-124575965D01*
X101023663Y-124476097D01*
X100951074Y-124456647D01*
X100795407Y-124414936D01*
X100560000Y-124394340D01*
X100324592Y-124414936D01*
X100096336Y-124476097D01*
X99882170Y-124575965D01*
X99688598Y-124711505D01*
X99521505Y-124878598D01*
X99391575Y-125064159D01*
X99347257Y-125103025D01*
X99290000Y-125117036D01*
X99232743Y-125103025D01*
X99188425Y-125064159D01*
X99073830Y-124900500D01*
X99058495Y-124878599D01*
X98891401Y-124711505D01*
X98697830Y-124575965D01*
X98483663Y-124476097D01*
X98411074Y-124456647D01*
X98255407Y-124414936D01*
X98020000Y-124394340D01*
X97784592Y-124414936D01*
X97556336Y-124476097D01*
X97342170Y-124575965D01*
X97148601Y-124711503D01*
X97026285Y-124833819D01*
X96973539Y-124865114D01*
X96912246Y-124867303D01*
X96857401Y-124839850D01*
X96822422Y-124789471D01*
X96773352Y-124657911D01*
X96687188Y-124542811D01*
X96572089Y-124456647D01*
X96437375Y-124406402D01*
X96377824Y-124400000D01*
X95730000Y-124400000D01*
X95730000Y-127100000D01*
X95230000Y-127100000D01*
X95230000Y-124400000D01*
X94582176Y-124400000D01*
X94522624Y-124406402D01*
X94387910Y-124456647D01*
X94272811Y-124542811D01*
X94186646Y-124657913D01*
X94137576Y-124789472D01*
X94102597Y-124839850D01*
X94047753Y-124867303D01*
X93986460Y-124865114D01*
X93933714Y-124833818D01*
X93811404Y-124711508D01*
X93811403Y-124711507D01*
X93811401Y-124711505D01*
X93617830Y-124575965D01*
X93403663Y-124476097D01*
X93331074Y-124456647D01*
X93175407Y-124414936D01*
X92940000Y-124394340D01*
X92704592Y-124414936D01*
X92476336Y-124476097D01*
X92262170Y-124575965D01*
X92068598Y-124711505D01*
X91901505Y-124878598D01*
X91771575Y-125064159D01*
X91727257Y-125103025D01*
X91670000Y-125117036D01*
X91612743Y-125103025D01*
X91568425Y-125064159D01*
X91453830Y-124900500D01*
X91438495Y-124878599D01*
X91271401Y-124711505D01*
X91077830Y-124575965D01*
X90863663Y-124476097D01*
X90791074Y-124456647D01*
X90635407Y-124414936D01*
X90400000Y-124394340D01*
X90164592Y-124414936D01*
X89936336Y-124476097D01*
X89722170Y-124575965D01*
X89528598Y-124711505D01*
X89361505Y-124878598D01*
X89225965Y-125072170D01*
X89126097Y-125286336D01*
X89064936Y-125514592D01*
X89044340Y-125749999D01*
X88000500Y-125749999D01*
X88000500Y-119584998D01*
X89124699Y-119584998D01*
X89131750Y-119670097D01*
X89132061Y-119675071D01*
X89135820Y-119763532D01*
X89140092Y-119783356D01*
X89142451Y-119799237D01*
X89143865Y-119816301D01*
X89143865Y-119816304D01*
X89143866Y-119816305D01*
X89162366Y-119889362D01*
X89165661Y-119902371D01*
X89166669Y-119906676D01*
X89178630Y-119962171D01*
X89186046Y-119996581D01*
X89192333Y-120012226D01*
X89197479Y-120028017D01*
X89200843Y-120041301D01*
X89237875Y-120125727D01*
X89239377Y-120129301D01*
X89274936Y-120217790D01*
X89281979Y-120229229D01*
X89289943Y-120244428D01*
X89290898Y-120246603D01*
X89294076Y-120253849D01*
X89346366Y-120333886D01*
X89348147Y-120336693D01*
X89399931Y-120420796D01*
X89406539Y-120428303D01*
X89417268Y-120442409D01*
X89421021Y-120448153D01*
X89488117Y-120521040D01*
X89489930Y-120523054D01*
X89557437Y-120599756D01*
X89562561Y-120603894D01*
X89575886Y-120616382D01*
X89578216Y-120618913D01*
X89618620Y-120650360D01*
X89659062Y-120681837D01*
X89660795Y-120683211D01*
X89742920Y-120749523D01*
X89745685Y-120751067D01*
X89761359Y-120761458D01*
X89761374Y-120761470D01*
X89854507Y-120811870D01*
X89855785Y-120812573D01*
X89951046Y-120865790D01*
X89951051Y-120865791D01*
X89951252Y-120865904D01*
X89962584Y-120870935D01*
X89965492Y-120871933D01*
X89965497Y-120871936D01*
X90068790Y-120907396D01*
X90069696Y-120907712D01*
X90118931Y-120925107D01*
X90175829Y-120945211D01*
X90175832Y-120945211D01*
X90178800Y-120946260D01*
X90185017Y-120947297D01*
X90185019Y-120947298D01*
X90296197Y-120965849D01*
X90296528Y-120965906D01*
X90351028Y-120975251D01*
X90410799Y-120985500D01*
X90410800Y-120985500D01*
X90413951Y-120985500D01*
X90589497Y-120985500D01*
X90646047Y-120985500D01*
X90646049Y-120985500D01*
X90700010Y-120976494D01*
X90709905Y-120975251D01*
X90767541Y-120970346D01*
X90816941Y-120957482D01*
X90827760Y-120955177D01*
X90857221Y-120950261D01*
X90874982Y-120947298D01*
X90929946Y-120928428D01*
X90938949Y-120925714D01*
X90998249Y-120910275D01*
X91041642Y-120890659D01*
X91052443Y-120886374D01*
X91094503Y-120871936D01*
X91148622Y-120842647D01*
X91156530Y-120838726D01*
X91215486Y-120812077D01*
X91252108Y-120787324D01*
X91262515Y-120781011D01*
X91298626Y-120761470D01*
X91349877Y-120721578D01*
X91356589Y-120716706D01*
X91406144Y-120683215D01*
X91413002Y-120678580D01*
X91417883Y-120673902D01*
X91442460Y-120650345D01*
X91452064Y-120642044D01*
X91481784Y-120618913D01*
X91528081Y-120568619D01*
X91533490Y-120563100D01*
X91585118Y-120513621D01*
X91607350Y-120483559D01*
X91615797Y-120473333D01*
X91638979Y-120448153D01*
X91678238Y-120388060D01*
X91682312Y-120382203D01*
X91726879Y-120321947D01*
X91742163Y-120291630D01*
X91749079Y-120279632D01*
X91754805Y-120270868D01*
X91765924Y-120253849D01*
X91796123Y-120185000D01*
X91798927Y-120179045D01*
X91834207Y-120109074D01*
X91843150Y-120079868D01*
X91848158Y-120066374D01*
X91859157Y-120041300D01*
X91878453Y-119965099D01*
X91880088Y-119959255D01*
X91904015Y-119881126D01*
X91904014Y-119881126D01*
X91904016Y-119881123D01*
X91907461Y-119854215D01*
X91910247Y-119839548D01*
X91916134Y-119816305D01*
X91922903Y-119734600D01*
X91923484Y-119729095D01*
X91927146Y-119700500D01*
X91934298Y-119644654D01*
X91933291Y-119620960D01*
X91933602Y-119605481D01*
X91935300Y-119585000D01*
X91928248Y-119499902D01*
X91927938Y-119494944D01*
X91927319Y-119480365D01*
X91924180Y-119406468D01*
X91919907Y-119386642D01*
X91917547Y-119370756D01*
X91916134Y-119353695D01*
X91898737Y-119285000D01*
X92304723Y-119285000D01*
X92306332Y-119303400D01*
X92306678Y-119319753D01*
X92305709Y-119341328D01*
X92316444Y-119420576D01*
X92317094Y-119426413D01*
X92323792Y-119502976D01*
X92329461Y-119524132D01*
X92332564Y-119539578D01*
X92335925Y-119564390D01*
X92359573Y-119637170D01*
X92361416Y-119643393D01*
X92380423Y-119714327D01*
X92391135Y-119737298D01*
X92396683Y-119751383D01*
X92405481Y-119778460D01*
X92405482Y-119778463D01*
X92405483Y-119778464D01*
X92410835Y-119788410D01*
X92440128Y-119842847D01*
X92443314Y-119849199D01*
X92472896Y-119912637D01*
X92489406Y-119936215D01*
X92497023Y-119948575D01*
X92512148Y-119976681D01*
X92528018Y-119996581D01*
X92555588Y-120031153D01*
X92560214Y-120037340D01*
X92598403Y-120091878D01*
X92621186Y-120114661D01*
X92630452Y-120125029D01*
X92652493Y-120152667D01*
X92702387Y-120196259D01*
X92708484Y-120201959D01*
X92753123Y-120246598D01*
X92782330Y-120267049D01*
X92792793Y-120275244D01*
X92811551Y-120291632D01*
X92822004Y-120300765D01*
X92875940Y-120332990D01*
X92883435Y-120337843D01*
X92932361Y-120372102D01*
X92942490Y-120376825D01*
X92967799Y-120388628D01*
X92978991Y-120394560D01*
X93015236Y-120416215D01*
X93015239Y-120416216D01*
X93070839Y-120437083D01*
X93079669Y-120440792D01*
X93124003Y-120461466D01*
X93130670Y-120464575D01*
X93171757Y-120475584D01*
X93183235Y-120479266D01*
X93194711Y-120483573D01*
X93225976Y-120495307D01*
X93281024Y-120505296D01*
X93290970Y-120507527D01*
X93342023Y-120521207D01*
X93386133Y-120525065D01*
X93387814Y-120525213D01*
X93399148Y-120526733D01*
X93447453Y-120535500D01*
X93499985Y-120535500D01*
X93510791Y-120535971D01*
X93560000Y-120540277D01*
X93609208Y-120535971D01*
X93612511Y-120535827D01*
X93616145Y-120535500D01*
X93616155Y-120535500D01*
X93670172Y-120530638D01*
X93670180Y-120530727D01*
X93670479Y-120530611D01*
X93777977Y-120521207D01*
X93777977Y-120521206D01*
X93782663Y-120520797D01*
X93784183Y-120520377D01*
X93784188Y-120520377D01*
X93887726Y-120491800D01*
X93888413Y-120491614D01*
X93938404Y-120478220D01*
X93994377Y-120463223D01*
X93999148Y-120461466D01*
X94001166Y-120460494D01*
X94001170Y-120460493D01*
X94094951Y-120415329D01*
X94096007Y-120414830D01*
X94187639Y-120372102D01*
X94187645Y-120372097D01*
X94189392Y-120371283D01*
X94203155Y-120363222D01*
X94203973Y-120362829D01*
X94285324Y-120303722D01*
X94287043Y-120302497D01*
X94366871Y-120246603D01*
X94366873Y-120246600D01*
X94366877Y-120246598D01*
X94367748Y-120245726D01*
X94382543Y-120233089D01*
X94386078Y-120230522D01*
X94453237Y-120160277D01*
X94455097Y-120158377D01*
X94521593Y-120091882D01*
X94521593Y-120091881D01*
X94521598Y-120091877D01*
X94524285Y-120088039D01*
X94536232Y-120073471D01*
X94541632Y-120067825D01*
X94593288Y-119989566D01*
X94595082Y-119986929D01*
X94647102Y-119912639D01*
X94650539Y-119905267D01*
X94659434Y-119889362D01*
X94659585Y-119889132D01*
X94665635Y-119879968D01*
X94701114Y-119796958D01*
X94702713Y-119793377D01*
X94739575Y-119714330D01*
X94742572Y-119703143D01*
X94748324Y-119686508D01*
X94748909Y-119685139D01*
X94754103Y-119672988D01*
X94773434Y-119588291D01*
X94774533Y-119583863D01*
X94779752Y-119564387D01*
X94796207Y-119502977D01*
X94797516Y-119488005D01*
X94800153Y-119471227D01*
X94804191Y-119453537D01*
X94807934Y-119370183D01*
X94808274Y-119365039D01*
X94815277Y-119285000D01*
X94813667Y-119266608D01*
X94813321Y-119250238D01*
X94814290Y-119228670D01*
X94803549Y-119149385D01*
X94802905Y-119143596D01*
X94799840Y-119108556D01*
X94796208Y-119067027D01*
X94794573Y-119060925D01*
X94790536Y-119045860D01*
X94787434Y-119030414D01*
X94784075Y-119005614D01*
X94779322Y-118990987D01*
X94760421Y-118932816D01*
X94758578Y-118926592D01*
X94743853Y-118871636D01*
X94739575Y-118855670D01*
X94728865Y-118832704D01*
X94723317Y-118818619D01*
X94714517Y-118791535D01*
X94679869Y-118727148D01*
X94676681Y-118720794D01*
X94647102Y-118657362D01*
X94639807Y-118646944D01*
X94630591Y-118633782D01*
X94622975Y-118621423D01*
X94607852Y-118593319D01*
X94564404Y-118538837D01*
X94559785Y-118532661D01*
X94521598Y-118478123D01*
X94498804Y-118455329D01*
X94489546Y-118444969D01*
X94484789Y-118439004D01*
X94467508Y-118417334D01*
X94467506Y-118417332D01*
X94417611Y-118373739D01*
X94411514Y-118368039D01*
X94366878Y-118323402D01*
X94337664Y-118302947D01*
X94327210Y-118294759D01*
X94297996Y-118269235D01*
X94295156Y-118267538D01*
X94244073Y-118237017D01*
X94236550Y-118232145D01*
X94187640Y-118197898D01*
X94158908Y-118184500D01*
X94152201Y-118181372D01*
X94141014Y-118175442D01*
X94104764Y-118153784D01*
X94049171Y-118132921D01*
X94040349Y-118129216D01*
X93989330Y-118105425D01*
X93989328Y-118105424D01*
X93961575Y-118097987D01*
X93948228Y-118094411D01*
X93936762Y-118090732D01*
X93894024Y-118074693D01*
X93850636Y-118066818D01*
X93838964Y-118064700D01*
X93829018Y-118062468D01*
X93777980Y-118048793D01*
X93732175Y-118044785D01*
X93720846Y-118043264D01*
X93672550Y-118034500D01*
X93672547Y-118034500D01*
X93620015Y-118034500D01*
X93609208Y-118034028D01*
X93605788Y-118033728D01*
X93560000Y-118029722D01*
X93514211Y-118033728D01*
X93510791Y-118034028D01*
X93507481Y-118034172D01*
X93449916Y-118039352D01*
X93449612Y-118039379D01*
X93337332Y-118049203D01*
X93232522Y-118078129D01*
X93231627Y-118078373D01*
X93125660Y-118106767D01*
X93120809Y-118108553D01*
X93025246Y-118154573D01*
X93023853Y-118155233D01*
X92930634Y-118198703D01*
X92916875Y-118206762D01*
X92916030Y-118207169D01*
X92834662Y-118266284D01*
X92832904Y-118267538D01*
X92753118Y-118323405D01*
X92752235Y-118324289D01*
X92737467Y-118336901D01*
X92733923Y-118339476D01*
X92666846Y-118409632D01*
X92664903Y-118411619D01*
X92598401Y-118478122D01*
X92595708Y-118481968D01*
X92583776Y-118496517D01*
X92578370Y-118502172D01*
X92526775Y-118580333D01*
X92524866Y-118583141D01*
X92472897Y-118657363D01*
X92469460Y-118664734D01*
X92460571Y-118680629D01*
X92454364Y-118690032D01*
X92418893Y-118773021D01*
X92417260Y-118776676D01*
X92410331Y-118791536D01*
X92380423Y-118855673D01*
X92377426Y-118866856D01*
X92371680Y-118883478D01*
X92365897Y-118897009D01*
X92346576Y-118981659D01*
X92345460Y-118986157D01*
X92323793Y-119067020D01*
X92322483Y-119081993D01*
X92319847Y-119098767D01*
X92315809Y-119116460D01*
X92312066Y-119199777D01*
X92311719Y-119205016D01*
X92306331Y-119266613D01*
X92304723Y-119285000D01*
X91898737Y-119285000D01*
X91894328Y-119267589D01*
X91893336Y-119263354D01*
X91873954Y-119173419D01*
X91867665Y-119157770D01*
X91862521Y-119141989D01*
X91859157Y-119128700D01*
X91822102Y-119044224D01*
X91820621Y-119040696D01*
X91785066Y-118952214D01*
X91785064Y-118952210D01*
X91778016Y-118940764D01*
X91770051Y-118925561D01*
X91767329Y-118919355D01*
X91765924Y-118916151D01*
X91713628Y-118836106D01*
X91711879Y-118833350D01*
X91660069Y-118749205D01*
X91653454Y-118741689D01*
X91642730Y-118727588D01*
X91640400Y-118724022D01*
X91638979Y-118721847D01*
X91571876Y-118648953D01*
X91570068Y-118646944D01*
X91502564Y-118570245D01*
X91501253Y-118569186D01*
X91497439Y-118566106D01*
X91484115Y-118553619D01*
X91481785Y-118551088D01*
X91400936Y-118488161D01*
X91399199Y-118486783D01*
X91317082Y-118420477D01*
X91314315Y-118418932D01*
X91298637Y-118408538D01*
X91298626Y-118408529D01*
X91205552Y-118358161D01*
X91204209Y-118357423D01*
X91108954Y-118304210D01*
X91108947Y-118304207D01*
X91108753Y-118304099D01*
X91097401Y-118299059D01*
X91087445Y-118295641D01*
X90991252Y-118262617D01*
X90990233Y-118262263D01*
X90881202Y-118223739D01*
X90763772Y-118204144D01*
X90763226Y-118204051D01*
X90649202Y-118184500D01*
X90649200Y-118184500D01*
X90646049Y-118184500D01*
X90413951Y-118184500D01*
X90413949Y-118184500D01*
X90359991Y-118193503D01*
X90350102Y-118194747D01*
X90292460Y-118199653D01*
X90243077Y-118212511D01*
X90232249Y-118214819D01*
X90185023Y-118222701D01*
X90185021Y-118222701D01*
X90185019Y-118222702D01*
X90130056Y-118241570D01*
X90121052Y-118244284D01*
X90061748Y-118259725D01*
X90018361Y-118279337D01*
X90007554Y-118283624D01*
X89965496Y-118298063D01*
X89911395Y-118327341D01*
X89903460Y-118331276D01*
X89844509Y-118357925D01*
X89807882Y-118382679D01*
X89797470Y-118388994D01*
X89761373Y-118408529D01*
X89710124Y-118448417D01*
X89703402Y-118453296D01*
X89646999Y-118491418D01*
X89617549Y-118519643D01*
X89607919Y-118527967D01*
X89578216Y-118551087D01*
X89578214Y-118551088D01*
X89578214Y-118551089D01*
X89531926Y-118601369D01*
X89526500Y-118606905D01*
X89474883Y-118656376D01*
X89452659Y-118686426D01*
X89444196Y-118696670D01*
X89421023Y-118721843D01*
X89381782Y-118781905D01*
X89377671Y-118787815D01*
X89333119Y-118848054D01*
X89317826Y-118878384D01*
X89310917Y-118890371D01*
X89294077Y-118916147D01*
X89278257Y-118952214D01*
X89265636Y-118980987D01*
X89263887Y-118984974D01*
X89261054Y-118990987D01*
X89225792Y-119060925D01*
X89216847Y-119090131D01*
X89211842Y-119103620D01*
X89200844Y-119128695D01*
X89181552Y-119204871D01*
X89179912Y-119210736D01*
X89155983Y-119288875D01*
X89152538Y-119315775D01*
X89149750Y-119330455D01*
X89143865Y-119353697D01*
X89137097Y-119435377D01*
X89136517Y-119440886D01*
X89125701Y-119525348D01*
X89126707Y-119549025D01*
X89126396Y-119564520D01*
X89124699Y-119584998D01*
X88000500Y-119584998D01*
X88000500Y-114134998D01*
X89124699Y-114134998D01*
X89131750Y-114220097D01*
X89132061Y-114225071D01*
X89135820Y-114313532D01*
X89140092Y-114333356D01*
X89142451Y-114349237D01*
X89143865Y-114366301D01*
X89143865Y-114366304D01*
X89143866Y-114366305D01*
X89146997Y-114378671D01*
X89165661Y-114452371D01*
X89166669Y-114456676D01*
X89180367Y-114520230D01*
X89186046Y-114546581D01*
X89192333Y-114562226D01*
X89197479Y-114578017D01*
X89200843Y-114591301D01*
X89237875Y-114675727D01*
X89239377Y-114679301D01*
X89274936Y-114767790D01*
X89281979Y-114779229D01*
X89289945Y-114794431D01*
X89294076Y-114803849D01*
X89346366Y-114883886D01*
X89348142Y-114886686D01*
X89352753Y-114894173D01*
X89399931Y-114970796D01*
X89406539Y-114978303D01*
X89417268Y-114992409D01*
X89421021Y-114998153D01*
X89488117Y-115071040D01*
X89489930Y-115073054D01*
X89546060Y-115136830D01*
X89557437Y-115149756D01*
X89562561Y-115153894D01*
X89575886Y-115166382D01*
X89578216Y-115168913D01*
X89659062Y-115231837D01*
X89660800Y-115233215D01*
X89705846Y-115269588D01*
X89742920Y-115299523D01*
X89745685Y-115301067D01*
X89761359Y-115311458D01*
X89761374Y-115311470D01*
X89854507Y-115361870D01*
X89855785Y-115362573D01*
X89951046Y-115415790D01*
X89951051Y-115415791D01*
X89951252Y-115415904D01*
X89962584Y-115420935D01*
X89965492Y-115421933D01*
X89965497Y-115421936D01*
X90068790Y-115457396D01*
X90069696Y-115457712D01*
X90118931Y-115475107D01*
X90175829Y-115495211D01*
X90175832Y-115495211D01*
X90178800Y-115496260D01*
X90185017Y-115497297D01*
X90185019Y-115497298D01*
X90296197Y-115515849D01*
X90296528Y-115515906D01*
X90351028Y-115525251D01*
X90410799Y-115535500D01*
X90410800Y-115535500D01*
X90413951Y-115535500D01*
X90589497Y-115535500D01*
X90646047Y-115535500D01*
X90646049Y-115535500D01*
X90700010Y-115526494D01*
X90709905Y-115525251D01*
X90767541Y-115520346D01*
X90816941Y-115507482D01*
X90827760Y-115505177D01*
X90857221Y-115500261D01*
X90874982Y-115497298D01*
X90929946Y-115478428D01*
X90938949Y-115475714D01*
X90998249Y-115460275D01*
X91041642Y-115440659D01*
X91052443Y-115436374D01*
X91094503Y-115421936D01*
X91148622Y-115392647D01*
X91156530Y-115388726D01*
X91215486Y-115362077D01*
X91252108Y-115337324D01*
X91262515Y-115331011D01*
X91298626Y-115311470D01*
X91349877Y-115271578D01*
X91356589Y-115266706D01*
X91406144Y-115233215D01*
X91413002Y-115228580D01*
X91424223Y-115217825D01*
X91442460Y-115200345D01*
X91452064Y-115192044D01*
X91481784Y-115168913D01*
X91528081Y-115118619D01*
X91533490Y-115113100D01*
X91585118Y-115063621D01*
X91607350Y-115033559D01*
X91615797Y-115023333D01*
X91638979Y-114998153D01*
X91678238Y-114938060D01*
X91682312Y-114932203D01*
X91726879Y-114871947D01*
X91742163Y-114841630D01*
X91749079Y-114829632D01*
X91753420Y-114822988D01*
X91765924Y-114803849D01*
X91796123Y-114735000D01*
X91798927Y-114729045D01*
X91834207Y-114659074D01*
X91843150Y-114629868D01*
X91848158Y-114616374D01*
X91859157Y-114591300D01*
X91878453Y-114515099D01*
X91880088Y-114509255D01*
X91891423Y-114472243D01*
X91902829Y-114435000D01*
X92304723Y-114435000D01*
X92306332Y-114453400D01*
X92306678Y-114469753D01*
X92305709Y-114491328D01*
X92316444Y-114570576D01*
X92317094Y-114576413D01*
X92323792Y-114652976D01*
X92329461Y-114674132D01*
X92332564Y-114689578D01*
X92335925Y-114714390D01*
X92359573Y-114787170D01*
X92361416Y-114793393D01*
X92380423Y-114864327D01*
X92391135Y-114887298D01*
X92396683Y-114901383D01*
X92405481Y-114928460D01*
X92440128Y-114992847D01*
X92443314Y-114999199D01*
X92472896Y-115062637D01*
X92489406Y-115086215D01*
X92497023Y-115098575D01*
X92512148Y-115126681D01*
X92545826Y-115168912D01*
X92555588Y-115181153D01*
X92560214Y-115187340D01*
X92598403Y-115241878D01*
X92621186Y-115264661D01*
X92630452Y-115275029D01*
X92652493Y-115302667D01*
X92702387Y-115346259D01*
X92708484Y-115351959D01*
X92753123Y-115396598D01*
X92782330Y-115417049D01*
X92792793Y-115425244D01*
X92810440Y-115440662D01*
X92822004Y-115450765D01*
X92875940Y-115482990D01*
X92883435Y-115487843D01*
X92932361Y-115522102D01*
X92939114Y-115525251D01*
X92967799Y-115538628D01*
X92978991Y-115544560D01*
X93015236Y-115566215D01*
X93016387Y-115566647D01*
X93070839Y-115587083D01*
X93079669Y-115590792D01*
X93124003Y-115611466D01*
X93130670Y-115614575D01*
X93171757Y-115625584D01*
X93183235Y-115629266D01*
X93194903Y-115633645D01*
X93225976Y-115645307D01*
X93281024Y-115655296D01*
X93290970Y-115657527D01*
X93342023Y-115671207D01*
X93386133Y-115675065D01*
X93387814Y-115675213D01*
X93399148Y-115676733D01*
X93447453Y-115685500D01*
X93499985Y-115685500D01*
X93510791Y-115685971D01*
X93560000Y-115690277D01*
X93609208Y-115685971D01*
X93612511Y-115685827D01*
X93616145Y-115685500D01*
X93616155Y-115685500D01*
X93670172Y-115680638D01*
X93670180Y-115680727D01*
X93670479Y-115680611D01*
X93777977Y-115671207D01*
X93777977Y-115671206D01*
X93782663Y-115670797D01*
X93784183Y-115670377D01*
X93784188Y-115670377D01*
X93887726Y-115641800D01*
X93888413Y-115641614D01*
X93934500Y-115629266D01*
X93994377Y-115613223D01*
X93999148Y-115611466D01*
X94001166Y-115610494D01*
X94001170Y-115610493D01*
X94094951Y-115565329D01*
X94096007Y-115564830D01*
X94187639Y-115522102D01*
X94187645Y-115522097D01*
X94189392Y-115521283D01*
X94203155Y-115513222D01*
X94203973Y-115512829D01*
X94285324Y-115453722D01*
X94287043Y-115452497D01*
X94366871Y-115396603D01*
X94366873Y-115396600D01*
X94366877Y-115396598D01*
X94367748Y-115395726D01*
X94382543Y-115383089D01*
X94386078Y-115380522D01*
X94453237Y-115310277D01*
X94455097Y-115308377D01*
X94521593Y-115241882D01*
X94521593Y-115241881D01*
X94521598Y-115241877D01*
X94524285Y-115238039D01*
X94536232Y-115223471D01*
X94541632Y-115217825D01*
X94593288Y-115139566D01*
X94595082Y-115136929D01*
X94647102Y-115062639D01*
X94650539Y-115055267D01*
X94659434Y-115039362D01*
X94663255Y-115033573D01*
X94665635Y-115029968D01*
X94701114Y-114946958D01*
X94702713Y-114943377D01*
X94739575Y-114864330D01*
X94742572Y-114853143D01*
X94748324Y-114836508D01*
X94754102Y-114822990D01*
X94754101Y-114822990D01*
X94754103Y-114822988D01*
X94773434Y-114738291D01*
X94774533Y-114733863D01*
X94779752Y-114714387D01*
X94796207Y-114652977D01*
X94797516Y-114638005D01*
X94800153Y-114621227D01*
X94801261Y-114616374D01*
X94804191Y-114603537D01*
X94807934Y-114520183D01*
X94808274Y-114515039D01*
X94815277Y-114435000D01*
X94813667Y-114416608D01*
X94813321Y-114400238D01*
X94814290Y-114378670D01*
X94803549Y-114299385D01*
X94802905Y-114293596D01*
X94797517Y-114231993D01*
X94796208Y-114217027D01*
X94793667Y-114207545D01*
X94790536Y-114195860D01*
X94787434Y-114180414D01*
X94784075Y-114155614D01*
X94777376Y-114134998D01*
X94760421Y-114082816D01*
X94758578Y-114076592D01*
X94739575Y-114005671D01*
X94728867Y-113982708D01*
X94723317Y-113968619D01*
X94714517Y-113941535D01*
X94679869Y-113877148D01*
X94676681Y-113870794D01*
X94647102Y-113807362D01*
X94630591Y-113783782D01*
X94622975Y-113771423D01*
X94607852Y-113743319D01*
X94564404Y-113688837D01*
X94559785Y-113682661D01*
X94521598Y-113628123D01*
X94498804Y-113605329D01*
X94489546Y-113594969D01*
X94487573Y-113592495D01*
X94467508Y-113567334D01*
X94460967Y-113561619D01*
X94417611Y-113523739D01*
X94411514Y-113518039D01*
X94366878Y-113473402D01*
X94337664Y-113452947D01*
X94327210Y-113444759D01*
X94297996Y-113419235D01*
X94295156Y-113417538D01*
X94244073Y-113387017D01*
X94236550Y-113382145D01*
X94187640Y-113347898D01*
X94153343Y-113331905D01*
X94152201Y-113331372D01*
X94141014Y-113325442D01*
X94104764Y-113303784D01*
X94049171Y-113282921D01*
X94040349Y-113279216D01*
X93989330Y-113255425D01*
X93989328Y-113255424D01*
X93956657Y-113246670D01*
X93948228Y-113244411D01*
X93936762Y-113240732D01*
X93894024Y-113224693D01*
X93850636Y-113216818D01*
X93838964Y-113214700D01*
X93829018Y-113212468D01*
X93777980Y-113198793D01*
X93732175Y-113194785D01*
X93720846Y-113193264D01*
X93672550Y-113184500D01*
X93672547Y-113184500D01*
X93620015Y-113184500D01*
X93609208Y-113184028D01*
X93605788Y-113183728D01*
X93560000Y-113179722D01*
X93514211Y-113183728D01*
X93510791Y-113184028D01*
X93507481Y-113184172D01*
X93449916Y-113189352D01*
X93449612Y-113189379D01*
X93337332Y-113199203D01*
X93232522Y-113228129D01*
X93231627Y-113228373D01*
X93125660Y-113256767D01*
X93120809Y-113258553D01*
X93025246Y-113304573D01*
X93023853Y-113305233D01*
X92930634Y-113348703D01*
X92916875Y-113356762D01*
X92916030Y-113357169D01*
X92834662Y-113416284D01*
X92832904Y-113417538D01*
X92753118Y-113473405D01*
X92752235Y-113474289D01*
X92737467Y-113486901D01*
X92733923Y-113489476D01*
X92666846Y-113559632D01*
X92664903Y-113561619D01*
X92598401Y-113628122D01*
X92595708Y-113631968D01*
X92583776Y-113646517D01*
X92578370Y-113652172D01*
X92526775Y-113730333D01*
X92524866Y-113733141D01*
X92472897Y-113807363D01*
X92469460Y-113814734D01*
X92460571Y-113830629D01*
X92454364Y-113840032D01*
X92418893Y-113923021D01*
X92417260Y-113926676D01*
X92410331Y-113941536D01*
X92380423Y-114005673D01*
X92377426Y-114016856D01*
X92371680Y-114033478D01*
X92365897Y-114047009D01*
X92346576Y-114131659D01*
X92345460Y-114136157D01*
X92323793Y-114217020D01*
X92322483Y-114231993D01*
X92319847Y-114248767D01*
X92315809Y-114266460D01*
X92312066Y-114349777D01*
X92311719Y-114355016D01*
X92304723Y-114434995D01*
X92304723Y-114435000D01*
X91902829Y-114435000D01*
X91904016Y-114431123D01*
X91907461Y-114404215D01*
X91910247Y-114389548D01*
X91916134Y-114366305D01*
X91922903Y-114284600D01*
X91923484Y-114279095D01*
X91927368Y-114248767D01*
X91934298Y-114194654D01*
X91933291Y-114170960D01*
X91933602Y-114155481D01*
X91935300Y-114135000D01*
X91928248Y-114049902D01*
X91927938Y-114044944D01*
X91926270Y-114005673D01*
X91924180Y-113956468D01*
X91919907Y-113936642D01*
X91917547Y-113920756D01*
X91916134Y-113903695D01*
X91894328Y-113817589D01*
X91893336Y-113813354D01*
X91873954Y-113723419D01*
X91867665Y-113707770D01*
X91862521Y-113691989D01*
X91859157Y-113678700D01*
X91822102Y-113594224D01*
X91820621Y-113590696D01*
X91785066Y-113502214D01*
X91785064Y-113502210D01*
X91778016Y-113490764D01*
X91770051Y-113475561D01*
X91769493Y-113474289D01*
X91765924Y-113466151D01*
X91713628Y-113386106D01*
X91711879Y-113383350D01*
X91660069Y-113299205D01*
X91653454Y-113291689D01*
X91642730Y-113277588D01*
X91638980Y-113271849D01*
X91638979Y-113271847D01*
X91571876Y-113198953D01*
X91570068Y-113196944D01*
X91568168Y-113194785D01*
X91502564Y-113120245D01*
X91501253Y-113119186D01*
X91497439Y-113116106D01*
X91484115Y-113103619D01*
X91481785Y-113101088D01*
X91400936Y-113038161D01*
X91399199Y-113036783D01*
X91317082Y-112970477D01*
X91314315Y-112968932D01*
X91298637Y-112958538D01*
X91298626Y-112958529D01*
X91205552Y-112908161D01*
X91204209Y-112907423D01*
X91108954Y-112854210D01*
X91108947Y-112854207D01*
X91108753Y-112854099D01*
X91097401Y-112849059D01*
X91046944Y-112831737D01*
X90991252Y-112812617D01*
X90990233Y-112812263D01*
X90881202Y-112773739D01*
X90763772Y-112754144D01*
X90763226Y-112754051D01*
X90649202Y-112734500D01*
X90649200Y-112734500D01*
X90646049Y-112734500D01*
X90413951Y-112734500D01*
X90413949Y-112734500D01*
X90359991Y-112743503D01*
X90350102Y-112744747D01*
X90292460Y-112749653D01*
X90243077Y-112762511D01*
X90232249Y-112764819D01*
X90185023Y-112772701D01*
X90185021Y-112772701D01*
X90185019Y-112772702D01*
X90130056Y-112791570D01*
X90121052Y-112794284D01*
X90061748Y-112809725D01*
X90018361Y-112829337D01*
X90007554Y-112833624D01*
X89965496Y-112848063D01*
X89911395Y-112877341D01*
X89903460Y-112881276D01*
X89844509Y-112907925D01*
X89807882Y-112932679D01*
X89797470Y-112938994D01*
X89761373Y-112958529D01*
X89710124Y-112998417D01*
X89703402Y-113003296D01*
X89646999Y-113041418D01*
X89617549Y-113069643D01*
X89607919Y-113077967D01*
X89578216Y-113101087D01*
X89578214Y-113101088D01*
X89578214Y-113101089D01*
X89531926Y-113151369D01*
X89526500Y-113156905D01*
X89474883Y-113206376D01*
X89452659Y-113236426D01*
X89444196Y-113246670D01*
X89421023Y-113271843D01*
X89381782Y-113331905D01*
X89377671Y-113337815D01*
X89333119Y-113398054D01*
X89317826Y-113428384D01*
X89310917Y-113440371D01*
X89294077Y-113466147D01*
X89263887Y-113534974D01*
X89261054Y-113540987D01*
X89225792Y-113610925D01*
X89216847Y-113640131D01*
X89211842Y-113653620D01*
X89200844Y-113678695D01*
X89181552Y-113754871D01*
X89179912Y-113760736D01*
X89155983Y-113838875D01*
X89152538Y-113865775D01*
X89149750Y-113880455D01*
X89143865Y-113903697D01*
X89137097Y-113985377D01*
X89136517Y-113990886D01*
X89125701Y-114075348D01*
X89126707Y-114099025D01*
X89126396Y-114114520D01*
X89124699Y-114134998D01*
X88000500Y-114134998D01*
X88000500Y-107969999D01*
X89044340Y-107969999D01*
X89064936Y-108205407D01*
X89109709Y-108372501D01*
X89126097Y-108433663D01*
X89225965Y-108647830D01*
X89361505Y-108841401D01*
X89528599Y-109008495D01*
X89722170Y-109144035D01*
X89936337Y-109243903D01*
X90164592Y-109305063D01*
X90400000Y-109325659D01*
X90635408Y-109305063D01*
X90863663Y-109243903D01*
X91077830Y-109144035D01*
X91271401Y-109008495D01*
X91438495Y-108841401D01*
X91568428Y-108655837D01*
X91612742Y-108616975D01*
X91669999Y-108602964D01*
X91727255Y-108616974D01*
X91771573Y-108655839D01*
X91901505Y-108841401D01*
X92068599Y-109008495D01*
X92262170Y-109144035D01*
X92476337Y-109243903D01*
X92704592Y-109305063D01*
X92940000Y-109325659D01*
X93175408Y-109305063D01*
X93403663Y-109243903D01*
X93617830Y-109144035D01*
X93811401Y-109008495D01*
X93933717Y-108886178D01*
X93986460Y-108854885D01*
X94047752Y-108852696D01*
X94102597Y-108880149D01*
X94137577Y-108930528D01*
X94186647Y-109062088D01*
X94272811Y-109177188D01*
X94387910Y-109263352D01*
X94522624Y-109313597D01*
X94582176Y-109320000D01*
X95230000Y-109320000D01*
X95230000Y-106620000D01*
X94582176Y-106620000D01*
X94522624Y-106626402D01*
X94387910Y-106676647D01*
X94272811Y-106762811D01*
X94186646Y-106877913D01*
X94137576Y-107009472D01*
X94102597Y-107059850D01*
X94047753Y-107087303D01*
X93986460Y-107085114D01*
X93933714Y-107053818D01*
X93811404Y-106931508D01*
X93811401Y-106931505D01*
X93617830Y-106795965D01*
X93403663Y-106696097D01*
X93331074Y-106676647D01*
X93175407Y-106634936D01*
X92940000Y-106614340D01*
X92704592Y-106634936D01*
X92476336Y-106696097D01*
X92262170Y-106795965D01*
X92068598Y-106931505D01*
X91901505Y-107098598D01*
X91771575Y-107284159D01*
X91727257Y-107323025D01*
X91670000Y-107337036D01*
X91612743Y-107323025D01*
X91568425Y-107284159D01*
X91438494Y-107098598D01*
X91271404Y-106931508D01*
X91271401Y-106931505D01*
X91077830Y-106795965D01*
X90863663Y-106696097D01*
X90791074Y-106676647D01*
X90635407Y-106634936D01*
X90400000Y-106614340D01*
X90164592Y-106634936D01*
X89936336Y-106696097D01*
X89722170Y-106795965D01*
X89528598Y-106931505D01*
X89361505Y-107098598D01*
X89225965Y-107292170D01*
X89126097Y-107506336D01*
X89064936Y-107734592D01*
X89044340Y-107969999D01*
X88000500Y-107969999D01*
X88000500Y-103250000D01*
X90344540Y-103250000D01*
X90353609Y-103336284D01*
X90364326Y-103438257D01*
X90422820Y-103618284D01*
X90517466Y-103782216D01*
X90644129Y-103922889D01*
X90797269Y-104034151D01*
X90970197Y-104111144D01*
X91155352Y-104150500D01*
X91155354Y-104150500D01*
X91344646Y-104150500D01*
X91344648Y-104150500D01*
X91471437Y-104123550D01*
X91529803Y-104111144D01*
X91702730Y-104034151D01*
X91794078Y-103967783D01*
X91855870Y-103922889D01*
X91982533Y-103782216D01*
X92077179Y-103618284D01*
X92095551Y-103561742D01*
X92135674Y-103438256D01*
X92140864Y-103388866D01*
X92152263Y-103348450D01*
X92176500Y-103314155D01*
X98503837Y-96986819D01*
X98544066Y-96959939D01*
X98591519Y-96950500D01*
X100141844Y-96950500D01*
X100180162Y-96956569D01*
X100214728Y-96974181D01*
X100297270Y-97034151D01*
X100297271Y-97034151D01*
X100297272Y-97034152D01*
X100470197Y-97111144D01*
X100655352Y-97150500D01*
X100655354Y-97150500D01*
X100844646Y-97150500D01*
X100844648Y-97150500D01*
X100968084Y-97124262D01*
X101029803Y-97111144D01*
X101202730Y-97034151D01*
X101202729Y-97034151D01*
X101355870Y-96922889D01*
X101374916Y-96901737D01*
X101482533Y-96782216D01*
X101577179Y-96618284D01*
X101635674Y-96438256D01*
X101655460Y-96250000D01*
X101635674Y-96061744D01*
X101577179Y-95881716D01*
X101577179Y-95881715D01*
X101482533Y-95717783D01*
X101355870Y-95577110D01*
X101202730Y-95465848D01*
X101029802Y-95388855D01*
X100844648Y-95349500D01*
X100844646Y-95349500D01*
X100655354Y-95349500D01*
X100655352Y-95349500D01*
X100470197Y-95388855D01*
X100297272Y-95465847D01*
X100214730Y-95525818D01*
X100180162Y-95543431D01*
X100141844Y-95549500D01*
X98274921Y-95549500D01*
X98267434Y-95549274D01*
X98207391Y-95545641D01*
X98148227Y-95556483D01*
X98140828Y-95557610D01*
X98081124Y-95564860D01*
X98071651Y-95568453D01*
X98050047Y-95574476D01*
X98040069Y-95576305D01*
X97985212Y-95600993D01*
X97978296Y-95603857D01*
X97922070Y-95625181D01*
X97913726Y-95630941D01*
X97894185Y-95641962D01*
X97884941Y-95646122D01*
X97837597Y-95683213D01*
X97831568Y-95687649D01*
X97782070Y-95721816D01*
X97742183Y-95766838D01*
X97737051Y-95772290D01*
X91187027Y-102322315D01*
X91158514Y-102343607D01*
X91125127Y-102355924D01*
X90970197Y-102388855D01*
X90797269Y-102465848D01*
X90644129Y-102577110D01*
X90517466Y-102717783D01*
X90422820Y-102881715D01*
X90364326Y-103061742D01*
X90347947Y-103217580D01*
X90344540Y-103250000D01*
X88000500Y-103250000D01*
X88000500Y-82039999D01*
X90294340Y-82039999D01*
X90314936Y-82275407D01*
X90347148Y-82395623D01*
X90376097Y-82503663D01*
X90475965Y-82717830D01*
X90611505Y-82911401D01*
X90778599Y-83078495D01*
X90972170Y-83214035D01*
X91186337Y-83313903D01*
X91414592Y-83375063D01*
X91650000Y-83395659D01*
X91885408Y-83375063D01*
X92113663Y-83313903D01*
X92327830Y-83214035D01*
X92521401Y-83078495D01*
X92688495Y-82911401D01*
X92824035Y-82717830D01*
X92923903Y-82503663D01*
X92985063Y-82275408D01*
X93005659Y-82040000D01*
X93004382Y-82025409D01*
X92985063Y-81804592D01*
X92985062Y-81804591D01*
X92923903Y-81576337D01*
X92824035Y-81362171D01*
X92688495Y-81168599D01*
X92566181Y-81046285D01*
X92534885Y-80993539D01*
X92532696Y-80932246D01*
X92560149Y-80877401D01*
X92610528Y-80842422D01*
X92742089Y-80793352D01*
X92857188Y-80707188D01*
X92943352Y-80592089D01*
X92993597Y-80457375D01*
X93000000Y-80397824D01*
X93000000Y-79750000D01*
X90300000Y-79750000D01*
X90300000Y-80397824D01*
X90306402Y-80457375D01*
X90356647Y-80592089D01*
X90442811Y-80707188D01*
X90557911Y-80793352D01*
X90689471Y-80842422D01*
X90739850Y-80877401D01*
X90767303Y-80932246D01*
X90765114Y-80993539D01*
X90733819Y-81046285D01*
X90611503Y-81168601D01*
X90475965Y-81362170D01*
X90376097Y-81576336D01*
X90314936Y-81804592D01*
X90294340Y-82039999D01*
X88000500Y-82039999D01*
X88000500Y-79250000D01*
X90300000Y-79250000D01*
X91400000Y-79250000D01*
X91400000Y-78150000D01*
X91900000Y-78150000D01*
X91900000Y-79250000D01*
X93000000Y-79250000D01*
X93000000Y-78602176D01*
X92993597Y-78542624D01*
X92943352Y-78407910D01*
X92857188Y-78292811D01*
X92742089Y-78206647D01*
X92607375Y-78156402D01*
X92547824Y-78150000D01*
X91900000Y-78150000D01*
X91400000Y-78150000D01*
X90752176Y-78150000D01*
X90692624Y-78156402D01*
X90557910Y-78206647D01*
X90442811Y-78292811D01*
X90356647Y-78407910D01*
X90306402Y-78542624D01*
X90300000Y-78602176D01*
X90300000Y-79250000D01*
X88000500Y-79250000D01*
X88000500Y-74500000D01*
X89110000Y-74500000D01*
X89110000Y-75147824D01*
X89116402Y-75207375D01*
X89166647Y-75342089D01*
X89252811Y-75457188D01*
X89367910Y-75543352D01*
X89502624Y-75593597D01*
X89562176Y-75600000D01*
X90210000Y-75600000D01*
X90210000Y-74500000D01*
X89110000Y-74500000D01*
X88000500Y-74500000D01*
X88000500Y-74000000D01*
X89110000Y-74000000D01*
X90210000Y-74000000D01*
X90210000Y-72900000D01*
X89562176Y-72900000D01*
X89502624Y-72906402D01*
X89367910Y-72956647D01*
X89252811Y-73042811D01*
X89166647Y-73157910D01*
X89116402Y-73292624D01*
X89110000Y-73352176D01*
X89110000Y-74000000D01*
X88000500Y-74000000D01*
X88000500Y-65120477D01*
X89499663Y-65120477D01*
X89503506Y-65150651D01*
X89504500Y-65166317D01*
X89504500Y-70690721D01*
X89504460Y-70693863D01*
X89502242Y-70781362D01*
X89512648Y-70839420D01*
X89513957Y-70848749D01*
X89519926Y-70907438D01*
X89529033Y-70936467D01*
X89532772Y-70951702D01*
X89538141Y-70981652D01*
X89560020Y-71036425D01*
X89563180Y-71045300D01*
X89580841Y-71101588D01*
X89595607Y-71128191D01*
X89602337Y-71142364D01*
X89613622Y-71170617D01*
X89646080Y-71219867D01*
X89650961Y-71227923D01*
X89679590Y-71279501D01*
X89699404Y-71302581D01*
X89708856Y-71315116D01*
X89717886Y-71328818D01*
X89725599Y-71340520D01*
X89767300Y-71382221D01*
X89773705Y-71389132D01*
X89812134Y-71433896D01*
X89836193Y-71452519D01*
X89847972Y-71462893D01*
X90856184Y-72471105D01*
X91073399Y-72688319D01*
X91103649Y-72737682D01*
X91108191Y-72795398D01*
X91086036Y-72848885D01*
X91042013Y-72886485D01*
X90985718Y-72900000D01*
X90710000Y-72900000D01*
X90710000Y-75600000D01*
X91357824Y-75600000D01*
X91417375Y-75593597D01*
X91552089Y-75543352D01*
X91667188Y-75457188D01*
X91753352Y-75342089D01*
X91802422Y-75210528D01*
X91837401Y-75160149D01*
X91892246Y-75132696D01*
X91953539Y-75134885D01*
X92006285Y-75166181D01*
X92128599Y-75288495D01*
X92322170Y-75424035D01*
X92536337Y-75523903D01*
X92764592Y-75585063D01*
X93000000Y-75605659D01*
X93235408Y-75585063D01*
X93463663Y-75523903D01*
X93677830Y-75424035D01*
X93871401Y-75288495D01*
X94038495Y-75121401D01*
X94168426Y-74935839D01*
X94212743Y-74896975D01*
X94270000Y-74882964D01*
X94327257Y-74896975D01*
X94371573Y-74935839D01*
X94501505Y-75121401D01*
X94668599Y-75288495D01*
X94862170Y-75424035D01*
X95076337Y-75523903D01*
X95304592Y-75585063D01*
X95540000Y-75605659D01*
X95775408Y-75585063D01*
X96003663Y-75523903D01*
X96217830Y-75424035D01*
X96411401Y-75288495D01*
X96578495Y-75121401D01*
X96708426Y-74935839D01*
X96752743Y-74896975D01*
X96810000Y-74882964D01*
X96867257Y-74896975D01*
X96911573Y-74935839D01*
X97041505Y-75121401D01*
X97208599Y-75288495D01*
X97402170Y-75424035D01*
X97616337Y-75523903D01*
X97827779Y-75580558D01*
X97844592Y-75585063D01*
X98080000Y-75605659D01*
X98315409Y-75585063D01*
X98332219Y-75580559D01*
X98396407Y-75580558D01*
X98451995Y-75612652D01*
X103703181Y-80863838D01*
X103730061Y-80904066D01*
X103739500Y-80951519D01*
X103739500Y-96749852D01*
X103730061Y-96797305D01*
X103703181Y-96837533D01*
X99327533Y-101213181D01*
X99287305Y-101240061D01*
X99239852Y-101249500D01*
X98943539Y-101249500D01*
X98936052Y-101249274D01*
X98876020Y-101245642D01*
X98816871Y-101256481D01*
X98809472Y-101257608D01*
X98749751Y-101264860D01*
X98740270Y-101268456D01*
X98718665Y-101274479D01*
X98708698Y-101276305D01*
X98653863Y-101300984D01*
X98646947Y-101303848D01*
X98590698Y-101325181D01*
X98582354Y-101330941D01*
X98562812Y-101341963D01*
X98553573Y-101346121D01*
X98506223Y-101383216D01*
X98500195Y-101387652D01*
X98450696Y-101421819D01*
X98410812Y-101466838D01*
X98405680Y-101472290D01*
X96292290Y-103585680D01*
X96286838Y-103590812D01*
X96241816Y-103630699D01*
X96207649Y-103680197D01*
X96203213Y-103686226D01*
X96166121Y-103733571D01*
X96161961Y-103742815D01*
X96150941Y-103762354D01*
X96145182Y-103770698D01*
X96123853Y-103826934D01*
X96120989Y-103833848D01*
X96096303Y-103888699D01*
X96094475Y-103898676D01*
X96088454Y-103920277D01*
X96084859Y-103929757D01*
X96077609Y-103989456D01*
X96076483Y-103996855D01*
X96065641Y-104056020D01*
X96069274Y-104116063D01*
X96069500Y-104123550D01*
X96069500Y-106496000D01*
X96052887Y-106558000D01*
X96007500Y-106603387D01*
X95945500Y-106620000D01*
X95730000Y-106620000D01*
X95730000Y-109320000D01*
X96377824Y-109320000D01*
X96437376Y-109313597D01*
X96484922Y-109295863D01*
X96531207Y-109288079D01*
X96577070Y-109298055D01*
X96615939Y-109324363D01*
X112126792Y-124835216D01*
X112156817Y-124883894D01*
X112161802Y-124940869D01*
X112140686Y-124994021D01*
X112091574Y-125064160D01*
X112047256Y-125103025D01*
X111989999Y-125117036D01*
X111932742Y-125103025D01*
X111888426Y-125064161D01*
X111758495Y-124878599D01*
X111591401Y-124711505D01*
X111397830Y-124575965D01*
X111183663Y-124476097D01*
X111111074Y-124456647D01*
X110955407Y-124414936D01*
X110720000Y-124394340D01*
X110484592Y-124414936D01*
X110256336Y-124476097D01*
X110042170Y-124575965D01*
X109848601Y-124711503D01*
X109726285Y-124833819D01*
X109673539Y-124865114D01*
X109612246Y-124867303D01*
X109557401Y-124839850D01*
X109522422Y-124789471D01*
X109473352Y-124657911D01*
X109387188Y-124542811D01*
X109272089Y-124456647D01*
X109137375Y-124406402D01*
X109077824Y-124400000D01*
X108430000Y-124400000D01*
X108430000Y-127100000D01*
X109077824Y-127100000D01*
X109137375Y-127093597D01*
X109272089Y-127043352D01*
X109387188Y-126957188D01*
X109473352Y-126842089D01*
X109522422Y-126710528D01*
X109557401Y-126660149D01*
X109612246Y-126632696D01*
X109673539Y-126634885D01*
X109726284Y-126666180D01*
X109848599Y-126788495D01*
X110042170Y-126924035D01*
X110256337Y-127023903D01*
X110484592Y-127085063D01*
X110720000Y-127105659D01*
X110955408Y-127085063D01*
X111183663Y-127023903D01*
X111397830Y-126924035D01*
X111591401Y-126788495D01*
X111758495Y-126621401D01*
X111888426Y-126435839D01*
X111932743Y-126396975D01*
X111990000Y-126382964D01*
X112047257Y-126396975D01*
X112091573Y-126435839D01*
X112221505Y-126621401D01*
X112388599Y-126788495D01*
X112582170Y-126924035D01*
X112796337Y-127023903D01*
X113024592Y-127085063D01*
X113260000Y-127105659D01*
X113495408Y-127085063D01*
X113723663Y-127023903D01*
X113937830Y-126924035D01*
X114131401Y-126788495D01*
X114298495Y-126621401D01*
X114428426Y-126435839D01*
X114472743Y-126396975D01*
X114530000Y-126382964D01*
X114587257Y-126396975D01*
X114631573Y-126435839D01*
X114761505Y-126621401D01*
X114928599Y-126788495D01*
X115122170Y-126924035D01*
X115336337Y-127023903D01*
X115564592Y-127085063D01*
X115800000Y-127105659D01*
X116035408Y-127085063D01*
X116263663Y-127023903D01*
X116477830Y-126924035D01*
X116671401Y-126788495D01*
X116838495Y-126621401D01*
X116968426Y-126435839D01*
X117012743Y-126396975D01*
X117070000Y-126382964D01*
X117127257Y-126396975D01*
X117171573Y-126435839D01*
X117301505Y-126621401D01*
X117468599Y-126788495D01*
X117662170Y-126924035D01*
X117876337Y-127023903D01*
X118104592Y-127085063D01*
X118340000Y-127105659D01*
X118575408Y-127085063D01*
X118803663Y-127023903D01*
X119017830Y-126924035D01*
X119211401Y-126788495D01*
X119333717Y-126666178D01*
X119386460Y-126634885D01*
X119447752Y-126632696D01*
X119502597Y-126660149D01*
X119537577Y-126710528D01*
X119586647Y-126842088D01*
X119672811Y-126957188D01*
X119787910Y-127043352D01*
X119922624Y-127093597D01*
X119982176Y-127100000D01*
X120630000Y-127100000D01*
X120630000Y-125624000D01*
X120646613Y-125562000D01*
X120692000Y-125516613D01*
X120754000Y-125500000D01*
X121006000Y-125500000D01*
X121068000Y-125516613D01*
X121113387Y-125562000D01*
X121130000Y-125624000D01*
X121130000Y-127100000D01*
X121777824Y-127100000D01*
X121837375Y-127093597D01*
X121972089Y-127043352D01*
X122087188Y-126957188D01*
X122173352Y-126842089D01*
X122222422Y-126710528D01*
X122257401Y-126660149D01*
X122312246Y-126632696D01*
X122373539Y-126634885D01*
X122426284Y-126666180D01*
X122548599Y-126788495D01*
X122742170Y-126924035D01*
X122956337Y-127023903D01*
X123167779Y-127080558D01*
X123184592Y-127085063D01*
X123420000Y-127105659D01*
X123655409Y-127085063D01*
X123672219Y-127080559D01*
X123736407Y-127080558D01*
X123791995Y-127112652D01*
X124157058Y-127477715D01*
X124162178Y-127483153D01*
X124202071Y-127528183D01*
X124251577Y-127562355D01*
X124257597Y-127566785D01*
X124304941Y-127603877D01*
X124304942Y-127603877D01*
X124304943Y-127603878D01*
X124314184Y-127608037D01*
X124333730Y-127619061D01*
X124342070Y-127624818D01*
X124398313Y-127646147D01*
X124405217Y-127649007D01*
X124460069Y-127673695D01*
X124470044Y-127675522D01*
X124491656Y-127681547D01*
X124501128Y-127685140D01*
X124560841Y-127692390D01*
X124568185Y-127693507D01*
X124627394Y-127704358D01*
X124684102Y-127700927D01*
X124687434Y-127700726D01*
X124694921Y-127700500D01*
X146270079Y-127700500D01*
X146277566Y-127700726D01*
X146280706Y-127700915D01*
X146337606Y-127704358D01*
X146396782Y-127693513D01*
X146404181Y-127692387D01*
X146463872Y-127685140D01*
X146473335Y-127681550D01*
X146494958Y-127675522D01*
X146504932Y-127673695D01*
X146559808Y-127648996D01*
X146566673Y-127646152D01*
X146622930Y-127624818D01*
X146631270Y-127619060D01*
X146650819Y-127608035D01*
X146660057Y-127603878D01*
X146707413Y-127566775D01*
X146713420Y-127562355D01*
X146762929Y-127528183D01*
X146802823Y-127483150D01*
X146807924Y-127477731D01*
X150485723Y-123799932D01*
X189494831Y-123799932D01*
X189519706Y-124198472D01*
X189584137Y-124592547D01*
X189601652Y-124657913D01*
X189687489Y-124978259D01*
X189828729Y-125351759D01*
X190006456Y-125709340D01*
X190218904Y-126047449D01*
X190218907Y-126047453D01*
X190258251Y-126098070D01*
X190463960Y-126362723D01*
X190739190Y-126652032D01*
X191041859Y-126912499D01*
X191368957Y-127141536D01*
X191717235Y-127336866D01*
X192083230Y-127496549D01*
X192463305Y-127618996D01*
X192853685Y-127702991D01*
X193250487Y-127747700D01*
X193350307Y-127748944D01*
X193649766Y-127752678D01*
X193649766Y-127752677D01*
X193649769Y-127752678D01*
X194047564Y-127717876D01*
X194119008Y-127704358D01*
X194439916Y-127643639D01*
X194613927Y-127592330D01*
X194822926Y-127530705D01*
X195192788Y-127380197D01*
X195545828Y-127193611D01*
X195878534Y-126972800D01*
X196187602Y-126719959D01*
X196470741Y-126436819D01*
X196510970Y-126409939D01*
X196558423Y-126400500D01*
X197375500Y-126400500D01*
X197437500Y-126417113D01*
X197482887Y-126462500D01*
X197499500Y-126524500D01*
X197499500Y-127397869D01*
X197505909Y-127457484D01*
X197513455Y-127477715D01*
X197556204Y-127592331D01*
X197642454Y-127707546D01*
X197757669Y-127793796D01*
X197892517Y-127844091D01*
X197952127Y-127850500D01*
X200047872Y-127850499D01*
X200107483Y-127844091D01*
X200242331Y-127793796D01*
X200357546Y-127707546D01*
X200443796Y-127592331D01*
X200494091Y-127457483D01*
X200500500Y-127397873D01*
X200500499Y-126402128D01*
X200494091Y-126342517D01*
X200462539Y-126257923D01*
X200456494Y-126193706D01*
X200483523Y-126135137D01*
X200536312Y-126098071D01*
X200555867Y-126090954D01*
X200566118Y-126086016D01*
X200596706Y-126071286D01*
X200605196Y-126067581D01*
X200647402Y-126051018D01*
X200779390Y-125983350D01*
X200782046Y-125982030D01*
X200915636Y-125917698D01*
X200954309Y-125894064D01*
X200962385Y-125889534D01*
X201002739Y-125868847D01*
X201127260Y-125788421D01*
X201129874Y-125786780D01*
X201256364Y-125709484D01*
X201256556Y-125709339D01*
X201268107Y-125700588D01*
X201292499Y-125682113D01*
X201300096Y-125676793D01*
X201338173Y-125652201D01*
X201454144Y-125559715D01*
X201456442Y-125557929D01*
X201574672Y-125468375D01*
X201607910Y-125437533D01*
X201614914Y-125431505D01*
X201650369Y-125403233D01*
X201756516Y-125299698D01*
X201758700Y-125297621D01*
X201867390Y-125196773D01*
X201897393Y-125162773D01*
X201903763Y-125156078D01*
X201936224Y-125124418D01*
X202031554Y-125010807D01*
X202033484Y-125008564D01*
X202131610Y-124897375D01*
X202158078Y-124860559D01*
X202163752Y-124853259D01*
X202192898Y-124818526D01*
X202276449Y-124695977D01*
X202278129Y-124693577D01*
X202364706Y-124573158D01*
X202387366Y-124533908D01*
X202392298Y-124526058D01*
X202417839Y-124488598D01*
X202467723Y-124396994D01*
X202488936Y-124368624D01*
X205699325Y-121158237D01*
X205699329Y-121158231D01*
X205703687Y-121153874D01*
X205703696Y-121153863D01*
X207010632Y-119846927D01*
X207011571Y-119845999D01*
X207136224Y-119724418D01*
X207215012Y-119630519D01*
X207217993Y-119627098D01*
X207300233Y-119536221D01*
X207342444Y-119479025D01*
X207347180Y-119473009D01*
X207392898Y-119418526D01*
X207461949Y-119317245D01*
X207464591Y-119313521D01*
X207537353Y-119214934D01*
X207573667Y-119153807D01*
X207577798Y-119147326D01*
X207617839Y-119088598D01*
X207676453Y-118980961D01*
X207678693Y-118977023D01*
X207741306Y-118871635D01*
X207771361Y-118807178D01*
X207774812Y-118800343D01*
X207808812Y-118737912D01*
X207856415Y-118624979D01*
X207858272Y-118620798D01*
X207910062Y-118509737D01*
X207918094Y-118486783D01*
X207933538Y-118442643D01*
X207936316Y-118435436D01*
X207947194Y-118409632D01*
X207963919Y-118369955D01*
X208000042Y-118252845D01*
X208001469Y-118248506D01*
X208041947Y-118132829D01*
X208058621Y-118063752D01*
X208060668Y-118056302D01*
X208081616Y-117988391D01*
X208081619Y-117988382D01*
X208105902Y-117868258D01*
X208106894Y-117863784D01*
X208135650Y-117744665D01*
X208145368Y-117674234D01*
X208146652Y-117666673D01*
X208160741Y-117596986D01*
X208172940Y-117475066D01*
X208173487Y-117470474D01*
X208190237Y-117349101D01*
X208192893Y-117278093D01*
X208193422Y-117270380D01*
X208200500Y-117199653D01*
X208200500Y-117077132D01*
X208200587Y-117072495D01*
X208205168Y-116950067D01*
X208200741Y-116879138D01*
X208200500Y-116871413D01*
X208200500Y-106625671D01*
X208200510Y-106624125D01*
X208202678Y-106450235D01*
X208202678Y-106450231D01*
X208191996Y-106328147D01*
X208191683Y-106323582D01*
X208185575Y-106201183D01*
X208174979Y-106130889D01*
X208174069Y-106123233D01*
X208167876Y-106052438D01*
X208145094Y-105932034D01*
X208144317Y-105927460D01*
X208126061Y-105806336D01*
X208126060Y-105806335D01*
X208126060Y-105806330D01*
X208108521Y-105737452D01*
X208106852Y-105729916D01*
X208093640Y-105660088D01*
X208069301Y-105577546D01*
X208058972Y-105542516D01*
X208057768Y-105538133D01*
X208027527Y-105419364D01*
X208020661Y-105400500D01*
X208003220Y-105352581D01*
X208000804Y-105345239D01*
X207980706Y-105277078D01*
X207980705Y-105277074D01*
X207947772Y-105196144D01*
X207934521Y-105163579D01*
X207932854Y-105159253D01*
X207916558Y-105114479D01*
X207890954Y-105044133D01*
X207885399Y-105032598D01*
X207860120Y-104980104D01*
X207856986Y-104973042D01*
X207830197Y-104907213D01*
X207830197Y-104907212D01*
X207772934Y-104798864D01*
X207770861Y-104794757D01*
X207717699Y-104684366D01*
X207680648Y-104623734D01*
X207676826Y-104617017D01*
X207643614Y-104554178D01*
X207642054Y-104551828D01*
X207575838Y-104452057D01*
X207573383Y-104448204D01*
X207509482Y-104343633D01*
X207509480Y-104343630D01*
X207509478Y-104343627D01*
X207466573Y-104286986D01*
X207462099Y-104280680D01*
X207422804Y-104221470D01*
X207345212Y-104126623D01*
X207342344Y-104122980D01*
X207268377Y-104025330D01*
X207247189Y-104002495D01*
X207220033Y-103973228D01*
X207214970Y-103967418D01*
X207211038Y-103962611D01*
X207169960Y-103912398D01*
X207083324Y-103825762D01*
X207080108Y-103822423D01*
X206996777Y-103732614D01*
X206996775Y-103732612D01*
X206996773Y-103732610D01*
X206943484Y-103685582D01*
X206937852Y-103680290D01*
X204860242Y-101602681D01*
X204828148Y-101547094D01*
X204828148Y-101482906D01*
X204860242Y-101427319D01*
X205121381Y-101166181D01*
X205399325Y-100888237D01*
X205600233Y-100666221D01*
X205837353Y-100344934D01*
X206041306Y-100001635D01*
X206210063Y-99639734D01*
X206341947Y-99262829D01*
X206435650Y-98874665D01*
X206490237Y-98479101D01*
X206505168Y-98080066D01*
X206480294Y-97681528D01*
X206415861Y-97287448D01*
X206312511Y-96901741D01*
X206171271Y-96528241D01*
X205993544Y-96170660D01*
X205781096Y-95832551D01*
X205536040Y-95517276D01*
X205260810Y-95227968D01*
X205181879Y-95160042D01*
X204958146Y-94967504D01*
X204631039Y-94738461D01*
X204282768Y-94543135D01*
X203916766Y-94383449D01*
X203536698Y-94261005D01*
X203536695Y-94261004D01*
X203146315Y-94177009D01*
X203146312Y-94177008D01*
X203146309Y-94177008D01*
X202749511Y-94132299D01*
X202350233Y-94127321D01*
X201952435Y-94162123D01*
X201560083Y-94236360D01*
X201177081Y-94349292D01*
X200807203Y-94499806D01*
X200454172Y-94686388D01*
X200121469Y-94907197D01*
X199812395Y-95160042D01*
X197189446Y-97782991D01*
X197188347Y-97784076D01*
X197063783Y-97905574D01*
X196985010Y-97999451D01*
X196981964Y-98002945D01*
X196899766Y-98093779D01*
X196857569Y-98150952D01*
X196852793Y-98157019D01*
X196807098Y-98211477D01*
X196738080Y-98312709D01*
X196735398Y-98316490D01*
X196662644Y-98415069D01*
X196626349Y-98476161D01*
X196622198Y-98482677D01*
X196582160Y-98541403D01*
X196523567Y-98648996D01*
X196521274Y-98653025D01*
X196458697Y-98758357D01*
X196428657Y-98822778D01*
X196425176Y-98829673D01*
X196391189Y-98892085D01*
X196343595Y-99004991D01*
X196341715Y-99009228D01*
X196289936Y-99120268D01*
X196266464Y-99187345D01*
X196263687Y-99194551D01*
X196236083Y-99260038D01*
X196199964Y-99377129D01*
X196198515Y-99381530D01*
X196158053Y-99497169D01*
X196141379Y-99566241D01*
X196139333Y-99573691D01*
X196118380Y-99641617D01*
X196094105Y-99761698D01*
X196093102Y-99766223D01*
X196064350Y-99885331D01*
X196054633Y-99955742D01*
X196053339Y-99963357D01*
X196039258Y-100033012D01*
X196027059Y-100154926D01*
X196026511Y-100159529D01*
X196009762Y-100280901D01*
X196007105Y-100351912D01*
X196006576Y-100359620D01*
X195999500Y-100430342D01*
X195999500Y-100552868D01*
X195999413Y-100557505D01*
X195994831Y-100679932D01*
X195999259Y-100750862D01*
X195999500Y-100758587D01*
X195999500Y-101456231D01*
X195985376Y-101513706D01*
X195946220Y-101558087D01*
X195890954Y-101579264D01*
X195832167Y-101572413D01*
X195707485Y-101525909D01*
X195687613Y-101523772D01*
X195647873Y-101519500D01*
X195647869Y-101519500D01*
X192352130Y-101519500D01*
X192292515Y-101525909D01*
X192157669Y-101576204D01*
X192042454Y-101662454D01*
X191956204Y-101777668D01*
X191905909Y-101912516D01*
X191899500Y-101972130D01*
X191899500Y-105267869D01*
X191905909Y-105327484D01*
X191915270Y-105352581D01*
X191956204Y-105462331D01*
X192042454Y-105577546D01*
X192157669Y-105663796D01*
X192292517Y-105714091D01*
X192352127Y-105720500D01*
X195647872Y-105720499D01*
X195707483Y-105714091D01*
X195842331Y-105663796D01*
X195957546Y-105577546D01*
X196043796Y-105462331D01*
X196094091Y-105327483D01*
X196100500Y-105267873D01*
X196100499Y-104066093D01*
X196118052Y-104002495D01*
X196165741Y-103956900D01*
X196230066Y-103942220D01*
X196292814Y-103962611D01*
X196336222Y-104012299D01*
X196339882Y-104019900D01*
X196343013Y-104026956D01*
X196369804Y-104092790D01*
X196427060Y-104201127D01*
X196429146Y-104205258D01*
X196482302Y-104315636D01*
X196482303Y-104315637D01*
X196519355Y-104376271D01*
X196523171Y-104382976D01*
X196553387Y-104440148D01*
X196556393Y-104445835D01*
X196624143Y-104547917D01*
X196626635Y-104551828D01*
X196690518Y-104656368D01*
X196733430Y-104713019D01*
X196737903Y-104719323D01*
X196777199Y-104778533D01*
X196854782Y-104873370D01*
X196857650Y-104877013D01*
X196931622Y-104974669D01*
X196979967Y-105026773D01*
X196985043Y-105032598D01*
X197030041Y-105087602D01*
X197116660Y-105174221D01*
X197119877Y-105177561D01*
X197203222Y-105267385D01*
X197203227Y-105267390D01*
X197214205Y-105277078D01*
X197256521Y-105314422D01*
X197262153Y-105319714D01*
X200163181Y-108220743D01*
X200190061Y-108260971D01*
X200199500Y-108308424D01*
X200199500Y-112327756D01*
X200180605Y-112393550D01*
X200129680Y-112439293D01*
X200062243Y-112451045D01*
X200047875Y-112449500D01*
X197952130Y-112449500D01*
X197892515Y-112455909D01*
X197757669Y-112506204D01*
X197642454Y-112592454D01*
X197556204Y-112707668D01*
X197505909Y-112842516D01*
X197499500Y-112902130D01*
X197499500Y-113897869D01*
X197505909Y-113957484D01*
X197523882Y-114005671D01*
X197556204Y-114092331D01*
X197642454Y-114207546D01*
X197757669Y-114293796D01*
X197892517Y-114344091D01*
X197952127Y-114350500D01*
X200047872Y-114350499D01*
X200047874Y-114350499D01*
X200059612Y-114349237D01*
X200062244Y-114348954D01*
X200129680Y-114360706D01*
X200180606Y-114406449D01*
X200199500Y-114472243D01*
X200199500Y-115291576D01*
X200190061Y-115339029D01*
X200163180Y-115379258D01*
X200112404Y-115430032D01*
X200112402Y-115430036D01*
X200112398Y-115430040D01*
X198643301Y-116899138D01*
X197179258Y-118363181D01*
X197139030Y-118390061D01*
X197091577Y-118399500D01*
X195520613Y-118399500D01*
X195462435Y-118385005D01*
X195417859Y-118344909D01*
X195397305Y-118288585D01*
X195405580Y-118229202D01*
X195485687Y-118030164D01*
X195539783Y-117789963D01*
X195550000Y-117645267D01*
X195550000Y-116899138D01*
X195549999Y-116899137D01*
X193977452Y-118471684D01*
X193947718Y-118493630D01*
X193912837Y-118505839D01*
X193910090Y-118506358D01*
X193792539Y-118541019D01*
X193788069Y-118542246D01*
X193669371Y-118572471D01*
X193669369Y-118572471D01*
X193669364Y-118572473D01*
X193602575Y-118596782D01*
X193595237Y-118599196D01*
X193527072Y-118619295D01*
X193413596Y-118665471D01*
X193409272Y-118667137D01*
X193294135Y-118709044D01*
X193230093Y-118739884D01*
X193223035Y-118743016D01*
X193157210Y-118769803D01*
X193048892Y-118827050D01*
X193044755Y-118829138D01*
X192934368Y-118882299D01*
X192873726Y-118919355D01*
X192867015Y-118923174D01*
X192804165Y-118956392D01*
X192702078Y-119024144D01*
X192698171Y-119026634D01*
X192593632Y-119090518D01*
X192536976Y-119133432D01*
X192530678Y-119137901D01*
X192471457Y-119177206D01*
X192376639Y-119254774D01*
X192372997Y-119257642D01*
X192275330Y-119331622D01*
X192223225Y-119379968D01*
X192217402Y-119385042D01*
X192162403Y-119430036D01*
X192075762Y-119516675D01*
X192072424Y-119519889D01*
X191982613Y-119603223D01*
X191935575Y-119656522D01*
X191930285Y-119662152D01*
X190600685Y-120991752D01*
X190399765Y-121213781D01*
X190162647Y-121535066D01*
X189958693Y-121878365D01*
X189789937Y-122240263D01*
X189705420Y-122481803D01*
X189658053Y-122617171D01*
X189620878Y-122771169D01*
X189564349Y-123005338D01*
X189509762Y-123400902D01*
X189494831Y-123799932D01*
X150485723Y-123799932D01*
X185655654Y-88630000D01*
X191912193Y-88630000D01*
X191914698Y-88666621D01*
X191973148Y-88947897D01*
X192069354Y-89218593D01*
X192201528Y-89473679D01*
X192367195Y-89708375D01*
X192563292Y-89918344D01*
X192786143Y-90099646D01*
X193031605Y-90248915D01*
X193295107Y-90363370D01*
X193571745Y-90440881D01*
X193750000Y-90465381D01*
X193750000Y-88630000D01*
X194250000Y-88630000D01*
X194250000Y-90465381D01*
X194428254Y-90440881D01*
X194704892Y-90363370D01*
X194968394Y-90248915D01*
X195213856Y-90099646D01*
X195436707Y-89918344D01*
X195632804Y-89708375D01*
X195798471Y-89473679D01*
X195930645Y-89218593D01*
X196026851Y-88947897D01*
X196085301Y-88666621D01*
X196087807Y-88630000D01*
X194250000Y-88630000D01*
X193750000Y-88630000D01*
X191912193Y-88630000D01*
X185655654Y-88630000D01*
X186155654Y-88130000D01*
X191912193Y-88130000D01*
X193750000Y-88130000D01*
X193750000Y-86294618D01*
X194250000Y-86294618D01*
X194250000Y-88130000D01*
X196087807Y-88130000D01*
X196087806Y-88129999D01*
X196085301Y-88093378D01*
X196026851Y-87812102D01*
X195930645Y-87541406D01*
X195798471Y-87286320D01*
X195632804Y-87051624D01*
X195436707Y-86841655D01*
X195213856Y-86660353D01*
X194968394Y-86511084D01*
X194704892Y-86396629D01*
X194428254Y-86319118D01*
X194250000Y-86294618D01*
X193750000Y-86294618D01*
X193571745Y-86319118D01*
X193295107Y-86396629D01*
X193031605Y-86511084D01*
X192786143Y-86660353D01*
X192563292Y-86841655D01*
X192367195Y-87051624D01*
X192201528Y-87286320D01*
X192069354Y-87541406D01*
X191973148Y-87812102D01*
X191914698Y-88093378D01*
X191912193Y-88129999D01*
X191912193Y-88130000D01*
X186155654Y-88130000D01*
X194698005Y-79587649D01*
X194753592Y-79555557D01*
X194817778Y-79555557D01*
X194834592Y-79560063D01*
X195070000Y-79580659D01*
X195305408Y-79560063D01*
X195533663Y-79498903D01*
X195747830Y-79399035D01*
X195941401Y-79263495D01*
X196108495Y-79096401D01*
X196244035Y-78902830D01*
X196288633Y-78807189D01*
X197694857Y-78807189D01*
X197699423Y-78936944D01*
X197699500Y-78941304D01*
X197699500Y-78965528D01*
X197703179Y-79043952D01*
X197703238Y-79045403D01*
X197709707Y-79229286D01*
X197712451Y-79250451D01*
X197713343Y-79260575D01*
X197714344Y-79281892D01*
X197740148Y-79464127D01*
X197740343Y-79465565D01*
X197764018Y-79648140D01*
X197768732Y-79668957D01*
X197770567Y-79678947D01*
X197773560Y-79700082D01*
X197816344Y-79879214D01*
X197816673Y-79880629D01*
X197857313Y-80060070D01*
X197863955Y-80080350D01*
X197866721Y-80090135D01*
X197871679Y-80110895D01*
X197931030Y-80285183D01*
X197931489Y-80286559D01*
X197975390Y-80420598D01*
X197988771Y-80461453D01*
X197989140Y-80462301D01*
X197997281Y-80481019D01*
X198000949Y-80490496D01*
X198007833Y-80510710D01*
X198044371Y-80592089D01*
X198083279Y-80678748D01*
X198083798Y-80679921D01*
X198157239Y-80848762D01*
X198167542Y-80867442D01*
X198172078Y-80876528D01*
X198173051Y-80878695D01*
X198180830Y-80896020D01*
X198271630Y-81056167D01*
X198272340Y-81057436D01*
X198361234Y-81218596D01*
X198373246Y-81236236D01*
X198378612Y-81244856D01*
X198389144Y-81263430D01*
X198494573Y-81414417D01*
X198495397Y-81415613D01*
X198598961Y-81567695D01*
X198612570Y-81584130D01*
X198618731Y-81592224D01*
X198630954Y-81609730D01*
X198750000Y-81750111D01*
X198750934Y-81751225D01*
X198868334Y-81893003D01*
X198868337Y-81893006D01*
X198868338Y-81893007D01*
X198883439Y-81908108D01*
X198890321Y-81915579D01*
X198904119Y-81931850D01*
X199035803Y-82060483D01*
X199036836Y-82061505D01*
X199392289Y-82416957D01*
X199626489Y-82630163D01*
X199964067Y-82883995D01*
X200323930Y-83105101D01*
X200702917Y-83291536D01*
X201097696Y-83441664D01*
X201504799Y-83554164D01*
X201920649Y-83628048D01*
X202341589Y-83662666D01*
X202341594Y-83662665D01*
X202341595Y-83662666D01*
X202499963Y-83660809D01*
X202763922Y-83657715D01*
X203183935Y-83613238D01*
X203597937Y-83529626D01*
X204002291Y-83407613D01*
X204393442Y-83248272D01*
X204767955Y-83053004D01*
X205122536Y-82823523D01*
X205454071Y-82561848D01*
X205759644Y-82270276D01*
X206036573Y-81951371D01*
X206282421Y-81607936D01*
X206495029Y-81242988D01*
X206672529Y-80859735D01*
X206813361Y-80461545D01*
X206916286Y-80051916D01*
X206980402Y-79634450D01*
X207005142Y-79212813D01*
X206990292Y-78790713D01*
X206935981Y-78371858D01*
X206842686Y-77959929D01*
X206711229Y-77558547D01*
X206710791Y-77557540D01*
X206710602Y-77556633D01*
X206709418Y-77553017D01*
X206709822Y-77552884D01*
X206700500Y-77508080D01*
X206700500Y-76739562D01*
X206709122Y-76694131D01*
X206764931Y-76552397D01*
X206770855Y-76531895D01*
X206774070Y-76522271D01*
X206781664Y-76502304D01*
X206830758Y-76324644D01*
X206831063Y-76323568D01*
X206882196Y-76146641D01*
X206886178Y-76125658D01*
X206888475Y-76115784D01*
X206894164Y-76095201D01*
X206926402Y-75913741D01*
X206926601Y-75912660D01*
X206960949Y-75731686D01*
X206962949Y-75710420D01*
X206964310Y-75700385D01*
X206968048Y-75679351D01*
X206983143Y-75495789D01*
X206983266Y-75494398D01*
X206989667Y-75426354D01*
X207000500Y-75311181D01*
X207000500Y-75289842D01*
X207000917Y-75279679D01*
X207001041Y-75278166D01*
X207002666Y-75258411D01*
X207002219Y-75220321D01*
X207000509Y-75074413D01*
X207000500Y-75072959D01*
X207000500Y-71434473D01*
X207000169Y-71427416D01*
X206985655Y-71118103D01*
X206926438Y-70699913D01*
X206828321Y-70289106D01*
X206692167Y-69889292D01*
X206604759Y-69694610D01*
X206519173Y-69503986D01*
X206310856Y-69136569D01*
X206069054Y-68790282D01*
X206069050Y-68790276D01*
X205795879Y-68468148D01*
X205641189Y-68317042D01*
X205493738Y-68173008D01*
X205165303Y-67907472D01*
X204983154Y-67786535D01*
X204813433Y-67673849D01*
X204813426Y-67673845D01*
X204441240Y-67474205D01*
X204051980Y-67310289D01*
X203649083Y-67183544D01*
X203236089Y-67095085D01*
X202816626Y-67045686D01*
X202446454Y-67037007D01*
X202394381Y-67035786D01*
X202394379Y-67035786D01*
X202394375Y-67035786D01*
X201973069Y-67065466D01*
X201556374Y-67134472D01*
X201147984Y-67242192D01*
X200751473Y-67387681D01*
X200370323Y-67569662D01*
X200007891Y-67786535D01*
X199667369Y-68036387D01*
X199667364Y-68036391D01*
X199587921Y-68107028D01*
X199351724Y-68317042D01*
X199063756Y-68626011D01*
X198805989Y-68960584D01*
X198580677Y-69317837D01*
X198389815Y-69694605D01*
X198235069Y-70087603D01*
X198117802Y-70493364D01*
X198039051Y-70908310D01*
X197999500Y-71328818D01*
X197999500Y-73760438D01*
X197990878Y-73805869D01*
X197935066Y-73947609D01*
X197929142Y-73968103D01*
X197925926Y-73977733D01*
X197918334Y-73997699D01*
X197869296Y-74175154D01*
X197868901Y-74176552D01*
X197817803Y-74353361D01*
X197813823Y-74374328D01*
X197811521Y-74384223D01*
X197805837Y-74404793D01*
X197773617Y-74586135D01*
X197773354Y-74587562D01*
X197739052Y-74768303D01*
X197737052Y-74789559D01*
X197735686Y-74799627D01*
X197731952Y-74820646D01*
X197716860Y-75004158D01*
X197716732Y-75005606D01*
X197699500Y-75188818D01*
X197699500Y-75210158D01*
X197699083Y-75220321D01*
X197697333Y-75241596D01*
X197699491Y-75425587D01*
X197699500Y-75427041D01*
X197699500Y-78724442D01*
X197699287Y-78731706D01*
X197694857Y-78807189D01*
X196288633Y-78807189D01*
X196343903Y-78688663D01*
X196405063Y-78460408D01*
X196425659Y-78225000D01*
X196405063Y-77989592D01*
X196343903Y-77761337D01*
X196244035Y-77547171D01*
X196108495Y-77353599D01*
X195941401Y-77186505D01*
X195747830Y-77050965D01*
X195533663Y-76951097D01*
X195461074Y-76931647D01*
X195305407Y-76889936D01*
X195070000Y-76869340D01*
X194834592Y-76889936D01*
X194606336Y-76951097D01*
X194392170Y-77050965D01*
X194198598Y-77186505D01*
X194031505Y-77353598D01*
X193901575Y-77539159D01*
X193857257Y-77578025D01*
X193800000Y-77592036D01*
X193742743Y-77578025D01*
X193698425Y-77539159D01*
X193568494Y-77353598D01*
X193401404Y-77186508D01*
X193401401Y-77186505D01*
X193207830Y-77050965D01*
X192993663Y-76951097D01*
X192921074Y-76931647D01*
X192765407Y-76889936D01*
X192530000Y-76869340D01*
X192294592Y-76889936D01*
X192066336Y-76951097D01*
X191852170Y-77050965D01*
X191658598Y-77186505D01*
X191491505Y-77353598D01*
X191361575Y-77539159D01*
X191317257Y-77578025D01*
X191260000Y-77592036D01*
X191202743Y-77578025D01*
X191158425Y-77539159D01*
X191028494Y-77353598D01*
X190861404Y-77186508D01*
X190861401Y-77186505D01*
X190667830Y-77050965D01*
X190453663Y-76951097D01*
X190381074Y-76931647D01*
X190225407Y-76889936D01*
X189990000Y-76869340D01*
X189754592Y-76889936D01*
X189526336Y-76951097D01*
X189312170Y-77050965D01*
X189118601Y-77186503D01*
X188996285Y-77308819D01*
X188943539Y-77340114D01*
X188882246Y-77342303D01*
X188827401Y-77314850D01*
X188792422Y-77264471D01*
X188743352Y-77132911D01*
X188657188Y-77017811D01*
X188542089Y-76931647D01*
X188407375Y-76881402D01*
X188347824Y-76875000D01*
X187700000Y-76875000D01*
X187700000Y-79575000D01*
X188127798Y-79575000D01*
X188184093Y-79588515D01*
X188228116Y-79626115D01*
X188250271Y-79679602D01*
X188245729Y-79737318D01*
X188215479Y-79786681D01*
X187838980Y-80163181D01*
X187798752Y-80190061D01*
X187751299Y-80199500D01*
X143014262Y-80199500D01*
X143011121Y-80199460D01*
X143009839Y-80199427D01*
X142923637Y-80197242D01*
X142865580Y-80207648D01*
X142856251Y-80208957D01*
X142797562Y-80214926D01*
X142768527Y-80224035D01*
X142753290Y-80227774D01*
X142723350Y-80233141D01*
X142668567Y-80255022D01*
X142659698Y-80258179D01*
X142603410Y-80275841D01*
X142576809Y-80290605D01*
X142562639Y-80297335D01*
X142534385Y-80308622D01*
X142485121Y-80341087D01*
X142477070Y-80345964D01*
X142425494Y-80374592D01*
X142402412Y-80394407D01*
X142389887Y-80403851D01*
X142364481Y-80420596D01*
X142322777Y-80462301D01*
X142315868Y-80468704D01*
X142271104Y-80507133D01*
X142252479Y-80531194D01*
X142242107Y-80542970D01*
X141731899Y-81053181D01*
X141691671Y-81080061D01*
X141644218Y-81089500D01*
X125974000Y-81089500D01*
X125912000Y-81072887D01*
X125866613Y-81027500D01*
X125850000Y-80965500D01*
X125850000Y-80790000D01*
X123150000Y-80790000D01*
X123150000Y-80965500D01*
X123133387Y-81027500D01*
X123088000Y-81072887D01*
X123026000Y-81089500D01*
X114755783Y-81089500D01*
X114708330Y-81080061D01*
X114668102Y-81053181D01*
X100412789Y-66797869D01*
X101797000Y-66797869D01*
X101803409Y-66857484D01*
X101824440Y-66913870D01*
X101853704Y-66992331D01*
X101939954Y-67107546D01*
X102055169Y-67193796D01*
X102190017Y-67244091D01*
X102249627Y-67250500D01*
X103284216Y-67250499D01*
X103331669Y-67259938D01*
X103371897Y-67286818D01*
X104232432Y-68147352D01*
X104234625Y-68149601D01*
X104294942Y-68213054D01*
X104343362Y-68246755D01*
X104350871Y-68252416D01*
X104396593Y-68289698D01*
X104423562Y-68303785D01*
X104436982Y-68311916D01*
X104461949Y-68329294D01*
X104461950Y-68329294D01*
X104461951Y-68329295D01*
X104490105Y-68341377D01*
X104516163Y-68352559D01*
X104524663Y-68356595D01*
X104558286Y-68374159D01*
X104576951Y-68383909D01*
X104606196Y-68392277D01*
X104620986Y-68397543D01*
X104628464Y-68400752D01*
X104648942Y-68409540D01*
X104706737Y-68421416D01*
X104715854Y-68423654D01*
X104772582Y-68439887D01*
X104802916Y-68442196D01*
X104818453Y-68444374D01*
X104848259Y-68450500D01*
X104907242Y-68450500D01*
X104916656Y-68450858D01*
X104975476Y-68455337D01*
X105005651Y-68451493D01*
X105021317Y-68450500D01*
X123675500Y-68450500D01*
X123737500Y-68467113D01*
X123782887Y-68512500D01*
X123799500Y-68574500D01*
X123799500Y-76777289D01*
X123785489Y-76834546D01*
X123746623Y-76878864D01*
X123628598Y-76961505D01*
X123461505Y-77128598D01*
X123325965Y-77322170D01*
X123226097Y-77536336D01*
X123164936Y-77764592D01*
X123144340Y-78000000D01*
X123164936Y-78235407D01*
X123201498Y-78371858D01*
X123226097Y-78463663D01*
X123325965Y-78677830D01*
X123461505Y-78871401D01*
X123461507Y-78871403D01*
X123461508Y-78871404D01*
X123583818Y-78993714D01*
X123615114Y-79046460D01*
X123617303Y-79107753D01*
X123589850Y-79162597D01*
X123539472Y-79197576D01*
X123407913Y-79246646D01*
X123292811Y-79332811D01*
X123206647Y-79447910D01*
X123156402Y-79582624D01*
X123150000Y-79642176D01*
X123150000Y-80290000D01*
X125850000Y-80290000D01*
X125850000Y-79642176D01*
X125843597Y-79582624D01*
X125793352Y-79447910D01*
X125707188Y-79332811D01*
X125592088Y-79246647D01*
X125460528Y-79197577D01*
X125410149Y-79162597D01*
X125382696Y-79107752D01*
X125384885Y-79046460D01*
X125416178Y-78993717D01*
X125538495Y-78871401D01*
X125621136Y-78753376D01*
X125665454Y-78714511D01*
X125722711Y-78700500D01*
X129391844Y-78700500D01*
X129430162Y-78706569D01*
X129464728Y-78724181D01*
X129547270Y-78784151D01*
X129547271Y-78784151D01*
X129547272Y-78784152D01*
X129720197Y-78861144D01*
X129905352Y-78900500D01*
X129905354Y-78900500D01*
X130094646Y-78900500D01*
X130094648Y-78900500D01*
X130231561Y-78871398D01*
X130279803Y-78861144D01*
X130452730Y-78784151D01*
X130578108Y-78693059D01*
X130605870Y-78672889D01*
X130732533Y-78532216D01*
X130827179Y-78368284D01*
X130870353Y-78235408D01*
X130885674Y-78188256D01*
X130905460Y-78000000D01*
X130885674Y-77811744D01*
X130827179Y-77631716D01*
X130827179Y-77631715D01*
X130732533Y-77467783D01*
X130605870Y-77327110D01*
X130452730Y-77215848D01*
X130279802Y-77138855D01*
X130094648Y-77099500D01*
X130094646Y-77099500D01*
X129905354Y-77099500D01*
X129905352Y-77099500D01*
X129720197Y-77138855D01*
X129547272Y-77215847D01*
X129504913Y-77246623D01*
X129480348Y-77264471D01*
X129464730Y-77275818D01*
X129430162Y-77293431D01*
X129391844Y-77299500D01*
X125722711Y-77299500D01*
X125665454Y-77285489D01*
X125621136Y-77246623D01*
X125599587Y-77215848D01*
X125538495Y-77128599D01*
X125371401Y-76961505D01*
X125253376Y-76878863D01*
X125214511Y-76834546D01*
X125200500Y-76777289D01*
X125200500Y-73275477D01*
X135244663Y-73275477D01*
X135248506Y-73305651D01*
X135249500Y-73321317D01*
X135249500Y-77800740D01*
X135264926Y-77952440D01*
X135295868Y-78051058D01*
X135325841Y-78146588D01*
X135424591Y-78324502D01*
X135557134Y-78478895D01*
X135718042Y-78603448D01*
X135900729Y-78693060D01*
X136097715Y-78744063D01*
X136300936Y-78754369D01*
X136300936Y-78754368D01*
X136300937Y-78754369D01*
X136502071Y-78723556D01*
X136526493Y-78714511D01*
X136692887Y-78652886D01*
X136865571Y-78545252D01*
X136939476Y-78475000D01*
X186100000Y-78475000D01*
X186100000Y-79122824D01*
X186106402Y-79182375D01*
X186156647Y-79317089D01*
X186242811Y-79432188D01*
X186357910Y-79518352D01*
X186492624Y-79568597D01*
X186552176Y-79575000D01*
X187200000Y-79575000D01*
X187200000Y-78475000D01*
X186100000Y-78475000D01*
X136939476Y-78475000D01*
X137013053Y-78405059D01*
X137129295Y-78238049D01*
X137209540Y-78051058D01*
X137225170Y-77975000D01*
X186100000Y-77975000D01*
X187200000Y-77975000D01*
X187200000Y-76875000D01*
X186552176Y-76875000D01*
X186492624Y-76881402D01*
X186357910Y-76931647D01*
X186242811Y-77017811D01*
X186156647Y-77132910D01*
X186106402Y-77267624D01*
X186100000Y-77327176D01*
X186100000Y-77975000D01*
X137225170Y-77975000D01*
X137250500Y-77851741D01*
X137250500Y-73715783D01*
X137259939Y-73668330D01*
X137286819Y-73628102D01*
X138993336Y-71921584D01*
X138993335Y-71921584D01*
X138993340Y-71921580D01*
X139089698Y-71803407D01*
X139183909Y-71623049D01*
X139239886Y-71427418D01*
X139255337Y-71224524D01*
X139229630Y-71022672D01*
X139163816Y-70830128D01*
X139060590Y-70654773D01*
X138924179Y-70503787D01*
X138924178Y-70503786D01*
X138924176Y-70503784D01*
X138760166Y-70383350D01*
X138575268Y-70298394D01*
X138377054Y-70252397D01*
X138173639Y-70247242D01*
X137973345Y-70283142D01*
X137784380Y-70358623D01*
X137614481Y-70470596D01*
X135552645Y-72532433D01*
X135550398Y-72534624D01*
X135486948Y-72594940D01*
X135453244Y-72643362D01*
X135447573Y-72650882D01*
X135410301Y-72696593D01*
X135396210Y-72723566D01*
X135388082Y-72736983D01*
X135370705Y-72761950D01*
X135347439Y-72816165D01*
X135343399Y-72824671D01*
X135316090Y-72876952D01*
X135307720Y-72906201D01*
X135302459Y-72920978D01*
X135290460Y-72948942D01*
X135278587Y-73006713D01*
X135276342Y-73015860D01*
X135260113Y-73072580D01*
X135257802Y-73102925D01*
X135255622Y-73118466D01*
X135249500Y-73148259D01*
X135249500Y-73207242D01*
X135249142Y-73216656D01*
X135244663Y-73275477D01*
X125200500Y-73275477D01*
X125200500Y-68574500D01*
X125217113Y-68512500D01*
X125262500Y-68467113D01*
X125324500Y-68450500D01*
X132898259Y-68450500D01*
X132985721Y-68450500D01*
X132988863Y-68450540D01*
X133076359Y-68452757D01*
X133076359Y-68452756D01*
X133076363Y-68452757D01*
X133078105Y-68452444D01*
X133099981Y-68450500D01*
X163398259Y-68450500D01*
X163457244Y-68450500D01*
X163466659Y-68450858D01*
X163470806Y-68451173D01*
X163525476Y-68455337D01*
X163552278Y-68451923D01*
X163555652Y-68451494D01*
X163571317Y-68450500D01*
X191535721Y-68450500D01*
X191538862Y-68450539D01*
X191626363Y-68452757D01*
X191684432Y-68442348D01*
X191693736Y-68441043D01*
X191752438Y-68435074D01*
X191781467Y-68425965D01*
X191796700Y-68422226D01*
X191826653Y-68416858D01*
X191881426Y-68394978D01*
X191890301Y-68391819D01*
X191907675Y-68386367D01*
X191946588Y-68374159D01*
X191973194Y-68359390D01*
X191987362Y-68352662D01*
X192015617Y-68341377D01*
X192064879Y-68308909D01*
X192072910Y-68304043D01*
X192124502Y-68275409D01*
X192147587Y-68255589D01*
X192160114Y-68246144D01*
X192185519Y-68229402D01*
X192227251Y-68187668D01*
X192234123Y-68181300D01*
X192278895Y-68142866D01*
X192297524Y-68118798D01*
X192307883Y-68107036D01*
X193128101Y-67286817D01*
X193168329Y-67259938D01*
X193215782Y-67250499D01*
X194250370Y-67250499D01*
X194250372Y-67250499D01*
X194309983Y-67244091D01*
X194444831Y-67193796D01*
X194560046Y-67107546D01*
X194646296Y-66992331D01*
X194657726Y-66961685D01*
X194689838Y-66913870D01*
X194740091Y-66885720D01*
X194797641Y-66883312D01*
X194850067Y-66907165D01*
X194992561Y-67018072D01*
X195204336Y-67132679D01*
X195432087Y-67210866D01*
X195669601Y-67250500D01*
X195910399Y-67250500D01*
X196147913Y-67210866D01*
X196375664Y-67132679D01*
X196587439Y-67018072D01*
X196777463Y-66870171D01*
X196940551Y-66693010D01*
X196956191Y-66669070D01*
X197000982Y-66627837D01*
X197060000Y-66612892D01*
X197119018Y-66627837D01*
X197163808Y-66669070D01*
X197179449Y-66693010D01*
X197342537Y-66870171D01*
X197532561Y-67018072D01*
X197744336Y-67132679D01*
X197972087Y-67210866D01*
X198209601Y-67250500D01*
X198450399Y-67250500D01*
X198687913Y-67210866D01*
X198915664Y-67132679D01*
X199127439Y-67018072D01*
X199317463Y-66870171D01*
X199480551Y-66693010D01*
X199612255Y-66491422D01*
X199708983Y-66270905D01*
X199768095Y-66037476D01*
X199783000Y-65857600D01*
X199783000Y-65642400D01*
X199777329Y-65573967D01*
X199768095Y-65462528D01*
X199768095Y-65462524D01*
X199708983Y-65229095D01*
X199612255Y-65008578D01*
X199480551Y-64806990D01*
X199317463Y-64629829D01*
X199127439Y-64481928D01*
X198915664Y-64367321D01*
X198915660Y-64367319D01*
X198915659Y-64367319D01*
X198687915Y-64289134D01*
X198450399Y-64249500D01*
X198209601Y-64249500D01*
X197972084Y-64289134D01*
X197744340Y-64367319D01*
X197744336Y-64367320D01*
X197744336Y-64367321D01*
X197610150Y-64439939D01*
X197532559Y-64481929D01*
X197342536Y-64629829D01*
X197179448Y-64806991D01*
X197163808Y-64830930D01*
X197119017Y-64872162D01*
X197060000Y-64887107D01*
X197000983Y-64872162D01*
X196956192Y-64830930D01*
X196952457Y-64825214D01*
X196940551Y-64806990D01*
X196777463Y-64629829D01*
X196587439Y-64481928D01*
X196375664Y-64367321D01*
X196375660Y-64367319D01*
X196375659Y-64367319D01*
X196147915Y-64289134D01*
X195910399Y-64249500D01*
X195669601Y-64249500D01*
X195432084Y-64289134D01*
X195204340Y-64367319D01*
X195204336Y-64367320D01*
X195204336Y-64367321D01*
X194992561Y-64481928D01*
X194992559Y-64481928D01*
X194992556Y-64481931D01*
X194850067Y-64592833D01*
X194797639Y-64616687D01*
X194740089Y-64614279D01*
X194689836Y-64586129D01*
X194657725Y-64538313D01*
X194646296Y-64507669D01*
X194560046Y-64392454D01*
X194444831Y-64306204D01*
X194309983Y-64255909D01*
X194250373Y-64249500D01*
X194250369Y-64249500D01*
X192249630Y-64249500D01*
X192190015Y-64255909D01*
X192055169Y-64306204D01*
X191939954Y-64392454D01*
X191853704Y-64507668D01*
X191803409Y-64642516D01*
X191797000Y-64702131D01*
X191797000Y-65736716D01*
X191787561Y-65784169D01*
X191760680Y-65824397D01*
X191309390Y-66275690D01*
X191171899Y-66413181D01*
X191131671Y-66440061D01*
X191084218Y-66449500D01*
X184851473Y-66449500D01*
X184792456Y-66434555D01*
X184747664Y-66393322D01*
X184727897Y-66335740D01*
X184737917Y-66275690D01*
X184740015Y-66270907D01*
X184754063Y-66238881D01*
X184815108Y-65997821D01*
X184835643Y-65750000D01*
X184815108Y-65502179D01*
X184754063Y-65261119D01*
X184654173Y-65033393D01*
X184518164Y-64825215D01*
X184349744Y-64642262D01*
X184316885Y-64616687D01*
X184153514Y-64489529D01*
X184153510Y-64489526D01*
X184153509Y-64489526D01*
X183934810Y-64371172D01*
X183934806Y-64371170D01*
X183934805Y-64371170D01*
X183699615Y-64290429D01*
X183454335Y-64249500D01*
X183205665Y-64249500D01*
X182960384Y-64290429D01*
X182725194Y-64371170D01*
X182506485Y-64489529D01*
X182310259Y-64642259D01*
X182310256Y-64642261D01*
X182310256Y-64642262D01*
X182141836Y-64825215D01*
X182124524Y-64851713D01*
X182005825Y-65033395D01*
X181905938Y-65261117D01*
X181844891Y-65502183D01*
X181824356Y-65750000D01*
X181844891Y-65997816D01*
X181905937Y-66238882D01*
X181922083Y-66275690D01*
X181932103Y-66335740D01*
X181912336Y-66393322D01*
X181867544Y-66434555D01*
X181808527Y-66449500D01*
X179874000Y-66449500D01*
X179812000Y-66432887D01*
X179766613Y-66387500D01*
X179750000Y-66325500D01*
X179750000Y-65664214D01*
X179749999Y-65664213D01*
X179001033Y-66413181D01*
X178960805Y-66440061D01*
X178913352Y-66449500D01*
X177586648Y-66449500D01*
X177539195Y-66440061D01*
X177498967Y-66413181D01*
X176750000Y-65664213D01*
X176750000Y-66325500D01*
X176733387Y-66387500D01*
X176688000Y-66432887D01*
X176626000Y-66449500D01*
X169820440Y-66449500D01*
X169761423Y-66434555D01*
X169716631Y-66393322D01*
X169696864Y-66335740D01*
X169706884Y-66275690D01*
X169707020Y-66275380D01*
X169708983Y-66270905D01*
X169768095Y-66037476D01*
X169783000Y-65857600D01*
X169783000Y-65642400D01*
X169777329Y-65573967D01*
X169768095Y-65462528D01*
X169768095Y-65462524D01*
X169708983Y-65229095D01*
X169612255Y-65008578D01*
X169480551Y-64806990D01*
X169317463Y-64629829D01*
X169127439Y-64481928D01*
X168915664Y-64367321D01*
X168915660Y-64367319D01*
X168915659Y-64367319D01*
X168687915Y-64289134D01*
X168453395Y-64250000D01*
X178164213Y-64250000D01*
X178250000Y-64335786D01*
X178335786Y-64250000D01*
X178164213Y-64250000D01*
X168453395Y-64250000D01*
X168450399Y-64249500D01*
X168209601Y-64249500D01*
X167972084Y-64289134D01*
X167744340Y-64367319D01*
X167744336Y-64367320D01*
X167744336Y-64367321D01*
X167610150Y-64439939D01*
X167532559Y-64481929D01*
X167342536Y-64629829D01*
X167179448Y-64806991D01*
X167163808Y-64830930D01*
X167119017Y-64872162D01*
X167060000Y-64887107D01*
X167000983Y-64872162D01*
X166956192Y-64830930D01*
X166952457Y-64825214D01*
X166940551Y-64806990D01*
X166777463Y-64629829D01*
X166587439Y-64481928D01*
X166375664Y-64367321D01*
X166375660Y-64367319D01*
X166375659Y-64367319D01*
X166147915Y-64289134D01*
X165910399Y-64249500D01*
X165669601Y-64249500D01*
X165432084Y-64289134D01*
X165204340Y-64367319D01*
X165204336Y-64367320D01*
X165204336Y-64367321D01*
X164992561Y-64481928D01*
X164992559Y-64481928D01*
X164992556Y-64481931D01*
X164850067Y-64592833D01*
X164797639Y-64616687D01*
X164740089Y-64614279D01*
X164689836Y-64586129D01*
X164657725Y-64538313D01*
X164646296Y-64507669D01*
X164560046Y-64392454D01*
X164444831Y-64306204D01*
X164309983Y-64255909D01*
X164250373Y-64249500D01*
X164250369Y-64249500D01*
X162249630Y-64249500D01*
X162190015Y-64255909D01*
X162055169Y-64306204D01*
X161939954Y-64392454D01*
X161853704Y-64507668D01*
X161816674Y-64606950D01*
X161803409Y-64642517D01*
X161797000Y-64702127D01*
X161797000Y-65573967D01*
X161797001Y-66325500D01*
X161780388Y-66387500D01*
X161735001Y-66432887D01*
X161673001Y-66449500D01*
X154851473Y-66449500D01*
X154792456Y-66434555D01*
X154747664Y-66393322D01*
X154727897Y-66335740D01*
X154737917Y-66275690D01*
X154740015Y-66270907D01*
X154754063Y-66238881D01*
X154815108Y-65997821D01*
X154835643Y-65750000D01*
X154815108Y-65502179D01*
X154754063Y-65261119D01*
X154654173Y-65033393D01*
X154518164Y-64825215D01*
X154349744Y-64642262D01*
X154316885Y-64616687D01*
X154153514Y-64489529D01*
X154153510Y-64489526D01*
X154153509Y-64489526D01*
X153934810Y-64371172D01*
X153934806Y-64371170D01*
X153934805Y-64371170D01*
X153699615Y-64290429D01*
X153454335Y-64249500D01*
X153205665Y-64249500D01*
X152960384Y-64290429D01*
X152725194Y-64371170D01*
X152506485Y-64489529D01*
X152310259Y-64642259D01*
X152310256Y-64642261D01*
X152310256Y-64642262D01*
X152141836Y-64825215D01*
X152124524Y-64851713D01*
X152005825Y-65033395D01*
X151905938Y-65261117D01*
X151844891Y-65502183D01*
X151824356Y-65750000D01*
X151844891Y-65997816D01*
X151905937Y-66238882D01*
X151922083Y-66275690D01*
X151932103Y-66335740D01*
X151912336Y-66393322D01*
X151867544Y-66434555D01*
X151808527Y-66449500D01*
X149874000Y-66449500D01*
X149812000Y-66432887D01*
X149766613Y-66387500D01*
X149750000Y-66325500D01*
X149750000Y-65664214D01*
X149749999Y-65664213D01*
X149001033Y-66413181D01*
X148960805Y-66440061D01*
X148913352Y-66449500D01*
X147586648Y-66449500D01*
X147539195Y-66440061D01*
X147498967Y-66413181D01*
X146750000Y-65664213D01*
X146750000Y-66325500D01*
X146733387Y-66387500D01*
X146688000Y-66432887D01*
X146626000Y-66449500D01*
X139820440Y-66449500D01*
X139761423Y-66434555D01*
X139716631Y-66393322D01*
X139696864Y-66335740D01*
X139706884Y-66275690D01*
X139707020Y-66275380D01*
X139708983Y-66270905D01*
X139768095Y-66037476D01*
X139783000Y-65857600D01*
X139783000Y-65642400D01*
X139777329Y-65573967D01*
X139768095Y-65462528D01*
X139768095Y-65462524D01*
X139708983Y-65229095D01*
X139612255Y-65008578D01*
X139480551Y-64806990D01*
X139317463Y-64629829D01*
X139127439Y-64481928D01*
X138915664Y-64367321D01*
X138915660Y-64367319D01*
X138915659Y-64367319D01*
X138687915Y-64289134D01*
X138453395Y-64250000D01*
X148164213Y-64250000D01*
X148250000Y-64335786D01*
X148335786Y-64250000D01*
X148164213Y-64250000D01*
X138453395Y-64250000D01*
X138450399Y-64249500D01*
X138209601Y-64249500D01*
X137972084Y-64289134D01*
X137744340Y-64367319D01*
X137744336Y-64367320D01*
X137744336Y-64367321D01*
X137610150Y-64439939D01*
X137532559Y-64481929D01*
X137342536Y-64629829D01*
X137179448Y-64806991D01*
X137163808Y-64830930D01*
X137119017Y-64872162D01*
X137060000Y-64887107D01*
X137000983Y-64872162D01*
X136956192Y-64830930D01*
X136952457Y-64825214D01*
X136940551Y-64806990D01*
X136777463Y-64629829D01*
X136587439Y-64481928D01*
X136375664Y-64367321D01*
X136375660Y-64367319D01*
X136375659Y-64367319D01*
X136147915Y-64289134D01*
X135910399Y-64249500D01*
X135669601Y-64249500D01*
X135432084Y-64289134D01*
X135204340Y-64367319D01*
X135204336Y-64367320D01*
X135204336Y-64367321D01*
X134992561Y-64481928D01*
X134992559Y-64481928D01*
X134992556Y-64481931D01*
X134850067Y-64592833D01*
X134797639Y-64616687D01*
X134740089Y-64614279D01*
X134689836Y-64586129D01*
X134657725Y-64538313D01*
X134646296Y-64507669D01*
X134560046Y-64392454D01*
X134444831Y-64306204D01*
X134309983Y-64255909D01*
X134250373Y-64249500D01*
X134250369Y-64249500D01*
X132249630Y-64249500D01*
X132190015Y-64255909D01*
X132055169Y-64306204D01*
X131939954Y-64392454D01*
X131853704Y-64507668D01*
X131816674Y-64606950D01*
X131803409Y-64642517D01*
X131797000Y-64702127D01*
X131797000Y-65573967D01*
X131797001Y-66325500D01*
X131780388Y-66387500D01*
X131735001Y-66432887D01*
X131673001Y-66449500D01*
X124851473Y-66449500D01*
X124792456Y-66434555D01*
X124747664Y-66393322D01*
X124727897Y-66335740D01*
X124737917Y-66275690D01*
X124740015Y-66270907D01*
X124754063Y-66238881D01*
X124815108Y-65997821D01*
X124835643Y-65750000D01*
X124815108Y-65502179D01*
X124754063Y-65261119D01*
X124654173Y-65033393D01*
X124518164Y-64825215D01*
X124349744Y-64642262D01*
X124316885Y-64616687D01*
X124153514Y-64489529D01*
X124153510Y-64489526D01*
X124153509Y-64489526D01*
X123934810Y-64371172D01*
X123934806Y-64371170D01*
X123934805Y-64371170D01*
X123699615Y-64290429D01*
X123454335Y-64249500D01*
X123205665Y-64249500D01*
X122960384Y-64290429D01*
X122725194Y-64371170D01*
X122506485Y-64489529D01*
X122310259Y-64642259D01*
X122310256Y-64642261D01*
X122310256Y-64642262D01*
X122141836Y-64825215D01*
X122124524Y-64851713D01*
X122005825Y-65033395D01*
X121905938Y-65261117D01*
X121844891Y-65502183D01*
X121824356Y-65750000D01*
X121844891Y-65997816D01*
X121905937Y-66238882D01*
X121922083Y-66275690D01*
X121932103Y-66335740D01*
X121912336Y-66393322D01*
X121867544Y-66434555D01*
X121808527Y-66449500D01*
X119874000Y-66449500D01*
X119812000Y-66432887D01*
X119766613Y-66387500D01*
X119750000Y-66325500D01*
X119750000Y-65664214D01*
X119749999Y-65664213D01*
X119001033Y-66413181D01*
X118960805Y-66440061D01*
X118913352Y-66449500D01*
X117586648Y-66449500D01*
X117539195Y-66440061D01*
X117498967Y-66413181D01*
X116750000Y-65664213D01*
X116750000Y-66325500D01*
X116733387Y-66387500D01*
X116688000Y-66432887D01*
X116626000Y-66449500D01*
X109820440Y-66449500D01*
X109761423Y-66434555D01*
X109716631Y-66393322D01*
X109696864Y-66335740D01*
X109706884Y-66275690D01*
X109707020Y-66275380D01*
X109708983Y-66270905D01*
X109768095Y-66037476D01*
X109783000Y-65857600D01*
X109783000Y-65642400D01*
X109777329Y-65573967D01*
X109768095Y-65462528D01*
X109768095Y-65462524D01*
X109708983Y-65229095D01*
X109612255Y-65008578D01*
X109480551Y-64806990D01*
X109317463Y-64629829D01*
X109127439Y-64481928D01*
X108915664Y-64367321D01*
X108915660Y-64367319D01*
X108915659Y-64367319D01*
X108687915Y-64289134D01*
X108453395Y-64250000D01*
X118164213Y-64250000D01*
X118250000Y-64335786D01*
X118335786Y-64250000D01*
X118164213Y-64250000D01*
X108453395Y-64250000D01*
X108450399Y-64249500D01*
X108209601Y-64249500D01*
X107972084Y-64289134D01*
X107744340Y-64367319D01*
X107744336Y-64367320D01*
X107744336Y-64367321D01*
X107610150Y-64439939D01*
X107532559Y-64481929D01*
X107342536Y-64629829D01*
X107179448Y-64806991D01*
X107163808Y-64830930D01*
X107119017Y-64872162D01*
X107060000Y-64887107D01*
X107000983Y-64872162D01*
X106956192Y-64830930D01*
X106952457Y-64825214D01*
X106940551Y-64806990D01*
X106777463Y-64629829D01*
X106587439Y-64481928D01*
X106375664Y-64367321D01*
X106375660Y-64367319D01*
X106375659Y-64367319D01*
X106147915Y-64289134D01*
X105910399Y-64249500D01*
X105669601Y-64249500D01*
X105432084Y-64289134D01*
X105204340Y-64367319D01*
X105204336Y-64367320D01*
X105204336Y-64367321D01*
X104992561Y-64481928D01*
X104992559Y-64481928D01*
X104992556Y-64481931D01*
X104850067Y-64592833D01*
X104797639Y-64616687D01*
X104740089Y-64614279D01*
X104689836Y-64586129D01*
X104657725Y-64538313D01*
X104646296Y-64507669D01*
X104560046Y-64392454D01*
X104444831Y-64306204D01*
X104309983Y-64255909D01*
X104250373Y-64249500D01*
X104250369Y-64249500D01*
X102249630Y-64249500D01*
X102190015Y-64255909D01*
X102055169Y-64306204D01*
X101939954Y-64392454D01*
X101853704Y-64507668D01*
X101803409Y-64642516D01*
X101797000Y-64702130D01*
X101797000Y-66797869D01*
X100412789Y-66797869D01*
X96867567Y-63252647D01*
X96865412Y-63250438D01*
X96805059Y-63186947D01*
X96756640Y-63153246D01*
X96749118Y-63147575D01*
X96703405Y-63110300D01*
X96676440Y-63096215D01*
X96663019Y-63088084D01*
X96638049Y-63070705D01*
X96638048Y-63070704D01*
X96638046Y-63070703D01*
X96583845Y-63047443D01*
X96575336Y-63043402D01*
X96523053Y-63016092D01*
X96517126Y-63014396D01*
X96493798Y-63007721D01*
X96479020Y-63002459D01*
X96451058Y-62990460D01*
X96393272Y-62978583D01*
X96384128Y-62976338D01*
X96327421Y-62960113D01*
X96297075Y-62957802D01*
X96281534Y-62955622D01*
X96251742Y-62949500D01*
X96251741Y-62949500D01*
X96192758Y-62949500D01*
X96183344Y-62949142D01*
X96158392Y-62947242D01*
X96124524Y-62944663D01*
X96124523Y-62944663D01*
X96094349Y-62948506D01*
X96078683Y-62949500D01*
X91664279Y-62949500D01*
X91661137Y-62949460D01*
X91573636Y-62947242D01*
X91515571Y-62957649D01*
X91506243Y-62958958D01*
X91447559Y-62964926D01*
X91418531Y-62974033D01*
X91403296Y-62977772D01*
X91373350Y-62983140D01*
X91318555Y-63005026D01*
X91309685Y-63008184D01*
X91253410Y-63025841D01*
X91226814Y-63040602D01*
X91212644Y-63047331D01*
X91184382Y-63058621D01*
X91135122Y-63091086D01*
X91127066Y-63095967D01*
X91075495Y-63124591D01*
X91052406Y-63144412D01*
X91039883Y-63153855D01*
X91014484Y-63170596D01*
X90972782Y-63212297D01*
X90965875Y-63218698D01*
X90921104Y-63257134D01*
X90902480Y-63281194D01*
X90892107Y-63292971D01*
X89807646Y-64377432D01*
X89805399Y-64379623D01*
X89741948Y-64439939D01*
X89708244Y-64488362D01*
X89702573Y-64495882D01*
X89665301Y-64541593D01*
X89651210Y-64568566D01*
X89643082Y-64581983D01*
X89625705Y-64606950D01*
X89602439Y-64661165D01*
X89598399Y-64669671D01*
X89571090Y-64721952D01*
X89562720Y-64751201D01*
X89557459Y-64765978D01*
X89545460Y-64793942D01*
X89533587Y-64851713D01*
X89531342Y-64860860D01*
X89515113Y-64917580D01*
X89512802Y-64947925D01*
X89510622Y-64963466D01*
X89504500Y-64993259D01*
X89504500Y-65052242D01*
X89504142Y-65061656D01*
X89499663Y-65120477D01*
X88000500Y-65120477D01*
X88000500Y-54067764D01*
X90145787Y-54067764D01*
X90175413Y-54337016D01*
X90243928Y-54599087D01*
X90349871Y-54848392D01*
X90490982Y-55079611D01*
X90580253Y-55186881D01*
X90664255Y-55287820D01*
X90865998Y-55468582D01*
X91091910Y-55618044D01*
X91198211Y-55667876D01*
X91337177Y-55733021D01*
X91596562Y-55811058D01*
X91596569Y-55811060D01*
X91864561Y-55850500D01*
X92067631Y-55850500D01*
X92067634Y-55850500D01*
X92270156Y-55835677D01*
X92270156Y-55835676D01*
X92534553Y-55776780D01*
X92787558Y-55680014D01*
X93023777Y-55547441D01*
X93238177Y-55381888D01*
X93426186Y-55186881D01*
X93583799Y-54966579D01*
X93707656Y-54725675D01*
X93795118Y-54469305D01*
X93844319Y-54202933D01*
X93849259Y-54067764D01*
X204145787Y-54067764D01*
X204175413Y-54337016D01*
X204243928Y-54599087D01*
X204349871Y-54848392D01*
X204490982Y-55079611D01*
X204580253Y-55186881D01*
X204664255Y-55287820D01*
X204865998Y-55468582D01*
X205091910Y-55618044D01*
X205198211Y-55667876D01*
X205337177Y-55733021D01*
X205596562Y-55811058D01*
X205596569Y-55811060D01*
X205864561Y-55850500D01*
X206067631Y-55850500D01*
X206067634Y-55850500D01*
X206270156Y-55835677D01*
X206270156Y-55835676D01*
X206534553Y-55776780D01*
X206787558Y-55680014D01*
X207023777Y-55547441D01*
X207238177Y-55381888D01*
X207426186Y-55186881D01*
X207583799Y-54966579D01*
X207707656Y-54725675D01*
X207795118Y-54469305D01*
X207844319Y-54202933D01*
X207854212Y-53932235D01*
X207824586Y-53662982D01*
X207756072Y-53400912D01*
X207650130Y-53151610D01*
X207509018Y-52920390D01*
X207509017Y-52920388D01*
X207335746Y-52712181D01*
X207230758Y-52618112D01*
X207134002Y-52531418D01*
X206908090Y-52381956D01*
X206908086Y-52381954D01*
X206662822Y-52266978D01*
X206403437Y-52188941D01*
X206403431Y-52188940D01*
X206135439Y-52149500D01*
X205932369Y-52149500D01*
X205932366Y-52149500D01*
X205729843Y-52164322D01*
X205465449Y-52223219D01*
X205212441Y-52319986D01*
X204976223Y-52452559D01*
X204761825Y-52618109D01*
X204573813Y-52813120D01*
X204416201Y-53033420D01*
X204292342Y-53274329D01*
X204204881Y-53530695D01*
X204155680Y-53797066D01*
X204145787Y-54067764D01*
X93849259Y-54067764D01*
X93854212Y-53932235D01*
X93824586Y-53662982D01*
X93756072Y-53400912D01*
X93650130Y-53151610D01*
X93509018Y-52920390D01*
X93509017Y-52920388D01*
X93335746Y-52712181D01*
X93230758Y-52618112D01*
X93134002Y-52531418D01*
X92908090Y-52381956D01*
X92908086Y-52381954D01*
X92662822Y-52266978D01*
X92403437Y-52188941D01*
X92403431Y-52188940D01*
X92135439Y-52149500D01*
X91932369Y-52149500D01*
X91932366Y-52149500D01*
X91729843Y-52164322D01*
X91465449Y-52223219D01*
X91212441Y-52319986D01*
X90976223Y-52452559D01*
X90761825Y-52618109D01*
X90573813Y-52813120D01*
X90416201Y-53033420D01*
X90292342Y-53274329D01*
X90204881Y-53530695D01*
X90155680Y-53797066D01*
X90145787Y-54067764D01*
X88000500Y-54067764D01*
X88000500Y-50124500D01*
X88017113Y-50062500D01*
X88062500Y-50017113D01*
X88124500Y-50000500D01*
X209875500Y-50000500D01*
X209937500Y-50017113D01*
G37*
%TD.AperFunction*%
%TD*%
M02*
