M48
; DRILL file {KiCad 7.0.1} date Fri 21 Apr 2023 09:19:18 AM PDT
; FORMAT={-:-/ absolute / metric / decimal}
; #@! TF.CreationDate,2023-04-21T09:19:18-07:00
; #@! TF.GenerationSoftware,Kicad,Pcbnew,7.0.1
; #@! TF.FileFunction,Plated,1,2,PTH
FMAT,2
METRIC
; #@! TA.AperFunction,Plated,PTH,ViaDrill
T1C0.400
; #@! TA.AperFunction,Plated,PTH,ComponentDrill
T2C0.600
; #@! TA.AperFunction,Plated,PTH,ComponentDrill
T3C0.750
; #@! TA.AperFunction,Plated,PTH,ViaDrill
T4C1.000
; #@! TA.AperFunction,Plated,PTH,ComponentDrill
T5C1.000
; #@! TA.AperFunction,Plated,PTH,ComponentDrill
T6C1.020
; #@! TA.AperFunction,Plated,PTH,ComponentDrill
T7C1.100
; #@! TA.AperFunction,Plated,PTH,ViaDrill
T8C1.500
; #@! TA.AperFunction,Plated,PTH,ComponentDrill
T9C1.600
; #@! TA.AperFunction,Plated,PTH,ComponentDrill
T10C2.540
; #@! TA.AperFunction,Plated,PTH,ComponentDrill
T11C2.700
%
G90
G05
T1
X91.25Y-103.25
X99.25Y-102.75
X99.5Y-100.5
X100.75Y-96.25
X106.5Y-87.25
X109.0Y-90.5
X109.75Y-98.25
X111.5Y-86.25
X117.0Y-103.75
X119.75Y-95.6
X120.0Y-104.5
X120.75Y-93.0
X124.0Y-92.0
X129.0Y-99.0
X130.0Y-78.0
X133.25Y-124.0
X136.25Y-77.75
X138.25Y-71.25
X143.0Y-81.2
X205.0Y-61.5
T3
X91.73Y-66.0
X93.0Y-66.0
X94.27Y-66.0
T4
X91.0Y-98.75
X97.25Y-87.5
X113.25Y-65.75
X124.5Y-101.25
X128.5Y-65.75
X143.25Y-65.75
X158.25Y-65.75
X173.5Y-65.75
X188.25Y-65.75
T5
X90.46Y-74.25
X91.65Y-79.5
X91.65Y-82.04
X93.0Y-74.25
X95.54Y-74.25
X98.08Y-74.25
X124.5Y-78.0
X124.5Y-80.54
X135.5Y-100.25
X138.04Y-100.25
X167.88Y-83.25
X170.42Y-83.25
X172.96Y-83.25
X175.5Y-83.25
X187.45Y-78.225
X189.99Y-78.225
X192.53Y-78.225
X195.07Y-78.225
T6
X90.4Y-107.97
X90.4Y-125.75
X92.94Y-107.97
X92.94Y-125.75
X95.48Y-107.97
X95.48Y-125.75
X98.02Y-107.97
X98.02Y-125.75
X100.56Y-107.97
X100.56Y-125.75
X103.1Y-107.97
X103.1Y-125.75
X105.64Y-107.97
X105.64Y-125.75
X108.18Y-107.97
X108.18Y-125.75
X110.72Y-107.97
X110.72Y-125.75
X113.26Y-107.97
X113.26Y-125.75
X115.8Y-107.97
X115.8Y-125.75
X118.34Y-107.97
X118.34Y-125.75
X120.88Y-107.97
X120.88Y-125.75
X123.42Y-107.97
X123.42Y-125.75
X125.96Y-107.97
X125.96Y-125.75
X128.5Y-107.97
X128.5Y-125.75
X131.04Y-107.97
X131.04Y-125.75
X133.58Y-107.97
X133.58Y-125.75
X136.12Y-107.97
X136.12Y-125.75
X138.43Y-114.32
X138.43Y-116.86
X138.43Y-119.4
X138.66Y-107.97
X138.66Y-125.75
T7
X103.25Y-65.75
X105.79Y-65.75
X108.33Y-65.75
X118.25Y-65.75
X123.33Y-65.75
X133.25Y-65.75
X135.79Y-65.75
X138.33Y-65.75
X148.25Y-65.75
X153.33Y-65.75
X163.25Y-65.75
X165.79Y-65.75
X168.33Y-65.75
X178.25Y-65.75
X183.33Y-65.75
X193.25Y-65.75
X195.79Y-65.75
X198.33Y-65.75
T8
X100.5Y-54.5
X108.562Y-52.735
X118.562Y-52.735
X128.0Y-132.0
X128.562Y-52.735
X138.562Y-52.735
X139.25Y-134.25
X143.2Y-105.6
X147.6Y-117.0
X148.562Y-52.735
X149.6Y-107.2
X153.25Y-135.25
X158.562Y-52.735
X158.8Y-89.0
X161.8Y-102.8
X168.562Y-52.735
X169.6Y-95.4
X170.25Y-135.25
X178.562Y-52.735
X182.0Y-86.2
X184.2Y-98.2
X185.6Y-135.4
X186.8Y-111.0
X188.562Y-52.735
X199.0Y-122.4
X200.0Y-102.4
X202.2Y-75.4
X202.8Y-118.4
X204.2Y-112.6
T9
X194.0Y-88.38
X194.0Y-103.62
T10
X202.5Y-71.54
X202.5Y-79.16
X202.5Y-98.13
X202.5Y-105.75
T11
X193.0Y-116.55
X193.0Y-123.75
T2
X199.55Y-113.4G85X198.45Y-113.4
G05
X199.55Y-126.9G85X198.45Y-126.9
G05
T0
M30
