%TF.GenerationSoftware,KiCad,Pcbnew,7.0.1*%
%TF.CreationDate,2023-04-21T09:18:26-07:00*%
%TF.ProjectId,lipo_drainer_schematic,6c69706f-5f64-4726-9169-6e65725f7363,rev?*%
%TF.SameCoordinates,Original*%
%TF.FileFunction,Legend,Bot*%
%TF.FilePolarity,Positive*%
%FSLAX46Y46*%
G04 Gerber Fmt 4.6, Leading zero omitted, Abs format (unit mm)*
G04 Created by KiCad (PCBNEW 7.0.1) date 2023-04-21 09:18:26*
%MOMM*%
%LPD*%
G01*
G04 APERTURE LIST*
G04 Aperture macros list*
%AMRoundRect*
0 Rectangle with rounded corners*
0 $1 Rounding radius*
0 $2 $3 $4 $5 $6 $7 $8 $9 X,Y pos of 4 corners*
0 Add a 4 corners polygon primitive as box body*
4,1,4,$2,$3,$4,$5,$6,$7,$8,$9,$2,$3,0*
0 Add four circle primitives for the rounded corners*
1,1,$1+$1,$2,$3*
1,1,$1+$1,$4,$5*
1,1,$1+$1,$6,$7*
1,1,$1+$1,$8,$9*
0 Add four rect primitives between the rounded corners*
20,1,$1+$1,$2,$3,$4,$5,0*
20,1,$1+$1,$4,$5,$6,$7,0*
20,1,$1+$1,$6,$7,$8,$9,0*
20,1,$1+$1,$8,$9,$2,$3,0*%
G04 Aperture macros list end*
%ADD10R,1.700000X1.700000*%
%ADD11O,1.700000X1.700000*%
%ADD12R,3.200000X3.200000*%
%ADD13O,3.200000X3.200000*%
%ADD14C,3.200000*%
%ADD15R,1.905000X2.000000*%
%ADD16O,1.905000X2.000000*%
%ADD17R,2.000000X2.000000*%
%ADD18O,2.000000X2.000000*%
%ADD19O,1.800000X1.800000*%
%ADD20O,1.500000X1.500000*%
%ADD21RoundRect,0.875000X0.875000X-0.875000X0.875000X0.875000X-0.875000X0.875000X-0.875000X-0.875000X0*%
%ADD22C,3.500000*%
%ADD23R,1.050000X1.500000*%
%ADD24O,1.050000X1.500000*%
%ADD25R,2.000000X0.900000*%
%ADD26RoundRect,1.025000X-1.025000X1.025000X-1.025000X-1.025000X1.025000X-1.025000X1.025000X1.025000X0*%
%ADD27C,4.100000*%
G04 APERTURE END LIST*
%LPC*%
D10*
%TO.C,J3*%
X135500000Y-100250000D03*
D11*
X138040000Y-100250000D03*
%TD*%
D12*
%TO.C,D3*%
X194000000Y-103620000D03*
D13*
X194000000Y-88380000D03*
%TD*%
D14*
%TO.C,SEHOLE*%
X206000000Y-134000000D03*
%TD*%
D15*
%TO.C,Q7*%
X103250000Y-65750000D03*
D16*
X105790000Y-65750000D03*
X108330000Y-65750000D03*
%TD*%
D17*
%TO.C,R23*%
X148250000Y-65750000D03*
D18*
X153330000Y-65750000D03*
%TD*%
D10*
%TO.C,J2*%
X187450000Y-78225000D03*
D11*
X189990000Y-78225000D03*
X192530000Y-78225000D03*
X195070000Y-78225000D03*
%TD*%
D10*
%TO.C,J5*%
X124500000Y-80540000D03*
D11*
X124500000Y-78000000D03*
%TD*%
D14*
%TO.C,NWHOLE*%
X92000000Y-54000000D03*
%TD*%
D10*
%TO.C,J8*%
X90460000Y-74250000D03*
D11*
X93000000Y-74250000D03*
X95540000Y-74250000D03*
X98080000Y-74250000D03*
%TD*%
D14*
%TO.C,NEHOLE*%
X206000000Y-54000000D03*
%TD*%
D19*
%TO.C,U2*%
X90530000Y-119585000D03*
D20*
X93560000Y-119285000D03*
X93560000Y-114435000D03*
D19*
X90530000Y-114135000D03*
D11*
X90400000Y-125750000D03*
X92940000Y-125750000D03*
D10*
X95480000Y-125750000D03*
D11*
X98020000Y-125750000D03*
X100560000Y-125750000D03*
X103100000Y-125750000D03*
X105640000Y-125750000D03*
D10*
X108180000Y-125750000D03*
D11*
X110720000Y-125750000D03*
X113260000Y-125750000D03*
X115800000Y-125750000D03*
X118340000Y-125750000D03*
D10*
X120880000Y-125750000D03*
D11*
X123420000Y-125750000D03*
X125960000Y-125750000D03*
X128500000Y-125750000D03*
X131040000Y-125750000D03*
D10*
X133580000Y-125750000D03*
D11*
X136120000Y-125750000D03*
X138660000Y-125750000D03*
X138660000Y-107970000D03*
X136120000Y-107970000D03*
D10*
X133580000Y-107970000D03*
D11*
X131040000Y-107970000D03*
X128500000Y-107970000D03*
X125960000Y-107970000D03*
X123420000Y-107970000D03*
D10*
X120880000Y-107970000D03*
D11*
X118340000Y-107970000D03*
X115800000Y-107970000D03*
X113260000Y-107970000D03*
X110720000Y-107970000D03*
D10*
X108180000Y-107970000D03*
D11*
X105640000Y-107970000D03*
X103100000Y-107970000D03*
X100560000Y-107970000D03*
X98020000Y-107970000D03*
D10*
X95480000Y-107970000D03*
D11*
X92940000Y-107970000D03*
X90400000Y-107970000D03*
X138430000Y-119400000D03*
D10*
X138430000Y-116860000D03*
D11*
X138430000Y-114320000D03*
%TD*%
D10*
%TO.C,J4*%
X167880000Y-83250000D03*
D11*
X170420000Y-83250000D03*
X172960000Y-83250000D03*
X175500000Y-83250000D03*
%TD*%
D17*
%TO.C,R24*%
X178250000Y-65750000D03*
D18*
X183330000Y-65750000D03*
%TD*%
D21*
%TO.C,F1*%
X202500000Y-105750000D03*
X202500000Y-98130000D03*
D22*
X202500000Y-79160000D03*
X202500000Y-71540000D03*
%TD*%
D23*
%TO.C,J7*%
X94270000Y-66000000D03*
D24*
X93000000Y-66000000D03*
X91730000Y-66000000D03*
%TD*%
D15*
%TO.C,Q11*%
X163250000Y-65750000D03*
D16*
X165790000Y-65750000D03*
X168330000Y-65750000D03*
%TD*%
D25*
%TO.C,J1*%
X199000000Y-113400000D03*
X199000000Y-126900000D03*
D26*
X193000000Y-116550000D03*
D27*
X193000000Y-123750000D03*
%TD*%
D17*
%TO.C,R22*%
X118250000Y-65750000D03*
D18*
X123330000Y-65750000D03*
%TD*%
D15*
%TO.C,Q8*%
X133250000Y-65750000D03*
D16*
X135790000Y-65750000D03*
X138330000Y-65750000D03*
%TD*%
D15*
%TO.C,Q10*%
X193250000Y-65750000D03*
D16*
X195790000Y-65750000D03*
X198330000Y-65750000D03*
%TD*%
D14*
%TO.C,SWHOLE*%
X92000000Y-134000000D03*
%TD*%
D10*
%TO.C,J6*%
X91650000Y-79500000D03*
D11*
X91650000Y-82040000D03*
%TD*%
M02*
