%TF.GenerationSoftware,KiCad,Pcbnew,7.0.1*%
%TF.CreationDate,2023-05-01T08:30:34-07:00*%
%TF.ProjectId,lipo_drainer_schematic,6c69706f-5f64-4726-9169-6e65725f7363,rev?*%
%TF.SameCoordinates,Original*%
%TF.FileFunction,Paste,Top*%
%TF.FilePolarity,Positive*%
%FSLAX46Y46*%
G04 Gerber Fmt 4.6, Leading zero omitted, Abs format (unit mm)*
G04 Created by KiCad (PCBNEW 7.0.1) date 2023-05-01 08:30:34*
%MOMM*%
%LPD*%
G01*
G04 APERTURE LIST*
G04 Aperture macros list*
%AMRoundRect*
0 Rectangle with rounded corners*
0 $1 Rounding radius*
0 $2 $3 $4 $5 $6 $7 $8 $9 X,Y pos of 4 corners*
0 Add a 4 corners polygon primitive as box body*
4,1,4,$2,$3,$4,$5,$6,$7,$8,$9,$2,$3,0*
0 Add four circle primitives for the rounded corners*
1,1,$1+$1,$2,$3*
1,1,$1+$1,$4,$5*
1,1,$1+$1,$6,$7*
1,1,$1+$1,$8,$9*
0 Add four rect primitives between the rounded corners*
20,1,$1+$1,$2,$3,$4,$5,0*
20,1,$1+$1,$4,$5,$6,$7,0*
20,1,$1+$1,$6,$7,$8,$9,0*
20,1,$1+$1,$8,$9,$2,$3,0*%
G04 Aperture macros list end*
%ADD10RoundRect,0.250000X0.412500X0.650000X-0.412500X0.650000X-0.412500X-0.650000X0.412500X-0.650000X0*%
%ADD11RoundRect,0.250000X-0.450000X0.350000X-0.450000X-0.350000X0.450000X-0.350000X0.450000X0.350000X0*%
%ADD12RoundRect,0.150000X-0.150000X0.512500X-0.150000X-0.512500X0.150000X-0.512500X0.150000X0.512500X0*%
%ADD13RoundRect,0.150000X0.587500X0.150000X-0.587500X0.150000X-0.587500X-0.150000X0.587500X-0.150000X0*%
%ADD14RoundRect,0.500000X-0.500000X-0.500000X0.500000X-0.500000X0.500000X0.500000X-0.500000X0.500000X0*%
%ADD15RoundRect,0.250000X-0.650000X0.412500X-0.650000X-0.412500X0.650000X-0.412500X0.650000X0.412500X0*%
%ADD16RoundRect,0.250000X0.450000X-0.350000X0.450000X0.350000X-0.450000X0.350000X-0.450000X-0.350000X0*%
%ADD17RoundRect,0.500000X0.500000X-0.500000X0.500000X0.500000X-0.500000X0.500000X-0.500000X-0.500000X0*%
%ADD18RoundRect,0.250000X0.350000X0.450000X-0.350000X0.450000X-0.350000X-0.450000X0.350000X-0.450000X0*%
%ADD19RoundRect,0.250000X-0.412500X-0.650000X0.412500X-0.650000X0.412500X0.650000X-0.412500X0.650000X0*%
%ADD20RoundRect,0.500000X0.500000X0.500000X-0.500000X0.500000X-0.500000X-0.500000X0.500000X-0.500000X0*%
%ADD21RoundRect,0.250000X0.650000X-0.412500X0.650000X0.412500X-0.650000X0.412500X-0.650000X-0.412500X0*%
%ADD22RoundRect,0.250000X-0.350000X-0.450000X0.350000X-0.450000X0.350000X0.450000X-0.350000X0.450000X0*%
%ADD23RoundRect,0.250000X-0.350000X0.850000X-0.350000X-0.850000X0.350000X-0.850000X0.350000X0.850000X0*%
%ADD24RoundRect,0.250000X-1.125000X1.275000X-1.125000X-1.275000X1.125000X-1.275000X1.125000X1.275000X0*%
%ADD25RoundRect,0.250000X-1.000000X-0.900000X1.000000X-0.900000X1.000000X0.900000X-1.000000X0.900000X0*%
%ADD26RoundRect,0.150000X0.150000X-0.587500X0.150000X0.587500X-0.150000X0.587500X-0.150000X-0.587500X0*%
%ADD27RoundRect,0.150000X-0.587500X-0.150000X0.587500X-0.150000X0.587500X0.150000X-0.587500X0.150000X0*%
%TA.AperFunction,Profile*%
%ADD28C,0.100000*%
%TD*%
G04 APERTURE END LIST*
D10*
%TO.C,C1*%
X93875000Y-89000000D03*
X90750000Y-89000000D03*
%TD*%
D11*
%TO.C,R9*%
X138800000Y-95200000D03*
X138800000Y-97200000D03*
%TD*%
D12*
%TO.C,U3*%
X93875000Y-93225000D03*
X92925000Y-93225000D03*
X91975000Y-93225000D03*
X91975000Y-95500000D03*
X93875000Y-95500000D03*
%TD*%
D13*
%TO.C,Q1*%
X107875000Y-95000000D03*
X107875000Y-93100000D03*
X106000000Y-94050000D03*
%TD*%
D14*
%TO.C,SW1*%
X165500000Y-127750000D03*
X165500000Y-119750000D03*
%TD*%
D15*
%TO.C,C4*%
X131250000Y-83125000D03*
X131250000Y-86250000D03*
%TD*%
D16*
%TO.C,R25*%
X135750000Y-85750000D03*
X135750000Y-83750000D03*
%TD*%
D11*
%TO.C,R18*%
X140250000Y-88750000D03*
X140250000Y-90750000D03*
%TD*%
D17*
%TO.C,SW4*%
X120750000Y-89250000D03*
X112750000Y-89250000D03*
%TD*%
D18*
%TO.C,R7*%
X115750000Y-99000000D03*
X113750000Y-99000000D03*
%TD*%
D16*
%TO.C,R10*%
X134300000Y-97200000D03*
X134300000Y-95200000D03*
%TD*%
D19*
%TO.C,C2*%
X94750000Y-98500000D03*
X97875000Y-98500000D03*
%TD*%
D20*
%TO.C,SW5*%
X155500000Y-119750000D03*
X155500000Y-127750000D03*
%TD*%
D21*
%TO.C,C3*%
X125300000Y-97825000D03*
X125300000Y-94700000D03*
%TD*%
D13*
%TO.C,Q2*%
X99312500Y-94450000D03*
X99312500Y-92550000D03*
X97437500Y-93500000D03*
%TD*%
D20*
%TO.C,SW2*%
X175500000Y-119750000D03*
X175500000Y-127750000D03*
%TD*%
D10*
%TO.C,C6*%
X151125000Y-88200000D03*
X148000000Y-88200000D03*
%TD*%
D22*
%TO.C,R8*%
X109500000Y-78250000D03*
X111500000Y-78250000D03*
%TD*%
D11*
%TO.C,R16*%
X133250000Y-77750000D03*
X133250000Y-79750000D03*
%TD*%
D22*
%TO.C,R17*%
X127750000Y-80250000D03*
X129750000Y-80250000D03*
%TD*%
D11*
%TO.C,R14*%
X131250000Y-88750000D03*
X131250000Y-90750000D03*
%TD*%
D18*
%TO.C,R21*%
X96625000Y-82250000D03*
X94625000Y-82250000D03*
%TD*%
D23*
%TO.C,U1*%
X151205000Y-91425000D03*
D24*
X150450000Y-96050000D03*
X147400000Y-96050000D03*
X150450000Y-99400000D03*
X147400000Y-99400000D03*
D23*
X146645000Y-91425000D03*
%TD*%
D11*
%TO.C,R2*%
X102875000Y-92500000D03*
X102875000Y-94500000D03*
%TD*%
D16*
%TO.C,R15*%
X126750000Y-90750000D03*
X126750000Y-88750000D03*
%TD*%
D22*
%TO.C,R26*%
X169750000Y-117250000D03*
X171750000Y-117250000D03*
%TD*%
D18*
%TO.C,R1*%
X107875000Y-98000000D03*
X105875000Y-98000000D03*
%TD*%
D16*
%TO.C,R19*%
X135750000Y-90750000D03*
X135750000Y-88750000D03*
%TD*%
D22*
%TO.C,R3*%
X100875000Y-98000000D03*
X102875000Y-98000000D03*
%TD*%
D25*
%TO.C,D1*%
X147000000Y-81250000D03*
X151300000Y-81250000D03*
%TD*%
D26*
%TO.C,U4*%
X117850000Y-99000000D03*
X119750000Y-99000000D03*
X118800000Y-97125000D03*
%TD*%
D27*
%TO.C,Q5*%
X111562500Y-81300000D03*
X111562500Y-83200000D03*
X113437500Y-82250000D03*
%TD*%
D26*
%TO.C,Q9*%
X139850000Y-85250000D03*
X141750000Y-85250000D03*
X140800000Y-83375000D03*
%TD*%
D20*
%TO.C,SW3*%
X185500000Y-119750000D03*
X185500000Y-127750000D03*
%TD*%
D26*
%TO.C,Q6*%
X125350000Y-85250000D03*
X127250000Y-85250000D03*
X126300000Y-83375000D03*
%TD*%
%TO.C,U5*%
X99225000Y-82250000D03*
X101125000Y-82250000D03*
X100175000Y-80375000D03*
%TD*%
D18*
%TO.C,R12*%
X116000000Y-78250000D03*
X114000000Y-78250000D03*
%TD*%
%TO.C,R20*%
X139250000Y-80250000D03*
X137250000Y-80250000D03*
%TD*%
D11*
%TO.C,R11*%
X129800000Y-95200000D03*
X129800000Y-97200000D03*
%TD*%
D22*
%TO.C,R13*%
X116000000Y-82750000D03*
X118000000Y-82750000D03*
%TD*%
D19*
%TO.C,C5*%
X146475000Y-85000000D03*
X149600000Y-85000000D03*
%TD*%
D28*
X88000000Y-50000000D02*
X210000000Y-50000000D01*
X210000000Y-138000000D01*
X88000000Y-138000000D01*
X88000000Y-50000000D01*
M02*
