%TF.GenerationSoftware,KiCad,Pcbnew,7.0.1*%
%TF.CreationDate,2023-04-21T09:18:26-07:00*%
%TF.ProjectId,lipo_drainer_schematic,6c69706f-5f64-4726-9169-6e65725f7363,rev?*%
%TF.SameCoordinates,Original*%
%TF.FileFunction,Legend,Top*%
%TF.FilePolarity,Positive*%
%FSLAX46Y46*%
G04 Gerber Fmt 4.6, Leading zero omitted, Abs format (unit mm)*
G04 Created by KiCad (PCBNEW 7.0.1) date 2023-04-21 09:18:26*
%MOMM*%
%LPD*%
G01*
G04 APERTURE LIST*
G04 Aperture macros list*
%AMRoundRect*
0 Rectangle with rounded corners*
0 $1 Rounding radius*
0 $2 $3 $4 $5 $6 $7 $8 $9 X,Y pos of 4 corners*
0 Add a 4 corners polygon primitive as box body*
4,1,4,$2,$3,$4,$5,$6,$7,$8,$9,$2,$3,0*
0 Add four circle primitives for the rounded corners*
1,1,$1+$1,$2,$3*
1,1,$1+$1,$4,$5*
1,1,$1+$1,$6,$7*
1,1,$1+$1,$8,$9*
0 Add four rect primitives between the rounded corners*
20,1,$1+$1,$2,$3,$4,$5,0*
20,1,$1+$1,$4,$5,$6,$7,0*
20,1,$1+$1,$6,$7,$8,$9,0*
20,1,$1+$1,$8,$9,$2,$3,0*%
G04 Aperture macros list end*
%ADD10C,0.150000*%
%ADD11C,0.300000*%
%ADD12C,0.500000*%
%ADD13C,0.120000*%
%ADD14R,1.700000X1.700000*%
%ADD15O,1.700000X1.700000*%
%ADD16R,3.200000X3.200000*%
%ADD17O,3.200000X3.200000*%
%ADD18C,3.200000*%
%ADD19R,1.905000X2.000000*%
%ADD20O,1.905000X2.000000*%
%ADD21RoundRect,0.250000X0.412500X0.650000X-0.412500X0.650000X-0.412500X-0.650000X0.412500X-0.650000X0*%
%ADD22RoundRect,0.250000X-0.450000X0.350000X-0.450000X-0.350000X0.450000X-0.350000X0.450000X0.350000X0*%
%ADD23RoundRect,0.150000X-0.150000X0.512500X-0.150000X-0.512500X0.150000X-0.512500X0.150000X0.512500X0*%
%ADD24RoundRect,0.150000X0.587500X0.150000X-0.587500X0.150000X-0.587500X-0.150000X0.587500X-0.150000X0*%
%ADD25RoundRect,0.500000X-0.500000X-0.500000X0.500000X-0.500000X0.500000X0.500000X-0.500000X0.500000X0*%
%ADD26RoundRect,0.250000X-0.650000X0.412500X-0.650000X-0.412500X0.650000X-0.412500X0.650000X0.412500X0*%
%ADD27R,2.000000X2.000000*%
%ADD28O,2.000000X2.000000*%
%ADD29RoundRect,0.250000X0.450000X-0.350000X0.450000X0.350000X-0.450000X0.350000X-0.450000X-0.350000X0*%
%ADD30RoundRect,0.500000X0.500000X-0.500000X0.500000X0.500000X-0.500000X0.500000X-0.500000X-0.500000X0*%
%ADD31RoundRect,0.250000X0.350000X0.450000X-0.350000X0.450000X-0.350000X-0.450000X0.350000X-0.450000X0*%
%ADD32RoundRect,0.250000X-0.412500X-0.650000X0.412500X-0.650000X0.412500X0.650000X-0.412500X0.650000X0*%
%ADD33RoundRect,0.500000X0.500000X0.500000X-0.500000X0.500000X-0.500000X-0.500000X0.500000X-0.500000X0*%
%ADD34RoundRect,0.250000X0.650000X-0.412500X0.650000X0.412500X-0.650000X0.412500X-0.650000X-0.412500X0*%
%ADD35O,1.800000X1.800000*%
%ADD36O,1.500000X1.500000*%
%ADD37R,1.700000X3.500000*%
%ADD38R,3.500000X1.700000*%
%ADD39RoundRect,0.250000X-0.350000X-0.450000X0.350000X-0.450000X0.350000X0.450000X-0.350000X0.450000X0*%
%ADD40RoundRect,0.250000X-0.350000X0.850000X-0.350000X-0.850000X0.350000X-0.850000X0.350000X0.850000X0*%
%ADD41RoundRect,0.249997X-2.650003X2.950003X-2.650003X-2.950003X2.650003X-2.950003X2.650003X2.950003X0*%
%ADD42RoundRect,0.875000X0.875000X-0.875000X0.875000X0.875000X-0.875000X0.875000X-0.875000X-0.875000X0*%
%ADD43C,3.500000*%
%ADD44R,1.050000X1.500000*%
%ADD45O,1.050000X1.500000*%
%ADD46R,2.000000X0.900000*%
%ADD47RoundRect,1.025000X-1.025000X1.025000X-1.025000X-1.025000X1.025000X-1.025000X1.025000X1.025000X0*%
%ADD48C,4.100000*%
%ADD49RoundRect,0.250000X-1.000000X-0.900000X1.000000X-0.900000X1.000000X0.900000X-1.000000X0.900000X0*%
%ADD50RoundRect,0.150000X0.150000X-0.587500X0.150000X0.587500X-0.150000X0.587500X-0.150000X-0.587500X0*%
%ADD51RoundRect,0.150000X-0.587500X-0.150000X0.587500X-0.150000X0.587500X0.150000X-0.587500X0.150000X0*%
G04 APERTURE END LIST*
D10*
X122750000Y-76250000D02*
X144250000Y-76250000D01*
X144250000Y-93250000D01*
X122750000Y-93250000D01*
X122750000Y-76250000D01*
X88875000Y-86000000D02*
X110875000Y-86000000D01*
X110875000Y-101500000D01*
X88875000Y-101500000D01*
X88875000Y-86000000D01*
X88875000Y-76250000D02*
X104625000Y-76250000D01*
X104625000Y-86000000D01*
X88875000Y-86000000D01*
X88875000Y-76250000D01*
X144250000Y-77625000D02*
X154000000Y-77625000D01*
X154000000Y-103650000D01*
X144250000Y-103650000D01*
X144250000Y-77625000D01*
X89000000Y-61750000D02*
X99250000Y-61750000D01*
X99250000Y-72000000D01*
X89000000Y-72000000D01*
X89000000Y-61750000D01*
X154000000Y-80850000D02*
X189400000Y-80850000D01*
X189400000Y-114250000D01*
X154000000Y-114250000D01*
X154000000Y-80850000D01*
X122750000Y-93250000D02*
X141500000Y-93250000D01*
X141500000Y-102500000D01*
X122750000Y-102500000D01*
X122750000Y-93250000D01*
X112250000Y-93500000D02*
X122750000Y-93500000D01*
X122750000Y-102500000D01*
X112250000Y-102500000D01*
X112250000Y-93500000D01*
X152500000Y-115750000D02*
X189500000Y-115750000D01*
X189500000Y-132750000D01*
X152500000Y-132750000D01*
X152500000Y-115750000D01*
X106500000Y-75750000D02*
X120000000Y-75750000D01*
X120000000Y-85750000D01*
X106500000Y-85750000D01*
X106500000Y-75750000D01*
X94038095Y-77877619D02*
X94038095Y-76877619D01*
X94466666Y-77830000D02*
X94609523Y-77877619D01*
X94609523Y-77877619D02*
X94847618Y-77877619D01*
X94847618Y-77877619D02*
X94942856Y-77830000D01*
X94942856Y-77830000D02*
X94990475Y-77782380D01*
X94990475Y-77782380D02*
X95038094Y-77687142D01*
X95038094Y-77687142D02*
X95038094Y-77591904D01*
X95038094Y-77591904D02*
X94990475Y-77496666D01*
X94990475Y-77496666D02*
X94942856Y-77449047D01*
X94942856Y-77449047D02*
X94847618Y-77401428D01*
X94847618Y-77401428D02*
X94657142Y-77353809D01*
X94657142Y-77353809D02*
X94561904Y-77306190D01*
X94561904Y-77306190D02*
X94514285Y-77258571D01*
X94514285Y-77258571D02*
X94466666Y-77163333D01*
X94466666Y-77163333D02*
X94466666Y-77068095D01*
X94466666Y-77068095D02*
X94514285Y-76972857D01*
X94514285Y-76972857D02*
X94561904Y-76925238D01*
X94561904Y-76925238D02*
X94657142Y-76877619D01*
X94657142Y-76877619D02*
X94895237Y-76877619D01*
X94895237Y-76877619D02*
X95038094Y-76925238D01*
X95466666Y-77353809D02*
X95799999Y-77353809D01*
X95942856Y-77877619D02*
X95466666Y-77877619D01*
X95466666Y-77877619D02*
X95466666Y-76877619D01*
X95466666Y-76877619D02*
X95942856Y-76877619D01*
X96371428Y-77877619D02*
X96371428Y-76877619D01*
X96371428Y-76877619D02*
X96942856Y-77877619D01*
X96942856Y-77877619D02*
X96942856Y-76877619D01*
X97371428Y-77830000D02*
X97514285Y-77877619D01*
X97514285Y-77877619D02*
X97752380Y-77877619D01*
X97752380Y-77877619D02*
X97847618Y-77830000D01*
X97847618Y-77830000D02*
X97895237Y-77782380D01*
X97895237Y-77782380D02*
X97942856Y-77687142D01*
X97942856Y-77687142D02*
X97942856Y-77591904D01*
X97942856Y-77591904D02*
X97895237Y-77496666D01*
X97895237Y-77496666D02*
X97847618Y-77449047D01*
X97847618Y-77449047D02*
X97752380Y-77401428D01*
X97752380Y-77401428D02*
X97561904Y-77353809D01*
X97561904Y-77353809D02*
X97466666Y-77306190D01*
X97466666Y-77306190D02*
X97419047Y-77258571D01*
X97419047Y-77258571D02*
X97371428Y-77163333D01*
X97371428Y-77163333D02*
X97371428Y-77068095D01*
X97371428Y-77068095D02*
X97419047Y-76972857D01*
X97419047Y-76972857D02*
X97466666Y-76925238D01*
X97466666Y-76925238D02*
X97561904Y-76877619D01*
X97561904Y-76877619D02*
X97799999Y-76877619D01*
X97799999Y-76877619D02*
X97942856Y-76925238D01*
X98371428Y-77353809D02*
X98704761Y-77353809D01*
X98847618Y-77877619D02*
X98371428Y-77877619D01*
X98371428Y-77877619D02*
X98371428Y-76877619D01*
X98371428Y-76877619D02*
X98847618Y-76877619D01*
X107877619Y-83011904D02*
X106877619Y-83011904D01*
X107877619Y-82535714D02*
X106877619Y-82535714D01*
X106877619Y-82535714D02*
X107877619Y-81964286D01*
X107877619Y-81964286D02*
X106877619Y-81964286D01*
X107877619Y-80916667D02*
X107401428Y-81250000D01*
X107877619Y-81488095D02*
X106877619Y-81488095D01*
X106877619Y-81488095D02*
X106877619Y-81107143D01*
X106877619Y-81107143D02*
X106925238Y-81011905D01*
X106925238Y-81011905D02*
X106972857Y-80964286D01*
X106972857Y-80964286D02*
X107068095Y-80916667D01*
X107068095Y-80916667D02*
X107210952Y-80916667D01*
X107210952Y-80916667D02*
X107306190Y-80964286D01*
X107306190Y-80964286D02*
X107353809Y-81011905D01*
X107353809Y-81011905D02*
X107401428Y-81107143D01*
X107401428Y-81107143D02*
X107401428Y-81488095D01*
X106877619Y-80488095D02*
X107687142Y-80488095D01*
X107687142Y-80488095D02*
X107782380Y-80440476D01*
X107782380Y-80440476D02*
X107830000Y-80392857D01*
X107830000Y-80392857D02*
X107877619Y-80297619D01*
X107877619Y-80297619D02*
X107877619Y-80107143D01*
X107877619Y-80107143D02*
X107830000Y-80011905D01*
X107830000Y-80011905D02*
X107782380Y-79964286D01*
X107782380Y-79964286D02*
X107687142Y-79916667D01*
X107687142Y-79916667D02*
X106877619Y-79916667D01*
X107830000Y-79488095D02*
X107877619Y-79345238D01*
X107877619Y-79345238D02*
X107877619Y-79107143D01*
X107877619Y-79107143D02*
X107830000Y-79011905D01*
X107830000Y-79011905D02*
X107782380Y-78964286D01*
X107782380Y-78964286D02*
X107687142Y-78916667D01*
X107687142Y-78916667D02*
X107591904Y-78916667D01*
X107591904Y-78916667D02*
X107496666Y-78964286D01*
X107496666Y-78964286D02*
X107449047Y-79011905D01*
X107449047Y-79011905D02*
X107401428Y-79107143D01*
X107401428Y-79107143D02*
X107353809Y-79297619D01*
X107353809Y-79297619D02*
X107306190Y-79392857D01*
X107306190Y-79392857D02*
X107258571Y-79440476D01*
X107258571Y-79440476D02*
X107163333Y-79488095D01*
X107163333Y-79488095D02*
X107068095Y-79488095D01*
X107068095Y-79488095D02*
X106972857Y-79440476D01*
X106972857Y-79440476D02*
X106925238Y-79392857D01*
X106925238Y-79392857D02*
X106877619Y-79297619D01*
X106877619Y-79297619D02*
X106877619Y-79059524D01*
X106877619Y-79059524D02*
X106925238Y-78916667D01*
X107877619Y-78488095D02*
X106877619Y-78488095D01*
X107353809Y-78488095D02*
X107353809Y-77916667D01*
X107877619Y-77916667D02*
X106877619Y-77916667D01*
D11*
X102607142Y-133100714D02*
X102821428Y-133172142D01*
X102821428Y-133172142D02*
X102892857Y-133243571D01*
X102892857Y-133243571D02*
X102964285Y-133386428D01*
X102964285Y-133386428D02*
X102964285Y-133600714D01*
X102964285Y-133600714D02*
X102892857Y-133743571D01*
X102892857Y-133743571D02*
X102821428Y-133815000D01*
X102821428Y-133815000D02*
X102678571Y-133886428D01*
X102678571Y-133886428D02*
X102107142Y-133886428D01*
X102107142Y-133886428D02*
X102107142Y-132386428D01*
X102107142Y-132386428D02*
X102607142Y-132386428D01*
X102607142Y-132386428D02*
X102750000Y-132457857D01*
X102750000Y-132457857D02*
X102821428Y-132529285D01*
X102821428Y-132529285D02*
X102892857Y-132672142D01*
X102892857Y-132672142D02*
X102892857Y-132815000D01*
X102892857Y-132815000D02*
X102821428Y-132957857D01*
X102821428Y-132957857D02*
X102750000Y-133029285D01*
X102750000Y-133029285D02*
X102607142Y-133100714D01*
X102607142Y-133100714D02*
X102107142Y-133100714D01*
X104250000Y-133886428D02*
X104250000Y-133100714D01*
X104250000Y-133100714D02*
X104178571Y-132957857D01*
X104178571Y-132957857D02*
X104035714Y-132886428D01*
X104035714Y-132886428D02*
X103750000Y-132886428D01*
X103750000Y-132886428D02*
X103607142Y-132957857D01*
X104250000Y-133815000D02*
X104107142Y-133886428D01*
X104107142Y-133886428D02*
X103750000Y-133886428D01*
X103750000Y-133886428D02*
X103607142Y-133815000D01*
X103607142Y-133815000D02*
X103535714Y-133672142D01*
X103535714Y-133672142D02*
X103535714Y-133529285D01*
X103535714Y-133529285D02*
X103607142Y-133386428D01*
X103607142Y-133386428D02*
X103750000Y-133315000D01*
X103750000Y-133315000D02*
X104107142Y-133315000D01*
X104107142Y-133315000D02*
X104250000Y-133243571D01*
X104750000Y-132886428D02*
X105321428Y-132886428D01*
X104964285Y-132386428D02*
X104964285Y-133672142D01*
X104964285Y-133672142D02*
X105035714Y-133815000D01*
X105035714Y-133815000D02*
X105178571Y-133886428D01*
X105178571Y-133886428D02*
X105321428Y-133886428D01*
X105607143Y-132886428D02*
X106178571Y-132886428D01*
X105821428Y-132386428D02*
X105821428Y-133672142D01*
X105821428Y-133672142D02*
X105892857Y-133815000D01*
X105892857Y-133815000D02*
X106035714Y-133886428D01*
X106035714Y-133886428D02*
X106178571Y-133886428D01*
X107250000Y-133815000D02*
X107107143Y-133886428D01*
X107107143Y-133886428D02*
X106821429Y-133886428D01*
X106821429Y-133886428D02*
X106678571Y-133815000D01*
X106678571Y-133815000D02*
X106607143Y-133672142D01*
X106607143Y-133672142D02*
X106607143Y-133100714D01*
X106607143Y-133100714D02*
X106678571Y-132957857D01*
X106678571Y-132957857D02*
X106821429Y-132886428D01*
X106821429Y-132886428D02*
X107107143Y-132886428D01*
X107107143Y-132886428D02*
X107250000Y-132957857D01*
X107250000Y-132957857D02*
X107321429Y-133100714D01*
X107321429Y-133100714D02*
X107321429Y-133243571D01*
X107321429Y-133243571D02*
X106607143Y-133386428D01*
X107964285Y-133886428D02*
X107964285Y-132886428D01*
X107964285Y-133172142D02*
X108035714Y-133029285D01*
X108035714Y-133029285D02*
X108107143Y-132957857D01*
X108107143Y-132957857D02*
X108250000Y-132886428D01*
X108250000Y-132886428D02*
X108392857Y-132886428D01*
X108749999Y-132886428D02*
X109107142Y-133886428D01*
X109464285Y-132886428D02*
X109107142Y-133886428D01*
X109107142Y-133886428D02*
X108964285Y-134243571D01*
X108964285Y-134243571D02*
X108892856Y-134315000D01*
X108892856Y-134315000D02*
X108749999Y-134386428D01*
X111178570Y-133886428D02*
X111178570Y-132386428D01*
X111178570Y-132386428D02*
X111535713Y-132386428D01*
X111535713Y-132386428D02*
X111749999Y-132457857D01*
X111749999Y-132457857D02*
X111892856Y-132600714D01*
X111892856Y-132600714D02*
X111964285Y-132743571D01*
X111964285Y-132743571D02*
X112035713Y-133029285D01*
X112035713Y-133029285D02*
X112035713Y-133243571D01*
X112035713Y-133243571D02*
X111964285Y-133529285D01*
X111964285Y-133529285D02*
X111892856Y-133672142D01*
X111892856Y-133672142D02*
X111749999Y-133815000D01*
X111749999Y-133815000D02*
X111535713Y-133886428D01*
X111535713Y-133886428D02*
X111178570Y-133886428D01*
X112678570Y-133886428D02*
X112678570Y-132886428D01*
X112678570Y-133172142D02*
X112749999Y-133029285D01*
X112749999Y-133029285D02*
X112821428Y-132957857D01*
X112821428Y-132957857D02*
X112964285Y-132886428D01*
X112964285Y-132886428D02*
X113107142Y-132886428D01*
X114249999Y-133886428D02*
X114249999Y-133100714D01*
X114249999Y-133100714D02*
X114178570Y-132957857D01*
X114178570Y-132957857D02*
X114035713Y-132886428D01*
X114035713Y-132886428D02*
X113749999Y-132886428D01*
X113749999Y-132886428D02*
X113607141Y-132957857D01*
X114249999Y-133815000D02*
X114107141Y-133886428D01*
X114107141Y-133886428D02*
X113749999Y-133886428D01*
X113749999Y-133886428D02*
X113607141Y-133815000D01*
X113607141Y-133815000D02*
X113535713Y-133672142D01*
X113535713Y-133672142D02*
X113535713Y-133529285D01*
X113535713Y-133529285D02*
X113607141Y-133386428D01*
X113607141Y-133386428D02*
X113749999Y-133315000D01*
X113749999Y-133315000D02*
X114107141Y-133315000D01*
X114107141Y-133315000D02*
X114249999Y-133243571D01*
X114964284Y-133886428D02*
X114964284Y-132886428D01*
X114964284Y-132386428D02*
X114892856Y-132457857D01*
X114892856Y-132457857D02*
X114964284Y-132529285D01*
X114964284Y-132529285D02*
X115035713Y-132457857D01*
X115035713Y-132457857D02*
X114964284Y-132386428D01*
X114964284Y-132386428D02*
X114964284Y-132529285D01*
X115678570Y-132886428D02*
X115678570Y-133886428D01*
X115678570Y-133029285D02*
X115749999Y-132957857D01*
X115749999Y-132957857D02*
X115892856Y-132886428D01*
X115892856Y-132886428D02*
X116107142Y-132886428D01*
X116107142Y-132886428D02*
X116249999Y-132957857D01*
X116249999Y-132957857D02*
X116321428Y-133100714D01*
X116321428Y-133100714D02*
X116321428Y-133886428D01*
X117607142Y-133815000D02*
X117464285Y-133886428D01*
X117464285Y-133886428D02*
X117178571Y-133886428D01*
X117178571Y-133886428D02*
X117035713Y-133815000D01*
X117035713Y-133815000D02*
X116964285Y-133672142D01*
X116964285Y-133672142D02*
X116964285Y-133100714D01*
X116964285Y-133100714D02*
X117035713Y-132957857D01*
X117035713Y-132957857D02*
X117178571Y-132886428D01*
X117178571Y-132886428D02*
X117464285Y-132886428D01*
X117464285Y-132886428D02*
X117607142Y-132957857D01*
X117607142Y-132957857D02*
X117678571Y-133100714D01*
X117678571Y-133100714D02*
X117678571Y-133243571D01*
X117678571Y-133243571D02*
X116964285Y-133386428D01*
X118321427Y-133886428D02*
X118321427Y-132886428D01*
X118321427Y-133172142D02*
X118392856Y-133029285D01*
X118392856Y-133029285D02*
X118464285Y-132957857D01*
X118464285Y-132957857D02*
X118607142Y-132886428D01*
X118607142Y-132886428D02*
X118749999Y-132886428D01*
X102535714Y-136887857D02*
X102464285Y-136816428D01*
X102464285Y-136816428D02*
X102321428Y-136602142D01*
X102321428Y-136602142D02*
X102250000Y-136459285D01*
X102250000Y-136459285D02*
X102178571Y-136245000D01*
X102178571Y-136245000D02*
X102107142Y-135887857D01*
X102107142Y-135887857D02*
X102107142Y-135602142D01*
X102107142Y-135602142D02*
X102178571Y-135245000D01*
X102178571Y-135245000D02*
X102250000Y-135030714D01*
X102250000Y-135030714D02*
X102321428Y-134887857D01*
X102321428Y-134887857D02*
X102464285Y-134673571D01*
X102464285Y-134673571D02*
X102535714Y-134602142D01*
X103964285Y-136173571D02*
X103892857Y-136245000D01*
X103892857Y-136245000D02*
X103678571Y-136316428D01*
X103678571Y-136316428D02*
X103535714Y-136316428D01*
X103535714Y-136316428D02*
X103321428Y-136245000D01*
X103321428Y-136245000D02*
X103178571Y-136102142D01*
X103178571Y-136102142D02*
X103107142Y-135959285D01*
X103107142Y-135959285D02*
X103035714Y-135673571D01*
X103035714Y-135673571D02*
X103035714Y-135459285D01*
X103035714Y-135459285D02*
X103107142Y-135173571D01*
X103107142Y-135173571D02*
X103178571Y-135030714D01*
X103178571Y-135030714D02*
X103321428Y-134887857D01*
X103321428Y-134887857D02*
X103535714Y-134816428D01*
X103535714Y-134816428D02*
X103678571Y-134816428D01*
X103678571Y-134816428D02*
X103892857Y-134887857D01*
X103892857Y-134887857D02*
X103964285Y-134959285D01*
X104464285Y-136887857D02*
X104535714Y-136816428D01*
X104535714Y-136816428D02*
X104678571Y-136602142D01*
X104678571Y-136602142D02*
X104750000Y-136459285D01*
X104750000Y-136459285D02*
X104821428Y-136245000D01*
X104821428Y-136245000D02*
X104892857Y-135887857D01*
X104892857Y-135887857D02*
X104892857Y-135602142D01*
X104892857Y-135602142D02*
X104821428Y-135245000D01*
X104821428Y-135245000D02*
X104750000Y-135030714D01*
X104750000Y-135030714D02*
X104678571Y-134887857D01*
X104678571Y-134887857D02*
X104535714Y-134673571D01*
X104535714Y-134673571D02*
X104464285Y-134602142D01*
X106678571Y-134959285D02*
X106749999Y-134887857D01*
X106749999Y-134887857D02*
X106892857Y-134816428D01*
X106892857Y-134816428D02*
X107249999Y-134816428D01*
X107249999Y-134816428D02*
X107392857Y-134887857D01*
X107392857Y-134887857D02*
X107464285Y-134959285D01*
X107464285Y-134959285D02*
X107535714Y-135102142D01*
X107535714Y-135102142D02*
X107535714Y-135245000D01*
X107535714Y-135245000D02*
X107464285Y-135459285D01*
X107464285Y-135459285D02*
X106607142Y-136316428D01*
X106607142Y-136316428D02*
X107535714Y-136316428D01*
X108464285Y-134816428D02*
X108607142Y-134816428D01*
X108607142Y-134816428D02*
X108749999Y-134887857D01*
X108749999Y-134887857D02*
X108821428Y-134959285D01*
X108821428Y-134959285D02*
X108892856Y-135102142D01*
X108892856Y-135102142D02*
X108964285Y-135387857D01*
X108964285Y-135387857D02*
X108964285Y-135745000D01*
X108964285Y-135745000D02*
X108892856Y-136030714D01*
X108892856Y-136030714D02*
X108821428Y-136173571D01*
X108821428Y-136173571D02*
X108749999Y-136245000D01*
X108749999Y-136245000D02*
X108607142Y-136316428D01*
X108607142Y-136316428D02*
X108464285Y-136316428D01*
X108464285Y-136316428D02*
X108321428Y-136245000D01*
X108321428Y-136245000D02*
X108249999Y-136173571D01*
X108249999Y-136173571D02*
X108178570Y-136030714D01*
X108178570Y-136030714D02*
X108107142Y-135745000D01*
X108107142Y-135745000D02*
X108107142Y-135387857D01*
X108107142Y-135387857D02*
X108178570Y-135102142D01*
X108178570Y-135102142D02*
X108249999Y-134959285D01*
X108249999Y-134959285D02*
X108321428Y-134887857D01*
X108321428Y-134887857D02*
X108464285Y-134816428D01*
X109535713Y-134959285D02*
X109607141Y-134887857D01*
X109607141Y-134887857D02*
X109749999Y-134816428D01*
X109749999Y-134816428D02*
X110107141Y-134816428D01*
X110107141Y-134816428D02*
X110249999Y-134887857D01*
X110249999Y-134887857D02*
X110321427Y-134959285D01*
X110321427Y-134959285D02*
X110392856Y-135102142D01*
X110392856Y-135102142D02*
X110392856Y-135245000D01*
X110392856Y-135245000D02*
X110321427Y-135459285D01*
X110321427Y-135459285D02*
X109464284Y-136316428D01*
X109464284Y-136316428D02*
X110392856Y-136316428D01*
X110892855Y-134816428D02*
X111821427Y-134816428D01*
X111821427Y-134816428D02*
X111321427Y-135387857D01*
X111321427Y-135387857D02*
X111535712Y-135387857D01*
X111535712Y-135387857D02*
X111678570Y-135459285D01*
X111678570Y-135459285D02*
X111749998Y-135530714D01*
X111749998Y-135530714D02*
X111821427Y-135673571D01*
X111821427Y-135673571D02*
X111821427Y-136030714D01*
X111821427Y-136030714D02*
X111749998Y-136173571D01*
X111749998Y-136173571D02*
X111678570Y-136245000D01*
X111678570Y-136245000D02*
X111535712Y-136316428D01*
X111535712Y-136316428D02*
X111107141Y-136316428D01*
X111107141Y-136316428D02*
X110964284Y-136245000D01*
X110964284Y-136245000D02*
X110892855Y-136173571D01*
X113607140Y-136316428D02*
X113607140Y-134816428D01*
X113607140Y-134816428D02*
X114107140Y-135887857D01*
X114107140Y-135887857D02*
X114607140Y-134816428D01*
X114607140Y-134816428D02*
X114607140Y-136316428D01*
X115964284Y-136316428D02*
X115964284Y-135530714D01*
X115964284Y-135530714D02*
X115892855Y-135387857D01*
X115892855Y-135387857D02*
X115749998Y-135316428D01*
X115749998Y-135316428D02*
X115464284Y-135316428D01*
X115464284Y-135316428D02*
X115321426Y-135387857D01*
X115964284Y-136245000D02*
X115821426Y-136316428D01*
X115821426Y-136316428D02*
X115464284Y-136316428D01*
X115464284Y-136316428D02*
X115321426Y-136245000D01*
X115321426Y-136245000D02*
X115249998Y-136102142D01*
X115249998Y-136102142D02*
X115249998Y-135959285D01*
X115249998Y-135959285D02*
X115321426Y-135816428D01*
X115321426Y-135816428D02*
X115464284Y-135745000D01*
X115464284Y-135745000D02*
X115821426Y-135745000D01*
X115821426Y-135745000D02*
X115964284Y-135673571D01*
X116464284Y-135316428D02*
X117035712Y-135316428D01*
X116678569Y-134816428D02*
X116678569Y-136102142D01*
X116678569Y-136102142D02*
X116749998Y-136245000D01*
X116749998Y-136245000D02*
X116892855Y-136316428D01*
X116892855Y-136316428D02*
X117035712Y-136316428D01*
X117321427Y-135316428D02*
X117892855Y-135316428D01*
X117535712Y-134816428D02*
X117535712Y-136102142D01*
X117535712Y-136102142D02*
X117607141Y-136245000D01*
X117607141Y-136245000D02*
X117749998Y-136316428D01*
X117749998Y-136316428D02*
X117892855Y-136316428D01*
X119392855Y-134816428D02*
X119749998Y-136316428D01*
X119749998Y-136316428D02*
X120035712Y-135245000D01*
X120035712Y-135245000D02*
X120321427Y-136316428D01*
X120321427Y-136316428D02*
X120678570Y-134816428D01*
X121892856Y-136316428D02*
X121892856Y-135530714D01*
X121892856Y-135530714D02*
X121821427Y-135387857D01*
X121821427Y-135387857D02*
X121678570Y-135316428D01*
X121678570Y-135316428D02*
X121392856Y-135316428D01*
X121392856Y-135316428D02*
X121249998Y-135387857D01*
X121892856Y-136245000D02*
X121749998Y-136316428D01*
X121749998Y-136316428D02*
X121392856Y-136316428D01*
X121392856Y-136316428D02*
X121249998Y-136245000D01*
X121249998Y-136245000D02*
X121178570Y-136102142D01*
X121178570Y-136102142D02*
X121178570Y-135959285D01*
X121178570Y-135959285D02*
X121249998Y-135816428D01*
X121249998Y-135816428D02*
X121392856Y-135745000D01*
X121392856Y-135745000D02*
X121749998Y-135745000D01*
X121749998Y-135745000D02*
X121892856Y-135673571D01*
X123249999Y-136245000D02*
X123107141Y-136316428D01*
X123107141Y-136316428D02*
X122821427Y-136316428D01*
X122821427Y-136316428D02*
X122678570Y-136245000D01*
X122678570Y-136245000D02*
X122607141Y-136173571D01*
X122607141Y-136173571D02*
X122535713Y-136030714D01*
X122535713Y-136030714D02*
X122535713Y-135602142D01*
X122535713Y-135602142D02*
X122607141Y-135459285D01*
X122607141Y-135459285D02*
X122678570Y-135387857D01*
X122678570Y-135387857D02*
X122821427Y-135316428D01*
X122821427Y-135316428D02*
X123107141Y-135316428D01*
X123107141Y-135316428D02*
X123249999Y-135387857D01*
X123892855Y-136316428D02*
X123892855Y-134816428D01*
X124535713Y-136316428D02*
X124535713Y-135530714D01*
X124535713Y-135530714D02*
X124464284Y-135387857D01*
X124464284Y-135387857D02*
X124321427Y-135316428D01*
X124321427Y-135316428D02*
X124107141Y-135316428D01*
X124107141Y-135316428D02*
X123964284Y-135387857D01*
X123964284Y-135387857D02*
X123892855Y-135459285D01*
X125464284Y-136316428D02*
X125321427Y-136245000D01*
X125321427Y-136245000D02*
X125249998Y-136173571D01*
X125249998Y-136173571D02*
X125178570Y-136030714D01*
X125178570Y-136030714D02*
X125178570Y-135602142D01*
X125178570Y-135602142D02*
X125249998Y-135459285D01*
X125249998Y-135459285D02*
X125321427Y-135387857D01*
X125321427Y-135387857D02*
X125464284Y-135316428D01*
X125464284Y-135316428D02*
X125678570Y-135316428D01*
X125678570Y-135316428D02*
X125821427Y-135387857D01*
X125821427Y-135387857D02*
X125892856Y-135459285D01*
X125892856Y-135459285D02*
X125964284Y-135602142D01*
X125964284Y-135602142D02*
X125964284Y-136030714D01*
X125964284Y-136030714D02*
X125892856Y-136173571D01*
X125892856Y-136173571D02*
X125821427Y-136245000D01*
X125821427Y-136245000D02*
X125678570Y-136316428D01*
X125678570Y-136316428D02*
X125464284Y-136316428D01*
X126464284Y-135316428D02*
X126749999Y-136316428D01*
X126749999Y-136316428D02*
X127035713Y-135602142D01*
X127035713Y-135602142D02*
X127321427Y-136316428D01*
X127321427Y-136316428D02*
X127607141Y-135316428D01*
X128107142Y-136245000D02*
X128249999Y-136316428D01*
X128249999Y-136316428D02*
X128535713Y-136316428D01*
X128535713Y-136316428D02*
X128678570Y-136245000D01*
X128678570Y-136245000D02*
X128749999Y-136102142D01*
X128749999Y-136102142D02*
X128749999Y-136030714D01*
X128749999Y-136030714D02*
X128678570Y-135887857D01*
X128678570Y-135887857D02*
X128535713Y-135816428D01*
X128535713Y-135816428D02*
X128321428Y-135816428D01*
X128321428Y-135816428D02*
X128178570Y-135745000D01*
X128178570Y-135745000D02*
X128107142Y-135602142D01*
X128107142Y-135602142D02*
X128107142Y-135530714D01*
X128107142Y-135530714D02*
X128178570Y-135387857D01*
X128178570Y-135387857D02*
X128321428Y-135316428D01*
X128321428Y-135316428D02*
X128535713Y-135316428D01*
X128535713Y-135316428D02*
X128678570Y-135387857D01*
X129392856Y-136316428D02*
X129392856Y-134816428D01*
X129535714Y-135745000D02*
X129964285Y-136316428D01*
X129964285Y-135316428D02*
X129392856Y-135887857D01*
X130607142Y-136316428D02*
X130607142Y-135316428D01*
X130607142Y-134816428D02*
X130535714Y-134887857D01*
X130535714Y-134887857D02*
X130607142Y-134959285D01*
X130607142Y-134959285D02*
X130678571Y-134887857D01*
X130678571Y-134887857D02*
X130607142Y-134816428D01*
X130607142Y-134816428D02*
X130607142Y-134959285D01*
D12*
X193833333Y-130882857D02*
X193833333Y-132882857D01*
X193357142Y-129740000D02*
X192880952Y-131882857D01*
X192880952Y-131882857D02*
X194119047Y-131882857D01*
X194880952Y-131740000D02*
X196404762Y-131740000D01*
X197166666Y-129882857D02*
X198404761Y-129882857D01*
X198404761Y-129882857D02*
X197738094Y-131025714D01*
X197738094Y-131025714D02*
X198023809Y-131025714D01*
X198023809Y-131025714D02*
X198214285Y-131168571D01*
X198214285Y-131168571D02*
X198309523Y-131311428D01*
X198309523Y-131311428D02*
X198404761Y-131597142D01*
X198404761Y-131597142D02*
X198404761Y-132311428D01*
X198404761Y-132311428D02*
X198309523Y-132597142D01*
X198309523Y-132597142D02*
X198214285Y-132740000D01*
X198214285Y-132740000D02*
X198023809Y-132882857D01*
X198023809Y-132882857D02*
X197452380Y-132882857D01*
X197452380Y-132882857D02*
X197261904Y-132740000D01*
X197261904Y-132740000D02*
X197166666Y-132597142D01*
X199642856Y-129882857D02*
X199833333Y-129882857D01*
X199833333Y-129882857D02*
X200023809Y-130025714D01*
X200023809Y-130025714D02*
X200119047Y-130168571D01*
X200119047Y-130168571D02*
X200214285Y-130454285D01*
X200214285Y-130454285D02*
X200309523Y-131025714D01*
X200309523Y-131025714D02*
X200309523Y-131740000D01*
X200309523Y-131740000D02*
X200214285Y-132311428D01*
X200214285Y-132311428D02*
X200119047Y-132597142D01*
X200119047Y-132597142D02*
X200023809Y-132740000D01*
X200023809Y-132740000D02*
X199833333Y-132882857D01*
X199833333Y-132882857D02*
X199642856Y-132882857D01*
X199642856Y-132882857D02*
X199452380Y-132740000D01*
X199452380Y-132740000D02*
X199357142Y-132597142D01*
X199357142Y-132597142D02*
X199261904Y-132311428D01*
X199261904Y-132311428D02*
X199166666Y-131740000D01*
X199166666Y-131740000D02*
X199166666Y-131025714D01*
X199166666Y-131025714D02*
X199261904Y-130454285D01*
X199261904Y-130454285D02*
X199357142Y-130168571D01*
X199357142Y-130168571D02*
X199452380Y-130025714D01*
X199452380Y-130025714D02*
X199642856Y-129882857D01*
X200880952Y-129882857D02*
X201547618Y-132882857D01*
X201547618Y-132882857D02*
X202214285Y-129882857D01*
D10*
X125845238Y-100127619D02*
X126178571Y-101127619D01*
X126178571Y-101127619D02*
X126511904Y-100127619D01*
X126797619Y-101080000D02*
X126940476Y-101127619D01*
X126940476Y-101127619D02*
X127178571Y-101127619D01*
X127178571Y-101127619D02*
X127273809Y-101080000D01*
X127273809Y-101080000D02*
X127321428Y-101032380D01*
X127321428Y-101032380D02*
X127369047Y-100937142D01*
X127369047Y-100937142D02*
X127369047Y-100841904D01*
X127369047Y-100841904D02*
X127321428Y-100746666D01*
X127321428Y-100746666D02*
X127273809Y-100699047D01*
X127273809Y-100699047D02*
X127178571Y-100651428D01*
X127178571Y-100651428D02*
X126988095Y-100603809D01*
X126988095Y-100603809D02*
X126892857Y-100556190D01*
X126892857Y-100556190D02*
X126845238Y-100508571D01*
X126845238Y-100508571D02*
X126797619Y-100413333D01*
X126797619Y-100413333D02*
X126797619Y-100318095D01*
X126797619Y-100318095D02*
X126845238Y-100222857D01*
X126845238Y-100222857D02*
X126892857Y-100175238D01*
X126892857Y-100175238D02*
X126988095Y-100127619D01*
X126988095Y-100127619D02*
X127226190Y-100127619D01*
X127226190Y-100127619D02*
X127369047Y-100175238D01*
X127797619Y-100603809D02*
X128130952Y-100603809D01*
X128273809Y-101127619D02*
X127797619Y-101127619D01*
X127797619Y-101127619D02*
X127797619Y-100127619D01*
X127797619Y-100127619D02*
X128273809Y-100127619D01*
X128702381Y-101127619D02*
X128702381Y-100127619D01*
X128702381Y-100127619D02*
X129273809Y-101127619D01*
X129273809Y-101127619D02*
X129273809Y-100127619D01*
X129702381Y-101080000D02*
X129845238Y-101127619D01*
X129845238Y-101127619D02*
X130083333Y-101127619D01*
X130083333Y-101127619D02*
X130178571Y-101080000D01*
X130178571Y-101080000D02*
X130226190Y-101032380D01*
X130226190Y-101032380D02*
X130273809Y-100937142D01*
X130273809Y-100937142D02*
X130273809Y-100841904D01*
X130273809Y-100841904D02*
X130226190Y-100746666D01*
X130226190Y-100746666D02*
X130178571Y-100699047D01*
X130178571Y-100699047D02*
X130083333Y-100651428D01*
X130083333Y-100651428D02*
X129892857Y-100603809D01*
X129892857Y-100603809D02*
X129797619Y-100556190D01*
X129797619Y-100556190D02*
X129750000Y-100508571D01*
X129750000Y-100508571D02*
X129702381Y-100413333D01*
X129702381Y-100413333D02*
X129702381Y-100318095D01*
X129702381Y-100318095D02*
X129750000Y-100222857D01*
X129750000Y-100222857D02*
X129797619Y-100175238D01*
X129797619Y-100175238D02*
X129892857Y-100127619D01*
X129892857Y-100127619D02*
X130130952Y-100127619D01*
X130130952Y-100127619D02*
X130273809Y-100175238D01*
X130702381Y-100603809D02*
X131035714Y-100603809D01*
X131178571Y-101127619D02*
X130702381Y-101127619D01*
X130702381Y-101127619D02*
X130702381Y-100127619D01*
X130702381Y-100127619D02*
X131178571Y-100127619D01*
X168659523Y-131732380D02*
X168611904Y-131780000D01*
X168611904Y-131780000D02*
X168469047Y-131827619D01*
X168469047Y-131827619D02*
X168373809Y-131827619D01*
X168373809Y-131827619D02*
X168230952Y-131780000D01*
X168230952Y-131780000D02*
X168135714Y-131684761D01*
X168135714Y-131684761D02*
X168088095Y-131589523D01*
X168088095Y-131589523D02*
X168040476Y-131399047D01*
X168040476Y-131399047D02*
X168040476Y-131256190D01*
X168040476Y-131256190D02*
X168088095Y-131065714D01*
X168088095Y-131065714D02*
X168135714Y-130970476D01*
X168135714Y-130970476D02*
X168230952Y-130875238D01*
X168230952Y-130875238D02*
X168373809Y-130827619D01*
X168373809Y-130827619D02*
X168469047Y-130827619D01*
X168469047Y-130827619D02*
X168611904Y-130875238D01*
X168611904Y-130875238D02*
X168659523Y-130922857D01*
X169278571Y-130827619D02*
X169469047Y-130827619D01*
X169469047Y-130827619D02*
X169564285Y-130875238D01*
X169564285Y-130875238D02*
X169659523Y-130970476D01*
X169659523Y-130970476D02*
X169707142Y-131160952D01*
X169707142Y-131160952D02*
X169707142Y-131494285D01*
X169707142Y-131494285D02*
X169659523Y-131684761D01*
X169659523Y-131684761D02*
X169564285Y-131780000D01*
X169564285Y-131780000D02*
X169469047Y-131827619D01*
X169469047Y-131827619D02*
X169278571Y-131827619D01*
X169278571Y-131827619D02*
X169183333Y-131780000D01*
X169183333Y-131780000D02*
X169088095Y-131684761D01*
X169088095Y-131684761D02*
X169040476Y-131494285D01*
X169040476Y-131494285D02*
X169040476Y-131160952D01*
X169040476Y-131160952D02*
X169088095Y-130970476D01*
X169088095Y-130970476D02*
X169183333Y-130875238D01*
X169183333Y-130875238D02*
X169278571Y-130827619D01*
X170135714Y-131827619D02*
X170135714Y-130827619D01*
X170135714Y-130827619D02*
X170707142Y-131827619D01*
X170707142Y-131827619D02*
X170707142Y-130827619D01*
X171040476Y-130827619D02*
X171611904Y-130827619D01*
X171326190Y-131827619D02*
X171326190Y-130827619D01*
X172516666Y-131827619D02*
X172183333Y-131351428D01*
X171945238Y-131827619D02*
X171945238Y-130827619D01*
X171945238Y-130827619D02*
X172326190Y-130827619D01*
X172326190Y-130827619D02*
X172421428Y-130875238D01*
X172421428Y-130875238D02*
X172469047Y-130922857D01*
X172469047Y-130922857D02*
X172516666Y-131018095D01*
X172516666Y-131018095D02*
X172516666Y-131160952D01*
X172516666Y-131160952D02*
X172469047Y-131256190D01*
X172469047Y-131256190D02*
X172421428Y-131303809D01*
X172421428Y-131303809D02*
X172326190Y-131351428D01*
X172326190Y-131351428D02*
X171945238Y-131351428D01*
X173135714Y-130827619D02*
X173326190Y-130827619D01*
X173326190Y-130827619D02*
X173421428Y-130875238D01*
X173421428Y-130875238D02*
X173516666Y-130970476D01*
X173516666Y-130970476D02*
X173564285Y-131160952D01*
X173564285Y-131160952D02*
X173564285Y-131494285D01*
X173564285Y-131494285D02*
X173516666Y-131684761D01*
X173516666Y-131684761D02*
X173421428Y-131780000D01*
X173421428Y-131780000D02*
X173326190Y-131827619D01*
X173326190Y-131827619D02*
X173135714Y-131827619D01*
X173135714Y-131827619D02*
X173040476Y-131780000D01*
X173040476Y-131780000D02*
X172945238Y-131684761D01*
X172945238Y-131684761D02*
X172897619Y-131494285D01*
X172897619Y-131494285D02*
X172897619Y-131160952D01*
X172897619Y-131160952D02*
X172945238Y-130970476D01*
X172945238Y-130970476D02*
X173040476Y-130875238D01*
X173040476Y-130875238D02*
X173135714Y-130827619D01*
X174469047Y-131827619D02*
X173992857Y-131827619D01*
X173992857Y-131827619D02*
X173992857Y-130827619D01*
X174754762Y-131780000D02*
X174897619Y-131827619D01*
X174897619Y-131827619D02*
X175135714Y-131827619D01*
X175135714Y-131827619D02*
X175230952Y-131780000D01*
X175230952Y-131780000D02*
X175278571Y-131732380D01*
X175278571Y-131732380D02*
X175326190Y-131637142D01*
X175326190Y-131637142D02*
X175326190Y-131541904D01*
X175326190Y-131541904D02*
X175278571Y-131446666D01*
X175278571Y-131446666D02*
X175230952Y-131399047D01*
X175230952Y-131399047D02*
X175135714Y-131351428D01*
X175135714Y-131351428D02*
X174945238Y-131303809D01*
X174945238Y-131303809D02*
X174850000Y-131256190D01*
X174850000Y-131256190D02*
X174802381Y-131208571D01*
X174802381Y-131208571D02*
X174754762Y-131113333D01*
X174754762Y-131113333D02*
X174754762Y-131018095D01*
X174754762Y-131018095D02*
X174802381Y-130922857D01*
X174802381Y-130922857D02*
X174850000Y-130875238D01*
X174850000Y-130875238D02*
X174945238Y-130827619D01*
X174945238Y-130827619D02*
X175183333Y-130827619D01*
X175183333Y-130827619D02*
X175326190Y-130875238D01*
X90076190Y-70502095D02*
X90533333Y-70502095D01*
X90304761Y-71302095D02*
X90304761Y-70502095D01*
X91104762Y-71264000D02*
X91028571Y-71302095D01*
X91028571Y-71302095D02*
X90876190Y-71302095D01*
X90876190Y-71302095D02*
X90800000Y-71264000D01*
X90800000Y-71264000D02*
X90761904Y-71187809D01*
X90761904Y-71187809D02*
X90761904Y-70883047D01*
X90761904Y-70883047D02*
X90800000Y-70806857D01*
X90800000Y-70806857D02*
X90876190Y-70768761D01*
X90876190Y-70768761D02*
X91028571Y-70768761D01*
X91028571Y-70768761D02*
X91104762Y-70806857D01*
X91104762Y-70806857D02*
X91142857Y-70883047D01*
X91142857Y-70883047D02*
X91142857Y-70959238D01*
X91142857Y-70959238D02*
X90761904Y-71035428D01*
X91485714Y-71302095D02*
X91485714Y-70768761D01*
X91485714Y-70844952D02*
X91523809Y-70806857D01*
X91523809Y-70806857D02*
X91599999Y-70768761D01*
X91599999Y-70768761D02*
X91714285Y-70768761D01*
X91714285Y-70768761D02*
X91790476Y-70806857D01*
X91790476Y-70806857D02*
X91828571Y-70883047D01*
X91828571Y-70883047D02*
X91828571Y-71302095D01*
X91828571Y-70883047D02*
X91866666Y-70806857D01*
X91866666Y-70806857D02*
X91942857Y-70768761D01*
X91942857Y-70768761D02*
X92057142Y-70768761D01*
X92057142Y-70768761D02*
X92133333Y-70806857D01*
X92133333Y-70806857D02*
X92171428Y-70883047D01*
X92171428Y-70883047D02*
X92171428Y-71302095D01*
X92552381Y-70768761D02*
X92552381Y-71568761D01*
X92552381Y-70806857D02*
X92628571Y-70768761D01*
X92628571Y-70768761D02*
X92780952Y-70768761D01*
X92780952Y-70768761D02*
X92857143Y-70806857D01*
X92857143Y-70806857D02*
X92895238Y-70844952D01*
X92895238Y-70844952D02*
X92933333Y-70921142D01*
X92933333Y-70921142D02*
X92933333Y-71149714D01*
X92933333Y-71149714D02*
X92895238Y-71225904D01*
X92895238Y-71225904D02*
X92857143Y-71264000D01*
X92857143Y-71264000D02*
X92780952Y-71302095D01*
X92780952Y-71302095D02*
X92628571Y-71302095D01*
X92628571Y-71302095D02*
X92552381Y-71264000D01*
X93847619Y-71264000D02*
X93961905Y-71302095D01*
X93961905Y-71302095D02*
X94152381Y-71302095D01*
X94152381Y-71302095D02*
X94228572Y-71264000D01*
X94228572Y-71264000D02*
X94266667Y-71225904D01*
X94266667Y-71225904D02*
X94304762Y-71149714D01*
X94304762Y-71149714D02*
X94304762Y-71073523D01*
X94304762Y-71073523D02*
X94266667Y-70997333D01*
X94266667Y-70997333D02*
X94228572Y-70959238D01*
X94228572Y-70959238D02*
X94152381Y-70921142D01*
X94152381Y-70921142D02*
X94000000Y-70883047D01*
X94000000Y-70883047D02*
X93923810Y-70844952D01*
X93923810Y-70844952D02*
X93885715Y-70806857D01*
X93885715Y-70806857D02*
X93847619Y-70730666D01*
X93847619Y-70730666D02*
X93847619Y-70654476D01*
X93847619Y-70654476D02*
X93885715Y-70578285D01*
X93885715Y-70578285D02*
X93923810Y-70540190D01*
X93923810Y-70540190D02*
X94000000Y-70502095D01*
X94000000Y-70502095D02*
X94190477Y-70502095D01*
X94190477Y-70502095D02*
X94304762Y-70540190D01*
X94952382Y-71264000D02*
X94876191Y-71302095D01*
X94876191Y-71302095D02*
X94723810Y-71302095D01*
X94723810Y-71302095D02*
X94647620Y-71264000D01*
X94647620Y-71264000D02*
X94609524Y-71187809D01*
X94609524Y-71187809D02*
X94609524Y-70883047D01*
X94609524Y-70883047D02*
X94647620Y-70806857D01*
X94647620Y-70806857D02*
X94723810Y-70768761D01*
X94723810Y-70768761D02*
X94876191Y-70768761D01*
X94876191Y-70768761D02*
X94952382Y-70806857D01*
X94952382Y-70806857D02*
X94990477Y-70883047D01*
X94990477Y-70883047D02*
X94990477Y-70959238D01*
X94990477Y-70959238D02*
X94609524Y-71035428D01*
X95333334Y-70768761D02*
X95333334Y-71302095D01*
X95333334Y-70844952D02*
X95371429Y-70806857D01*
X95371429Y-70806857D02*
X95447619Y-70768761D01*
X95447619Y-70768761D02*
X95561905Y-70768761D01*
X95561905Y-70768761D02*
X95638096Y-70806857D01*
X95638096Y-70806857D02*
X95676191Y-70883047D01*
X95676191Y-70883047D02*
X95676191Y-71302095D01*
X96019048Y-71264000D02*
X96095239Y-71302095D01*
X96095239Y-71302095D02*
X96247620Y-71302095D01*
X96247620Y-71302095D02*
X96323810Y-71264000D01*
X96323810Y-71264000D02*
X96361906Y-71187809D01*
X96361906Y-71187809D02*
X96361906Y-71149714D01*
X96361906Y-71149714D02*
X96323810Y-71073523D01*
X96323810Y-71073523D02*
X96247620Y-71035428D01*
X96247620Y-71035428D02*
X96133334Y-71035428D01*
X96133334Y-71035428D02*
X96057144Y-70997333D01*
X96057144Y-70997333D02*
X96019048Y-70921142D01*
X96019048Y-70921142D02*
X96019048Y-70883047D01*
X96019048Y-70883047D02*
X96057144Y-70806857D01*
X96057144Y-70806857D02*
X96133334Y-70768761D01*
X96133334Y-70768761D02*
X96247620Y-70768761D01*
X96247620Y-70768761D02*
X96323810Y-70806857D01*
X96819048Y-71302095D02*
X96742858Y-71264000D01*
X96742858Y-71264000D02*
X96704763Y-71225904D01*
X96704763Y-71225904D02*
X96666667Y-71149714D01*
X96666667Y-71149714D02*
X96666667Y-70921142D01*
X96666667Y-70921142D02*
X96704763Y-70844952D01*
X96704763Y-70844952D02*
X96742858Y-70806857D01*
X96742858Y-70806857D02*
X96819048Y-70768761D01*
X96819048Y-70768761D02*
X96933334Y-70768761D01*
X96933334Y-70768761D02*
X97009525Y-70806857D01*
X97009525Y-70806857D02*
X97047620Y-70844952D01*
X97047620Y-70844952D02*
X97085715Y-70921142D01*
X97085715Y-70921142D02*
X97085715Y-71149714D01*
X97085715Y-71149714D02*
X97047620Y-71225904D01*
X97047620Y-71225904D02*
X97009525Y-71264000D01*
X97009525Y-71264000D02*
X96933334Y-71302095D01*
X96933334Y-71302095D02*
X96819048Y-71302095D01*
X97428573Y-71302095D02*
X97428573Y-70768761D01*
X97428573Y-70921142D02*
X97466668Y-70844952D01*
X97466668Y-70844952D02*
X97504763Y-70806857D01*
X97504763Y-70806857D02*
X97580954Y-70768761D01*
X97580954Y-70768761D02*
X97657144Y-70768761D01*
X146371428Y-102353809D02*
X146038095Y-102353809D01*
X146038095Y-102877619D02*
X146038095Y-101877619D01*
X146038095Y-101877619D02*
X146514285Y-101877619D01*
X146847619Y-102591904D02*
X147323809Y-102591904D01*
X146752381Y-102877619D02*
X147085714Y-101877619D01*
X147085714Y-101877619D02*
X147419047Y-102877619D01*
X147752381Y-102877619D02*
X147752381Y-101877619D01*
X147752381Y-101877619D02*
X148323809Y-102877619D01*
X148323809Y-102877619D02*
X148323809Y-101877619D01*
X148561905Y-102972857D02*
X149323809Y-102972857D01*
X150133333Y-102782380D02*
X150085714Y-102830000D01*
X150085714Y-102830000D02*
X149942857Y-102877619D01*
X149942857Y-102877619D02*
X149847619Y-102877619D01*
X149847619Y-102877619D02*
X149704762Y-102830000D01*
X149704762Y-102830000D02*
X149609524Y-102734761D01*
X149609524Y-102734761D02*
X149561905Y-102639523D01*
X149561905Y-102639523D02*
X149514286Y-102449047D01*
X149514286Y-102449047D02*
X149514286Y-102306190D01*
X149514286Y-102306190D02*
X149561905Y-102115714D01*
X149561905Y-102115714D02*
X149609524Y-102020476D01*
X149609524Y-102020476D02*
X149704762Y-101925238D01*
X149704762Y-101925238D02*
X149847619Y-101877619D01*
X149847619Y-101877619D02*
X149942857Y-101877619D01*
X149942857Y-101877619D02*
X150085714Y-101925238D01*
X150085714Y-101925238D02*
X150133333Y-101972857D01*
X150419048Y-101877619D02*
X150990476Y-101877619D01*
X150704762Y-102877619D02*
X150704762Y-101877619D01*
X151800000Y-102877619D02*
X151323810Y-102877619D01*
X151323810Y-102877619D02*
X151323810Y-101877619D01*
X113095238Y-94277619D02*
X113428571Y-95277619D01*
X113428571Y-95277619D02*
X113761904Y-94277619D01*
X114666666Y-95277619D02*
X114333333Y-94801428D01*
X114095238Y-95277619D02*
X114095238Y-94277619D01*
X114095238Y-94277619D02*
X114476190Y-94277619D01*
X114476190Y-94277619D02*
X114571428Y-94325238D01*
X114571428Y-94325238D02*
X114619047Y-94372857D01*
X114619047Y-94372857D02*
X114666666Y-94468095D01*
X114666666Y-94468095D02*
X114666666Y-94610952D01*
X114666666Y-94610952D02*
X114619047Y-94706190D01*
X114619047Y-94706190D02*
X114571428Y-94753809D01*
X114571428Y-94753809D02*
X114476190Y-94801428D01*
X114476190Y-94801428D02*
X114095238Y-94801428D01*
X115095238Y-94753809D02*
X115428571Y-94753809D01*
X115571428Y-95277619D02*
X115095238Y-95277619D01*
X115095238Y-95277619D02*
X115095238Y-94277619D01*
X115095238Y-94277619D02*
X115571428Y-94277619D01*
X116333333Y-94753809D02*
X116000000Y-94753809D01*
X116000000Y-95277619D02*
X116000000Y-94277619D01*
X116000000Y-94277619D02*
X116476190Y-94277619D01*
X132495238Y-91677619D02*
X132828571Y-92677619D01*
X132828571Y-92677619D02*
X133161904Y-91677619D01*
X133923809Y-92010952D02*
X133923809Y-92820476D01*
X133923809Y-92820476D02*
X133876190Y-92915714D01*
X133876190Y-92915714D02*
X133828571Y-92963333D01*
X133828571Y-92963333D02*
X133733333Y-93010952D01*
X133733333Y-93010952D02*
X133590476Y-93010952D01*
X133590476Y-93010952D02*
X133495238Y-92963333D01*
X133923809Y-92630000D02*
X133828571Y-92677619D01*
X133828571Y-92677619D02*
X133638095Y-92677619D01*
X133638095Y-92677619D02*
X133542857Y-92630000D01*
X133542857Y-92630000D02*
X133495238Y-92582380D01*
X133495238Y-92582380D02*
X133447619Y-92487142D01*
X133447619Y-92487142D02*
X133447619Y-92201428D01*
X133447619Y-92201428D02*
X133495238Y-92106190D01*
X133495238Y-92106190D02*
X133542857Y-92058571D01*
X133542857Y-92058571D02*
X133638095Y-92010952D01*
X133638095Y-92010952D02*
X133828571Y-92010952D01*
X133828571Y-92010952D02*
X133923809Y-92058571D01*
X134352381Y-92630000D02*
X134447619Y-92677619D01*
X134447619Y-92677619D02*
X134638095Y-92677619D01*
X134638095Y-92677619D02*
X134733333Y-92630000D01*
X134733333Y-92630000D02*
X134780952Y-92534761D01*
X134780952Y-92534761D02*
X134780952Y-92487142D01*
X134780952Y-92487142D02*
X134733333Y-92391904D01*
X134733333Y-92391904D02*
X134638095Y-92344285D01*
X134638095Y-92344285D02*
X134495238Y-92344285D01*
X134495238Y-92344285D02*
X134400000Y-92296666D01*
X134400000Y-92296666D02*
X134352381Y-92201428D01*
X134352381Y-92201428D02*
X134352381Y-92153809D01*
X134352381Y-92153809D02*
X134400000Y-92058571D01*
X134400000Y-92058571D02*
X134495238Y-92010952D01*
X134495238Y-92010952D02*
X134638095Y-92010952D01*
X134638095Y-92010952D02*
X134733333Y-92058571D01*
X136542857Y-92582380D02*
X136495238Y-92630000D01*
X136495238Y-92630000D02*
X136352381Y-92677619D01*
X136352381Y-92677619D02*
X136257143Y-92677619D01*
X136257143Y-92677619D02*
X136114286Y-92630000D01*
X136114286Y-92630000D02*
X136019048Y-92534761D01*
X136019048Y-92534761D02*
X135971429Y-92439523D01*
X135971429Y-92439523D02*
X135923810Y-92249047D01*
X135923810Y-92249047D02*
X135923810Y-92106190D01*
X135923810Y-92106190D02*
X135971429Y-91915714D01*
X135971429Y-91915714D02*
X136019048Y-91820476D01*
X136019048Y-91820476D02*
X136114286Y-91725238D01*
X136114286Y-91725238D02*
X136257143Y-91677619D01*
X136257143Y-91677619D02*
X136352381Y-91677619D01*
X136352381Y-91677619D02*
X136495238Y-91725238D01*
X136495238Y-91725238D02*
X136542857Y-91772857D01*
X137161905Y-91677619D02*
X137352381Y-91677619D01*
X137352381Y-91677619D02*
X137447619Y-91725238D01*
X137447619Y-91725238D02*
X137542857Y-91820476D01*
X137542857Y-91820476D02*
X137590476Y-92010952D01*
X137590476Y-92010952D02*
X137590476Y-92344285D01*
X137590476Y-92344285D02*
X137542857Y-92534761D01*
X137542857Y-92534761D02*
X137447619Y-92630000D01*
X137447619Y-92630000D02*
X137352381Y-92677619D01*
X137352381Y-92677619D02*
X137161905Y-92677619D01*
X137161905Y-92677619D02*
X137066667Y-92630000D01*
X137066667Y-92630000D02*
X136971429Y-92534761D01*
X136971429Y-92534761D02*
X136923810Y-92344285D01*
X136923810Y-92344285D02*
X136923810Y-92010952D01*
X136923810Y-92010952D02*
X136971429Y-91820476D01*
X136971429Y-91820476D02*
X137066667Y-91725238D01*
X137066667Y-91725238D02*
X137161905Y-91677619D01*
X138019048Y-92677619D02*
X138019048Y-91677619D01*
X138019048Y-91677619D02*
X138590476Y-92677619D01*
X138590476Y-92677619D02*
X138590476Y-91677619D01*
X138923810Y-91677619D02*
X139495238Y-91677619D01*
X139209524Y-92677619D02*
X139209524Y-91677619D01*
X140400000Y-92677619D02*
X140066667Y-92201428D01*
X139828572Y-92677619D02*
X139828572Y-91677619D01*
X139828572Y-91677619D02*
X140209524Y-91677619D01*
X140209524Y-91677619D02*
X140304762Y-91725238D01*
X140304762Y-91725238D02*
X140352381Y-91772857D01*
X140352381Y-91772857D02*
X140400000Y-91868095D01*
X140400000Y-91868095D02*
X140400000Y-92010952D01*
X140400000Y-92010952D02*
X140352381Y-92106190D01*
X140352381Y-92106190D02*
X140304762Y-92153809D01*
X140304762Y-92153809D02*
X140209524Y-92201428D01*
X140209524Y-92201428D02*
X139828572Y-92201428D01*
X141019048Y-91677619D02*
X141209524Y-91677619D01*
X141209524Y-91677619D02*
X141304762Y-91725238D01*
X141304762Y-91725238D02*
X141400000Y-91820476D01*
X141400000Y-91820476D02*
X141447619Y-92010952D01*
X141447619Y-92010952D02*
X141447619Y-92344285D01*
X141447619Y-92344285D02*
X141400000Y-92534761D01*
X141400000Y-92534761D02*
X141304762Y-92630000D01*
X141304762Y-92630000D02*
X141209524Y-92677619D01*
X141209524Y-92677619D02*
X141019048Y-92677619D01*
X141019048Y-92677619D02*
X140923810Y-92630000D01*
X140923810Y-92630000D02*
X140828572Y-92534761D01*
X140828572Y-92534761D02*
X140780953Y-92344285D01*
X140780953Y-92344285D02*
X140780953Y-92010952D01*
X140780953Y-92010952D02*
X140828572Y-91820476D01*
X140828572Y-91820476D02*
X140923810Y-91725238D01*
X140923810Y-91725238D02*
X141019048Y-91677619D01*
X142352381Y-92677619D02*
X141876191Y-92677619D01*
X141876191Y-92677619D02*
X141876191Y-91677619D01*
X99113095Y-88877619D02*
X99113095Y-87877619D01*
X99113095Y-87877619D02*
X99494047Y-87877619D01*
X99494047Y-87877619D02*
X99589285Y-87925238D01*
X99589285Y-87925238D02*
X99636904Y-87972857D01*
X99636904Y-87972857D02*
X99684523Y-88068095D01*
X99684523Y-88068095D02*
X99684523Y-88210952D01*
X99684523Y-88210952D02*
X99636904Y-88306190D01*
X99636904Y-88306190D02*
X99589285Y-88353809D01*
X99589285Y-88353809D02*
X99494047Y-88401428D01*
X99494047Y-88401428D02*
X99113095Y-88401428D01*
X100303571Y-87877619D02*
X100494047Y-87877619D01*
X100494047Y-87877619D02*
X100589285Y-87925238D01*
X100589285Y-87925238D02*
X100684523Y-88020476D01*
X100684523Y-88020476D02*
X100732142Y-88210952D01*
X100732142Y-88210952D02*
X100732142Y-88544285D01*
X100732142Y-88544285D02*
X100684523Y-88734761D01*
X100684523Y-88734761D02*
X100589285Y-88830000D01*
X100589285Y-88830000D02*
X100494047Y-88877619D01*
X100494047Y-88877619D02*
X100303571Y-88877619D01*
X100303571Y-88877619D02*
X100208333Y-88830000D01*
X100208333Y-88830000D02*
X100113095Y-88734761D01*
X100113095Y-88734761D02*
X100065476Y-88544285D01*
X100065476Y-88544285D02*
X100065476Y-88210952D01*
X100065476Y-88210952D02*
X100113095Y-88020476D01*
X100113095Y-88020476D02*
X100208333Y-87925238D01*
X100208333Y-87925238D02*
X100303571Y-87877619D01*
X101065476Y-87877619D02*
X101303571Y-88877619D01*
X101303571Y-88877619D02*
X101494047Y-88163333D01*
X101494047Y-88163333D02*
X101684523Y-88877619D01*
X101684523Y-88877619D02*
X101922619Y-87877619D01*
X102303571Y-88353809D02*
X102636904Y-88353809D01*
X102779761Y-88877619D02*
X102303571Y-88877619D01*
X102303571Y-88877619D02*
X102303571Y-87877619D01*
X102303571Y-87877619D02*
X102779761Y-87877619D01*
X103779761Y-88877619D02*
X103446428Y-88401428D01*
X103208333Y-88877619D02*
X103208333Y-87877619D01*
X103208333Y-87877619D02*
X103589285Y-87877619D01*
X103589285Y-87877619D02*
X103684523Y-87925238D01*
X103684523Y-87925238D02*
X103732142Y-87972857D01*
X103732142Y-87972857D02*
X103779761Y-88068095D01*
X103779761Y-88068095D02*
X103779761Y-88210952D01*
X103779761Y-88210952D02*
X103732142Y-88306190D01*
X103732142Y-88306190D02*
X103684523Y-88353809D01*
X103684523Y-88353809D02*
X103589285Y-88401428D01*
X103589285Y-88401428D02*
X103208333Y-88401428D01*
X105160714Y-87877619D02*
X105351190Y-87877619D01*
X105351190Y-87877619D02*
X105446428Y-87925238D01*
X105446428Y-87925238D02*
X105541666Y-88020476D01*
X105541666Y-88020476D02*
X105589285Y-88210952D01*
X105589285Y-88210952D02*
X105589285Y-88544285D01*
X105589285Y-88544285D02*
X105541666Y-88734761D01*
X105541666Y-88734761D02*
X105446428Y-88830000D01*
X105446428Y-88830000D02*
X105351190Y-88877619D01*
X105351190Y-88877619D02*
X105160714Y-88877619D01*
X105160714Y-88877619D02*
X105065476Y-88830000D01*
X105065476Y-88830000D02*
X104970238Y-88734761D01*
X104970238Y-88734761D02*
X104922619Y-88544285D01*
X104922619Y-88544285D02*
X104922619Y-88210952D01*
X104922619Y-88210952D02*
X104970238Y-88020476D01*
X104970238Y-88020476D02*
X105065476Y-87925238D01*
X105065476Y-87925238D02*
X105160714Y-87877619D01*
X106017857Y-88877619D02*
X106017857Y-87877619D01*
X106017857Y-87877619D02*
X106589285Y-88877619D01*
X106589285Y-88877619D02*
X106589285Y-87877619D01*
%TO.C,J3*%
X132796964Y-100449999D02*
X133332678Y-100449999D01*
X133332678Y-100449999D02*
X133439821Y-100485714D01*
X133439821Y-100485714D02*
X133511250Y-100557142D01*
X133511250Y-100557142D02*
X133546964Y-100664285D01*
X133546964Y-100664285D02*
X133546964Y-100735714D01*
X132796964Y-100164285D02*
X132796964Y-99699999D01*
X132796964Y-99699999D02*
X133082678Y-99949999D01*
X133082678Y-99949999D02*
X133082678Y-99842856D01*
X133082678Y-99842856D02*
X133118392Y-99771428D01*
X133118392Y-99771428D02*
X133154107Y-99735713D01*
X133154107Y-99735713D02*
X133225535Y-99699999D01*
X133225535Y-99699999D02*
X133404107Y-99699999D01*
X133404107Y-99699999D02*
X133475535Y-99735713D01*
X133475535Y-99735713D02*
X133511250Y-99771428D01*
X133511250Y-99771428D02*
X133546964Y-99842856D01*
X133546964Y-99842856D02*
X133546964Y-100057142D01*
X133546964Y-100057142D02*
X133511250Y-100128570D01*
X133511250Y-100128570D02*
X133475535Y-100164285D01*
%TO.C,D3*%
X190742619Y-96738094D02*
X189742619Y-96738094D01*
X189742619Y-96738094D02*
X189742619Y-96499999D01*
X189742619Y-96499999D02*
X189790238Y-96357142D01*
X189790238Y-96357142D02*
X189885476Y-96261904D01*
X189885476Y-96261904D02*
X189980714Y-96214285D01*
X189980714Y-96214285D02*
X190171190Y-96166666D01*
X190171190Y-96166666D02*
X190314047Y-96166666D01*
X190314047Y-96166666D02*
X190504523Y-96214285D01*
X190504523Y-96214285D02*
X190599761Y-96261904D01*
X190599761Y-96261904D02*
X190695000Y-96357142D01*
X190695000Y-96357142D02*
X190742619Y-96499999D01*
X190742619Y-96499999D02*
X190742619Y-96738094D01*
X189742619Y-95833332D02*
X189742619Y-95214285D01*
X189742619Y-95214285D02*
X190123571Y-95547618D01*
X190123571Y-95547618D02*
X190123571Y-95404761D01*
X190123571Y-95404761D02*
X190171190Y-95309523D01*
X190171190Y-95309523D02*
X190218809Y-95261904D01*
X190218809Y-95261904D02*
X190314047Y-95214285D01*
X190314047Y-95214285D02*
X190552142Y-95214285D01*
X190552142Y-95214285D02*
X190647380Y-95261904D01*
X190647380Y-95261904D02*
X190695000Y-95309523D01*
X190695000Y-95309523D02*
X190742619Y-95404761D01*
X190742619Y-95404761D02*
X190742619Y-95690475D01*
X190742619Y-95690475D02*
X190695000Y-95785713D01*
X190695000Y-95785713D02*
X190647380Y-95833332D01*
X191862619Y-103881904D02*
X190862619Y-103881904D01*
X191862619Y-103310476D02*
X191291190Y-103739047D01*
X190862619Y-103310476D02*
X191434047Y-103881904D01*
%TO.C,Q7*%
X105718571Y-61898392D02*
X105647142Y-61862678D01*
X105647142Y-61862678D02*
X105575714Y-61791250D01*
X105575714Y-61791250D02*
X105468571Y-61684107D01*
X105468571Y-61684107D02*
X105397142Y-61648392D01*
X105397142Y-61648392D02*
X105325714Y-61648392D01*
X105361428Y-61826964D02*
X105290000Y-61791250D01*
X105290000Y-61791250D02*
X105218571Y-61719821D01*
X105218571Y-61719821D02*
X105182857Y-61576964D01*
X105182857Y-61576964D02*
X105182857Y-61326964D01*
X105182857Y-61326964D02*
X105218571Y-61184107D01*
X105218571Y-61184107D02*
X105290000Y-61112678D01*
X105290000Y-61112678D02*
X105361428Y-61076964D01*
X105361428Y-61076964D02*
X105504285Y-61076964D01*
X105504285Y-61076964D02*
X105575714Y-61112678D01*
X105575714Y-61112678D02*
X105647142Y-61184107D01*
X105647142Y-61184107D02*
X105682857Y-61326964D01*
X105682857Y-61326964D02*
X105682857Y-61576964D01*
X105682857Y-61576964D02*
X105647142Y-61719821D01*
X105647142Y-61719821D02*
X105575714Y-61791250D01*
X105575714Y-61791250D02*
X105504285Y-61826964D01*
X105504285Y-61826964D02*
X105361428Y-61826964D01*
X105932856Y-61076964D02*
X106432856Y-61076964D01*
X106432856Y-61076964D02*
X106111428Y-61826964D01*
%TO.C,C1*%
X92187499Y-91125535D02*
X92151785Y-91161250D01*
X92151785Y-91161250D02*
X92044642Y-91196964D01*
X92044642Y-91196964D02*
X91973214Y-91196964D01*
X91973214Y-91196964D02*
X91866071Y-91161250D01*
X91866071Y-91161250D02*
X91794642Y-91089821D01*
X91794642Y-91089821D02*
X91758928Y-91018392D01*
X91758928Y-91018392D02*
X91723214Y-90875535D01*
X91723214Y-90875535D02*
X91723214Y-90768392D01*
X91723214Y-90768392D02*
X91758928Y-90625535D01*
X91758928Y-90625535D02*
X91794642Y-90554107D01*
X91794642Y-90554107D02*
X91866071Y-90482678D01*
X91866071Y-90482678D02*
X91973214Y-90446964D01*
X91973214Y-90446964D02*
X92044642Y-90446964D01*
X92044642Y-90446964D02*
X92151785Y-90482678D01*
X92151785Y-90482678D02*
X92187499Y-90518392D01*
X92901785Y-91196964D02*
X92473214Y-91196964D01*
X92687499Y-91196964D02*
X92687499Y-90446964D01*
X92687499Y-90446964D02*
X92616071Y-90554107D01*
X92616071Y-90554107D02*
X92544642Y-90625535D01*
X92544642Y-90625535D02*
X92473214Y-90661250D01*
%TO.C,R9*%
X137746964Y-96325000D02*
X137389821Y-96575000D01*
X137746964Y-96753571D02*
X136996964Y-96753571D01*
X136996964Y-96753571D02*
X136996964Y-96467857D01*
X136996964Y-96467857D02*
X137032678Y-96396428D01*
X137032678Y-96396428D02*
X137068392Y-96360714D01*
X137068392Y-96360714D02*
X137139821Y-96325000D01*
X137139821Y-96325000D02*
X137246964Y-96325000D01*
X137246964Y-96325000D02*
X137318392Y-96360714D01*
X137318392Y-96360714D02*
X137354107Y-96396428D01*
X137354107Y-96396428D02*
X137389821Y-96467857D01*
X137389821Y-96467857D02*
X137389821Y-96753571D01*
X137746964Y-95967857D02*
X137746964Y-95825000D01*
X137746964Y-95825000D02*
X137711250Y-95753571D01*
X137711250Y-95753571D02*
X137675535Y-95717857D01*
X137675535Y-95717857D02*
X137568392Y-95646428D01*
X137568392Y-95646428D02*
X137425535Y-95610714D01*
X137425535Y-95610714D02*
X137139821Y-95610714D01*
X137139821Y-95610714D02*
X137068392Y-95646428D01*
X137068392Y-95646428D02*
X137032678Y-95682143D01*
X137032678Y-95682143D02*
X136996964Y-95753571D01*
X136996964Y-95753571D02*
X136996964Y-95896428D01*
X136996964Y-95896428D02*
X137032678Y-95967857D01*
X137032678Y-95967857D02*
X137068392Y-96003571D01*
X137068392Y-96003571D02*
X137139821Y-96039285D01*
X137139821Y-96039285D02*
X137318392Y-96039285D01*
X137318392Y-96039285D02*
X137389821Y-96003571D01*
X137389821Y-96003571D02*
X137425535Y-95967857D01*
X137425535Y-95967857D02*
X137461250Y-95896428D01*
X137461250Y-95896428D02*
X137461250Y-95753571D01*
X137461250Y-95753571D02*
X137425535Y-95682143D01*
X137425535Y-95682143D02*
X137389821Y-95646428D01*
X137389821Y-95646428D02*
X137318392Y-95610714D01*
%TO.C,U3*%
X90196964Y-94971428D02*
X90804107Y-94971428D01*
X90804107Y-94971428D02*
X90875535Y-94935714D01*
X90875535Y-94935714D02*
X90911250Y-94900000D01*
X90911250Y-94900000D02*
X90946964Y-94828571D01*
X90946964Y-94828571D02*
X90946964Y-94685714D01*
X90946964Y-94685714D02*
X90911250Y-94614285D01*
X90911250Y-94614285D02*
X90875535Y-94578571D01*
X90875535Y-94578571D02*
X90804107Y-94542857D01*
X90804107Y-94542857D02*
X90196964Y-94542857D01*
X90196964Y-94257143D02*
X90196964Y-93792857D01*
X90196964Y-93792857D02*
X90482678Y-94042857D01*
X90482678Y-94042857D02*
X90482678Y-93935714D01*
X90482678Y-93935714D02*
X90518392Y-93864286D01*
X90518392Y-93864286D02*
X90554107Y-93828571D01*
X90554107Y-93828571D02*
X90625535Y-93792857D01*
X90625535Y-93792857D02*
X90804107Y-93792857D01*
X90804107Y-93792857D02*
X90875535Y-93828571D01*
X90875535Y-93828571D02*
X90911250Y-93864286D01*
X90911250Y-93864286D02*
X90946964Y-93935714D01*
X90946964Y-93935714D02*
X90946964Y-94150000D01*
X90946964Y-94150000D02*
X90911250Y-94221428D01*
X90911250Y-94221428D02*
X90875535Y-94257143D01*
%TO.C,Q1*%
X106728571Y-92018392D02*
X106657142Y-91982678D01*
X106657142Y-91982678D02*
X106585714Y-91911250D01*
X106585714Y-91911250D02*
X106478571Y-91804107D01*
X106478571Y-91804107D02*
X106407142Y-91768392D01*
X106407142Y-91768392D02*
X106335714Y-91768392D01*
X106371428Y-91946964D02*
X106300000Y-91911250D01*
X106300000Y-91911250D02*
X106228571Y-91839821D01*
X106228571Y-91839821D02*
X106192857Y-91696964D01*
X106192857Y-91696964D02*
X106192857Y-91446964D01*
X106192857Y-91446964D02*
X106228571Y-91304107D01*
X106228571Y-91304107D02*
X106300000Y-91232678D01*
X106300000Y-91232678D02*
X106371428Y-91196964D01*
X106371428Y-91196964D02*
X106514285Y-91196964D01*
X106514285Y-91196964D02*
X106585714Y-91232678D01*
X106585714Y-91232678D02*
X106657142Y-91304107D01*
X106657142Y-91304107D02*
X106692857Y-91446964D01*
X106692857Y-91446964D02*
X106692857Y-91696964D01*
X106692857Y-91696964D02*
X106657142Y-91839821D01*
X106657142Y-91839821D02*
X106585714Y-91911250D01*
X106585714Y-91911250D02*
X106514285Y-91946964D01*
X106514285Y-91946964D02*
X106371428Y-91946964D01*
X107407142Y-91946964D02*
X106978571Y-91946964D01*
X107192856Y-91946964D02*
X107192856Y-91196964D01*
X107192856Y-91196964D02*
X107121428Y-91304107D01*
X107121428Y-91304107D02*
X107049999Y-91375535D01*
X107049999Y-91375535D02*
X106978571Y-91411250D01*
%TO.C,SW1*%
X164250000Y-118061250D02*
X164357143Y-118096964D01*
X164357143Y-118096964D02*
X164535714Y-118096964D01*
X164535714Y-118096964D02*
X164607143Y-118061250D01*
X164607143Y-118061250D02*
X164642857Y-118025535D01*
X164642857Y-118025535D02*
X164678571Y-117954107D01*
X164678571Y-117954107D02*
X164678571Y-117882678D01*
X164678571Y-117882678D02*
X164642857Y-117811250D01*
X164642857Y-117811250D02*
X164607143Y-117775535D01*
X164607143Y-117775535D02*
X164535714Y-117739821D01*
X164535714Y-117739821D02*
X164392857Y-117704107D01*
X164392857Y-117704107D02*
X164321428Y-117668392D01*
X164321428Y-117668392D02*
X164285714Y-117632678D01*
X164285714Y-117632678D02*
X164250000Y-117561250D01*
X164250000Y-117561250D02*
X164250000Y-117489821D01*
X164250000Y-117489821D02*
X164285714Y-117418392D01*
X164285714Y-117418392D02*
X164321428Y-117382678D01*
X164321428Y-117382678D02*
X164392857Y-117346964D01*
X164392857Y-117346964D02*
X164571428Y-117346964D01*
X164571428Y-117346964D02*
X164678571Y-117382678D01*
X164928571Y-117346964D02*
X165107143Y-118096964D01*
X165107143Y-118096964D02*
X165250000Y-117561250D01*
X165250000Y-117561250D02*
X165392857Y-118096964D01*
X165392857Y-118096964D02*
X165571429Y-117346964D01*
X166250000Y-118096964D02*
X165821429Y-118096964D01*
X166035714Y-118096964D02*
X166035714Y-117346964D01*
X166035714Y-117346964D02*
X165964286Y-117454107D01*
X165964286Y-117454107D02*
X165892857Y-117525535D01*
X165892857Y-117525535D02*
X165821429Y-117561250D01*
%TO.C,C4*%
X129875535Y-84925000D02*
X129911250Y-84960714D01*
X129911250Y-84960714D02*
X129946964Y-85067857D01*
X129946964Y-85067857D02*
X129946964Y-85139285D01*
X129946964Y-85139285D02*
X129911250Y-85246428D01*
X129911250Y-85246428D02*
X129839821Y-85317857D01*
X129839821Y-85317857D02*
X129768392Y-85353571D01*
X129768392Y-85353571D02*
X129625535Y-85389285D01*
X129625535Y-85389285D02*
X129518392Y-85389285D01*
X129518392Y-85389285D02*
X129375535Y-85353571D01*
X129375535Y-85353571D02*
X129304107Y-85317857D01*
X129304107Y-85317857D02*
X129232678Y-85246428D01*
X129232678Y-85246428D02*
X129196964Y-85139285D01*
X129196964Y-85139285D02*
X129196964Y-85067857D01*
X129196964Y-85067857D02*
X129232678Y-84960714D01*
X129232678Y-84960714D02*
X129268392Y-84925000D01*
X129446964Y-84282143D02*
X129946964Y-84282143D01*
X129161250Y-84460714D02*
X129696964Y-84639285D01*
X129696964Y-84639285D02*
X129696964Y-84175000D01*
%TO.C,R23*%
X150307856Y-61826964D02*
X150057856Y-61469821D01*
X149879285Y-61826964D02*
X149879285Y-61076964D01*
X149879285Y-61076964D02*
X150164999Y-61076964D01*
X150164999Y-61076964D02*
X150236428Y-61112678D01*
X150236428Y-61112678D02*
X150272142Y-61148392D01*
X150272142Y-61148392D02*
X150307856Y-61219821D01*
X150307856Y-61219821D02*
X150307856Y-61326964D01*
X150307856Y-61326964D02*
X150272142Y-61398392D01*
X150272142Y-61398392D02*
X150236428Y-61434107D01*
X150236428Y-61434107D02*
X150164999Y-61469821D01*
X150164999Y-61469821D02*
X149879285Y-61469821D01*
X150593571Y-61148392D02*
X150629285Y-61112678D01*
X150629285Y-61112678D02*
X150700714Y-61076964D01*
X150700714Y-61076964D02*
X150879285Y-61076964D01*
X150879285Y-61076964D02*
X150950714Y-61112678D01*
X150950714Y-61112678D02*
X150986428Y-61148392D01*
X150986428Y-61148392D02*
X151022142Y-61219821D01*
X151022142Y-61219821D02*
X151022142Y-61291250D01*
X151022142Y-61291250D02*
X150986428Y-61398392D01*
X150986428Y-61398392D02*
X150557856Y-61826964D01*
X150557856Y-61826964D02*
X151022142Y-61826964D01*
X151272142Y-61076964D02*
X151736428Y-61076964D01*
X151736428Y-61076964D02*
X151486428Y-61362678D01*
X151486428Y-61362678D02*
X151593571Y-61362678D01*
X151593571Y-61362678D02*
X151665000Y-61398392D01*
X151665000Y-61398392D02*
X151700714Y-61434107D01*
X151700714Y-61434107D02*
X151736428Y-61505535D01*
X151736428Y-61505535D02*
X151736428Y-61684107D01*
X151736428Y-61684107D02*
X151700714Y-61755535D01*
X151700714Y-61755535D02*
X151665000Y-61791250D01*
X151665000Y-61791250D02*
X151593571Y-61826964D01*
X151593571Y-61826964D02*
X151379285Y-61826964D01*
X151379285Y-61826964D02*
X151307857Y-61791250D01*
X151307857Y-61791250D02*
X151272142Y-61755535D01*
%TO.C,R25*%
X134446964Y-85232143D02*
X134089821Y-85482143D01*
X134446964Y-85660714D02*
X133696964Y-85660714D01*
X133696964Y-85660714D02*
X133696964Y-85375000D01*
X133696964Y-85375000D02*
X133732678Y-85303571D01*
X133732678Y-85303571D02*
X133768392Y-85267857D01*
X133768392Y-85267857D02*
X133839821Y-85232143D01*
X133839821Y-85232143D02*
X133946964Y-85232143D01*
X133946964Y-85232143D02*
X134018392Y-85267857D01*
X134018392Y-85267857D02*
X134054107Y-85303571D01*
X134054107Y-85303571D02*
X134089821Y-85375000D01*
X134089821Y-85375000D02*
X134089821Y-85660714D01*
X133768392Y-84946428D02*
X133732678Y-84910714D01*
X133732678Y-84910714D02*
X133696964Y-84839286D01*
X133696964Y-84839286D02*
X133696964Y-84660714D01*
X133696964Y-84660714D02*
X133732678Y-84589286D01*
X133732678Y-84589286D02*
X133768392Y-84553571D01*
X133768392Y-84553571D02*
X133839821Y-84517857D01*
X133839821Y-84517857D02*
X133911250Y-84517857D01*
X133911250Y-84517857D02*
X134018392Y-84553571D01*
X134018392Y-84553571D02*
X134446964Y-84982143D01*
X134446964Y-84982143D02*
X134446964Y-84517857D01*
X133696964Y-83839285D02*
X133696964Y-84196428D01*
X133696964Y-84196428D02*
X134054107Y-84232142D01*
X134054107Y-84232142D02*
X134018392Y-84196428D01*
X134018392Y-84196428D02*
X133982678Y-84125000D01*
X133982678Y-84125000D02*
X133982678Y-83946428D01*
X133982678Y-83946428D02*
X134018392Y-83875000D01*
X134018392Y-83875000D02*
X134054107Y-83839285D01*
X134054107Y-83839285D02*
X134125535Y-83803571D01*
X134125535Y-83803571D02*
X134304107Y-83803571D01*
X134304107Y-83803571D02*
X134375535Y-83839285D01*
X134375535Y-83839285D02*
X134411250Y-83875000D01*
X134411250Y-83875000D02*
X134446964Y-83946428D01*
X134446964Y-83946428D02*
X134446964Y-84125000D01*
X134446964Y-84125000D02*
X134411250Y-84196428D01*
X134411250Y-84196428D02*
X134375535Y-84232142D01*
%TO.C,R18*%
X139146964Y-90282143D02*
X138789821Y-90532143D01*
X139146964Y-90710714D02*
X138396964Y-90710714D01*
X138396964Y-90710714D02*
X138396964Y-90425000D01*
X138396964Y-90425000D02*
X138432678Y-90353571D01*
X138432678Y-90353571D02*
X138468392Y-90317857D01*
X138468392Y-90317857D02*
X138539821Y-90282143D01*
X138539821Y-90282143D02*
X138646964Y-90282143D01*
X138646964Y-90282143D02*
X138718392Y-90317857D01*
X138718392Y-90317857D02*
X138754107Y-90353571D01*
X138754107Y-90353571D02*
X138789821Y-90425000D01*
X138789821Y-90425000D02*
X138789821Y-90710714D01*
X139146964Y-89567857D02*
X139146964Y-89996428D01*
X139146964Y-89782143D02*
X138396964Y-89782143D01*
X138396964Y-89782143D02*
X138504107Y-89853571D01*
X138504107Y-89853571D02*
X138575535Y-89925000D01*
X138575535Y-89925000D02*
X138611250Y-89996428D01*
X138718392Y-89139285D02*
X138682678Y-89210714D01*
X138682678Y-89210714D02*
X138646964Y-89246428D01*
X138646964Y-89246428D02*
X138575535Y-89282142D01*
X138575535Y-89282142D02*
X138539821Y-89282142D01*
X138539821Y-89282142D02*
X138468392Y-89246428D01*
X138468392Y-89246428D02*
X138432678Y-89210714D01*
X138432678Y-89210714D02*
X138396964Y-89139285D01*
X138396964Y-89139285D02*
X138396964Y-88996428D01*
X138396964Y-88996428D02*
X138432678Y-88925000D01*
X138432678Y-88925000D02*
X138468392Y-88889285D01*
X138468392Y-88889285D02*
X138539821Y-88853571D01*
X138539821Y-88853571D02*
X138575535Y-88853571D01*
X138575535Y-88853571D02*
X138646964Y-88889285D01*
X138646964Y-88889285D02*
X138682678Y-88925000D01*
X138682678Y-88925000D02*
X138718392Y-88996428D01*
X138718392Y-88996428D02*
X138718392Y-89139285D01*
X138718392Y-89139285D02*
X138754107Y-89210714D01*
X138754107Y-89210714D02*
X138789821Y-89246428D01*
X138789821Y-89246428D02*
X138861250Y-89282142D01*
X138861250Y-89282142D02*
X139004107Y-89282142D01*
X139004107Y-89282142D02*
X139075535Y-89246428D01*
X139075535Y-89246428D02*
X139111250Y-89210714D01*
X139111250Y-89210714D02*
X139146964Y-89139285D01*
X139146964Y-89139285D02*
X139146964Y-88996428D01*
X139146964Y-88996428D02*
X139111250Y-88925000D01*
X139111250Y-88925000D02*
X139075535Y-88889285D01*
X139075535Y-88889285D02*
X139004107Y-88853571D01*
X139004107Y-88853571D02*
X138861250Y-88853571D01*
X138861250Y-88853571D02*
X138789821Y-88889285D01*
X138789821Y-88889285D02*
X138754107Y-88925000D01*
X138754107Y-88925000D02*
X138718392Y-88996428D01*
%TO.C,SW4*%
X115400000Y-86911250D02*
X115507143Y-86946964D01*
X115507143Y-86946964D02*
X115685714Y-86946964D01*
X115685714Y-86946964D02*
X115757143Y-86911250D01*
X115757143Y-86911250D02*
X115792857Y-86875535D01*
X115792857Y-86875535D02*
X115828571Y-86804107D01*
X115828571Y-86804107D02*
X115828571Y-86732678D01*
X115828571Y-86732678D02*
X115792857Y-86661250D01*
X115792857Y-86661250D02*
X115757143Y-86625535D01*
X115757143Y-86625535D02*
X115685714Y-86589821D01*
X115685714Y-86589821D02*
X115542857Y-86554107D01*
X115542857Y-86554107D02*
X115471428Y-86518392D01*
X115471428Y-86518392D02*
X115435714Y-86482678D01*
X115435714Y-86482678D02*
X115400000Y-86411250D01*
X115400000Y-86411250D02*
X115400000Y-86339821D01*
X115400000Y-86339821D02*
X115435714Y-86268392D01*
X115435714Y-86268392D02*
X115471428Y-86232678D01*
X115471428Y-86232678D02*
X115542857Y-86196964D01*
X115542857Y-86196964D02*
X115721428Y-86196964D01*
X115721428Y-86196964D02*
X115828571Y-86232678D01*
X116078571Y-86196964D02*
X116257143Y-86946964D01*
X116257143Y-86946964D02*
X116400000Y-86411250D01*
X116400000Y-86411250D02*
X116542857Y-86946964D01*
X116542857Y-86946964D02*
X116721429Y-86196964D01*
X117328572Y-86446964D02*
X117328572Y-86946964D01*
X117150000Y-86161250D02*
X116971429Y-86696964D01*
X116971429Y-86696964D02*
X117435714Y-86696964D01*
%TO.C,J2*%
X184142619Y-78558333D02*
X184856904Y-78558333D01*
X184856904Y-78558333D02*
X184999761Y-78605952D01*
X184999761Y-78605952D02*
X185095000Y-78701190D01*
X185095000Y-78701190D02*
X185142619Y-78844047D01*
X185142619Y-78844047D02*
X185142619Y-78939285D01*
X184237857Y-78129761D02*
X184190238Y-78082142D01*
X184190238Y-78082142D02*
X184142619Y-77986904D01*
X184142619Y-77986904D02*
X184142619Y-77748809D01*
X184142619Y-77748809D02*
X184190238Y-77653571D01*
X184190238Y-77653571D02*
X184237857Y-77605952D01*
X184237857Y-77605952D02*
X184333095Y-77558333D01*
X184333095Y-77558333D02*
X184428333Y-77558333D01*
X184428333Y-77558333D02*
X184571190Y-77605952D01*
X184571190Y-77605952D02*
X185142619Y-78177380D01*
X185142619Y-78177380D02*
X185142619Y-77558333D01*
%TO.C,R7*%
X114674999Y-97746964D02*
X114424999Y-97389821D01*
X114246428Y-97746964D02*
X114246428Y-96996964D01*
X114246428Y-96996964D02*
X114532142Y-96996964D01*
X114532142Y-96996964D02*
X114603571Y-97032678D01*
X114603571Y-97032678D02*
X114639285Y-97068392D01*
X114639285Y-97068392D02*
X114674999Y-97139821D01*
X114674999Y-97139821D02*
X114674999Y-97246964D01*
X114674999Y-97246964D02*
X114639285Y-97318392D01*
X114639285Y-97318392D02*
X114603571Y-97354107D01*
X114603571Y-97354107D02*
X114532142Y-97389821D01*
X114532142Y-97389821D02*
X114246428Y-97389821D01*
X114924999Y-96996964D02*
X115424999Y-96996964D01*
X115424999Y-96996964D02*
X115103571Y-97746964D01*
%TO.C,J5*%
X123500000Y-82346964D02*
X123500000Y-82882678D01*
X123500000Y-82882678D02*
X123464285Y-82989821D01*
X123464285Y-82989821D02*
X123392857Y-83061250D01*
X123392857Y-83061250D02*
X123285714Y-83096964D01*
X123285714Y-83096964D02*
X123214285Y-83096964D01*
X124214286Y-82346964D02*
X123857143Y-82346964D01*
X123857143Y-82346964D02*
X123821429Y-82704107D01*
X123821429Y-82704107D02*
X123857143Y-82668392D01*
X123857143Y-82668392D02*
X123928572Y-82632678D01*
X123928572Y-82632678D02*
X124107143Y-82632678D01*
X124107143Y-82632678D02*
X124178572Y-82668392D01*
X124178572Y-82668392D02*
X124214286Y-82704107D01*
X124214286Y-82704107D02*
X124250000Y-82775535D01*
X124250000Y-82775535D02*
X124250000Y-82954107D01*
X124250000Y-82954107D02*
X124214286Y-83025535D01*
X124214286Y-83025535D02*
X124178572Y-83061250D01*
X124178572Y-83061250D02*
X124107143Y-83096964D01*
X124107143Y-83096964D02*
X123928572Y-83096964D01*
X123928572Y-83096964D02*
X123857143Y-83061250D01*
X123857143Y-83061250D02*
X123821429Y-83025535D01*
%TO.C,R10*%
X132996964Y-96682143D02*
X132639821Y-96932143D01*
X132996964Y-97110714D02*
X132246964Y-97110714D01*
X132246964Y-97110714D02*
X132246964Y-96825000D01*
X132246964Y-96825000D02*
X132282678Y-96753571D01*
X132282678Y-96753571D02*
X132318392Y-96717857D01*
X132318392Y-96717857D02*
X132389821Y-96682143D01*
X132389821Y-96682143D02*
X132496964Y-96682143D01*
X132496964Y-96682143D02*
X132568392Y-96717857D01*
X132568392Y-96717857D02*
X132604107Y-96753571D01*
X132604107Y-96753571D02*
X132639821Y-96825000D01*
X132639821Y-96825000D02*
X132639821Y-97110714D01*
X132996964Y-95967857D02*
X132996964Y-96396428D01*
X132996964Y-96182143D02*
X132246964Y-96182143D01*
X132246964Y-96182143D02*
X132354107Y-96253571D01*
X132354107Y-96253571D02*
X132425535Y-96325000D01*
X132425535Y-96325000D02*
X132461250Y-96396428D01*
X132246964Y-95503571D02*
X132246964Y-95432142D01*
X132246964Y-95432142D02*
X132282678Y-95360714D01*
X132282678Y-95360714D02*
X132318392Y-95325000D01*
X132318392Y-95325000D02*
X132389821Y-95289285D01*
X132389821Y-95289285D02*
X132532678Y-95253571D01*
X132532678Y-95253571D02*
X132711250Y-95253571D01*
X132711250Y-95253571D02*
X132854107Y-95289285D01*
X132854107Y-95289285D02*
X132925535Y-95325000D01*
X132925535Y-95325000D02*
X132961250Y-95360714D01*
X132961250Y-95360714D02*
X132996964Y-95432142D01*
X132996964Y-95432142D02*
X132996964Y-95503571D01*
X132996964Y-95503571D02*
X132961250Y-95575000D01*
X132961250Y-95575000D02*
X132925535Y-95610714D01*
X132925535Y-95610714D02*
X132854107Y-95646428D01*
X132854107Y-95646428D02*
X132711250Y-95682142D01*
X132711250Y-95682142D02*
X132532678Y-95682142D01*
X132532678Y-95682142D02*
X132389821Y-95646428D01*
X132389821Y-95646428D02*
X132318392Y-95610714D01*
X132318392Y-95610714D02*
X132282678Y-95575000D01*
X132282678Y-95575000D02*
X132246964Y-95503571D01*
%TO.C,C2*%
X96187499Y-96925535D02*
X96151785Y-96961250D01*
X96151785Y-96961250D02*
X96044642Y-96996964D01*
X96044642Y-96996964D02*
X95973214Y-96996964D01*
X95973214Y-96996964D02*
X95866071Y-96961250D01*
X95866071Y-96961250D02*
X95794642Y-96889821D01*
X95794642Y-96889821D02*
X95758928Y-96818392D01*
X95758928Y-96818392D02*
X95723214Y-96675535D01*
X95723214Y-96675535D02*
X95723214Y-96568392D01*
X95723214Y-96568392D02*
X95758928Y-96425535D01*
X95758928Y-96425535D02*
X95794642Y-96354107D01*
X95794642Y-96354107D02*
X95866071Y-96282678D01*
X95866071Y-96282678D02*
X95973214Y-96246964D01*
X95973214Y-96246964D02*
X96044642Y-96246964D01*
X96044642Y-96246964D02*
X96151785Y-96282678D01*
X96151785Y-96282678D02*
X96187499Y-96318392D01*
X96473214Y-96318392D02*
X96508928Y-96282678D01*
X96508928Y-96282678D02*
X96580357Y-96246964D01*
X96580357Y-96246964D02*
X96758928Y-96246964D01*
X96758928Y-96246964D02*
X96830357Y-96282678D01*
X96830357Y-96282678D02*
X96866071Y-96318392D01*
X96866071Y-96318392D02*
X96901785Y-96389821D01*
X96901785Y-96389821D02*
X96901785Y-96461250D01*
X96901785Y-96461250D02*
X96866071Y-96568392D01*
X96866071Y-96568392D02*
X96437499Y-96996964D01*
X96437499Y-96996964D02*
X96901785Y-96996964D01*
%TO.C,SW5*%
X157688750Y-120750000D02*
X157653035Y-120857143D01*
X157653035Y-120857143D02*
X157653035Y-121035714D01*
X157653035Y-121035714D02*
X157688750Y-121107143D01*
X157688750Y-121107143D02*
X157724464Y-121142857D01*
X157724464Y-121142857D02*
X157795892Y-121178571D01*
X157795892Y-121178571D02*
X157867321Y-121178571D01*
X157867321Y-121178571D02*
X157938750Y-121142857D01*
X157938750Y-121142857D02*
X157974464Y-121107143D01*
X157974464Y-121107143D02*
X158010178Y-121035714D01*
X158010178Y-121035714D02*
X158045892Y-120892857D01*
X158045892Y-120892857D02*
X158081607Y-120821428D01*
X158081607Y-120821428D02*
X158117321Y-120785714D01*
X158117321Y-120785714D02*
X158188750Y-120750000D01*
X158188750Y-120750000D02*
X158260178Y-120750000D01*
X158260178Y-120750000D02*
X158331607Y-120785714D01*
X158331607Y-120785714D02*
X158367321Y-120821428D01*
X158367321Y-120821428D02*
X158403035Y-120892857D01*
X158403035Y-120892857D02*
X158403035Y-121071428D01*
X158403035Y-121071428D02*
X158367321Y-121178571D01*
X158403035Y-121428571D02*
X157653035Y-121607143D01*
X157653035Y-121607143D02*
X158188750Y-121750000D01*
X158188750Y-121750000D02*
X157653035Y-121892857D01*
X157653035Y-121892857D02*
X158403035Y-122071429D01*
X158403035Y-122714286D02*
X158403035Y-122357143D01*
X158403035Y-122357143D02*
X158045892Y-122321429D01*
X158045892Y-122321429D02*
X158081607Y-122357143D01*
X158081607Y-122357143D02*
X158117321Y-122428572D01*
X158117321Y-122428572D02*
X158117321Y-122607143D01*
X158117321Y-122607143D02*
X158081607Y-122678572D01*
X158081607Y-122678572D02*
X158045892Y-122714286D01*
X158045892Y-122714286D02*
X157974464Y-122750000D01*
X157974464Y-122750000D02*
X157795892Y-122750000D01*
X157795892Y-122750000D02*
X157724464Y-122714286D01*
X157724464Y-122714286D02*
X157688750Y-122678572D01*
X157688750Y-122678572D02*
X157653035Y-122607143D01*
X157653035Y-122607143D02*
X157653035Y-122428572D01*
X157653035Y-122428572D02*
X157688750Y-122357143D01*
X157688750Y-122357143D02*
X157724464Y-122321429D01*
X154500000Y-118061250D02*
X154607143Y-118096964D01*
X154607143Y-118096964D02*
X154785714Y-118096964D01*
X154785714Y-118096964D02*
X154857143Y-118061250D01*
X154857143Y-118061250D02*
X154892857Y-118025535D01*
X154892857Y-118025535D02*
X154928571Y-117954107D01*
X154928571Y-117954107D02*
X154928571Y-117882678D01*
X154928571Y-117882678D02*
X154892857Y-117811250D01*
X154892857Y-117811250D02*
X154857143Y-117775535D01*
X154857143Y-117775535D02*
X154785714Y-117739821D01*
X154785714Y-117739821D02*
X154642857Y-117704107D01*
X154642857Y-117704107D02*
X154571428Y-117668392D01*
X154571428Y-117668392D02*
X154535714Y-117632678D01*
X154535714Y-117632678D02*
X154500000Y-117561250D01*
X154500000Y-117561250D02*
X154500000Y-117489821D01*
X154500000Y-117489821D02*
X154535714Y-117418392D01*
X154535714Y-117418392D02*
X154571428Y-117382678D01*
X154571428Y-117382678D02*
X154642857Y-117346964D01*
X154642857Y-117346964D02*
X154821428Y-117346964D01*
X154821428Y-117346964D02*
X154928571Y-117382678D01*
X155178571Y-117346964D02*
X155357143Y-118096964D01*
X155357143Y-118096964D02*
X155500000Y-117561250D01*
X155500000Y-117561250D02*
X155642857Y-118096964D01*
X155642857Y-118096964D02*
X155821429Y-117346964D01*
X156464286Y-117346964D02*
X156107143Y-117346964D01*
X156107143Y-117346964D02*
X156071429Y-117704107D01*
X156071429Y-117704107D02*
X156107143Y-117668392D01*
X156107143Y-117668392D02*
X156178572Y-117632678D01*
X156178572Y-117632678D02*
X156357143Y-117632678D01*
X156357143Y-117632678D02*
X156428572Y-117668392D01*
X156428572Y-117668392D02*
X156464286Y-117704107D01*
X156464286Y-117704107D02*
X156500000Y-117775535D01*
X156500000Y-117775535D02*
X156500000Y-117954107D01*
X156500000Y-117954107D02*
X156464286Y-118025535D01*
X156464286Y-118025535D02*
X156428572Y-118061250D01*
X156428572Y-118061250D02*
X156357143Y-118096964D01*
X156357143Y-118096964D02*
X156178572Y-118096964D01*
X156178572Y-118096964D02*
X156107143Y-118061250D01*
X156107143Y-118061250D02*
X156071429Y-118025535D01*
%TO.C,J8*%
X101862619Y-75133333D02*
X102576904Y-75133333D01*
X102576904Y-75133333D02*
X102719761Y-75180952D01*
X102719761Y-75180952D02*
X102815000Y-75276190D01*
X102815000Y-75276190D02*
X102862619Y-75419047D01*
X102862619Y-75419047D02*
X102862619Y-75514285D01*
X102291190Y-74514285D02*
X102243571Y-74609523D01*
X102243571Y-74609523D02*
X102195952Y-74657142D01*
X102195952Y-74657142D02*
X102100714Y-74704761D01*
X102100714Y-74704761D02*
X102053095Y-74704761D01*
X102053095Y-74704761D02*
X101957857Y-74657142D01*
X101957857Y-74657142D02*
X101910238Y-74609523D01*
X101910238Y-74609523D02*
X101862619Y-74514285D01*
X101862619Y-74514285D02*
X101862619Y-74323809D01*
X101862619Y-74323809D02*
X101910238Y-74228571D01*
X101910238Y-74228571D02*
X101957857Y-74180952D01*
X101957857Y-74180952D02*
X102053095Y-74133333D01*
X102053095Y-74133333D02*
X102100714Y-74133333D01*
X102100714Y-74133333D02*
X102195952Y-74180952D01*
X102195952Y-74180952D02*
X102243571Y-74228571D01*
X102243571Y-74228571D02*
X102291190Y-74323809D01*
X102291190Y-74323809D02*
X102291190Y-74514285D01*
X102291190Y-74514285D02*
X102338809Y-74609523D01*
X102338809Y-74609523D02*
X102386428Y-74657142D01*
X102386428Y-74657142D02*
X102481666Y-74704761D01*
X102481666Y-74704761D02*
X102672142Y-74704761D01*
X102672142Y-74704761D02*
X102767380Y-74657142D01*
X102767380Y-74657142D02*
X102815000Y-74609523D01*
X102815000Y-74609523D02*
X102862619Y-74514285D01*
X102862619Y-74514285D02*
X102862619Y-74323809D01*
X102862619Y-74323809D02*
X102815000Y-74228571D01*
X102815000Y-74228571D02*
X102767380Y-74180952D01*
X102767380Y-74180952D02*
X102672142Y-74133333D01*
X102672142Y-74133333D02*
X102481666Y-74133333D01*
X102481666Y-74133333D02*
X102386428Y-74180952D01*
X102386428Y-74180952D02*
X102338809Y-74228571D01*
X102338809Y-74228571D02*
X102291190Y-74323809D01*
%TO.C,C3*%
X123725535Y-96387500D02*
X123761250Y-96423214D01*
X123761250Y-96423214D02*
X123796964Y-96530357D01*
X123796964Y-96530357D02*
X123796964Y-96601785D01*
X123796964Y-96601785D02*
X123761250Y-96708928D01*
X123761250Y-96708928D02*
X123689821Y-96780357D01*
X123689821Y-96780357D02*
X123618392Y-96816071D01*
X123618392Y-96816071D02*
X123475535Y-96851785D01*
X123475535Y-96851785D02*
X123368392Y-96851785D01*
X123368392Y-96851785D02*
X123225535Y-96816071D01*
X123225535Y-96816071D02*
X123154107Y-96780357D01*
X123154107Y-96780357D02*
X123082678Y-96708928D01*
X123082678Y-96708928D02*
X123046964Y-96601785D01*
X123046964Y-96601785D02*
X123046964Y-96530357D01*
X123046964Y-96530357D02*
X123082678Y-96423214D01*
X123082678Y-96423214D02*
X123118392Y-96387500D01*
X123046964Y-96137500D02*
X123046964Y-95673214D01*
X123046964Y-95673214D02*
X123332678Y-95923214D01*
X123332678Y-95923214D02*
X123332678Y-95816071D01*
X123332678Y-95816071D02*
X123368392Y-95744643D01*
X123368392Y-95744643D02*
X123404107Y-95708928D01*
X123404107Y-95708928D02*
X123475535Y-95673214D01*
X123475535Y-95673214D02*
X123654107Y-95673214D01*
X123654107Y-95673214D02*
X123725535Y-95708928D01*
X123725535Y-95708928D02*
X123761250Y-95744643D01*
X123761250Y-95744643D02*
X123796964Y-95816071D01*
X123796964Y-95816071D02*
X123796964Y-96030357D01*
X123796964Y-96030357D02*
X123761250Y-96101785D01*
X123761250Y-96101785D02*
X123725535Y-96137500D01*
%TO.C,Q2*%
X98303571Y-91618392D02*
X98232142Y-91582678D01*
X98232142Y-91582678D02*
X98160714Y-91511250D01*
X98160714Y-91511250D02*
X98053571Y-91404107D01*
X98053571Y-91404107D02*
X97982142Y-91368392D01*
X97982142Y-91368392D02*
X97910714Y-91368392D01*
X97946428Y-91546964D02*
X97875000Y-91511250D01*
X97875000Y-91511250D02*
X97803571Y-91439821D01*
X97803571Y-91439821D02*
X97767857Y-91296964D01*
X97767857Y-91296964D02*
X97767857Y-91046964D01*
X97767857Y-91046964D02*
X97803571Y-90904107D01*
X97803571Y-90904107D02*
X97875000Y-90832678D01*
X97875000Y-90832678D02*
X97946428Y-90796964D01*
X97946428Y-90796964D02*
X98089285Y-90796964D01*
X98089285Y-90796964D02*
X98160714Y-90832678D01*
X98160714Y-90832678D02*
X98232142Y-90904107D01*
X98232142Y-90904107D02*
X98267857Y-91046964D01*
X98267857Y-91046964D02*
X98267857Y-91296964D01*
X98267857Y-91296964D02*
X98232142Y-91439821D01*
X98232142Y-91439821D02*
X98160714Y-91511250D01*
X98160714Y-91511250D02*
X98089285Y-91546964D01*
X98089285Y-91546964D02*
X97946428Y-91546964D01*
X98553571Y-90868392D02*
X98589285Y-90832678D01*
X98589285Y-90832678D02*
X98660714Y-90796964D01*
X98660714Y-90796964D02*
X98839285Y-90796964D01*
X98839285Y-90796964D02*
X98910714Y-90832678D01*
X98910714Y-90832678D02*
X98946428Y-90868392D01*
X98946428Y-90868392D02*
X98982142Y-90939821D01*
X98982142Y-90939821D02*
X98982142Y-91011250D01*
X98982142Y-91011250D02*
X98946428Y-91118392D01*
X98946428Y-91118392D02*
X98517856Y-91546964D01*
X98517856Y-91546964D02*
X98982142Y-91546964D01*
%TO.C,U2*%
X114126964Y-117431428D02*
X114734107Y-117431428D01*
X114734107Y-117431428D02*
X114805535Y-117395714D01*
X114805535Y-117395714D02*
X114841250Y-117360000D01*
X114841250Y-117360000D02*
X114876964Y-117288571D01*
X114876964Y-117288571D02*
X114876964Y-117145714D01*
X114876964Y-117145714D02*
X114841250Y-117074285D01*
X114841250Y-117074285D02*
X114805535Y-117038571D01*
X114805535Y-117038571D02*
X114734107Y-117002857D01*
X114734107Y-117002857D02*
X114126964Y-117002857D01*
X114198392Y-116681428D02*
X114162678Y-116645714D01*
X114162678Y-116645714D02*
X114126964Y-116574286D01*
X114126964Y-116574286D02*
X114126964Y-116395714D01*
X114126964Y-116395714D02*
X114162678Y-116324286D01*
X114162678Y-116324286D02*
X114198392Y-116288571D01*
X114198392Y-116288571D02*
X114269821Y-116252857D01*
X114269821Y-116252857D02*
X114341250Y-116252857D01*
X114341250Y-116252857D02*
X114448392Y-116288571D01*
X114448392Y-116288571D02*
X114876964Y-116717143D01*
X114876964Y-116717143D02*
X114876964Y-116252857D01*
X123023136Y-129452234D02*
X122846359Y-129275457D01*
X122568567Y-129553249D02*
X123098897Y-129022919D01*
X123098897Y-129022919D02*
X123351436Y-129275457D01*
X123149405Y-129831041D02*
X123401943Y-130083579D01*
X122947374Y-129932056D02*
X123654481Y-129578503D01*
X123654481Y-129578503D02*
X123300928Y-130285609D01*
X123477704Y-130462386D02*
X124008035Y-129932056D01*
X124008035Y-129932056D02*
X123780750Y-130765432D01*
X123780750Y-130765432D02*
X124311080Y-130235102D01*
X133435674Y-103396203D02*
X133410420Y-103320442D01*
X133410420Y-103320442D02*
X133334659Y-103244680D01*
X133334659Y-103244680D02*
X133233644Y-103194173D01*
X133233644Y-103194173D02*
X133132628Y-103194173D01*
X133132628Y-103194173D02*
X133056867Y-103219426D01*
X133056867Y-103219426D02*
X132930598Y-103295188D01*
X132930598Y-103295188D02*
X132854836Y-103370949D01*
X132854836Y-103370949D02*
X132779075Y-103497218D01*
X132779075Y-103497218D02*
X132753821Y-103572980D01*
X132753821Y-103572980D02*
X132753821Y-103673995D01*
X132753821Y-103673995D02*
X132804329Y-103775010D01*
X132804329Y-103775010D02*
X132854836Y-103825518D01*
X132854836Y-103825518D02*
X132955852Y-103876026D01*
X132955852Y-103876026D02*
X133006359Y-103876026D01*
X133006359Y-103876026D02*
X133183136Y-103699249D01*
X133183136Y-103699249D02*
X133082121Y-103598234D01*
X133183136Y-104153818D02*
X133713466Y-103623487D01*
X133713466Y-103623487D02*
X133486182Y-104456863D01*
X133486182Y-104456863D02*
X134016512Y-103926533D01*
X133738720Y-104709401D02*
X134269050Y-104179071D01*
X134269050Y-104179071D02*
X134395319Y-104305340D01*
X134395319Y-104305340D02*
X134445826Y-104406355D01*
X134445826Y-104406355D02*
X134445826Y-104507371D01*
X134445826Y-104507371D02*
X134420573Y-104583132D01*
X134420573Y-104583132D02*
X134344811Y-104709401D01*
X134344811Y-104709401D02*
X134269050Y-104785163D01*
X134269050Y-104785163D02*
X134142781Y-104860924D01*
X134142781Y-104860924D02*
X134067019Y-104886178D01*
X134067019Y-104886178D02*
X133966004Y-104886178D01*
X133966004Y-104886178D02*
X133864989Y-104835670D01*
X133864989Y-104835670D02*
X133738720Y-104709401D01*
X115163225Y-103713906D02*
X115238986Y-103284592D01*
X114860179Y-103410861D02*
X115390509Y-102880531D01*
X115390509Y-102880531D02*
X115592540Y-103082561D01*
X115592540Y-103082561D02*
X115617793Y-103158322D01*
X115617793Y-103158322D02*
X115617793Y-103208830D01*
X115617793Y-103208830D02*
X115592540Y-103284592D01*
X115592540Y-103284592D02*
X115516778Y-103360353D01*
X115516778Y-103360353D02*
X115441017Y-103385607D01*
X115441017Y-103385607D02*
X115390509Y-103385607D01*
X115390509Y-103385607D02*
X115314748Y-103360353D01*
X115314748Y-103360353D02*
X115112717Y-103158322D01*
X115920839Y-103410861D02*
X115491524Y-103840175D01*
X115491524Y-103840175D02*
X115466271Y-103915937D01*
X115466271Y-103915937D02*
X115466271Y-103966445D01*
X115466271Y-103966445D02*
X115491524Y-104042206D01*
X115491524Y-104042206D02*
X115592540Y-104143221D01*
X115592540Y-104143221D02*
X115668301Y-104168475D01*
X115668301Y-104168475D02*
X115718809Y-104168475D01*
X115718809Y-104168475D02*
X115794570Y-104143221D01*
X115794570Y-104143221D02*
X116223885Y-103713906D01*
X115946093Y-104496774D02*
X116476423Y-103966444D01*
X116476423Y-103966444D02*
X116249139Y-104799820D01*
X116249139Y-104799820D02*
X116779469Y-104269490D01*
X112673733Y-102649754D02*
X112320179Y-103356861D01*
X112320179Y-103356861D02*
X113027286Y-103003307D01*
X113305078Y-103281099D02*
X113406093Y-103382114D01*
X113406093Y-103382114D02*
X113431347Y-103457876D01*
X113431347Y-103457876D02*
X113431347Y-103558891D01*
X113431347Y-103558891D02*
X113355585Y-103685160D01*
X113355585Y-103685160D02*
X113178809Y-103861937D01*
X113178809Y-103861937D02*
X113052540Y-103937698D01*
X113052540Y-103937698D02*
X112951524Y-103937698D01*
X112951524Y-103937698D02*
X112875763Y-103912445D01*
X112875763Y-103912445D02*
X112774748Y-103811429D01*
X112774748Y-103811429D02*
X112749494Y-103735668D01*
X112749494Y-103735668D02*
X112749494Y-103634653D01*
X112749494Y-103634653D02*
X112825255Y-103508384D01*
X112825255Y-103508384D02*
X113002032Y-103331607D01*
X113002032Y-103331607D02*
X113128301Y-103255845D01*
X113128301Y-103255845D02*
X113229316Y-103255845D01*
X113229316Y-103255845D02*
X113305078Y-103281099D01*
X113481854Y-104518536D02*
X113229316Y-104265998D01*
X113229316Y-104265998D02*
X113759646Y-103735668D01*
X114113200Y-104089221D02*
X114416245Y-104392267D01*
X113734392Y-104771074D02*
X114264723Y-104240744D01*
X95335674Y-128996203D02*
X95310420Y-128920442D01*
X95310420Y-128920442D02*
X95234659Y-128844680D01*
X95234659Y-128844680D02*
X95133644Y-128794173D01*
X95133644Y-128794173D02*
X95032628Y-128794173D01*
X95032628Y-128794173D02*
X94956867Y-128819426D01*
X94956867Y-128819426D02*
X94830598Y-128895188D01*
X94830598Y-128895188D02*
X94754836Y-128970949D01*
X94754836Y-128970949D02*
X94679075Y-129097218D01*
X94679075Y-129097218D02*
X94653821Y-129172980D01*
X94653821Y-129172980D02*
X94653821Y-129273995D01*
X94653821Y-129273995D02*
X94704329Y-129375010D01*
X94704329Y-129375010D02*
X94754836Y-129425518D01*
X94754836Y-129425518D02*
X94855852Y-129476026D01*
X94855852Y-129476026D02*
X94906359Y-129476026D01*
X94906359Y-129476026D02*
X95083136Y-129299249D01*
X95083136Y-129299249D02*
X94982121Y-129198234D01*
X95083136Y-129753818D02*
X95613466Y-129223487D01*
X95613466Y-129223487D02*
X95386182Y-130056863D01*
X95386182Y-130056863D02*
X95916512Y-129526533D01*
X95638720Y-130309401D02*
X96169050Y-129779071D01*
X96169050Y-129779071D02*
X96295319Y-129905340D01*
X96295319Y-129905340D02*
X96345826Y-130006355D01*
X96345826Y-130006355D02*
X96345826Y-130107371D01*
X96345826Y-130107371D02*
X96320573Y-130183132D01*
X96320573Y-130183132D02*
X96244811Y-130309401D01*
X96244811Y-130309401D02*
X96169050Y-130385163D01*
X96169050Y-130385163D02*
X96042781Y-130460924D01*
X96042781Y-130460924D02*
X95967019Y-130486178D01*
X95967019Y-130486178D02*
X95866004Y-130486178D01*
X95866004Y-130486178D02*
X95764989Y-130435670D01*
X95764989Y-130435670D02*
X95638720Y-130309401D01*
X110156359Y-103622026D02*
X110105852Y-103622026D01*
X110105852Y-103622026D02*
X110004836Y-103571518D01*
X110004836Y-103571518D02*
X109954329Y-103521010D01*
X109954329Y-103521010D02*
X109903821Y-103419995D01*
X109903821Y-103419995D02*
X109903821Y-103318980D01*
X109903821Y-103318980D02*
X109929075Y-103243218D01*
X109929075Y-103243218D02*
X110004836Y-103116949D01*
X110004836Y-103116949D02*
X110080598Y-103041188D01*
X110080598Y-103041188D02*
X110206867Y-102965426D01*
X110206867Y-102965426D02*
X110282628Y-102940173D01*
X110282628Y-102940173D02*
X110383644Y-102940173D01*
X110383644Y-102940173D02*
X110484659Y-102990680D01*
X110484659Y-102990680D02*
X110535166Y-103041188D01*
X110535166Y-103041188D02*
X110585674Y-103142203D01*
X110585674Y-103142203D02*
X110585674Y-103192711D01*
X110863466Y-103369487D02*
X110434151Y-103798802D01*
X110434151Y-103798802D02*
X110408897Y-103874564D01*
X110408897Y-103874564D02*
X110408897Y-103925071D01*
X110408897Y-103925071D02*
X110434151Y-104000833D01*
X110434151Y-104000833D02*
X110535166Y-104101848D01*
X110535166Y-104101848D02*
X110610928Y-104127102D01*
X110610928Y-104127102D02*
X110661435Y-104127102D01*
X110661435Y-104127102D02*
X110737197Y-104101848D01*
X110737197Y-104101848D02*
X111166512Y-103672533D01*
X111191765Y-104758447D02*
X111267527Y-104329132D01*
X110888720Y-104455401D02*
X111419050Y-103925071D01*
X111419050Y-103925071D02*
X111621080Y-104127102D01*
X111621080Y-104127102D02*
X111646334Y-104202863D01*
X111646334Y-104202863D02*
X111646334Y-104253371D01*
X111646334Y-104253371D02*
X111621080Y-104329132D01*
X111621080Y-104329132D02*
X111545319Y-104404894D01*
X111545319Y-104404894D02*
X111469557Y-104430147D01*
X111469557Y-104430147D02*
X111419050Y-104430147D01*
X111419050Y-104430147D02*
X111343288Y-104404894D01*
X111343288Y-104404894D02*
X111141258Y-104202863D01*
X102235941Y-129236115D02*
X102286448Y-129337130D01*
X102286448Y-129337130D02*
X102412717Y-129463399D01*
X102412717Y-129463399D02*
X102488479Y-129488653D01*
X102488479Y-129488653D02*
X102538986Y-129488653D01*
X102538986Y-129488653D02*
X102614748Y-129463399D01*
X102614748Y-129463399D02*
X102665255Y-129412891D01*
X102665255Y-129412891D02*
X102690509Y-129337130D01*
X102690509Y-129337130D02*
X102690509Y-129286622D01*
X102690509Y-129286622D02*
X102665255Y-129210861D01*
X102665255Y-129210861D02*
X102589494Y-129084592D01*
X102589494Y-129084592D02*
X102564240Y-129008830D01*
X102564240Y-129008830D02*
X102564240Y-128958323D01*
X102564240Y-128958323D02*
X102589494Y-128882561D01*
X102589494Y-128882561D02*
X102640002Y-128832054D01*
X102640002Y-128832054D02*
X102715763Y-128806800D01*
X102715763Y-128806800D02*
X102766271Y-128806800D01*
X102766271Y-128806800D02*
X102842032Y-128832054D01*
X102842032Y-128832054D02*
X102968301Y-128958323D01*
X102968301Y-128958323D02*
X103018809Y-129059338D01*
X102741017Y-129791699D02*
X103271347Y-129261369D01*
X103271347Y-129261369D02*
X103397616Y-129387638D01*
X103397616Y-129387638D02*
X103448124Y-129488653D01*
X103448124Y-129488653D02*
X103448124Y-129589668D01*
X103448124Y-129589668D02*
X103422870Y-129665430D01*
X103422870Y-129665430D02*
X103347109Y-129791699D01*
X103347109Y-129791699D02*
X103271347Y-129867460D01*
X103271347Y-129867460D02*
X103145078Y-129943222D01*
X103145078Y-129943222D02*
X103069317Y-129968475D01*
X103069317Y-129968475D02*
X102968301Y-129968475D01*
X102968301Y-129968475D02*
X102867286Y-129917968D01*
X102867286Y-129917968D02*
X102741017Y-129791699D01*
X103397616Y-130145252D02*
X103650154Y-130397790D01*
X103195586Y-130246267D02*
X103902692Y-129892714D01*
X103902692Y-129892714D02*
X103549139Y-130599821D01*
X92315851Y-102465873D02*
X91962298Y-103172980D01*
X91962298Y-103172980D02*
X92669405Y-102819426D01*
X92315851Y-103476025D02*
X92366359Y-103577041D01*
X92366359Y-103577041D02*
X92492628Y-103703310D01*
X92492628Y-103703310D02*
X92568389Y-103728563D01*
X92568389Y-103728563D02*
X92618897Y-103728563D01*
X92618897Y-103728563D02*
X92694658Y-103703310D01*
X92694658Y-103703310D02*
X92745166Y-103652802D01*
X92745166Y-103652802D02*
X92770420Y-103577041D01*
X92770420Y-103577041D02*
X92770420Y-103526533D01*
X92770420Y-103526533D02*
X92745166Y-103450771D01*
X92745166Y-103450771D02*
X92669405Y-103324502D01*
X92669405Y-103324502D02*
X92644151Y-103248741D01*
X92644151Y-103248741D02*
X92644151Y-103198233D01*
X92644151Y-103198233D02*
X92669405Y-103122472D01*
X92669405Y-103122472D02*
X92719912Y-103071964D01*
X92719912Y-103071964D02*
X92795674Y-103046710D01*
X92795674Y-103046710D02*
X92846181Y-103046710D01*
X92846181Y-103046710D02*
X92921943Y-103071964D01*
X92921943Y-103071964D02*
X93048212Y-103198233D01*
X93048212Y-103198233D02*
X93098720Y-103299249D01*
X93174481Y-103880086D02*
X92921943Y-104132625D01*
X93275496Y-103425518D02*
X93174481Y-103880086D01*
X93174481Y-103880086D02*
X93629050Y-103779071D01*
X93275496Y-104435670D02*
X93326004Y-104536686D01*
X93326004Y-104536686D02*
X93452273Y-104662955D01*
X93452273Y-104662955D02*
X93528034Y-104688208D01*
X93528034Y-104688208D02*
X93578542Y-104688208D01*
X93578542Y-104688208D02*
X93654304Y-104662955D01*
X93654304Y-104662955D02*
X93704811Y-104612447D01*
X93704811Y-104612447D02*
X93730065Y-104536686D01*
X93730065Y-104536686D02*
X93730065Y-104486178D01*
X93730065Y-104486178D02*
X93704811Y-104410416D01*
X93704811Y-104410416D02*
X93629050Y-104284147D01*
X93629050Y-104284147D02*
X93603796Y-104208386D01*
X93603796Y-104208386D02*
X93603796Y-104157878D01*
X93603796Y-104157878D02*
X93629050Y-104082117D01*
X93629050Y-104082117D02*
X93679557Y-104031609D01*
X93679557Y-104031609D02*
X93755319Y-104006355D01*
X93755319Y-104006355D02*
X93805826Y-104006355D01*
X93805826Y-104006355D02*
X93881588Y-104031609D01*
X93881588Y-104031609D02*
X94007857Y-104157878D01*
X94007857Y-104157878D02*
X94058365Y-104258894D01*
X133435674Y-128996203D02*
X133410420Y-128920442D01*
X133410420Y-128920442D02*
X133334659Y-128844680D01*
X133334659Y-128844680D02*
X133233644Y-128794173D01*
X133233644Y-128794173D02*
X133132628Y-128794173D01*
X133132628Y-128794173D02*
X133056867Y-128819426D01*
X133056867Y-128819426D02*
X132930598Y-128895188D01*
X132930598Y-128895188D02*
X132854836Y-128970949D01*
X132854836Y-128970949D02*
X132779075Y-129097218D01*
X132779075Y-129097218D02*
X132753821Y-129172980D01*
X132753821Y-129172980D02*
X132753821Y-129273995D01*
X132753821Y-129273995D02*
X132804329Y-129375010D01*
X132804329Y-129375010D02*
X132854836Y-129425518D01*
X132854836Y-129425518D02*
X132955852Y-129476026D01*
X132955852Y-129476026D02*
X133006359Y-129476026D01*
X133006359Y-129476026D02*
X133183136Y-129299249D01*
X133183136Y-129299249D02*
X133082121Y-129198234D01*
X133183136Y-129753818D02*
X133713466Y-129223487D01*
X133713466Y-129223487D02*
X133486182Y-130056863D01*
X133486182Y-130056863D02*
X134016512Y-129526533D01*
X133738720Y-130309401D02*
X134269050Y-129779071D01*
X134269050Y-129779071D02*
X134395319Y-129905340D01*
X134395319Y-129905340D02*
X134445826Y-130006355D01*
X134445826Y-130006355D02*
X134445826Y-130107371D01*
X134445826Y-130107371D02*
X134420573Y-130183132D01*
X134420573Y-130183132D02*
X134344811Y-130309401D01*
X134344811Y-130309401D02*
X134269050Y-130385163D01*
X134269050Y-130385163D02*
X134142781Y-130460924D01*
X134142781Y-130460924D02*
X134067019Y-130486178D01*
X134067019Y-130486178D02*
X133966004Y-130486178D01*
X133966004Y-130486178D02*
X133864989Y-130435670D01*
X133864989Y-130435670D02*
X133738720Y-130309401D01*
X134952894Y-103079068D02*
X135003402Y-103180084D01*
X135003402Y-103180084D02*
X135129671Y-103306353D01*
X135129671Y-103306353D02*
X135205433Y-103331607D01*
X135205433Y-103331607D02*
X135255940Y-103331607D01*
X135255940Y-103331607D02*
X135331702Y-103306353D01*
X135331702Y-103306353D02*
X135382209Y-103255845D01*
X135382209Y-103255845D02*
X135407463Y-103180084D01*
X135407463Y-103180084D02*
X135407463Y-103129576D01*
X135407463Y-103129576D02*
X135382209Y-103053815D01*
X135382209Y-103053815D02*
X135306448Y-102927545D01*
X135306448Y-102927545D02*
X135281194Y-102851784D01*
X135281194Y-102851784D02*
X135281194Y-102801276D01*
X135281194Y-102801276D02*
X135306448Y-102725515D01*
X135306448Y-102725515D02*
X135356955Y-102675007D01*
X135356955Y-102675007D02*
X135432717Y-102649754D01*
X135432717Y-102649754D02*
X135483224Y-102649754D01*
X135483224Y-102649754D02*
X135558986Y-102675007D01*
X135558986Y-102675007D02*
X135685255Y-102801276D01*
X135685255Y-102801276D02*
X135735763Y-102902292D01*
X135710509Y-103887191D02*
X135457971Y-103634652D01*
X135457971Y-103634652D02*
X135988301Y-103104322D01*
X136518631Y-103634653D02*
X136619646Y-103735668D01*
X136619646Y-103735668D02*
X136644900Y-103811429D01*
X136644900Y-103811429D02*
X136644900Y-103912445D01*
X136644900Y-103912445D02*
X136569139Y-104038714D01*
X136569139Y-104038714D02*
X136392362Y-104215490D01*
X136392362Y-104215490D02*
X136266093Y-104291252D01*
X136266093Y-104291252D02*
X136165078Y-104291252D01*
X136165078Y-104291252D02*
X136089316Y-104265998D01*
X136089316Y-104265998D02*
X135988301Y-104164983D01*
X135988301Y-104164983D02*
X135963047Y-104089221D01*
X135963047Y-104089221D02*
X135963047Y-103988206D01*
X135963047Y-103988206D02*
X136038809Y-103861937D01*
X136038809Y-103861937D02*
X136215585Y-103685160D01*
X136215585Y-103685160D02*
X136341854Y-103609399D01*
X136341854Y-103609399D02*
X136442870Y-103609399D01*
X136442870Y-103609399D02*
X136518631Y-103634653D01*
X136922692Y-104038713D02*
X136518631Y-104695313D01*
X136518631Y-104695313D02*
X136998453Y-104417521D01*
X136998453Y-104417521D02*
X136720661Y-104897343D01*
X136720661Y-104897343D02*
X137377261Y-104493282D01*
X104788567Y-129248741D02*
X104839075Y-129349757D01*
X104839075Y-129349757D02*
X104965344Y-129476026D01*
X104965344Y-129476026D02*
X105041106Y-129501279D01*
X105041106Y-129501279D02*
X105091613Y-129501279D01*
X105091613Y-129501279D02*
X105167375Y-129476026D01*
X105167375Y-129476026D02*
X105217882Y-129425518D01*
X105217882Y-129425518D02*
X105243136Y-129349757D01*
X105243136Y-129349757D02*
X105243136Y-129299249D01*
X105243136Y-129299249D02*
X105217882Y-129223488D01*
X105217882Y-129223488D02*
X105142121Y-129097218D01*
X105142121Y-129097218D02*
X105116867Y-129021457D01*
X105116867Y-129021457D02*
X105116867Y-128970949D01*
X105116867Y-128970949D02*
X105142121Y-128895188D01*
X105142121Y-128895188D02*
X105192628Y-128844680D01*
X105192628Y-128844680D02*
X105268390Y-128819427D01*
X105268390Y-128819427D02*
X105318897Y-128819427D01*
X105318897Y-128819427D02*
X105394659Y-128844680D01*
X105394659Y-128844680D02*
X105520928Y-128970949D01*
X105520928Y-128970949D02*
X105571436Y-129071965D01*
X105647197Y-130056864D02*
X105596690Y-130056864D01*
X105596690Y-130056864D02*
X105495674Y-130006356D01*
X105495674Y-130006356D02*
X105445167Y-129955848D01*
X105445167Y-129955848D02*
X105394659Y-129854833D01*
X105394659Y-129854833D02*
X105394659Y-129753818D01*
X105394659Y-129753818D02*
X105419913Y-129678056D01*
X105419913Y-129678056D02*
X105495674Y-129551787D01*
X105495674Y-129551787D02*
X105571436Y-129476026D01*
X105571436Y-129476026D02*
X105697705Y-129400264D01*
X105697705Y-129400264D02*
X105773466Y-129375011D01*
X105773466Y-129375011D02*
X105874482Y-129375011D01*
X105874482Y-129375011D02*
X105975497Y-129425518D01*
X105975497Y-129425518D02*
X106026004Y-129476026D01*
X106026004Y-129476026D02*
X106076512Y-129577041D01*
X106076512Y-129577041D02*
X106076512Y-129627549D01*
X106076512Y-130587194D02*
X105823974Y-130334656D01*
X105823974Y-130334656D02*
X106354304Y-129804325D01*
X100117908Y-101135543D02*
X100370446Y-101388081D01*
X99915877Y-101236559D02*
X100622984Y-100883005D01*
X100622984Y-100883005D02*
X100269430Y-101590112D01*
X100446207Y-101766889D02*
X100976537Y-101236558D01*
X100976537Y-101236558D02*
X101102806Y-101362828D01*
X101102806Y-101362828D02*
X101153314Y-101463843D01*
X101153314Y-101463843D02*
X101153314Y-101564858D01*
X101153314Y-101564858D02*
X101128060Y-101640620D01*
X101128060Y-101640620D02*
X101052299Y-101766889D01*
X101052299Y-101766889D02*
X100976537Y-101842650D01*
X100976537Y-101842650D02*
X100850268Y-101918411D01*
X100850268Y-101918411D02*
X100774507Y-101943665D01*
X100774507Y-101943665D02*
X100673491Y-101943665D01*
X100673491Y-101943665D02*
X100572476Y-101893158D01*
X100572476Y-101893158D02*
X100446207Y-101766889D01*
X101330090Y-102549757D02*
X101279583Y-102549757D01*
X101279583Y-102549757D02*
X101178568Y-102499249D01*
X101178568Y-102499249D02*
X101128060Y-102448742D01*
X101128060Y-102448742D02*
X101077552Y-102347726D01*
X101077552Y-102347726D02*
X101077552Y-102246711D01*
X101077552Y-102246711D02*
X101102806Y-102170950D01*
X101102806Y-102170950D02*
X101178568Y-102044681D01*
X101178568Y-102044681D02*
X101254329Y-101968919D01*
X101254329Y-101968919D02*
X101380598Y-101893158D01*
X101380598Y-101893158D02*
X101456360Y-101867904D01*
X101456360Y-101867904D02*
X101557375Y-101867904D01*
X101557375Y-101867904D02*
X101658390Y-101918411D01*
X101658390Y-101918411D02*
X101708898Y-101968919D01*
X101708898Y-101968919D02*
X101759405Y-102069934D01*
X101759405Y-102069934D02*
X101759405Y-102120442D01*
X101330090Y-102751787D02*
X101734151Y-103155848D01*
X102365497Y-102625519D02*
X102011944Y-103332625D01*
X102011944Y-103332625D02*
X102719051Y-102979072D01*
X102668543Y-103989224D02*
X102744304Y-103559910D01*
X102365497Y-103686179D02*
X102895827Y-103155849D01*
X102895827Y-103155849D02*
X103097858Y-103357879D01*
X103097858Y-103357879D02*
X103123111Y-103433640D01*
X103123111Y-103433640D02*
X103123111Y-103484148D01*
X103123111Y-103484148D02*
X103097858Y-103559910D01*
X103097858Y-103559910D02*
X103022096Y-103635671D01*
X103022096Y-103635671D02*
X102946335Y-103660925D01*
X102946335Y-103660925D02*
X102895827Y-103660925D01*
X102895827Y-103660925D02*
X102820066Y-103635671D01*
X102820066Y-103635671D02*
X102618035Y-103433640D01*
X103173619Y-103938717D02*
X103350396Y-104115493D01*
X103148365Y-104469047D02*
X102895827Y-104216509D01*
X102895827Y-104216509D02*
X103426157Y-103686179D01*
X103426157Y-103686179D02*
X103678695Y-103938717D01*
X103830218Y-104595316D02*
X103653441Y-104418539D01*
X103375649Y-104696331D02*
X103905979Y-104166001D01*
X103905979Y-104166001D02*
X104158517Y-104418539D01*
X123071017Y-103382115D02*
X123247794Y-103558892D01*
X123045763Y-103912445D02*
X122793225Y-103659907D01*
X122793225Y-103659907D02*
X123323555Y-103129577D01*
X123323555Y-103129577D02*
X123576093Y-103382115D01*
X123273047Y-104139729D02*
X123803377Y-103609399D01*
X123803377Y-103609399D02*
X123576093Y-104442775D01*
X123576093Y-104442775D02*
X124106423Y-103912445D01*
X108035674Y-128996203D02*
X108010420Y-128920442D01*
X108010420Y-128920442D02*
X107934659Y-128844680D01*
X107934659Y-128844680D02*
X107833644Y-128794173D01*
X107833644Y-128794173D02*
X107732628Y-128794173D01*
X107732628Y-128794173D02*
X107656867Y-128819426D01*
X107656867Y-128819426D02*
X107530598Y-128895188D01*
X107530598Y-128895188D02*
X107454836Y-128970949D01*
X107454836Y-128970949D02*
X107379075Y-129097218D01*
X107379075Y-129097218D02*
X107353821Y-129172980D01*
X107353821Y-129172980D02*
X107353821Y-129273995D01*
X107353821Y-129273995D02*
X107404329Y-129375010D01*
X107404329Y-129375010D02*
X107454836Y-129425518D01*
X107454836Y-129425518D02*
X107555852Y-129476026D01*
X107555852Y-129476026D02*
X107606359Y-129476026D01*
X107606359Y-129476026D02*
X107783136Y-129299249D01*
X107783136Y-129299249D02*
X107682121Y-129198234D01*
X107783136Y-129753818D02*
X108313466Y-129223487D01*
X108313466Y-129223487D02*
X108086182Y-130056863D01*
X108086182Y-130056863D02*
X108616512Y-129526533D01*
X108338720Y-130309401D02*
X108869050Y-129779071D01*
X108869050Y-129779071D02*
X108995319Y-129905340D01*
X108995319Y-129905340D02*
X109045826Y-130006355D01*
X109045826Y-130006355D02*
X109045826Y-130107371D01*
X109045826Y-130107371D02*
X109020573Y-130183132D01*
X109020573Y-130183132D02*
X108944811Y-130309401D01*
X108944811Y-130309401D02*
X108869050Y-130385163D01*
X108869050Y-130385163D02*
X108742781Y-130460924D01*
X108742781Y-130460924D02*
X108667019Y-130486178D01*
X108667019Y-130486178D02*
X108566004Y-130486178D01*
X108566004Y-130486178D02*
X108464989Y-130435670D01*
X108464989Y-130435670D02*
X108338720Y-130309401D01*
X120735674Y-103396203D02*
X120710420Y-103320442D01*
X120710420Y-103320442D02*
X120634659Y-103244680D01*
X120634659Y-103244680D02*
X120533644Y-103194173D01*
X120533644Y-103194173D02*
X120432628Y-103194173D01*
X120432628Y-103194173D02*
X120356867Y-103219426D01*
X120356867Y-103219426D02*
X120230598Y-103295188D01*
X120230598Y-103295188D02*
X120154836Y-103370949D01*
X120154836Y-103370949D02*
X120079075Y-103497218D01*
X120079075Y-103497218D02*
X120053821Y-103572980D01*
X120053821Y-103572980D02*
X120053821Y-103673995D01*
X120053821Y-103673995D02*
X120104329Y-103775010D01*
X120104329Y-103775010D02*
X120154836Y-103825518D01*
X120154836Y-103825518D02*
X120255852Y-103876026D01*
X120255852Y-103876026D02*
X120306359Y-103876026D01*
X120306359Y-103876026D02*
X120483136Y-103699249D01*
X120483136Y-103699249D02*
X120382121Y-103598234D01*
X120483136Y-104153818D02*
X121013466Y-103623487D01*
X121013466Y-103623487D02*
X120786182Y-104456863D01*
X120786182Y-104456863D02*
X121316512Y-103926533D01*
X121038720Y-104709401D02*
X121569050Y-104179071D01*
X121569050Y-104179071D02*
X121695319Y-104305340D01*
X121695319Y-104305340D02*
X121745826Y-104406355D01*
X121745826Y-104406355D02*
X121745826Y-104507371D01*
X121745826Y-104507371D02*
X121720573Y-104583132D01*
X121720573Y-104583132D02*
X121644811Y-104709401D01*
X121644811Y-104709401D02*
X121569050Y-104785163D01*
X121569050Y-104785163D02*
X121442781Y-104860924D01*
X121442781Y-104860924D02*
X121367019Y-104886178D01*
X121367019Y-104886178D02*
X121266004Y-104886178D01*
X121266004Y-104886178D02*
X121164989Y-104835670D01*
X121164989Y-104835670D02*
X121038720Y-104709401D01*
X120735674Y-128996203D02*
X120710420Y-128920442D01*
X120710420Y-128920442D02*
X120634659Y-128844680D01*
X120634659Y-128844680D02*
X120533644Y-128794173D01*
X120533644Y-128794173D02*
X120432628Y-128794173D01*
X120432628Y-128794173D02*
X120356867Y-128819426D01*
X120356867Y-128819426D02*
X120230598Y-128895188D01*
X120230598Y-128895188D02*
X120154836Y-128970949D01*
X120154836Y-128970949D02*
X120079075Y-129097218D01*
X120079075Y-129097218D02*
X120053821Y-129172980D01*
X120053821Y-129172980D02*
X120053821Y-129273995D01*
X120053821Y-129273995D02*
X120104329Y-129375010D01*
X120104329Y-129375010D02*
X120154836Y-129425518D01*
X120154836Y-129425518D02*
X120255852Y-129476026D01*
X120255852Y-129476026D02*
X120306359Y-129476026D01*
X120306359Y-129476026D02*
X120483136Y-129299249D01*
X120483136Y-129299249D02*
X120382121Y-129198234D01*
X120483136Y-129753818D02*
X121013466Y-129223487D01*
X121013466Y-129223487D02*
X120786182Y-130056863D01*
X120786182Y-130056863D02*
X121316512Y-129526533D01*
X121038720Y-130309401D02*
X121569050Y-129779071D01*
X121569050Y-129779071D02*
X121695319Y-129905340D01*
X121695319Y-129905340D02*
X121745826Y-130006355D01*
X121745826Y-130006355D02*
X121745826Y-130107371D01*
X121745826Y-130107371D02*
X121720573Y-130183132D01*
X121720573Y-130183132D02*
X121644811Y-130309401D01*
X121644811Y-130309401D02*
X121569050Y-130385163D01*
X121569050Y-130385163D02*
X121442781Y-130460924D01*
X121442781Y-130460924D02*
X121367019Y-130486178D01*
X121367019Y-130486178D02*
X121266004Y-130486178D01*
X121266004Y-130486178D02*
X121164989Y-130435670D01*
X121164989Y-130435670D02*
X121038720Y-130309401D01*
X107151791Y-102965427D02*
X107404329Y-103217965D01*
X106949760Y-103066442D02*
X107656867Y-102712889D01*
X107656867Y-102712889D02*
X107303314Y-103419995D01*
X108262959Y-103369488D02*
X108237705Y-103293726D01*
X108237705Y-103293726D02*
X108161943Y-103217965D01*
X108161943Y-103217965D02*
X108060928Y-103167457D01*
X108060928Y-103167457D02*
X107959913Y-103167457D01*
X107959913Y-103167457D02*
X107884151Y-103192711D01*
X107884151Y-103192711D02*
X107757882Y-103268472D01*
X107757882Y-103268472D02*
X107682121Y-103344234D01*
X107682121Y-103344234D02*
X107606360Y-103470503D01*
X107606360Y-103470503D02*
X107581106Y-103546264D01*
X107581106Y-103546264D02*
X107581106Y-103647280D01*
X107581106Y-103647280D02*
X107631613Y-103748295D01*
X107631613Y-103748295D02*
X107682121Y-103798803D01*
X107682121Y-103798803D02*
X107783136Y-103849310D01*
X107783136Y-103849310D02*
X107833644Y-103849310D01*
X107833644Y-103849310D02*
X108010421Y-103672533D01*
X108010421Y-103672533D02*
X107909405Y-103571518D01*
X108010421Y-104127102D02*
X108540751Y-103596772D01*
X108540751Y-103596772D02*
X108313466Y-104430148D01*
X108313466Y-104430148D02*
X108843796Y-103899818D01*
X108566004Y-104682686D02*
X109096334Y-104152356D01*
X109096334Y-104152356D02*
X109222603Y-104278625D01*
X109222603Y-104278625D02*
X109273111Y-104379640D01*
X109273111Y-104379640D02*
X109273111Y-104480655D01*
X109273111Y-104480655D02*
X109247857Y-104556417D01*
X109247857Y-104556417D02*
X109172096Y-104682686D01*
X109172096Y-104682686D02*
X109096334Y-104758447D01*
X109096334Y-104758447D02*
X108970065Y-104834209D01*
X108970065Y-104834209D02*
X108894304Y-104859463D01*
X108894304Y-104859463D02*
X108793289Y-104859463D01*
X108793289Y-104859463D02*
X108692273Y-104808955D01*
X108692273Y-104808955D02*
X108566004Y-104682686D01*
X100258390Y-103018411D02*
X100586689Y-103346711D01*
X100586689Y-103346711D02*
X100207882Y-103371965D01*
X100207882Y-103371965D02*
X100283644Y-103447726D01*
X100283644Y-103447726D02*
X100308897Y-103523488D01*
X100308897Y-103523488D02*
X100308897Y-103573995D01*
X100308897Y-103573995D02*
X100283644Y-103649757D01*
X100283644Y-103649757D02*
X100157375Y-103776026D01*
X100157375Y-103776026D02*
X100081613Y-103801279D01*
X100081613Y-103801279D02*
X100031106Y-103801279D01*
X100031106Y-103801279D02*
X99955344Y-103776026D01*
X99955344Y-103776026D02*
X99803821Y-103624503D01*
X99803821Y-103624503D02*
X99778567Y-103548741D01*
X99778567Y-103548741D02*
X99778567Y-103498234D01*
X100738212Y-103498234D02*
X100384659Y-104205341D01*
X100384659Y-104205341D02*
X101091766Y-103851787D01*
X101218035Y-103978056D02*
X101546334Y-104306356D01*
X101546334Y-104306356D02*
X101167527Y-104331610D01*
X101167527Y-104331610D02*
X101243289Y-104407371D01*
X101243289Y-104407371D02*
X101268542Y-104483133D01*
X101268542Y-104483133D02*
X101268542Y-104533640D01*
X101268542Y-104533640D02*
X101243289Y-104609402D01*
X101243289Y-104609402D02*
X101117020Y-104735671D01*
X101117020Y-104735671D02*
X101041258Y-104760925D01*
X101041258Y-104760925D02*
X100990751Y-104760925D01*
X100990751Y-104760925D02*
X100914989Y-104735671D01*
X100914989Y-104735671D02*
X100763466Y-104584148D01*
X100763466Y-104584148D02*
X100738212Y-104508386D01*
X100738212Y-104508386D02*
X100738212Y-104457879D01*
X115769316Y-129059338D02*
X115870331Y-129160353D01*
X115870331Y-129160353D02*
X115895585Y-129236114D01*
X115895585Y-129236114D02*
X115895585Y-129337130D01*
X115895585Y-129337130D02*
X115819824Y-129463399D01*
X115819824Y-129463399D02*
X115643047Y-129640175D01*
X115643047Y-129640175D02*
X115516778Y-129715937D01*
X115516778Y-129715937D02*
X115415763Y-129715937D01*
X115415763Y-129715937D02*
X115340001Y-129690683D01*
X115340001Y-129690683D02*
X115238986Y-129589668D01*
X115238986Y-129589668D02*
X115213732Y-129513906D01*
X115213732Y-129513906D02*
X115213732Y-129412891D01*
X115213732Y-129412891D02*
X115289494Y-129286622D01*
X115289494Y-129286622D02*
X115466270Y-129109845D01*
X115466270Y-129109845D02*
X115592540Y-129034084D01*
X115592540Y-129034084D02*
X115693555Y-129034084D01*
X115693555Y-129034084D02*
X115769316Y-129059338D01*
X115693555Y-130044236D02*
X116223885Y-129513906D01*
X115996600Y-130347282D02*
X116072362Y-129816952D01*
X116526930Y-129816952D02*
X115920839Y-129816952D01*
X104711344Y-102561366D02*
X105014390Y-102864411D01*
X104332537Y-103243219D02*
X104862867Y-102712888D01*
X104938629Y-103293726D02*
X105115405Y-103470503D01*
X104913375Y-103824057D02*
X104660837Y-103571518D01*
X104660837Y-103571518D02*
X105191167Y-103041188D01*
X105191167Y-103041188D02*
X105443705Y-103293726D01*
X105140659Y-104051341D02*
X105670989Y-103521011D01*
X105670989Y-103521011D02*
X105468959Y-104076594D01*
X105468959Y-104076594D02*
X106024542Y-103874564D01*
X106024542Y-103874564D02*
X105494212Y-104404894D01*
X105746751Y-104657432D02*
X106277081Y-104127102D01*
X106277081Y-104127102D02*
X106479111Y-104329133D01*
X106479111Y-104329133D02*
X106504365Y-104404894D01*
X106504365Y-104404894D02*
X106504365Y-104455402D01*
X106504365Y-104455402D02*
X106479111Y-104531163D01*
X106479111Y-104531163D02*
X106403350Y-104606925D01*
X106403350Y-104606925D02*
X106327588Y-104632178D01*
X106327588Y-104632178D02*
X106277081Y-104632178D01*
X106277081Y-104632178D02*
X106201319Y-104606925D01*
X106201319Y-104606925D02*
X105999289Y-104404894D01*
X112138656Y-128959338D02*
X112668986Y-128429007D01*
X112668986Y-128429007D02*
X112441702Y-129262383D01*
X112441702Y-129262383D02*
X112972032Y-128732053D01*
X112972032Y-129237129D02*
X113148808Y-129413906D01*
X112946778Y-129767459D02*
X112694240Y-129514921D01*
X112694240Y-129514921D02*
X113224570Y-128984591D01*
X113224570Y-128984591D02*
X113477108Y-129237129D01*
X113653884Y-129413906D02*
X113477108Y-130297789D01*
X114007438Y-129767459D02*
X113123554Y-129944236D01*
X114133707Y-129893728D02*
X114436753Y-130196774D01*
X113754900Y-130575581D02*
X114285230Y-130045251D01*
X95335674Y-103396203D02*
X95310420Y-103320442D01*
X95310420Y-103320442D02*
X95234659Y-103244680D01*
X95234659Y-103244680D02*
X95133644Y-103194173D01*
X95133644Y-103194173D02*
X95032628Y-103194173D01*
X95032628Y-103194173D02*
X94956867Y-103219426D01*
X94956867Y-103219426D02*
X94830598Y-103295188D01*
X94830598Y-103295188D02*
X94754836Y-103370949D01*
X94754836Y-103370949D02*
X94679075Y-103497218D01*
X94679075Y-103497218D02*
X94653821Y-103572980D01*
X94653821Y-103572980D02*
X94653821Y-103673995D01*
X94653821Y-103673995D02*
X94704329Y-103775010D01*
X94704329Y-103775010D02*
X94754836Y-103825518D01*
X94754836Y-103825518D02*
X94855852Y-103876026D01*
X94855852Y-103876026D02*
X94906359Y-103876026D01*
X94906359Y-103876026D02*
X95083136Y-103699249D01*
X95083136Y-103699249D02*
X94982121Y-103598234D01*
X95083136Y-104153818D02*
X95613466Y-103623487D01*
X95613466Y-103623487D02*
X95386182Y-104456863D01*
X95386182Y-104456863D02*
X95916512Y-103926533D01*
X95638720Y-104709401D02*
X96169050Y-104179071D01*
X96169050Y-104179071D02*
X96295319Y-104305340D01*
X96295319Y-104305340D02*
X96345826Y-104406355D01*
X96345826Y-104406355D02*
X96345826Y-104507371D01*
X96345826Y-104507371D02*
X96320573Y-104583132D01*
X96320573Y-104583132D02*
X96244811Y-104709401D01*
X96244811Y-104709401D02*
X96169050Y-104785163D01*
X96169050Y-104785163D02*
X96042781Y-104860924D01*
X96042781Y-104860924D02*
X95967019Y-104886178D01*
X95967019Y-104886178D02*
X95866004Y-104886178D01*
X95866004Y-104886178D02*
X95764989Y-104835670D01*
X95764989Y-104835670D02*
X95638720Y-104709401D01*
X138086359Y-103167457D02*
X137909583Y-102990680D01*
X137631791Y-103268472D02*
X138162121Y-102738142D01*
X138162121Y-102738142D02*
X138414659Y-102990680D01*
X138212628Y-103546264D02*
X138465166Y-103798802D01*
X138010598Y-103647279D02*
X138717705Y-103293726D01*
X138717705Y-103293726D02*
X138364151Y-104000833D01*
X138540928Y-104127102D02*
X138591435Y-104228117D01*
X138591435Y-104228117D02*
X138717704Y-104354386D01*
X138717704Y-104354386D02*
X138793466Y-104379640D01*
X138793466Y-104379640D02*
X138843974Y-104379640D01*
X138843974Y-104379640D02*
X138919735Y-104354386D01*
X138919735Y-104354386D02*
X138970243Y-104303878D01*
X138970243Y-104303878D02*
X138995496Y-104228117D01*
X138995496Y-104228117D02*
X138995496Y-104177609D01*
X138995496Y-104177609D02*
X138970243Y-104101848D01*
X138970243Y-104101848D02*
X138894481Y-103975579D01*
X138894481Y-103975579D02*
X138869227Y-103899817D01*
X138869227Y-103899817D02*
X138869227Y-103849310D01*
X138869227Y-103849310D02*
X138894481Y-103773548D01*
X138894481Y-103773548D02*
X138944989Y-103723041D01*
X138944989Y-103723041D02*
X139020750Y-103697787D01*
X139020750Y-103697787D02*
X139071258Y-103697787D01*
X139071258Y-103697787D02*
X139147019Y-103723041D01*
X139147019Y-103723041D02*
X139273288Y-103849310D01*
X139273288Y-103849310D02*
X139323796Y-103950325D01*
X139500573Y-104076594D02*
X139803619Y-104379640D01*
X139121766Y-104758447D02*
X139652096Y-104228117D01*
%TO.C,J4*%
X170230000Y-79146964D02*
X170230000Y-79682678D01*
X170230000Y-79682678D02*
X170194285Y-79789821D01*
X170194285Y-79789821D02*
X170122857Y-79861250D01*
X170122857Y-79861250D02*
X170015714Y-79896964D01*
X170015714Y-79896964D02*
X169944285Y-79896964D01*
X170908572Y-79396964D02*
X170908572Y-79896964D01*
X170730000Y-79111250D02*
X170551429Y-79646964D01*
X170551429Y-79646964D02*
X171015714Y-79646964D01*
X171440000Y-82846964D02*
X171440000Y-83382678D01*
X171440000Y-83382678D02*
X171404285Y-83489821D01*
X171404285Y-83489821D02*
X171332857Y-83561250D01*
X171332857Y-83561250D02*
X171225714Y-83596964D01*
X171225714Y-83596964D02*
X171154285Y-83596964D01*
X172118572Y-83096964D02*
X172118572Y-83596964D01*
X171940000Y-82811250D02*
X171761429Y-83346964D01*
X171761429Y-83346964D02*
X172225714Y-83346964D01*
%TO.C,SW2*%
X174500000Y-118061250D02*
X174607143Y-118096964D01*
X174607143Y-118096964D02*
X174785714Y-118096964D01*
X174785714Y-118096964D02*
X174857143Y-118061250D01*
X174857143Y-118061250D02*
X174892857Y-118025535D01*
X174892857Y-118025535D02*
X174928571Y-117954107D01*
X174928571Y-117954107D02*
X174928571Y-117882678D01*
X174928571Y-117882678D02*
X174892857Y-117811250D01*
X174892857Y-117811250D02*
X174857143Y-117775535D01*
X174857143Y-117775535D02*
X174785714Y-117739821D01*
X174785714Y-117739821D02*
X174642857Y-117704107D01*
X174642857Y-117704107D02*
X174571428Y-117668392D01*
X174571428Y-117668392D02*
X174535714Y-117632678D01*
X174535714Y-117632678D02*
X174500000Y-117561250D01*
X174500000Y-117561250D02*
X174500000Y-117489821D01*
X174500000Y-117489821D02*
X174535714Y-117418392D01*
X174535714Y-117418392D02*
X174571428Y-117382678D01*
X174571428Y-117382678D02*
X174642857Y-117346964D01*
X174642857Y-117346964D02*
X174821428Y-117346964D01*
X174821428Y-117346964D02*
X174928571Y-117382678D01*
X175178571Y-117346964D02*
X175357143Y-118096964D01*
X175357143Y-118096964D02*
X175500000Y-117561250D01*
X175500000Y-117561250D02*
X175642857Y-118096964D01*
X175642857Y-118096964D02*
X175821429Y-117346964D01*
X176071429Y-117418392D02*
X176107143Y-117382678D01*
X176107143Y-117382678D02*
X176178572Y-117346964D01*
X176178572Y-117346964D02*
X176357143Y-117346964D01*
X176357143Y-117346964D02*
X176428572Y-117382678D01*
X176428572Y-117382678D02*
X176464286Y-117418392D01*
X176464286Y-117418392D02*
X176500000Y-117489821D01*
X176500000Y-117489821D02*
X176500000Y-117561250D01*
X176500000Y-117561250D02*
X176464286Y-117668392D01*
X176464286Y-117668392D02*
X176035714Y-118096964D01*
X176035714Y-118096964D02*
X176500000Y-118096964D01*
%TO.C,C6*%
X153367380Y-88366666D02*
X153415000Y-88414285D01*
X153415000Y-88414285D02*
X153462619Y-88557142D01*
X153462619Y-88557142D02*
X153462619Y-88652380D01*
X153462619Y-88652380D02*
X153415000Y-88795237D01*
X153415000Y-88795237D02*
X153319761Y-88890475D01*
X153319761Y-88890475D02*
X153224523Y-88938094D01*
X153224523Y-88938094D02*
X153034047Y-88985713D01*
X153034047Y-88985713D02*
X152891190Y-88985713D01*
X152891190Y-88985713D02*
X152700714Y-88938094D01*
X152700714Y-88938094D02*
X152605476Y-88890475D01*
X152605476Y-88890475D02*
X152510238Y-88795237D01*
X152510238Y-88795237D02*
X152462619Y-88652380D01*
X152462619Y-88652380D02*
X152462619Y-88557142D01*
X152462619Y-88557142D02*
X152510238Y-88414285D01*
X152510238Y-88414285D02*
X152557857Y-88366666D01*
X152462619Y-87509523D02*
X152462619Y-87699999D01*
X152462619Y-87699999D02*
X152510238Y-87795237D01*
X152510238Y-87795237D02*
X152557857Y-87842856D01*
X152557857Y-87842856D02*
X152700714Y-87938094D01*
X152700714Y-87938094D02*
X152891190Y-87985713D01*
X152891190Y-87985713D02*
X153272142Y-87985713D01*
X153272142Y-87985713D02*
X153367380Y-87938094D01*
X153367380Y-87938094D02*
X153415000Y-87890475D01*
X153415000Y-87890475D02*
X153462619Y-87795237D01*
X153462619Y-87795237D02*
X153462619Y-87604761D01*
X153462619Y-87604761D02*
X153415000Y-87509523D01*
X153415000Y-87509523D02*
X153367380Y-87461904D01*
X153367380Y-87461904D02*
X153272142Y-87414285D01*
X153272142Y-87414285D02*
X153034047Y-87414285D01*
X153034047Y-87414285D02*
X152938809Y-87461904D01*
X152938809Y-87461904D02*
X152891190Y-87509523D01*
X152891190Y-87509523D02*
X152843571Y-87604761D01*
X152843571Y-87604761D02*
X152843571Y-87795237D01*
X152843571Y-87795237D02*
X152891190Y-87890475D01*
X152891190Y-87890475D02*
X152938809Y-87938094D01*
X152938809Y-87938094D02*
X153034047Y-87985713D01*
%TO.C,R8*%
X110374999Y-76946964D02*
X110124999Y-76589821D01*
X109946428Y-76946964D02*
X109946428Y-76196964D01*
X109946428Y-76196964D02*
X110232142Y-76196964D01*
X110232142Y-76196964D02*
X110303571Y-76232678D01*
X110303571Y-76232678D02*
X110339285Y-76268392D01*
X110339285Y-76268392D02*
X110374999Y-76339821D01*
X110374999Y-76339821D02*
X110374999Y-76446964D01*
X110374999Y-76446964D02*
X110339285Y-76518392D01*
X110339285Y-76518392D02*
X110303571Y-76554107D01*
X110303571Y-76554107D02*
X110232142Y-76589821D01*
X110232142Y-76589821D02*
X109946428Y-76589821D01*
X110803571Y-76518392D02*
X110732142Y-76482678D01*
X110732142Y-76482678D02*
X110696428Y-76446964D01*
X110696428Y-76446964D02*
X110660714Y-76375535D01*
X110660714Y-76375535D02*
X110660714Y-76339821D01*
X110660714Y-76339821D02*
X110696428Y-76268392D01*
X110696428Y-76268392D02*
X110732142Y-76232678D01*
X110732142Y-76232678D02*
X110803571Y-76196964D01*
X110803571Y-76196964D02*
X110946428Y-76196964D01*
X110946428Y-76196964D02*
X111017857Y-76232678D01*
X111017857Y-76232678D02*
X111053571Y-76268392D01*
X111053571Y-76268392D02*
X111089285Y-76339821D01*
X111089285Y-76339821D02*
X111089285Y-76375535D01*
X111089285Y-76375535D02*
X111053571Y-76446964D01*
X111053571Y-76446964D02*
X111017857Y-76482678D01*
X111017857Y-76482678D02*
X110946428Y-76518392D01*
X110946428Y-76518392D02*
X110803571Y-76518392D01*
X110803571Y-76518392D02*
X110732142Y-76554107D01*
X110732142Y-76554107D02*
X110696428Y-76589821D01*
X110696428Y-76589821D02*
X110660714Y-76661250D01*
X110660714Y-76661250D02*
X110660714Y-76804107D01*
X110660714Y-76804107D02*
X110696428Y-76875535D01*
X110696428Y-76875535D02*
X110732142Y-76911250D01*
X110732142Y-76911250D02*
X110803571Y-76946964D01*
X110803571Y-76946964D02*
X110946428Y-76946964D01*
X110946428Y-76946964D02*
X111017857Y-76911250D01*
X111017857Y-76911250D02*
X111053571Y-76875535D01*
X111053571Y-76875535D02*
X111089285Y-76804107D01*
X111089285Y-76804107D02*
X111089285Y-76661250D01*
X111089285Y-76661250D02*
X111053571Y-76589821D01*
X111053571Y-76589821D02*
X111017857Y-76554107D01*
X111017857Y-76554107D02*
X110946428Y-76518392D01*
%TO.C,R24*%
X180307856Y-61826964D02*
X180057856Y-61469821D01*
X179879285Y-61826964D02*
X179879285Y-61076964D01*
X179879285Y-61076964D02*
X180164999Y-61076964D01*
X180164999Y-61076964D02*
X180236428Y-61112678D01*
X180236428Y-61112678D02*
X180272142Y-61148392D01*
X180272142Y-61148392D02*
X180307856Y-61219821D01*
X180307856Y-61219821D02*
X180307856Y-61326964D01*
X180307856Y-61326964D02*
X180272142Y-61398392D01*
X180272142Y-61398392D02*
X180236428Y-61434107D01*
X180236428Y-61434107D02*
X180164999Y-61469821D01*
X180164999Y-61469821D02*
X179879285Y-61469821D01*
X180593571Y-61148392D02*
X180629285Y-61112678D01*
X180629285Y-61112678D02*
X180700714Y-61076964D01*
X180700714Y-61076964D02*
X180879285Y-61076964D01*
X180879285Y-61076964D02*
X180950714Y-61112678D01*
X180950714Y-61112678D02*
X180986428Y-61148392D01*
X180986428Y-61148392D02*
X181022142Y-61219821D01*
X181022142Y-61219821D02*
X181022142Y-61291250D01*
X181022142Y-61291250D02*
X180986428Y-61398392D01*
X180986428Y-61398392D02*
X180557856Y-61826964D01*
X180557856Y-61826964D02*
X181022142Y-61826964D01*
X181665000Y-61326964D02*
X181665000Y-61826964D01*
X181486428Y-61041250D02*
X181307857Y-61576964D01*
X181307857Y-61576964D02*
X181772142Y-61576964D01*
%TO.C,R16*%
X132146964Y-79282143D02*
X131789821Y-79532143D01*
X132146964Y-79710714D02*
X131396964Y-79710714D01*
X131396964Y-79710714D02*
X131396964Y-79425000D01*
X131396964Y-79425000D02*
X131432678Y-79353571D01*
X131432678Y-79353571D02*
X131468392Y-79317857D01*
X131468392Y-79317857D02*
X131539821Y-79282143D01*
X131539821Y-79282143D02*
X131646964Y-79282143D01*
X131646964Y-79282143D02*
X131718392Y-79317857D01*
X131718392Y-79317857D02*
X131754107Y-79353571D01*
X131754107Y-79353571D02*
X131789821Y-79425000D01*
X131789821Y-79425000D02*
X131789821Y-79710714D01*
X132146964Y-78567857D02*
X132146964Y-78996428D01*
X132146964Y-78782143D02*
X131396964Y-78782143D01*
X131396964Y-78782143D02*
X131504107Y-78853571D01*
X131504107Y-78853571D02*
X131575535Y-78925000D01*
X131575535Y-78925000D02*
X131611250Y-78996428D01*
X131396964Y-77925000D02*
X131396964Y-78067857D01*
X131396964Y-78067857D02*
X131432678Y-78139285D01*
X131432678Y-78139285D02*
X131468392Y-78175000D01*
X131468392Y-78175000D02*
X131575535Y-78246428D01*
X131575535Y-78246428D02*
X131718392Y-78282142D01*
X131718392Y-78282142D02*
X132004107Y-78282142D01*
X132004107Y-78282142D02*
X132075535Y-78246428D01*
X132075535Y-78246428D02*
X132111250Y-78210714D01*
X132111250Y-78210714D02*
X132146964Y-78139285D01*
X132146964Y-78139285D02*
X132146964Y-77996428D01*
X132146964Y-77996428D02*
X132111250Y-77925000D01*
X132111250Y-77925000D02*
X132075535Y-77889285D01*
X132075535Y-77889285D02*
X132004107Y-77853571D01*
X132004107Y-77853571D02*
X131825535Y-77853571D01*
X131825535Y-77853571D02*
X131754107Y-77889285D01*
X131754107Y-77889285D02*
X131718392Y-77925000D01*
X131718392Y-77925000D02*
X131682678Y-77996428D01*
X131682678Y-77996428D02*
X131682678Y-78139285D01*
X131682678Y-78139285D02*
X131718392Y-78210714D01*
X131718392Y-78210714D02*
X131754107Y-78246428D01*
X131754107Y-78246428D02*
X131825535Y-78282142D01*
%TO.C,R17*%
X128267856Y-78946964D02*
X128017856Y-78589821D01*
X127839285Y-78946964D02*
X127839285Y-78196964D01*
X127839285Y-78196964D02*
X128124999Y-78196964D01*
X128124999Y-78196964D02*
X128196428Y-78232678D01*
X128196428Y-78232678D02*
X128232142Y-78268392D01*
X128232142Y-78268392D02*
X128267856Y-78339821D01*
X128267856Y-78339821D02*
X128267856Y-78446964D01*
X128267856Y-78446964D02*
X128232142Y-78518392D01*
X128232142Y-78518392D02*
X128196428Y-78554107D01*
X128196428Y-78554107D02*
X128124999Y-78589821D01*
X128124999Y-78589821D02*
X127839285Y-78589821D01*
X128982142Y-78946964D02*
X128553571Y-78946964D01*
X128767856Y-78946964D02*
X128767856Y-78196964D01*
X128767856Y-78196964D02*
X128696428Y-78304107D01*
X128696428Y-78304107D02*
X128624999Y-78375535D01*
X128624999Y-78375535D02*
X128553571Y-78411250D01*
X129232142Y-78196964D02*
X129732142Y-78196964D01*
X129732142Y-78196964D02*
X129410714Y-78946964D01*
%TO.C,R14*%
X129946964Y-90282143D02*
X129589821Y-90532143D01*
X129946964Y-90710714D02*
X129196964Y-90710714D01*
X129196964Y-90710714D02*
X129196964Y-90425000D01*
X129196964Y-90425000D02*
X129232678Y-90353571D01*
X129232678Y-90353571D02*
X129268392Y-90317857D01*
X129268392Y-90317857D02*
X129339821Y-90282143D01*
X129339821Y-90282143D02*
X129446964Y-90282143D01*
X129446964Y-90282143D02*
X129518392Y-90317857D01*
X129518392Y-90317857D02*
X129554107Y-90353571D01*
X129554107Y-90353571D02*
X129589821Y-90425000D01*
X129589821Y-90425000D02*
X129589821Y-90710714D01*
X129946964Y-89567857D02*
X129946964Y-89996428D01*
X129946964Y-89782143D02*
X129196964Y-89782143D01*
X129196964Y-89782143D02*
X129304107Y-89853571D01*
X129304107Y-89853571D02*
X129375535Y-89925000D01*
X129375535Y-89925000D02*
X129411250Y-89996428D01*
X129446964Y-88925000D02*
X129946964Y-88925000D01*
X129161250Y-89103571D02*
X129696964Y-89282142D01*
X129696964Y-89282142D02*
X129696964Y-88817857D01*
%TO.C,R21*%
X95267856Y-81096964D02*
X95017856Y-80739821D01*
X94839285Y-81096964D02*
X94839285Y-80346964D01*
X94839285Y-80346964D02*
X95124999Y-80346964D01*
X95124999Y-80346964D02*
X95196428Y-80382678D01*
X95196428Y-80382678D02*
X95232142Y-80418392D01*
X95232142Y-80418392D02*
X95267856Y-80489821D01*
X95267856Y-80489821D02*
X95267856Y-80596964D01*
X95267856Y-80596964D02*
X95232142Y-80668392D01*
X95232142Y-80668392D02*
X95196428Y-80704107D01*
X95196428Y-80704107D02*
X95124999Y-80739821D01*
X95124999Y-80739821D02*
X94839285Y-80739821D01*
X95553571Y-80418392D02*
X95589285Y-80382678D01*
X95589285Y-80382678D02*
X95660714Y-80346964D01*
X95660714Y-80346964D02*
X95839285Y-80346964D01*
X95839285Y-80346964D02*
X95910714Y-80382678D01*
X95910714Y-80382678D02*
X95946428Y-80418392D01*
X95946428Y-80418392D02*
X95982142Y-80489821D01*
X95982142Y-80489821D02*
X95982142Y-80561250D01*
X95982142Y-80561250D02*
X95946428Y-80668392D01*
X95946428Y-80668392D02*
X95517856Y-81096964D01*
X95517856Y-81096964D02*
X95982142Y-81096964D01*
X96696428Y-81096964D02*
X96267857Y-81096964D01*
X96482142Y-81096964D02*
X96482142Y-80346964D01*
X96482142Y-80346964D02*
X96410714Y-80454107D01*
X96410714Y-80454107D02*
X96339285Y-80525535D01*
X96339285Y-80525535D02*
X96267857Y-80561250D01*
%TO.C,U1*%
X148362619Y-92411904D02*
X149172142Y-92411904D01*
X149172142Y-92411904D02*
X149267380Y-92364285D01*
X149267380Y-92364285D02*
X149315000Y-92316666D01*
X149315000Y-92316666D02*
X149362619Y-92221428D01*
X149362619Y-92221428D02*
X149362619Y-92030952D01*
X149362619Y-92030952D02*
X149315000Y-91935714D01*
X149315000Y-91935714D02*
X149267380Y-91888095D01*
X149267380Y-91888095D02*
X149172142Y-91840476D01*
X149172142Y-91840476D02*
X148362619Y-91840476D01*
X149362619Y-90840476D02*
X149362619Y-91411904D01*
X149362619Y-91126190D02*
X148362619Y-91126190D01*
X148362619Y-91126190D02*
X148505476Y-91221428D01*
X148505476Y-91221428D02*
X148600714Y-91316666D01*
X148600714Y-91316666D02*
X148648333Y-91411904D01*
%TO.C,R2*%
X101746964Y-93525000D02*
X101389821Y-93775000D01*
X101746964Y-93953571D02*
X100996964Y-93953571D01*
X100996964Y-93953571D02*
X100996964Y-93667857D01*
X100996964Y-93667857D02*
X101032678Y-93596428D01*
X101032678Y-93596428D02*
X101068392Y-93560714D01*
X101068392Y-93560714D02*
X101139821Y-93525000D01*
X101139821Y-93525000D02*
X101246964Y-93525000D01*
X101246964Y-93525000D02*
X101318392Y-93560714D01*
X101318392Y-93560714D02*
X101354107Y-93596428D01*
X101354107Y-93596428D02*
X101389821Y-93667857D01*
X101389821Y-93667857D02*
X101389821Y-93953571D01*
X101068392Y-93239285D02*
X101032678Y-93203571D01*
X101032678Y-93203571D02*
X100996964Y-93132143D01*
X100996964Y-93132143D02*
X100996964Y-92953571D01*
X100996964Y-92953571D02*
X101032678Y-92882143D01*
X101032678Y-92882143D02*
X101068392Y-92846428D01*
X101068392Y-92846428D02*
X101139821Y-92810714D01*
X101139821Y-92810714D02*
X101211250Y-92810714D01*
X101211250Y-92810714D02*
X101318392Y-92846428D01*
X101318392Y-92846428D02*
X101746964Y-93275000D01*
X101746964Y-93275000D02*
X101746964Y-92810714D01*
%TO.C,R15*%
X125446964Y-90232143D02*
X125089821Y-90482143D01*
X125446964Y-90660714D02*
X124696964Y-90660714D01*
X124696964Y-90660714D02*
X124696964Y-90375000D01*
X124696964Y-90375000D02*
X124732678Y-90303571D01*
X124732678Y-90303571D02*
X124768392Y-90267857D01*
X124768392Y-90267857D02*
X124839821Y-90232143D01*
X124839821Y-90232143D02*
X124946964Y-90232143D01*
X124946964Y-90232143D02*
X125018392Y-90267857D01*
X125018392Y-90267857D02*
X125054107Y-90303571D01*
X125054107Y-90303571D02*
X125089821Y-90375000D01*
X125089821Y-90375000D02*
X125089821Y-90660714D01*
X125446964Y-89517857D02*
X125446964Y-89946428D01*
X125446964Y-89732143D02*
X124696964Y-89732143D01*
X124696964Y-89732143D02*
X124804107Y-89803571D01*
X124804107Y-89803571D02*
X124875535Y-89875000D01*
X124875535Y-89875000D02*
X124911250Y-89946428D01*
X124696964Y-88839285D02*
X124696964Y-89196428D01*
X124696964Y-89196428D02*
X125054107Y-89232142D01*
X125054107Y-89232142D02*
X125018392Y-89196428D01*
X125018392Y-89196428D02*
X124982678Y-89125000D01*
X124982678Y-89125000D02*
X124982678Y-88946428D01*
X124982678Y-88946428D02*
X125018392Y-88875000D01*
X125018392Y-88875000D02*
X125054107Y-88839285D01*
X125054107Y-88839285D02*
X125125535Y-88803571D01*
X125125535Y-88803571D02*
X125304107Y-88803571D01*
X125304107Y-88803571D02*
X125375535Y-88839285D01*
X125375535Y-88839285D02*
X125411250Y-88875000D01*
X125411250Y-88875000D02*
X125446964Y-88946428D01*
X125446964Y-88946428D02*
X125446964Y-89125000D01*
X125446964Y-89125000D02*
X125411250Y-89196428D01*
X125411250Y-89196428D02*
X125375535Y-89232142D01*
%TO.C,F1*%
X197438809Y-88983333D02*
X197438809Y-89316666D01*
X197962619Y-89316666D02*
X196962619Y-89316666D01*
X196962619Y-89316666D02*
X196962619Y-88840476D01*
X197962619Y-87935714D02*
X197962619Y-88507142D01*
X197962619Y-88221428D02*
X196962619Y-88221428D01*
X196962619Y-88221428D02*
X197105476Y-88316666D01*
X197105476Y-88316666D02*
X197200714Y-88411904D01*
X197200714Y-88411904D02*
X197248333Y-88507142D01*
%TO.C,R26*%
X169957142Y-121062619D02*
X169623809Y-120586428D01*
X169385714Y-121062619D02*
X169385714Y-120062619D01*
X169385714Y-120062619D02*
X169766666Y-120062619D01*
X169766666Y-120062619D02*
X169861904Y-120110238D01*
X169861904Y-120110238D02*
X169909523Y-120157857D01*
X169909523Y-120157857D02*
X169957142Y-120253095D01*
X169957142Y-120253095D02*
X169957142Y-120395952D01*
X169957142Y-120395952D02*
X169909523Y-120491190D01*
X169909523Y-120491190D02*
X169861904Y-120538809D01*
X169861904Y-120538809D02*
X169766666Y-120586428D01*
X169766666Y-120586428D02*
X169385714Y-120586428D01*
X170338095Y-120157857D02*
X170385714Y-120110238D01*
X170385714Y-120110238D02*
X170480952Y-120062619D01*
X170480952Y-120062619D02*
X170719047Y-120062619D01*
X170719047Y-120062619D02*
X170814285Y-120110238D01*
X170814285Y-120110238D02*
X170861904Y-120157857D01*
X170861904Y-120157857D02*
X170909523Y-120253095D01*
X170909523Y-120253095D02*
X170909523Y-120348333D01*
X170909523Y-120348333D02*
X170861904Y-120491190D01*
X170861904Y-120491190D02*
X170290476Y-121062619D01*
X170290476Y-121062619D02*
X170909523Y-121062619D01*
X171766666Y-120062619D02*
X171576190Y-120062619D01*
X171576190Y-120062619D02*
X171480952Y-120110238D01*
X171480952Y-120110238D02*
X171433333Y-120157857D01*
X171433333Y-120157857D02*
X171338095Y-120300714D01*
X171338095Y-120300714D02*
X171290476Y-120491190D01*
X171290476Y-120491190D02*
X171290476Y-120872142D01*
X171290476Y-120872142D02*
X171338095Y-120967380D01*
X171338095Y-120967380D02*
X171385714Y-121015000D01*
X171385714Y-121015000D02*
X171480952Y-121062619D01*
X171480952Y-121062619D02*
X171671428Y-121062619D01*
X171671428Y-121062619D02*
X171766666Y-121015000D01*
X171766666Y-121015000D02*
X171814285Y-120967380D01*
X171814285Y-120967380D02*
X171861904Y-120872142D01*
X171861904Y-120872142D02*
X171861904Y-120634047D01*
X171861904Y-120634047D02*
X171814285Y-120538809D01*
X171814285Y-120538809D02*
X171766666Y-120491190D01*
X171766666Y-120491190D02*
X171671428Y-120443571D01*
X171671428Y-120443571D02*
X171480952Y-120443571D01*
X171480952Y-120443571D02*
X171385714Y-120491190D01*
X171385714Y-120491190D02*
X171338095Y-120538809D01*
X171338095Y-120538809D02*
X171290476Y-120634047D01*
%TO.C,R1*%
X106674999Y-96946964D02*
X106424999Y-96589821D01*
X106246428Y-96946964D02*
X106246428Y-96196964D01*
X106246428Y-96196964D02*
X106532142Y-96196964D01*
X106532142Y-96196964D02*
X106603571Y-96232678D01*
X106603571Y-96232678D02*
X106639285Y-96268392D01*
X106639285Y-96268392D02*
X106674999Y-96339821D01*
X106674999Y-96339821D02*
X106674999Y-96446964D01*
X106674999Y-96446964D02*
X106639285Y-96518392D01*
X106639285Y-96518392D02*
X106603571Y-96554107D01*
X106603571Y-96554107D02*
X106532142Y-96589821D01*
X106532142Y-96589821D02*
X106246428Y-96589821D01*
X107389285Y-96946964D02*
X106960714Y-96946964D01*
X107174999Y-96946964D02*
X107174999Y-96196964D01*
X107174999Y-96196964D02*
X107103571Y-96304107D01*
X107103571Y-96304107D02*
X107032142Y-96375535D01*
X107032142Y-96375535D02*
X106960714Y-96411250D01*
%TO.C,J7*%
X92666666Y-69022619D02*
X92666666Y-69736904D01*
X92666666Y-69736904D02*
X92619047Y-69879761D01*
X92619047Y-69879761D02*
X92523809Y-69975000D01*
X92523809Y-69975000D02*
X92380952Y-70022619D01*
X92380952Y-70022619D02*
X92285714Y-70022619D01*
X93047619Y-69022619D02*
X93714285Y-69022619D01*
X93714285Y-69022619D02*
X93285714Y-70022619D01*
%TO.C,Q11*%
X165361428Y-61898392D02*
X165289999Y-61862678D01*
X165289999Y-61862678D02*
X165218571Y-61791250D01*
X165218571Y-61791250D02*
X165111428Y-61684107D01*
X165111428Y-61684107D02*
X165039999Y-61648392D01*
X165039999Y-61648392D02*
X164968571Y-61648392D01*
X165004285Y-61826964D02*
X164932857Y-61791250D01*
X164932857Y-61791250D02*
X164861428Y-61719821D01*
X164861428Y-61719821D02*
X164825714Y-61576964D01*
X164825714Y-61576964D02*
X164825714Y-61326964D01*
X164825714Y-61326964D02*
X164861428Y-61184107D01*
X164861428Y-61184107D02*
X164932857Y-61112678D01*
X164932857Y-61112678D02*
X165004285Y-61076964D01*
X165004285Y-61076964D02*
X165147142Y-61076964D01*
X165147142Y-61076964D02*
X165218571Y-61112678D01*
X165218571Y-61112678D02*
X165289999Y-61184107D01*
X165289999Y-61184107D02*
X165325714Y-61326964D01*
X165325714Y-61326964D02*
X165325714Y-61576964D01*
X165325714Y-61576964D02*
X165289999Y-61719821D01*
X165289999Y-61719821D02*
X165218571Y-61791250D01*
X165218571Y-61791250D02*
X165147142Y-61826964D01*
X165147142Y-61826964D02*
X165004285Y-61826964D01*
X166039999Y-61826964D02*
X165611428Y-61826964D01*
X165825713Y-61826964D02*
X165825713Y-61076964D01*
X165825713Y-61076964D02*
X165754285Y-61184107D01*
X165754285Y-61184107D02*
X165682856Y-61255535D01*
X165682856Y-61255535D02*
X165611428Y-61291250D01*
X166754285Y-61826964D02*
X166325714Y-61826964D01*
X166539999Y-61826964D02*
X166539999Y-61076964D01*
X166539999Y-61076964D02*
X166468571Y-61184107D01*
X166468571Y-61184107D02*
X166397142Y-61255535D01*
X166397142Y-61255535D02*
X166325714Y-61291250D01*
%TO.C,R19*%
X134446964Y-90232143D02*
X134089821Y-90482143D01*
X134446964Y-90660714D02*
X133696964Y-90660714D01*
X133696964Y-90660714D02*
X133696964Y-90375000D01*
X133696964Y-90375000D02*
X133732678Y-90303571D01*
X133732678Y-90303571D02*
X133768392Y-90267857D01*
X133768392Y-90267857D02*
X133839821Y-90232143D01*
X133839821Y-90232143D02*
X133946964Y-90232143D01*
X133946964Y-90232143D02*
X134018392Y-90267857D01*
X134018392Y-90267857D02*
X134054107Y-90303571D01*
X134054107Y-90303571D02*
X134089821Y-90375000D01*
X134089821Y-90375000D02*
X134089821Y-90660714D01*
X134446964Y-89517857D02*
X134446964Y-89946428D01*
X134446964Y-89732143D02*
X133696964Y-89732143D01*
X133696964Y-89732143D02*
X133804107Y-89803571D01*
X133804107Y-89803571D02*
X133875535Y-89875000D01*
X133875535Y-89875000D02*
X133911250Y-89946428D01*
X134446964Y-89160714D02*
X134446964Y-89017857D01*
X134446964Y-89017857D02*
X134411250Y-88946428D01*
X134411250Y-88946428D02*
X134375535Y-88910714D01*
X134375535Y-88910714D02*
X134268392Y-88839285D01*
X134268392Y-88839285D02*
X134125535Y-88803571D01*
X134125535Y-88803571D02*
X133839821Y-88803571D01*
X133839821Y-88803571D02*
X133768392Y-88839285D01*
X133768392Y-88839285D02*
X133732678Y-88875000D01*
X133732678Y-88875000D02*
X133696964Y-88946428D01*
X133696964Y-88946428D02*
X133696964Y-89089285D01*
X133696964Y-89089285D02*
X133732678Y-89160714D01*
X133732678Y-89160714D02*
X133768392Y-89196428D01*
X133768392Y-89196428D02*
X133839821Y-89232142D01*
X133839821Y-89232142D02*
X134018392Y-89232142D01*
X134018392Y-89232142D02*
X134089821Y-89196428D01*
X134089821Y-89196428D02*
X134125535Y-89160714D01*
X134125535Y-89160714D02*
X134161250Y-89089285D01*
X134161250Y-89089285D02*
X134161250Y-88946428D01*
X134161250Y-88946428D02*
X134125535Y-88875000D01*
X134125535Y-88875000D02*
X134089821Y-88839285D01*
X134089821Y-88839285D02*
X134018392Y-88803571D01*
%TO.C,R3*%
X101749999Y-96696964D02*
X101499999Y-96339821D01*
X101321428Y-96696964D02*
X101321428Y-95946964D01*
X101321428Y-95946964D02*
X101607142Y-95946964D01*
X101607142Y-95946964D02*
X101678571Y-95982678D01*
X101678571Y-95982678D02*
X101714285Y-96018392D01*
X101714285Y-96018392D02*
X101749999Y-96089821D01*
X101749999Y-96089821D02*
X101749999Y-96196964D01*
X101749999Y-96196964D02*
X101714285Y-96268392D01*
X101714285Y-96268392D02*
X101678571Y-96304107D01*
X101678571Y-96304107D02*
X101607142Y-96339821D01*
X101607142Y-96339821D02*
X101321428Y-96339821D01*
X101999999Y-95946964D02*
X102464285Y-95946964D01*
X102464285Y-95946964D02*
X102214285Y-96232678D01*
X102214285Y-96232678D02*
X102321428Y-96232678D01*
X102321428Y-96232678D02*
X102392857Y-96268392D01*
X102392857Y-96268392D02*
X102428571Y-96304107D01*
X102428571Y-96304107D02*
X102464285Y-96375535D01*
X102464285Y-96375535D02*
X102464285Y-96554107D01*
X102464285Y-96554107D02*
X102428571Y-96625535D01*
X102428571Y-96625535D02*
X102392857Y-96661250D01*
X102392857Y-96661250D02*
X102321428Y-96696964D01*
X102321428Y-96696964D02*
X102107142Y-96696964D01*
X102107142Y-96696964D02*
X102035714Y-96661250D01*
X102035714Y-96661250D02*
X101999999Y-96625535D01*
%TO.C,J1*%
X207296964Y-124249999D02*
X207832678Y-124249999D01*
X207832678Y-124249999D02*
X207939821Y-124285714D01*
X207939821Y-124285714D02*
X208011250Y-124357142D01*
X208011250Y-124357142D02*
X208046964Y-124464285D01*
X208046964Y-124464285D02*
X208046964Y-124535714D01*
X208046964Y-123499999D02*
X208046964Y-123928570D01*
X208046964Y-123714285D02*
X207296964Y-123714285D01*
X207296964Y-123714285D02*
X207404107Y-123785713D01*
X207404107Y-123785713D02*
X207475535Y-123857142D01*
X207475535Y-123857142D02*
X207511250Y-123928570D01*
X196196964Y-120399999D02*
X196732678Y-120399999D01*
X196732678Y-120399999D02*
X196839821Y-120435714D01*
X196839821Y-120435714D02*
X196911250Y-120507142D01*
X196911250Y-120507142D02*
X196946964Y-120614285D01*
X196946964Y-120614285D02*
X196946964Y-120685714D01*
X196946964Y-119649999D02*
X196946964Y-120078570D01*
X196946964Y-119864285D02*
X196196964Y-119864285D01*
X196196964Y-119864285D02*
X196304107Y-119935713D01*
X196304107Y-119935713D02*
X196375535Y-120007142D01*
X196375535Y-120007142D02*
X196411250Y-120078570D01*
X190561250Y-126335713D02*
X190561250Y-125764285D01*
X190846964Y-126049999D02*
X190275535Y-126049999D01*
%TO.C,D1*%
X146546428Y-78846964D02*
X146546428Y-78096964D01*
X146546428Y-78096964D02*
X146724999Y-78096964D01*
X146724999Y-78096964D02*
X146832142Y-78132678D01*
X146832142Y-78132678D02*
X146903571Y-78204107D01*
X146903571Y-78204107D02*
X146939285Y-78275535D01*
X146939285Y-78275535D02*
X146974999Y-78418392D01*
X146974999Y-78418392D02*
X146974999Y-78525535D01*
X146974999Y-78525535D02*
X146939285Y-78668392D01*
X146939285Y-78668392D02*
X146903571Y-78739821D01*
X146903571Y-78739821D02*
X146832142Y-78811250D01*
X146832142Y-78811250D02*
X146724999Y-78846964D01*
X146724999Y-78846964D02*
X146546428Y-78846964D01*
X147689285Y-78846964D02*
X147260714Y-78846964D01*
X147474999Y-78846964D02*
X147474999Y-78096964D01*
X147474999Y-78096964D02*
X147403571Y-78204107D01*
X147403571Y-78204107D02*
X147332142Y-78275535D01*
X147332142Y-78275535D02*
X147260714Y-78311250D01*
%TO.C,R22*%
X120307856Y-61826964D02*
X120057856Y-61469821D01*
X119879285Y-61826964D02*
X119879285Y-61076964D01*
X119879285Y-61076964D02*
X120164999Y-61076964D01*
X120164999Y-61076964D02*
X120236428Y-61112678D01*
X120236428Y-61112678D02*
X120272142Y-61148392D01*
X120272142Y-61148392D02*
X120307856Y-61219821D01*
X120307856Y-61219821D02*
X120307856Y-61326964D01*
X120307856Y-61326964D02*
X120272142Y-61398392D01*
X120272142Y-61398392D02*
X120236428Y-61434107D01*
X120236428Y-61434107D02*
X120164999Y-61469821D01*
X120164999Y-61469821D02*
X119879285Y-61469821D01*
X120593571Y-61148392D02*
X120629285Y-61112678D01*
X120629285Y-61112678D02*
X120700714Y-61076964D01*
X120700714Y-61076964D02*
X120879285Y-61076964D01*
X120879285Y-61076964D02*
X120950714Y-61112678D01*
X120950714Y-61112678D02*
X120986428Y-61148392D01*
X120986428Y-61148392D02*
X121022142Y-61219821D01*
X121022142Y-61219821D02*
X121022142Y-61291250D01*
X121022142Y-61291250D02*
X120986428Y-61398392D01*
X120986428Y-61398392D02*
X120557856Y-61826964D01*
X120557856Y-61826964D02*
X121022142Y-61826964D01*
X121307857Y-61148392D02*
X121343571Y-61112678D01*
X121343571Y-61112678D02*
X121415000Y-61076964D01*
X121415000Y-61076964D02*
X121593571Y-61076964D01*
X121593571Y-61076964D02*
X121665000Y-61112678D01*
X121665000Y-61112678D02*
X121700714Y-61148392D01*
X121700714Y-61148392D02*
X121736428Y-61219821D01*
X121736428Y-61219821D02*
X121736428Y-61291250D01*
X121736428Y-61291250D02*
X121700714Y-61398392D01*
X121700714Y-61398392D02*
X121272142Y-61826964D01*
X121272142Y-61826964D02*
X121736428Y-61826964D01*
%TO.C,U4*%
X117828571Y-95196964D02*
X117828571Y-95804107D01*
X117828571Y-95804107D02*
X117864285Y-95875535D01*
X117864285Y-95875535D02*
X117900000Y-95911250D01*
X117900000Y-95911250D02*
X117971428Y-95946964D01*
X117971428Y-95946964D02*
X118114285Y-95946964D01*
X118114285Y-95946964D02*
X118185714Y-95911250D01*
X118185714Y-95911250D02*
X118221428Y-95875535D01*
X118221428Y-95875535D02*
X118257142Y-95804107D01*
X118257142Y-95804107D02*
X118257142Y-95196964D01*
X118935714Y-95446964D02*
X118935714Y-95946964D01*
X118757142Y-95161250D02*
X118578571Y-95696964D01*
X118578571Y-95696964D02*
X119042856Y-95696964D01*
%TO.C,Q5*%
X112428571Y-80268392D02*
X112357142Y-80232678D01*
X112357142Y-80232678D02*
X112285714Y-80161250D01*
X112285714Y-80161250D02*
X112178571Y-80054107D01*
X112178571Y-80054107D02*
X112107142Y-80018392D01*
X112107142Y-80018392D02*
X112035714Y-80018392D01*
X112071428Y-80196964D02*
X112000000Y-80161250D01*
X112000000Y-80161250D02*
X111928571Y-80089821D01*
X111928571Y-80089821D02*
X111892857Y-79946964D01*
X111892857Y-79946964D02*
X111892857Y-79696964D01*
X111892857Y-79696964D02*
X111928571Y-79554107D01*
X111928571Y-79554107D02*
X112000000Y-79482678D01*
X112000000Y-79482678D02*
X112071428Y-79446964D01*
X112071428Y-79446964D02*
X112214285Y-79446964D01*
X112214285Y-79446964D02*
X112285714Y-79482678D01*
X112285714Y-79482678D02*
X112357142Y-79554107D01*
X112357142Y-79554107D02*
X112392857Y-79696964D01*
X112392857Y-79696964D02*
X112392857Y-79946964D01*
X112392857Y-79946964D02*
X112357142Y-80089821D01*
X112357142Y-80089821D02*
X112285714Y-80161250D01*
X112285714Y-80161250D02*
X112214285Y-80196964D01*
X112214285Y-80196964D02*
X112071428Y-80196964D01*
X113071428Y-79446964D02*
X112714285Y-79446964D01*
X112714285Y-79446964D02*
X112678571Y-79804107D01*
X112678571Y-79804107D02*
X112714285Y-79768392D01*
X112714285Y-79768392D02*
X112785714Y-79732678D01*
X112785714Y-79732678D02*
X112964285Y-79732678D01*
X112964285Y-79732678D02*
X113035714Y-79768392D01*
X113035714Y-79768392D02*
X113071428Y-79804107D01*
X113071428Y-79804107D02*
X113107142Y-79875535D01*
X113107142Y-79875535D02*
X113107142Y-80054107D01*
X113107142Y-80054107D02*
X113071428Y-80125535D01*
X113071428Y-80125535D02*
X113035714Y-80161250D01*
X113035714Y-80161250D02*
X112964285Y-80196964D01*
X112964285Y-80196964D02*
X112785714Y-80196964D01*
X112785714Y-80196964D02*
X112714285Y-80161250D01*
X112714285Y-80161250D02*
X112678571Y-80125535D01*
%TO.C,Q8*%
X135718571Y-61898392D02*
X135647142Y-61862678D01*
X135647142Y-61862678D02*
X135575714Y-61791250D01*
X135575714Y-61791250D02*
X135468571Y-61684107D01*
X135468571Y-61684107D02*
X135397142Y-61648392D01*
X135397142Y-61648392D02*
X135325714Y-61648392D01*
X135361428Y-61826964D02*
X135290000Y-61791250D01*
X135290000Y-61791250D02*
X135218571Y-61719821D01*
X135218571Y-61719821D02*
X135182857Y-61576964D01*
X135182857Y-61576964D02*
X135182857Y-61326964D01*
X135182857Y-61326964D02*
X135218571Y-61184107D01*
X135218571Y-61184107D02*
X135290000Y-61112678D01*
X135290000Y-61112678D02*
X135361428Y-61076964D01*
X135361428Y-61076964D02*
X135504285Y-61076964D01*
X135504285Y-61076964D02*
X135575714Y-61112678D01*
X135575714Y-61112678D02*
X135647142Y-61184107D01*
X135647142Y-61184107D02*
X135682857Y-61326964D01*
X135682857Y-61326964D02*
X135682857Y-61576964D01*
X135682857Y-61576964D02*
X135647142Y-61719821D01*
X135647142Y-61719821D02*
X135575714Y-61791250D01*
X135575714Y-61791250D02*
X135504285Y-61826964D01*
X135504285Y-61826964D02*
X135361428Y-61826964D01*
X136111428Y-61398392D02*
X136039999Y-61362678D01*
X136039999Y-61362678D02*
X136004285Y-61326964D01*
X136004285Y-61326964D02*
X135968571Y-61255535D01*
X135968571Y-61255535D02*
X135968571Y-61219821D01*
X135968571Y-61219821D02*
X136004285Y-61148392D01*
X136004285Y-61148392D02*
X136039999Y-61112678D01*
X136039999Y-61112678D02*
X136111428Y-61076964D01*
X136111428Y-61076964D02*
X136254285Y-61076964D01*
X136254285Y-61076964D02*
X136325714Y-61112678D01*
X136325714Y-61112678D02*
X136361428Y-61148392D01*
X136361428Y-61148392D02*
X136397142Y-61219821D01*
X136397142Y-61219821D02*
X136397142Y-61255535D01*
X136397142Y-61255535D02*
X136361428Y-61326964D01*
X136361428Y-61326964D02*
X136325714Y-61362678D01*
X136325714Y-61362678D02*
X136254285Y-61398392D01*
X136254285Y-61398392D02*
X136111428Y-61398392D01*
X136111428Y-61398392D02*
X136039999Y-61434107D01*
X136039999Y-61434107D02*
X136004285Y-61469821D01*
X136004285Y-61469821D02*
X135968571Y-61541250D01*
X135968571Y-61541250D02*
X135968571Y-61684107D01*
X135968571Y-61684107D02*
X136004285Y-61755535D01*
X136004285Y-61755535D02*
X136039999Y-61791250D01*
X136039999Y-61791250D02*
X136111428Y-61826964D01*
X136111428Y-61826964D02*
X136254285Y-61826964D01*
X136254285Y-61826964D02*
X136325714Y-61791250D01*
X136325714Y-61791250D02*
X136361428Y-61755535D01*
X136361428Y-61755535D02*
X136397142Y-61684107D01*
X136397142Y-61684107D02*
X136397142Y-61541250D01*
X136397142Y-61541250D02*
X136361428Y-61469821D01*
X136361428Y-61469821D02*
X136325714Y-61434107D01*
X136325714Y-61434107D02*
X136254285Y-61398392D01*
%TO.C,Q9*%
X141128571Y-82218392D02*
X141057142Y-82182678D01*
X141057142Y-82182678D02*
X140985714Y-82111250D01*
X140985714Y-82111250D02*
X140878571Y-82004107D01*
X140878571Y-82004107D02*
X140807142Y-81968392D01*
X140807142Y-81968392D02*
X140735714Y-81968392D01*
X140771428Y-82146964D02*
X140700000Y-82111250D01*
X140700000Y-82111250D02*
X140628571Y-82039821D01*
X140628571Y-82039821D02*
X140592857Y-81896964D01*
X140592857Y-81896964D02*
X140592857Y-81646964D01*
X140592857Y-81646964D02*
X140628571Y-81504107D01*
X140628571Y-81504107D02*
X140700000Y-81432678D01*
X140700000Y-81432678D02*
X140771428Y-81396964D01*
X140771428Y-81396964D02*
X140914285Y-81396964D01*
X140914285Y-81396964D02*
X140985714Y-81432678D01*
X140985714Y-81432678D02*
X141057142Y-81504107D01*
X141057142Y-81504107D02*
X141092857Y-81646964D01*
X141092857Y-81646964D02*
X141092857Y-81896964D01*
X141092857Y-81896964D02*
X141057142Y-82039821D01*
X141057142Y-82039821D02*
X140985714Y-82111250D01*
X140985714Y-82111250D02*
X140914285Y-82146964D01*
X140914285Y-82146964D02*
X140771428Y-82146964D01*
X141449999Y-82146964D02*
X141592856Y-82146964D01*
X141592856Y-82146964D02*
X141664285Y-82111250D01*
X141664285Y-82111250D02*
X141699999Y-82075535D01*
X141699999Y-82075535D02*
X141771428Y-81968392D01*
X141771428Y-81968392D02*
X141807142Y-81825535D01*
X141807142Y-81825535D02*
X141807142Y-81539821D01*
X141807142Y-81539821D02*
X141771428Y-81468392D01*
X141771428Y-81468392D02*
X141735714Y-81432678D01*
X141735714Y-81432678D02*
X141664285Y-81396964D01*
X141664285Y-81396964D02*
X141521428Y-81396964D01*
X141521428Y-81396964D02*
X141449999Y-81432678D01*
X141449999Y-81432678D02*
X141414285Y-81468392D01*
X141414285Y-81468392D02*
X141378571Y-81539821D01*
X141378571Y-81539821D02*
X141378571Y-81718392D01*
X141378571Y-81718392D02*
X141414285Y-81789821D01*
X141414285Y-81789821D02*
X141449999Y-81825535D01*
X141449999Y-81825535D02*
X141521428Y-81861250D01*
X141521428Y-81861250D02*
X141664285Y-81861250D01*
X141664285Y-81861250D02*
X141735714Y-81825535D01*
X141735714Y-81825535D02*
X141771428Y-81789821D01*
X141771428Y-81789821D02*
X141807142Y-81718392D01*
%TO.C,Q10*%
X195361428Y-61898392D02*
X195289999Y-61862678D01*
X195289999Y-61862678D02*
X195218571Y-61791250D01*
X195218571Y-61791250D02*
X195111428Y-61684107D01*
X195111428Y-61684107D02*
X195039999Y-61648392D01*
X195039999Y-61648392D02*
X194968571Y-61648392D01*
X195004285Y-61826964D02*
X194932857Y-61791250D01*
X194932857Y-61791250D02*
X194861428Y-61719821D01*
X194861428Y-61719821D02*
X194825714Y-61576964D01*
X194825714Y-61576964D02*
X194825714Y-61326964D01*
X194825714Y-61326964D02*
X194861428Y-61184107D01*
X194861428Y-61184107D02*
X194932857Y-61112678D01*
X194932857Y-61112678D02*
X195004285Y-61076964D01*
X195004285Y-61076964D02*
X195147142Y-61076964D01*
X195147142Y-61076964D02*
X195218571Y-61112678D01*
X195218571Y-61112678D02*
X195289999Y-61184107D01*
X195289999Y-61184107D02*
X195325714Y-61326964D01*
X195325714Y-61326964D02*
X195325714Y-61576964D01*
X195325714Y-61576964D02*
X195289999Y-61719821D01*
X195289999Y-61719821D02*
X195218571Y-61791250D01*
X195218571Y-61791250D02*
X195147142Y-61826964D01*
X195147142Y-61826964D02*
X195004285Y-61826964D01*
X196039999Y-61826964D02*
X195611428Y-61826964D01*
X195825713Y-61826964D02*
X195825713Y-61076964D01*
X195825713Y-61076964D02*
X195754285Y-61184107D01*
X195754285Y-61184107D02*
X195682856Y-61255535D01*
X195682856Y-61255535D02*
X195611428Y-61291250D01*
X196504285Y-61076964D02*
X196575714Y-61076964D01*
X196575714Y-61076964D02*
X196647142Y-61112678D01*
X196647142Y-61112678D02*
X196682857Y-61148392D01*
X196682857Y-61148392D02*
X196718571Y-61219821D01*
X196718571Y-61219821D02*
X196754285Y-61362678D01*
X196754285Y-61362678D02*
X196754285Y-61541250D01*
X196754285Y-61541250D02*
X196718571Y-61684107D01*
X196718571Y-61684107D02*
X196682857Y-61755535D01*
X196682857Y-61755535D02*
X196647142Y-61791250D01*
X196647142Y-61791250D02*
X196575714Y-61826964D01*
X196575714Y-61826964D02*
X196504285Y-61826964D01*
X196504285Y-61826964D02*
X196432857Y-61791250D01*
X196432857Y-61791250D02*
X196397142Y-61755535D01*
X196397142Y-61755535D02*
X196361428Y-61684107D01*
X196361428Y-61684107D02*
X196325714Y-61541250D01*
X196325714Y-61541250D02*
X196325714Y-61362678D01*
X196325714Y-61362678D02*
X196361428Y-61219821D01*
X196361428Y-61219821D02*
X196397142Y-61148392D01*
X196397142Y-61148392D02*
X196432857Y-61112678D01*
X196432857Y-61112678D02*
X196504285Y-61076964D01*
%TO.C,SW3*%
X184500000Y-118061250D02*
X184607143Y-118096964D01*
X184607143Y-118096964D02*
X184785714Y-118096964D01*
X184785714Y-118096964D02*
X184857143Y-118061250D01*
X184857143Y-118061250D02*
X184892857Y-118025535D01*
X184892857Y-118025535D02*
X184928571Y-117954107D01*
X184928571Y-117954107D02*
X184928571Y-117882678D01*
X184928571Y-117882678D02*
X184892857Y-117811250D01*
X184892857Y-117811250D02*
X184857143Y-117775535D01*
X184857143Y-117775535D02*
X184785714Y-117739821D01*
X184785714Y-117739821D02*
X184642857Y-117704107D01*
X184642857Y-117704107D02*
X184571428Y-117668392D01*
X184571428Y-117668392D02*
X184535714Y-117632678D01*
X184535714Y-117632678D02*
X184500000Y-117561250D01*
X184500000Y-117561250D02*
X184500000Y-117489821D01*
X184500000Y-117489821D02*
X184535714Y-117418392D01*
X184535714Y-117418392D02*
X184571428Y-117382678D01*
X184571428Y-117382678D02*
X184642857Y-117346964D01*
X184642857Y-117346964D02*
X184821428Y-117346964D01*
X184821428Y-117346964D02*
X184928571Y-117382678D01*
X185178571Y-117346964D02*
X185357143Y-118096964D01*
X185357143Y-118096964D02*
X185500000Y-117561250D01*
X185500000Y-117561250D02*
X185642857Y-118096964D01*
X185642857Y-118096964D02*
X185821429Y-117346964D01*
X186035714Y-117346964D02*
X186500000Y-117346964D01*
X186500000Y-117346964D02*
X186250000Y-117632678D01*
X186250000Y-117632678D02*
X186357143Y-117632678D01*
X186357143Y-117632678D02*
X186428572Y-117668392D01*
X186428572Y-117668392D02*
X186464286Y-117704107D01*
X186464286Y-117704107D02*
X186500000Y-117775535D01*
X186500000Y-117775535D02*
X186500000Y-117954107D01*
X186500000Y-117954107D02*
X186464286Y-118025535D01*
X186464286Y-118025535D02*
X186428572Y-118061250D01*
X186428572Y-118061250D02*
X186357143Y-118096964D01*
X186357143Y-118096964D02*
X186142857Y-118096964D01*
X186142857Y-118096964D02*
X186071429Y-118061250D01*
X186071429Y-118061250D02*
X186035714Y-118025535D01*
%TO.C,Q6*%
X124418392Y-84871428D02*
X124382678Y-84942857D01*
X124382678Y-84942857D02*
X124311250Y-85014285D01*
X124311250Y-85014285D02*
X124204107Y-85121428D01*
X124204107Y-85121428D02*
X124168392Y-85192857D01*
X124168392Y-85192857D02*
X124168392Y-85264285D01*
X124346964Y-85228571D02*
X124311250Y-85300000D01*
X124311250Y-85300000D02*
X124239821Y-85371428D01*
X124239821Y-85371428D02*
X124096964Y-85407142D01*
X124096964Y-85407142D02*
X123846964Y-85407142D01*
X123846964Y-85407142D02*
X123704107Y-85371428D01*
X123704107Y-85371428D02*
X123632678Y-85300000D01*
X123632678Y-85300000D02*
X123596964Y-85228571D01*
X123596964Y-85228571D02*
X123596964Y-85085714D01*
X123596964Y-85085714D02*
X123632678Y-85014285D01*
X123632678Y-85014285D02*
X123704107Y-84942857D01*
X123704107Y-84942857D02*
X123846964Y-84907142D01*
X123846964Y-84907142D02*
X124096964Y-84907142D01*
X124096964Y-84907142D02*
X124239821Y-84942857D01*
X124239821Y-84942857D02*
X124311250Y-85014285D01*
X124311250Y-85014285D02*
X124346964Y-85085714D01*
X124346964Y-85085714D02*
X124346964Y-85228571D01*
X123596964Y-84264286D02*
X123596964Y-84407143D01*
X123596964Y-84407143D02*
X123632678Y-84478571D01*
X123632678Y-84478571D02*
X123668392Y-84514286D01*
X123668392Y-84514286D02*
X123775535Y-84585714D01*
X123775535Y-84585714D02*
X123918392Y-84621428D01*
X123918392Y-84621428D02*
X124204107Y-84621428D01*
X124204107Y-84621428D02*
X124275535Y-84585714D01*
X124275535Y-84585714D02*
X124311250Y-84550000D01*
X124311250Y-84550000D02*
X124346964Y-84478571D01*
X124346964Y-84478571D02*
X124346964Y-84335714D01*
X124346964Y-84335714D02*
X124311250Y-84264286D01*
X124311250Y-84264286D02*
X124275535Y-84228571D01*
X124275535Y-84228571D02*
X124204107Y-84192857D01*
X124204107Y-84192857D02*
X124025535Y-84192857D01*
X124025535Y-84192857D02*
X123954107Y-84228571D01*
X123954107Y-84228571D02*
X123918392Y-84264286D01*
X123918392Y-84264286D02*
X123882678Y-84335714D01*
X123882678Y-84335714D02*
X123882678Y-84478571D01*
X123882678Y-84478571D02*
X123918392Y-84550000D01*
X123918392Y-84550000D02*
X123954107Y-84585714D01*
X123954107Y-84585714D02*
X124025535Y-84621428D01*
%TO.C,U5*%
X99628571Y-78396964D02*
X99628571Y-79004107D01*
X99628571Y-79004107D02*
X99664285Y-79075535D01*
X99664285Y-79075535D02*
X99700000Y-79111250D01*
X99700000Y-79111250D02*
X99771428Y-79146964D01*
X99771428Y-79146964D02*
X99914285Y-79146964D01*
X99914285Y-79146964D02*
X99985714Y-79111250D01*
X99985714Y-79111250D02*
X100021428Y-79075535D01*
X100021428Y-79075535D02*
X100057142Y-79004107D01*
X100057142Y-79004107D02*
X100057142Y-78396964D01*
X100771428Y-78396964D02*
X100414285Y-78396964D01*
X100414285Y-78396964D02*
X100378571Y-78754107D01*
X100378571Y-78754107D02*
X100414285Y-78718392D01*
X100414285Y-78718392D02*
X100485714Y-78682678D01*
X100485714Y-78682678D02*
X100664285Y-78682678D01*
X100664285Y-78682678D02*
X100735714Y-78718392D01*
X100735714Y-78718392D02*
X100771428Y-78754107D01*
X100771428Y-78754107D02*
X100807142Y-78825535D01*
X100807142Y-78825535D02*
X100807142Y-79004107D01*
X100807142Y-79004107D02*
X100771428Y-79075535D01*
X100771428Y-79075535D02*
X100735714Y-79111250D01*
X100735714Y-79111250D02*
X100664285Y-79146964D01*
X100664285Y-79146964D02*
X100485714Y-79146964D01*
X100485714Y-79146964D02*
X100414285Y-79111250D01*
X100414285Y-79111250D02*
X100378571Y-79075535D01*
%TO.C,J6*%
X91400000Y-76846964D02*
X91400000Y-77382678D01*
X91400000Y-77382678D02*
X91364285Y-77489821D01*
X91364285Y-77489821D02*
X91292857Y-77561250D01*
X91292857Y-77561250D02*
X91185714Y-77596964D01*
X91185714Y-77596964D02*
X91114285Y-77596964D01*
X92078572Y-76846964D02*
X91935714Y-76846964D01*
X91935714Y-76846964D02*
X91864286Y-76882678D01*
X91864286Y-76882678D02*
X91828572Y-76918392D01*
X91828572Y-76918392D02*
X91757143Y-77025535D01*
X91757143Y-77025535D02*
X91721429Y-77168392D01*
X91721429Y-77168392D02*
X91721429Y-77454107D01*
X91721429Y-77454107D02*
X91757143Y-77525535D01*
X91757143Y-77525535D02*
X91792857Y-77561250D01*
X91792857Y-77561250D02*
X91864286Y-77596964D01*
X91864286Y-77596964D02*
X92007143Y-77596964D01*
X92007143Y-77596964D02*
X92078572Y-77561250D01*
X92078572Y-77561250D02*
X92114286Y-77525535D01*
X92114286Y-77525535D02*
X92150000Y-77454107D01*
X92150000Y-77454107D02*
X92150000Y-77275535D01*
X92150000Y-77275535D02*
X92114286Y-77204107D01*
X92114286Y-77204107D02*
X92078572Y-77168392D01*
X92078572Y-77168392D02*
X92007143Y-77132678D01*
X92007143Y-77132678D02*
X91864286Y-77132678D01*
X91864286Y-77132678D02*
X91792857Y-77168392D01*
X91792857Y-77168392D02*
X91757143Y-77204107D01*
X91757143Y-77204107D02*
X91721429Y-77275535D01*
%TO.C,R12*%
X114517856Y-76946964D02*
X114267856Y-76589821D01*
X114089285Y-76946964D02*
X114089285Y-76196964D01*
X114089285Y-76196964D02*
X114374999Y-76196964D01*
X114374999Y-76196964D02*
X114446428Y-76232678D01*
X114446428Y-76232678D02*
X114482142Y-76268392D01*
X114482142Y-76268392D02*
X114517856Y-76339821D01*
X114517856Y-76339821D02*
X114517856Y-76446964D01*
X114517856Y-76446964D02*
X114482142Y-76518392D01*
X114482142Y-76518392D02*
X114446428Y-76554107D01*
X114446428Y-76554107D02*
X114374999Y-76589821D01*
X114374999Y-76589821D02*
X114089285Y-76589821D01*
X115232142Y-76946964D02*
X114803571Y-76946964D01*
X115017856Y-76946964D02*
X115017856Y-76196964D01*
X115017856Y-76196964D02*
X114946428Y-76304107D01*
X114946428Y-76304107D02*
X114874999Y-76375535D01*
X114874999Y-76375535D02*
X114803571Y-76411250D01*
X115517857Y-76268392D02*
X115553571Y-76232678D01*
X115553571Y-76232678D02*
X115625000Y-76196964D01*
X115625000Y-76196964D02*
X115803571Y-76196964D01*
X115803571Y-76196964D02*
X115875000Y-76232678D01*
X115875000Y-76232678D02*
X115910714Y-76268392D01*
X115910714Y-76268392D02*
X115946428Y-76339821D01*
X115946428Y-76339821D02*
X115946428Y-76411250D01*
X115946428Y-76411250D02*
X115910714Y-76518392D01*
X115910714Y-76518392D02*
X115482142Y-76946964D01*
X115482142Y-76946964D02*
X115946428Y-76946964D01*
%TO.C,R20*%
X137717856Y-79146964D02*
X137467856Y-78789821D01*
X137289285Y-79146964D02*
X137289285Y-78396964D01*
X137289285Y-78396964D02*
X137574999Y-78396964D01*
X137574999Y-78396964D02*
X137646428Y-78432678D01*
X137646428Y-78432678D02*
X137682142Y-78468392D01*
X137682142Y-78468392D02*
X137717856Y-78539821D01*
X137717856Y-78539821D02*
X137717856Y-78646964D01*
X137717856Y-78646964D02*
X137682142Y-78718392D01*
X137682142Y-78718392D02*
X137646428Y-78754107D01*
X137646428Y-78754107D02*
X137574999Y-78789821D01*
X137574999Y-78789821D02*
X137289285Y-78789821D01*
X138003571Y-78468392D02*
X138039285Y-78432678D01*
X138039285Y-78432678D02*
X138110714Y-78396964D01*
X138110714Y-78396964D02*
X138289285Y-78396964D01*
X138289285Y-78396964D02*
X138360714Y-78432678D01*
X138360714Y-78432678D02*
X138396428Y-78468392D01*
X138396428Y-78468392D02*
X138432142Y-78539821D01*
X138432142Y-78539821D02*
X138432142Y-78611250D01*
X138432142Y-78611250D02*
X138396428Y-78718392D01*
X138396428Y-78718392D02*
X137967856Y-79146964D01*
X137967856Y-79146964D02*
X138432142Y-79146964D01*
X138896428Y-78396964D02*
X138967857Y-78396964D01*
X138967857Y-78396964D02*
X139039285Y-78432678D01*
X139039285Y-78432678D02*
X139075000Y-78468392D01*
X139075000Y-78468392D02*
X139110714Y-78539821D01*
X139110714Y-78539821D02*
X139146428Y-78682678D01*
X139146428Y-78682678D02*
X139146428Y-78861250D01*
X139146428Y-78861250D02*
X139110714Y-79004107D01*
X139110714Y-79004107D02*
X139075000Y-79075535D01*
X139075000Y-79075535D02*
X139039285Y-79111250D01*
X139039285Y-79111250D02*
X138967857Y-79146964D01*
X138967857Y-79146964D02*
X138896428Y-79146964D01*
X138896428Y-79146964D02*
X138825000Y-79111250D01*
X138825000Y-79111250D02*
X138789285Y-79075535D01*
X138789285Y-79075535D02*
X138753571Y-79004107D01*
X138753571Y-79004107D02*
X138717857Y-78861250D01*
X138717857Y-78861250D02*
X138717857Y-78682678D01*
X138717857Y-78682678D02*
X138753571Y-78539821D01*
X138753571Y-78539821D02*
X138789285Y-78468392D01*
X138789285Y-78468392D02*
X138825000Y-78432678D01*
X138825000Y-78432678D02*
X138896428Y-78396964D01*
%TO.C,R11*%
X128746964Y-96682143D02*
X128389821Y-96932143D01*
X128746964Y-97110714D02*
X127996964Y-97110714D01*
X127996964Y-97110714D02*
X127996964Y-96825000D01*
X127996964Y-96825000D02*
X128032678Y-96753571D01*
X128032678Y-96753571D02*
X128068392Y-96717857D01*
X128068392Y-96717857D02*
X128139821Y-96682143D01*
X128139821Y-96682143D02*
X128246964Y-96682143D01*
X128246964Y-96682143D02*
X128318392Y-96717857D01*
X128318392Y-96717857D02*
X128354107Y-96753571D01*
X128354107Y-96753571D02*
X128389821Y-96825000D01*
X128389821Y-96825000D02*
X128389821Y-97110714D01*
X128746964Y-95967857D02*
X128746964Y-96396428D01*
X128746964Y-96182143D02*
X127996964Y-96182143D01*
X127996964Y-96182143D02*
X128104107Y-96253571D01*
X128104107Y-96253571D02*
X128175535Y-96325000D01*
X128175535Y-96325000D02*
X128211250Y-96396428D01*
X128746964Y-95253571D02*
X128746964Y-95682142D01*
X128746964Y-95467857D02*
X127996964Y-95467857D01*
X127996964Y-95467857D02*
X128104107Y-95539285D01*
X128104107Y-95539285D02*
X128175535Y-95610714D01*
X128175535Y-95610714D02*
X128211250Y-95682142D01*
%TO.C,R13*%
X116517856Y-81446964D02*
X116267856Y-81089821D01*
X116089285Y-81446964D02*
X116089285Y-80696964D01*
X116089285Y-80696964D02*
X116374999Y-80696964D01*
X116374999Y-80696964D02*
X116446428Y-80732678D01*
X116446428Y-80732678D02*
X116482142Y-80768392D01*
X116482142Y-80768392D02*
X116517856Y-80839821D01*
X116517856Y-80839821D02*
X116517856Y-80946964D01*
X116517856Y-80946964D02*
X116482142Y-81018392D01*
X116482142Y-81018392D02*
X116446428Y-81054107D01*
X116446428Y-81054107D02*
X116374999Y-81089821D01*
X116374999Y-81089821D02*
X116089285Y-81089821D01*
X117232142Y-81446964D02*
X116803571Y-81446964D01*
X117017856Y-81446964D02*
X117017856Y-80696964D01*
X117017856Y-80696964D02*
X116946428Y-80804107D01*
X116946428Y-80804107D02*
X116874999Y-80875535D01*
X116874999Y-80875535D02*
X116803571Y-80911250D01*
X117482142Y-80696964D02*
X117946428Y-80696964D01*
X117946428Y-80696964D02*
X117696428Y-80982678D01*
X117696428Y-80982678D02*
X117803571Y-80982678D01*
X117803571Y-80982678D02*
X117875000Y-81018392D01*
X117875000Y-81018392D02*
X117910714Y-81054107D01*
X117910714Y-81054107D02*
X117946428Y-81125535D01*
X117946428Y-81125535D02*
X117946428Y-81304107D01*
X117946428Y-81304107D02*
X117910714Y-81375535D01*
X117910714Y-81375535D02*
X117875000Y-81411250D01*
X117875000Y-81411250D02*
X117803571Y-81446964D01*
X117803571Y-81446964D02*
X117589285Y-81446964D01*
X117589285Y-81446964D02*
X117517857Y-81411250D01*
X117517857Y-81411250D02*
X117482142Y-81375535D01*
%TO.C,C5*%
X151767380Y-85166666D02*
X151815000Y-85214285D01*
X151815000Y-85214285D02*
X151862619Y-85357142D01*
X151862619Y-85357142D02*
X151862619Y-85452380D01*
X151862619Y-85452380D02*
X151815000Y-85595237D01*
X151815000Y-85595237D02*
X151719761Y-85690475D01*
X151719761Y-85690475D02*
X151624523Y-85738094D01*
X151624523Y-85738094D02*
X151434047Y-85785713D01*
X151434047Y-85785713D02*
X151291190Y-85785713D01*
X151291190Y-85785713D02*
X151100714Y-85738094D01*
X151100714Y-85738094D02*
X151005476Y-85690475D01*
X151005476Y-85690475D02*
X150910238Y-85595237D01*
X150910238Y-85595237D02*
X150862619Y-85452380D01*
X150862619Y-85452380D02*
X150862619Y-85357142D01*
X150862619Y-85357142D02*
X150910238Y-85214285D01*
X150910238Y-85214285D02*
X150957857Y-85166666D01*
X150862619Y-84261904D02*
X150862619Y-84738094D01*
X150862619Y-84738094D02*
X151338809Y-84785713D01*
X151338809Y-84785713D02*
X151291190Y-84738094D01*
X151291190Y-84738094D02*
X151243571Y-84642856D01*
X151243571Y-84642856D02*
X151243571Y-84404761D01*
X151243571Y-84404761D02*
X151291190Y-84309523D01*
X151291190Y-84309523D02*
X151338809Y-84261904D01*
X151338809Y-84261904D02*
X151434047Y-84214285D01*
X151434047Y-84214285D02*
X151672142Y-84214285D01*
X151672142Y-84214285D02*
X151767380Y-84261904D01*
X151767380Y-84261904D02*
X151815000Y-84309523D01*
X151815000Y-84309523D02*
X151862619Y-84404761D01*
X151862619Y-84404761D02*
X151862619Y-84642856D01*
X151862619Y-84642856D02*
X151815000Y-84738094D01*
X151815000Y-84738094D02*
X151767380Y-84785713D01*
D13*
%TO.C,J3*%
X136770000Y-101580000D02*
X139370000Y-101580000D01*
X136770000Y-101580000D02*
X136770000Y-98920000D01*
X139370000Y-101580000D02*
X139370000Y-98920000D01*
X134170000Y-100250000D02*
X134170000Y-98920000D01*
X134170000Y-98920000D02*
X135500000Y-98920000D01*
X136770000Y-98920000D02*
X139370000Y-98920000D01*
%TO.C,D3*%
X194000000Y-101780000D02*
X194000000Y-100870000D01*
X191280000Y-100870000D02*
X196720000Y-100870000D01*
X196720000Y-100870000D02*
X196720000Y-91130000D01*
X191280000Y-99445000D02*
X196720000Y-99445000D01*
X191280000Y-99325000D02*
X196720000Y-99325000D01*
X191280000Y-99205000D02*
X196720000Y-99205000D01*
X191280000Y-91130000D02*
X191280000Y-100870000D01*
X196720000Y-91130000D02*
X191280000Y-91130000D01*
X194000000Y-90220000D02*
X194000000Y-91130000D01*
%TO.C,Q7*%
X100670000Y-62480000D02*
X100670000Y-67121000D01*
X100670000Y-62480000D02*
X110910000Y-62480000D01*
X100670000Y-63990000D02*
X110910000Y-63990000D01*
X100670000Y-67121000D02*
X110910000Y-67121000D01*
X103940000Y-62480000D02*
X103940000Y-63990000D01*
X107641000Y-62480000D02*
X107641000Y-63990000D01*
X110910000Y-62480000D02*
X110910000Y-67121000D01*
%TO.C,C1*%
X93023752Y-89910000D02*
X91601248Y-89910000D01*
X93023752Y-88090000D02*
X91601248Y-88090000D01*
%TO.C,R9*%
X139535000Y-95972936D02*
X139535000Y-96427064D01*
X138065000Y-95972936D02*
X138065000Y-96427064D01*
%TO.C,U3*%
X94485000Y-94362500D02*
X94485000Y-92562500D01*
X94485000Y-94362500D02*
X94485000Y-95162500D01*
X91365000Y-94362500D02*
X91365000Y-93562500D01*
X91365000Y-94362500D02*
X91365000Y-95162500D01*
%TO.C,Q1*%
X106937500Y-95610000D02*
X108612500Y-95610000D01*
X106937500Y-95610000D02*
X106287500Y-95610000D01*
X106937500Y-92490000D02*
X107587500Y-92490000D01*
X106937500Y-92490000D02*
X106287500Y-92490000D01*
%TO.C,C4*%
X132160000Y-83976248D02*
X132160000Y-85398752D01*
X130340000Y-83976248D02*
X130340000Y-85398752D01*
%TO.C,R23*%
X145670000Y-62480000D02*
X145670000Y-67121000D01*
X145670000Y-62480000D02*
X155910000Y-62480000D01*
X145670000Y-63990000D02*
X155910000Y-63990000D01*
X145670000Y-67121000D02*
X155910000Y-67121000D01*
X148940000Y-62480000D02*
X148940000Y-63990000D01*
X152641000Y-62480000D02*
X152641000Y-63990000D01*
X155910000Y-62480000D02*
X155910000Y-67121000D01*
%TO.C,R25*%
X135015000Y-84977064D02*
X135015000Y-84522936D01*
X136485000Y-84977064D02*
X136485000Y-84522936D01*
%TO.C,R18*%
X140985000Y-89522936D02*
X140985000Y-89977064D01*
X139515000Y-89522936D02*
X139515000Y-89977064D01*
%TO.C,J2*%
X188720000Y-79555000D02*
X196400000Y-79555000D01*
X188720000Y-79555000D02*
X188720000Y-76895000D01*
X196400000Y-79555000D02*
X196400000Y-76895000D01*
X186120000Y-78225000D02*
X186120000Y-76895000D01*
X186120000Y-76895000D02*
X187450000Y-76895000D01*
X188720000Y-76895000D02*
X196400000Y-76895000D01*
%TO.C,R7*%
X114977064Y-99735000D02*
X114522936Y-99735000D01*
X114977064Y-98265000D02*
X114522936Y-98265000D01*
%TO.C,J5*%
X125830000Y-79270000D02*
X125830000Y-76670000D01*
X125830000Y-79270000D02*
X123170000Y-79270000D01*
X125830000Y-76670000D02*
X123170000Y-76670000D01*
X124500000Y-81870000D02*
X123170000Y-81870000D01*
X123170000Y-81870000D02*
X123170000Y-80540000D01*
X123170000Y-79270000D02*
X123170000Y-76670000D01*
%TO.C,R10*%
X133565000Y-96427064D02*
X133565000Y-95972936D01*
X135035000Y-96427064D02*
X135035000Y-95972936D01*
%TO.C,C2*%
X95601248Y-97590000D02*
X97023752Y-97590000D01*
X95601248Y-99410000D02*
X97023752Y-99410000D01*
%TO.C,J8*%
X91730000Y-75580000D02*
X99410000Y-75580000D01*
X91730000Y-75580000D02*
X91730000Y-72920000D01*
X99410000Y-75580000D02*
X99410000Y-72920000D01*
X89130000Y-74250000D02*
X89130000Y-72920000D01*
X89130000Y-72920000D02*
X90460000Y-72920000D01*
X91730000Y-72920000D02*
X99410000Y-72920000D01*
%TO.C,C3*%
X124390000Y-96973752D02*
X124390000Y-95551248D01*
X126210000Y-96973752D02*
X126210000Y-95551248D01*
%TO.C,Q2*%
X98375000Y-95060000D02*
X100050000Y-95060000D01*
X98375000Y-95060000D02*
X97725000Y-95060000D01*
X98375000Y-91940000D02*
X99025000Y-91940000D01*
X98375000Y-91940000D02*
X97725000Y-91940000D01*
%TO.C,U2*%
X89030000Y-127360000D02*
X89330000Y-127360000D01*
X89030000Y-127360000D02*
X89030000Y-106360000D01*
X91430000Y-127360000D02*
X91830000Y-127360000D01*
X91697000Y-127360000D02*
X91697000Y-124353000D01*
X94030000Y-127360000D02*
X94430000Y-127360000D01*
X96530000Y-127360000D02*
X96930000Y-127360000D01*
X99130000Y-127360000D02*
X99530000Y-127360000D01*
X101630000Y-127360000D02*
X102030000Y-127360000D01*
X104130000Y-127360000D02*
X104530000Y-127360000D01*
X106730000Y-127360000D02*
X107130000Y-127360000D01*
X109230000Y-127360000D02*
X109630000Y-127360000D01*
X111830000Y-127360000D02*
X112230000Y-127360000D01*
X114330000Y-127360000D02*
X114730000Y-127360000D01*
X116830000Y-127360000D02*
X117230000Y-127360000D01*
X119430000Y-127360000D02*
X119830000Y-127360000D01*
X121930000Y-127360000D02*
X122330000Y-127360000D01*
X124530000Y-127360000D02*
X124930000Y-127360000D01*
X127030000Y-127360000D02*
X127430000Y-127360000D01*
X129630000Y-127360000D02*
X130030000Y-127360000D01*
X132130000Y-127360000D02*
X132530000Y-127360000D01*
X134630000Y-127360000D02*
X135030000Y-127360000D01*
X137230000Y-127360000D02*
X137630000Y-127360000D01*
X91697000Y-124353000D02*
X89030000Y-124353000D01*
X140030000Y-120560000D02*
X140030000Y-127360000D01*
X140030000Y-118360000D02*
X140030000Y-117960000D01*
X140030000Y-115760000D02*
X140030000Y-115360000D01*
X89030000Y-106360000D02*
X89330000Y-106360000D01*
X91430000Y-106360000D02*
X91830000Y-106360000D01*
X94030000Y-106360000D02*
X94430000Y-106360000D01*
X96530000Y-106360000D02*
X96930000Y-106360000D01*
X99130000Y-106360000D02*
X99530000Y-106360000D01*
X101630000Y-106360000D02*
X102030000Y-106360000D01*
X104130000Y-106360000D02*
X104530000Y-106360000D01*
X106730000Y-106360000D02*
X107130000Y-106360000D01*
X109230000Y-106360000D02*
X109630000Y-106360000D01*
X111830000Y-106360000D02*
X112230000Y-106360000D01*
X114330000Y-106360000D02*
X114730000Y-106360000D01*
X116830000Y-106360000D02*
X117230000Y-106360000D01*
X119430000Y-106360000D02*
X119830000Y-106360000D01*
X121930000Y-106360000D02*
X122330000Y-106360000D01*
X124530000Y-106360000D02*
X124930000Y-106360000D01*
X127030000Y-106360000D02*
X127430000Y-106360000D01*
X129630000Y-106360000D02*
X130030000Y-106360000D01*
X132130000Y-106360000D02*
X132530000Y-106360000D01*
X134630000Y-106360000D02*
X135030000Y-106360000D01*
X137230000Y-106360000D02*
X137630000Y-106360000D01*
X140030000Y-106360000D02*
X140030000Y-113160000D01*
%TO.C,C6*%
X150273752Y-89110000D02*
X148851248Y-89110000D01*
X150273752Y-87290000D02*
X148851248Y-87290000D01*
%TO.C,R8*%
X110272936Y-77515000D02*
X110727064Y-77515000D01*
X110272936Y-78985000D02*
X110727064Y-78985000D01*
%TO.C,R24*%
X175670000Y-62480000D02*
X175670000Y-67121000D01*
X175670000Y-62480000D02*
X185910000Y-62480000D01*
X175670000Y-63990000D02*
X185910000Y-63990000D01*
X175670000Y-67121000D02*
X185910000Y-67121000D01*
X178940000Y-62480000D02*
X178940000Y-63990000D01*
X182641000Y-62480000D02*
X182641000Y-63990000D01*
X185910000Y-62480000D02*
X185910000Y-67121000D01*
%TO.C,R16*%
X133985000Y-78522936D02*
X133985000Y-78977064D01*
X132515000Y-78522936D02*
X132515000Y-78977064D01*
%TO.C,R17*%
X128522936Y-79515000D02*
X128977064Y-79515000D01*
X128522936Y-80985000D02*
X128977064Y-80985000D01*
%TO.C,R14*%
X131985000Y-89522936D02*
X131985000Y-89977064D01*
X130515000Y-89522936D02*
X130515000Y-89977064D01*
%TO.C,R21*%
X95852064Y-82985000D02*
X95397936Y-82985000D01*
X95852064Y-81515000D02*
X95397936Y-81515000D01*
%TO.C,U1*%
X152375000Y-93155000D02*
X152105000Y-93155000D01*
X152105000Y-93155000D02*
X152105000Y-90325000D01*
X145745000Y-93155000D02*
X145745000Y-92055000D01*
X145475000Y-93155000D02*
X145745000Y-93155000D01*
X152375000Y-99575000D02*
X152375000Y-93155000D01*
X145475000Y-99575000D02*
X145475000Y-93155000D01*
%TO.C,R2*%
X103610000Y-93272936D02*
X103610000Y-93727064D01*
X102140000Y-93272936D02*
X102140000Y-93727064D01*
%TO.C,R15*%
X126015000Y-89977064D02*
X126015000Y-89522936D01*
X127485000Y-89977064D02*
X127485000Y-89522936D01*
%TO.C,F1*%
X198310000Y-105935000D02*
X200500000Y-105935000D01*
X206690000Y-105935000D02*
X204500000Y-105935000D01*
X198310000Y-97900000D02*
X198310000Y-105935000D01*
X198310000Y-97900000D02*
X200500000Y-97900000D01*
X206690000Y-97900000D02*
X206690000Y-105935000D01*
X206690000Y-97900000D02*
X204500000Y-97900000D01*
X198310000Y-79390000D02*
X200500000Y-79390000D01*
X199325000Y-79390000D02*
X199325000Y-97900000D01*
X205675000Y-79390000D02*
X205675000Y-97900000D01*
X206690000Y-79390000D02*
X204500000Y-79390000D01*
X206690000Y-79390000D02*
X206690000Y-71310000D01*
X198310000Y-71310000D02*
X198310000Y-79390000D01*
X200500000Y-71310000D02*
X198310000Y-71310000D01*
X204500000Y-71310000D02*
X206690000Y-71310000D01*
%TO.C,R26*%
X170522936Y-116515000D02*
X170977064Y-116515000D01*
X170522936Y-117985000D02*
X170977064Y-117985000D01*
%TO.C,R1*%
X107102064Y-98735000D02*
X106647936Y-98735000D01*
X107102064Y-97265000D02*
X106647936Y-97265000D01*
%TO.C,J7*%
X94800000Y-64150000D02*
X91200000Y-64150000D01*
X93000000Y-68600000D02*
G75*
G03*
X94838478Y-64161522I0J2600000D01*
G01*
X91161522Y-64161522D02*
G75*
G03*
X93000000Y-68600000I1838478J-1838478D01*
G01*
%TO.C,Q11*%
X160670000Y-62480000D02*
X160670000Y-67121000D01*
X160670000Y-62480000D02*
X170910000Y-62480000D01*
X160670000Y-63990000D02*
X170910000Y-63990000D01*
X160670000Y-67121000D02*
X170910000Y-67121000D01*
X163940000Y-62480000D02*
X163940000Y-63990000D01*
X167641000Y-62480000D02*
X167641000Y-63990000D01*
X170910000Y-62480000D02*
X170910000Y-67121000D01*
%TO.C,R19*%
X135015000Y-89977064D02*
X135015000Y-89522936D01*
X136485000Y-89977064D02*
X136485000Y-89522936D01*
%TO.C,R3*%
X101647936Y-97265000D02*
X102102064Y-97265000D01*
X101647936Y-98735000D02*
X102102064Y-98735000D01*
%TO.C,J1*%
X209460000Y-112290000D02*
X195150000Y-112290000D01*
X209460000Y-112290000D02*
X209460000Y-128010000D01*
X191040000Y-118860000D02*
X191040000Y-122600000D01*
X209460000Y-128010000D02*
X195150000Y-128010000D01*
X195150000Y-112290001D02*
G75*
G03*
X191627043Y-114283194I-1J-4109998D01*
G01*
X191219587Y-125101648D02*
G75*
G03*
X195150000Y-128010000I3930413J1201648D01*
G01*
%TO.C,D1*%
X145490000Y-79100000D02*
X145490000Y-83400000D01*
X145490000Y-79100000D02*
X151300000Y-79100000D01*
X145490000Y-83400000D02*
X151300000Y-83400000D01*
%TO.C,R22*%
X115670000Y-62480000D02*
X115670000Y-67121000D01*
X115670000Y-62480000D02*
X125910000Y-62480000D01*
X115670000Y-63990000D02*
X125910000Y-63990000D01*
X115670000Y-67121000D02*
X125910000Y-67121000D01*
X118940000Y-62480000D02*
X118940000Y-63990000D01*
X122641000Y-62480000D02*
X122641000Y-63990000D01*
X125910000Y-62480000D02*
X125910000Y-67121000D01*
%TO.C,U4*%
X117240000Y-98062500D02*
X117240000Y-99737500D01*
X117240000Y-98062500D02*
X117240000Y-97412500D01*
X120360000Y-98062500D02*
X120360000Y-98712500D01*
X120360000Y-98062500D02*
X120360000Y-97412500D01*
%TO.C,Q5*%
X112500000Y-80690000D02*
X110825000Y-80690000D01*
X112500000Y-80690000D02*
X113150000Y-80690000D01*
X112500000Y-83810000D02*
X111850000Y-83810000D01*
X112500000Y-83810000D02*
X113150000Y-83810000D01*
%TO.C,Q8*%
X130670000Y-62480000D02*
X130670000Y-67121000D01*
X130670000Y-62480000D02*
X140910000Y-62480000D01*
X130670000Y-63990000D02*
X140910000Y-63990000D01*
X130670000Y-67121000D02*
X140910000Y-67121000D01*
X133940000Y-62480000D02*
X133940000Y-63990000D01*
X137641000Y-62480000D02*
X137641000Y-63990000D01*
X140910000Y-62480000D02*
X140910000Y-67121000D01*
%TO.C,Q9*%
X139240000Y-84312500D02*
X139240000Y-85987500D01*
X139240000Y-84312500D02*
X139240000Y-83662500D01*
X142360000Y-84312500D02*
X142360000Y-84962500D01*
X142360000Y-84312500D02*
X142360000Y-83662500D01*
%TO.C,Q10*%
X190670000Y-62480000D02*
X190670000Y-67121000D01*
X190670000Y-62480000D02*
X200910000Y-62480000D01*
X190670000Y-63990000D02*
X200910000Y-63990000D01*
X190670000Y-67121000D02*
X200910000Y-67121000D01*
X193940000Y-62480000D02*
X193940000Y-63990000D01*
X197641000Y-62480000D02*
X197641000Y-63990000D01*
X200910000Y-62480000D02*
X200910000Y-67121000D01*
%TO.C,Q6*%
X124740000Y-84312500D02*
X124740000Y-85987500D01*
X124740000Y-84312500D02*
X124740000Y-83662500D01*
X127860000Y-84312500D02*
X127860000Y-84962500D01*
X127860000Y-84312500D02*
X127860000Y-83662500D01*
%TO.C,U5*%
X98615000Y-81312500D02*
X98615000Y-82987500D01*
X98615000Y-81312500D02*
X98615000Y-80662500D01*
X101735000Y-81312500D02*
X101735000Y-81962500D01*
X101735000Y-81312500D02*
X101735000Y-80662500D01*
%TO.C,J6*%
X90320000Y-80770000D02*
X90320000Y-83370000D01*
X90320000Y-80770000D02*
X92980000Y-80770000D01*
X90320000Y-83370000D02*
X92980000Y-83370000D01*
X91650000Y-78170000D02*
X92980000Y-78170000D01*
X92980000Y-78170000D02*
X92980000Y-79500000D01*
X92980000Y-80770000D02*
X92980000Y-83370000D01*
%TO.C,R12*%
X115227064Y-78985000D02*
X114772936Y-78985000D01*
X115227064Y-77515000D02*
X114772936Y-77515000D01*
%TO.C,R20*%
X138477064Y-80985000D02*
X138022936Y-80985000D01*
X138477064Y-79515000D02*
X138022936Y-79515000D01*
%TO.C,R11*%
X130535000Y-95972936D02*
X130535000Y-96427064D01*
X129065000Y-95972936D02*
X129065000Y-96427064D01*
%TO.C,R13*%
X116772936Y-82015000D02*
X117227064Y-82015000D01*
X116772936Y-83485000D02*
X117227064Y-83485000D01*
%TO.C,C5*%
X147326248Y-84090000D02*
X148748752Y-84090000D01*
X147326248Y-85910000D02*
X148748752Y-85910000D01*
%TD*%
%LPC*%
D14*
%TO.C,J3*%
X135500000Y-100250000D03*
D15*
X138040000Y-100250000D03*
%TD*%
D16*
%TO.C,D3*%
X194000000Y-103620000D03*
D17*
X194000000Y-88380000D03*
%TD*%
D18*
%TO.C,SEHOLE*%
X206000000Y-134000000D03*
%TD*%
D19*
%TO.C,Q7*%
X103250000Y-65750000D03*
D20*
X105790000Y-65750000D03*
X108330000Y-65750000D03*
%TD*%
D21*
%TO.C,C1*%
X93875000Y-89000000D03*
X90750000Y-89000000D03*
%TD*%
D22*
%TO.C,R9*%
X138800000Y-95200000D03*
X138800000Y-97200000D03*
%TD*%
D23*
%TO.C,U3*%
X93875000Y-93225000D03*
X92925000Y-93225000D03*
X91975000Y-93225000D03*
X91975000Y-95500000D03*
X93875000Y-95500000D03*
%TD*%
D24*
%TO.C,Q1*%
X107875000Y-95000000D03*
X107875000Y-93100000D03*
X106000000Y-94050000D03*
%TD*%
D25*
%TO.C,SW1*%
X165500000Y-127750000D03*
X165500000Y-119750000D03*
%TD*%
D26*
%TO.C,C4*%
X131250000Y-83125000D03*
X131250000Y-86250000D03*
%TD*%
D27*
%TO.C,R23*%
X148250000Y-65750000D03*
D28*
X153330000Y-65750000D03*
%TD*%
D29*
%TO.C,R25*%
X135750000Y-85750000D03*
X135750000Y-83750000D03*
%TD*%
D22*
%TO.C,R18*%
X140250000Y-88750000D03*
X140250000Y-90750000D03*
%TD*%
D30*
%TO.C,SW4*%
X120750000Y-89250000D03*
X112750000Y-89250000D03*
%TD*%
D14*
%TO.C,J2*%
X187450000Y-78225000D03*
D15*
X189990000Y-78225000D03*
X192530000Y-78225000D03*
X195070000Y-78225000D03*
%TD*%
D31*
%TO.C,R7*%
X115750000Y-99000000D03*
X113750000Y-99000000D03*
%TD*%
D14*
%TO.C,J5*%
X124500000Y-80540000D03*
D15*
X124500000Y-78000000D03*
%TD*%
D29*
%TO.C,R10*%
X134300000Y-97200000D03*
X134300000Y-95200000D03*
%TD*%
D32*
%TO.C,C2*%
X94750000Y-98500000D03*
X97875000Y-98500000D03*
%TD*%
D33*
%TO.C,SW5*%
X155500000Y-119750000D03*
X155500000Y-127750000D03*
%TD*%
D18*
%TO.C,NWHOLE*%
X92000000Y-54000000D03*
%TD*%
D14*
%TO.C,J8*%
X90460000Y-74250000D03*
D15*
X93000000Y-74250000D03*
X95540000Y-74250000D03*
X98080000Y-74250000D03*
%TD*%
D34*
%TO.C,C3*%
X125300000Y-97825000D03*
X125300000Y-94700000D03*
%TD*%
D18*
%TO.C,NEHOLE*%
X206000000Y-54000000D03*
%TD*%
D24*
%TO.C,Q2*%
X99312500Y-94450000D03*
X99312500Y-92550000D03*
X97437500Y-93500000D03*
%TD*%
D35*
%TO.C,U2*%
X90530000Y-119585000D03*
D36*
X93560000Y-119285000D03*
X93560000Y-114435000D03*
D35*
X90530000Y-114135000D03*
D15*
X90400000Y-125750000D03*
D37*
X90400000Y-126650000D03*
D15*
X92940000Y-125750000D03*
D37*
X92940000Y-126650000D03*
D14*
X95480000Y-125750000D03*
D37*
X95480000Y-126650000D03*
D15*
X98020000Y-125750000D03*
D37*
X98020000Y-126650000D03*
D15*
X100560000Y-125750000D03*
D37*
X100560000Y-126650000D03*
D15*
X103100000Y-125750000D03*
D37*
X103100000Y-126650000D03*
D15*
X105640000Y-125750000D03*
D37*
X105640000Y-126650000D03*
D14*
X108180000Y-125750000D03*
D37*
X108180000Y-126650000D03*
D15*
X110720000Y-125750000D03*
D37*
X110720000Y-126650000D03*
D15*
X113260000Y-125750000D03*
D37*
X113260000Y-126650000D03*
D15*
X115800000Y-125750000D03*
D37*
X115800000Y-126650000D03*
D15*
X118340000Y-125750000D03*
D37*
X118340000Y-126650000D03*
D14*
X120880000Y-125750000D03*
D37*
X120880000Y-126650000D03*
D15*
X123420000Y-125750000D03*
D37*
X123420000Y-126650000D03*
D15*
X125960000Y-125750000D03*
D37*
X125960000Y-126650000D03*
D15*
X128500000Y-125750000D03*
D37*
X128500000Y-126650000D03*
D15*
X131040000Y-125750000D03*
D37*
X131040000Y-126650000D03*
D14*
X133580000Y-125750000D03*
D37*
X133580000Y-126650000D03*
D15*
X136120000Y-125750000D03*
D37*
X136120000Y-126650000D03*
D15*
X138660000Y-125750000D03*
D37*
X138660000Y-126650000D03*
D15*
X138660000Y-107970000D03*
D37*
X138660000Y-107070000D03*
D15*
X136120000Y-107970000D03*
D37*
X136120000Y-107070000D03*
D14*
X133580000Y-107970000D03*
D37*
X133580000Y-107070000D03*
D15*
X131040000Y-107970000D03*
D37*
X131040000Y-107070000D03*
D15*
X128500000Y-107970000D03*
D37*
X128500000Y-107070000D03*
D15*
X125960000Y-107970000D03*
D37*
X125960000Y-107070000D03*
D15*
X123420000Y-107970000D03*
D37*
X123420000Y-107070000D03*
D14*
X120880000Y-107970000D03*
D37*
X120880000Y-107070000D03*
D15*
X118340000Y-107970000D03*
D37*
X118340000Y-107070000D03*
D15*
X115800000Y-107970000D03*
D37*
X115800000Y-107070000D03*
D15*
X113260000Y-107970000D03*
D37*
X113260000Y-107070000D03*
D15*
X110720000Y-107970000D03*
D37*
X110720000Y-107070000D03*
D14*
X108180000Y-107970000D03*
D37*
X108180000Y-107070000D03*
D15*
X105640000Y-107970000D03*
D37*
X105640000Y-107070000D03*
D15*
X103100000Y-107970000D03*
D37*
X103100000Y-107070000D03*
D15*
X100560000Y-107970000D03*
D37*
X100560000Y-107070000D03*
D15*
X98020000Y-107970000D03*
D37*
X98020000Y-107070000D03*
D14*
X95480000Y-107970000D03*
D37*
X95480000Y-107070000D03*
D15*
X92940000Y-107970000D03*
D37*
X92940000Y-107070000D03*
D15*
X90400000Y-107970000D03*
D37*
X90400000Y-107070000D03*
D15*
X138430000Y-119400000D03*
D38*
X139330000Y-119400000D03*
D14*
X138430000Y-116860000D03*
D38*
X139330000Y-116860000D03*
D15*
X138430000Y-114320000D03*
D38*
X139330000Y-114320000D03*
%TD*%
D14*
%TO.C,J4*%
X167880000Y-83250000D03*
D15*
X170420000Y-83250000D03*
X172960000Y-83250000D03*
X175500000Y-83250000D03*
%TD*%
D33*
%TO.C,SW2*%
X175500000Y-119750000D03*
X175500000Y-127750000D03*
%TD*%
D21*
%TO.C,C6*%
X151125000Y-88200000D03*
X148000000Y-88200000D03*
%TD*%
D39*
%TO.C,R8*%
X109500000Y-78250000D03*
X111500000Y-78250000D03*
%TD*%
D27*
%TO.C,R24*%
X178250000Y-65750000D03*
D28*
X183330000Y-65750000D03*
%TD*%
D22*
%TO.C,R16*%
X133250000Y-77750000D03*
X133250000Y-79750000D03*
%TD*%
D39*
%TO.C,R17*%
X127750000Y-80250000D03*
X129750000Y-80250000D03*
%TD*%
D22*
%TO.C,R14*%
X131250000Y-88750000D03*
X131250000Y-90750000D03*
%TD*%
D31*
%TO.C,R21*%
X96625000Y-82250000D03*
X94625000Y-82250000D03*
%TD*%
D40*
%TO.C,U1*%
X151205000Y-91425000D03*
D41*
X148925000Y-97725000D03*
D40*
X146645000Y-91425000D03*
%TD*%
D22*
%TO.C,R2*%
X102875000Y-92500000D03*
X102875000Y-94500000D03*
%TD*%
D29*
%TO.C,R15*%
X126750000Y-90750000D03*
X126750000Y-88750000D03*
%TD*%
D42*
%TO.C,F1*%
X202500000Y-105750000D03*
X202500000Y-98130000D03*
D43*
X202500000Y-79160000D03*
X202500000Y-71540000D03*
%TD*%
D39*
%TO.C,R26*%
X169750000Y-117250000D03*
X171750000Y-117250000D03*
%TD*%
D31*
%TO.C,R1*%
X107875000Y-98000000D03*
X105875000Y-98000000D03*
%TD*%
D44*
%TO.C,J7*%
X94270000Y-66000000D03*
D45*
X93000000Y-66000000D03*
X91730000Y-66000000D03*
%TD*%
D19*
%TO.C,Q11*%
X163250000Y-65750000D03*
D20*
X165790000Y-65750000D03*
X168330000Y-65750000D03*
%TD*%
D29*
%TO.C,R19*%
X135750000Y-90750000D03*
X135750000Y-88750000D03*
%TD*%
D39*
%TO.C,R3*%
X100875000Y-98000000D03*
X102875000Y-98000000D03*
%TD*%
D46*
%TO.C,J1*%
X199000000Y-113400000D03*
X199000000Y-126900000D03*
D47*
X193000000Y-116550000D03*
D48*
X193000000Y-123750000D03*
%TD*%
D49*
%TO.C,D1*%
X147000000Y-81250000D03*
X151300000Y-81250000D03*
%TD*%
D27*
%TO.C,R22*%
X118250000Y-65750000D03*
D28*
X123330000Y-65750000D03*
%TD*%
D50*
%TO.C,U4*%
X117850000Y-99000000D03*
X119750000Y-99000000D03*
X118800000Y-97125000D03*
%TD*%
D51*
%TO.C,Q5*%
X111562500Y-81300000D03*
X111562500Y-83200000D03*
X113437500Y-82250000D03*
%TD*%
D19*
%TO.C,Q8*%
X133250000Y-65750000D03*
D20*
X135790000Y-65750000D03*
X138330000Y-65750000D03*
%TD*%
D50*
%TO.C,Q9*%
X139850000Y-85250000D03*
X141750000Y-85250000D03*
X140800000Y-83375000D03*
%TD*%
D19*
%TO.C,Q10*%
X193250000Y-65750000D03*
D20*
X195790000Y-65750000D03*
X198330000Y-65750000D03*
%TD*%
D33*
%TO.C,SW3*%
X185500000Y-119750000D03*
X185500000Y-127750000D03*
%TD*%
D50*
%TO.C,Q6*%
X125350000Y-85250000D03*
X127250000Y-85250000D03*
X126300000Y-83375000D03*
%TD*%
%TO.C,U5*%
X99225000Y-82250000D03*
X101125000Y-82250000D03*
X100175000Y-80375000D03*
%TD*%
D18*
%TO.C,SWHOLE*%
X92000000Y-134000000D03*
%TD*%
D14*
%TO.C,J6*%
X91650000Y-79500000D03*
D15*
X91650000Y-82040000D03*
%TD*%
D31*
%TO.C,R12*%
X116000000Y-78250000D03*
X114000000Y-78250000D03*
%TD*%
%TO.C,R20*%
X139250000Y-80250000D03*
X137250000Y-80250000D03*
%TD*%
D22*
%TO.C,R11*%
X129800000Y-95200000D03*
X129800000Y-97200000D03*
%TD*%
D39*
%TO.C,R13*%
X116000000Y-82750000D03*
X118000000Y-82750000D03*
%TD*%
D32*
%TO.C,C5*%
X146475000Y-85000000D03*
X149600000Y-85000000D03*
%TD*%
M02*
